G04 #@! TF.GenerationSoftware,KiCad,Pcbnew,(6.0.1)*
G04 #@! TF.CreationDate,2022-02-28T11:40:08-08:00*
G04 #@! TF.ProjectId,PCB,5043422e-6b69-4636-9164-5f7063625858,rev?*
G04 #@! TF.SameCoordinates,Original*
G04 #@! TF.FileFunction,Copper,L2,Bot*
G04 #@! TF.FilePolarity,Positive*
%FSLAX46Y46*%
G04 Gerber Fmt 4.6, Leading zero omitted, Abs format (unit mm)*
G04 Created by KiCad (PCBNEW (6.0.1)) date 2022-02-28 11:40:08*
%MOMM*%
%LPD*%
G01*
G04 APERTURE LIST*
%ADD10C,0.100000*%
%ADD11C,0.150000*%
%ADD12C,0.300000*%
%ADD13C,0.400000*%
G04 #@! TA.AperFunction,ComponentPad*
%ADD14R,1.600000X1.500000*%
G04 #@! TD*
G04 #@! TA.AperFunction,ComponentPad*
%ADD15C,1.600000*%
G04 #@! TD*
G04 #@! TA.AperFunction,ComponentPad*
%ADD16C,3.000000*%
G04 #@! TD*
G04 #@! TA.AperFunction,ComponentPad*
%ADD17O,1.200000X1.900000*%
G04 #@! TD*
G04 #@! TA.AperFunction,ComponentPad*
%ADD18C,1.450000*%
G04 #@! TD*
G04 #@! TA.AperFunction,ComponentPad*
%ADD19R,1.700000X1.700000*%
G04 #@! TD*
G04 #@! TA.AperFunction,ComponentPad*
%ADD20O,1.700000X1.700000*%
G04 #@! TD*
G04 #@! TA.AperFunction,ViaPad*
%ADD21C,0.800000*%
G04 #@! TD*
G04 #@! TA.AperFunction,Conductor*
%ADD22C,0.250000*%
G04 #@! TD*
G04 #@! TA.AperFunction,Conductor*
%ADD23C,0.350000*%
G04 #@! TD*
G04 #@! TA.AperFunction,Conductor*
%ADD24C,0.200000*%
G04 #@! TD*
G04 APERTURE END LIST*
D10*
D11*
X177002200Y-166007200D02*
X177002200Y-198007200D01*
X285002200Y-198007200D01*
X285002200Y-166007200D01*
X177002200Y-166007200D01*
D10*
D11*
X10000000Y-10000000D02*
X10000000Y-200007200D01*
X287002200Y-200007200D01*
X287002200Y-10000000D01*
X10000000Y-10000000D01*
D10*
D11*
X12000000Y-12000000D02*
X12000000Y-198007200D01*
X285002200Y-198007200D01*
X285002200Y-12000000D01*
X12000000Y-12000000D01*
D10*
D11*
X60000000Y-12000000D02*
X60000000Y-10000000D01*
D10*
D11*
X110000000Y-12000000D02*
X110000000Y-10000000D01*
D10*
D11*
X160000000Y-12000000D02*
X160000000Y-10000000D01*
D10*
D11*
X210000000Y-12000000D02*
X210000000Y-10000000D01*
D10*
D11*
X260000000Y-12000000D02*
X260000000Y-10000000D01*
D10*
D11*
X36065476Y-11588095D02*
X35322619Y-11588095D01*
X35694047Y-11588095D02*
X35694047Y-10288095D01*
X35570238Y-10473809D01*
X35446428Y-10597619D01*
X35322619Y-10659523D01*
D10*
D11*
X85322619Y-10411904D02*
X85384523Y-10350000D01*
X85508333Y-10288095D01*
X85817857Y-10288095D01*
X85941666Y-10350000D01*
X86003571Y-10411904D01*
X86065476Y-10535714D01*
X86065476Y-10659523D01*
X86003571Y-10845238D01*
X85260714Y-11588095D01*
X86065476Y-11588095D01*
D10*
D11*
X135260714Y-10288095D02*
X136065476Y-10288095D01*
X135632142Y-10783333D01*
X135817857Y-10783333D01*
X135941666Y-10845238D01*
X136003571Y-10907142D01*
X136065476Y-11030952D01*
X136065476Y-11340476D01*
X136003571Y-11464285D01*
X135941666Y-11526190D01*
X135817857Y-11588095D01*
X135446428Y-11588095D01*
X135322619Y-11526190D01*
X135260714Y-11464285D01*
D10*
D11*
X185941666Y-10721428D02*
X185941666Y-11588095D01*
X185632142Y-10226190D02*
X185322619Y-11154761D01*
X186127380Y-11154761D01*
D10*
D11*
X236003571Y-10288095D02*
X235384523Y-10288095D01*
X235322619Y-10907142D01*
X235384523Y-10845238D01*
X235508333Y-10783333D01*
X235817857Y-10783333D01*
X235941666Y-10845238D01*
X236003571Y-10907142D01*
X236065476Y-11030952D01*
X236065476Y-11340476D01*
X236003571Y-11464285D01*
X235941666Y-11526190D01*
X235817857Y-11588095D01*
X235508333Y-11588095D01*
X235384523Y-11526190D01*
X235322619Y-11464285D01*
D10*
D11*
X285941666Y-10288095D02*
X285694047Y-10288095D01*
X285570238Y-10350000D01*
X285508333Y-10411904D01*
X285384523Y-10597619D01*
X285322619Y-10845238D01*
X285322619Y-11340476D01*
X285384523Y-11464285D01*
X285446428Y-11526190D01*
X285570238Y-11588095D01*
X285817857Y-11588095D01*
X285941666Y-11526190D01*
X286003571Y-11464285D01*
X286065476Y-11340476D01*
X286065476Y-11030952D01*
X286003571Y-10907142D01*
X285941666Y-10845238D01*
X285817857Y-10783333D01*
X285570238Y-10783333D01*
X285446428Y-10845238D01*
X285384523Y-10907142D01*
X285322619Y-11030952D01*
D10*
D11*
X60000000Y-198007200D02*
X60000000Y-200007200D01*
D10*
D11*
X110000000Y-198007200D02*
X110000000Y-200007200D01*
D10*
D11*
X160000000Y-198007200D02*
X160000000Y-200007200D01*
D10*
D11*
X210000000Y-198007200D02*
X210000000Y-200007200D01*
D10*
D11*
X260000000Y-198007200D02*
X260000000Y-200007200D01*
D10*
D11*
X36065476Y-199595295D02*
X35322619Y-199595295D01*
X35694047Y-199595295D02*
X35694047Y-198295295D01*
X35570238Y-198481009D01*
X35446428Y-198604819D01*
X35322619Y-198666723D01*
D10*
D11*
X85322619Y-198419104D02*
X85384523Y-198357200D01*
X85508333Y-198295295D01*
X85817857Y-198295295D01*
X85941666Y-198357200D01*
X86003571Y-198419104D01*
X86065476Y-198542914D01*
X86065476Y-198666723D01*
X86003571Y-198852438D01*
X85260714Y-199595295D01*
X86065476Y-199595295D01*
D10*
D11*
X135260714Y-198295295D02*
X136065476Y-198295295D01*
X135632142Y-198790533D01*
X135817857Y-198790533D01*
X135941666Y-198852438D01*
X136003571Y-198914342D01*
X136065476Y-199038152D01*
X136065476Y-199347676D01*
X136003571Y-199471485D01*
X135941666Y-199533390D01*
X135817857Y-199595295D01*
X135446428Y-199595295D01*
X135322619Y-199533390D01*
X135260714Y-199471485D01*
D10*
D11*
X185941666Y-198728628D02*
X185941666Y-199595295D01*
X185632142Y-198233390D02*
X185322619Y-199161961D01*
X186127380Y-199161961D01*
D10*
D11*
X236003571Y-198295295D02*
X235384523Y-198295295D01*
X235322619Y-198914342D01*
X235384523Y-198852438D01*
X235508333Y-198790533D01*
X235817857Y-198790533D01*
X235941666Y-198852438D01*
X236003571Y-198914342D01*
X236065476Y-199038152D01*
X236065476Y-199347676D01*
X236003571Y-199471485D01*
X235941666Y-199533390D01*
X235817857Y-199595295D01*
X235508333Y-199595295D01*
X235384523Y-199533390D01*
X235322619Y-199471485D01*
D10*
D11*
X285941666Y-198295295D02*
X285694047Y-198295295D01*
X285570238Y-198357200D01*
X285508333Y-198419104D01*
X285384523Y-198604819D01*
X285322619Y-198852438D01*
X285322619Y-199347676D01*
X285384523Y-199471485D01*
X285446428Y-199533390D01*
X285570238Y-199595295D01*
X285817857Y-199595295D01*
X285941666Y-199533390D01*
X286003571Y-199471485D01*
X286065476Y-199347676D01*
X286065476Y-199038152D01*
X286003571Y-198914342D01*
X285941666Y-198852438D01*
X285817857Y-198790533D01*
X285570238Y-198790533D01*
X285446428Y-198852438D01*
X285384523Y-198914342D01*
X285322619Y-199038152D01*
D10*
D11*
X10000000Y-60000000D02*
X12000000Y-60000000D01*
D10*
D11*
X10000000Y-110000000D02*
X12000000Y-110000000D01*
D10*
D11*
X10000000Y-160000000D02*
X12000000Y-160000000D01*
D10*
D11*
X10690476Y-35216666D02*
X11309523Y-35216666D01*
X10566666Y-35588095D02*
X11000000Y-34288095D01*
X11433333Y-35588095D01*
D10*
D11*
X11092857Y-84907142D02*
X11278571Y-84969047D01*
X11340476Y-85030952D01*
X11402380Y-85154761D01*
X11402380Y-85340476D01*
X11340476Y-85464285D01*
X11278571Y-85526190D01*
X11154761Y-85588095D01*
X10659523Y-85588095D01*
X10659523Y-84288095D01*
X11092857Y-84288095D01*
X11216666Y-84350000D01*
X11278571Y-84411904D01*
X11340476Y-84535714D01*
X11340476Y-84659523D01*
X11278571Y-84783333D01*
X11216666Y-84845238D01*
X11092857Y-84907142D01*
X10659523Y-84907142D01*
D10*
D11*
X11402380Y-135464285D02*
X11340476Y-135526190D01*
X11154761Y-135588095D01*
X11030952Y-135588095D01*
X10845238Y-135526190D01*
X10721428Y-135402380D01*
X10659523Y-135278571D01*
X10597619Y-135030952D01*
X10597619Y-134845238D01*
X10659523Y-134597619D01*
X10721428Y-134473809D01*
X10845238Y-134350000D01*
X11030952Y-134288095D01*
X11154761Y-134288095D01*
X11340476Y-134350000D01*
X11402380Y-134411904D01*
D10*
D11*
X10659523Y-185588095D02*
X10659523Y-184288095D01*
X10969047Y-184288095D01*
X11154761Y-184350000D01*
X11278571Y-184473809D01*
X11340476Y-184597619D01*
X11402380Y-184845238D01*
X11402380Y-185030952D01*
X11340476Y-185278571D01*
X11278571Y-185402380D01*
X11154761Y-185526190D01*
X10969047Y-185588095D01*
X10659523Y-185588095D01*
D10*
D11*
X287002200Y-60000000D02*
X285002200Y-60000000D01*
D10*
D11*
X287002200Y-110000000D02*
X285002200Y-110000000D01*
D10*
D11*
X287002200Y-160000000D02*
X285002200Y-160000000D01*
D10*
D11*
X285692676Y-35216666D02*
X286311723Y-35216666D01*
X285568866Y-35588095D02*
X286002200Y-34288095D01*
X286435533Y-35588095D01*
D10*
D11*
X286095057Y-84907142D02*
X286280771Y-84969047D01*
X286342676Y-85030952D01*
X286404580Y-85154761D01*
X286404580Y-85340476D01*
X286342676Y-85464285D01*
X286280771Y-85526190D01*
X286156961Y-85588095D01*
X285661723Y-85588095D01*
X285661723Y-84288095D01*
X286095057Y-84288095D01*
X286218866Y-84350000D01*
X286280771Y-84411904D01*
X286342676Y-84535714D01*
X286342676Y-84659523D01*
X286280771Y-84783333D01*
X286218866Y-84845238D01*
X286095057Y-84907142D01*
X285661723Y-84907142D01*
D10*
D11*
X286404580Y-135464285D02*
X286342676Y-135526190D01*
X286156961Y-135588095D01*
X286033152Y-135588095D01*
X285847438Y-135526190D01*
X285723628Y-135402380D01*
X285661723Y-135278571D01*
X285599819Y-135030952D01*
X285599819Y-134845238D01*
X285661723Y-134597619D01*
X285723628Y-134473809D01*
X285847438Y-134350000D01*
X286033152Y-134288095D01*
X286156961Y-134288095D01*
X286342676Y-134350000D01*
X286404580Y-134411904D01*
D10*
D11*
X285661723Y-185588095D02*
X285661723Y-184288095D01*
X285971247Y-184288095D01*
X286156961Y-184350000D01*
X286280771Y-184473809D01*
X286342676Y-184597619D01*
X286404580Y-184845238D01*
X286404580Y-185030952D01*
X286342676Y-185278571D01*
X286280771Y-185402380D01*
X286156961Y-185526190D01*
X285971247Y-185588095D01*
X285661723Y-185588095D01*
D10*
D11*
X200434342Y-193785771D02*
X200434342Y-192285771D01*
X200791485Y-192285771D01*
X201005771Y-192357200D01*
X201148628Y-192500057D01*
X201220057Y-192642914D01*
X201291485Y-192928628D01*
X201291485Y-193142914D01*
X201220057Y-193428628D01*
X201148628Y-193571485D01*
X201005771Y-193714342D01*
X200791485Y-193785771D01*
X200434342Y-193785771D01*
X202577200Y-193785771D02*
X202577200Y-193000057D01*
X202505771Y-192857200D01*
X202362914Y-192785771D01*
X202077200Y-192785771D01*
X201934342Y-192857200D01*
X202577200Y-193714342D02*
X202434342Y-193785771D01*
X202077200Y-193785771D01*
X201934342Y-193714342D01*
X201862914Y-193571485D01*
X201862914Y-193428628D01*
X201934342Y-193285771D01*
X202077200Y-193214342D01*
X202434342Y-193214342D01*
X202577200Y-193142914D01*
X203077200Y-192785771D02*
X203648628Y-192785771D01*
X203291485Y-192285771D02*
X203291485Y-193571485D01*
X203362914Y-193714342D01*
X203505771Y-193785771D01*
X203648628Y-193785771D01*
X204720057Y-193714342D02*
X204577200Y-193785771D01*
X204291485Y-193785771D01*
X204148628Y-193714342D01*
X204077200Y-193571485D01*
X204077200Y-193000057D01*
X204148628Y-192857200D01*
X204291485Y-192785771D01*
X204577200Y-192785771D01*
X204720057Y-192857200D01*
X204791485Y-193000057D01*
X204791485Y-193142914D01*
X204077200Y-193285771D01*
X205434342Y-193642914D02*
X205505771Y-193714342D01*
X205434342Y-193785771D01*
X205362914Y-193714342D01*
X205434342Y-193642914D01*
X205434342Y-193785771D01*
X205434342Y-192857200D02*
X205505771Y-192928628D01*
X205434342Y-193000057D01*
X205362914Y-192928628D01*
X205434342Y-192857200D01*
X205434342Y-193000057D01*
D10*
D11*
X177002200Y-194507200D02*
X285002200Y-194507200D01*
D10*
D11*
X178434342Y-196585771D02*
X178434342Y-195085771D01*
X179291485Y-196585771D02*
X178648628Y-195728628D01*
X179291485Y-195085771D02*
X178434342Y-195942914D01*
X179934342Y-196585771D02*
X179934342Y-195585771D01*
X179934342Y-195085771D02*
X179862914Y-195157200D01*
X179934342Y-195228628D01*
X180005771Y-195157200D01*
X179934342Y-195085771D01*
X179934342Y-195228628D01*
X181505771Y-196442914D02*
X181434342Y-196514342D01*
X181220057Y-196585771D01*
X181077200Y-196585771D01*
X180862914Y-196514342D01*
X180720057Y-196371485D01*
X180648628Y-196228628D01*
X180577200Y-195942914D01*
X180577200Y-195728628D01*
X180648628Y-195442914D01*
X180720057Y-195300057D01*
X180862914Y-195157200D01*
X181077200Y-195085771D01*
X181220057Y-195085771D01*
X181434342Y-195157200D01*
X181505771Y-195228628D01*
X182791485Y-196585771D02*
X182791485Y-195800057D01*
X182720057Y-195657200D01*
X182577200Y-195585771D01*
X182291485Y-195585771D01*
X182148628Y-195657200D01*
X182791485Y-196514342D02*
X182648628Y-196585771D01*
X182291485Y-196585771D01*
X182148628Y-196514342D01*
X182077200Y-196371485D01*
X182077200Y-196228628D01*
X182148628Y-196085771D01*
X182291485Y-196014342D01*
X182648628Y-196014342D01*
X182791485Y-195942914D01*
X184148628Y-196585771D02*
X184148628Y-195085771D01*
X184148628Y-196514342D02*
X184005771Y-196585771D01*
X183720057Y-196585771D01*
X183577200Y-196514342D01*
X183505771Y-196442914D01*
X183434342Y-196300057D01*
X183434342Y-195871485D01*
X183505771Y-195728628D01*
X183577200Y-195657200D01*
X183720057Y-195585771D01*
X184005771Y-195585771D01*
X184148628Y-195657200D01*
X186005771Y-195800057D02*
X186505771Y-195800057D01*
X186720057Y-196585771D02*
X186005771Y-196585771D01*
X186005771Y-195085771D01*
X186720057Y-195085771D01*
X187362914Y-196442914D02*
X187434342Y-196514342D01*
X187362914Y-196585771D01*
X187291485Y-196514342D01*
X187362914Y-196442914D01*
X187362914Y-196585771D01*
X188077200Y-196585771D02*
X188077200Y-195085771D01*
X188434342Y-195085771D01*
X188648628Y-195157200D01*
X188791485Y-195300057D01*
X188862914Y-195442914D01*
X188934342Y-195728628D01*
X188934342Y-195942914D01*
X188862914Y-196228628D01*
X188791485Y-196371485D01*
X188648628Y-196514342D01*
X188434342Y-196585771D01*
X188077200Y-196585771D01*
X189577200Y-196442914D02*
X189648628Y-196514342D01*
X189577200Y-196585771D01*
X189505771Y-196514342D01*
X189577200Y-196442914D01*
X189577200Y-196585771D01*
X190220057Y-196157200D02*
X190934342Y-196157200D01*
X190077200Y-196585771D02*
X190577200Y-195085771D01*
X191077200Y-196585771D01*
X191577200Y-196442914D02*
X191648628Y-196514342D01*
X191577200Y-196585771D01*
X191505771Y-196514342D01*
X191577200Y-196442914D01*
X191577200Y-196585771D01*
X194577200Y-196585771D02*
X194577200Y-195085771D01*
X194720057Y-196014342D02*
X195148628Y-196585771D01*
X195148628Y-195585771D02*
X194577200Y-196157200D01*
X195791485Y-196585771D02*
X195791485Y-195585771D01*
X195791485Y-195085771D02*
X195720057Y-195157200D01*
X195791485Y-195228628D01*
X195862914Y-195157200D01*
X195791485Y-195085771D01*
X195791485Y-195228628D01*
X197148628Y-196514342D02*
X197005771Y-196585771D01*
X196720057Y-196585771D01*
X196577200Y-196514342D01*
X196505771Y-196442914D01*
X196434342Y-196300057D01*
X196434342Y-195871485D01*
X196505771Y-195728628D01*
X196577200Y-195657200D01*
X196720057Y-195585771D01*
X197005771Y-195585771D01*
X197148628Y-195657200D01*
X198434342Y-196585771D02*
X198434342Y-195800057D01*
X198362914Y-195657200D01*
X198220057Y-195585771D01*
X197934342Y-195585771D01*
X197791485Y-195657200D01*
X198434342Y-196514342D02*
X198291485Y-196585771D01*
X197934342Y-196585771D01*
X197791485Y-196514342D01*
X197720057Y-196371485D01*
X197720057Y-196228628D01*
X197791485Y-196085771D01*
X197934342Y-196014342D01*
X198291485Y-196014342D01*
X198434342Y-195942914D01*
X199791485Y-196585771D02*
X199791485Y-195085771D01*
X199791485Y-196514342D02*
X199648628Y-196585771D01*
X199362914Y-196585771D01*
X199220057Y-196514342D01*
X199148628Y-196442914D01*
X199077200Y-196300057D01*
X199077200Y-195871485D01*
X199148628Y-195728628D01*
X199220057Y-195657200D01*
X199362914Y-195585771D01*
X199648628Y-195585771D01*
X199791485Y-195657200D01*
X202077200Y-197157200D02*
X202005771Y-197085771D01*
X201862914Y-196871485D01*
X201791485Y-196728628D01*
X201720057Y-196514342D01*
X201648628Y-196157200D01*
X201648628Y-195871485D01*
X201720057Y-195514342D01*
X201791485Y-195300057D01*
X201862914Y-195157200D01*
X202005771Y-194942914D01*
X202077200Y-194871485D01*
X203291485Y-195085771D02*
X203005771Y-195085771D01*
X202862914Y-195157200D01*
X202791485Y-195228628D01*
X202648628Y-195442914D01*
X202577200Y-195728628D01*
X202577200Y-196300057D01*
X202648628Y-196442914D01*
X202720057Y-196514342D01*
X202862914Y-196585771D01*
X203148628Y-196585771D01*
X203291485Y-196514342D01*
X203362914Y-196442914D01*
X203434342Y-196300057D01*
X203434342Y-195942914D01*
X203362914Y-195800057D01*
X203291485Y-195728628D01*
X203148628Y-195657200D01*
X202862914Y-195657200D01*
X202720057Y-195728628D01*
X202648628Y-195800057D01*
X202577200Y-195942914D01*
X204077200Y-196442914D02*
X204148628Y-196514342D01*
X204077200Y-196585771D01*
X204005771Y-196514342D01*
X204077200Y-196442914D01*
X204077200Y-196585771D01*
X205077200Y-195085771D02*
X205220057Y-195085771D01*
X205362914Y-195157200D01*
X205434342Y-195228628D01*
X205505771Y-195371485D01*
X205577200Y-195657200D01*
X205577200Y-196014342D01*
X205505771Y-196300057D01*
X205434342Y-196442914D01*
X205362914Y-196514342D01*
X205220057Y-196585771D01*
X205077200Y-196585771D01*
X204934342Y-196514342D01*
X204862914Y-196442914D01*
X204791485Y-196300057D01*
X204720057Y-196014342D01*
X204720057Y-195657200D01*
X204791485Y-195371485D01*
X204862914Y-195228628D01*
X204934342Y-195157200D01*
X205077200Y-195085771D01*
X206220057Y-196442914D02*
X206291485Y-196514342D01*
X206220057Y-196585771D01*
X206148628Y-196514342D01*
X206220057Y-196442914D01*
X206220057Y-196585771D01*
X207720057Y-196585771D02*
X206862914Y-196585771D01*
X207291485Y-196585771D02*
X207291485Y-195085771D01*
X207148628Y-195300057D01*
X207005771Y-195442914D01*
X206862914Y-195514342D01*
X208220057Y-197157200D02*
X208291485Y-197085771D01*
X208434342Y-196871485D01*
X208505771Y-196728628D01*
X208577200Y-196514342D01*
X208648628Y-196157200D01*
X208648628Y-195871485D01*
X208577200Y-195514342D01*
X208505771Y-195300057D01*
X208434342Y-195157200D01*
X208291485Y-194942914D01*
X208220057Y-194871485D01*
D10*
D11*
X177002200Y-191507200D02*
X285002200Y-191507200D01*
D10*
D12*
X264411485Y-193785771D02*
X263911485Y-193071485D01*
X263554342Y-193785771D02*
X263554342Y-192285771D01*
X264125771Y-192285771D01*
X264268628Y-192357200D01*
X264340057Y-192428628D01*
X264411485Y-192571485D01*
X264411485Y-192785771D01*
X264340057Y-192928628D01*
X264268628Y-193000057D01*
X264125771Y-193071485D01*
X263554342Y-193071485D01*
X265625771Y-193714342D02*
X265482914Y-193785771D01*
X265197200Y-193785771D01*
X265054342Y-193714342D01*
X264982914Y-193571485D01*
X264982914Y-193000057D01*
X265054342Y-192857200D01*
X265197200Y-192785771D01*
X265482914Y-192785771D01*
X265625771Y-192857200D01*
X265697200Y-193000057D01*
X265697200Y-193142914D01*
X264982914Y-193285771D01*
X266197200Y-192785771D02*
X266554342Y-193785771D01*
X266911485Y-192785771D01*
X267482914Y-193642914D02*
X267554342Y-193714342D01*
X267482914Y-193785771D01*
X267411485Y-193714342D01*
X267482914Y-193642914D01*
X267482914Y-193785771D01*
X267482914Y-192857200D02*
X267554342Y-192928628D01*
X267482914Y-193000057D01*
X267411485Y-192928628D01*
X267482914Y-192857200D01*
X267482914Y-193000057D01*
D10*
D11*
X178362914Y-193714342D02*
X178577200Y-193785771D01*
X178934342Y-193785771D01*
X179077200Y-193714342D01*
X179148628Y-193642914D01*
X179220057Y-193500057D01*
X179220057Y-193357200D01*
X179148628Y-193214342D01*
X179077200Y-193142914D01*
X178934342Y-193071485D01*
X178648628Y-193000057D01*
X178505771Y-192928628D01*
X178434342Y-192857200D01*
X178362914Y-192714342D01*
X178362914Y-192571485D01*
X178434342Y-192428628D01*
X178505771Y-192357200D01*
X178648628Y-192285771D01*
X179005771Y-192285771D01*
X179220057Y-192357200D01*
X179862914Y-193785771D02*
X179862914Y-192785771D01*
X179862914Y-192285771D02*
X179791485Y-192357200D01*
X179862914Y-192428628D01*
X179934342Y-192357200D01*
X179862914Y-192285771D01*
X179862914Y-192428628D01*
X180434342Y-192785771D02*
X181220057Y-192785771D01*
X180434342Y-193785771D01*
X181220057Y-193785771D01*
X182362914Y-193714342D02*
X182220057Y-193785771D01*
X181934342Y-193785771D01*
X181791485Y-193714342D01*
X181720057Y-193571485D01*
X181720057Y-193000057D01*
X181791485Y-192857200D01*
X181934342Y-192785771D01*
X182220057Y-192785771D01*
X182362914Y-192857200D01*
X182434342Y-193000057D01*
X182434342Y-193142914D01*
X181720057Y-193285771D01*
X183077200Y-193642914D02*
X183148628Y-193714342D01*
X183077200Y-193785771D01*
X183005771Y-193714342D01*
X183077200Y-193642914D01*
X183077200Y-193785771D01*
X183077200Y-192857200D02*
X183148628Y-192928628D01*
X183077200Y-193000057D01*
X183005771Y-192928628D01*
X183077200Y-192857200D01*
X183077200Y-193000057D01*
X184862914Y-193357200D02*
X185577200Y-193357200D01*
X184720057Y-193785771D02*
X185220057Y-192285771D01*
X185720057Y-193785771D01*
X186862914Y-192785771D02*
X186862914Y-193785771D01*
X186505771Y-192214342D02*
X186148628Y-193285771D01*
X187077200Y-193285771D01*
D10*
D11*
X263434342Y-196585771D02*
X263434342Y-195085771D01*
X264791485Y-196585771D02*
X264791485Y-195085771D01*
X264791485Y-196514342D02*
X264648628Y-196585771D01*
X264362914Y-196585771D01*
X264220057Y-196514342D01*
X264148628Y-196442914D01*
X264077200Y-196300057D01*
X264077200Y-195871485D01*
X264148628Y-195728628D01*
X264220057Y-195657200D01*
X264362914Y-195585771D01*
X264648628Y-195585771D01*
X264791485Y-195657200D01*
X265505771Y-196442914D02*
X265577200Y-196514342D01*
X265505771Y-196585771D01*
X265434342Y-196514342D01*
X265505771Y-196442914D01*
X265505771Y-196585771D01*
X265505771Y-195657200D02*
X265577200Y-195728628D01*
X265505771Y-195800057D01*
X265434342Y-195728628D01*
X265505771Y-195657200D01*
X265505771Y-195800057D01*
X268148628Y-196585771D02*
X267291485Y-196585771D01*
X267720057Y-196585771D02*
X267720057Y-195085771D01*
X267577200Y-195300057D01*
X267434342Y-195442914D01*
X267291485Y-195514342D01*
X269862914Y-195014342D02*
X268577200Y-196942914D01*
X271148628Y-196585771D02*
X270291485Y-196585771D01*
X270720057Y-196585771D02*
X270720057Y-195085771D01*
X270577200Y-195300057D01*
X270434342Y-195442914D01*
X270291485Y-195514342D01*
D10*
D11*
X177002200Y-187507200D02*
X285002200Y-187507200D01*
D10*
D13*
X178714580Y-188211961D02*
X179857438Y-188211961D01*
X179036009Y-190211961D02*
X179286009Y-188211961D01*
X180274104Y-190211961D02*
X180440771Y-188878628D01*
X180524104Y-188211961D02*
X180416961Y-188307200D01*
X180500295Y-188402438D01*
X180607438Y-188307200D01*
X180524104Y-188211961D01*
X180500295Y-188402438D01*
X181107438Y-188878628D02*
X181869342Y-188878628D01*
X181476485Y-188211961D02*
X181262200Y-189926247D01*
X181333628Y-190116723D01*
X181512200Y-190211961D01*
X181702676Y-190211961D01*
X182655057Y-190211961D02*
X182476485Y-190116723D01*
X182405057Y-189926247D01*
X182619342Y-188211961D01*
X184190771Y-190116723D02*
X183988390Y-190211961D01*
X183607438Y-190211961D01*
X183428866Y-190116723D01*
X183357438Y-189926247D01*
X183452676Y-189164342D01*
X183571723Y-188973866D01*
X183774104Y-188878628D01*
X184155057Y-188878628D01*
X184333628Y-188973866D01*
X184405057Y-189164342D01*
X184381247Y-189354819D01*
X183405057Y-189545295D01*
X185155057Y-190021485D02*
X185238390Y-190116723D01*
X185131247Y-190211961D01*
X185047914Y-190116723D01*
X185155057Y-190021485D01*
X185131247Y-190211961D01*
X185286009Y-188973866D02*
X185369342Y-189069104D01*
X185262200Y-189164342D01*
X185178866Y-189069104D01*
X185286009Y-188973866D01*
X185262200Y-189164342D01*
D10*
D11*
X178934342Y-185600057D02*
X178434342Y-185600057D01*
X178434342Y-186385771D02*
X178434342Y-184885771D01*
X179148628Y-184885771D01*
X179720057Y-186385771D02*
X179720057Y-185385771D01*
X179720057Y-184885771D02*
X179648628Y-184957200D01*
X179720057Y-185028628D01*
X179791485Y-184957200D01*
X179720057Y-184885771D01*
X179720057Y-185028628D01*
X180648628Y-186385771D02*
X180505771Y-186314342D01*
X180434342Y-186171485D01*
X180434342Y-184885771D01*
X181791485Y-186314342D02*
X181648628Y-186385771D01*
X181362914Y-186385771D01*
X181220057Y-186314342D01*
X181148628Y-186171485D01*
X181148628Y-185600057D01*
X181220057Y-185457200D01*
X181362914Y-185385771D01*
X181648628Y-185385771D01*
X181791485Y-185457200D01*
X181862914Y-185600057D01*
X181862914Y-185742914D01*
X181148628Y-185885771D01*
X182505771Y-186242914D02*
X182577200Y-186314342D01*
X182505771Y-186385771D01*
X182434342Y-186314342D01*
X182505771Y-186242914D01*
X182505771Y-186385771D01*
X182505771Y-185457200D02*
X182577200Y-185528628D01*
X182505771Y-185600057D01*
X182434342Y-185528628D01*
X182505771Y-185457200D01*
X182505771Y-185600057D01*
X184362914Y-186385771D02*
X184362914Y-184885771D01*
X184934342Y-184885771D01*
X185077200Y-184957200D01*
X185148628Y-185028628D01*
X185220057Y-185171485D01*
X185220057Y-185385771D01*
X185148628Y-185528628D01*
X185077200Y-185600057D01*
X184934342Y-185671485D01*
X184362914Y-185671485D01*
X186720057Y-186242914D02*
X186648628Y-186314342D01*
X186434342Y-186385771D01*
X186291485Y-186385771D01*
X186077200Y-186314342D01*
X185934342Y-186171485D01*
X185862914Y-186028628D01*
X185791485Y-185742914D01*
X185791485Y-185528628D01*
X185862914Y-185242914D01*
X185934342Y-185100057D01*
X186077200Y-184957200D01*
X186291485Y-184885771D01*
X186434342Y-184885771D01*
X186648628Y-184957200D01*
X186720057Y-185028628D01*
X187862914Y-185600057D02*
X188077200Y-185671485D01*
X188148628Y-185742914D01*
X188220057Y-185885771D01*
X188220057Y-186100057D01*
X188148628Y-186242914D01*
X188077200Y-186314342D01*
X187934342Y-186385771D01*
X187362914Y-186385771D01*
X187362914Y-184885771D01*
X187862914Y-184885771D01*
X188005771Y-184957200D01*
X188077200Y-185028628D01*
X188148628Y-185171485D01*
X188148628Y-185314342D01*
X188077200Y-185457200D01*
X188005771Y-185528628D01*
X187862914Y-185600057D01*
X187362914Y-185600057D01*
X188862914Y-186242914D02*
X188934342Y-186314342D01*
X188862914Y-186385771D01*
X188791485Y-186314342D01*
X188862914Y-186242914D01*
X188862914Y-186385771D01*
X189577200Y-186385771D02*
X189577200Y-184885771D01*
X189720057Y-185814342D02*
X190148628Y-186385771D01*
X190148628Y-185385771D02*
X189577200Y-185957200D01*
X190791485Y-186385771D02*
X190791485Y-185385771D01*
X190791485Y-184885771D02*
X190720057Y-184957200D01*
X190791485Y-185028628D01*
X190862914Y-184957200D01*
X190791485Y-184885771D01*
X190791485Y-185028628D01*
X192148628Y-186314342D02*
X192005771Y-186385771D01*
X191720057Y-186385771D01*
X191577200Y-186314342D01*
X191505771Y-186242914D01*
X191434342Y-186100057D01*
X191434342Y-185671485D01*
X191505771Y-185528628D01*
X191577200Y-185457200D01*
X191720057Y-185385771D01*
X192005771Y-185385771D01*
X192148628Y-185457200D01*
X193434342Y-186385771D02*
X193434342Y-185600057D01*
X193362914Y-185457200D01*
X193220057Y-185385771D01*
X192934342Y-185385771D01*
X192791485Y-185457200D01*
X193434342Y-186314342D02*
X193291485Y-186385771D01*
X192934342Y-186385771D01*
X192791485Y-186314342D01*
X192720057Y-186171485D01*
X192720057Y-186028628D01*
X192791485Y-185885771D01*
X192934342Y-185814342D01*
X193291485Y-185814342D01*
X193434342Y-185742914D01*
X194791485Y-186385771D02*
X194791485Y-184885771D01*
X194791485Y-186314342D02*
X194648628Y-186385771D01*
X194362914Y-186385771D01*
X194220057Y-186314342D01*
X194148628Y-186242914D01*
X194077200Y-186100057D01*
X194077200Y-185671485D01*
X194148628Y-185528628D01*
X194220057Y-185457200D01*
X194362914Y-185385771D01*
X194648628Y-185385771D01*
X194791485Y-185457200D01*
X195148628Y-186528628D02*
X196291485Y-186528628D01*
X196648628Y-185385771D02*
X196648628Y-186885771D01*
X196648628Y-185457200D02*
X196791485Y-185385771D01*
X197077200Y-185385771D01*
X197220057Y-185457200D01*
X197291485Y-185528628D01*
X197362914Y-185671485D01*
X197362914Y-186100057D01*
X197291485Y-186242914D01*
X197220057Y-186314342D01*
X197077200Y-186385771D01*
X196791485Y-186385771D01*
X196648628Y-186314342D01*
X198648628Y-186314342D02*
X198505771Y-186385771D01*
X198220057Y-186385771D01*
X198077200Y-186314342D01*
X198005771Y-186242914D01*
X197934342Y-186100057D01*
X197934342Y-185671485D01*
X198005771Y-185528628D01*
X198077200Y-185457200D01*
X198220057Y-185385771D01*
X198505771Y-185385771D01*
X198648628Y-185457200D01*
X199291485Y-186385771D02*
X199291485Y-184885771D01*
X199291485Y-185457200D02*
X199434342Y-185385771D01*
X199720057Y-185385771D01*
X199862914Y-185457200D01*
X199934342Y-185528628D01*
X200005771Y-185671485D01*
X200005771Y-186100057D01*
X199934342Y-186242914D01*
X199862914Y-186314342D01*
X199720057Y-186385771D01*
X199434342Y-186385771D01*
X199291485Y-186314342D01*
D10*
D11*
X177002200Y-181507200D02*
X285002200Y-181507200D01*
D10*
D11*
X178362914Y-183614342D02*
X178577200Y-183685771D01*
X178934342Y-183685771D01*
X179077200Y-183614342D01*
X179148628Y-183542914D01*
X179220057Y-183400057D01*
X179220057Y-183257200D01*
X179148628Y-183114342D01*
X179077200Y-183042914D01*
X178934342Y-182971485D01*
X178648628Y-182900057D01*
X178505771Y-182828628D01*
X178434342Y-182757200D01*
X178362914Y-182614342D01*
X178362914Y-182471485D01*
X178434342Y-182328628D01*
X178505771Y-182257200D01*
X178648628Y-182185771D01*
X179005771Y-182185771D01*
X179220057Y-182257200D01*
X179862914Y-183685771D02*
X179862914Y-182185771D01*
X180505771Y-183685771D02*
X180505771Y-182900057D01*
X180434342Y-182757200D01*
X180291485Y-182685771D01*
X180077200Y-182685771D01*
X179934342Y-182757200D01*
X179862914Y-182828628D01*
X181791485Y-183614342D02*
X181648628Y-183685771D01*
X181362914Y-183685771D01*
X181220057Y-183614342D01*
X181148628Y-183471485D01*
X181148628Y-182900057D01*
X181220057Y-182757200D01*
X181362914Y-182685771D01*
X181648628Y-182685771D01*
X181791485Y-182757200D01*
X181862914Y-182900057D01*
X181862914Y-183042914D01*
X181148628Y-183185771D01*
X183077200Y-183614342D02*
X182934342Y-183685771D01*
X182648628Y-183685771D01*
X182505771Y-183614342D01*
X182434342Y-183471485D01*
X182434342Y-182900057D01*
X182505771Y-182757200D01*
X182648628Y-182685771D01*
X182934342Y-182685771D01*
X183077200Y-182757200D01*
X183148628Y-182900057D01*
X183148628Y-183042914D01*
X182434342Y-183185771D01*
X183577200Y-182685771D02*
X184148628Y-182685771D01*
X183791485Y-182185771D02*
X183791485Y-183471485D01*
X183862914Y-183614342D01*
X184005771Y-183685771D01*
X184148628Y-183685771D01*
X184648628Y-183542914D02*
X184720057Y-183614342D01*
X184648628Y-183685771D01*
X184577200Y-183614342D01*
X184648628Y-183542914D01*
X184648628Y-183685771D01*
X184648628Y-182757200D02*
X184720057Y-182828628D01*
X184648628Y-182900057D01*
X184577200Y-182828628D01*
X184648628Y-182757200D01*
X184648628Y-182900057D01*
D10*
D12*
D10*
D11*
D10*
D11*
D10*
D11*
D10*
D11*
D10*
D11*
X197002200Y-191507200D02*
X197002200Y-194507200D01*
D10*
D11*
X261002200Y-191507200D02*
X261002200Y-198007200D01*
D14*
G04 #@! TO.P,J1,1,VBUS*
G04 #@! TO.N,S4_VBUS*
X110500000Y-166640000D03*
D15*
G04 #@! TO.P,J1,2,D-*
G04 #@! TO.N,ESD_S4_DN*
X113000000Y-166640000D03*
G04 #@! TO.P,J1,3,D+*
G04 #@! TO.N,ESD_S4_DP*
X115000000Y-166640000D03*
G04 #@! TO.P,J1,4,GND*
G04 #@! TO.N,Earth*
X117500000Y-166640000D03*
D16*
G04 #@! TO.P,J1,5,Shield*
G04 #@! TO.N,unconnected-(J1-Pad5)*
X120570000Y-169350000D03*
X107430000Y-169350000D03*
G04 #@! TD*
D17*
G04 #@! TO.P,J3,6,Shield*
G04 #@! TO.N,unconnected-(J3-Pad6)*
X127500000Y-178529500D03*
X134500000Y-178529500D03*
D18*
X128500000Y-175829500D03*
X133500000Y-175829500D03*
G04 #@! TD*
D19*
G04 #@! TO.P,SW2,1,1*
G04 #@! TO.N,Earth*
X103000000Y-136225000D03*
D20*
G04 #@! TO.P,SW2,2,2*
G04 #@! TO.N,Net-(C5-Pad1)*
X103000000Y-138765000D03*
G04 #@! TD*
D21*
G04 #@! TO.N,Net-(R2-Pad1)*
X108500000Y-98000000D03*
X128000000Y-104500000D03*
G04 #@! TO.N,3.3V*
X106000000Y-93000000D03*
X113750000Y-143500000D03*
X128000000Y-131250000D03*
X110000000Y-126000000D03*
X143500000Y-109500000D03*
X143000000Y-146000000D03*
G04 #@! TO.N,CHIP_PU*
X127775489Y-92775489D03*
X110500000Y-124000000D03*
G04 #@! TO.N,VBUS*
X115000000Y-90000000D03*
X109500000Y-134500000D03*
G04 #@! TO.N,Net-(R10-Pad2)*
X135500000Y-144000000D03*
X129000000Y-144000000D03*
G04 #@! TO.N,Earth*
X138000000Y-119750000D03*
X125500000Y-156500000D03*
X125500000Y-164250000D03*
X146000000Y-119750000D03*
X127500000Y-171500000D03*
X150250000Y-119750000D03*
X142000000Y-119750000D03*
X132250000Y-171500000D03*
G04 #@! TO.N,Net-(R6-Pad2)*
X137000000Y-154000000D03*
X130500000Y-113500000D03*
G04 #@! TO.N,ESD_VBUS*
X129500000Y-158500000D03*
X131500000Y-163000000D03*
G04 #@! TO.N,ESD_DP*
X135750000Y-114500000D03*
X136000000Y-158000000D03*
G04 #@! TO.N,ESD_DN*
X135750000Y-113250000D03*
X132000000Y-136000000D03*
G04 #@! TO.N,ESD_S4_DN*
X123000000Y-131000000D03*
X117820000Y-161820000D03*
G04 #@! TO.N,U0_RXD*
X113000000Y-104500000D03*
X139525500Y-108500000D03*
G04 #@! TO.N,U0_TXD*
X111500000Y-104500000D03*
X138525997Y-108500000D03*
G04 #@! TO.N,ANT_RST*
X127750000Y-127499503D03*
X116630000Y-127370000D03*
G04 #@! TO.N,ANT_TX*
X127750000Y-126500000D03*
X118000000Y-126500000D03*
G04 #@! TO.N,ANT_RX*
X127750000Y-125500000D03*
X119250000Y-125500000D03*
G04 #@! TO.N,ANT_RTS*
X120500000Y-124500000D03*
X127750000Y-124500497D03*
G04 #@! TO.N,Net-(C5-Pad1)*
X127500000Y-114175000D03*
X107750000Y-138750000D03*
G04 #@! TD*
D22*
G04 #@! TO.N,Net-(R2-Pad1)*
X128000000Y-104000000D02*
X122000000Y-98000000D01*
X122000000Y-98000000D02*
X108500000Y-98000000D01*
X128000000Y-104500000D02*
X128000000Y-104000000D01*
G04 #@! TO.N,CHIP_PU*
X130000000Y-95000000D02*
X127775489Y-92775489D01*
X130000000Y-104500000D02*
X130000000Y-95000000D01*
X110500000Y-124000000D02*
X130000000Y-104500000D01*
D23*
G04 #@! TO.N,VBUS*
X101000000Y-126000000D02*
X101000000Y-92500000D01*
X101000000Y-92500000D02*
X103500000Y-90000000D01*
X109500000Y-134500000D02*
X101000000Y-126000000D01*
X103500000Y-90000000D02*
X115000000Y-90000000D01*
D22*
G04 #@! TO.N,Net-(R10-Pad2)*
X129000000Y-144000000D02*
X135500000Y-144000000D01*
D23*
G04 #@! TO.N,Earth*
X138000000Y-119750000D02*
X142000000Y-119750000D01*
X125500000Y-164250000D02*
X125500000Y-156500000D01*
X127500000Y-171500000D02*
X132250000Y-171500000D01*
X150250000Y-119750000D02*
X146000000Y-119750000D01*
D22*
G04 #@! TO.N,Net-(R6-Pad2)*
X126000000Y-143000000D02*
X137000000Y-154000000D01*
X126000000Y-135500000D02*
X126000000Y-143000000D01*
X130500000Y-113500000D02*
X130500000Y-131000000D01*
X130500000Y-131000000D02*
X126000000Y-135500000D01*
D23*
G04 #@! TO.N,ESD_VBUS*
X129500000Y-161000000D02*
X131500000Y-163000000D01*
X129500000Y-158500000D02*
X129500000Y-161000000D01*
D24*
G04 #@! TO.N,ESD_DP*
X136010741Y-114500000D02*
X137000000Y-115489259D01*
X139500000Y-154500000D02*
X136000000Y-158000000D01*
X137000000Y-115489259D02*
X137000000Y-151500000D01*
X137000000Y-151500000D02*
X139500000Y-154000000D01*
X135750000Y-114500000D02*
X136010741Y-114500000D01*
X139500000Y-154000000D02*
X139500000Y-154500000D01*
G04 #@! TO.N,ESD_DN*
X135050489Y-112550489D02*
X133960252Y-112550489D01*
X133960252Y-112550489D02*
X132010741Y-114500000D01*
X135750000Y-113250000D02*
X135050489Y-112550489D01*
X132010741Y-114500000D02*
X132000000Y-114500000D01*
X132000000Y-114510741D02*
X132000000Y-136000000D01*
G04 #@! TO.N,ESD_S4_DN*
X123000000Y-131000000D02*
X123000000Y-156640000D01*
X123000000Y-156640000D02*
X117820000Y-161820000D01*
D22*
G04 #@! TO.N,U0_RXD*
X127475386Y-92050978D02*
X128075592Y-92050978D01*
X114500000Y-106000000D02*
X127864282Y-106000000D01*
X127864282Y-106000000D02*
X129550480Y-104313802D01*
X139525500Y-103500886D02*
X139525500Y-108500000D01*
X129550480Y-95575094D02*
X127050978Y-93075592D01*
X127050978Y-92475386D02*
X127475386Y-92050978D01*
X127050978Y-93075592D02*
X127050978Y-92475386D01*
X128075592Y-92050978D02*
X139525500Y-103500886D01*
X129550480Y-104313802D02*
X129550480Y-95575094D01*
X113000000Y-104500000D02*
X114500000Y-106000000D01*
G04 #@! TO.N,U0_TXD*
X109775489Y-106224511D02*
X109775489Y-124300103D01*
X131000000Y-108500000D02*
X138525997Y-108500000D01*
X110199897Y-124724511D02*
X114775489Y-124724511D01*
X111500000Y-104500000D02*
X109775489Y-106224511D01*
X109775489Y-124300103D02*
X110199897Y-124724511D01*
X114775489Y-124724511D02*
X131000000Y-108500000D01*
G04 #@! TO.N,ANT_RST*
X127620497Y-127370000D02*
X116630000Y-127370000D01*
X127750000Y-127499503D02*
X127620497Y-127370000D01*
G04 #@! TO.N,ANT_TX*
X127750000Y-126500000D02*
X118000000Y-126500000D01*
G04 #@! TO.N,ANT_RX*
X127750000Y-125500000D02*
X119250000Y-125500000D01*
G04 #@! TO.N,ANT_RTS*
X120500000Y-124500000D02*
X127749503Y-124500000D01*
X127749503Y-124500000D02*
X127750000Y-124500497D01*
G04 #@! TO.N,Net-(C5-Pad1)*
X115905489Y-136119125D02*
X115905489Y-125769511D01*
X115905489Y-125769511D02*
X127500000Y-114175000D01*
X113274614Y-138750000D02*
X115905489Y-136119125D01*
X107750000Y-138750000D02*
X113274614Y-138750000D01*
G04 #@! TD*
G04 #@! TA.AperFunction,Conductor*
G04 #@! TO.N,3.3V*
G36*
X147973729Y-87510072D02*
G01*
X147976811Y-87510552D01*
X147993730Y-87513186D01*
X148010020Y-87511056D01*
X148040165Y-87509754D01*
X148383914Y-87524762D01*
X148399036Y-87526085D01*
X148599947Y-87552536D01*
X148772495Y-87575252D01*
X148787437Y-87577887D01*
X149155199Y-87659418D01*
X149169861Y-87663346D01*
X149529112Y-87776618D01*
X149543375Y-87781810D01*
X149891382Y-87925958D01*
X149905140Y-87932373D01*
X150239263Y-88106307D01*
X150252409Y-88113897D01*
X150570101Y-88316289D01*
X150582530Y-88324992D01*
X150881376Y-88554305D01*
X150893004Y-88564062D01*
X151170723Y-88818544D01*
X151181456Y-88829277D01*
X151435938Y-89106996D01*
X151445695Y-89118624D01*
X151675008Y-89417470D01*
X151683711Y-89429899D01*
X151805164Y-89620542D01*
X151886103Y-89747591D01*
X151893693Y-89760737D01*
X152067627Y-90094860D01*
X152074042Y-90108618D01*
X152218190Y-90456625D01*
X152223382Y-90470888D01*
X152336654Y-90830139D01*
X152340582Y-90844801D01*
X152422113Y-91212563D01*
X152424749Y-91227512D01*
X152473915Y-91600964D01*
X152475238Y-91616086D01*
X152489896Y-91951815D01*
X152488853Y-91970611D01*
X152488720Y-91981485D01*
X152486814Y-91993730D01*
X152488421Y-92006019D01*
X152488421Y-92006021D01*
X152490531Y-92022154D01*
X152492000Y-92044716D01*
X152492000Y-174946960D01*
X152489928Y-174973729D01*
X152486814Y-174993730D01*
X152488944Y-175010018D01*
X152490246Y-175040165D01*
X152475238Y-175383914D01*
X152473915Y-175399036D01*
X152424749Y-175772488D01*
X152422113Y-175787437D01*
X152340582Y-176155199D01*
X152336654Y-176169861D01*
X152223382Y-176529112D01*
X152218190Y-176543375D01*
X152074042Y-176891382D01*
X152067628Y-176905138D01*
X151992445Y-177049563D01*
X151893693Y-177239263D01*
X151886103Y-177252409D01*
X151788161Y-177406148D01*
X151683715Y-177570095D01*
X151675008Y-177582530D01*
X151445695Y-177881376D01*
X151435938Y-177893004D01*
X151181456Y-178170723D01*
X151170723Y-178181456D01*
X150893004Y-178435938D01*
X150881376Y-178445695D01*
X150582530Y-178675008D01*
X150570101Y-178683711D01*
X150491703Y-178733656D01*
X150252409Y-178886103D01*
X150239263Y-178893693D01*
X149905140Y-179067627D01*
X149891382Y-179074042D01*
X149543375Y-179218190D01*
X149529112Y-179223382D01*
X149169861Y-179336654D01*
X149155199Y-179340582D01*
X148787437Y-179422113D01*
X148772495Y-179424748D01*
X148599947Y-179447464D01*
X148399036Y-179473915D01*
X148383914Y-179475238D01*
X148166716Y-179484721D01*
X148048183Y-179489896D01*
X148029389Y-179488853D01*
X148018515Y-179488720D01*
X148006270Y-179486814D01*
X147993981Y-179488421D01*
X147993979Y-179488421D01*
X147977846Y-179490531D01*
X147955284Y-179492000D01*
X135706022Y-179492000D01*
X135625160Y-179472069D01*
X135562823Y-179416843D01*
X135533291Y-179338973D01*
X135544635Y-179252959D01*
X135564590Y-179203445D01*
X135567686Y-179195763D01*
X135608228Y-178988163D01*
X135608500Y-178982601D01*
X135608500Y-178126654D01*
X135593452Y-177968934D01*
X135533908Y-177765966D01*
X135437058Y-177577920D01*
X135431940Y-177571404D01*
X135311512Y-177418092D01*
X135311508Y-177418088D01*
X135306396Y-177411580D01*
X135249051Y-177361818D01*
X135152891Y-177278375D01*
X135146637Y-177272948D01*
X134963546Y-177167027D01*
X134827578Y-177119811D01*
X134771554Y-177100356D01*
X134771551Y-177100355D01*
X134763729Y-177097639D01*
X134659062Y-177082463D01*
X134562593Y-177068475D01*
X134562588Y-177068475D01*
X134554396Y-177067287D01*
X134455126Y-177071882D01*
X134428763Y-177073102D01*
X134347066Y-177056931D01*
X134282242Y-177004647D01*
X134249141Y-176928225D01*
X134255346Y-176845175D01*
X134297681Y-176776251D01*
X134448525Y-176625407D01*
X134572323Y-176448606D01*
X134663539Y-176252993D01*
X134719401Y-176044513D01*
X134738212Y-175829500D01*
X134719401Y-175614487D01*
X134663539Y-175406007D01*
X134660289Y-175399036D01*
X134575533Y-175217278D01*
X134572323Y-175210394D01*
X134567965Y-175204170D01*
X134452884Y-175039818D01*
X134452883Y-175039817D01*
X134448525Y-175033593D01*
X134295907Y-174880975D01*
X134263366Y-174858189D01*
X134125330Y-174761535D01*
X134125329Y-174761534D01*
X134119106Y-174757177D01*
X133984348Y-174694338D01*
X133930373Y-174669169D01*
X133930371Y-174669168D01*
X133923493Y-174665961D01*
X133715013Y-174610099D01*
X133707452Y-174609437D01*
X133707449Y-174609437D01*
X133507567Y-174591950D01*
X133500000Y-174591288D01*
X133492433Y-174591950D01*
X133292551Y-174609437D01*
X133292548Y-174609437D01*
X133284987Y-174610099D01*
X133076507Y-174665961D01*
X133069629Y-174669168D01*
X133069627Y-174669169D01*
X133015652Y-174694338D01*
X132880894Y-174757177D01*
X132874671Y-174761534D01*
X132874670Y-174761535D01*
X132736635Y-174858189D01*
X132704093Y-174880975D01*
X132551475Y-175033593D01*
X132547117Y-175039817D01*
X132547116Y-175039818D01*
X132432035Y-175204170D01*
X132427677Y-175210394D01*
X132424467Y-175217278D01*
X132339712Y-175399036D01*
X132336461Y-175406007D01*
X132280599Y-175614487D01*
X132261788Y-175829500D01*
X132280599Y-176044513D01*
X132336461Y-176252993D01*
X132427677Y-176448606D01*
X132551475Y-176625407D01*
X132704093Y-176778025D01*
X132710317Y-176782383D01*
X132710318Y-176782384D01*
X132865983Y-176891382D01*
X132880894Y-176901823D01*
X133076507Y-176993039D01*
X133083843Y-176995005D01*
X133083844Y-176995005D01*
X133113280Y-177002892D01*
X133284987Y-177048901D01*
X133292548Y-177049563D01*
X133292551Y-177049563D01*
X133492433Y-177067050D01*
X133500000Y-177067712D01*
X133617626Y-177057421D01*
X133699916Y-177070228D01*
X133766829Y-177119811D01*
X133803036Y-177194811D01*
X133800241Y-177278046D01*
X133758483Y-177351081D01*
X133626119Y-177489350D01*
X133621625Y-177496310D01*
X133515874Y-177660087D01*
X133515871Y-177660092D01*
X133511380Y-177667048D01*
X133432314Y-177863237D01*
X133391772Y-178070837D01*
X133391500Y-178076399D01*
X133391500Y-178932346D01*
X133406548Y-179090066D01*
X133408880Y-179098014D01*
X133408881Y-179098021D01*
X133459046Y-179269018D01*
X133462685Y-179352221D01*
X133427240Y-179427583D01*
X133360833Y-179477842D01*
X133292083Y-179492000D01*
X128706022Y-179492000D01*
X128625160Y-179472069D01*
X128562823Y-179416843D01*
X128533291Y-179338973D01*
X128544635Y-179252959D01*
X128564590Y-179203445D01*
X128567686Y-179195763D01*
X128608228Y-178988163D01*
X128608500Y-178982601D01*
X128608500Y-178126654D01*
X128593452Y-177968934D01*
X128533908Y-177765966D01*
X128437058Y-177577920D01*
X128431940Y-177571404D01*
X128311512Y-177418092D01*
X128311508Y-177418088D01*
X128306396Y-177411580D01*
X128300141Y-177406152D01*
X128300137Y-177406148D01*
X128249051Y-177361818D01*
X128201040Y-177293768D01*
X128190152Y-177211201D01*
X128218883Y-177133032D01*
X128280650Y-177077169D01*
X128361302Y-177056408D01*
X128378255Y-177057061D01*
X128492433Y-177067050D01*
X128500000Y-177067712D01*
X128507567Y-177067050D01*
X128707449Y-177049563D01*
X128707452Y-177049563D01*
X128715013Y-177048901D01*
X128886720Y-177002892D01*
X128916156Y-176995005D01*
X128916157Y-176995005D01*
X128923493Y-176993039D01*
X129119106Y-176901823D01*
X129134017Y-176891382D01*
X129289682Y-176782384D01*
X129289683Y-176782383D01*
X129295907Y-176778025D01*
X129448525Y-176625407D01*
X129572323Y-176448606D01*
X129663539Y-176252993D01*
X129719401Y-176044513D01*
X129738212Y-175829500D01*
X129719401Y-175614487D01*
X129663539Y-175406007D01*
X129660289Y-175399036D01*
X129575533Y-175217278D01*
X129572323Y-175210394D01*
X129567965Y-175204170D01*
X129452884Y-175039818D01*
X129452883Y-175039817D01*
X129448525Y-175033593D01*
X129295907Y-174880975D01*
X129263366Y-174858189D01*
X129125330Y-174761535D01*
X129125329Y-174761534D01*
X129119106Y-174757177D01*
X128984348Y-174694338D01*
X128930373Y-174669169D01*
X128930371Y-174669168D01*
X128923493Y-174665961D01*
X128715013Y-174610099D01*
X128707452Y-174609437D01*
X128707449Y-174609437D01*
X128507567Y-174591950D01*
X128500000Y-174591288D01*
X128492433Y-174591950D01*
X128292551Y-174609437D01*
X128292548Y-174609437D01*
X128284987Y-174610099D01*
X128076507Y-174665961D01*
X128069629Y-174669168D01*
X128069627Y-174669169D01*
X128015652Y-174694338D01*
X127880894Y-174757177D01*
X127874671Y-174761534D01*
X127874670Y-174761535D01*
X127736635Y-174858189D01*
X127704093Y-174880975D01*
X127551475Y-175033593D01*
X127547117Y-175039817D01*
X127547116Y-175039818D01*
X127432035Y-175204170D01*
X127427677Y-175210394D01*
X127424467Y-175217278D01*
X127339712Y-175399036D01*
X127336461Y-175406007D01*
X127280599Y-175614487D01*
X127261788Y-175829500D01*
X127280599Y-176044513D01*
X127336461Y-176252993D01*
X127427677Y-176448606D01*
X127551475Y-176625407D01*
X127697899Y-176771831D01*
X127740983Y-176843102D01*
X127746012Y-176926232D01*
X127711832Y-177002177D01*
X127646274Y-177053539D01*
X127566359Y-177068660D01*
X127562596Y-177068476D01*
X127554396Y-177067287D01*
X127490856Y-177070228D01*
X127351372Y-177076684D01*
X127351370Y-177076684D01*
X127343101Y-177077067D01*
X127276783Y-177093050D01*
X127145514Y-177124685D01*
X127145510Y-177124686D01*
X127137466Y-177126625D01*
X126944913Y-177214174D01*
X126938162Y-177218963D01*
X126938160Y-177218964D01*
X126867903Y-177268801D01*
X126772389Y-177336554D01*
X126626119Y-177489350D01*
X126621625Y-177496310D01*
X126515874Y-177660087D01*
X126515871Y-177660092D01*
X126511380Y-177667048D01*
X126432314Y-177863237D01*
X126391772Y-178070837D01*
X126391500Y-178076399D01*
X126391500Y-178932346D01*
X126406548Y-179090066D01*
X126408880Y-179098014D01*
X126408881Y-179098021D01*
X126459046Y-179269018D01*
X126462685Y-179352221D01*
X126427240Y-179427583D01*
X126360833Y-179477842D01*
X126292083Y-179492000D01*
X105053040Y-179492000D01*
X105026271Y-179489928D01*
X105023189Y-179489448D01*
X105006270Y-179486814D01*
X104989980Y-179488944D01*
X104959835Y-179490246D01*
X104616086Y-179475238D01*
X104600964Y-179473915D01*
X104400053Y-179447464D01*
X104227505Y-179424748D01*
X104212563Y-179422113D01*
X103844801Y-179340582D01*
X103830139Y-179336654D01*
X103470888Y-179223382D01*
X103456625Y-179218190D01*
X103108618Y-179074042D01*
X103094860Y-179067627D01*
X102760737Y-178893693D01*
X102747591Y-178886103D01*
X102508297Y-178733656D01*
X102429899Y-178683711D01*
X102417470Y-178675008D01*
X102118624Y-178445695D01*
X102106996Y-178435938D01*
X101829277Y-178181456D01*
X101818544Y-178170723D01*
X101564062Y-177893004D01*
X101554305Y-177881376D01*
X101324992Y-177582530D01*
X101316285Y-177570095D01*
X101211840Y-177406148D01*
X101113897Y-177252409D01*
X101106307Y-177239263D01*
X101007555Y-177049563D01*
X100932372Y-176905138D01*
X100925958Y-176891382D01*
X100781810Y-176543375D01*
X100776618Y-176529112D01*
X100663346Y-176169861D01*
X100659418Y-176155199D01*
X100577887Y-175787437D01*
X100575251Y-175772488D01*
X100526085Y-175399036D01*
X100524762Y-175383914D01*
X100510280Y-175052238D01*
X100511902Y-175025916D01*
X100511355Y-175025867D01*
X100511956Y-175019165D01*
X100513071Y-175012539D01*
X100513224Y-175000000D01*
X100509757Y-174975791D01*
X100508000Y-174951124D01*
X100508000Y-173435774D01*
X142638102Y-173435774D01*
X142646751Y-173666158D01*
X142694093Y-173891791D01*
X142778776Y-174106221D01*
X142898377Y-174303317D01*
X143049477Y-174477445D01*
X143227755Y-174623624D01*
X143428114Y-174737675D01*
X143435039Y-174740189D01*
X143435042Y-174740190D01*
X143481841Y-174757177D01*
X143644825Y-174816337D01*
X143652076Y-174817648D01*
X143652079Y-174817649D01*
X143769253Y-174838837D01*
X143871692Y-174857361D01*
X143895844Y-174858500D01*
X144057890Y-174858500D01*
X144229720Y-174843920D01*
X144335993Y-174816337D01*
X144445741Y-174787852D01*
X144445743Y-174787851D01*
X144452872Y-174786001D01*
X144507185Y-174761535D01*
X144656358Y-174694338D01*
X144656360Y-174694337D01*
X144663075Y-174691312D01*
X144703651Y-174663995D01*
X144848211Y-174566671D01*
X144854319Y-174562559D01*
X144949383Y-174471872D01*
X145015802Y-174408512D01*
X145015805Y-174408508D01*
X145021135Y-174403424D01*
X145091474Y-174308886D01*
X145154350Y-174224377D01*
X145158754Y-174218458D01*
X145263240Y-174012949D01*
X145331607Y-173792773D01*
X145361898Y-173564226D01*
X145353249Y-173333842D01*
X145305907Y-173108209D01*
X145221224Y-172893779D01*
X145101623Y-172696683D01*
X144950523Y-172522555D01*
X144772245Y-172376376D01*
X144571886Y-172262325D01*
X144564961Y-172259811D01*
X144564958Y-172259810D01*
X144362106Y-172186179D01*
X144355175Y-172183663D01*
X144347924Y-172182352D01*
X144347921Y-172182351D01*
X144202638Y-172156080D01*
X144128308Y-172142639D01*
X144104156Y-172141500D01*
X143942110Y-172141500D01*
X143770280Y-172156080D01*
X143763149Y-172157931D01*
X143763148Y-172157931D01*
X143554259Y-172212148D01*
X143554257Y-172212149D01*
X143547128Y-172213999D01*
X143540412Y-172217024D01*
X143540410Y-172217025D01*
X143343642Y-172305662D01*
X143343640Y-172305663D01*
X143336925Y-172308688D01*
X143145681Y-172437441D01*
X143140354Y-172442523D01*
X142984198Y-172591488D01*
X142984195Y-172591492D01*
X142978865Y-172596576D01*
X142974465Y-172602489D01*
X142974463Y-172602492D01*
X142904383Y-172696683D01*
X142841246Y-172781542D01*
X142736760Y-172987051D01*
X142668393Y-173207227D01*
X142638102Y-173435774D01*
X100508000Y-173435774D01*
X100508000Y-171500000D01*
X126586496Y-171500000D01*
X126606458Y-171689928D01*
X126665473Y-171871556D01*
X126760960Y-172036944D01*
X126888747Y-172178866D01*
X127043248Y-172291118D01*
X127051576Y-172294826D01*
X127051578Y-172294827D01*
X127151229Y-172339194D01*
X127217712Y-172368794D01*
X127226627Y-172370689D01*
X127395596Y-172406605D01*
X127395600Y-172406605D01*
X127404513Y-172408500D01*
X127595487Y-172408500D01*
X127604400Y-172406605D01*
X127604404Y-172406605D01*
X127773373Y-172370689D01*
X127782288Y-172368794D01*
X127848771Y-172339194D01*
X127948422Y-172294827D01*
X127948424Y-172294826D01*
X127956752Y-172291118D01*
X128059136Y-172216731D01*
X128136271Y-172185326D01*
X128161412Y-172183500D01*
X131588588Y-172183500D01*
X131669450Y-172203431D01*
X131690863Y-172216731D01*
X131793248Y-172291118D01*
X131801576Y-172294826D01*
X131801578Y-172294827D01*
X131901229Y-172339194D01*
X131967712Y-172368794D01*
X131976627Y-172370689D01*
X132145596Y-172406605D01*
X132145600Y-172406605D01*
X132154513Y-172408500D01*
X132345487Y-172408500D01*
X132354400Y-172406605D01*
X132354404Y-172406605D01*
X132523373Y-172370689D01*
X132532288Y-172368794D01*
X132598771Y-172339194D01*
X132698422Y-172294827D01*
X132698424Y-172294826D01*
X132706752Y-172291118D01*
X132861253Y-172178866D01*
X132989040Y-172036944D01*
X133084527Y-171871556D01*
X133143542Y-171689928D01*
X133163504Y-171500000D01*
X133143542Y-171310072D01*
X133127125Y-171259544D01*
X133087346Y-171137119D01*
X133087345Y-171137117D01*
X133084527Y-171128444D01*
X132989040Y-170963056D01*
X132861253Y-170821134D01*
X132706752Y-170708882D01*
X132698424Y-170705174D01*
X132698422Y-170705173D01*
X132540616Y-170634914D01*
X132540617Y-170634914D01*
X132532288Y-170631206D01*
X132523373Y-170629311D01*
X132354404Y-170593395D01*
X132354400Y-170593395D01*
X132345487Y-170591500D01*
X132154513Y-170591500D01*
X132145600Y-170593395D01*
X132145596Y-170593395D01*
X131976627Y-170629311D01*
X131967712Y-170631206D01*
X131959383Y-170634914D01*
X131959384Y-170634914D01*
X131801578Y-170705173D01*
X131801576Y-170705174D01*
X131793248Y-170708882D01*
X131785872Y-170714241D01*
X131690863Y-170783269D01*
X131613729Y-170814674D01*
X131588588Y-170816500D01*
X128161412Y-170816500D01*
X128080550Y-170796569D01*
X128059137Y-170783269D01*
X127964128Y-170714241D01*
X127956752Y-170708882D01*
X127948424Y-170705174D01*
X127948422Y-170705173D01*
X127790616Y-170634914D01*
X127790617Y-170634914D01*
X127782288Y-170631206D01*
X127773373Y-170629311D01*
X127604404Y-170593395D01*
X127604400Y-170593395D01*
X127595487Y-170591500D01*
X127404513Y-170591500D01*
X127395600Y-170593395D01*
X127395596Y-170593395D01*
X127226627Y-170629311D01*
X127217712Y-170631206D01*
X127209383Y-170634914D01*
X127209384Y-170634914D01*
X127051578Y-170705173D01*
X127051576Y-170705174D01*
X127043248Y-170708882D01*
X126888747Y-170821134D01*
X126760960Y-170963056D01*
X126665473Y-171128444D01*
X126662655Y-171137117D01*
X126662654Y-171137119D01*
X126622876Y-171259544D01*
X126606458Y-171310072D01*
X126586496Y-171500000D01*
X100508000Y-171500000D01*
X100508000Y-169328918D01*
X105416917Y-169328918D01*
X105432682Y-169602320D01*
X105485405Y-169871053D01*
X105574112Y-170130144D01*
X105576775Y-170135438D01*
X105576775Y-170135439D01*
X105605860Y-170193269D01*
X105697160Y-170374799D01*
X105852274Y-170600490D01*
X106036582Y-170803043D01*
X106162971Y-170908720D01*
X106227957Y-170963056D01*
X106246675Y-170978707D01*
X106478664Y-171124234D01*
X106728257Y-171236930D01*
X106733930Y-171238610D01*
X106733937Y-171238613D01*
X106985157Y-171313027D01*
X106985160Y-171313028D01*
X106990836Y-171314709D01*
X107261540Y-171356132D01*
X107267449Y-171356225D01*
X107267451Y-171356225D01*
X107398451Y-171358283D01*
X107535362Y-171360434D01*
X107541227Y-171359724D01*
X107541232Y-171359724D01*
X107801362Y-171328245D01*
X107801366Y-171328244D01*
X107807235Y-171327534D01*
X107812955Y-171326033D01*
X107812957Y-171326033D01*
X107906860Y-171301398D01*
X108072127Y-171258041D01*
X108077600Y-171255774D01*
X108077603Y-171255773D01*
X108319659Y-171155510D01*
X108319663Y-171155508D01*
X108325136Y-171153241D01*
X108352726Y-171137119D01*
X108556477Y-171018056D01*
X108561582Y-171015073D01*
X108603954Y-170981849D01*
X108772427Y-170849750D01*
X108772432Y-170849746D01*
X108777089Y-170846094D01*
X108781207Y-170841844D01*
X108781212Y-170841840D01*
X108880295Y-170739594D01*
X108967669Y-170649431D01*
X109129795Y-170428723D01*
X109260468Y-170188054D01*
X109280350Y-170135439D01*
X109355173Y-169937425D01*
X109355175Y-169937420D01*
X109357269Y-169931877D01*
X109418407Y-169664933D01*
X109442751Y-169392161D01*
X109443193Y-169350000D01*
X109441756Y-169328918D01*
X118556917Y-169328918D01*
X118572682Y-169602320D01*
X118625405Y-169871053D01*
X118714112Y-170130144D01*
X118716775Y-170135438D01*
X118716775Y-170135439D01*
X118745860Y-170193269D01*
X118837160Y-170374799D01*
X118992274Y-170600490D01*
X119176582Y-170803043D01*
X119302971Y-170908720D01*
X119367957Y-170963056D01*
X119386675Y-170978707D01*
X119618664Y-171124234D01*
X119868257Y-171236930D01*
X119873930Y-171238610D01*
X119873937Y-171238613D01*
X120125157Y-171313027D01*
X120125160Y-171313028D01*
X120130836Y-171314709D01*
X120401540Y-171356132D01*
X120407449Y-171356225D01*
X120407451Y-171356225D01*
X120538451Y-171358283D01*
X120675362Y-171360434D01*
X120681227Y-171359724D01*
X120681232Y-171359724D01*
X120941362Y-171328245D01*
X120941366Y-171328244D01*
X120947235Y-171327534D01*
X120952955Y-171326033D01*
X120952957Y-171326033D01*
X121046860Y-171301398D01*
X121212127Y-171258041D01*
X121217600Y-171255774D01*
X121217603Y-171255773D01*
X121459659Y-171155510D01*
X121459663Y-171155508D01*
X121465136Y-171153241D01*
X121492726Y-171137119D01*
X121696477Y-171018056D01*
X121701582Y-171015073D01*
X121743954Y-170981849D01*
X121912427Y-170849750D01*
X121912432Y-170849746D01*
X121917089Y-170846094D01*
X121921207Y-170841844D01*
X121921212Y-170841840D01*
X122020295Y-170739594D01*
X122107669Y-170649431D01*
X122269795Y-170428723D01*
X122400468Y-170188054D01*
X122420350Y-170135439D01*
X122495173Y-169937425D01*
X122495175Y-169937420D01*
X122497269Y-169931877D01*
X122558407Y-169664933D01*
X122582751Y-169392161D01*
X122583193Y-169350000D01*
X122564567Y-169076778D01*
X122509032Y-168808612D01*
X122417617Y-168550465D01*
X122407654Y-168531161D01*
X122294732Y-168312380D01*
X122292013Y-168307112D01*
X122279380Y-168289136D01*
X122137951Y-168087903D01*
X122137950Y-168087901D01*
X122134545Y-168083057D01*
X122115387Y-168062440D01*
X121952154Y-167886780D01*
X121952149Y-167886775D01*
X121948125Y-167882445D01*
X121736205Y-167708990D01*
X121502704Y-167565901D01*
X121251945Y-167455825D01*
X120988566Y-167380800D01*
X120717443Y-167342213D01*
X120711531Y-167342182D01*
X120711530Y-167342182D01*
X120552110Y-167341348D01*
X120443591Y-167340780D01*
X120437721Y-167341553D01*
X120437718Y-167341553D01*
X120323998Y-167356525D01*
X120172078Y-167376525D01*
X120166364Y-167378088D01*
X120166360Y-167378089D01*
X119913644Y-167447224D01*
X119913640Y-167447225D01*
X119907928Y-167448788D01*
X119801159Y-167494329D01*
X119709763Y-167533313D01*
X119656030Y-167556232D01*
X119560283Y-167613535D01*
X119437204Y-167687196D01*
X119421043Y-167696868D01*
X119370108Y-167737675D01*
X119239803Y-167842069D01*
X119207318Y-167868094D01*
X119203244Y-167872388D01*
X119203242Y-167872389D01*
X119126273Y-167953498D01*
X119018808Y-168066742D01*
X119015349Y-168071556D01*
X119015348Y-168071557D01*
X119007085Y-168083057D01*
X118859002Y-168289136D01*
X118730857Y-168531161D01*
X118636743Y-168788337D01*
X118578404Y-169055907D01*
X118556917Y-169328918D01*
X109441756Y-169328918D01*
X109424567Y-169076778D01*
X109369032Y-168808612D01*
X109277617Y-168550465D01*
X109267654Y-168531161D01*
X109154732Y-168312380D01*
X109152013Y-168307112D01*
X109139380Y-168289136D01*
X108997951Y-168087903D01*
X108997950Y-168087901D01*
X108994545Y-168083057D01*
X108975387Y-168062440D01*
X108812154Y-167886780D01*
X108812149Y-167886775D01*
X108808125Y-167882445D01*
X108596205Y-167708990D01*
X108362704Y-167565901D01*
X108111945Y-167455825D01*
X108049840Y-167438134D01*
X109191500Y-167438134D01*
X109198255Y-167500316D01*
X109202082Y-167510526D01*
X109202083Y-167510528D01*
X109240699Y-167613535D01*
X109249385Y-167636705D01*
X109336739Y-167753261D01*
X109453295Y-167840615D01*
X109464897Y-167844964D01*
X109464898Y-167844965D01*
X109579472Y-167887917D01*
X109579474Y-167887918D01*
X109589684Y-167891745D01*
X109611402Y-167894104D01*
X109647186Y-167897992D01*
X109647193Y-167897992D01*
X109651866Y-167898500D01*
X111348134Y-167898500D01*
X111352807Y-167897992D01*
X111352814Y-167897992D01*
X111388598Y-167894104D01*
X111410316Y-167891745D01*
X111420526Y-167887918D01*
X111420528Y-167887917D01*
X111535102Y-167844965D01*
X111535103Y-167844964D01*
X111546705Y-167840615D01*
X111663261Y-167753261D01*
X111750615Y-167636705D01*
X111755519Y-167623624D01*
X111763614Y-167602032D01*
X111810662Y-167533313D01*
X111884256Y-167494329D01*
X111967538Y-167494012D01*
X112041427Y-167532433D01*
X112049578Y-167540076D01*
X112155700Y-167646198D01*
X112343251Y-167777523D01*
X112550757Y-167874284D01*
X112558095Y-167876250D01*
X112558097Y-167876251D01*
X112615922Y-167891745D01*
X112771913Y-167933543D01*
X112779468Y-167934204D01*
X112779474Y-167934205D01*
X112992433Y-167952836D01*
X113000000Y-167953498D01*
X113007567Y-167952836D01*
X113220526Y-167934205D01*
X113220532Y-167934204D01*
X113228087Y-167933543D01*
X113384078Y-167891745D01*
X113441903Y-167876251D01*
X113441905Y-167876250D01*
X113449243Y-167874284D01*
X113656749Y-167777523D01*
X113844300Y-167646198D01*
X113876963Y-167613535D01*
X113948234Y-167570451D01*
X114031364Y-167565422D01*
X114107309Y-167599602D01*
X114123037Y-167613535D01*
X114155700Y-167646198D01*
X114343251Y-167777523D01*
X114550757Y-167874284D01*
X114558095Y-167876250D01*
X114558097Y-167876251D01*
X114615922Y-167891745D01*
X114771913Y-167933543D01*
X114779468Y-167934204D01*
X114779474Y-167934205D01*
X114992433Y-167952836D01*
X115000000Y-167953498D01*
X115007567Y-167952836D01*
X115220526Y-167934205D01*
X115220532Y-167934204D01*
X115228087Y-167933543D01*
X115384078Y-167891745D01*
X115441903Y-167876251D01*
X115441905Y-167876250D01*
X115449243Y-167874284D01*
X115656749Y-167777523D01*
X115844300Y-167646198D01*
X116006198Y-167484300D01*
X116107470Y-167339670D01*
X116170174Y-167284865D01*
X116251168Y-167265478D01*
X116331895Y-167285951D01*
X116392530Y-167339670D01*
X116493802Y-167484300D01*
X116655700Y-167646198D01*
X116843251Y-167777523D01*
X117050757Y-167874284D01*
X117058095Y-167876250D01*
X117058097Y-167876251D01*
X117115922Y-167891745D01*
X117271913Y-167933543D01*
X117279468Y-167934204D01*
X117279474Y-167934205D01*
X117492433Y-167952836D01*
X117500000Y-167953498D01*
X117507567Y-167952836D01*
X117720526Y-167934205D01*
X117720532Y-167934204D01*
X117728087Y-167933543D01*
X117884078Y-167891745D01*
X117941903Y-167876251D01*
X117941905Y-167876250D01*
X117949243Y-167874284D01*
X118156749Y-167777523D01*
X118344300Y-167646198D01*
X118506198Y-167484300D01*
X118637523Y-167296749D01*
X118734284Y-167089243D01*
X118793543Y-166868087D01*
X118799517Y-166799810D01*
X118812836Y-166647567D01*
X118813498Y-166640000D01*
X118812836Y-166632433D01*
X118795631Y-166435774D01*
X142638102Y-166435774D01*
X142646751Y-166666158D01*
X142694093Y-166891791D01*
X142778776Y-167106221D01*
X142898377Y-167303317D01*
X143049477Y-167477445D01*
X143227755Y-167623624D01*
X143428114Y-167737675D01*
X143435039Y-167740189D01*
X143435042Y-167740190D01*
X143537894Y-167777523D01*
X143644825Y-167816337D01*
X143652076Y-167817648D01*
X143652079Y-167817649D01*
X143769253Y-167838837D01*
X143871692Y-167857361D01*
X143895844Y-167858500D01*
X144057890Y-167858500D01*
X144229720Y-167843920D01*
X144335993Y-167816337D01*
X144445741Y-167787852D01*
X144445743Y-167787851D01*
X144452872Y-167786001D01*
X144459590Y-167782975D01*
X144656358Y-167694338D01*
X144656360Y-167694337D01*
X144663075Y-167691312D01*
X144854319Y-167562559D01*
X144967907Y-167454201D01*
X145015802Y-167408512D01*
X145015805Y-167408508D01*
X145021135Y-167403424D01*
X145036760Y-167382424D01*
X145154350Y-167224377D01*
X145158754Y-167218458D01*
X145263240Y-167012949D01*
X145331607Y-166792773D01*
X145361898Y-166564226D01*
X145353249Y-166333842D01*
X145305907Y-166108209D01*
X145221224Y-165893779D01*
X145101623Y-165696683D01*
X144950523Y-165522555D01*
X144772245Y-165376376D01*
X144571886Y-165262325D01*
X144564961Y-165259811D01*
X144564958Y-165259810D01*
X144362106Y-165186179D01*
X144355175Y-165183663D01*
X144347924Y-165182352D01*
X144347921Y-165182351D01*
X144202638Y-165156080D01*
X144128308Y-165142639D01*
X144104156Y-165141500D01*
X143942110Y-165141500D01*
X143770280Y-165156080D01*
X143763149Y-165157931D01*
X143763148Y-165157931D01*
X143554259Y-165212148D01*
X143554257Y-165212149D01*
X143547128Y-165213999D01*
X143540412Y-165217024D01*
X143540410Y-165217025D01*
X143343642Y-165305662D01*
X143343640Y-165305663D01*
X143336925Y-165308688D01*
X143330813Y-165312803D01*
X143330811Y-165312804D01*
X143277906Y-165348422D01*
X143145681Y-165437441D01*
X143088048Y-165492420D01*
X142984198Y-165591488D01*
X142984195Y-165591492D01*
X142978865Y-165596576D01*
X142974465Y-165602489D01*
X142974463Y-165602492D01*
X142904383Y-165696683D01*
X142841246Y-165781542D01*
X142736760Y-165987051D01*
X142668393Y-166207227D01*
X142638102Y-166435774D01*
X118795631Y-166435774D01*
X118794205Y-166419474D01*
X118794204Y-166419468D01*
X118793543Y-166411913D01*
X118750000Y-166249409D01*
X118736251Y-166198097D01*
X118736250Y-166198095D01*
X118734284Y-166190757D01*
X118637523Y-165983251D01*
X118506198Y-165795700D01*
X118344300Y-165633802D01*
X118156749Y-165502477D01*
X117949243Y-165405716D01*
X117941905Y-165403750D01*
X117941903Y-165403749D01*
X117839745Y-165376376D01*
X117728087Y-165346457D01*
X117720532Y-165345796D01*
X117720526Y-165345795D01*
X117507567Y-165327164D01*
X117500000Y-165326502D01*
X117492433Y-165327164D01*
X117279474Y-165345795D01*
X117279468Y-165345796D01*
X117271913Y-165346457D01*
X117160255Y-165376376D01*
X117058097Y-165403749D01*
X117058095Y-165403750D01*
X117050757Y-165405716D01*
X116843251Y-165502477D01*
X116655700Y-165633802D01*
X116493802Y-165795700D01*
X116392530Y-165940330D01*
X116329826Y-165995135D01*
X116248832Y-166014522D01*
X116168105Y-165994049D01*
X116107470Y-165940330D01*
X116006198Y-165795700D01*
X115844300Y-165633802D01*
X115656749Y-165502477D01*
X115449243Y-165405716D01*
X115441905Y-165403750D01*
X115441903Y-165403749D01*
X115339745Y-165376376D01*
X115228087Y-165346457D01*
X115220532Y-165345796D01*
X115220526Y-165345795D01*
X115007567Y-165327164D01*
X115000000Y-165326502D01*
X114992433Y-165327164D01*
X114779474Y-165345795D01*
X114779468Y-165345796D01*
X114771913Y-165346457D01*
X114660255Y-165376376D01*
X114558097Y-165403749D01*
X114558095Y-165403750D01*
X114550757Y-165405716D01*
X114343251Y-165502477D01*
X114155700Y-165633802D01*
X114123037Y-165666465D01*
X114051766Y-165709549D01*
X113968636Y-165714578D01*
X113892691Y-165680398D01*
X113876963Y-165666465D01*
X113844300Y-165633802D01*
X113656749Y-165502477D01*
X113449243Y-165405716D01*
X113441905Y-165403750D01*
X113441903Y-165403749D01*
X113339745Y-165376376D01*
X113228087Y-165346457D01*
X113220532Y-165345796D01*
X113220526Y-165345795D01*
X113007567Y-165327164D01*
X113000000Y-165326502D01*
X112992433Y-165327164D01*
X112779474Y-165345795D01*
X112779468Y-165345796D01*
X112771913Y-165346457D01*
X112660255Y-165376376D01*
X112558097Y-165403749D01*
X112558095Y-165403750D01*
X112550757Y-165405716D01*
X112343251Y-165502477D01*
X112155700Y-165633802D01*
X112049578Y-165739924D01*
X111978307Y-165783008D01*
X111895177Y-165788037D01*
X111819232Y-165753857D01*
X111767870Y-165688299D01*
X111763614Y-165677968D01*
X111754966Y-165654900D01*
X111754964Y-165654897D01*
X111750615Y-165643295D01*
X111663261Y-165526739D01*
X111546705Y-165439385D01*
X111535103Y-165435036D01*
X111535102Y-165435035D01*
X111420528Y-165392083D01*
X111420526Y-165392082D01*
X111410316Y-165388255D01*
X111388598Y-165385896D01*
X111352814Y-165382008D01*
X111352807Y-165382008D01*
X111348134Y-165381500D01*
X109651866Y-165381500D01*
X109647193Y-165382008D01*
X109647186Y-165382008D01*
X109611402Y-165385896D01*
X109589684Y-165388255D01*
X109579474Y-165392082D01*
X109579472Y-165392083D01*
X109464898Y-165435035D01*
X109464897Y-165435036D01*
X109453295Y-165439385D01*
X109336739Y-165526739D01*
X109249385Y-165643295D01*
X109245036Y-165654897D01*
X109245035Y-165654898D01*
X109229371Y-165696683D01*
X109198255Y-165779684D01*
X109191500Y-165841866D01*
X109191500Y-167438134D01*
X108049840Y-167438134D01*
X107848566Y-167380800D01*
X107577443Y-167342213D01*
X107571531Y-167342182D01*
X107571530Y-167342182D01*
X107412110Y-167341348D01*
X107303591Y-167340780D01*
X107297721Y-167341553D01*
X107297718Y-167341553D01*
X107183998Y-167356525D01*
X107032078Y-167376525D01*
X107026364Y-167378088D01*
X107026360Y-167378089D01*
X106773644Y-167447224D01*
X106773640Y-167447225D01*
X106767928Y-167448788D01*
X106661159Y-167494329D01*
X106569763Y-167533313D01*
X106516030Y-167556232D01*
X106420283Y-167613535D01*
X106297204Y-167687196D01*
X106281043Y-167696868D01*
X106230108Y-167737675D01*
X106099803Y-167842069D01*
X106067318Y-167868094D01*
X106063244Y-167872388D01*
X106063242Y-167872389D01*
X105986273Y-167953498D01*
X105878808Y-168066742D01*
X105875349Y-168071556D01*
X105875348Y-168071557D01*
X105867085Y-168083057D01*
X105719002Y-168289136D01*
X105590857Y-168531161D01*
X105496743Y-168788337D01*
X105438404Y-169055907D01*
X105416917Y-169328918D01*
X100508000Y-169328918D01*
X100508000Y-164250000D01*
X124586496Y-164250000D01*
X124606458Y-164439928D01*
X124665473Y-164621556D01*
X124760960Y-164786944D01*
X124888747Y-164928866D01*
X125043248Y-165041118D01*
X125051576Y-165044826D01*
X125051578Y-165044827D01*
X125151229Y-165089194D01*
X125217712Y-165118794D01*
X125226627Y-165120689D01*
X125395596Y-165156605D01*
X125395600Y-165156605D01*
X125404513Y-165158500D01*
X125595487Y-165158500D01*
X125604400Y-165156605D01*
X125604404Y-165156605D01*
X125773373Y-165120689D01*
X125782288Y-165118794D01*
X125848771Y-165089194D01*
X125948422Y-165044827D01*
X125948424Y-165044826D01*
X125956752Y-165041118D01*
X126111253Y-164928866D01*
X126239040Y-164786944D01*
X126334527Y-164621556D01*
X126393542Y-164439928D01*
X126413504Y-164250000D01*
X126393542Y-164060072D01*
X126334527Y-163878444D01*
X126239040Y-163713056D01*
X126228192Y-163701008D01*
X126188897Y-163627579D01*
X126183500Y-163584580D01*
X126183500Y-158500000D01*
X128586496Y-158500000D01*
X128606458Y-158689928D01*
X128609275Y-158698599D01*
X128609276Y-158698602D01*
X128639337Y-158791118D01*
X128665473Y-158871556D01*
X128670034Y-158879456D01*
X128670035Y-158879458D01*
X128756400Y-159029046D01*
X128760960Y-159036944D01*
X128771110Y-159048216D01*
X128771808Y-159048992D01*
X128811103Y-159122421D01*
X128816500Y-159165420D01*
X128816500Y-160970318D01*
X128816097Y-160982152D01*
X128812424Y-161036034D01*
X128822786Y-161095407D01*
X128824113Y-161104391D01*
X128831355Y-161164235D01*
X128835061Y-161174044D01*
X128836870Y-161181406D01*
X128839061Y-161188664D01*
X128840866Y-161199004D01*
X128845085Y-161208615D01*
X128865088Y-161254183D01*
X128868530Y-161262618D01*
X128889831Y-161318989D01*
X128895772Y-161327633D01*
X128899285Y-161334353D01*
X128903147Y-161340882D01*
X128907362Y-161350485D01*
X128913748Y-161358807D01*
X128944045Y-161398291D01*
X128949400Y-161405661D01*
X128983534Y-161455326D01*
X128991368Y-161462306D01*
X129027268Y-161494292D01*
X129034554Y-161501169D01*
X130549165Y-163015780D01*
X130592249Y-163087051D01*
X130599174Y-163120627D01*
X130606458Y-163189928D01*
X130665473Y-163371556D01*
X130760960Y-163536944D01*
X130888747Y-163678866D01*
X131043248Y-163791118D01*
X131051576Y-163794826D01*
X131051578Y-163794827D01*
X131151229Y-163839194D01*
X131217712Y-163868794D01*
X131226627Y-163870689D01*
X131395596Y-163906605D01*
X131395600Y-163906605D01*
X131404513Y-163908500D01*
X131595487Y-163908500D01*
X131604400Y-163906605D01*
X131604404Y-163906605D01*
X131773373Y-163870689D01*
X131782288Y-163868794D01*
X131848771Y-163839194D01*
X131948422Y-163794827D01*
X131948424Y-163794826D01*
X131956752Y-163791118D01*
X132111253Y-163678866D01*
X132239040Y-163536944D01*
X132334527Y-163371556D01*
X132393542Y-163189928D01*
X132413504Y-163000000D01*
X132393542Y-162810072D01*
X132367038Y-162728500D01*
X132337346Y-162637119D01*
X132337345Y-162637117D01*
X132334527Y-162628444D01*
X132239040Y-162463056D01*
X132111253Y-162321134D01*
X131956752Y-162208882D01*
X131948424Y-162205174D01*
X131948422Y-162205173D01*
X131790616Y-162134914D01*
X131790617Y-162134914D01*
X131782288Y-162131206D01*
X131773373Y-162129311D01*
X131598442Y-162092128D01*
X131523491Y-162055820D01*
X131511582Y-162044967D01*
X130234463Y-160767848D01*
X130191379Y-160696577D01*
X130183500Y-160644811D01*
X130183500Y-159165420D01*
X130203431Y-159084558D01*
X130228192Y-159048992D01*
X130228890Y-159048216D01*
X130239040Y-159036944D01*
X130243600Y-159029046D01*
X130329965Y-158879458D01*
X130329966Y-158879456D01*
X130334527Y-158871556D01*
X130360663Y-158791118D01*
X130390724Y-158698602D01*
X130390725Y-158698599D01*
X130393542Y-158689928D01*
X130413504Y-158500000D01*
X130393542Y-158310072D01*
X130334527Y-158128444D01*
X130239040Y-157963056D01*
X130111253Y-157821134D01*
X129956752Y-157708882D01*
X129948424Y-157705174D01*
X129948422Y-157705173D01*
X129790616Y-157634914D01*
X129790617Y-157634914D01*
X129782288Y-157631206D01*
X129769294Y-157628444D01*
X129604404Y-157593395D01*
X129604400Y-157593395D01*
X129595487Y-157591500D01*
X129404513Y-157591500D01*
X129395600Y-157593395D01*
X129395596Y-157593395D01*
X129230706Y-157628444D01*
X129217712Y-157631206D01*
X129209383Y-157634914D01*
X129209384Y-157634914D01*
X129051578Y-157705173D01*
X129051576Y-157705174D01*
X129043248Y-157708882D01*
X128888747Y-157821134D01*
X128760960Y-157963056D01*
X128665473Y-158128444D01*
X128606458Y-158310072D01*
X128586496Y-158500000D01*
X126183500Y-158500000D01*
X126183500Y-157165420D01*
X126203431Y-157084558D01*
X126228192Y-157048992D01*
X126228890Y-157048216D01*
X126239040Y-157036944D01*
X126243600Y-157029046D01*
X126329965Y-156879458D01*
X126329966Y-156879456D01*
X126334527Y-156871556D01*
X126393542Y-156689928D01*
X126413504Y-156500000D01*
X126393542Y-156310072D01*
X126334527Y-156128444D01*
X126239040Y-155963056D01*
X126111253Y-155821134D01*
X125956752Y-155708882D01*
X125948424Y-155705174D01*
X125948422Y-155705173D01*
X125790616Y-155634914D01*
X125790617Y-155634914D01*
X125782288Y-155631206D01*
X125773373Y-155629311D01*
X125604404Y-155593395D01*
X125604400Y-155593395D01*
X125595487Y-155591500D01*
X125404513Y-155591500D01*
X125395600Y-155593395D01*
X125395596Y-155593395D01*
X125226627Y-155629311D01*
X125217712Y-155631206D01*
X125209383Y-155634914D01*
X125209384Y-155634914D01*
X125051578Y-155705173D01*
X125051576Y-155705174D01*
X125043248Y-155708882D01*
X124888747Y-155821134D01*
X124760960Y-155963056D01*
X124665473Y-156128444D01*
X124606458Y-156310072D01*
X124586496Y-156500000D01*
X124606458Y-156689928D01*
X124665473Y-156871556D01*
X124670034Y-156879456D01*
X124670035Y-156879458D01*
X124756400Y-157029046D01*
X124760960Y-157036944D01*
X124771110Y-157048216D01*
X124771808Y-157048992D01*
X124811103Y-157122421D01*
X124816500Y-157165420D01*
X124816500Y-163584580D01*
X124796569Y-163665442D01*
X124771808Y-163701008D01*
X124760960Y-163713056D01*
X124665473Y-163878444D01*
X124606458Y-164060072D01*
X124586496Y-164250000D01*
X100508000Y-164250000D01*
X100508000Y-161820000D01*
X116906496Y-161820000D01*
X116926458Y-162009928D01*
X116929275Y-162018599D01*
X116929276Y-162018602D01*
X116982654Y-162182881D01*
X116985473Y-162191556D01*
X117080960Y-162356944D01*
X117208747Y-162498866D01*
X117363248Y-162611118D01*
X117371576Y-162614826D01*
X117371578Y-162614827D01*
X117402163Y-162628444D01*
X117537712Y-162688794D01*
X117546627Y-162690689D01*
X117715596Y-162726605D01*
X117715600Y-162726605D01*
X117724513Y-162728500D01*
X117915487Y-162728500D01*
X117924400Y-162726605D01*
X117924404Y-162726605D01*
X118093373Y-162690689D01*
X118102288Y-162688794D01*
X118237837Y-162628444D01*
X118268422Y-162614827D01*
X118268424Y-162614826D01*
X118276752Y-162611118D01*
X118431253Y-162498866D01*
X118559040Y-162356944D01*
X118654527Y-162191556D01*
X118657346Y-162182881D01*
X118710724Y-162018602D01*
X118710725Y-162018599D01*
X118713542Y-162009928D01*
X118733283Y-161822105D01*
X118761557Y-161743769D01*
X118783293Y-161717256D01*
X123394014Y-157106535D01*
X123411126Y-157091529D01*
X123424935Y-157080933D01*
X123424936Y-157080932D01*
X123433987Y-157073987D01*
X123458474Y-157042075D01*
X123458480Y-157042069D01*
X123524580Y-156955925D01*
X123531524Y-156946876D01*
X123562722Y-156871556D01*
X123592838Y-156798850D01*
X123608500Y-156679885D01*
X123608500Y-156679878D01*
X123613750Y-156640000D01*
X123609988Y-156611423D01*
X123608500Y-156588713D01*
X123608500Y-135479943D01*
X125361780Y-135479943D01*
X125362810Y-135490838D01*
X125365728Y-135521708D01*
X125366500Y-135538083D01*
X125366500Y-142922992D01*
X125366078Y-142931946D01*
X125364298Y-142939909D01*
X125364642Y-142950854D01*
X125364642Y-142950855D01*
X125366414Y-143007222D01*
X125366500Y-143012689D01*
X125366500Y-143039856D01*
X125367187Y-143045291D01*
X125367529Y-143050734D01*
X125367441Y-143050740D01*
X125368009Y-143057952D01*
X125369327Y-143099889D01*
X125372383Y-143110408D01*
X125373923Y-143115710D01*
X125379460Y-143142444D01*
X125381526Y-143158797D01*
X125385555Y-143168973D01*
X125396972Y-143197810D01*
X125402281Y-143213318D01*
X125413982Y-143253593D01*
X125419557Y-143263019D01*
X125422369Y-143267775D01*
X125434381Y-143292294D01*
X125440448Y-143307617D01*
X125446885Y-143316477D01*
X125465106Y-143341558D01*
X125474102Y-143355254D01*
X125489885Y-143381940D01*
X125489888Y-143381944D01*
X125495458Y-143391362D01*
X125507111Y-143403015D01*
X125524842Y-143423776D01*
X125534528Y-143437107D01*
X125542964Y-143444085D01*
X125542964Y-143444086D01*
X125566845Y-143463842D01*
X125578970Y-143474874D01*
X136040860Y-153936764D01*
X136083944Y-154008035D01*
X136090870Y-154041612D01*
X136095637Y-154086972D01*
X136105504Y-154180856D01*
X136105505Y-154180861D01*
X136106458Y-154189928D01*
X136109275Y-154198599D01*
X136109276Y-154198602D01*
X136160844Y-154357309D01*
X136165473Y-154371556D01*
X136170034Y-154379456D01*
X136170035Y-154379458D01*
X136223131Y-154471423D01*
X136260960Y-154536944D01*
X136388747Y-154678866D01*
X136543248Y-154791118D01*
X136551576Y-154794826D01*
X136551578Y-154794827D01*
X136624061Y-154827098D01*
X136717712Y-154868794D01*
X136726627Y-154870689D01*
X136895596Y-154906605D01*
X136895600Y-154906605D01*
X136904513Y-154908500D01*
X137095487Y-154908500D01*
X137104400Y-154906605D01*
X137104404Y-154906605D01*
X137273373Y-154870689D01*
X137282288Y-154868794D01*
X137375939Y-154827098D01*
X137448422Y-154794827D01*
X137448424Y-154794826D01*
X137456752Y-154791118D01*
X137611253Y-154678866D01*
X137739040Y-154536944D01*
X137776869Y-154471423D01*
X137829965Y-154379458D01*
X137829966Y-154379456D01*
X137834527Y-154371556D01*
X137839156Y-154357309D01*
X137890724Y-154198602D01*
X137890725Y-154198599D01*
X137893542Y-154189928D01*
X137913504Y-154000000D01*
X137893542Y-153810072D01*
X137849909Y-153675784D01*
X137843877Y-153592722D01*
X137877136Y-153516370D01*
X137942069Y-153464220D01*
X138023799Y-153448219D01*
X138103604Y-153472033D01*
X138138430Y-153498979D01*
X138766414Y-154126963D01*
X138809498Y-154198234D01*
X138814527Y-154281364D01*
X138780347Y-154357309D01*
X138766414Y-154373037D01*
X136098914Y-157040537D01*
X136027643Y-157083621D01*
X135975877Y-157091500D01*
X135904513Y-157091500D01*
X135895600Y-157093395D01*
X135895596Y-157093395D01*
X135726627Y-157129311D01*
X135717712Y-157131206D01*
X135709383Y-157134914D01*
X135709384Y-157134914D01*
X135551578Y-157205173D01*
X135551576Y-157205174D01*
X135543248Y-157208882D01*
X135388747Y-157321134D01*
X135260960Y-157463056D01*
X135256400Y-157470953D01*
X135256400Y-157470954D01*
X135185709Y-157593395D01*
X135165473Y-157628444D01*
X135162655Y-157637117D01*
X135162654Y-157637119D01*
X135137596Y-157714241D01*
X135106458Y-157810072D01*
X135086496Y-158000000D01*
X135106458Y-158189928D01*
X135165473Y-158371556D01*
X135260960Y-158536944D01*
X135388747Y-158678866D01*
X135543248Y-158791118D01*
X135551576Y-158794826D01*
X135551578Y-158794827D01*
X135651229Y-158839194D01*
X135717712Y-158868794D01*
X135726627Y-158870689D01*
X135895596Y-158906605D01*
X135895600Y-158906605D01*
X135904513Y-158908500D01*
X136095487Y-158908500D01*
X136104400Y-158906605D01*
X136104404Y-158906605D01*
X136273373Y-158870689D01*
X136282288Y-158868794D01*
X136348771Y-158839194D01*
X136448422Y-158794827D01*
X136448424Y-158794826D01*
X136456752Y-158791118D01*
X136611253Y-158678866D01*
X136739040Y-158536944D01*
X136834527Y-158371556D01*
X136893542Y-158189928D01*
X136913283Y-158002105D01*
X136941557Y-157923769D01*
X136963293Y-157897256D01*
X139894014Y-154966535D01*
X139911126Y-154951529D01*
X139924935Y-154940933D01*
X139924936Y-154940932D01*
X139933987Y-154933987D01*
X139958474Y-154902075D01*
X139958480Y-154902069D01*
X140016006Y-154827098D01*
X140031523Y-154806876D01*
X140031524Y-154806875D01*
X140092838Y-154658850D01*
X140108500Y-154539885D01*
X140108500Y-154539878D01*
X140113750Y-154500000D01*
X140109988Y-154471423D01*
X140108500Y-154448713D01*
X140108500Y-154051287D01*
X140109988Y-154028577D01*
X140112262Y-154011303D01*
X140113750Y-154000000D01*
X140108500Y-153960120D01*
X140108918Y-153960065D01*
X140108916Y-153960060D01*
X140108500Y-153960115D01*
X140094327Y-153852457D01*
X140094326Y-153852454D01*
X140092838Y-153841150D01*
X140079965Y-153810072D01*
X140031524Y-153693124D01*
X139958477Y-153597929D01*
X139933987Y-153566013D01*
X139911121Y-153548467D01*
X139894010Y-153533462D01*
X137659463Y-151298914D01*
X137616379Y-151227642D01*
X137608500Y-151175877D01*
X137608500Y-120810453D01*
X137628431Y-120729591D01*
X137683657Y-120667254D01*
X137761527Y-120637722D01*
X137818677Y-120640255D01*
X137895596Y-120656605D01*
X137895600Y-120656605D01*
X137904513Y-120658500D01*
X138095487Y-120658500D01*
X138104400Y-120656605D01*
X138104404Y-120656605D01*
X138273373Y-120620689D01*
X138282288Y-120618794D01*
X138391500Y-120570170D01*
X138448422Y-120544827D01*
X138448424Y-120544826D01*
X138456752Y-120541118D01*
X138559136Y-120466731D01*
X138636271Y-120435326D01*
X138661412Y-120433500D01*
X141338588Y-120433500D01*
X141419450Y-120453431D01*
X141440863Y-120466731D01*
X141543248Y-120541118D01*
X141551576Y-120544826D01*
X141551578Y-120544827D01*
X141608500Y-120570170D01*
X141717712Y-120618794D01*
X141726627Y-120620689D01*
X141895596Y-120656605D01*
X141895600Y-120656605D01*
X141904513Y-120658500D01*
X142095487Y-120658500D01*
X142104400Y-120656605D01*
X142104404Y-120656605D01*
X142273373Y-120620689D01*
X142282288Y-120618794D01*
X142391500Y-120570170D01*
X142448422Y-120544827D01*
X142448424Y-120544826D01*
X142456752Y-120541118D01*
X142611253Y-120428866D01*
X142739040Y-120286944D01*
X142834527Y-120121556D01*
X142893542Y-119939928D01*
X142913504Y-119750000D01*
X145086496Y-119750000D01*
X145106458Y-119939928D01*
X145165473Y-120121556D01*
X145260960Y-120286944D01*
X145388747Y-120428866D01*
X145543248Y-120541118D01*
X145551576Y-120544826D01*
X145551578Y-120544827D01*
X145608500Y-120570170D01*
X145717712Y-120618794D01*
X145726627Y-120620689D01*
X145895596Y-120656605D01*
X145895600Y-120656605D01*
X145904513Y-120658500D01*
X146095487Y-120658500D01*
X146104400Y-120656605D01*
X146104404Y-120656605D01*
X146273373Y-120620689D01*
X146282288Y-120618794D01*
X146391500Y-120570170D01*
X146448422Y-120544827D01*
X146448424Y-120544826D01*
X146456752Y-120541118D01*
X146559136Y-120466731D01*
X146636271Y-120435326D01*
X146661412Y-120433500D01*
X149588588Y-120433500D01*
X149669450Y-120453431D01*
X149690863Y-120466731D01*
X149793248Y-120541118D01*
X149801576Y-120544826D01*
X149801578Y-120544827D01*
X149858500Y-120570170D01*
X149967712Y-120618794D01*
X149976627Y-120620689D01*
X150145596Y-120656605D01*
X150145600Y-120656605D01*
X150154513Y-120658500D01*
X150345487Y-120658500D01*
X150354400Y-120656605D01*
X150354404Y-120656605D01*
X150523373Y-120620689D01*
X150532288Y-120618794D01*
X150641500Y-120570170D01*
X150698422Y-120544827D01*
X150698424Y-120544826D01*
X150706752Y-120541118D01*
X150861253Y-120428866D01*
X150989040Y-120286944D01*
X151084527Y-120121556D01*
X151143542Y-119939928D01*
X151163504Y-119750000D01*
X151143542Y-119560072D01*
X151084527Y-119378444D01*
X150989040Y-119213056D01*
X150861253Y-119071134D01*
X150706752Y-118958882D01*
X150698424Y-118955174D01*
X150698422Y-118955173D01*
X150540616Y-118884914D01*
X150540617Y-118884914D01*
X150532288Y-118881206D01*
X150523373Y-118879311D01*
X150354404Y-118843395D01*
X150354400Y-118843395D01*
X150345487Y-118841500D01*
X150154513Y-118841500D01*
X150145600Y-118843395D01*
X150145596Y-118843395D01*
X149976627Y-118879311D01*
X149967712Y-118881206D01*
X149959383Y-118884914D01*
X149959384Y-118884914D01*
X149801578Y-118955173D01*
X149801576Y-118955174D01*
X149793248Y-118958882D01*
X149785872Y-118964241D01*
X149690863Y-119033269D01*
X149613729Y-119064674D01*
X149588588Y-119066500D01*
X146661412Y-119066500D01*
X146580550Y-119046569D01*
X146559137Y-119033269D01*
X146464128Y-118964241D01*
X146456752Y-118958882D01*
X146448424Y-118955174D01*
X146448422Y-118955173D01*
X146290616Y-118884914D01*
X146290617Y-118884914D01*
X146282288Y-118881206D01*
X146273373Y-118879311D01*
X146104404Y-118843395D01*
X146104400Y-118843395D01*
X146095487Y-118841500D01*
X145904513Y-118841500D01*
X145895600Y-118843395D01*
X145895596Y-118843395D01*
X145726627Y-118879311D01*
X145717712Y-118881206D01*
X145709383Y-118884914D01*
X145709384Y-118884914D01*
X145551578Y-118955173D01*
X145551576Y-118955174D01*
X145543248Y-118958882D01*
X145388747Y-119071134D01*
X145260960Y-119213056D01*
X145165473Y-119378444D01*
X145106458Y-119560072D01*
X145086496Y-119750000D01*
X142913504Y-119750000D01*
X142893542Y-119560072D01*
X142834527Y-119378444D01*
X142739040Y-119213056D01*
X142611253Y-119071134D01*
X142456752Y-118958882D01*
X142448424Y-118955174D01*
X142448422Y-118955173D01*
X142290616Y-118884914D01*
X142290617Y-118884914D01*
X142282288Y-118881206D01*
X142273373Y-118879311D01*
X142104404Y-118843395D01*
X142104400Y-118843395D01*
X142095487Y-118841500D01*
X141904513Y-118841500D01*
X141895600Y-118843395D01*
X141895596Y-118843395D01*
X141726627Y-118879311D01*
X141717712Y-118881206D01*
X141709383Y-118884914D01*
X141709384Y-118884914D01*
X141551578Y-118955173D01*
X141551576Y-118955174D01*
X141543248Y-118958882D01*
X141535872Y-118964241D01*
X141440863Y-119033269D01*
X141363729Y-119064674D01*
X141338588Y-119066500D01*
X138661412Y-119066500D01*
X138580550Y-119046569D01*
X138559137Y-119033269D01*
X138464128Y-118964241D01*
X138456752Y-118958882D01*
X138448424Y-118955174D01*
X138448422Y-118955173D01*
X138290616Y-118884914D01*
X138290617Y-118884914D01*
X138282288Y-118881206D01*
X138273373Y-118879311D01*
X138104404Y-118843395D01*
X138104400Y-118843395D01*
X138095487Y-118841500D01*
X137904513Y-118841500D01*
X137895600Y-118843395D01*
X137895596Y-118843395D01*
X137818677Y-118859745D01*
X137735438Y-118857062D01*
X137662981Y-118816003D01*
X137617904Y-118745975D01*
X137608500Y-118689547D01*
X137608500Y-115540538D01*
X137609989Y-115517827D01*
X137612261Y-115500569D01*
X137613750Y-115489259D01*
X137608500Y-115449381D01*
X137608500Y-115449374D01*
X137603119Y-115408500D01*
X137594327Y-115341716D01*
X137594326Y-115341713D01*
X137592838Y-115330409D01*
X137531524Y-115182384D01*
X137462813Y-115092838D01*
X137458477Y-115087187D01*
X137458474Y-115087184D01*
X137433987Y-115055272D01*
X137411125Y-115037729D01*
X137394014Y-115022724D01*
X136654877Y-114283587D01*
X136612430Y-114214319D01*
X136587345Y-114137115D01*
X136587343Y-114137110D01*
X136584527Y-114128444D01*
X136548483Y-114066013D01*
X136489040Y-113963056D01*
X136491760Y-113961486D01*
X136466783Y-113900117D01*
X136474833Y-113817225D01*
X136490334Y-113787691D01*
X136489040Y-113786944D01*
X136579965Y-113629458D01*
X136579966Y-113629456D01*
X136584527Y-113621556D01*
X136587346Y-113612881D01*
X136640724Y-113448602D01*
X136640725Y-113448599D01*
X136643542Y-113439928D01*
X136663504Y-113250000D01*
X136643542Y-113060072D01*
X136612020Y-112963056D01*
X136587346Y-112887119D01*
X136587345Y-112887117D01*
X136584527Y-112878444D01*
X136489040Y-112713056D01*
X136361253Y-112571134D01*
X136206752Y-112458882D01*
X136198424Y-112455174D01*
X136198422Y-112455173D01*
X136040616Y-112384914D01*
X136040617Y-112384914D01*
X136032288Y-112381206D01*
X136023373Y-112379311D01*
X135854404Y-112343395D01*
X135854400Y-112343395D01*
X135845487Y-112341500D01*
X135774123Y-112341500D01*
X135693261Y-112321569D01*
X135651086Y-112290537D01*
X135517024Y-112156475D01*
X135502018Y-112139363D01*
X135491422Y-112125554D01*
X135484476Y-112116502D01*
X135452564Y-112092015D01*
X135452558Y-112092009D01*
X135398131Y-112050246D01*
X135357365Y-112018965D01*
X135209340Y-111957651D01*
X135189946Y-111955098D01*
X135090374Y-111941989D01*
X135090898Y-111938011D01*
X135090893Y-111938010D01*
X135090369Y-111941989D01*
X135061792Y-111938227D01*
X135050489Y-111936739D01*
X135039186Y-111938227D01*
X135021912Y-111940501D01*
X134999202Y-111941989D01*
X134011539Y-111941989D01*
X133988829Y-111940501D01*
X133971555Y-111938227D01*
X133960252Y-111936739D01*
X133920372Y-111941989D01*
X133920317Y-111941571D01*
X133920312Y-111941573D01*
X133920367Y-111941989D01*
X133820795Y-111955098D01*
X133801401Y-111957651D01*
X133653376Y-112018965D01*
X133558181Y-112092011D01*
X133558177Y-112092015D01*
X133526265Y-112116502D01*
X133519319Y-112125554D01*
X133508723Y-112139363D01*
X133493717Y-112156475D01*
X131652150Y-113998042D01*
X131635046Y-114013042D01*
X131618050Y-114026083D01*
X131541768Y-114059497D01*
X131458693Y-114053633D01*
X131387859Y-114009833D01*
X131345493Y-113938133D01*
X131341300Y-113854957D01*
X131346642Y-113834271D01*
X131362019Y-113786944D01*
X131393542Y-113689928D01*
X131413504Y-113500000D01*
X131393542Y-113310072D01*
X131380001Y-113268395D01*
X131337346Y-113137119D01*
X131337345Y-113137117D01*
X131334527Y-113128444D01*
X131325884Y-113113473D01*
X131243600Y-112970954D01*
X131243600Y-112970953D01*
X131239040Y-112963056D01*
X131111253Y-112821134D01*
X130956752Y-112708882D01*
X130948424Y-112705174D01*
X130948422Y-112705173D01*
X130790616Y-112634914D01*
X130790617Y-112634914D01*
X130782288Y-112631206D01*
X130773373Y-112629311D01*
X130604404Y-112593395D01*
X130604400Y-112593395D01*
X130595487Y-112591500D01*
X130404513Y-112591500D01*
X130395600Y-112593395D01*
X130395596Y-112593395D01*
X130226627Y-112629311D01*
X130217712Y-112631206D01*
X130209383Y-112634914D01*
X130209384Y-112634914D01*
X130051578Y-112705173D01*
X130051576Y-112705174D01*
X130043248Y-112708882D01*
X129888747Y-112821134D01*
X129760960Y-112963056D01*
X129756400Y-112970953D01*
X129756400Y-112970954D01*
X129674117Y-113113473D01*
X129665473Y-113128444D01*
X129662655Y-113137117D01*
X129662654Y-113137119D01*
X129620000Y-113268395D01*
X129606458Y-113310072D01*
X129586496Y-113500000D01*
X129606458Y-113689928D01*
X129609275Y-113698599D01*
X129609276Y-113698602D01*
X129662654Y-113862881D01*
X129665473Y-113871556D01*
X129760960Y-114036944D01*
X129767060Y-114043719D01*
X129767061Y-114043720D01*
X129821807Y-114104521D01*
X129861103Y-114177949D01*
X129866500Y-114220950D01*
X129866500Y-130665522D01*
X129846569Y-130746384D01*
X129815537Y-130788559D01*
X125606494Y-134997601D01*
X125599867Y-135003631D01*
X125592982Y-135008000D01*
X125580153Y-135021662D01*
X125546896Y-135057077D01*
X125543092Y-135061003D01*
X125523865Y-135080230D01*
X125520520Y-135084543D01*
X125516898Y-135088651D01*
X125516832Y-135088593D01*
X125512129Y-135094100D01*
X125483414Y-135124679D01*
X125478141Y-135134269D01*
X125478141Y-135134270D01*
X125475476Y-135139118D01*
X125460484Y-135161940D01*
X125457097Y-135166306D01*
X125457095Y-135166310D01*
X125450386Y-135174959D01*
X125446039Y-135185005D01*
X125433726Y-135213458D01*
X125426515Y-135228176D01*
X125411580Y-135255343D01*
X125411578Y-135255349D01*
X125406305Y-135264940D01*
X125402206Y-135280906D01*
X125393364Y-135306728D01*
X125391168Y-135311802D01*
X125391165Y-135311811D01*
X125386819Y-135321855D01*
X125385106Y-135332670D01*
X125380257Y-135363282D01*
X125376935Y-135379325D01*
X125366500Y-135419970D01*
X125366500Y-135436446D01*
X125364358Y-135463665D01*
X125361780Y-135479943D01*
X123608500Y-135479943D01*
X123608500Y-131748716D01*
X123628431Y-131667854D01*
X123653193Y-131632287D01*
X123732938Y-131543721D01*
X123739040Y-131536944D01*
X123761867Y-131497407D01*
X123829965Y-131379458D01*
X123829966Y-131379456D01*
X123834527Y-131371556D01*
X123837346Y-131362881D01*
X123890724Y-131198602D01*
X123890725Y-131198599D01*
X123893542Y-131189928D01*
X123913504Y-131000000D01*
X123893542Y-130810072D01*
X123872849Y-130746384D01*
X123837346Y-130637119D01*
X123837345Y-130637117D01*
X123834527Y-130628444D01*
X123739040Y-130463056D01*
X123611253Y-130321134D01*
X123456752Y-130208882D01*
X123448424Y-130205174D01*
X123448422Y-130205173D01*
X123290616Y-130134914D01*
X123290617Y-130134914D01*
X123282288Y-130131206D01*
X123273373Y-130129311D01*
X123104404Y-130093395D01*
X123104400Y-130093395D01*
X123095487Y-130091500D01*
X122904513Y-130091500D01*
X122895600Y-130093395D01*
X122895596Y-130093395D01*
X122726627Y-130129311D01*
X122717712Y-130131206D01*
X122709383Y-130134914D01*
X122709384Y-130134914D01*
X122551578Y-130205173D01*
X122551576Y-130205174D01*
X122543248Y-130208882D01*
X122388747Y-130321134D01*
X122260960Y-130463056D01*
X122165473Y-130628444D01*
X122162655Y-130637117D01*
X122162654Y-130637119D01*
X122127152Y-130746384D01*
X122106458Y-130810072D01*
X122086496Y-131000000D01*
X122106458Y-131189928D01*
X122109275Y-131198599D01*
X122109276Y-131198602D01*
X122162654Y-131362881D01*
X122165473Y-131371556D01*
X122170034Y-131379456D01*
X122170035Y-131379458D01*
X122238133Y-131497407D01*
X122260960Y-131536944D01*
X122267062Y-131543721D01*
X122346807Y-131632287D01*
X122386103Y-131705716D01*
X122391500Y-131748716D01*
X122391500Y-156315877D01*
X122371569Y-156396739D01*
X122340537Y-156438914D01*
X117918914Y-160860537D01*
X117847643Y-160903621D01*
X117795877Y-160911500D01*
X117724513Y-160911500D01*
X117715600Y-160913395D01*
X117715596Y-160913395D01*
X117546627Y-160949311D01*
X117537712Y-160951206D01*
X117471229Y-160980806D01*
X117371578Y-161025173D01*
X117371576Y-161025174D01*
X117363248Y-161028882D01*
X117208747Y-161141134D01*
X117080960Y-161283056D01*
X117076400Y-161290953D01*
X117076400Y-161290954D01*
X117051344Y-161334353D01*
X116985473Y-161448444D01*
X116982655Y-161457117D01*
X116982654Y-161457119D01*
X116969490Y-161497635D01*
X116926458Y-161630072D01*
X116906496Y-161820000D01*
X100508000Y-161820000D01*
X100508000Y-138731695D01*
X101637251Y-138731695D01*
X101637662Y-138738824D01*
X101637662Y-138738826D01*
X101642744Y-138826961D01*
X101650110Y-138954715D01*
X101699222Y-139172639D01*
X101783266Y-139379616D01*
X101899987Y-139570088D01*
X102046250Y-139738938D01*
X102051733Y-139743490D01*
X102051735Y-139743492D01*
X102127235Y-139806173D01*
X102218126Y-139881632D01*
X102224287Y-139885232D01*
X102404837Y-139990737D01*
X102404840Y-139990739D01*
X102411000Y-139994338D01*
X102417661Y-139996882D01*
X102417666Y-139996884D01*
X102613024Y-140071484D01*
X102613027Y-140071485D01*
X102619692Y-140074030D01*
X102626684Y-140075453D01*
X102626689Y-140075454D01*
X102831602Y-140117144D01*
X102831604Y-140117144D01*
X102838597Y-140118567D01*
X102845728Y-140118828D01*
X102845732Y-140118829D01*
X102955722Y-140122862D01*
X103061837Y-140126753D01*
X103087884Y-140123416D01*
X103276338Y-140099275D01*
X103276341Y-140099274D01*
X103283416Y-140098368D01*
X103290251Y-140096318D01*
X103290253Y-140096317D01*
X103490542Y-140036227D01*
X103490545Y-140036226D01*
X103497384Y-140034174D01*
X103697994Y-139935896D01*
X103879860Y-139806173D01*
X103960152Y-139726162D01*
X104033036Y-139653532D01*
X104033040Y-139653528D01*
X104038096Y-139648489D01*
X104058073Y-139620689D01*
X104164285Y-139472878D01*
X104164287Y-139472874D01*
X104168453Y-139467077D01*
X104267430Y-139266811D01*
X104294034Y-139179249D01*
X104330296Y-139059895D01*
X104332370Y-139053069D01*
X104361529Y-138831590D01*
X104363156Y-138765000D01*
X104361923Y-138750000D01*
X106836496Y-138750000D01*
X106856458Y-138939928D01*
X106859275Y-138948599D01*
X106859276Y-138948602D01*
X106893220Y-139053069D01*
X106915473Y-139121556D01*
X106920034Y-139129456D01*
X106920035Y-139129458D01*
X107006400Y-139279046D01*
X107010960Y-139286944D01*
X107138747Y-139428866D01*
X107293248Y-139541118D01*
X107301576Y-139544826D01*
X107301578Y-139544827D01*
X107401229Y-139589194D01*
X107467712Y-139618794D01*
X107476627Y-139620689D01*
X107645596Y-139656605D01*
X107645600Y-139656605D01*
X107654513Y-139658500D01*
X107845487Y-139658500D01*
X107854400Y-139656605D01*
X107854404Y-139656605D01*
X108023373Y-139620689D01*
X108032288Y-139618794D01*
X108098771Y-139589194D01*
X108198422Y-139544827D01*
X108198424Y-139544826D01*
X108206752Y-139541118D01*
X108361253Y-139428866D01*
X108363051Y-139426869D01*
X108434003Y-139388897D01*
X108477005Y-139383500D01*
X113197606Y-139383500D01*
X113206560Y-139383922D01*
X113214523Y-139385702D01*
X113225468Y-139385358D01*
X113225469Y-139385358D01*
X113281836Y-139383586D01*
X113287303Y-139383500D01*
X113314470Y-139383500D01*
X113319905Y-139382813D01*
X113325348Y-139382471D01*
X113325354Y-139382559D01*
X113332566Y-139381991D01*
X113374503Y-139380673D01*
X113385027Y-139377616D01*
X113390324Y-139376077D01*
X113417058Y-139370540D01*
X113417311Y-139370508D01*
X113433411Y-139368474D01*
X113443587Y-139364445D01*
X113472424Y-139353028D01*
X113487934Y-139347718D01*
X113528207Y-139336018D01*
X113539754Y-139329189D01*
X113542389Y-139327631D01*
X113566908Y-139315619D01*
X113570280Y-139314284D01*
X113582231Y-139309552D01*
X113591091Y-139303115D01*
X113616172Y-139284894D01*
X113629868Y-139275898D01*
X113656554Y-139260115D01*
X113656558Y-139260112D01*
X113665976Y-139254542D01*
X113677629Y-139242889D01*
X113698390Y-139225158D01*
X113702863Y-139221908D01*
X113702864Y-139221907D01*
X113711721Y-139215472D01*
X113738456Y-139183155D01*
X113749488Y-139171030D01*
X116298995Y-136621524D01*
X116305622Y-136615494D01*
X116312507Y-136611125D01*
X116358593Y-136562048D01*
X116362397Y-136558122D01*
X116381624Y-136538895D01*
X116384969Y-136534582D01*
X116388591Y-136530474D01*
X116388657Y-136530532D01*
X116393363Y-136525021D01*
X116414583Y-136502424D01*
X116422075Y-136494446D01*
X116430014Y-136480005D01*
X116445005Y-136457185D01*
X116448392Y-136452819D01*
X116448394Y-136452815D01*
X116455103Y-136444166D01*
X116471763Y-136405666D01*
X116478974Y-136390949D01*
X116493909Y-136363782D01*
X116493911Y-136363776D01*
X116499184Y-136354185D01*
X116503283Y-136338219D01*
X116512125Y-136312397D01*
X116514321Y-136307323D01*
X116514324Y-136307314D01*
X116518670Y-136297270D01*
X116525232Y-136255843D01*
X116528555Y-136239793D01*
X116536267Y-136209755D01*
X116538989Y-136199155D01*
X116538989Y-136182679D01*
X116541131Y-136155460D01*
X116541997Y-136149993D01*
X116541997Y-136149991D01*
X116543709Y-136139182D01*
X116539761Y-136097417D01*
X116538989Y-136081042D01*
X116538989Y-128452500D01*
X116558920Y-128371638D01*
X116614146Y-128309301D01*
X116692016Y-128279769D01*
X116712989Y-128278500D01*
X116725487Y-128278500D01*
X116734400Y-128276605D01*
X116734404Y-128276605D01*
X116903373Y-128240689D01*
X116912288Y-128238794D01*
X117035969Y-128183728D01*
X117078422Y-128164827D01*
X117078424Y-128164826D01*
X117086752Y-128161118D01*
X117241253Y-128048866D01*
X117243051Y-128046869D01*
X117314003Y-128008897D01*
X117357005Y-128003500D01*
X126903825Y-128003500D01*
X126984687Y-128023431D01*
X127033131Y-128061071D01*
X127075702Y-128108350D01*
X127132646Y-128171594D01*
X127132650Y-128171598D01*
X127138747Y-128178369D01*
X127293248Y-128290621D01*
X127301576Y-128294329D01*
X127301578Y-128294330D01*
X127335204Y-128309301D01*
X127467712Y-128368297D01*
X127476627Y-128370192D01*
X127645596Y-128406108D01*
X127645600Y-128406108D01*
X127654513Y-128408003D01*
X127845487Y-128408003D01*
X127854400Y-128406108D01*
X127854404Y-128406108D01*
X128023373Y-128370192D01*
X128032288Y-128368297D01*
X128164796Y-128309301D01*
X128198422Y-128294330D01*
X128198424Y-128294329D01*
X128206752Y-128290621D01*
X128361253Y-128178369D01*
X128489040Y-128036447D01*
X128584527Y-127871059D01*
X128643542Y-127689431D01*
X128663504Y-127499503D01*
X128643542Y-127309575D01*
X128584527Y-127127947D01*
X128579967Y-127120049D01*
X128579964Y-127120042D01*
X128560743Y-127086751D01*
X128537572Y-127006757D01*
X128554231Y-126925159D01*
X128560743Y-126912751D01*
X128579965Y-126879458D01*
X128579966Y-126879456D01*
X128584527Y-126871556D01*
X128587346Y-126862881D01*
X128640724Y-126698602D01*
X128640725Y-126698599D01*
X128643542Y-126689928D01*
X128663504Y-126500000D01*
X128643542Y-126310072D01*
X128584527Y-126128444D01*
X128579968Y-126120548D01*
X128579966Y-126120543D01*
X128560600Y-126087001D01*
X128537429Y-126007007D01*
X128554087Y-125925408D01*
X128560600Y-125912999D01*
X128579966Y-125879457D01*
X128579968Y-125879452D01*
X128584527Y-125871556D01*
X128598709Y-125827910D01*
X128640724Y-125698602D01*
X128640725Y-125698599D01*
X128643542Y-125689928D01*
X128663504Y-125500000D01*
X128643542Y-125310072D01*
X128639620Y-125297999D01*
X128587346Y-125137119D01*
X128587345Y-125137117D01*
X128584527Y-125128444D01*
X128578503Y-125118009D01*
X128560743Y-125087249D01*
X128537572Y-125007255D01*
X128554231Y-124925657D01*
X128560743Y-124913249D01*
X128579964Y-124879958D01*
X128579967Y-124879951D01*
X128584527Y-124872053D01*
X128602813Y-124815775D01*
X128640724Y-124699099D01*
X128640725Y-124699096D01*
X128643542Y-124690425D01*
X128663504Y-124500497D01*
X128643542Y-124310569D01*
X128640563Y-124301398D01*
X128587346Y-124137616D01*
X128587345Y-124137614D01*
X128584527Y-124128941D01*
X128533205Y-124040048D01*
X128493600Y-123971451D01*
X128493600Y-123971450D01*
X128489040Y-123963553D01*
X128361253Y-123821631D01*
X128206752Y-123709379D01*
X128198424Y-123705671D01*
X128198422Y-123705670D01*
X128040616Y-123635411D01*
X128040617Y-123635411D01*
X128032288Y-123631703D01*
X128021035Y-123629311D01*
X127854404Y-123593892D01*
X127854400Y-123593892D01*
X127845487Y-123591997D01*
X127654513Y-123591997D01*
X127645600Y-123593892D01*
X127645596Y-123593892D01*
X127478965Y-123629311D01*
X127467712Y-123631703D01*
X127459383Y-123635411D01*
X127459384Y-123635411D01*
X127301578Y-123705670D01*
X127301576Y-123705671D01*
X127293248Y-123709379D01*
X127138747Y-123821631D01*
X127137299Y-123823239D01*
X127066549Y-123861102D01*
X127023547Y-123866500D01*
X121227005Y-123866500D01*
X121146143Y-123846569D01*
X121114014Y-123824200D01*
X121111253Y-123821134D01*
X120956752Y-123708882D01*
X120948424Y-123705174D01*
X120948422Y-123705173D01*
X120848771Y-123660806D01*
X120782288Y-123631206D01*
X120773373Y-123629311D01*
X120604404Y-123593395D01*
X120604400Y-123593395D01*
X120595487Y-123591500D01*
X120404513Y-123591500D01*
X120395600Y-123593395D01*
X120395596Y-123593395D01*
X120226627Y-123629311D01*
X120217712Y-123631206D01*
X120151229Y-123660806D01*
X120051578Y-123705173D01*
X120051576Y-123705174D01*
X120043248Y-123708882D01*
X119888747Y-123821134D01*
X119760960Y-123963056D01*
X119756400Y-123970953D01*
X119756400Y-123970954D01*
X119716509Y-124040048D01*
X119665473Y-124128444D01*
X119662655Y-124137117D01*
X119662654Y-124137119D01*
X119629398Y-124239471D01*
X119606458Y-124310072D01*
X119597007Y-124399992D01*
X119592022Y-124447421D01*
X119563748Y-124525757D01*
X119502308Y-124581980D01*
X119421778Y-124603210D01*
X119382797Y-124599430D01*
X119354411Y-124593396D01*
X119354403Y-124593395D01*
X119345487Y-124591500D01*
X119154513Y-124591500D01*
X119145600Y-124593395D01*
X119145596Y-124593395D01*
X118976627Y-124629311D01*
X118967712Y-124631206D01*
X118959383Y-124634914D01*
X118959384Y-124634914D01*
X118801578Y-124705173D01*
X118801576Y-124705174D01*
X118793248Y-124708882D01*
X118638747Y-124821134D01*
X118510960Y-124963056D01*
X118506400Y-124970953D01*
X118506400Y-124970954D01*
X118421498Y-125118009D01*
X118415473Y-125128444D01*
X118412655Y-125137117D01*
X118412654Y-125137119D01*
X118360381Y-125297999D01*
X118356458Y-125310072D01*
X118347617Y-125394190D01*
X118342022Y-125447421D01*
X118313748Y-125525757D01*
X118252308Y-125581980D01*
X118171778Y-125603210D01*
X118132797Y-125599430D01*
X118104411Y-125593396D01*
X118104403Y-125593395D01*
X118095487Y-125591500D01*
X117904513Y-125591500D01*
X117895600Y-125593395D01*
X117895596Y-125593395D01*
X117726627Y-125629311D01*
X117717712Y-125631206D01*
X117651229Y-125660806D01*
X117551578Y-125705173D01*
X117551576Y-125705174D01*
X117543248Y-125708882D01*
X117388747Y-125821134D01*
X117260960Y-125963056D01*
X117165473Y-126128444D01*
X117106458Y-126310072D01*
X117105505Y-126319143D01*
X117102765Y-126345210D01*
X117074492Y-126423545D01*
X117013053Y-126479769D01*
X116932522Y-126501000D01*
X116893541Y-126497221D01*
X116734404Y-126463395D01*
X116734400Y-126463395D01*
X116725487Y-126461500D01*
X116712989Y-126461500D01*
X116710477Y-126460881D01*
X116707301Y-126460547D01*
X116707347Y-126460109D01*
X116632127Y-126441569D01*
X116569790Y-126386343D01*
X116540258Y-126308473D01*
X116538989Y-126287500D01*
X116538989Y-126103989D01*
X116558920Y-126023127D01*
X116589952Y-125980952D01*
X127436441Y-115134463D01*
X127507712Y-115091379D01*
X127559478Y-115083500D01*
X127595487Y-115083500D01*
X127604400Y-115081605D01*
X127604404Y-115081605D01*
X127773373Y-115045689D01*
X127782288Y-115043794D01*
X127848771Y-115014194D01*
X127948422Y-114969827D01*
X127948424Y-114969826D01*
X127956752Y-114966118D01*
X128111253Y-114853866D01*
X128239040Y-114711944D01*
X128334527Y-114546556D01*
X128393542Y-114364928D01*
X128413504Y-114175000D01*
X128393542Y-113985072D01*
X128385879Y-113961486D01*
X128337346Y-113812119D01*
X128337345Y-113812117D01*
X128334527Y-113803444D01*
X128239040Y-113638056D01*
X128111253Y-113496134D01*
X127956752Y-113383882D01*
X127948424Y-113380174D01*
X127948422Y-113380173D01*
X127790616Y-113309914D01*
X127790617Y-113309914D01*
X127782288Y-113306206D01*
X127773373Y-113304311D01*
X127604404Y-113268395D01*
X127604400Y-113268395D01*
X127595487Y-113266500D01*
X127549478Y-113266500D01*
X127468616Y-113246569D01*
X127406279Y-113191343D01*
X127376747Y-113113473D01*
X127386785Y-113030799D01*
X127426441Y-112969463D01*
X131211441Y-109184463D01*
X131282712Y-109141379D01*
X131334478Y-109133500D01*
X137798992Y-109133500D01*
X137879854Y-109153431D01*
X137911983Y-109175800D01*
X137914744Y-109178866D01*
X138069245Y-109291118D01*
X138077573Y-109294826D01*
X138077575Y-109294827D01*
X138097017Y-109303483D01*
X138243709Y-109368794D01*
X138252624Y-109370689D01*
X138421593Y-109406605D01*
X138421597Y-109406605D01*
X138430510Y-109408500D01*
X138621484Y-109408500D01*
X138630397Y-109406605D01*
X138630401Y-109406605D01*
X138799370Y-109370689D01*
X138808285Y-109368794D01*
X138954976Y-109303483D01*
X139036955Y-109288801D01*
X139096520Y-109303483D01*
X139243212Y-109368794D01*
X139252127Y-109370689D01*
X139421096Y-109406605D01*
X139421100Y-109406605D01*
X139430013Y-109408500D01*
X139620987Y-109408500D01*
X139629900Y-109406605D01*
X139629904Y-109406605D01*
X139798873Y-109370689D01*
X139807788Y-109368794D01*
X139954480Y-109303483D01*
X139973922Y-109294827D01*
X139973924Y-109294826D01*
X139982252Y-109291118D01*
X140136753Y-109178866D01*
X140264540Y-109036944D01*
X140360027Y-108871556D01*
X140419042Y-108689928D01*
X140439004Y-108500000D01*
X140419042Y-108310072D01*
X140360027Y-108128444D01*
X140305805Y-108034528D01*
X140269100Y-107970954D01*
X140269100Y-107970953D01*
X140264540Y-107963056D01*
X140203692Y-107895478D01*
X140164397Y-107822051D01*
X140159000Y-107779050D01*
X140159000Y-103577894D01*
X140159422Y-103568940D01*
X140161202Y-103560977D01*
X140159086Y-103493664D01*
X140159000Y-103488197D01*
X140159000Y-103461030D01*
X140158313Y-103455595D01*
X140157971Y-103450152D01*
X140158059Y-103450146D01*
X140157491Y-103442928D01*
X140156517Y-103411937D01*
X140156173Y-103400996D01*
X140151576Y-103385172D01*
X140146040Y-103358441D01*
X140145345Y-103352944D01*
X140143974Y-103342089D01*
X140128530Y-103303081D01*
X140123224Y-103287584D01*
X140114572Y-103257803D01*
X140114571Y-103257800D01*
X140111518Y-103247293D01*
X140103130Y-103233109D01*
X140091118Y-103208590D01*
X140089082Y-103203448D01*
X140085052Y-103193269D01*
X140060390Y-103159325D01*
X140051399Y-103145636D01*
X140035614Y-103118945D01*
X140030042Y-103109523D01*
X140018386Y-103097867D01*
X140000655Y-103077105D01*
X139997411Y-103072640D01*
X139997406Y-103072635D01*
X139990972Y-103063779D01*
X139958661Y-103037049D01*
X139946536Y-103026017D01*
X128577991Y-91657472D01*
X128571961Y-91650845D01*
X128567592Y-91643960D01*
X128518515Y-91597874D01*
X128514589Y-91594070D01*
X128495362Y-91574843D01*
X128491049Y-91571498D01*
X128486941Y-91567876D01*
X128486999Y-91567810D01*
X128481488Y-91563104D01*
X128478932Y-91560703D01*
X128450913Y-91534392D01*
X128436472Y-91526453D01*
X128413652Y-91511462D01*
X128409286Y-91508075D01*
X128409282Y-91508073D01*
X128400633Y-91501364D01*
X128362133Y-91484704D01*
X128347416Y-91477493D01*
X128320249Y-91462558D01*
X128320243Y-91462556D01*
X128310652Y-91457283D01*
X128294686Y-91453184D01*
X128268864Y-91444342D01*
X128263790Y-91442146D01*
X128263781Y-91442143D01*
X128253737Y-91437797D01*
X128220321Y-91432504D01*
X128212310Y-91431235D01*
X128196267Y-91427913D01*
X128155622Y-91417478D01*
X128139146Y-91417478D01*
X128111927Y-91415336D01*
X128106460Y-91414470D01*
X128106458Y-91414470D01*
X128095649Y-91412758D01*
X128053884Y-91416706D01*
X128037509Y-91417478D01*
X127552396Y-91417478D01*
X127543440Y-91417056D01*
X127535478Y-91415276D01*
X127524532Y-91415620D01*
X127468151Y-91417392D01*
X127462685Y-91417478D01*
X127435530Y-91417478D01*
X127430111Y-91418162D01*
X127424647Y-91418506D01*
X127424641Y-91418418D01*
X127417430Y-91418986D01*
X127375497Y-91420304D01*
X127359666Y-91424903D01*
X127332937Y-91430439D01*
X127316589Y-91432504D01*
X127288076Y-91443793D01*
X127277592Y-91447944D01*
X127262082Y-91453254D01*
X127257577Y-91454563D01*
X127221793Y-91464959D01*
X127212371Y-91470531D01*
X127207602Y-91473351D01*
X127183085Y-91485361D01*
X127177954Y-91487393D01*
X127177952Y-91487394D01*
X127167769Y-91491426D01*
X127158907Y-91497864D01*
X127158908Y-91497864D01*
X127133833Y-91516081D01*
X127120135Y-91525079D01*
X127093448Y-91540862D01*
X127093445Y-91540865D01*
X127084024Y-91546436D01*
X127076284Y-91554176D01*
X127076281Y-91554178D01*
X127072368Y-91558091D01*
X127051617Y-91575814D01*
X127047137Y-91579069D01*
X127047132Y-91579073D01*
X127038279Y-91585506D01*
X127031302Y-91593940D01*
X127011540Y-91617828D01*
X127000507Y-91629953D01*
X126657473Y-91972986D01*
X126650846Y-91979016D01*
X126643960Y-91983386D01*
X126597875Y-92032463D01*
X126594066Y-92036394D01*
X126585744Y-92044716D01*
X126574843Y-92055616D01*
X126571494Y-92059934D01*
X126567871Y-92064043D01*
X126567805Y-92063985D01*
X126563107Y-92069486D01*
X126534392Y-92100065D01*
X126529119Y-92109655D01*
X126529119Y-92109656D01*
X126526454Y-92114504D01*
X126511462Y-92137326D01*
X126508075Y-92141692D01*
X126508073Y-92141696D01*
X126501364Y-92150345D01*
X126497017Y-92160391D01*
X126484704Y-92188844D01*
X126477493Y-92203562D01*
X126462558Y-92230729D01*
X126462556Y-92230735D01*
X126457283Y-92240326D01*
X126453184Y-92256292D01*
X126444342Y-92282114D01*
X126442146Y-92287188D01*
X126442143Y-92287197D01*
X126437797Y-92297241D01*
X126436084Y-92308056D01*
X126431235Y-92338668D01*
X126427913Y-92354711D01*
X126417478Y-92395356D01*
X126417478Y-92411832D01*
X126415336Y-92439051D01*
X126412758Y-92455329D01*
X126413788Y-92466224D01*
X126416706Y-92497094D01*
X126417478Y-92513469D01*
X126417478Y-92998584D01*
X126417056Y-93007538D01*
X126415276Y-93015501D01*
X126415620Y-93026446D01*
X126415620Y-93026447D01*
X126417392Y-93082814D01*
X126417478Y-93088281D01*
X126417478Y-93115448D01*
X126418165Y-93120883D01*
X126418507Y-93126326D01*
X126418419Y-93126332D01*
X126418987Y-93133544D01*
X126420305Y-93175481D01*
X126423361Y-93186000D01*
X126424901Y-93191302D01*
X126430438Y-93218036D01*
X126432504Y-93234389D01*
X126436533Y-93244565D01*
X126447950Y-93273402D01*
X126453259Y-93288910D01*
X126464960Y-93329185D01*
X126470535Y-93338611D01*
X126473347Y-93343367D01*
X126485359Y-93367886D01*
X126491426Y-93383209D01*
X126497863Y-93392069D01*
X126516084Y-93417150D01*
X126525080Y-93430846D01*
X126540863Y-93457532D01*
X126540866Y-93457536D01*
X126546436Y-93466954D01*
X126558089Y-93478607D01*
X126575820Y-93499368D01*
X126585506Y-93512699D01*
X126593942Y-93519677D01*
X126593942Y-93519678D01*
X126617823Y-93539434D01*
X126629948Y-93550466D01*
X128866017Y-95786535D01*
X128909101Y-95857806D01*
X128916980Y-95909572D01*
X128916980Y-103674454D01*
X128897049Y-103755316D01*
X128841823Y-103817653D01*
X128763953Y-103847185D01*
X128681279Y-103837147D01*
X128612739Y-103789837D01*
X128586787Y-103749051D01*
X128586018Y-103746406D01*
X128577628Y-103732219D01*
X128565614Y-103707695D01*
X128563583Y-103702564D01*
X128563583Y-103702563D01*
X128559552Y-103692383D01*
X128546526Y-103674454D01*
X128534897Y-103658447D01*
X128525897Y-103644747D01*
X128510112Y-103618056D01*
X128504542Y-103608637D01*
X128492886Y-103596981D01*
X128475155Y-103576219D01*
X128471911Y-103571754D01*
X128471906Y-103571749D01*
X128465472Y-103562893D01*
X128433161Y-103536163D01*
X128421036Y-103525131D01*
X122502399Y-97606494D01*
X122496369Y-97599867D01*
X122492000Y-97592982D01*
X122442923Y-97546896D01*
X122438997Y-97543092D01*
X122419770Y-97523865D01*
X122415457Y-97520520D01*
X122411349Y-97516898D01*
X122411407Y-97516832D01*
X122405896Y-97512126D01*
X122383299Y-97490906D01*
X122375321Y-97483414D01*
X122360880Y-97475475D01*
X122338060Y-97460484D01*
X122333694Y-97457097D01*
X122333690Y-97457095D01*
X122325041Y-97450386D01*
X122286541Y-97433726D01*
X122271824Y-97426515D01*
X122244657Y-97411580D01*
X122244651Y-97411578D01*
X122235060Y-97406305D01*
X122219094Y-97402206D01*
X122193272Y-97393364D01*
X122188198Y-97391168D01*
X122188189Y-97391165D01*
X122178145Y-97386819D01*
X122157564Y-97383559D01*
X122136718Y-97380257D01*
X122120675Y-97376935D01*
X122080030Y-97366500D01*
X122063554Y-97366500D01*
X122036335Y-97364358D01*
X122030868Y-97363492D01*
X122030866Y-97363492D01*
X122020057Y-97361780D01*
X121992785Y-97364358D01*
X121978292Y-97365728D01*
X121961917Y-97366500D01*
X109227005Y-97366500D01*
X109146143Y-97346569D01*
X109114014Y-97324200D01*
X109111253Y-97321134D01*
X108956752Y-97208882D01*
X108948424Y-97205174D01*
X108948422Y-97205173D01*
X108790616Y-97134914D01*
X108790617Y-97134914D01*
X108782288Y-97131206D01*
X108773373Y-97129311D01*
X108604404Y-97093395D01*
X108604400Y-97093395D01*
X108595487Y-97091500D01*
X108404513Y-97091500D01*
X108395600Y-97093395D01*
X108395596Y-97093395D01*
X108226627Y-97129311D01*
X108217712Y-97131206D01*
X108209383Y-97134914D01*
X108209384Y-97134914D01*
X108051578Y-97205173D01*
X108051576Y-97205174D01*
X108043248Y-97208882D01*
X107888747Y-97321134D01*
X107760960Y-97463056D01*
X107756400Y-97470953D01*
X107756400Y-97470954D01*
X107690273Y-97585490D01*
X107665473Y-97628444D01*
X107606458Y-97810072D01*
X107586496Y-98000000D01*
X107606458Y-98189928D01*
X107665473Y-98371556D01*
X107760960Y-98536944D01*
X107888747Y-98678866D01*
X108043248Y-98791118D01*
X108051576Y-98794826D01*
X108051578Y-98794827D01*
X108151229Y-98839194D01*
X108217712Y-98868794D01*
X108226627Y-98870689D01*
X108395596Y-98906605D01*
X108395600Y-98906605D01*
X108404513Y-98908500D01*
X108595487Y-98908500D01*
X108604400Y-98906605D01*
X108604404Y-98906605D01*
X108773373Y-98870689D01*
X108782288Y-98868794D01*
X108848771Y-98839194D01*
X108948422Y-98794827D01*
X108948424Y-98794826D01*
X108956752Y-98791118D01*
X109111253Y-98678866D01*
X109113051Y-98676869D01*
X109184003Y-98638897D01*
X109227005Y-98633500D01*
X121665522Y-98633500D01*
X121746384Y-98653431D01*
X121788559Y-98684463D01*
X127106523Y-104002427D01*
X127149607Y-104073698D01*
X127154636Y-104156828D01*
X127148970Y-104179233D01*
X127123790Y-104256730D01*
X127106458Y-104310072D01*
X127086496Y-104500000D01*
X127106458Y-104689928D01*
X127109275Y-104698599D01*
X127109276Y-104698602D01*
X127158104Y-104848878D01*
X127165473Y-104871556D01*
X127170034Y-104879456D01*
X127170035Y-104879458D01*
X127238134Y-104997409D01*
X127260960Y-105036944D01*
X127267062Y-105043721D01*
X127296190Y-105076071D01*
X127335486Y-105149500D01*
X127336157Y-105232779D01*
X127298049Y-105306831D01*
X127229893Y-105354691D01*
X127166883Y-105366500D01*
X114834479Y-105366500D01*
X114753617Y-105346569D01*
X114711442Y-105315537D01*
X113959140Y-104563235D01*
X113916056Y-104491964D01*
X113909130Y-104458385D01*
X113894496Y-104319144D01*
X113894495Y-104319139D01*
X113893542Y-104310072D01*
X113890724Y-104301397D01*
X113837346Y-104137119D01*
X113837345Y-104137117D01*
X113834527Y-104128444D01*
X113802920Y-104073698D01*
X113743600Y-103970954D01*
X113743600Y-103970953D01*
X113739040Y-103963056D01*
X113611253Y-103821134D01*
X113456752Y-103708882D01*
X113448424Y-103705174D01*
X113448422Y-103705173D01*
X113290616Y-103634914D01*
X113290617Y-103634914D01*
X113282288Y-103631206D01*
X113273373Y-103629311D01*
X113104404Y-103593395D01*
X113104400Y-103593395D01*
X113095487Y-103591500D01*
X112904513Y-103591500D01*
X112895600Y-103593395D01*
X112895596Y-103593395D01*
X112726627Y-103629311D01*
X112717712Y-103631206D01*
X112709383Y-103634914D01*
X112709384Y-103634914D01*
X112551578Y-103705173D01*
X112551576Y-103705174D01*
X112543248Y-103708882D01*
X112388747Y-103821134D01*
X112382646Y-103827910D01*
X112382645Y-103827911D01*
X112379306Y-103831619D01*
X112376145Y-103833763D01*
X112375869Y-103834012D01*
X112375835Y-103833974D01*
X112310387Y-103878374D01*
X112227634Y-103887746D01*
X112150005Y-103857586D01*
X112120694Y-103831619D01*
X112117355Y-103827911D01*
X112117354Y-103827910D01*
X112111253Y-103821134D01*
X111956752Y-103708882D01*
X111948424Y-103705174D01*
X111948422Y-103705173D01*
X111790616Y-103634914D01*
X111790617Y-103634914D01*
X111782288Y-103631206D01*
X111773373Y-103629311D01*
X111604404Y-103593395D01*
X111604400Y-103593395D01*
X111595487Y-103591500D01*
X111404513Y-103591500D01*
X111395600Y-103593395D01*
X111395596Y-103593395D01*
X111226627Y-103629311D01*
X111217712Y-103631206D01*
X111209383Y-103634914D01*
X111209384Y-103634914D01*
X111051578Y-103705173D01*
X111051576Y-103705174D01*
X111043248Y-103708882D01*
X110888747Y-103821134D01*
X110760960Y-103963056D01*
X110756400Y-103970953D01*
X110756400Y-103970954D01*
X110697081Y-104073698D01*
X110665473Y-104128444D01*
X110662655Y-104137117D01*
X110662654Y-104137119D01*
X110609277Y-104301397D01*
X110606458Y-104310072D01*
X110605505Y-104319139D01*
X110605504Y-104319144D01*
X110590870Y-104458386D01*
X110562596Y-104536722D01*
X110540861Y-104563235D01*
X109954595Y-105149500D01*
X109381983Y-105722112D01*
X109375356Y-105728142D01*
X109368471Y-105732511D01*
X109322385Y-105781588D01*
X109318581Y-105785514D01*
X109299354Y-105804741D01*
X109296009Y-105809054D01*
X109292387Y-105813162D01*
X109292321Y-105813104D01*
X109287618Y-105818611D01*
X109258903Y-105849190D01*
X109253630Y-105858780D01*
X109253630Y-105858781D01*
X109250965Y-105863629D01*
X109235973Y-105886451D01*
X109232586Y-105890817D01*
X109232584Y-105890821D01*
X109225875Y-105899470D01*
X109221528Y-105909516D01*
X109209215Y-105937969D01*
X109202004Y-105952687D01*
X109187069Y-105979854D01*
X109187067Y-105979860D01*
X109181794Y-105989451D01*
X109177695Y-106005417D01*
X109168853Y-106031239D01*
X109166657Y-106036313D01*
X109166654Y-106036322D01*
X109162308Y-106046366D01*
X109160595Y-106057181D01*
X109155746Y-106087793D01*
X109152424Y-106103836D01*
X109141989Y-106144481D01*
X109141989Y-106160957D01*
X109139847Y-106188176D01*
X109137269Y-106204454D01*
X109138299Y-106215349D01*
X109141217Y-106246219D01*
X109141989Y-106262594D01*
X109141989Y-124223095D01*
X109141567Y-124232049D01*
X109139787Y-124240012D01*
X109140131Y-124250957D01*
X109140131Y-124250958D01*
X109141903Y-124307325D01*
X109141989Y-124312792D01*
X109141989Y-124339959D01*
X109142676Y-124345394D01*
X109143018Y-124350837D01*
X109142930Y-124350843D01*
X109143498Y-124358055D01*
X109144816Y-124399992D01*
X109147872Y-124410511D01*
X109149412Y-124415813D01*
X109154949Y-124442547D01*
X109157015Y-124458900D01*
X109161044Y-124469076D01*
X109172461Y-124497913D01*
X109177770Y-124513421D01*
X109189471Y-124553696D01*
X109195046Y-124563122D01*
X109197858Y-124567878D01*
X109209870Y-124592397D01*
X109210266Y-124593396D01*
X109215937Y-124607720D01*
X109222374Y-124616580D01*
X109240595Y-124641661D01*
X109249591Y-124655357D01*
X109265374Y-124682043D01*
X109265377Y-124682047D01*
X109270947Y-124691465D01*
X109282600Y-124703118D01*
X109300331Y-124723879D01*
X109310017Y-124737210D01*
X109318453Y-124744188D01*
X109318453Y-124744189D01*
X109342334Y-124763945D01*
X109354459Y-124774977D01*
X109697491Y-125118009D01*
X109703527Y-125124643D01*
X109707897Y-125131529D01*
X109715873Y-125139019D01*
X109715874Y-125139020D01*
X109756990Y-125177630D01*
X109760916Y-125181434D01*
X109780128Y-125200646D01*
X109784451Y-125204000D01*
X109788543Y-125207607D01*
X109788485Y-125207673D01*
X109793986Y-125212372D01*
X109824576Y-125241097D01*
X109834167Y-125246369D01*
X109834169Y-125246371D01*
X109839015Y-125249035D01*
X109861843Y-125264030D01*
X109874857Y-125274125D01*
X109884900Y-125278471D01*
X109913359Y-125290786D01*
X109928070Y-125297993D01*
X109964837Y-125318206D01*
X109980803Y-125322305D01*
X110006625Y-125331147D01*
X110011699Y-125333343D01*
X110011708Y-125333346D01*
X110021752Y-125337692D01*
X110032567Y-125339405D01*
X110063179Y-125344254D01*
X110079222Y-125347576D01*
X110119867Y-125358011D01*
X110136343Y-125358011D01*
X110163562Y-125360153D01*
X110169029Y-125361019D01*
X110169031Y-125361019D01*
X110179840Y-125362731D01*
X110221605Y-125358783D01*
X110237980Y-125358011D01*
X114698481Y-125358011D01*
X114707435Y-125358433D01*
X114715398Y-125360213D01*
X114726343Y-125359869D01*
X114726344Y-125359869D01*
X114782711Y-125358097D01*
X114788178Y-125358011D01*
X114815345Y-125358011D01*
X114820780Y-125357324D01*
X114826223Y-125356982D01*
X114826229Y-125357070D01*
X114833441Y-125356502D01*
X114875378Y-125355184D01*
X114885902Y-125352127D01*
X114891199Y-125350588D01*
X114917933Y-125345051D01*
X114918186Y-125345019D01*
X114934286Y-125342985D01*
X114944462Y-125338956D01*
X114973299Y-125327539D01*
X114988809Y-125322229D01*
X114993294Y-125320926D01*
X115029082Y-125310529D01*
X115040629Y-125303700D01*
X115043264Y-125302142D01*
X115067783Y-125290130D01*
X115072925Y-125288094D01*
X115072926Y-125288093D01*
X115083106Y-125284063D01*
X115087386Y-125280953D01*
X115164984Y-125260228D01*
X115246216Y-125278591D01*
X115309610Y-125332601D01*
X115340642Y-125409885D01*
X115332205Y-125492739D01*
X115320829Y-125518016D01*
X115311794Y-125534451D01*
X115307695Y-125550417D01*
X115298853Y-125576239D01*
X115296657Y-125581313D01*
X115296654Y-125581322D01*
X115292308Y-125591366D01*
X115290595Y-125602181D01*
X115285746Y-125632793D01*
X115282424Y-125648836D01*
X115271989Y-125689481D01*
X115271989Y-125705957D01*
X115269847Y-125733176D01*
X115267269Y-125749454D01*
X115268299Y-125760349D01*
X115271217Y-125791219D01*
X115271989Y-125807594D01*
X115271989Y-135784647D01*
X115252058Y-135865509D01*
X115221026Y-135907684D01*
X113063172Y-138065537D01*
X112991900Y-138108621D01*
X112940135Y-138116500D01*
X108477005Y-138116500D01*
X108396143Y-138096569D01*
X108364014Y-138074200D01*
X108361253Y-138071134D01*
X108206752Y-137958882D01*
X108198424Y-137955174D01*
X108198422Y-137955173D01*
X108098771Y-137910806D01*
X108032288Y-137881206D01*
X108023373Y-137879311D01*
X107854404Y-137843395D01*
X107854400Y-137843395D01*
X107845487Y-137841500D01*
X107654513Y-137841500D01*
X107645600Y-137843395D01*
X107645596Y-137843395D01*
X107476627Y-137879311D01*
X107467712Y-137881206D01*
X107401229Y-137910806D01*
X107301578Y-137955173D01*
X107301576Y-137955174D01*
X107293248Y-137958882D01*
X107138747Y-138071134D01*
X107010960Y-138213056D01*
X107006400Y-138220953D01*
X107006400Y-138220954D01*
X106945924Y-138325702D01*
X106915473Y-138378444D01*
X106912655Y-138387117D01*
X106912654Y-138387119D01*
X106862213Y-138542361D01*
X106856458Y-138560072D01*
X106836496Y-138750000D01*
X104361923Y-138750000D01*
X104344852Y-138542361D01*
X104338398Y-138516664D01*
X104292170Y-138332626D01*
X104290431Y-138325702D01*
X104201354Y-138120840D01*
X104080014Y-137933277D01*
X103998228Y-137843395D01*
X103980466Y-137823875D01*
X103940786Y-137750654D01*
X103939680Y-137667379D01*
X103977399Y-137593129D01*
X104048082Y-137543844D01*
X104085098Y-137529967D01*
X104085102Y-137529965D01*
X104096705Y-137525615D01*
X104213261Y-137438261D01*
X104300615Y-137321705D01*
X104351745Y-137185316D01*
X104358500Y-137123134D01*
X104358500Y-135326866D01*
X104357878Y-135321134D01*
X104352923Y-135275529D01*
X104351745Y-135264684D01*
X104335365Y-135220989D01*
X104304965Y-135139898D01*
X104304964Y-135139897D01*
X104300615Y-135128295D01*
X104213261Y-135011739D01*
X104096705Y-134924385D01*
X104085103Y-134920036D01*
X104085102Y-134920035D01*
X103970528Y-134877083D01*
X103970526Y-134877082D01*
X103960316Y-134873255D01*
X103938598Y-134870896D01*
X103902814Y-134867008D01*
X103902807Y-134867008D01*
X103898134Y-134866500D01*
X102101866Y-134866500D01*
X102097193Y-134867008D01*
X102097186Y-134867008D01*
X102061402Y-134870896D01*
X102039684Y-134873255D01*
X102029474Y-134877082D01*
X102029472Y-134877083D01*
X101914898Y-134920035D01*
X101914897Y-134920036D01*
X101903295Y-134924385D01*
X101786739Y-135011739D01*
X101699385Y-135128295D01*
X101695036Y-135139897D01*
X101695035Y-135139898D01*
X101664636Y-135220989D01*
X101648255Y-135264684D01*
X101647077Y-135275529D01*
X101642123Y-135321134D01*
X101641500Y-135326866D01*
X101641500Y-137123134D01*
X101648255Y-137185316D01*
X101699385Y-137321705D01*
X101786739Y-137438261D01*
X101903295Y-137525615D01*
X101914898Y-137529965D01*
X101914902Y-137529967D01*
X101952353Y-137544007D01*
X102021073Y-137591054D01*
X102060057Y-137664649D01*
X102060375Y-137747930D01*
X102017069Y-137827147D01*
X101945566Y-137901971D01*
X101945562Y-137901976D01*
X101940629Y-137907138D01*
X101814743Y-138091680D01*
X101720688Y-138294305D01*
X101718783Y-138301175D01*
X101718782Y-138301177D01*
X101710061Y-138332626D01*
X101660989Y-138509570D01*
X101637251Y-138731695D01*
X100508000Y-138731695D01*
X100508000Y-126894689D01*
X100527931Y-126813827D01*
X100583157Y-126751490D01*
X100661027Y-126721958D01*
X100743701Y-126731996D01*
X100805037Y-126771652D01*
X108549165Y-134515779D01*
X108592249Y-134587050D01*
X108599175Y-134620628D01*
X108606458Y-134689928D01*
X108665473Y-134871556D01*
X108760960Y-135036944D01*
X108888747Y-135178866D01*
X109043248Y-135291118D01*
X109051576Y-135294826D01*
X109051578Y-135294827D01*
X109089705Y-135311802D01*
X109217712Y-135368794D01*
X109226627Y-135370689D01*
X109395596Y-135406605D01*
X109395600Y-135406605D01*
X109404513Y-135408500D01*
X109595487Y-135408500D01*
X109604400Y-135406605D01*
X109604404Y-135406605D01*
X109773373Y-135370689D01*
X109782288Y-135368794D01*
X109910295Y-135311802D01*
X109948422Y-135294827D01*
X109948424Y-135294826D01*
X109956752Y-135291118D01*
X110111253Y-135178866D01*
X110239040Y-135036944D01*
X110334527Y-134871556D01*
X110393542Y-134689928D01*
X110413504Y-134500000D01*
X110393542Y-134310072D01*
X110334527Y-134128444D01*
X110239040Y-133963056D01*
X110111253Y-133821134D01*
X109956752Y-133708882D01*
X109948424Y-133705174D01*
X109948422Y-133705173D01*
X109790616Y-133634914D01*
X109790617Y-133634914D01*
X109782288Y-133631206D01*
X109773373Y-133629311D01*
X109598442Y-133592128D01*
X109523491Y-133555820D01*
X109511582Y-133544967D01*
X101734463Y-125767848D01*
X101691379Y-125696577D01*
X101683500Y-125644811D01*
X101683500Y-92855189D01*
X101703431Y-92774327D01*
X101734463Y-92732152D01*
X103732152Y-90734463D01*
X103803423Y-90691379D01*
X103855189Y-90683500D01*
X114338588Y-90683500D01*
X114419450Y-90703431D01*
X114440863Y-90716731D01*
X114543248Y-90791118D01*
X114551576Y-90794826D01*
X114551578Y-90794827D01*
X114630891Y-90830139D01*
X114717712Y-90868794D01*
X114726627Y-90870689D01*
X114895596Y-90906605D01*
X114895600Y-90906605D01*
X114904513Y-90908500D01*
X115095487Y-90908500D01*
X115104400Y-90906605D01*
X115104404Y-90906605D01*
X115273373Y-90870689D01*
X115282288Y-90868794D01*
X115369109Y-90830139D01*
X115448422Y-90794827D01*
X115448424Y-90794826D01*
X115456752Y-90791118D01*
X115611253Y-90678866D01*
X115739040Y-90536944D01*
X115834527Y-90371556D01*
X115893542Y-90189928D01*
X115913504Y-90000000D01*
X115893542Y-89810072D01*
X115834527Y-89628444D01*
X115780320Y-89534554D01*
X115743600Y-89470954D01*
X115743600Y-89470953D01*
X115739040Y-89463056D01*
X115611253Y-89321134D01*
X115456752Y-89208882D01*
X115448424Y-89205174D01*
X115448422Y-89205173D01*
X115290616Y-89134914D01*
X115290617Y-89134914D01*
X115282288Y-89131206D01*
X115223095Y-89118624D01*
X115104404Y-89093395D01*
X115104400Y-89093395D01*
X115095487Y-89091500D01*
X114904513Y-89091500D01*
X114895600Y-89093395D01*
X114895596Y-89093395D01*
X114776905Y-89118624D01*
X114717712Y-89131206D01*
X114709383Y-89134914D01*
X114709384Y-89134914D01*
X114551578Y-89205173D01*
X114551576Y-89205174D01*
X114543248Y-89208882D01*
X114535872Y-89214241D01*
X114440863Y-89283269D01*
X114363729Y-89314674D01*
X114338588Y-89316500D01*
X103529693Y-89316500D01*
X103517858Y-89316097D01*
X103513134Y-89315775D01*
X103463966Y-89312423D01*
X103453631Y-89314227D01*
X103453626Y-89314227D01*
X103404596Y-89322784D01*
X103395586Y-89324115D01*
X103335765Y-89331355D01*
X103325955Y-89335062D01*
X103318594Y-89336870D01*
X103311336Y-89339061D01*
X103300996Y-89340866D01*
X103245809Y-89365091D01*
X103237382Y-89368530D01*
X103190828Y-89386121D01*
X103190825Y-89386123D01*
X103181011Y-89389831D01*
X103172367Y-89395772D01*
X103165647Y-89399285D01*
X103159118Y-89403147D01*
X103149515Y-89407362D01*
X103141193Y-89413748D01*
X103101709Y-89444045D01*
X103094339Y-89449400D01*
X103044674Y-89483534D01*
X103037694Y-89491368D01*
X103005708Y-89527268D01*
X102998831Y-89534554D01*
X100826933Y-91706452D01*
X100755662Y-91749536D01*
X100672532Y-91754565D01*
X100596587Y-91720385D01*
X100545225Y-91654827D01*
X100530213Y-91572909D01*
X100531385Y-91560703D01*
X100533263Y-91546436D01*
X100575252Y-91227505D01*
X100577887Y-91212563D01*
X100659418Y-90844801D01*
X100663346Y-90830139D01*
X100776618Y-90470888D01*
X100781810Y-90456625D01*
X100925958Y-90108618D01*
X100932373Y-90094860D01*
X101106307Y-89760737D01*
X101113897Y-89747591D01*
X101194836Y-89620542D01*
X101316289Y-89429899D01*
X101324992Y-89417470D01*
X101554305Y-89118624D01*
X101564062Y-89106996D01*
X101818544Y-88829277D01*
X101829277Y-88818544D01*
X102106996Y-88564062D01*
X102118624Y-88554305D01*
X102417470Y-88324992D01*
X102429899Y-88316289D01*
X102747591Y-88113897D01*
X102760737Y-88106307D01*
X103094860Y-87932373D01*
X103108618Y-87925958D01*
X103456625Y-87781810D01*
X103470888Y-87776618D01*
X103830139Y-87663346D01*
X103844801Y-87659418D01*
X104212563Y-87577887D01*
X104227505Y-87575252D01*
X104400053Y-87552536D01*
X104600964Y-87526085D01*
X104616086Y-87524762D01*
X104833284Y-87515279D01*
X104951817Y-87510104D01*
X104970611Y-87511147D01*
X104981485Y-87511280D01*
X104993730Y-87513186D01*
X105006019Y-87511579D01*
X105006021Y-87511579D01*
X105022154Y-87509469D01*
X105044716Y-87508000D01*
X147946960Y-87508000D01*
X147973729Y-87510072D01*
G37*
G04 #@! TD.AperFunction*
G04 #@! TD*
M02*
