G04 #@! TF.GenerationSoftware,KiCad,Pcbnew,(6.0.1)*
G04 #@! TF.CreationDate,2022-02-28T11:40:08-08:00*
G04 #@! TF.ProjectId,PCB,5043422e-6b69-4636-9164-5f7063625858,rev?*
G04 #@! TF.SameCoordinates,Original*
G04 #@! TF.FileFunction,Legend,Top*
G04 #@! TF.FilePolarity,Positive*
%FSLAX46Y46*%
G04 Gerber Fmt 4.6, Leading zero omitted, Abs format (unit mm)*
G04 Created by KiCad (PCBNEW (6.0.1)) date 2022-02-28 11:40:08*
%MOMM*%
%LPD*%
G01*
G04 APERTURE LIST*
%ADD10C,0.100000*%
%ADD11C,0.150000*%
%ADD12C,0.300000*%
%ADD13C,0.400000*%
%ADD14C,0.120000*%
G04 APERTURE END LIST*
D10*
D11*
X177002200Y-166007200D02*
X177002200Y-198007200D01*
X285002200Y-198007200D01*
X285002200Y-166007200D01*
X177002200Y-166007200D01*
D10*
D11*
X10000000Y-10000000D02*
X10000000Y-200007200D01*
X287002200Y-200007200D01*
X287002200Y-10000000D01*
X10000000Y-10000000D01*
D10*
D11*
X12000000Y-12000000D02*
X12000000Y-198007200D01*
X285002200Y-198007200D01*
X285002200Y-12000000D01*
X12000000Y-12000000D01*
D10*
D11*
X60000000Y-12000000D02*
X60000000Y-10000000D01*
D10*
D11*
X110000000Y-12000000D02*
X110000000Y-10000000D01*
D10*
D11*
X160000000Y-12000000D02*
X160000000Y-10000000D01*
D10*
D11*
X210000000Y-12000000D02*
X210000000Y-10000000D01*
D10*
D11*
X260000000Y-12000000D02*
X260000000Y-10000000D01*
D10*
D11*
X36065476Y-11588095D02*
X35322619Y-11588095D01*
X35694047Y-11588095D02*
X35694047Y-10288095D01*
X35570238Y-10473809D01*
X35446428Y-10597619D01*
X35322619Y-10659523D01*
D10*
D11*
X85322619Y-10411904D02*
X85384523Y-10350000D01*
X85508333Y-10288095D01*
X85817857Y-10288095D01*
X85941666Y-10350000D01*
X86003571Y-10411904D01*
X86065476Y-10535714D01*
X86065476Y-10659523D01*
X86003571Y-10845238D01*
X85260714Y-11588095D01*
X86065476Y-11588095D01*
D10*
D11*
X135260714Y-10288095D02*
X136065476Y-10288095D01*
X135632142Y-10783333D01*
X135817857Y-10783333D01*
X135941666Y-10845238D01*
X136003571Y-10907142D01*
X136065476Y-11030952D01*
X136065476Y-11340476D01*
X136003571Y-11464285D01*
X135941666Y-11526190D01*
X135817857Y-11588095D01*
X135446428Y-11588095D01*
X135322619Y-11526190D01*
X135260714Y-11464285D01*
D10*
D11*
X185941666Y-10721428D02*
X185941666Y-11588095D01*
X185632142Y-10226190D02*
X185322619Y-11154761D01*
X186127380Y-11154761D01*
D10*
D11*
X236003571Y-10288095D02*
X235384523Y-10288095D01*
X235322619Y-10907142D01*
X235384523Y-10845238D01*
X235508333Y-10783333D01*
X235817857Y-10783333D01*
X235941666Y-10845238D01*
X236003571Y-10907142D01*
X236065476Y-11030952D01*
X236065476Y-11340476D01*
X236003571Y-11464285D01*
X235941666Y-11526190D01*
X235817857Y-11588095D01*
X235508333Y-11588095D01*
X235384523Y-11526190D01*
X235322619Y-11464285D01*
D10*
D11*
X285941666Y-10288095D02*
X285694047Y-10288095D01*
X285570238Y-10350000D01*
X285508333Y-10411904D01*
X285384523Y-10597619D01*
X285322619Y-10845238D01*
X285322619Y-11340476D01*
X285384523Y-11464285D01*
X285446428Y-11526190D01*
X285570238Y-11588095D01*
X285817857Y-11588095D01*
X285941666Y-11526190D01*
X286003571Y-11464285D01*
X286065476Y-11340476D01*
X286065476Y-11030952D01*
X286003571Y-10907142D01*
X285941666Y-10845238D01*
X285817857Y-10783333D01*
X285570238Y-10783333D01*
X285446428Y-10845238D01*
X285384523Y-10907142D01*
X285322619Y-11030952D01*
D10*
D11*
X60000000Y-198007200D02*
X60000000Y-200007200D01*
D10*
D11*
X110000000Y-198007200D02*
X110000000Y-200007200D01*
D10*
D11*
X160000000Y-198007200D02*
X160000000Y-200007200D01*
D10*
D11*
X210000000Y-198007200D02*
X210000000Y-200007200D01*
D10*
D11*
X260000000Y-198007200D02*
X260000000Y-200007200D01*
D10*
D11*
X36065476Y-199595295D02*
X35322619Y-199595295D01*
X35694047Y-199595295D02*
X35694047Y-198295295D01*
X35570238Y-198481009D01*
X35446428Y-198604819D01*
X35322619Y-198666723D01*
D10*
D11*
X85322619Y-198419104D02*
X85384523Y-198357200D01*
X85508333Y-198295295D01*
X85817857Y-198295295D01*
X85941666Y-198357200D01*
X86003571Y-198419104D01*
X86065476Y-198542914D01*
X86065476Y-198666723D01*
X86003571Y-198852438D01*
X85260714Y-199595295D01*
X86065476Y-199595295D01*
D10*
D11*
X135260714Y-198295295D02*
X136065476Y-198295295D01*
X135632142Y-198790533D01*
X135817857Y-198790533D01*
X135941666Y-198852438D01*
X136003571Y-198914342D01*
X136065476Y-199038152D01*
X136065476Y-199347676D01*
X136003571Y-199471485D01*
X135941666Y-199533390D01*
X135817857Y-199595295D01*
X135446428Y-199595295D01*
X135322619Y-199533390D01*
X135260714Y-199471485D01*
D10*
D11*
X185941666Y-198728628D02*
X185941666Y-199595295D01*
X185632142Y-198233390D02*
X185322619Y-199161961D01*
X186127380Y-199161961D01*
D10*
D11*
X236003571Y-198295295D02*
X235384523Y-198295295D01*
X235322619Y-198914342D01*
X235384523Y-198852438D01*
X235508333Y-198790533D01*
X235817857Y-198790533D01*
X235941666Y-198852438D01*
X236003571Y-198914342D01*
X236065476Y-199038152D01*
X236065476Y-199347676D01*
X236003571Y-199471485D01*
X235941666Y-199533390D01*
X235817857Y-199595295D01*
X235508333Y-199595295D01*
X235384523Y-199533390D01*
X235322619Y-199471485D01*
D10*
D11*
X285941666Y-198295295D02*
X285694047Y-198295295D01*
X285570238Y-198357200D01*
X285508333Y-198419104D01*
X285384523Y-198604819D01*
X285322619Y-198852438D01*
X285322619Y-199347676D01*
X285384523Y-199471485D01*
X285446428Y-199533390D01*
X285570238Y-199595295D01*
X285817857Y-199595295D01*
X285941666Y-199533390D01*
X286003571Y-199471485D01*
X286065476Y-199347676D01*
X286065476Y-199038152D01*
X286003571Y-198914342D01*
X285941666Y-198852438D01*
X285817857Y-198790533D01*
X285570238Y-198790533D01*
X285446428Y-198852438D01*
X285384523Y-198914342D01*
X285322619Y-199038152D01*
D10*
D11*
X10000000Y-60000000D02*
X12000000Y-60000000D01*
D10*
D11*
X10000000Y-110000000D02*
X12000000Y-110000000D01*
D10*
D11*
X10000000Y-160000000D02*
X12000000Y-160000000D01*
D10*
D11*
X10690476Y-35216666D02*
X11309523Y-35216666D01*
X10566666Y-35588095D02*
X11000000Y-34288095D01*
X11433333Y-35588095D01*
D10*
D11*
X11092857Y-84907142D02*
X11278571Y-84969047D01*
X11340476Y-85030952D01*
X11402380Y-85154761D01*
X11402380Y-85340476D01*
X11340476Y-85464285D01*
X11278571Y-85526190D01*
X11154761Y-85588095D01*
X10659523Y-85588095D01*
X10659523Y-84288095D01*
X11092857Y-84288095D01*
X11216666Y-84350000D01*
X11278571Y-84411904D01*
X11340476Y-84535714D01*
X11340476Y-84659523D01*
X11278571Y-84783333D01*
X11216666Y-84845238D01*
X11092857Y-84907142D01*
X10659523Y-84907142D01*
D10*
D11*
X11402380Y-135464285D02*
X11340476Y-135526190D01*
X11154761Y-135588095D01*
X11030952Y-135588095D01*
X10845238Y-135526190D01*
X10721428Y-135402380D01*
X10659523Y-135278571D01*
X10597619Y-135030952D01*
X10597619Y-134845238D01*
X10659523Y-134597619D01*
X10721428Y-134473809D01*
X10845238Y-134350000D01*
X11030952Y-134288095D01*
X11154761Y-134288095D01*
X11340476Y-134350000D01*
X11402380Y-134411904D01*
D10*
D11*
X10659523Y-185588095D02*
X10659523Y-184288095D01*
X10969047Y-184288095D01*
X11154761Y-184350000D01*
X11278571Y-184473809D01*
X11340476Y-184597619D01*
X11402380Y-184845238D01*
X11402380Y-185030952D01*
X11340476Y-185278571D01*
X11278571Y-185402380D01*
X11154761Y-185526190D01*
X10969047Y-185588095D01*
X10659523Y-185588095D01*
D10*
D11*
X287002200Y-60000000D02*
X285002200Y-60000000D01*
D10*
D11*
X287002200Y-110000000D02*
X285002200Y-110000000D01*
D10*
D11*
X287002200Y-160000000D02*
X285002200Y-160000000D01*
D10*
D11*
X285692676Y-35216666D02*
X286311723Y-35216666D01*
X285568866Y-35588095D02*
X286002200Y-34288095D01*
X286435533Y-35588095D01*
D10*
D11*
X286095057Y-84907142D02*
X286280771Y-84969047D01*
X286342676Y-85030952D01*
X286404580Y-85154761D01*
X286404580Y-85340476D01*
X286342676Y-85464285D01*
X286280771Y-85526190D01*
X286156961Y-85588095D01*
X285661723Y-85588095D01*
X285661723Y-84288095D01*
X286095057Y-84288095D01*
X286218866Y-84350000D01*
X286280771Y-84411904D01*
X286342676Y-84535714D01*
X286342676Y-84659523D01*
X286280771Y-84783333D01*
X286218866Y-84845238D01*
X286095057Y-84907142D01*
X285661723Y-84907142D01*
D10*
D11*
X286404580Y-135464285D02*
X286342676Y-135526190D01*
X286156961Y-135588095D01*
X286033152Y-135588095D01*
X285847438Y-135526190D01*
X285723628Y-135402380D01*
X285661723Y-135278571D01*
X285599819Y-135030952D01*
X285599819Y-134845238D01*
X285661723Y-134597619D01*
X285723628Y-134473809D01*
X285847438Y-134350000D01*
X286033152Y-134288095D01*
X286156961Y-134288095D01*
X286342676Y-134350000D01*
X286404580Y-134411904D01*
D10*
D11*
X285661723Y-185588095D02*
X285661723Y-184288095D01*
X285971247Y-184288095D01*
X286156961Y-184350000D01*
X286280771Y-184473809D01*
X286342676Y-184597619D01*
X286404580Y-184845238D01*
X286404580Y-185030952D01*
X286342676Y-185278571D01*
X286280771Y-185402380D01*
X286156961Y-185526190D01*
X285971247Y-185588095D01*
X285661723Y-185588095D01*
D10*
D11*
X200434342Y-193785771D02*
X200434342Y-192285771D01*
X200791485Y-192285771D01*
X201005771Y-192357200D01*
X201148628Y-192500057D01*
X201220057Y-192642914D01*
X201291485Y-192928628D01*
X201291485Y-193142914D01*
X201220057Y-193428628D01*
X201148628Y-193571485D01*
X201005771Y-193714342D01*
X200791485Y-193785771D01*
X200434342Y-193785771D01*
X202577200Y-193785771D02*
X202577200Y-193000057D01*
X202505771Y-192857200D01*
X202362914Y-192785771D01*
X202077200Y-192785771D01*
X201934342Y-192857200D01*
X202577200Y-193714342D02*
X202434342Y-193785771D01*
X202077200Y-193785771D01*
X201934342Y-193714342D01*
X201862914Y-193571485D01*
X201862914Y-193428628D01*
X201934342Y-193285771D01*
X202077200Y-193214342D01*
X202434342Y-193214342D01*
X202577200Y-193142914D01*
X203077200Y-192785771D02*
X203648628Y-192785771D01*
X203291485Y-192285771D02*
X203291485Y-193571485D01*
X203362914Y-193714342D01*
X203505771Y-193785771D01*
X203648628Y-193785771D01*
X204720057Y-193714342D02*
X204577200Y-193785771D01*
X204291485Y-193785771D01*
X204148628Y-193714342D01*
X204077200Y-193571485D01*
X204077200Y-193000057D01*
X204148628Y-192857200D01*
X204291485Y-192785771D01*
X204577200Y-192785771D01*
X204720057Y-192857200D01*
X204791485Y-193000057D01*
X204791485Y-193142914D01*
X204077200Y-193285771D01*
X205434342Y-193642914D02*
X205505771Y-193714342D01*
X205434342Y-193785771D01*
X205362914Y-193714342D01*
X205434342Y-193642914D01*
X205434342Y-193785771D01*
X205434342Y-192857200D02*
X205505771Y-192928628D01*
X205434342Y-193000057D01*
X205362914Y-192928628D01*
X205434342Y-192857200D01*
X205434342Y-193000057D01*
D10*
D11*
X177002200Y-194507200D02*
X285002200Y-194507200D01*
D10*
D11*
X178434342Y-196585771D02*
X178434342Y-195085771D01*
X179291485Y-196585771D02*
X178648628Y-195728628D01*
X179291485Y-195085771D02*
X178434342Y-195942914D01*
X179934342Y-196585771D02*
X179934342Y-195585771D01*
X179934342Y-195085771D02*
X179862914Y-195157200D01*
X179934342Y-195228628D01*
X180005771Y-195157200D01*
X179934342Y-195085771D01*
X179934342Y-195228628D01*
X181505771Y-196442914D02*
X181434342Y-196514342D01*
X181220057Y-196585771D01*
X181077200Y-196585771D01*
X180862914Y-196514342D01*
X180720057Y-196371485D01*
X180648628Y-196228628D01*
X180577200Y-195942914D01*
X180577200Y-195728628D01*
X180648628Y-195442914D01*
X180720057Y-195300057D01*
X180862914Y-195157200D01*
X181077200Y-195085771D01*
X181220057Y-195085771D01*
X181434342Y-195157200D01*
X181505771Y-195228628D01*
X182791485Y-196585771D02*
X182791485Y-195800057D01*
X182720057Y-195657200D01*
X182577200Y-195585771D01*
X182291485Y-195585771D01*
X182148628Y-195657200D01*
X182791485Y-196514342D02*
X182648628Y-196585771D01*
X182291485Y-196585771D01*
X182148628Y-196514342D01*
X182077200Y-196371485D01*
X182077200Y-196228628D01*
X182148628Y-196085771D01*
X182291485Y-196014342D01*
X182648628Y-196014342D01*
X182791485Y-195942914D01*
X184148628Y-196585771D02*
X184148628Y-195085771D01*
X184148628Y-196514342D02*
X184005771Y-196585771D01*
X183720057Y-196585771D01*
X183577200Y-196514342D01*
X183505771Y-196442914D01*
X183434342Y-196300057D01*
X183434342Y-195871485D01*
X183505771Y-195728628D01*
X183577200Y-195657200D01*
X183720057Y-195585771D01*
X184005771Y-195585771D01*
X184148628Y-195657200D01*
X186005771Y-195800057D02*
X186505771Y-195800057D01*
X186720057Y-196585771D02*
X186005771Y-196585771D01*
X186005771Y-195085771D01*
X186720057Y-195085771D01*
X187362914Y-196442914D02*
X187434342Y-196514342D01*
X187362914Y-196585771D01*
X187291485Y-196514342D01*
X187362914Y-196442914D01*
X187362914Y-196585771D01*
X188077200Y-196585771D02*
X188077200Y-195085771D01*
X188434342Y-195085771D01*
X188648628Y-195157200D01*
X188791485Y-195300057D01*
X188862914Y-195442914D01*
X188934342Y-195728628D01*
X188934342Y-195942914D01*
X188862914Y-196228628D01*
X188791485Y-196371485D01*
X188648628Y-196514342D01*
X188434342Y-196585771D01*
X188077200Y-196585771D01*
X189577200Y-196442914D02*
X189648628Y-196514342D01*
X189577200Y-196585771D01*
X189505771Y-196514342D01*
X189577200Y-196442914D01*
X189577200Y-196585771D01*
X190220057Y-196157200D02*
X190934342Y-196157200D01*
X190077200Y-196585771D02*
X190577200Y-195085771D01*
X191077200Y-196585771D01*
X191577200Y-196442914D02*
X191648628Y-196514342D01*
X191577200Y-196585771D01*
X191505771Y-196514342D01*
X191577200Y-196442914D01*
X191577200Y-196585771D01*
X194577200Y-196585771D02*
X194577200Y-195085771D01*
X194720057Y-196014342D02*
X195148628Y-196585771D01*
X195148628Y-195585771D02*
X194577200Y-196157200D01*
X195791485Y-196585771D02*
X195791485Y-195585771D01*
X195791485Y-195085771D02*
X195720057Y-195157200D01*
X195791485Y-195228628D01*
X195862914Y-195157200D01*
X195791485Y-195085771D01*
X195791485Y-195228628D01*
X197148628Y-196514342D02*
X197005771Y-196585771D01*
X196720057Y-196585771D01*
X196577200Y-196514342D01*
X196505771Y-196442914D01*
X196434342Y-196300057D01*
X196434342Y-195871485D01*
X196505771Y-195728628D01*
X196577200Y-195657200D01*
X196720057Y-195585771D01*
X197005771Y-195585771D01*
X197148628Y-195657200D01*
X198434342Y-196585771D02*
X198434342Y-195800057D01*
X198362914Y-195657200D01*
X198220057Y-195585771D01*
X197934342Y-195585771D01*
X197791485Y-195657200D01*
X198434342Y-196514342D02*
X198291485Y-196585771D01*
X197934342Y-196585771D01*
X197791485Y-196514342D01*
X197720057Y-196371485D01*
X197720057Y-196228628D01*
X197791485Y-196085771D01*
X197934342Y-196014342D01*
X198291485Y-196014342D01*
X198434342Y-195942914D01*
X199791485Y-196585771D02*
X199791485Y-195085771D01*
X199791485Y-196514342D02*
X199648628Y-196585771D01*
X199362914Y-196585771D01*
X199220057Y-196514342D01*
X199148628Y-196442914D01*
X199077200Y-196300057D01*
X199077200Y-195871485D01*
X199148628Y-195728628D01*
X199220057Y-195657200D01*
X199362914Y-195585771D01*
X199648628Y-195585771D01*
X199791485Y-195657200D01*
X202077200Y-197157200D02*
X202005771Y-197085771D01*
X201862914Y-196871485D01*
X201791485Y-196728628D01*
X201720057Y-196514342D01*
X201648628Y-196157200D01*
X201648628Y-195871485D01*
X201720057Y-195514342D01*
X201791485Y-195300057D01*
X201862914Y-195157200D01*
X202005771Y-194942914D01*
X202077200Y-194871485D01*
X203291485Y-195085771D02*
X203005771Y-195085771D01*
X202862914Y-195157200D01*
X202791485Y-195228628D01*
X202648628Y-195442914D01*
X202577200Y-195728628D01*
X202577200Y-196300057D01*
X202648628Y-196442914D01*
X202720057Y-196514342D01*
X202862914Y-196585771D01*
X203148628Y-196585771D01*
X203291485Y-196514342D01*
X203362914Y-196442914D01*
X203434342Y-196300057D01*
X203434342Y-195942914D01*
X203362914Y-195800057D01*
X203291485Y-195728628D01*
X203148628Y-195657200D01*
X202862914Y-195657200D01*
X202720057Y-195728628D01*
X202648628Y-195800057D01*
X202577200Y-195942914D01*
X204077200Y-196442914D02*
X204148628Y-196514342D01*
X204077200Y-196585771D01*
X204005771Y-196514342D01*
X204077200Y-196442914D01*
X204077200Y-196585771D01*
X205077200Y-195085771D02*
X205220057Y-195085771D01*
X205362914Y-195157200D01*
X205434342Y-195228628D01*
X205505771Y-195371485D01*
X205577200Y-195657200D01*
X205577200Y-196014342D01*
X205505771Y-196300057D01*
X205434342Y-196442914D01*
X205362914Y-196514342D01*
X205220057Y-196585771D01*
X205077200Y-196585771D01*
X204934342Y-196514342D01*
X204862914Y-196442914D01*
X204791485Y-196300057D01*
X204720057Y-196014342D01*
X204720057Y-195657200D01*
X204791485Y-195371485D01*
X204862914Y-195228628D01*
X204934342Y-195157200D01*
X205077200Y-195085771D01*
X206220057Y-196442914D02*
X206291485Y-196514342D01*
X206220057Y-196585771D01*
X206148628Y-196514342D01*
X206220057Y-196442914D01*
X206220057Y-196585771D01*
X207720057Y-196585771D02*
X206862914Y-196585771D01*
X207291485Y-196585771D02*
X207291485Y-195085771D01*
X207148628Y-195300057D01*
X207005771Y-195442914D01*
X206862914Y-195514342D01*
X208220057Y-197157200D02*
X208291485Y-197085771D01*
X208434342Y-196871485D01*
X208505771Y-196728628D01*
X208577200Y-196514342D01*
X208648628Y-196157200D01*
X208648628Y-195871485D01*
X208577200Y-195514342D01*
X208505771Y-195300057D01*
X208434342Y-195157200D01*
X208291485Y-194942914D01*
X208220057Y-194871485D01*
D10*
D11*
X177002200Y-191507200D02*
X285002200Y-191507200D01*
D10*
D12*
X264411485Y-193785771D02*
X263911485Y-193071485D01*
X263554342Y-193785771D02*
X263554342Y-192285771D01*
X264125771Y-192285771D01*
X264268628Y-192357200D01*
X264340057Y-192428628D01*
X264411485Y-192571485D01*
X264411485Y-192785771D01*
X264340057Y-192928628D01*
X264268628Y-193000057D01*
X264125771Y-193071485D01*
X263554342Y-193071485D01*
X265625771Y-193714342D02*
X265482914Y-193785771D01*
X265197200Y-193785771D01*
X265054342Y-193714342D01*
X264982914Y-193571485D01*
X264982914Y-193000057D01*
X265054342Y-192857200D01*
X265197200Y-192785771D01*
X265482914Y-192785771D01*
X265625771Y-192857200D01*
X265697200Y-193000057D01*
X265697200Y-193142914D01*
X264982914Y-193285771D01*
X266197200Y-192785771D02*
X266554342Y-193785771D01*
X266911485Y-192785771D01*
X267482914Y-193642914D02*
X267554342Y-193714342D01*
X267482914Y-193785771D01*
X267411485Y-193714342D01*
X267482914Y-193642914D01*
X267482914Y-193785771D01*
X267482914Y-192857200D02*
X267554342Y-192928628D01*
X267482914Y-193000057D01*
X267411485Y-192928628D01*
X267482914Y-192857200D01*
X267482914Y-193000057D01*
D10*
D11*
X178362914Y-193714342D02*
X178577200Y-193785771D01*
X178934342Y-193785771D01*
X179077200Y-193714342D01*
X179148628Y-193642914D01*
X179220057Y-193500057D01*
X179220057Y-193357200D01*
X179148628Y-193214342D01*
X179077200Y-193142914D01*
X178934342Y-193071485D01*
X178648628Y-193000057D01*
X178505771Y-192928628D01*
X178434342Y-192857200D01*
X178362914Y-192714342D01*
X178362914Y-192571485D01*
X178434342Y-192428628D01*
X178505771Y-192357200D01*
X178648628Y-192285771D01*
X179005771Y-192285771D01*
X179220057Y-192357200D01*
X179862914Y-193785771D02*
X179862914Y-192785771D01*
X179862914Y-192285771D02*
X179791485Y-192357200D01*
X179862914Y-192428628D01*
X179934342Y-192357200D01*
X179862914Y-192285771D01*
X179862914Y-192428628D01*
X180434342Y-192785771D02*
X181220057Y-192785771D01*
X180434342Y-193785771D01*
X181220057Y-193785771D01*
X182362914Y-193714342D02*
X182220057Y-193785771D01*
X181934342Y-193785771D01*
X181791485Y-193714342D01*
X181720057Y-193571485D01*
X181720057Y-193000057D01*
X181791485Y-192857200D01*
X181934342Y-192785771D01*
X182220057Y-192785771D01*
X182362914Y-192857200D01*
X182434342Y-193000057D01*
X182434342Y-193142914D01*
X181720057Y-193285771D01*
X183077200Y-193642914D02*
X183148628Y-193714342D01*
X183077200Y-193785771D01*
X183005771Y-193714342D01*
X183077200Y-193642914D01*
X183077200Y-193785771D01*
X183077200Y-192857200D02*
X183148628Y-192928628D01*
X183077200Y-193000057D01*
X183005771Y-192928628D01*
X183077200Y-192857200D01*
X183077200Y-193000057D01*
X184862914Y-193357200D02*
X185577200Y-193357200D01*
X184720057Y-193785771D02*
X185220057Y-192285771D01*
X185720057Y-193785771D01*
X186862914Y-192785771D02*
X186862914Y-193785771D01*
X186505771Y-192214342D02*
X186148628Y-193285771D01*
X187077200Y-193285771D01*
D10*
D11*
X263434342Y-196585771D02*
X263434342Y-195085771D01*
X264791485Y-196585771D02*
X264791485Y-195085771D01*
X264791485Y-196514342D02*
X264648628Y-196585771D01*
X264362914Y-196585771D01*
X264220057Y-196514342D01*
X264148628Y-196442914D01*
X264077200Y-196300057D01*
X264077200Y-195871485D01*
X264148628Y-195728628D01*
X264220057Y-195657200D01*
X264362914Y-195585771D01*
X264648628Y-195585771D01*
X264791485Y-195657200D01*
X265505771Y-196442914D02*
X265577200Y-196514342D01*
X265505771Y-196585771D01*
X265434342Y-196514342D01*
X265505771Y-196442914D01*
X265505771Y-196585771D01*
X265505771Y-195657200D02*
X265577200Y-195728628D01*
X265505771Y-195800057D01*
X265434342Y-195728628D01*
X265505771Y-195657200D01*
X265505771Y-195800057D01*
X268148628Y-196585771D02*
X267291485Y-196585771D01*
X267720057Y-196585771D02*
X267720057Y-195085771D01*
X267577200Y-195300057D01*
X267434342Y-195442914D01*
X267291485Y-195514342D01*
X269862914Y-195014342D02*
X268577200Y-196942914D01*
X271148628Y-196585771D02*
X270291485Y-196585771D01*
X270720057Y-196585771D02*
X270720057Y-195085771D01*
X270577200Y-195300057D01*
X270434342Y-195442914D01*
X270291485Y-195514342D01*
D10*
D11*
X177002200Y-187507200D02*
X285002200Y-187507200D01*
D10*
D13*
X178714580Y-188211961D02*
X179857438Y-188211961D01*
X179036009Y-190211961D02*
X179286009Y-188211961D01*
X180274104Y-190211961D02*
X180440771Y-188878628D01*
X180524104Y-188211961D02*
X180416961Y-188307200D01*
X180500295Y-188402438D01*
X180607438Y-188307200D01*
X180524104Y-188211961D01*
X180500295Y-188402438D01*
X181107438Y-188878628D02*
X181869342Y-188878628D01*
X181476485Y-188211961D02*
X181262200Y-189926247D01*
X181333628Y-190116723D01*
X181512200Y-190211961D01*
X181702676Y-190211961D01*
X182655057Y-190211961D02*
X182476485Y-190116723D01*
X182405057Y-189926247D01*
X182619342Y-188211961D01*
X184190771Y-190116723D02*
X183988390Y-190211961D01*
X183607438Y-190211961D01*
X183428866Y-190116723D01*
X183357438Y-189926247D01*
X183452676Y-189164342D01*
X183571723Y-188973866D01*
X183774104Y-188878628D01*
X184155057Y-188878628D01*
X184333628Y-188973866D01*
X184405057Y-189164342D01*
X184381247Y-189354819D01*
X183405057Y-189545295D01*
X185155057Y-190021485D02*
X185238390Y-190116723D01*
X185131247Y-190211961D01*
X185047914Y-190116723D01*
X185155057Y-190021485D01*
X185131247Y-190211961D01*
X185286009Y-188973866D02*
X185369342Y-189069104D01*
X185262200Y-189164342D01*
X185178866Y-189069104D01*
X185286009Y-188973866D01*
X185262200Y-189164342D01*
D10*
D11*
X178934342Y-185600057D02*
X178434342Y-185600057D01*
X178434342Y-186385771D02*
X178434342Y-184885771D01*
X179148628Y-184885771D01*
X179720057Y-186385771D02*
X179720057Y-185385771D01*
X179720057Y-184885771D02*
X179648628Y-184957200D01*
X179720057Y-185028628D01*
X179791485Y-184957200D01*
X179720057Y-184885771D01*
X179720057Y-185028628D01*
X180648628Y-186385771D02*
X180505771Y-186314342D01*
X180434342Y-186171485D01*
X180434342Y-184885771D01*
X181791485Y-186314342D02*
X181648628Y-186385771D01*
X181362914Y-186385771D01*
X181220057Y-186314342D01*
X181148628Y-186171485D01*
X181148628Y-185600057D01*
X181220057Y-185457200D01*
X181362914Y-185385771D01*
X181648628Y-185385771D01*
X181791485Y-185457200D01*
X181862914Y-185600057D01*
X181862914Y-185742914D01*
X181148628Y-185885771D01*
X182505771Y-186242914D02*
X182577200Y-186314342D01*
X182505771Y-186385771D01*
X182434342Y-186314342D01*
X182505771Y-186242914D01*
X182505771Y-186385771D01*
X182505771Y-185457200D02*
X182577200Y-185528628D01*
X182505771Y-185600057D01*
X182434342Y-185528628D01*
X182505771Y-185457200D01*
X182505771Y-185600057D01*
X184362914Y-186385771D02*
X184362914Y-184885771D01*
X184934342Y-184885771D01*
X185077200Y-184957200D01*
X185148628Y-185028628D01*
X185220057Y-185171485D01*
X185220057Y-185385771D01*
X185148628Y-185528628D01*
X185077200Y-185600057D01*
X184934342Y-185671485D01*
X184362914Y-185671485D01*
X186720057Y-186242914D02*
X186648628Y-186314342D01*
X186434342Y-186385771D01*
X186291485Y-186385771D01*
X186077200Y-186314342D01*
X185934342Y-186171485D01*
X185862914Y-186028628D01*
X185791485Y-185742914D01*
X185791485Y-185528628D01*
X185862914Y-185242914D01*
X185934342Y-185100057D01*
X186077200Y-184957200D01*
X186291485Y-184885771D01*
X186434342Y-184885771D01*
X186648628Y-184957200D01*
X186720057Y-185028628D01*
X187862914Y-185600057D02*
X188077200Y-185671485D01*
X188148628Y-185742914D01*
X188220057Y-185885771D01*
X188220057Y-186100057D01*
X188148628Y-186242914D01*
X188077200Y-186314342D01*
X187934342Y-186385771D01*
X187362914Y-186385771D01*
X187362914Y-184885771D01*
X187862914Y-184885771D01*
X188005771Y-184957200D01*
X188077200Y-185028628D01*
X188148628Y-185171485D01*
X188148628Y-185314342D01*
X188077200Y-185457200D01*
X188005771Y-185528628D01*
X187862914Y-185600057D01*
X187362914Y-185600057D01*
X188862914Y-186242914D02*
X188934342Y-186314342D01*
X188862914Y-186385771D01*
X188791485Y-186314342D01*
X188862914Y-186242914D01*
X188862914Y-186385771D01*
X189577200Y-186385771D02*
X189577200Y-184885771D01*
X189720057Y-185814342D02*
X190148628Y-186385771D01*
X190148628Y-185385771D02*
X189577200Y-185957200D01*
X190791485Y-186385771D02*
X190791485Y-185385771D01*
X190791485Y-184885771D02*
X190720057Y-184957200D01*
X190791485Y-185028628D01*
X190862914Y-184957200D01*
X190791485Y-184885771D01*
X190791485Y-185028628D01*
X192148628Y-186314342D02*
X192005771Y-186385771D01*
X191720057Y-186385771D01*
X191577200Y-186314342D01*
X191505771Y-186242914D01*
X191434342Y-186100057D01*
X191434342Y-185671485D01*
X191505771Y-185528628D01*
X191577200Y-185457200D01*
X191720057Y-185385771D01*
X192005771Y-185385771D01*
X192148628Y-185457200D01*
X193434342Y-186385771D02*
X193434342Y-185600057D01*
X193362914Y-185457200D01*
X193220057Y-185385771D01*
X192934342Y-185385771D01*
X192791485Y-185457200D01*
X193434342Y-186314342D02*
X193291485Y-186385771D01*
X192934342Y-186385771D01*
X192791485Y-186314342D01*
X192720057Y-186171485D01*
X192720057Y-186028628D01*
X192791485Y-185885771D01*
X192934342Y-185814342D01*
X193291485Y-185814342D01*
X193434342Y-185742914D01*
X194791485Y-186385771D02*
X194791485Y-184885771D01*
X194791485Y-186314342D02*
X194648628Y-186385771D01*
X194362914Y-186385771D01*
X194220057Y-186314342D01*
X194148628Y-186242914D01*
X194077200Y-186100057D01*
X194077200Y-185671485D01*
X194148628Y-185528628D01*
X194220057Y-185457200D01*
X194362914Y-185385771D01*
X194648628Y-185385771D01*
X194791485Y-185457200D01*
X195148628Y-186528628D02*
X196291485Y-186528628D01*
X196648628Y-185385771D02*
X196648628Y-186885771D01*
X196648628Y-185457200D02*
X196791485Y-185385771D01*
X197077200Y-185385771D01*
X197220057Y-185457200D01*
X197291485Y-185528628D01*
X197362914Y-185671485D01*
X197362914Y-186100057D01*
X197291485Y-186242914D01*
X197220057Y-186314342D01*
X197077200Y-186385771D01*
X196791485Y-186385771D01*
X196648628Y-186314342D01*
X198648628Y-186314342D02*
X198505771Y-186385771D01*
X198220057Y-186385771D01*
X198077200Y-186314342D01*
X198005771Y-186242914D01*
X197934342Y-186100057D01*
X197934342Y-185671485D01*
X198005771Y-185528628D01*
X198077200Y-185457200D01*
X198220057Y-185385771D01*
X198505771Y-185385771D01*
X198648628Y-185457200D01*
X199291485Y-186385771D02*
X199291485Y-184885771D01*
X199291485Y-185457200D02*
X199434342Y-185385771D01*
X199720057Y-185385771D01*
X199862914Y-185457200D01*
X199934342Y-185528628D01*
X200005771Y-185671485D01*
X200005771Y-186100057D01*
X199934342Y-186242914D01*
X199862914Y-186314342D01*
X199720057Y-186385771D01*
X199434342Y-186385771D01*
X199291485Y-186314342D01*
D10*
D11*
X177002200Y-181507200D02*
X285002200Y-181507200D01*
D10*
D11*
X178362914Y-183614342D02*
X178577200Y-183685771D01*
X178934342Y-183685771D01*
X179077200Y-183614342D01*
X179148628Y-183542914D01*
X179220057Y-183400057D01*
X179220057Y-183257200D01*
X179148628Y-183114342D01*
X179077200Y-183042914D01*
X178934342Y-182971485D01*
X178648628Y-182900057D01*
X178505771Y-182828628D01*
X178434342Y-182757200D01*
X178362914Y-182614342D01*
X178362914Y-182471485D01*
X178434342Y-182328628D01*
X178505771Y-182257200D01*
X178648628Y-182185771D01*
X179005771Y-182185771D01*
X179220057Y-182257200D01*
X179862914Y-183685771D02*
X179862914Y-182185771D01*
X180505771Y-183685771D02*
X180505771Y-182900057D01*
X180434342Y-182757200D01*
X180291485Y-182685771D01*
X180077200Y-182685771D01*
X179934342Y-182757200D01*
X179862914Y-182828628D01*
X181791485Y-183614342D02*
X181648628Y-183685771D01*
X181362914Y-183685771D01*
X181220057Y-183614342D01*
X181148628Y-183471485D01*
X181148628Y-182900057D01*
X181220057Y-182757200D01*
X181362914Y-182685771D01*
X181648628Y-182685771D01*
X181791485Y-182757200D01*
X181862914Y-182900057D01*
X181862914Y-183042914D01*
X181148628Y-183185771D01*
X183077200Y-183614342D02*
X182934342Y-183685771D01*
X182648628Y-183685771D01*
X182505771Y-183614342D01*
X182434342Y-183471485D01*
X182434342Y-182900057D01*
X182505771Y-182757200D01*
X182648628Y-182685771D01*
X182934342Y-182685771D01*
X183077200Y-182757200D01*
X183148628Y-182900057D01*
X183148628Y-183042914D01*
X182434342Y-183185771D01*
X183577200Y-182685771D02*
X184148628Y-182685771D01*
X183791485Y-182185771D02*
X183791485Y-183471485D01*
X183862914Y-183614342D01*
X184005771Y-183685771D01*
X184148628Y-183685771D01*
X184648628Y-183542914D02*
X184720057Y-183614342D01*
X184648628Y-183685771D01*
X184577200Y-183614342D01*
X184648628Y-183542914D01*
X184648628Y-183685771D01*
X184648628Y-182757200D02*
X184720057Y-182828628D01*
X184648628Y-182900057D01*
X184577200Y-182828628D01*
X184648628Y-182757200D01*
X184648628Y-182900057D01*
D10*
D12*
D10*
D11*
D10*
D11*
D10*
D11*
D10*
D11*
D10*
D11*
X197002200Y-191507200D02*
X197002200Y-194507200D01*
D10*
D11*
X261002200Y-191507200D02*
X261002200Y-198007200D01*
G04 #@! TO.C,D3*
X143261904Y-152022380D02*
X143261904Y-151022380D01*
X143500000Y-151022380D01*
X143642857Y-151070000D01*
X143738095Y-151165238D01*
X143785714Y-151260476D01*
X143833333Y-151450952D01*
X143833333Y-151593809D01*
X143785714Y-151784285D01*
X143738095Y-151879523D01*
X143642857Y-151974761D01*
X143500000Y-152022380D01*
X143261904Y-152022380D01*
X144166666Y-151022380D02*
X144785714Y-151022380D01*
X144452380Y-151403333D01*
X144595238Y-151403333D01*
X144690476Y-151450952D01*
X144738095Y-151498571D01*
X144785714Y-151593809D01*
X144785714Y-151831904D01*
X144738095Y-151927142D01*
X144690476Y-151974761D01*
X144595238Y-152022380D01*
X144309523Y-152022380D01*
X144214285Y-151974761D01*
X144166666Y-151927142D01*
G04 #@! TO.C,C5*
X103470833Y-142427142D02*
X103423214Y-142474761D01*
X103280357Y-142522380D01*
X103185119Y-142522380D01*
X103042261Y-142474761D01*
X102947023Y-142379523D01*
X102899404Y-142284285D01*
X102851785Y-142093809D01*
X102851785Y-141950952D01*
X102899404Y-141760476D01*
X102947023Y-141665238D01*
X103042261Y-141570000D01*
X103185119Y-141522380D01*
X103280357Y-141522380D01*
X103423214Y-141570000D01*
X103470833Y-141617619D01*
X104375595Y-141522380D02*
X103899404Y-141522380D01*
X103851785Y-141998571D01*
X103899404Y-141950952D01*
X103994642Y-141903333D01*
X104232738Y-141903333D01*
X104327976Y-141950952D01*
X104375595Y-141998571D01*
X104423214Y-142093809D01*
X104423214Y-142331904D01*
X104375595Y-142427142D01*
X104327976Y-142474761D01*
X104232738Y-142522380D01*
X103994642Y-142522380D01*
X103899404Y-142474761D01*
X103851785Y-142427142D01*
G04 #@! TO.C,C2*
X146833333Y-104427142D02*
X146785714Y-104474761D01*
X146642857Y-104522380D01*
X146547619Y-104522380D01*
X146404761Y-104474761D01*
X146309523Y-104379523D01*
X146261904Y-104284285D01*
X146214285Y-104093809D01*
X146214285Y-103950952D01*
X146261904Y-103760476D01*
X146309523Y-103665238D01*
X146404761Y-103570000D01*
X146547619Y-103522380D01*
X146642857Y-103522380D01*
X146785714Y-103570000D01*
X146833333Y-103617619D01*
X147214285Y-103617619D02*
X147261904Y-103570000D01*
X147357142Y-103522380D01*
X147595238Y-103522380D01*
X147690476Y-103570000D01*
X147738095Y-103617619D01*
X147785714Y-103712857D01*
X147785714Y-103808095D01*
X147738095Y-103950952D01*
X147166666Y-104522380D01*
X147785714Y-104522380D01*
G04 #@! TO.C,Q2*
X115904761Y-97547619D02*
X115809523Y-97500000D01*
X115714285Y-97404761D01*
X115571428Y-97261904D01*
X115476190Y-97214285D01*
X115380952Y-97214285D01*
X115428571Y-97452380D02*
X115333333Y-97404761D01*
X115238095Y-97309523D01*
X115190476Y-97119047D01*
X115190476Y-96785714D01*
X115238095Y-96595238D01*
X115333333Y-96500000D01*
X115428571Y-96452380D01*
X115619047Y-96452380D01*
X115714285Y-96500000D01*
X115809523Y-96595238D01*
X115857142Y-96785714D01*
X115857142Y-97119047D01*
X115809523Y-97309523D01*
X115714285Y-97404761D01*
X115619047Y-97452380D01*
X115428571Y-97452380D01*
X116238095Y-96547619D02*
X116285714Y-96500000D01*
X116380952Y-96452380D01*
X116619047Y-96452380D01*
X116714285Y-96500000D01*
X116761904Y-96547619D01*
X116809523Y-96642857D01*
X116809523Y-96738095D01*
X116761904Y-96880952D01*
X116190476Y-97452380D01*
X116809523Y-97452380D01*
G04 #@! TO.C,C14*
X124357142Y-138037142D02*
X124309523Y-138084761D01*
X124166666Y-138132380D01*
X124071428Y-138132380D01*
X123928571Y-138084761D01*
X123833333Y-137989523D01*
X123785714Y-137894285D01*
X123738095Y-137703809D01*
X123738095Y-137560952D01*
X123785714Y-137370476D01*
X123833333Y-137275238D01*
X123928571Y-137180000D01*
X124071428Y-137132380D01*
X124166666Y-137132380D01*
X124309523Y-137180000D01*
X124357142Y-137227619D01*
X125309523Y-138132380D02*
X124738095Y-138132380D01*
X125023809Y-138132380D02*
X125023809Y-137132380D01*
X124928571Y-137275238D01*
X124833333Y-137370476D01*
X124738095Y-137418095D01*
X126166666Y-137465714D02*
X126166666Y-138132380D01*
X125928571Y-137084761D02*
X125690476Y-137799047D01*
X126309523Y-137799047D01*
G04 #@! TO.C,R10*
X124857142Y-146952380D02*
X124523809Y-146476190D01*
X124285714Y-146952380D02*
X124285714Y-145952380D01*
X124666666Y-145952380D01*
X124761904Y-146000000D01*
X124809523Y-146047619D01*
X124857142Y-146142857D01*
X124857142Y-146285714D01*
X124809523Y-146380952D01*
X124761904Y-146428571D01*
X124666666Y-146476190D01*
X124285714Y-146476190D01*
X125809523Y-146952380D02*
X125238095Y-146952380D01*
X125523809Y-146952380D02*
X125523809Y-145952380D01*
X125428571Y-146095238D01*
X125333333Y-146190476D01*
X125238095Y-146238095D01*
X126428571Y-145952380D02*
X126523809Y-145952380D01*
X126619047Y-146000000D01*
X126666666Y-146047619D01*
X126714285Y-146142857D01*
X126761904Y-146333333D01*
X126761904Y-146571428D01*
X126714285Y-146761904D01*
X126666666Y-146857142D01*
X126619047Y-146904761D01*
X126523809Y-146952380D01*
X126428571Y-146952380D01*
X126333333Y-146904761D01*
X126285714Y-146857142D01*
X126238095Y-146761904D01*
X126190476Y-146571428D01*
X126190476Y-146333333D01*
X126238095Y-146142857D01*
X126285714Y-146047619D01*
X126333333Y-146000000D01*
X126428571Y-145952380D01*
G04 #@! TO.C,C10*
X132357142Y-117287142D02*
X132309523Y-117334761D01*
X132166666Y-117382380D01*
X132071428Y-117382380D01*
X131928571Y-117334761D01*
X131833333Y-117239523D01*
X131785714Y-117144285D01*
X131738095Y-116953809D01*
X131738095Y-116810952D01*
X131785714Y-116620476D01*
X131833333Y-116525238D01*
X131928571Y-116430000D01*
X132071428Y-116382380D01*
X132166666Y-116382380D01*
X132309523Y-116430000D01*
X132357142Y-116477619D01*
X133309523Y-117382380D02*
X132738095Y-117382380D01*
X133023809Y-117382380D02*
X133023809Y-116382380D01*
X132928571Y-116525238D01*
X132833333Y-116620476D01*
X132738095Y-116668095D01*
X133928571Y-116382380D02*
X134023809Y-116382380D01*
X134119047Y-116430000D01*
X134166666Y-116477619D01*
X134214285Y-116572857D01*
X134261904Y-116763333D01*
X134261904Y-117001428D01*
X134214285Y-117191904D01*
X134166666Y-117287142D01*
X134119047Y-117334761D01*
X134023809Y-117382380D01*
X133928571Y-117382380D01*
X133833333Y-117334761D01*
X133785714Y-117287142D01*
X133738095Y-117191904D01*
X133690476Y-117001428D01*
X133690476Y-116763333D01*
X133738095Y-116572857D01*
X133785714Y-116477619D01*
X133833333Y-116430000D01*
X133928571Y-116382380D01*
G04 #@! TO.C,J1*
X113666666Y-162902380D02*
X113666666Y-163616666D01*
X113619047Y-163759523D01*
X113523809Y-163854761D01*
X113380952Y-163902380D01*
X113285714Y-163902380D01*
X114666666Y-163902380D02*
X114095238Y-163902380D01*
X114380952Y-163902380D02*
X114380952Y-162902380D01*
X114285714Y-163045238D01*
X114190476Y-163140476D01*
X114095238Y-163188095D01*
G04 #@! TO.C,R2*
X102833333Y-99882380D02*
X102500000Y-99406190D01*
X102261904Y-99882380D02*
X102261904Y-98882380D01*
X102642857Y-98882380D01*
X102738095Y-98930000D01*
X102785714Y-98977619D01*
X102833333Y-99072857D01*
X102833333Y-99215714D01*
X102785714Y-99310952D01*
X102738095Y-99358571D01*
X102642857Y-99406190D01*
X102261904Y-99406190D01*
X103214285Y-98977619D02*
X103261904Y-98930000D01*
X103357142Y-98882380D01*
X103595238Y-98882380D01*
X103690476Y-98930000D01*
X103738095Y-98977619D01*
X103785714Y-99072857D01*
X103785714Y-99168095D01*
X103738095Y-99310952D01*
X103166666Y-99882380D01*
X103785714Y-99882380D01*
G04 #@! TO.C,R5*
X102833333Y-91934880D02*
X102500000Y-91458690D01*
X102261904Y-91934880D02*
X102261904Y-90934880D01*
X102642857Y-90934880D01*
X102738095Y-90982500D01*
X102785714Y-91030119D01*
X102833333Y-91125357D01*
X102833333Y-91268214D01*
X102785714Y-91363452D01*
X102738095Y-91411071D01*
X102642857Y-91458690D01*
X102261904Y-91458690D01*
X103738095Y-90934880D02*
X103261904Y-90934880D01*
X103214285Y-91411071D01*
X103261904Y-91363452D01*
X103357142Y-91315833D01*
X103595238Y-91315833D01*
X103690476Y-91363452D01*
X103738095Y-91411071D01*
X103785714Y-91506309D01*
X103785714Y-91744404D01*
X103738095Y-91839642D01*
X103690476Y-91887261D01*
X103595238Y-91934880D01*
X103357142Y-91934880D01*
X103261904Y-91887261D01*
X103214285Y-91839642D01*
G04 #@! TO.C,SW1*
X142354761Y-97833333D02*
X142402380Y-97690476D01*
X142402380Y-97452380D01*
X142354761Y-97357142D01*
X142307142Y-97309523D01*
X142211904Y-97261904D01*
X142116666Y-97261904D01*
X142021428Y-97309523D01*
X141973809Y-97357142D01*
X141926190Y-97452380D01*
X141878571Y-97642857D01*
X141830952Y-97738095D01*
X141783333Y-97785714D01*
X141688095Y-97833333D01*
X141592857Y-97833333D01*
X141497619Y-97785714D01*
X141450000Y-97738095D01*
X141402380Y-97642857D01*
X141402380Y-97404761D01*
X141450000Y-97261904D01*
X141402380Y-96928571D02*
X142402380Y-96690476D01*
X141688095Y-96500000D01*
X142402380Y-96309523D01*
X141402380Y-96071428D01*
X142402380Y-95166666D02*
X142402380Y-95738095D01*
X142402380Y-95452380D02*
X141402380Y-95452380D01*
X141545238Y-95547619D01*
X141640476Y-95642857D01*
X141688095Y-95738095D01*
G04 #@! TO.C,C15*
X124357142Y-135287142D02*
X124309523Y-135334761D01*
X124166666Y-135382380D01*
X124071428Y-135382380D01*
X123928571Y-135334761D01*
X123833333Y-135239523D01*
X123785714Y-135144285D01*
X123738095Y-134953809D01*
X123738095Y-134810952D01*
X123785714Y-134620476D01*
X123833333Y-134525238D01*
X123928571Y-134430000D01*
X124071428Y-134382380D01*
X124166666Y-134382380D01*
X124309523Y-134430000D01*
X124357142Y-134477619D01*
X125309523Y-135382380D02*
X124738095Y-135382380D01*
X125023809Y-135382380D02*
X125023809Y-134382380D01*
X124928571Y-134525238D01*
X124833333Y-134620476D01*
X124738095Y-134668095D01*
X126214285Y-134382380D02*
X125738095Y-134382380D01*
X125690476Y-134858571D01*
X125738095Y-134810952D01*
X125833333Y-134763333D01*
X126071428Y-134763333D01*
X126166666Y-134810952D01*
X126214285Y-134858571D01*
X126261904Y-134953809D01*
X126261904Y-135191904D01*
X126214285Y-135287142D01*
X126166666Y-135334761D01*
X126071428Y-135382380D01*
X125833333Y-135382380D01*
X125738095Y-135334761D01*
X125690476Y-135287142D01*
G04 #@! TO.C,C1*
X110833333Y-162787142D02*
X110785714Y-162834761D01*
X110642857Y-162882380D01*
X110547619Y-162882380D01*
X110404761Y-162834761D01*
X110309523Y-162739523D01*
X110261904Y-162644285D01*
X110214285Y-162453809D01*
X110214285Y-162310952D01*
X110261904Y-162120476D01*
X110309523Y-162025238D01*
X110404761Y-161930000D01*
X110547619Y-161882380D01*
X110642857Y-161882380D01*
X110785714Y-161930000D01*
X110833333Y-161977619D01*
X111785714Y-162882380D02*
X111214285Y-162882380D01*
X111500000Y-162882380D02*
X111500000Y-161882380D01*
X111404761Y-162025238D01*
X111309523Y-162120476D01*
X111214285Y-162168095D01*
G04 #@! TO.C,U6*
X130238095Y-163902380D02*
X130238095Y-164711904D01*
X130285714Y-164807142D01*
X130333333Y-164854761D01*
X130428571Y-164902380D01*
X130619047Y-164902380D01*
X130714285Y-164854761D01*
X130761904Y-164807142D01*
X130809523Y-164711904D01*
X130809523Y-163902380D01*
X131714285Y-163902380D02*
X131523809Y-163902380D01*
X131428571Y-163950000D01*
X131380952Y-163997619D01*
X131285714Y-164140476D01*
X131238095Y-164330952D01*
X131238095Y-164711904D01*
X131285714Y-164807142D01*
X131333333Y-164854761D01*
X131428571Y-164902380D01*
X131619047Y-164902380D01*
X131714285Y-164854761D01*
X131761904Y-164807142D01*
X131809523Y-164711904D01*
X131809523Y-164473809D01*
X131761904Y-164378571D01*
X131714285Y-164330952D01*
X131619047Y-164283333D01*
X131428571Y-164283333D01*
X131333333Y-164330952D01*
X131285714Y-164378571D01*
X131238095Y-164473809D01*
G04 #@! TO.C,R6*
X140833333Y-159022380D02*
X140500000Y-158546190D01*
X140261904Y-159022380D02*
X140261904Y-158022380D01*
X140642857Y-158022380D01*
X140738095Y-158070000D01*
X140785714Y-158117619D01*
X140833333Y-158212857D01*
X140833333Y-158355714D01*
X140785714Y-158450952D01*
X140738095Y-158498571D01*
X140642857Y-158546190D01*
X140261904Y-158546190D01*
X141690476Y-158022380D02*
X141500000Y-158022380D01*
X141404761Y-158070000D01*
X141357142Y-158117619D01*
X141261904Y-158260476D01*
X141214285Y-158450952D01*
X141214285Y-158831904D01*
X141261904Y-158927142D01*
X141309523Y-158974761D01*
X141404761Y-159022380D01*
X141595238Y-159022380D01*
X141690476Y-158974761D01*
X141738095Y-158927142D01*
X141785714Y-158831904D01*
X141785714Y-158593809D01*
X141738095Y-158498571D01*
X141690476Y-158450952D01*
X141595238Y-158403333D01*
X141404761Y-158403333D01*
X141309523Y-158450952D01*
X141261904Y-158498571D01*
X141214285Y-158593809D01*
G04 #@! TO.C,D2*
X121261904Y-160802380D02*
X121261904Y-159802380D01*
X121500000Y-159802380D01*
X121642857Y-159850000D01*
X121738095Y-159945238D01*
X121785714Y-160040476D01*
X121833333Y-160230952D01*
X121833333Y-160373809D01*
X121785714Y-160564285D01*
X121738095Y-160659523D01*
X121642857Y-160754761D01*
X121500000Y-160802380D01*
X121261904Y-160802380D01*
X122214285Y-159897619D02*
X122261904Y-159850000D01*
X122357142Y-159802380D01*
X122595238Y-159802380D01*
X122690476Y-159850000D01*
X122738095Y-159897619D01*
X122785714Y-159992857D01*
X122785714Y-160088095D01*
X122738095Y-160230952D01*
X122166666Y-160802380D01*
X122785714Y-160802380D01*
G04 #@! TO.C,U5*
X118238095Y-135952380D02*
X118238095Y-136761904D01*
X118285714Y-136857142D01*
X118333333Y-136904761D01*
X118428571Y-136952380D01*
X118619047Y-136952380D01*
X118714285Y-136904761D01*
X118761904Y-136857142D01*
X118809523Y-136761904D01*
X118809523Y-135952380D01*
X119761904Y-135952380D02*
X119285714Y-135952380D01*
X119238095Y-136428571D01*
X119285714Y-136380952D01*
X119380952Y-136333333D01*
X119619047Y-136333333D01*
X119714285Y-136380952D01*
X119761904Y-136428571D01*
X119809523Y-136523809D01*
X119809523Y-136761904D01*
X119761904Y-136857142D01*
X119714285Y-136904761D01*
X119619047Y-136952380D01*
X119380952Y-136952380D01*
X119285714Y-136904761D01*
X119238095Y-136857142D01*
G04 #@! TO.C,U3*
X151738880Y-139094904D02*
X152548404Y-139094904D01*
X152643642Y-139047285D01*
X152691261Y-138999666D01*
X152738880Y-138904428D01*
X152738880Y-138713952D01*
X152691261Y-138618714D01*
X152643642Y-138571095D01*
X152548404Y-138523476D01*
X151738880Y-138523476D01*
X151738880Y-138142523D02*
X151738880Y-137523476D01*
X152119833Y-137856809D01*
X152119833Y-137713952D01*
X152167452Y-137618714D01*
X152215071Y-137571095D01*
X152310309Y-137523476D01*
X152548404Y-137523476D01*
X152643642Y-137571095D01*
X152691261Y-137618714D01*
X152738880Y-137713952D01*
X152738880Y-137999666D01*
X152691261Y-138094904D01*
X152643642Y-138142523D01*
G04 #@! TO.C,U4*
X138238095Y-108652380D02*
X138238095Y-109461904D01*
X138285714Y-109557142D01*
X138333333Y-109604761D01*
X138428571Y-109652380D01*
X138619047Y-109652380D01*
X138714285Y-109604761D01*
X138761904Y-109557142D01*
X138809523Y-109461904D01*
X138809523Y-108652380D01*
X139714285Y-108985714D02*
X139714285Y-109652380D01*
X139476190Y-108604761D02*
X139238095Y-109319047D01*
X139857142Y-109319047D01*
G04 #@! TO.C,C11*
X115607142Y-150607142D02*
X115559523Y-150654761D01*
X115416666Y-150702380D01*
X115321428Y-150702380D01*
X115178571Y-150654761D01*
X115083333Y-150559523D01*
X115035714Y-150464285D01*
X114988095Y-150273809D01*
X114988095Y-150130952D01*
X115035714Y-149940476D01*
X115083333Y-149845238D01*
X115178571Y-149750000D01*
X115321428Y-149702380D01*
X115416666Y-149702380D01*
X115559523Y-149750000D01*
X115607142Y-149797619D01*
X116559523Y-150702380D02*
X115988095Y-150702380D01*
X116273809Y-150702380D02*
X116273809Y-149702380D01*
X116178571Y-149845238D01*
X116083333Y-149940476D01*
X115988095Y-149988095D01*
X117511904Y-150702380D02*
X116940476Y-150702380D01*
X117226190Y-150702380D02*
X117226190Y-149702380D01*
X117130952Y-149845238D01*
X117035714Y-149940476D01*
X116940476Y-149988095D01*
G04 #@! TO.C,R1*
X112920833Y-127022380D02*
X112587500Y-126546190D01*
X112349404Y-127022380D02*
X112349404Y-126022380D01*
X112730357Y-126022380D01*
X112825595Y-126070000D01*
X112873214Y-126117619D01*
X112920833Y-126212857D01*
X112920833Y-126355714D01*
X112873214Y-126450952D01*
X112825595Y-126498571D01*
X112730357Y-126546190D01*
X112349404Y-126546190D01*
X113873214Y-127022380D02*
X113301785Y-127022380D01*
X113587500Y-127022380D02*
X113587500Y-126022380D01*
X113492261Y-126165238D01*
X113397023Y-126260476D01*
X113301785Y-126308095D01*
G04 #@! TO.C,R12*
X143357142Y-149882380D02*
X143023809Y-149406190D01*
X142785714Y-149882380D02*
X142785714Y-148882380D01*
X143166666Y-148882380D01*
X143261904Y-148930000D01*
X143309523Y-148977619D01*
X143357142Y-149072857D01*
X143357142Y-149215714D01*
X143309523Y-149310952D01*
X143261904Y-149358571D01*
X143166666Y-149406190D01*
X142785714Y-149406190D01*
X144309523Y-149882380D02*
X143738095Y-149882380D01*
X144023809Y-149882380D02*
X144023809Y-148882380D01*
X143928571Y-149025238D01*
X143833333Y-149120476D01*
X143738095Y-149168095D01*
X144690476Y-148977619D02*
X144738095Y-148930000D01*
X144833333Y-148882380D01*
X145071428Y-148882380D01*
X145166666Y-148930000D01*
X145214285Y-148977619D01*
X145261904Y-149072857D01*
X145261904Y-149168095D01*
X145214285Y-149310952D01*
X144642857Y-149882380D01*
X145261904Y-149882380D01*
G04 #@! TO.C,C4*
X127333333Y-92287142D02*
X127285714Y-92334761D01*
X127142857Y-92382380D01*
X127047619Y-92382380D01*
X126904761Y-92334761D01*
X126809523Y-92239523D01*
X126761904Y-92144285D01*
X126714285Y-91953809D01*
X126714285Y-91810952D01*
X126761904Y-91620476D01*
X126809523Y-91525238D01*
X126904761Y-91430000D01*
X127047619Y-91382380D01*
X127142857Y-91382380D01*
X127285714Y-91430000D01*
X127333333Y-91477619D01*
X128190476Y-91715714D02*
X128190476Y-92382380D01*
X127952380Y-91334761D02*
X127714285Y-92049047D01*
X128333333Y-92049047D01*
G04 #@! TO.C,U1*
X98402380Y-111761904D02*
X99211904Y-111761904D01*
X99307142Y-111714285D01*
X99354761Y-111666666D01*
X99402380Y-111571428D01*
X99402380Y-111380952D01*
X99354761Y-111285714D01*
X99307142Y-111238095D01*
X99211904Y-111190476D01*
X98402380Y-111190476D01*
X99402380Y-110190476D02*
X99402380Y-110761904D01*
X99402380Y-110476190D02*
X98402380Y-110476190D01*
X98545238Y-110571428D01*
X98640476Y-110666666D01*
X98688095Y-110761904D01*
X103416666Y-115761904D02*
X103416666Y-115285714D01*
X103702380Y-115857142D02*
X102702380Y-115523809D01*
X103702380Y-115190476D01*
X103035714Y-114857142D02*
X103702380Y-114857142D01*
X103130952Y-114857142D02*
X103083333Y-114809523D01*
X103035714Y-114714285D01*
X103035714Y-114571428D01*
X103083333Y-114476190D01*
X103178571Y-114428571D01*
X103702380Y-114428571D01*
X103035714Y-114095238D02*
X103035714Y-113714285D01*
X102702380Y-113952380D02*
X103559523Y-113952380D01*
X103654761Y-113904761D01*
X103702380Y-113809523D01*
X103702380Y-113714285D01*
X103654761Y-113000000D02*
X103702380Y-113095238D01*
X103702380Y-113285714D01*
X103654761Y-113380952D01*
X103559523Y-113428571D01*
X103178571Y-113428571D01*
X103083333Y-113380952D01*
X103035714Y-113285714D01*
X103035714Y-113095238D01*
X103083333Y-113000000D01*
X103178571Y-112952380D01*
X103273809Y-112952380D01*
X103369047Y-113428571D01*
X103035714Y-112523809D02*
X103702380Y-112523809D01*
X103130952Y-112523809D02*
X103083333Y-112476190D01*
X103035714Y-112380952D01*
X103035714Y-112238095D01*
X103083333Y-112142857D01*
X103178571Y-112095238D01*
X103702380Y-112095238D01*
X103035714Y-111619047D02*
X103702380Y-111619047D01*
X103130952Y-111619047D02*
X103083333Y-111571428D01*
X103035714Y-111476190D01*
X103035714Y-111333333D01*
X103083333Y-111238095D01*
X103178571Y-111190476D01*
X103702380Y-111190476D01*
X103702380Y-110285714D02*
X103178571Y-110285714D01*
X103083333Y-110333333D01*
X103035714Y-110428571D01*
X103035714Y-110619047D01*
X103083333Y-110714285D01*
X103654761Y-110285714D02*
X103702380Y-110380952D01*
X103702380Y-110619047D01*
X103654761Y-110714285D01*
X103559523Y-110761904D01*
X103464285Y-110761904D01*
X103369047Y-110714285D01*
X103321428Y-110619047D01*
X103321428Y-110380952D01*
X103273809Y-110285714D01*
X103416666Y-109095238D02*
X103416666Y-108619047D01*
X103702380Y-109190476D02*
X102702380Y-108857142D01*
X103702380Y-108523809D01*
X103702380Y-108190476D02*
X103035714Y-108190476D01*
X103226190Y-108190476D02*
X103130952Y-108142857D01*
X103083333Y-108095238D01*
X103035714Y-108000000D01*
X103035714Y-107904761D01*
X103654761Y-107190476D02*
X103702380Y-107285714D01*
X103702380Y-107476190D01*
X103654761Y-107571428D01*
X103559523Y-107619047D01*
X103178571Y-107619047D01*
X103083333Y-107571428D01*
X103035714Y-107476190D01*
X103035714Y-107285714D01*
X103083333Y-107190476D01*
X103178571Y-107142857D01*
X103273809Y-107142857D01*
X103369047Y-107619047D01*
X103702380Y-106285714D02*
X103178571Y-106285714D01*
X103083333Y-106333333D01*
X103035714Y-106428571D01*
X103035714Y-106619047D01*
X103083333Y-106714285D01*
X103654761Y-106285714D02*
X103702380Y-106380952D01*
X103702380Y-106619047D01*
X103654761Y-106714285D01*
X103559523Y-106761904D01*
X103464285Y-106761904D01*
X103369047Y-106714285D01*
X103321428Y-106619047D01*
X103321428Y-106380952D01*
X103273809Y-106285714D01*
G04 #@! TO.C,J3*
X130666666Y-173631880D02*
X130666666Y-174346166D01*
X130619047Y-174489023D01*
X130523809Y-174584261D01*
X130380952Y-174631880D01*
X130285714Y-174631880D01*
X131047619Y-173631880D02*
X131666666Y-173631880D01*
X131333333Y-174012833D01*
X131476190Y-174012833D01*
X131571428Y-174060452D01*
X131619047Y-174108071D01*
X131666666Y-174203309D01*
X131666666Y-174441404D01*
X131619047Y-174536642D01*
X131571428Y-174584261D01*
X131476190Y-174631880D01*
X131190476Y-174631880D01*
X131095238Y-174584261D01*
X131047619Y-174536642D01*
G04 #@! TO.C,R4*
X110833333Y-89022380D02*
X110500000Y-88546190D01*
X110261904Y-89022380D02*
X110261904Y-88022380D01*
X110642857Y-88022380D01*
X110738095Y-88070000D01*
X110785714Y-88117619D01*
X110833333Y-88212857D01*
X110833333Y-88355714D01*
X110785714Y-88450952D01*
X110738095Y-88498571D01*
X110642857Y-88546190D01*
X110261904Y-88546190D01*
X111690476Y-88355714D02*
X111690476Y-89022380D01*
X111452380Y-87974761D02*
X111214285Y-88689047D01*
X111833333Y-88689047D01*
G04 #@! TO.C,C13*
X110607142Y-142427142D02*
X110559523Y-142474761D01*
X110416666Y-142522380D01*
X110321428Y-142522380D01*
X110178571Y-142474761D01*
X110083333Y-142379523D01*
X110035714Y-142284285D01*
X109988095Y-142093809D01*
X109988095Y-141950952D01*
X110035714Y-141760476D01*
X110083333Y-141665238D01*
X110178571Y-141570000D01*
X110321428Y-141522380D01*
X110416666Y-141522380D01*
X110559523Y-141570000D01*
X110607142Y-141617619D01*
X111559523Y-142522380D02*
X110988095Y-142522380D01*
X111273809Y-142522380D02*
X111273809Y-141522380D01*
X111178571Y-141665238D01*
X111083333Y-141760476D01*
X110988095Y-141808095D01*
X111892857Y-141522380D02*
X112511904Y-141522380D01*
X112178571Y-141903333D01*
X112321428Y-141903333D01*
X112416666Y-141950952D01*
X112464285Y-141998571D01*
X112511904Y-142093809D01*
X112511904Y-142331904D01*
X112464285Y-142427142D01*
X112416666Y-142474761D01*
X112321428Y-142522380D01*
X112035714Y-142522380D01*
X111940476Y-142474761D01*
X111892857Y-142427142D01*
G04 #@! TO.C,R8*
X118833333Y-91952380D02*
X118500000Y-91476190D01*
X118261904Y-91952380D02*
X118261904Y-90952380D01*
X118642857Y-90952380D01*
X118738095Y-91000000D01*
X118785714Y-91047619D01*
X118833333Y-91142857D01*
X118833333Y-91285714D01*
X118785714Y-91380952D01*
X118738095Y-91428571D01*
X118642857Y-91476190D01*
X118261904Y-91476190D01*
X119404761Y-91380952D02*
X119309523Y-91333333D01*
X119261904Y-91285714D01*
X119214285Y-91190476D01*
X119214285Y-91142857D01*
X119261904Y-91047619D01*
X119309523Y-91000000D01*
X119404761Y-90952380D01*
X119595238Y-90952380D01*
X119690476Y-91000000D01*
X119738095Y-91047619D01*
X119785714Y-91142857D01*
X119785714Y-91190476D01*
X119738095Y-91285714D01*
X119690476Y-91333333D01*
X119595238Y-91380952D01*
X119404761Y-91380952D01*
X119309523Y-91428571D01*
X119261904Y-91476190D01*
X119214285Y-91571428D01*
X119214285Y-91761904D01*
X119261904Y-91857142D01*
X119309523Y-91904761D01*
X119404761Y-91952380D01*
X119595238Y-91952380D01*
X119690476Y-91904761D01*
X119738095Y-91857142D01*
X119785714Y-91761904D01*
X119785714Y-91571428D01*
X119738095Y-91476190D01*
X119690476Y-91428571D01*
X119595238Y-91380952D01*
G04 #@! TO.C,R11*
X135357142Y-107382380D02*
X135023809Y-106906190D01*
X134785714Y-107382380D02*
X134785714Y-106382380D01*
X135166666Y-106382380D01*
X135261904Y-106430000D01*
X135309523Y-106477619D01*
X135357142Y-106572857D01*
X135357142Y-106715714D01*
X135309523Y-106810952D01*
X135261904Y-106858571D01*
X135166666Y-106906190D01*
X134785714Y-106906190D01*
X136309523Y-107382380D02*
X135738095Y-107382380D01*
X136023809Y-107382380D02*
X136023809Y-106382380D01*
X135928571Y-106525238D01*
X135833333Y-106620476D01*
X135738095Y-106668095D01*
X137261904Y-107382380D02*
X136690476Y-107382380D01*
X136976190Y-107382380D02*
X136976190Y-106382380D01*
X136880952Y-106525238D01*
X136785714Y-106620476D01*
X136690476Y-106668095D01*
G04 #@! TO.C,Q3*
X122967261Y-91147619D02*
X122872023Y-91100000D01*
X122776785Y-91004761D01*
X122633928Y-90861904D01*
X122538690Y-90814285D01*
X122443452Y-90814285D01*
X122491071Y-91052380D02*
X122395833Y-91004761D01*
X122300595Y-90909523D01*
X122252976Y-90719047D01*
X122252976Y-90385714D01*
X122300595Y-90195238D01*
X122395833Y-90100000D01*
X122491071Y-90052380D01*
X122681547Y-90052380D01*
X122776785Y-90100000D01*
X122872023Y-90195238D01*
X122919642Y-90385714D01*
X122919642Y-90719047D01*
X122872023Y-90909523D01*
X122776785Y-91004761D01*
X122681547Y-91052380D01*
X122491071Y-91052380D01*
X123252976Y-90052380D02*
X123872023Y-90052380D01*
X123538690Y-90433333D01*
X123681547Y-90433333D01*
X123776785Y-90480952D01*
X123824404Y-90528571D01*
X123872023Y-90623809D01*
X123872023Y-90861904D01*
X123824404Y-90957142D01*
X123776785Y-91004761D01*
X123681547Y-91052380D01*
X123395833Y-91052380D01*
X123300595Y-91004761D01*
X123252976Y-90957142D01*
G04 #@! TO.C,U2*
X113763095Y-151052380D02*
X113763095Y-151861904D01*
X113810714Y-151957142D01*
X113858333Y-152004761D01*
X113953571Y-152052380D01*
X114144047Y-152052380D01*
X114239285Y-152004761D01*
X114286904Y-151957142D01*
X114334523Y-151861904D01*
X114334523Y-151052380D01*
X114763095Y-151147619D02*
X114810714Y-151100000D01*
X114905952Y-151052380D01*
X115144047Y-151052380D01*
X115239285Y-151100000D01*
X115286904Y-151147619D01*
X115334523Y-151242857D01*
X115334523Y-151338095D01*
X115286904Y-151480952D01*
X114715476Y-152052380D01*
X115334523Y-152052380D01*
G04 #@! TO.C,Q1*
X108904761Y-97547619D02*
X108809523Y-97500000D01*
X108714285Y-97404761D01*
X108571428Y-97261904D01*
X108476190Y-97214285D01*
X108380952Y-97214285D01*
X108428571Y-97452380D02*
X108333333Y-97404761D01*
X108238095Y-97309523D01*
X108190476Y-97119047D01*
X108190476Y-96785714D01*
X108238095Y-96595238D01*
X108333333Y-96500000D01*
X108428571Y-96452380D01*
X108619047Y-96452380D01*
X108714285Y-96500000D01*
X108809523Y-96595238D01*
X108857142Y-96785714D01*
X108857142Y-97119047D01*
X108809523Y-97309523D01*
X108714285Y-97404761D01*
X108619047Y-97452380D01*
X108428571Y-97452380D01*
X109809523Y-97452380D02*
X109238095Y-97452380D01*
X109523809Y-97452380D02*
X109523809Y-96452380D01*
X109428571Y-96595238D01*
X109333333Y-96690476D01*
X109238095Y-96738095D01*
G04 #@! TO.C,C8*
X132833333Y-112787142D02*
X132785714Y-112834761D01*
X132642857Y-112882380D01*
X132547619Y-112882380D01*
X132404761Y-112834761D01*
X132309523Y-112739523D01*
X132261904Y-112644285D01*
X132214285Y-112453809D01*
X132214285Y-112310952D01*
X132261904Y-112120476D01*
X132309523Y-112025238D01*
X132404761Y-111930000D01*
X132547619Y-111882380D01*
X132642857Y-111882380D01*
X132785714Y-111930000D01*
X132833333Y-111977619D01*
X133404761Y-112310952D02*
X133309523Y-112263333D01*
X133261904Y-112215714D01*
X133214285Y-112120476D01*
X133214285Y-112072857D01*
X133261904Y-111977619D01*
X133309523Y-111930000D01*
X133404761Y-111882380D01*
X133595238Y-111882380D01*
X133690476Y-111930000D01*
X133738095Y-111977619D01*
X133785714Y-112072857D01*
X133785714Y-112120476D01*
X133738095Y-112215714D01*
X133690476Y-112263333D01*
X133595238Y-112310952D01*
X133404761Y-112310952D01*
X133309523Y-112358571D01*
X133261904Y-112406190D01*
X133214285Y-112501428D01*
X133214285Y-112691904D01*
X133261904Y-112787142D01*
X133309523Y-112834761D01*
X133404761Y-112882380D01*
X133595238Y-112882380D01*
X133690476Y-112834761D01*
X133738095Y-112787142D01*
X133785714Y-112691904D01*
X133785714Y-112501428D01*
X133738095Y-112406190D01*
X133690476Y-112358571D01*
X133595238Y-112310952D01*
G04 #@! TO.C,R7*
X146833333Y-108522380D02*
X146500000Y-108046190D01*
X146261904Y-108522380D02*
X146261904Y-107522380D01*
X146642857Y-107522380D01*
X146738095Y-107570000D01*
X146785714Y-107617619D01*
X146833333Y-107712857D01*
X146833333Y-107855714D01*
X146785714Y-107950952D01*
X146738095Y-107998571D01*
X146642857Y-108046190D01*
X146261904Y-108046190D01*
X147166666Y-107522380D02*
X147833333Y-107522380D01*
X147404761Y-108522380D01*
G04 #@! TO.C,R3*
X119833333Y-129522380D02*
X119500000Y-129046190D01*
X119261904Y-129522380D02*
X119261904Y-128522380D01*
X119642857Y-128522380D01*
X119738095Y-128570000D01*
X119785714Y-128617619D01*
X119833333Y-128712857D01*
X119833333Y-128855714D01*
X119785714Y-128950952D01*
X119738095Y-128998571D01*
X119642857Y-129046190D01*
X119261904Y-129046190D01*
X120166666Y-128522380D02*
X120785714Y-128522380D01*
X120452380Y-128903333D01*
X120595238Y-128903333D01*
X120690476Y-128950952D01*
X120738095Y-128998571D01*
X120785714Y-129093809D01*
X120785714Y-129331904D01*
X120738095Y-129427142D01*
X120690476Y-129474761D01*
X120595238Y-129522380D01*
X120309523Y-129522380D01*
X120214285Y-129474761D01*
X120166666Y-129427142D01*
G04 #@! TO.C,R9*
X145083333Y-118632380D02*
X144750000Y-118156190D01*
X144511904Y-118632380D02*
X144511904Y-117632380D01*
X144892857Y-117632380D01*
X144988095Y-117680000D01*
X145035714Y-117727619D01*
X145083333Y-117822857D01*
X145083333Y-117965714D01*
X145035714Y-118060952D01*
X144988095Y-118108571D01*
X144892857Y-118156190D01*
X144511904Y-118156190D01*
X145559523Y-118632380D02*
X145750000Y-118632380D01*
X145845238Y-118584761D01*
X145892857Y-118537142D01*
X145988095Y-118394285D01*
X146035714Y-118203809D01*
X146035714Y-117822857D01*
X145988095Y-117727619D01*
X145940476Y-117680000D01*
X145845238Y-117632380D01*
X145654761Y-117632380D01*
X145559523Y-117680000D01*
X145511904Y-117727619D01*
X145464285Y-117822857D01*
X145464285Y-118060952D01*
X145511904Y-118156190D01*
X145559523Y-118203809D01*
X145654761Y-118251428D01*
X145845238Y-118251428D01*
X145940476Y-118203809D01*
X145988095Y-118156190D01*
X146035714Y-118060952D01*
G04 #@! TO.C,J2*
X143666666Y-180352380D02*
X143666666Y-181066666D01*
X143619047Y-181209523D01*
X143523809Y-181304761D01*
X143380952Y-181352380D01*
X143285714Y-181352380D01*
X144095238Y-180447619D02*
X144142857Y-180400000D01*
X144238095Y-180352380D01*
X144476190Y-180352380D01*
X144571428Y-180400000D01*
X144619047Y-180447619D01*
X144666666Y-180542857D01*
X144666666Y-180638095D01*
X144619047Y-180780952D01*
X144047619Y-181352380D01*
X144666666Y-181352380D01*
G04 #@! TO.C,D1*
X134261904Y-88952380D02*
X134261904Y-87952380D01*
X134500000Y-87952380D01*
X134642857Y-88000000D01*
X134738095Y-88095238D01*
X134785714Y-88190476D01*
X134833333Y-88380952D01*
X134833333Y-88523809D01*
X134785714Y-88714285D01*
X134738095Y-88809523D01*
X134642857Y-88904761D01*
X134500000Y-88952380D01*
X134261904Y-88952380D01*
X135785714Y-88952380D02*
X135214285Y-88952380D01*
X135500000Y-88952380D02*
X135500000Y-87952380D01*
X135404761Y-88095238D01*
X135309523Y-88190476D01*
X135214285Y-88238095D01*
X131135714Y-90852380D02*
X130564285Y-90852380D01*
X130850000Y-90852380D02*
X130850000Y-89852380D01*
X130754761Y-89995238D01*
X130659523Y-90090476D01*
X130564285Y-90138095D01*
G04 #@! TO.C,C3*
X112833333Y-122927142D02*
X112785714Y-122974761D01*
X112642857Y-123022380D01*
X112547619Y-123022380D01*
X112404761Y-122974761D01*
X112309523Y-122879523D01*
X112261904Y-122784285D01*
X112214285Y-122593809D01*
X112214285Y-122450952D01*
X112261904Y-122260476D01*
X112309523Y-122165238D01*
X112404761Y-122070000D01*
X112547619Y-122022380D01*
X112642857Y-122022380D01*
X112785714Y-122070000D01*
X112833333Y-122117619D01*
X113166666Y-122022380D02*
X113785714Y-122022380D01*
X113452380Y-122403333D01*
X113595238Y-122403333D01*
X113690476Y-122450952D01*
X113738095Y-122498571D01*
X113785714Y-122593809D01*
X113785714Y-122831904D01*
X113738095Y-122927142D01*
X113690476Y-122974761D01*
X113595238Y-123022380D01*
X113309523Y-123022380D01*
X113214285Y-122974761D01*
X113166666Y-122927142D01*
G04 #@! TO.C,C12*
X116107142Y-135787142D02*
X116059523Y-135834761D01*
X115916666Y-135882380D01*
X115821428Y-135882380D01*
X115678571Y-135834761D01*
X115583333Y-135739523D01*
X115535714Y-135644285D01*
X115488095Y-135453809D01*
X115488095Y-135310952D01*
X115535714Y-135120476D01*
X115583333Y-135025238D01*
X115678571Y-134930000D01*
X115821428Y-134882380D01*
X115916666Y-134882380D01*
X116059523Y-134930000D01*
X116107142Y-134977619D01*
X117059523Y-135882380D02*
X116488095Y-135882380D01*
X116773809Y-135882380D02*
X116773809Y-134882380D01*
X116678571Y-135025238D01*
X116583333Y-135120476D01*
X116488095Y-135168095D01*
X117440476Y-134977619D02*
X117488095Y-134930000D01*
X117583333Y-134882380D01*
X117821428Y-134882380D01*
X117916666Y-134930000D01*
X117964285Y-134977619D01*
X118011904Y-135072857D01*
X118011904Y-135168095D01*
X117964285Y-135310952D01*
X117392857Y-135882380D01*
X118011904Y-135882380D01*
G04 #@! TO.C,C9*
X124833333Y-154357142D02*
X124785714Y-154404761D01*
X124642857Y-154452380D01*
X124547619Y-154452380D01*
X124404761Y-154404761D01*
X124309523Y-154309523D01*
X124261904Y-154214285D01*
X124214285Y-154023809D01*
X124214285Y-153880952D01*
X124261904Y-153690476D01*
X124309523Y-153595238D01*
X124404761Y-153500000D01*
X124547619Y-153452380D01*
X124642857Y-153452380D01*
X124785714Y-153500000D01*
X124833333Y-153547619D01*
X125309523Y-154452380D02*
X125500000Y-154452380D01*
X125595238Y-154404761D01*
X125642857Y-154357142D01*
X125738095Y-154214285D01*
X125785714Y-154023809D01*
X125785714Y-153642857D01*
X125738095Y-153547619D01*
X125690476Y-153500000D01*
X125595238Y-153452380D01*
X125404761Y-153452380D01*
X125309523Y-153500000D01*
X125261904Y-153547619D01*
X125214285Y-153642857D01*
X125214285Y-153880952D01*
X125261904Y-153976190D01*
X125309523Y-154023809D01*
X125404761Y-154071428D01*
X125595238Y-154071428D01*
X125690476Y-154023809D01*
X125738095Y-153976190D01*
X125785714Y-153880952D01*
G04 #@! TO.C,C6*
X107333333Y-129787142D02*
X107285714Y-129834761D01*
X107142857Y-129882380D01*
X107047619Y-129882380D01*
X106904761Y-129834761D01*
X106809523Y-129739523D01*
X106761904Y-129644285D01*
X106714285Y-129453809D01*
X106714285Y-129310952D01*
X106761904Y-129120476D01*
X106809523Y-129025238D01*
X106904761Y-128930000D01*
X107047619Y-128882380D01*
X107142857Y-128882380D01*
X107285714Y-128930000D01*
X107333333Y-128977619D01*
X108190476Y-128882380D02*
X108000000Y-128882380D01*
X107904761Y-128930000D01*
X107857142Y-128977619D01*
X107761904Y-129120476D01*
X107714285Y-129310952D01*
X107714285Y-129691904D01*
X107761904Y-129787142D01*
X107809523Y-129834761D01*
X107904761Y-129882380D01*
X108095238Y-129882380D01*
X108190476Y-129834761D01*
X108238095Y-129787142D01*
X108285714Y-129691904D01*
X108285714Y-129453809D01*
X108238095Y-129358571D01*
X108190476Y-129310952D01*
X108095238Y-129263333D01*
X107904761Y-129263333D01*
X107809523Y-129310952D01*
X107761904Y-129358571D01*
X107714285Y-129453809D01*
G04 #@! TO.C,C7*
X107333333Y-125787142D02*
X107285714Y-125834761D01*
X107142857Y-125882380D01*
X107047619Y-125882380D01*
X106904761Y-125834761D01*
X106809523Y-125739523D01*
X106761904Y-125644285D01*
X106714285Y-125453809D01*
X106714285Y-125310952D01*
X106761904Y-125120476D01*
X106809523Y-125025238D01*
X106904761Y-124930000D01*
X107047619Y-124882380D01*
X107142857Y-124882380D01*
X107285714Y-124930000D01*
X107333333Y-124977619D01*
X107666666Y-124882380D02*
X108333333Y-124882380D01*
X107904761Y-125882380D01*
G04 #@! TO.C,SW2*
X101666666Y-134299761D02*
X101809523Y-134347380D01*
X102047619Y-134347380D01*
X102142857Y-134299761D01*
X102190476Y-134252142D01*
X102238095Y-134156904D01*
X102238095Y-134061666D01*
X102190476Y-133966428D01*
X102142857Y-133918809D01*
X102047619Y-133871190D01*
X101857142Y-133823571D01*
X101761904Y-133775952D01*
X101714285Y-133728333D01*
X101666666Y-133633095D01*
X101666666Y-133537857D01*
X101714285Y-133442619D01*
X101761904Y-133395000D01*
X101857142Y-133347380D01*
X102095238Y-133347380D01*
X102238095Y-133395000D01*
X102571428Y-133347380D02*
X102809523Y-134347380D01*
X103000000Y-133633095D01*
X103190476Y-134347380D01*
X103428571Y-133347380D01*
X103761904Y-133442619D02*
X103809523Y-133395000D01*
X103904761Y-133347380D01*
X104142857Y-133347380D01*
X104238095Y-133395000D01*
X104285714Y-133442619D01*
X104333333Y-133537857D01*
X104333333Y-133633095D01*
X104285714Y-133775952D01*
X103714285Y-134347380D01*
X104333333Y-134347380D01*
D14*
G04 #@! TO.C,D3*
X143853733Y-153510000D02*
X144146267Y-153510000D01*
X143853733Y-152490000D02*
X144146267Y-152490000D01*
G04 #@! TO.C,C5*
X103491233Y-144010000D02*
X103783767Y-144010000D01*
X103491233Y-142990000D02*
X103783767Y-142990000D01*
G04 #@! TO.C,C2*
X146853733Y-106010000D02*
X147146267Y-106010000D01*
X146853733Y-104990000D02*
X147146267Y-104990000D01*
G04 #@! TO.C,Q2*
X116087500Y-96060000D02*
X116737500Y-96060000D01*
X116087500Y-96060000D02*
X115437500Y-96060000D01*
X116087500Y-92940000D02*
X114412500Y-92940000D01*
X116087500Y-92940000D02*
X116737500Y-92940000D01*
G04 #@! TO.C,C14*
X125146267Y-136760000D02*
X124853733Y-136760000D01*
X125146267Y-135740000D02*
X124853733Y-135740000D01*
G04 #@! TO.C,R10*
X121745276Y-145977500D02*
X122254724Y-145977500D01*
X121745276Y-147022500D02*
X122254724Y-147022500D01*
G04 #@! TO.C,C10*
X133146267Y-114990000D02*
X132853733Y-114990000D01*
X133146267Y-116010000D02*
X132853733Y-116010000D01*
G04 #@! TO.C,J1*
X120660000Y-171110000D02*
X120660000Y-179220000D01*
X107340000Y-179220000D02*
X106690000Y-179220000D01*
X106690000Y-179740000D02*
X121310000Y-179740000D01*
X121310000Y-179740000D02*
X121310000Y-179220000D01*
X107340000Y-164260000D02*
X107340000Y-167590000D01*
X109600000Y-164040000D02*
X111400000Y-164040000D01*
X121310000Y-179220000D02*
X120660000Y-179220000D01*
X106690000Y-179220000D02*
X106690000Y-179740000D01*
X120660000Y-164260000D02*
X120660000Y-167590000D01*
X107340000Y-179220000D02*
X107340000Y-171110000D01*
X107340000Y-164260000D02*
X120660000Y-164260000D01*
G04 #@! TO.C,R2*
X103254724Y-98522500D02*
X102745276Y-98522500D01*
X103254724Y-97477500D02*
X102745276Y-97477500D01*
G04 #@! TO.C,R5*
X102745276Y-93435000D02*
X103254724Y-93435000D01*
X102745276Y-92390000D02*
X103254724Y-92390000D01*
G04 #@! TO.C,SW1*
X142800000Y-99730000D02*
X142770000Y-99730000D01*
X142770000Y-99730000D02*
X142770000Y-93270000D01*
X149230000Y-93270000D02*
X149200000Y-93270000D01*
X144700000Y-99730000D02*
X147300000Y-99730000D01*
X142770000Y-93270000D02*
X142800000Y-93270000D01*
X149230000Y-99730000D02*
X149230000Y-93270000D01*
X149230000Y-99730000D02*
X149200000Y-99730000D01*
X144700000Y-93270000D02*
X147300000Y-93270000D01*
G04 #@! TO.C,C15*
X125146267Y-132990000D02*
X124853733Y-132990000D01*
X125146267Y-134010000D02*
X124853733Y-134010000D01*
G04 #@! TO.C,C1*
X111146267Y-161510000D02*
X110853733Y-161510000D01*
X111146267Y-160490000D02*
X110853733Y-160490000D01*
G04 #@! TO.C,U6*
X131000000Y-163610000D02*
X133925000Y-163610000D01*
X131000000Y-163610000D02*
X129500000Y-163610000D01*
X131000000Y-160390000D02*
X129500000Y-160390000D01*
X131000000Y-160390000D02*
X132500000Y-160390000D01*
G04 #@! TO.C,R6*
X140745276Y-159477500D02*
X141254724Y-159477500D01*
X140745276Y-160522500D02*
X141254724Y-160522500D01*
G04 #@! TO.C,D2*
X123900000Y-159350000D02*
X120750000Y-159350000D01*
X123900000Y-159350000D02*
X123900000Y-157650000D01*
X123900000Y-157650000D02*
X120750000Y-157650000D01*
G04 #@! TO.C,U5*
X117150000Y-144410000D02*
X120910000Y-144410000D01*
X120910000Y-137590000D02*
X120910000Y-138850000D01*
X120910000Y-144410000D02*
X120910000Y-143150000D01*
X114900000Y-137590000D02*
X120910000Y-137590000D01*
G04 #@! TO.C,U4*
X136890000Y-114610000D02*
X136890000Y-114135000D01*
X140635000Y-110390000D02*
X141110000Y-110390000D01*
X140635000Y-114610000D02*
X141110000Y-114610000D01*
X137365000Y-114610000D02*
X136890000Y-114610000D01*
X137365000Y-110390000D02*
X136890000Y-110390000D01*
X141110000Y-110390000D02*
X141110000Y-110865000D01*
X141110000Y-114610000D02*
X141110000Y-114135000D01*
G04 #@! TO.C,C11*
X119896267Y-149740000D02*
X119603733Y-149740000D01*
X119896267Y-150760000D02*
X119603733Y-150760000D01*
G04 #@! TO.C,R1*
X112832776Y-128522500D02*
X113342224Y-128522500D01*
X112832776Y-127477500D02*
X113342224Y-127477500D01*
G04 #@! TO.C,R12*
X144254724Y-148522500D02*
X143745276Y-148522500D01*
X144254724Y-147477500D02*
X143745276Y-147477500D01*
G04 #@! TO.C,C4*
X127646267Y-89990000D02*
X127353733Y-89990000D01*
X127646267Y-91010000D02*
X127353733Y-91010000D01*
G04 #@! TO.C,U1*
X106190000Y-102000000D02*
X106190000Y-120000000D01*
X100250000Y-102000000D02*
X107000000Y-102000000D01*
X125000000Y-120000000D02*
X125750000Y-120000000D01*
X125750000Y-102000000D02*
X125750000Y-103000000D01*
X125000000Y-102000000D02*
X125750000Y-102000000D01*
X100250000Y-120000000D02*
X100250000Y-102000000D01*
X125750000Y-120000000D02*
X125750000Y-119000000D01*
X100250000Y-120000000D02*
X107000000Y-120000000D01*
G04 #@! TO.C,J3*
X129300000Y-174979500D02*
X129300000Y-175429500D01*
X129300000Y-174979500D02*
X129750000Y-174979500D01*
X134900000Y-177379500D02*
X134900000Y-175529500D01*
X134900000Y-175529500D02*
X134450000Y-175529500D01*
X127100000Y-175529500D02*
X127550000Y-175529500D01*
X127100000Y-177379500D02*
X127100000Y-175529500D01*
X127100000Y-179929500D02*
X127100000Y-179679500D01*
X134900000Y-179929500D02*
X134900000Y-179679500D01*
G04 #@! TO.C,R4*
X110745276Y-90522500D02*
X111254724Y-90522500D01*
X110745276Y-89477500D02*
X111254724Y-89477500D01*
G04 #@! TO.C,C13*
X111103733Y-144010000D02*
X111396267Y-144010000D01*
X111103733Y-142990000D02*
X111396267Y-142990000D01*
G04 #@! TO.C,R8*
X116342224Y-92022500D02*
X115832776Y-92022500D01*
X116342224Y-90977500D02*
X115832776Y-90977500D01*
G04 #@! TO.C,R11*
X136254724Y-104977500D02*
X135745276Y-104977500D01*
X136254724Y-106022500D02*
X135745276Y-106022500D01*
G04 #@! TO.C,Q3*
X123062500Y-94560000D02*
X123712500Y-94560000D01*
X123062500Y-91440000D02*
X123712500Y-91440000D01*
X123062500Y-94560000D02*
X122412500Y-94560000D01*
X123062500Y-91440000D02*
X121387500Y-91440000D01*
G04 #@! TO.C,U2*
X114525000Y-157560000D02*
X116475000Y-157560000D01*
X114525000Y-152440000D02*
X111075000Y-152440000D01*
X114525000Y-157560000D02*
X112575000Y-157560000D01*
X114525000Y-152440000D02*
X116475000Y-152440000D01*
G04 #@! TO.C,Q1*
X109000000Y-92940000D02*
X107325000Y-92940000D01*
X109000000Y-96060000D02*
X108350000Y-96060000D01*
X109000000Y-92940000D02*
X109650000Y-92940000D01*
X109000000Y-96060000D02*
X109650000Y-96060000D01*
G04 #@! TO.C,C8*
X133146267Y-111510000D02*
X132853733Y-111510000D01*
X133146267Y-110490000D02*
X132853733Y-110490000D01*
G04 #@! TO.C,R7*
X146745276Y-110022500D02*
X147254724Y-110022500D01*
X146745276Y-108977500D02*
X147254724Y-108977500D01*
G04 #@! TO.C,R3*
X119745276Y-129977500D02*
X120254724Y-129977500D01*
X119745276Y-131022500D02*
X120254724Y-131022500D01*
G04 #@! TO.C,R9*
X145504724Y-117272500D02*
X144995276Y-117272500D01*
X145504724Y-116227500D02*
X144995276Y-116227500D01*
G04 #@! TO.C,J2*
X146600000Y-177100000D02*
X146600000Y-179600000D01*
X147100000Y-175900000D02*
X147100000Y-177100000D01*
X140900000Y-162400000D02*
X147100000Y-162400000D01*
X147100000Y-177100000D02*
X146600000Y-177100000D01*
X147100000Y-173300000D02*
X149100000Y-173300000D01*
X141400000Y-179600000D02*
X141400000Y-177100000D01*
X140900000Y-177100000D02*
X140900000Y-173900000D01*
X147100000Y-166800000D02*
X147100000Y-173300000D01*
X147100000Y-175900000D02*
X149100000Y-175900000D01*
X146600000Y-179600000D02*
X141400000Y-179600000D01*
X140900000Y-171300000D02*
X140900000Y-162400000D01*
X147100000Y-162400000D02*
X147100000Y-163600000D01*
X141400000Y-177100000D02*
X140900000Y-177100000D01*
G04 #@! TO.C,D1*
X131350000Y-94750000D02*
X138650000Y-94750000D01*
X131350000Y-89250000D02*
X138650000Y-89250000D01*
X138650000Y-94750000D02*
X138650000Y-93600000D01*
G04 #@! TO.C,C3*
X112853733Y-124510000D02*
X113146267Y-124510000D01*
X112853733Y-123490000D02*
X113146267Y-123490000D01*
G04 #@! TO.C,C12*
X116896267Y-134510000D02*
X116603733Y-134510000D01*
X116896267Y-133490000D02*
X116603733Y-133490000D01*
G04 #@! TO.C,C9*
X122146267Y-153490000D02*
X121853733Y-153490000D01*
X122146267Y-154510000D02*
X121853733Y-154510000D01*
G04 #@! TO.C,C6*
X107646267Y-128510000D02*
X107353733Y-128510000D01*
X107646267Y-127490000D02*
X107353733Y-127490000D01*
G04 #@! TO.C,C7*
X107646267Y-123490000D02*
X107353733Y-123490000D01*
X107646267Y-124510000D02*
X107353733Y-124510000D01*
G04 #@! TO.C,SW2*
X101670000Y-137495000D02*
X101670000Y-140095000D01*
X104330000Y-137495000D02*
X104330000Y-140095000D01*
X101670000Y-134895000D02*
X103000000Y-134895000D01*
X101670000Y-140095000D02*
X104330000Y-140095000D01*
X101670000Y-137495000D02*
X104330000Y-137495000D01*
X101670000Y-136225000D02*
X101670000Y-134895000D01*
G04 #@! TD*
M02*
