G04 #@! TF.GenerationSoftware,KiCad,Pcbnew,(6.0.1)*
G04 #@! TF.CreationDate,2022-05-18T20:48:10-07:00*
G04 #@! TF.ProjectId,PCB,5043422e-6b69-4636-9164-5f7063625858,rev?*
G04 #@! TF.SameCoordinates,Original*
G04 #@! TF.FileFunction,Copper,L2,Bot*
G04 #@! TF.FilePolarity,Positive*
%FSLAX46Y46*%
G04 Gerber Fmt 4.6, Leading zero omitted, Abs format (unit mm)*
G04 Created by KiCad (PCBNEW (6.0.1)) date 2022-05-18 20:48:10*
%MOMM*%
%LPD*%
G01*
G04 APERTURE LIST*
%ADD10C,0.100000*%
%ADD11C,0.150000*%
%ADD12C,0.300000*%
%ADD13C,0.400000*%
G04 #@! TA.AperFunction,ComponentPad*
%ADD14R,1.700000X1.700000*%
G04 #@! TD*
G04 #@! TA.AperFunction,ComponentPad*
%ADD15O,1.700000X1.700000*%
G04 #@! TD*
G04 #@! TA.AperFunction,ComponentPad*
%ADD16R,1.600000X1.500000*%
G04 #@! TD*
G04 #@! TA.AperFunction,ComponentPad*
%ADD17C,1.600000*%
G04 #@! TD*
G04 #@! TA.AperFunction,ComponentPad*
%ADD18C,3.000000*%
G04 #@! TD*
G04 #@! TA.AperFunction,ComponentPad*
%ADD19O,1.200000X1.900000*%
G04 #@! TD*
G04 #@! TA.AperFunction,ComponentPad*
%ADD20C,1.450000*%
G04 #@! TD*
G04 #@! TA.AperFunction,ViaPad*
%ADD21C,0.800000*%
G04 #@! TD*
G04 #@! TA.AperFunction,ViaPad*
%ADD22C,4.500000*%
G04 #@! TD*
G04 #@! TA.AperFunction,Conductor*
%ADD23C,0.250000*%
G04 #@! TD*
G04 #@! TA.AperFunction,Conductor*
%ADD24C,0.350000*%
G04 #@! TD*
G04 #@! TA.AperFunction,Conductor*
%ADD25C,0.200000*%
G04 #@! TD*
G04 APERTURE END LIST*
D10*
D11*
X177002200Y-166007200D02*
X177002200Y-198007200D01*
X285002200Y-198007200D01*
X285002200Y-166007200D01*
X177002200Y-166007200D01*
D10*
D11*
X10000000Y-10000000D02*
X10000000Y-200007200D01*
X287002200Y-200007200D01*
X287002200Y-10000000D01*
X10000000Y-10000000D01*
D10*
D11*
X12000000Y-12000000D02*
X12000000Y-198007200D01*
X285002200Y-198007200D01*
X285002200Y-12000000D01*
X12000000Y-12000000D01*
D10*
D11*
X60000000Y-12000000D02*
X60000000Y-10000000D01*
D10*
D11*
X110000000Y-12000000D02*
X110000000Y-10000000D01*
D10*
D11*
X160000000Y-12000000D02*
X160000000Y-10000000D01*
D10*
D11*
X210000000Y-12000000D02*
X210000000Y-10000000D01*
D10*
D11*
X260000000Y-12000000D02*
X260000000Y-10000000D01*
D10*
D11*
X36065476Y-11588095D02*
X35322619Y-11588095D01*
X35694047Y-11588095D02*
X35694047Y-10288095D01*
X35570238Y-10473809D01*
X35446428Y-10597619D01*
X35322619Y-10659523D01*
D10*
D11*
X85322619Y-10411904D02*
X85384523Y-10350000D01*
X85508333Y-10288095D01*
X85817857Y-10288095D01*
X85941666Y-10350000D01*
X86003571Y-10411904D01*
X86065476Y-10535714D01*
X86065476Y-10659523D01*
X86003571Y-10845238D01*
X85260714Y-11588095D01*
X86065476Y-11588095D01*
D10*
D11*
X135260714Y-10288095D02*
X136065476Y-10288095D01*
X135632142Y-10783333D01*
X135817857Y-10783333D01*
X135941666Y-10845238D01*
X136003571Y-10907142D01*
X136065476Y-11030952D01*
X136065476Y-11340476D01*
X136003571Y-11464285D01*
X135941666Y-11526190D01*
X135817857Y-11588095D01*
X135446428Y-11588095D01*
X135322619Y-11526190D01*
X135260714Y-11464285D01*
D10*
D11*
X185941666Y-10721428D02*
X185941666Y-11588095D01*
X185632142Y-10226190D02*
X185322619Y-11154761D01*
X186127380Y-11154761D01*
D10*
D11*
X236003571Y-10288095D02*
X235384523Y-10288095D01*
X235322619Y-10907142D01*
X235384523Y-10845238D01*
X235508333Y-10783333D01*
X235817857Y-10783333D01*
X235941666Y-10845238D01*
X236003571Y-10907142D01*
X236065476Y-11030952D01*
X236065476Y-11340476D01*
X236003571Y-11464285D01*
X235941666Y-11526190D01*
X235817857Y-11588095D01*
X235508333Y-11588095D01*
X235384523Y-11526190D01*
X235322619Y-11464285D01*
D10*
D11*
X285941666Y-10288095D02*
X285694047Y-10288095D01*
X285570238Y-10350000D01*
X285508333Y-10411904D01*
X285384523Y-10597619D01*
X285322619Y-10845238D01*
X285322619Y-11340476D01*
X285384523Y-11464285D01*
X285446428Y-11526190D01*
X285570238Y-11588095D01*
X285817857Y-11588095D01*
X285941666Y-11526190D01*
X286003571Y-11464285D01*
X286065476Y-11340476D01*
X286065476Y-11030952D01*
X286003571Y-10907142D01*
X285941666Y-10845238D01*
X285817857Y-10783333D01*
X285570238Y-10783333D01*
X285446428Y-10845238D01*
X285384523Y-10907142D01*
X285322619Y-11030952D01*
D10*
D11*
X60000000Y-198007200D02*
X60000000Y-200007200D01*
D10*
D11*
X110000000Y-198007200D02*
X110000000Y-200007200D01*
D10*
D11*
X160000000Y-198007200D02*
X160000000Y-200007200D01*
D10*
D11*
X210000000Y-198007200D02*
X210000000Y-200007200D01*
D10*
D11*
X260000000Y-198007200D02*
X260000000Y-200007200D01*
D10*
D11*
X36065476Y-199595295D02*
X35322619Y-199595295D01*
X35694047Y-199595295D02*
X35694047Y-198295295D01*
X35570238Y-198481009D01*
X35446428Y-198604819D01*
X35322619Y-198666723D01*
D10*
D11*
X85322619Y-198419104D02*
X85384523Y-198357200D01*
X85508333Y-198295295D01*
X85817857Y-198295295D01*
X85941666Y-198357200D01*
X86003571Y-198419104D01*
X86065476Y-198542914D01*
X86065476Y-198666723D01*
X86003571Y-198852438D01*
X85260714Y-199595295D01*
X86065476Y-199595295D01*
D10*
D11*
X135260714Y-198295295D02*
X136065476Y-198295295D01*
X135632142Y-198790533D01*
X135817857Y-198790533D01*
X135941666Y-198852438D01*
X136003571Y-198914342D01*
X136065476Y-199038152D01*
X136065476Y-199347676D01*
X136003571Y-199471485D01*
X135941666Y-199533390D01*
X135817857Y-199595295D01*
X135446428Y-199595295D01*
X135322619Y-199533390D01*
X135260714Y-199471485D01*
D10*
D11*
X185941666Y-198728628D02*
X185941666Y-199595295D01*
X185632142Y-198233390D02*
X185322619Y-199161961D01*
X186127380Y-199161961D01*
D10*
D11*
X236003571Y-198295295D02*
X235384523Y-198295295D01*
X235322619Y-198914342D01*
X235384523Y-198852438D01*
X235508333Y-198790533D01*
X235817857Y-198790533D01*
X235941666Y-198852438D01*
X236003571Y-198914342D01*
X236065476Y-199038152D01*
X236065476Y-199347676D01*
X236003571Y-199471485D01*
X235941666Y-199533390D01*
X235817857Y-199595295D01*
X235508333Y-199595295D01*
X235384523Y-199533390D01*
X235322619Y-199471485D01*
D10*
D11*
X285941666Y-198295295D02*
X285694047Y-198295295D01*
X285570238Y-198357200D01*
X285508333Y-198419104D01*
X285384523Y-198604819D01*
X285322619Y-198852438D01*
X285322619Y-199347676D01*
X285384523Y-199471485D01*
X285446428Y-199533390D01*
X285570238Y-199595295D01*
X285817857Y-199595295D01*
X285941666Y-199533390D01*
X286003571Y-199471485D01*
X286065476Y-199347676D01*
X286065476Y-199038152D01*
X286003571Y-198914342D01*
X285941666Y-198852438D01*
X285817857Y-198790533D01*
X285570238Y-198790533D01*
X285446428Y-198852438D01*
X285384523Y-198914342D01*
X285322619Y-199038152D01*
D10*
D11*
X10000000Y-60000000D02*
X12000000Y-60000000D01*
D10*
D11*
X10000000Y-110000000D02*
X12000000Y-110000000D01*
D10*
D11*
X10000000Y-160000000D02*
X12000000Y-160000000D01*
D10*
D11*
X10690476Y-35216666D02*
X11309523Y-35216666D01*
X10566666Y-35588095D02*
X11000000Y-34288095D01*
X11433333Y-35588095D01*
D10*
D11*
X11092857Y-84907142D02*
X11278571Y-84969047D01*
X11340476Y-85030952D01*
X11402380Y-85154761D01*
X11402380Y-85340476D01*
X11340476Y-85464285D01*
X11278571Y-85526190D01*
X11154761Y-85588095D01*
X10659523Y-85588095D01*
X10659523Y-84288095D01*
X11092857Y-84288095D01*
X11216666Y-84350000D01*
X11278571Y-84411904D01*
X11340476Y-84535714D01*
X11340476Y-84659523D01*
X11278571Y-84783333D01*
X11216666Y-84845238D01*
X11092857Y-84907142D01*
X10659523Y-84907142D01*
D10*
D11*
X11402380Y-135464285D02*
X11340476Y-135526190D01*
X11154761Y-135588095D01*
X11030952Y-135588095D01*
X10845238Y-135526190D01*
X10721428Y-135402380D01*
X10659523Y-135278571D01*
X10597619Y-135030952D01*
X10597619Y-134845238D01*
X10659523Y-134597619D01*
X10721428Y-134473809D01*
X10845238Y-134350000D01*
X11030952Y-134288095D01*
X11154761Y-134288095D01*
X11340476Y-134350000D01*
X11402380Y-134411904D01*
D10*
D11*
X10659523Y-185588095D02*
X10659523Y-184288095D01*
X10969047Y-184288095D01*
X11154761Y-184350000D01*
X11278571Y-184473809D01*
X11340476Y-184597619D01*
X11402380Y-184845238D01*
X11402380Y-185030952D01*
X11340476Y-185278571D01*
X11278571Y-185402380D01*
X11154761Y-185526190D01*
X10969047Y-185588095D01*
X10659523Y-185588095D01*
D10*
D11*
X287002200Y-60000000D02*
X285002200Y-60000000D01*
D10*
D11*
X287002200Y-110000000D02*
X285002200Y-110000000D01*
D10*
D11*
X287002200Y-160000000D02*
X285002200Y-160000000D01*
D10*
D11*
X285692676Y-35216666D02*
X286311723Y-35216666D01*
X285568866Y-35588095D02*
X286002200Y-34288095D01*
X286435533Y-35588095D01*
D10*
D11*
X286095057Y-84907142D02*
X286280771Y-84969047D01*
X286342676Y-85030952D01*
X286404580Y-85154761D01*
X286404580Y-85340476D01*
X286342676Y-85464285D01*
X286280771Y-85526190D01*
X286156961Y-85588095D01*
X285661723Y-85588095D01*
X285661723Y-84288095D01*
X286095057Y-84288095D01*
X286218866Y-84350000D01*
X286280771Y-84411904D01*
X286342676Y-84535714D01*
X286342676Y-84659523D01*
X286280771Y-84783333D01*
X286218866Y-84845238D01*
X286095057Y-84907142D01*
X285661723Y-84907142D01*
D10*
D11*
X286404580Y-135464285D02*
X286342676Y-135526190D01*
X286156961Y-135588095D01*
X286033152Y-135588095D01*
X285847438Y-135526190D01*
X285723628Y-135402380D01*
X285661723Y-135278571D01*
X285599819Y-135030952D01*
X285599819Y-134845238D01*
X285661723Y-134597619D01*
X285723628Y-134473809D01*
X285847438Y-134350000D01*
X286033152Y-134288095D01*
X286156961Y-134288095D01*
X286342676Y-134350000D01*
X286404580Y-134411904D01*
D10*
D11*
X285661723Y-185588095D02*
X285661723Y-184288095D01*
X285971247Y-184288095D01*
X286156961Y-184350000D01*
X286280771Y-184473809D01*
X286342676Y-184597619D01*
X286404580Y-184845238D01*
X286404580Y-185030952D01*
X286342676Y-185278571D01*
X286280771Y-185402380D01*
X286156961Y-185526190D01*
X285971247Y-185588095D01*
X285661723Y-185588095D01*
D10*
D11*
X200434342Y-193785771D02*
X200434342Y-192285771D01*
X200791485Y-192285771D01*
X201005771Y-192357200D01*
X201148628Y-192500057D01*
X201220057Y-192642914D01*
X201291485Y-192928628D01*
X201291485Y-193142914D01*
X201220057Y-193428628D01*
X201148628Y-193571485D01*
X201005771Y-193714342D01*
X200791485Y-193785771D01*
X200434342Y-193785771D01*
X202577200Y-193785771D02*
X202577200Y-193000057D01*
X202505771Y-192857200D01*
X202362914Y-192785771D01*
X202077200Y-192785771D01*
X201934342Y-192857200D01*
X202577200Y-193714342D02*
X202434342Y-193785771D01*
X202077200Y-193785771D01*
X201934342Y-193714342D01*
X201862914Y-193571485D01*
X201862914Y-193428628D01*
X201934342Y-193285771D01*
X202077200Y-193214342D01*
X202434342Y-193214342D01*
X202577200Y-193142914D01*
X203077200Y-192785771D02*
X203648628Y-192785771D01*
X203291485Y-192285771D02*
X203291485Y-193571485D01*
X203362914Y-193714342D01*
X203505771Y-193785771D01*
X203648628Y-193785771D01*
X204720057Y-193714342D02*
X204577200Y-193785771D01*
X204291485Y-193785771D01*
X204148628Y-193714342D01*
X204077200Y-193571485D01*
X204077200Y-193000057D01*
X204148628Y-192857200D01*
X204291485Y-192785771D01*
X204577200Y-192785771D01*
X204720057Y-192857200D01*
X204791485Y-193000057D01*
X204791485Y-193142914D01*
X204077200Y-193285771D01*
X205434342Y-193642914D02*
X205505771Y-193714342D01*
X205434342Y-193785771D01*
X205362914Y-193714342D01*
X205434342Y-193642914D01*
X205434342Y-193785771D01*
X205434342Y-192857200D02*
X205505771Y-192928628D01*
X205434342Y-193000057D01*
X205362914Y-192928628D01*
X205434342Y-192857200D01*
X205434342Y-193000057D01*
D10*
D11*
X177002200Y-194507200D02*
X285002200Y-194507200D01*
D10*
D11*
X178434342Y-196585771D02*
X178434342Y-195085771D01*
X179291485Y-196585771D02*
X178648628Y-195728628D01*
X179291485Y-195085771D02*
X178434342Y-195942914D01*
X179934342Y-196585771D02*
X179934342Y-195585771D01*
X179934342Y-195085771D02*
X179862914Y-195157200D01*
X179934342Y-195228628D01*
X180005771Y-195157200D01*
X179934342Y-195085771D01*
X179934342Y-195228628D01*
X181505771Y-196442914D02*
X181434342Y-196514342D01*
X181220057Y-196585771D01*
X181077200Y-196585771D01*
X180862914Y-196514342D01*
X180720057Y-196371485D01*
X180648628Y-196228628D01*
X180577200Y-195942914D01*
X180577200Y-195728628D01*
X180648628Y-195442914D01*
X180720057Y-195300057D01*
X180862914Y-195157200D01*
X181077200Y-195085771D01*
X181220057Y-195085771D01*
X181434342Y-195157200D01*
X181505771Y-195228628D01*
X182791485Y-196585771D02*
X182791485Y-195800057D01*
X182720057Y-195657200D01*
X182577200Y-195585771D01*
X182291485Y-195585771D01*
X182148628Y-195657200D01*
X182791485Y-196514342D02*
X182648628Y-196585771D01*
X182291485Y-196585771D01*
X182148628Y-196514342D01*
X182077200Y-196371485D01*
X182077200Y-196228628D01*
X182148628Y-196085771D01*
X182291485Y-196014342D01*
X182648628Y-196014342D01*
X182791485Y-195942914D01*
X184148628Y-196585771D02*
X184148628Y-195085771D01*
X184148628Y-196514342D02*
X184005771Y-196585771D01*
X183720057Y-196585771D01*
X183577200Y-196514342D01*
X183505771Y-196442914D01*
X183434342Y-196300057D01*
X183434342Y-195871485D01*
X183505771Y-195728628D01*
X183577200Y-195657200D01*
X183720057Y-195585771D01*
X184005771Y-195585771D01*
X184148628Y-195657200D01*
X186005771Y-195800057D02*
X186505771Y-195800057D01*
X186720057Y-196585771D02*
X186005771Y-196585771D01*
X186005771Y-195085771D01*
X186720057Y-195085771D01*
X187362914Y-196442914D02*
X187434342Y-196514342D01*
X187362914Y-196585771D01*
X187291485Y-196514342D01*
X187362914Y-196442914D01*
X187362914Y-196585771D01*
X188077200Y-196585771D02*
X188077200Y-195085771D01*
X188434342Y-195085771D01*
X188648628Y-195157200D01*
X188791485Y-195300057D01*
X188862914Y-195442914D01*
X188934342Y-195728628D01*
X188934342Y-195942914D01*
X188862914Y-196228628D01*
X188791485Y-196371485D01*
X188648628Y-196514342D01*
X188434342Y-196585771D01*
X188077200Y-196585771D01*
X189577200Y-196442914D02*
X189648628Y-196514342D01*
X189577200Y-196585771D01*
X189505771Y-196514342D01*
X189577200Y-196442914D01*
X189577200Y-196585771D01*
X190220057Y-196157200D02*
X190934342Y-196157200D01*
X190077200Y-196585771D02*
X190577200Y-195085771D01*
X191077200Y-196585771D01*
X191577200Y-196442914D02*
X191648628Y-196514342D01*
X191577200Y-196585771D01*
X191505771Y-196514342D01*
X191577200Y-196442914D01*
X191577200Y-196585771D01*
X194577200Y-196585771D02*
X194577200Y-195085771D01*
X194720057Y-196014342D02*
X195148628Y-196585771D01*
X195148628Y-195585771D02*
X194577200Y-196157200D01*
X195791485Y-196585771D02*
X195791485Y-195585771D01*
X195791485Y-195085771D02*
X195720057Y-195157200D01*
X195791485Y-195228628D01*
X195862914Y-195157200D01*
X195791485Y-195085771D01*
X195791485Y-195228628D01*
X197148628Y-196514342D02*
X197005771Y-196585771D01*
X196720057Y-196585771D01*
X196577200Y-196514342D01*
X196505771Y-196442914D01*
X196434342Y-196300057D01*
X196434342Y-195871485D01*
X196505771Y-195728628D01*
X196577200Y-195657200D01*
X196720057Y-195585771D01*
X197005771Y-195585771D01*
X197148628Y-195657200D01*
X198434342Y-196585771D02*
X198434342Y-195800057D01*
X198362914Y-195657200D01*
X198220057Y-195585771D01*
X197934342Y-195585771D01*
X197791485Y-195657200D01*
X198434342Y-196514342D02*
X198291485Y-196585771D01*
X197934342Y-196585771D01*
X197791485Y-196514342D01*
X197720057Y-196371485D01*
X197720057Y-196228628D01*
X197791485Y-196085771D01*
X197934342Y-196014342D01*
X198291485Y-196014342D01*
X198434342Y-195942914D01*
X199791485Y-196585771D02*
X199791485Y-195085771D01*
X199791485Y-196514342D02*
X199648628Y-196585771D01*
X199362914Y-196585771D01*
X199220057Y-196514342D01*
X199148628Y-196442914D01*
X199077200Y-196300057D01*
X199077200Y-195871485D01*
X199148628Y-195728628D01*
X199220057Y-195657200D01*
X199362914Y-195585771D01*
X199648628Y-195585771D01*
X199791485Y-195657200D01*
X202077200Y-197157200D02*
X202005771Y-197085771D01*
X201862914Y-196871485D01*
X201791485Y-196728628D01*
X201720057Y-196514342D01*
X201648628Y-196157200D01*
X201648628Y-195871485D01*
X201720057Y-195514342D01*
X201791485Y-195300057D01*
X201862914Y-195157200D01*
X202005771Y-194942914D01*
X202077200Y-194871485D01*
X203291485Y-195085771D02*
X203005771Y-195085771D01*
X202862914Y-195157200D01*
X202791485Y-195228628D01*
X202648628Y-195442914D01*
X202577200Y-195728628D01*
X202577200Y-196300057D01*
X202648628Y-196442914D01*
X202720057Y-196514342D01*
X202862914Y-196585771D01*
X203148628Y-196585771D01*
X203291485Y-196514342D01*
X203362914Y-196442914D01*
X203434342Y-196300057D01*
X203434342Y-195942914D01*
X203362914Y-195800057D01*
X203291485Y-195728628D01*
X203148628Y-195657200D01*
X202862914Y-195657200D01*
X202720057Y-195728628D01*
X202648628Y-195800057D01*
X202577200Y-195942914D01*
X204077200Y-196442914D02*
X204148628Y-196514342D01*
X204077200Y-196585771D01*
X204005771Y-196514342D01*
X204077200Y-196442914D01*
X204077200Y-196585771D01*
X205077200Y-195085771D02*
X205220057Y-195085771D01*
X205362914Y-195157200D01*
X205434342Y-195228628D01*
X205505771Y-195371485D01*
X205577200Y-195657200D01*
X205577200Y-196014342D01*
X205505771Y-196300057D01*
X205434342Y-196442914D01*
X205362914Y-196514342D01*
X205220057Y-196585771D01*
X205077200Y-196585771D01*
X204934342Y-196514342D01*
X204862914Y-196442914D01*
X204791485Y-196300057D01*
X204720057Y-196014342D01*
X204720057Y-195657200D01*
X204791485Y-195371485D01*
X204862914Y-195228628D01*
X204934342Y-195157200D01*
X205077200Y-195085771D01*
X206220057Y-196442914D02*
X206291485Y-196514342D01*
X206220057Y-196585771D01*
X206148628Y-196514342D01*
X206220057Y-196442914D01*
X206220057Y-196585771D01*
X207720057Y-196585771D02*
X206862914Y-196585771D01*
X207291485Y-196585771D02*
X207291485Y-195085771D01*
X207148628Y-195300057D01*
X207005771Y-195442914D01*
X206862914Y-195514342D01*
X208220057Y-197157200D02*
X208291485Y-197085771D01*
X208434342Y-196871485D01*
X208505771Y-196728628D01*
X208577200Y-196514342D01*
X208648628Y-196157200D01*
X208648628Y-195871485D01*
X208577200Y-195514342D01*
X208505771Y-195300057D01*
X208434342Y-195157200D01*
X208291485Y-194942914D01*
X208220057Y-194871485D01*
D10*
D11*
X177002200Y-191507200D02*
X285002200Y-191507200D01*
D10*
D12*
X264411485Y-193785771D02*
X263911485Y-193071485D01*
X263554342Y-193785771D02*
X263554342Y-192285771D01*
X264125771Y-192285771D01*
X264268628Y-192357200D01*
X264340057Y-192428628D01*
X264411485Y-192571485D01*
X264411485Y-192785771D01*
X264340057Y-192928628D01*
X264268628Y-193000057D01*
X264125771Y-193071485D01*
X263554342Y-193071485D01*
X265625771Y-193714342D02*
X265482914Y-193785771D01*
X265197200Y-193785771D01*
X265054342Y-193714342D01*
X264982914Y-193571485D01*
X264982914Y-193000057D01*
X265054342Y-192857200D01*
X265197200Y-192785771D01*
X265482914Y-192785771D01*
X265625771Y-192857200D01*
X265697200Y-193000057D01*
X265697200Y-193142914D01*
X264982914Y-193285771D01*
X266197200Y-192785771D02*
X266554342Y-193785771D01*
X266911485Y-192785771D01*
X267482914Y-193642914D02*
X267554342Y-193714342D01*
X267482914Y-193785771D01*
X267411485Y-193714342D01*
X267482914Y-193642914D01*
X267482914Y-193785771D01*
X267482914Y-192857200D02*
X267554342Y-192928628D01*
X267482914Y-193000057D01*
X267411485Y-192928628D01*
X267482914Y-192857200D01*
X267482914Y-193000057D01*
D10*
D11*
X178362914Y-193714342D02*
X178577200Y-193785771D01*
X178934342Y-193785771D01*
X179077200Y-193714342D01*
X179148628Y-193642914D01*
X179220057Y-193500057D01*
X179220057Y-193357200D01*
X179148628Y-193214342D01*
X179077200Y-193142914D01*
X178934342Y-193071485D01*
X178648628Y-193000057D01*
X178505771Y-192928628D01*
X178434342Y-192857200D01*
X178362914Y-192714342D01*
X178362914Y-192571485D01*
X178434342Y-192428628D01*
X178505771Y-192357200D01*
X178648628Y-192285771D01*
X179005771Y-192285771D01*
X179220057Y-192357200D01*
X179862914Y-193785771D02*
X179862914Y-192785771D01*
X179862914Y-192285771D02*
X179791485Y-192357200D01*
X179862914Y-192428628D01*
X179934342Y-192357200D01*
X179862914Y-192285771D01*
X179862914Y-192428628D01*
X180434342Y-192785771D02*
X181220057Y-192785771D01*
X180434342Y-193785771D01*
X181220057Y-193785771D01*
X182362914Y-193714342D02*
X182220057Y-193785771D01*
X181934342Y-193785771D01*
X181791485Y-193714342D01*
X181720057Y-193571485D01*
X181720057Y-193000057D01*
X181791485Y-192857200D01*
X181934342Y-192785771D01*
X182220057Y-192785771D01*
X182362914Y-192857200D01*
X182434342Y-193000057D01*
X182434342Y-193142914D01*
X181720057Y-193285771D01*
X183077200Y-193642914D02*
X183148628Y-193714342D01*
X183077200Y-193785771D01*
X183005771Y-193714342D01*
X183077200Y-193642914D01*
X183077200Y-193785771D01*
X183077200Y-192857200D02*
X183148628Y-192928628D01*
X183077200Y-193000057D01*
X183005771Y-192928628D01*
X183077200Y-192857200D01*
X183077200Y-193000057D01*
X184862914Y-193357200D02*
X185577200Y-193357200D01*
X184720057Y-193785771D02*
X185220057Y-192285771D01*
X185720057Y-193785771D01*
X186862914Y-192785771D02*
X186862914Y-193785771D01*
X186505771Y-192214342D02*
X186148628Y-193285771D01*
X187077200Y-193285771D01*
D10*
D11*
X263434342Y-196585771D02*
X263434342Y-195085771D01*
X264791485Y-196585771D02*
X264791485Y-195085771D01*
X264791485Y-196514342D02*
X264648628Y-196585771D01*
X264362914Y-196585771D01*
X264220057Y-196514342D01*
X264148628Y-196442914D01*
X264077200Y-196300057D01*
X264077200Y-195871485D01*
X264148628Y-195728628D01*
X264220057Y-195657200D01*
X264362914Y-195585771D01*
X264648628Y-195585771D01*
X264791485Y-195657200D01*
X265505771Y-196442914D02*
X265577200Y-196514342D01*
X265505771Y-196585771D01*
X265434342Y-196514342D01*
X265505771Y-196442914D01*
X265505771Y-196585771D01*
X265505771Y-195657200D02*
X265577200Y-195728628D01*
X265505771Y-195800057D01*
X265434342Y-195728628D01*
X265505771Y-195657200D01*
X265505771Y-195800057D01*
X268148628Y-196585771D02*
X267291485Y-196585771D01*
X267720057Y-196585771D02*
X267720057Y-195085771D01*
X267577200Y-195300057D01*
X267434342Y-195442914D01*
X267291485Y-195514342D01*
X269862914Y-195014342D02*
X268577200Y-196942914D01*
X271148628Y-196585771D02*
X270291485Y-196585771D01*
X270720057Y-196585771D02*
X270720057Y-195085771D01*
X270577200Y-195300057D01*
X270434342Y-195442914D01*
X270291485Y-195514342D01*
D10*
D11*
X177002200Y-187507200D02*
X285002200Y-187507200D01*
D10*
D13*
X178714580Y-188211961D02*
X179857438Y-188211961D01*
X179036009Y-190211961D02*
X179286009Y-188211961D01*
X180274104Y-190211961D02*
X180440771Y-188878628D01*
X180524104Y-188211961D02*
X180416961Y-188307200D01*
X180500295Y-188402438D01*
X180607438Y-188307200D01*
X180524104Y-188211961D01*
X180500295Y-188402438D01*
X181107438Y-188878628D02*
X181869342Y-188878628D01*
X181476485Y-188211961D02*
X181262200Y-189926247D01*
X181333628Y-190116723D01*
X181512200Y-190211961D01*
X181702676Y-190211961D01*
X182655057Y-190211961D02*
X182476485Y-190116723D01*
X182405057Y-189926247D01*
X182619342Y-188211961D01*
X184190771Y-190116723D02*
X183988390Y-190211961D01*
X183607438Y-190211961D01*
X183428866Y-190116723D01*
X183357438Y-189926247D01*
X183452676Y-189164342D01*
X183571723Y-188973866D01*
X183774104Y-188878628D01*
X184155057Y-188878628D01*
X184333628Y-188973866D01*
X184405057Y-189164342D01*
X184381247Y-189354819D01*
X183405057Y-189545295D01*
X185155057Y-190021485D02*
X185238390Y-190116723D01*
X185131247Y-190211961D01*
X185047914Y-190116723D01*
X185155057Y-190021485D01*
X185131247Y-190211961D01*
X185286009Y-188973866D02*
X185369342Y-189069104D01*
X185262200Y-189164342D01*
X185178866Y-189069104D01*
X185286009Y-188973866D01*
X185262200Y-189164342D01*
D10*
D11*
X178934342Y-185600057D02*
X178434342Y-185600057D01*
X178434342Y-186385771D02*
X178434342Y-184885771D01*
X179148628Y-184885771D01*
X179720057Y-186385771D02*
X179720057Y-185385771D01*
X179720057Y-184885771D02*
X179648628Y-184957200D01*
X179720057Y-185028628D01*
X179791485Y-184957200D01*
X179720057Y-184885771D01*
X179720057Y-185028628D01*
X180648628Y-186385771D02*
X180505771Y-186314342D01*
X180434342Y-186171485D01*
X180434342Y-184885771D01*
X181791485Y-186314342D02*
X181648628Y-186385771D01*
X181362914Y-186385771D01*
X181220057Y-186314342D01*
X181148628Y-186171485D01*
X181148628Y-185600057D01*
X181220057Y-185457200D01*
X181362914Y-185385771D01*
X181648628Y-185385771D01*
X181791485Y-185457200D01*
X181862914Y-185600057D01*
X181862914Y-185742914D01*
X181148628Y-185885771D01*
X182505771Y-186242914D02*
X182577200Y-186314342D01*
X182505771Y-186385771D01*
X182434342Y-186314342D01*
X182505771Y-186242914D01*
X182505771Y-186385771D01*
X182505771Y-185457200D02*
X182577200Y-185528628D01*
X182505771Y-185600057D01*
X182434342Y-185528628D01*
X182505771Y-185457200D01*
X182505771Y-185600057D01*
X184362914Y-186385771D02*
X184362914Y-184885771D01*
X184934342Y-184885771D01*
X185077200Y-184957200D01*
X185148628Y-185028628D01*
X185220057Y-185171485D01*
X185220057Y-185385771D01*
X185148628Y-185528628D01*
X185077200Y-185600057D01*
X184934342Y-185671485D01*
X184362914Y-185671485D01*
X186720057Y-186242914D02*
X186648628Y-186314342D01*
X186434342Y-186385771D01*
X186291485Y-186385771D01*
X186077200Y-186314342D01*
X185934342Y-186171485D01*
X185862914Y-186028628D01*
X185791485Y-185742914D01*
X185791485Y-185528628D01*
X185862914Y-185242914D01*
X185934342Y-185100057D01*
X186077200Y-184957200D01*
X186291485Y-184885771D01*
X186434342Y-184885771D01*
X186648628Y-184957200D01*
X186720057Y-185028628D01*
X187862914Y-185600057D02*
X188077200Y-185671485D01*
X188148628Y-185742914D01*
X188220057Y-185885771D01*
X188220057Y-186100057D01*
X188148628Y-186242914D01*
X188077200Y-186314342D01*
X187934342Y-186385771D01*
X187362914Y-186385771D01*
X187362914Y-184885771D01*
X187862914Y-184885771D01*
X188005771Y-184957200D01*
X188077200Y-185028628D01*
X188148628Y-185171485D01*
X188148628Y-185314342D01*
X188077200Y-185457200D01*
X188005771Y-185528628D01*
X187862914Y-185600057D01*
X187362914Y-185600057D01*
X188862914Y-186242914D02*
X188934342Y-186314342D01*
X188862914Y-186385771D01*
X188791485Y-186314342D01*
X188862914Y-186242914D01*
X188862914Y-186385771D01*
X189577200Y-186385771D02*
X189577200Y-184885771D01*
X189720057Y-185814342D02*
X190148628Y-186385771D01*
X190148628Y-185385771D02*
X189577200Y-185957200D01*
X190791485Y-186385771D02*
X190791485Y-185385771D01*
X190791485Y-184885771D02*
X190720057Y-184957200D01*
X190791485Y-185028628D01*
X190862914Y-184957200D01*
X190791485Y-184885771D01*
X190791485Y-185028628D01*
X192148628Y-186314342D02*
X192005771Y-186385771D01*
X191720057Y-186385771D01*
X191577200Y-186314342D01*
X191505771Y-186242914D01*
X191434342Y-186100057D01*
X191434342Y-185671485D01*
X191505771Y-185528628D01*
X191577200Y-185457200D01*
X191720057Y-185385771D01*
X192005771Y-185385771D01*
X192148628Y-185457200D01*
X193434342Y-186385771D02*
X193434342Y-185600057D01*
X193362914Y-185457200D01*
X193220057Y-185385771D01*
X192934342Y-185385771D01*
X192791485Y-185457200D01*
X193434342Y-186314342D02*
X193291485Y-186385771D01*
X192934342Y-186385771D01*
X192791485Y-186314342D01*
X192720057Y-186171485D01*
X192720057Y-186028628D01*
X192791485Y-185885771D01*
X192934342Y-185814342D01*
X193291485Y-185814342D01*
X193434342Y-185742914D01*
X194791485Y-186385771D02*
X194791485Y-184885771D01*
X194791485Y-186314342D02*
X194648628Y-186385771D01*
X194362914Y-186385771D01*
X194220057Y-186314342D01*
X194148628Y-186242914D01*
X194077200Y-186100057D01*
X194077200Y-185671485D01*
X194148628Y-185528628D01*
X194220057Y-185457200D01*
X194362914Y-185385771D01*
X194648628Y-185385771D01*
X194791485Y-185457200D01*
X195148628Y-186528628D02*
X196291485Y-186528628D01*
X196648628Y-185385771D02*
X196648628Y-186885771D01*
X196648628Y-185457200D02*
X196791485Y-185385771D01*
X197077200Y-185385771D01*
X197220057Y-185457200D01*
X197291485Y-185528628D01*
X197362914Y-185671485D01*
X197362914Y-186100057D01*
X197291485Y-186242914D01*
X197220057Y-186314342D01*
X197077200Y-186385771D01*
X196791485Y-186385771D01*
X196648628Y-186314342D01*
X198648628Y-186314342D02*
X198505771Y-186385771D01*
X198220057Y-186385771D01*
X198077200Y-186314342D01*
X198005771Y-186242914D01*
X197934342Y-186100057D01*
X197934342Y-185671485D01*
X198005771Y-185528628D01*
X198077200Y-185457200D01*
X198220057Y-185385771D01*
X198505771Y-185385771D01*
X198648628Y-185457200D01*
X199291485Y-186385771D02*
X199291485Y-184885771D01*
X199291485Y-185457200D02*
X199434342Y-185385771D01*
X199720057Y-185385771D01*
X199862914Y-185457200D01*
X199934342Y-185528628D01*
X200005771Y-185671485D01*
X200005771Y-186100057D01*
X199934342Y-186242914D01*
X199862914Y-186314342D01*
X199720057Y-186385771D01*
X199434342Y-186385771D01*
X199291485Y-186314342D01*
D10*
D11*
X177002200Y-181507200D02*
X285002200Y-181507200D01*
D10*
D11*
X178362914Y-183614342D02*
X178577200Y-183685771D01*
X178934342Y-183685771D01*
X179077200Y-183614342D01*
X179148628Y-183542914D01*
X179220057Y-183400057D01*
X179220057Y-183257200D01*
X179148628Y-183114342D01*
X179077200Y-183042914D01*
X178934342Y-182971485D01*
X178648628Y-182900057D01*
X178505771Y-182828628D01*
X178434342Y-182757200D01*
X178362914Y-182614342D01*
X178362914Y-182471485D01*
X178434342Y-182328628D01*
X178505771Y-182257200D01*
X178648628Y-182185771D01*
X179005771Y-182185771D01*
X179220057Y-182257200D01*
X179862914Y-183685771D02*
X179862914Y-182185771D01*
X180505771Y-183685771D02*
X180505771Y-182900057D01*
X180434342Y-182757200D01*
X180291485Y-182685771D01*
X180077200Y-182685771D01*
X179934342Y-182757200D01*
X179862914Y-182828628D01*
X181791485Y-183614342D02*
X181648628Y-183685771D01*
X181362914Y-183685771D01*
X181220057Y-183614342D01*
X181148628Y-183471485D01*
X181148628Y-182900057D01*
X181220057Y-182757200D01*
X181362914Y-182685771D01*
X181648628Y-182685771D01*
X181791485Y-182757200D01*
X181862914Y-182900057D01*
X181862914Y-183042914D01*
X181148628Y-183185771D01*
X183077200Y-183614342D02*
X182934342Y-183685771D01*
X182648628Y-183685771D01*
X182505771Y-183614342D01*
X182434342Y-183471485D01*
X182434342Y-182900057D01*
X182505771Y-182757200D01*
X182648628Y-182685771D01*
X182934342Y-182685771D01*
X183077200Y-182757200D01*
X183148628Y-182900057D01*
X183148628Y-183042914D01*
X182434342Y-183185771D01*
X183577200Y-182685771D02*
X184148628Y-182685771D01*
X183791485Y-182185771D02*
X183791485Y-183471485D01*
X183862914Y-183614342D01*
X184005771Y-183685771D01*
X184148628Y-183685771D01*
X184648628Y-183542914D02*
X184720057Y-183614342D01*
X184648628Y-183685771D01*
X184577200Y-183614342D01*
X184648628Y-183542914D01*
X184648628Y-183685771D01*
X184648628Y-182757200D02*
X184720057Y-182828628D01*
X184648628Y-182900057D01*
X184577200Y-182828628D01*
X184648628Y-182757200D01*
X184648628Y-182900057D01*
D10*
D12*
D10*
D11*
D10*
D11*
D10*
D11*
D10*
D11*
D10*
D11*
X197002200Y-191507200D02*
X197002200Y-194507200D01*
D10*
D11*
X261002200Y-191507200D02*
X261002200Y-198007200D01*
D14*
G04 #@! TO.P,SW4,1,1*
G04 #@! TO.N,Earth*
X152200000Y-119475000D03*
D15*
G04 #@! TO.P,SW4,2,2*
G04 #@! TO.N,CHIP_PU*
X152200000Y-116935000D03*
G04 #@! TD*
D16*
G04 #@! TO.P,J1,1,VBUS*
G04 #@! TO.N,S4_VBUS*
X110500000Y-166640000D03*
D17*
G04 #@! TO.P,J1,2,D-*
G04 #@! TO.N,ESD_S4_DN*
X113000000Y-166640000D03*
G04 #@! TO.P,J1,3,D+*
G04 #@! TO.N,ESD_S4_DP*
X115000000Y-166640000D03*
G04 #@! TO.P,J1,4,GND*
G04 #@! TO.N,Earth*
X117500000Y-166640000D03*
D18*
G04 #@! TO.P,J1,5,Shield*
G04 #@! TO.N,unconnected-(J1-Pad5)*
X120570000Y-169350000D03*
X107430000Y-169350000D03*
G04 #@! TD*
D19*
G04 #@! TO.P,J3,6,Shield*
G04 #@! TO.N,unconnected-(J3-Pad6)*
X127500000Y-178529500D03*
X134500000Y-178529500D03*
D20*
X128500000Y-175829500D03*
X133500000Y-175829500D03*
G04 #@! TD*
D14*
G04 #@! TO.P,SW2,1,1*
G04 #@! TO.N,Earth*
X152200000Y-126325000D03*
D15*
G04 #@! TO.P,SW2,2,2*
G04 #@! TO.N,Net-(C5-Pad1)*
X152200000Y-128865000D03*
G04 #@! TD*
D21*
G04 #@! TO.N,Earth*
X112200000Y-131100000D03*
X111750000Y-124000000D03*
G04 #@! TO.N,Net-(Q1-Pad2)*
X136600000Y-90000000D03*
X134800000Y-105200000D03*
G04 #@! TO.N,CHIP_PU*
X123400000Y-98400000D03*
X140800000Y-98400000D03*
X135800000Y-107300000D03*
X117100000Y-127700000D03*
G04 #@! TO.N,VBUS*
X130800000Y-158800000D03*
X127800000Y-89600000D03*
G04 #@! TO.N,Net-(R10-Pad2)*
X121000000Y-156400000D03*
X121000000Y-151750000D03*
G04 #@! TO.N,Earth*
X139000000Y-109200000D03*
X125900000Y-172500000D03*
D22*
X150750000Y-176750000D03*
D21*
X121925000Y-92925000D03*
X115000000Y-156750000D03*
X132500000Y-173500000D03*
X152200000Y-122800000D03*
X116000000Y-144750000D03*
X140400000Y-115600000D03*
X124449500Y-145750000D03*
D22*
X102250000Y-176750000D03*
D21*
X103000000Y-159000000D03*
X144800000Y-159000000D03*
X133200000Y-115600000D03*
X142000000Y-136500000D03*
X129500000Y-154500000D03*
X107600000Y-122300000D03*
X105900000Y-139100000D03*
D22*
X150750000Y-88250000D03*
X102250000Y-88250000D03*
D21*
G04 #@! TO.N,BOOT*
X127750000Y-131000000D03*
X127750000Y-102250000D03*
G04 #@! TO.N,ESD_DP*
X116500000Y-150500000D03*
X135000000Y-170000000D03*
G04 #@! TO.N,ESD_DN*
X135000000Y-168675000D03*
X117250000Y-151250000D03*
G04 #@! TO.N,ESD_S4_DP*
X121402487Y-164493475D03*
X124000000Y-122250000D03*
G04 #@! TO.N,ESD_S4_DN*
X122100000Y-163700000D03*
X122750000Y-122250000D03*
G04 #@! TO.N,U0_RXD*
X115000000Y-142970469D03*
X112700000Y-98750000D03*
G04 #@! TO.N,U0_TXD*
X111400000Y-99800000D03*
X115000000Y-141840938D03*
G04 #@! TO.N,ANT_RX*
X144000000Y-136500000D03*
X143750000Y-131250000D03*
G04 #@! TO.N,ANT_RTS*
X133871500Y-128871500D03*
X133750000Y-124250000D03*
G04 #@! TO.N,Net-(C5-Pad1)*
X131537500Y-115937500D03*
X148200000Y-124800000D03*
G04 #@! TO.N,Net-(R3-Pad2)*
X121500000Y-122250000D03*
X108600000Y-149000011D03*
G04 #@! TO.N,Net-(R6-Pad2)*
X128800000Y-109100000D03*
X134750000Y-162600000D03*
G04 #@! TO.N,Net-(Q2-Pad2)*
X120800000Y-130300000D03*
X115000000Y-144100000D03*
G04 #@! TD*
D23*
G04 #@! TO.N,Net-(R6-Pad2)*
X128750000Y-109150000D02*
X128800000Y-109100000D01*
X132600000Y-162600000D02*
X128750000Y-158750000D01*
X134750000Y-162600000D02*
X132600000Y-162600000D01*
X128750000Y-158750000D02*
X128750000Y-109150000D01*
G04 #@! TO.N,Net-(Q1-Pad2)*
X134800000Y-105200000D02*
X136600000Y-103400000D01*
X136600000Y-103400000D02*
X136600000Y-90000000D01*
G04 #@! TO.N,CHIP_PU*
X135800000Y-107300000D02*
X137800000Y-105300000D01*
X117100000Y-127700000D02*
X117200000Y-127600000D01*
X137800000Y-105300000D02*
X137800000Y-101400000D01*
X117200000Y-127600000D02*
X117200000Y-104550000D01*
X137800000Y-101400000D02*
X140800000Y-98400000D01*
X117200000Y-104550000D02*
X123350000Y-98400000D01*
X123350000Y-98400000D02*
X123400000Y-98400000D01*
D24*
G04 #@! TO.N,VBUS*
X130762989Y-158762989D02*
X130762989Y-92562989D01*
X130762989Y-92562989D02*
X127800000Y-89600000D01*
X130800000Y-158800000D02*
X130762989Y-158762989D01*
D23*
G04 #@! TO.N,Net-(R10-Pad2)*
X121000000Y-151750000D02*
X121000000Y-156400000D01*
G04 #@! TO.N,BOOT*
X127750000Y-131000000D02*
X127750000Y-102250000D01*
D25*
G04 #@! TO.N,ESD_DP*
X116500000Y-161500000D02*
X125000000Y-170000000D01*
X116500000Y-150500000D02*
X116500000Y-161500000D01*
X125000000Y-170000000D02*
X135000000Y-170000000D01*
G04 #@! TO.N,ESD_DN*
X124240006Y-168675000D02*
X135000000Y-168675000D01*
X117250000Y-151250000D02*
X117250000Y-161684994D01*
X117250000Y-161684994D02*
X124240006Y-168675000D01*
G04 #@! TO.N,ESD_S4_DP*
X124000000Y-122250000D02*
X123750000Y-122500000D01*
X123750000Y-122500000D02*
X123750000Y-163268036D01*
X123750000Y-163268036D02*
X122524561Y-164493475D01*
X122524561Y-164493475D02*
X121402487Y-164493475D01*
G04 #@! TO.N,ESD_S4_DN*
X122100000Y-163700000D02*
X122100000Y-162400000D01*
X122750000Y-161750000D02*
X122750000Y-122250000D01*
X122100000Y-162400000D02*
X122750000Y-161750000D01*
D23*
G04 #@! TO.N,U0_RXD*
X115724511Y-142275489D02*
X115000000Y-143000000D01*
X115724511Y-100474511D02*
X115724511Y-142275489D01*
X114000000Y-98750000D02*
X115724511Y-100474511D01*
X112700000Y-98750000D02*
X114000000Y-98750000D01*
G04 #@! TO.N,U0_TXD*
X115000000Y-141787033D02*
X114946095Y-141840938D01*
X115000000Y-100600000D02*
X115000000Y-141787033D01*
X114200000Y-99800000D02*
X115000000Y-100600000D01*
X111400000Y-99800000D02*
X114200000Y-99800000D01*
G04 #@! TO.N,ANT_RX*
X144000000Y-136500000D02*
X144000000Y-131500000D01*
X144000000Y-131500000D02*
X143750000Y-131250000D01*
G04 #@! TO.N,ANT_RTS*
X133871500Y-128871500D02*
X133750000Y-128750000D01*
X133750000Y-128750000D02*
X133750000Y-124250000D01*
G04 #@! TO.N,Net-(C5-Pad1)*
X148200000Y-124800000D02*
X140400000Y-124800000D01*
X140400000Y-124800000D02*
X131537500Y-115937500D01*
G04 #@! TO.N,Net-(R3-Pad2)*
X108600000Y-149000011D02*
X108600011Y-149000000D01*
X121700000Y-122450000D02*
X121500000Y-122250000D01*
X108600011Y-149000000D02*
X113037114Y-149000000D01*
X113037114Y-149000000D02*
X121700000Y-140337114D01*
X121700000Y-140337114D02*
X121700000Y-122450000D01*
G04 #@! TO.N,Net-(Q2-Pad2)*
X120800000Y-130300000D02*
X120800480Y-130300480D01*
X120800480Y-130300480D02*
X120800480Y-138299520D01*
X120800480Y-138299520D02*
X115000000Y-144100000D01*
G04 #@! TD*
G04 #@! TA.AperFunction,Conductor*
G04 #@! TO.N,Earth*
G36*
X150974347Y-85502071D02*
G01*
X150993829Y-85505104D01*
X151006120Y-85503497D01*
X151006384Y-85503500D01*
X151039051Y-85502362D01*
X151131189Y-85507935D01*
X151290838Y-85517593D01*
X151311697Y-85520126D01*
X151587941Y-85570750D01*
X151608341Y-85575779D01*
X151876457Y-85659327D01*
X151896103Y-85666777D01*
X152152211Y-85782041D01*
X152170817Y-85791806D01*
X152411156Y-85937097D01*
X152428448Y-85949033D01*
X152649517Y-86122229D01*
X152665245Y-86136162D01*
X152863838Y-86334755D01*
X152877771Y-86350483D01*
X153050967Y-86571552D01*
X153062903Y-86588844D01*
X153208194Y-86829183D01*
X153217959Y-86847789D01*
X153333223Y-87103897D01*
X153340673Y-87123543D01*
X153424221Y-87391659D01*
X153429250Y-87412059D01*
X153479874Y-87688303D01*
X153482407Y-87709162D01*
X153497170Y-87953215D01*
X153496419Y-87969177D01*
X153496954Y-87969184D01*
X153496803Y-87981583D01*
X153494896Y-87993829D01*
X153496503Y-88006119D01*
X153496503Y-88006120D01*
X153498531Y-88021628D01*
X153500000Y-88044188D01*
X153500000Y-115905030D01*
X153480069Y-115985892D01*
X153424843Y-116048229D01*
X153346973Y-116077761D01*
X153264299Y-116067723D01*
X153202963Y-116028067D01*
X153071401Y-115896505D01*
X152982954Y-115834574D01*
X152884059Y-115765326D01*
X152884054Y-115765323D01*
X152877830Y-115760965D01*
X152663663Y-115661097D01*
X152435408Y-115599937D01*
X152427846Y-115599275D01*
X152427844Y-115599275D01*
X152207567Y-115580003D01*
X152200000Y-115579341D01*
X152192433Y-115580003D01*
X151972156Y-115599275D01*
X151972154Y-115599275D01*
X151964592Y-115599937D01*
X151736337Y-115661097D01*
X151629254Y-115711031D01*
X151529056Y-115757754D01*
X151529052Y-115757756D01*
X151522171Y-115760965D01*
X151328599Y-115896505D01*
X151161505Y-116063599D01*
X151025965Y-116257171D01*
X150926097Y-116471337D01*
X150864937Y-116699592D01*
X150864275Y-116707154D01*
X150864275Y-116707156D01*
X150845003Y-116927433D01*
X150844341Y-116935000D01*
X150864937Y-117170408D01*
X150926097Y-117398663D01*
X151025965Y-117612829D01*
X151161505Y-117806401D01*
X151328599Y-117973495D01*
X151417046Y-118035426D01*
X151515941Y-118104674D01*
X151515946Y-118104677D01*
X151522170Y-118109035D01*
X151736337Y-118208903D01*
X151964592Y-118270063D01*
X151972154Y-118270725D01*
X151972156Y-118270725D01*
X152192433Y-118289997D01*
X152200000Y-118290659D01*
X152207567Y-118289997D01*
X152427844Y-118270725D01*
X152427846Y-118270725D01*
X152435408Y-118270063D01*
X152663663Y-118208903D01*
X152877830Y-118109035D01*
X152884054Y-118104677D01*
X152884059Y-118104674D01*
X152982954Y-118035426D01*
X153071401Y-117973495D01*
X153202963Y-117841933D01*
X153274234Y-117798849D01*
X153357364Y-117793820D01*
X153433309Y-117828000D01*
X153484671Y-117893558D01*
X153500000Y-117964970D01*
X153500000Y-127835030D01*
X153480069Y-127915892D01*
X153424843Y-127978229D01*
X153346973Y-128007761D01*
X153264299Y-127997723D01*
X153202963Y-127958067D01*
X153071401Y-127826505D01*
X152982954Y-127764574D01*
X152884059Y-127695326D01*
X152884054Y-127695323D01*
X152877830Y-127690965D01*
X152663663Y-127591097D01*
X152435408Y-127529937D01*
X152427846Y-127529275D01*
X152427844Y-127529275D01*
X152207567Y-127510003D01*
X152200000Y-127509341D01*
X152192433Y-127510003D01*
X151972156Y-127529275D01*
X151972154Y-127529275D01*
X151964592Y-127529937D01*
X151736337Y-127591097D01*
X151629254Y-127641031D01*
X151529056Y-127687754D01*
X151529052Y-127687756D01*
X151522171Y-127690965D01*
X151328599Y-127826505D01*
X151161505Y-127993599D01*
X151025965Y-128187171D01*
X150926097Y-128401337D01*
X150864937Y-128629592D01*
X150844341Y-128865000D01*
X150864937Y-129100408D01*
X150926097Y-129328663D01*
X151025965Y-129542829D01*
X151161505Y-129736401D01*
X151328599Y-129903495D01*
X151357618Y-129923814D01*
X151515941Y-130034674D01*
X151515946Y-130034677D01*
X151522170Y-130039035D01*
X151736337Y-130138903D01*
X151964592Y-130200063D01*
X151972154Y-130200725D01*
X151972156Y-130200725D01*
X152192433Y-130219997D01*
X152200000Y-130220659D01*
X152207567Y-130219997D01*
X152427844Y-130200725D01*
X152427846Y-130200725D01*
X152435408Y-130200063D01*
X152663663Y-130138903D01*
X152877830Y-130039035D01*
X152884054Y-130034677D01*
X152884059Y-130034674D01*
X153042382Y-129923814D01*
X153071401Y-129903495D01*
X153202963Y-129771933D01*
X153274234Y-129728849D01*
X153357364Y-129723820D01*
X153433309Y-129758000D01*
X153484671Y-129823558D01*
X153500000Y-129894970D01*
X153500000Y-132581042D01*
X153480069Y-132661904D01*
X153424843Y-132724241D01*
X153346973Y-132753773D01*
X153325851Y-132755042D01*
X148761374Y-132750914D01*
X147771126Y-132750019D01*
X147750000Y-132750000D01*
X147750000Y-163050000D01*
X148953915Y-163051104D01*
X153326160Y-163055113D01*
X153407003Y-163075118D01*
X153469290Y-163130401D01*
X153498751Y-163208298D01*
X153500000Y-163229113D01*
X153500000Y-176947581D01*
X153497929Y-176974347D01*
X153494896Y-176993829D01*
X153496503Y-177006120D01*
X153496500Y-177006384D01*
X153497638Y-177039051D01*
X153492565Y-177122912D01*
X153482407Y-177290838D01*
X153479874Y-177311697D01*
X153429250Y-177587941D01*
X153424221Y-177608341D01*
X153340673Y-177876457D01*
X153333223Y-177896103D01*
X153217959Y-178152211D01*
X153208194Y-178170817D01*
X153062903Y-178411156D01*
X153050967Y-178428448D01*
X152877771Y-178649517D01*
X152863838Y-178665245D01*
X152665245Y-178863838D01*
X152649517Y-178877771D01*
X152428448Y-179050967D01*
X152411156Y-179062903D01*
X152170817Y-179208194D01*
X152152211Y-179217959D01*
X151896103Y-179333223D01*
X151876457Y-179340673D01*
X151608341Y-179424221D01*
X151587941Y-179429250D01*
X151311697Y-179479874D01*
X151290838Y-179482407D01*
X151061916Y-179496255D01*
X151050356Y-179496954D01*
X151046785Y-179497170D01*
X151030823Y-179496419D01*
X151030816Y-179496954D01*
X151018417Y-179496803D01*
X151006171Y-179494896D01*
X150993881Y-179496503D01*
X150993880Y-179496503D01*
X150978372Y-179498531D01*
X150955812Y-179500000D01*
X135694174Y-179500000D01*
X135613312Y-179480069D01*
X135550975Y-179424843D01*
X135521443Y-179346973D01*
X135532787Y-179260960D01*
X135556885Y-179201164D01*
X135556886Y-179201161D01*
X135559981Y-179193481D01*
X135600230Y-178987378D01*
X135600500Y-178981857D01*
X135600500Y-178127031D01*
X135585561Y-177970454D01*
X135526447Y-177768951D01*
X135430295Y-177582261D01*
X135366694Y-177501293D01*
X135305692Y-177423633D01*
X135305688Y-177423628D01*
X135300576Y-177417121D01*
X135141971Y-177279490D01*
X135134811Y-177275348D01*
X135134807Y-177275345D01*
X134967370Y-177178481D01*
X134967367Y-177178480D01*
X134960201Y-177174334D01*
X134844696Y-177134224D01*
X134769651Y-177108164D01*
X134769648Y-177108163D01*
X134761826Y-177105447D01*
X134657915Y-177090380D01*
X134562201Y-177076502D01*
X134562196Y-177076502D01*
X134554004Y-177075314D01*
X134405796Y-177082174D01*
X134324101Y-177066003D01*
X134259277Y-177013719D01*
X134226176Y-176937298D01*
X134232381Y-176854247D01*
X134276471Y-176783593D01*
X134284968Y-176775918D01*
X134290745Y-176771873D01*
X134442373Y-176620245D01*
X134498585Y-176539965D01*
X134561007Y-176450819D01*
X134561010Y-176450814D01*
X134565368Y-176444590D01*
X134655992Y-176250247D01*
X134711492Y-176043119D01*
X134712153Y-176035564D01*
X134712154Y-176035558D01*
X134729519Y-175837067D01*
X134730181Y-175829500D01*
X134729519Y-175821933D01*
X134712154Y-175623442D01*
X134712153Y-175623436D01*
X134711492Y-175615881D01*
X134655992Y-175408753D01*
X134565368Y-175214410D01*
X134561010Y-175208186D01*
X134561007Y-175208181D01*
X134446732Y-175044981D01*
X134442373Y-175038755D01*
X134290745Y-174887127D01*
X134115091Y-174764132D01*
X134108212Y-174760924D01*
X134108208Y-174760922D01*
X134017222Y-174718495D01*
X133920747Y-174673508D01*
X133713619Y-174618008D01*
X133706064Y-174617347D01*
X133706058Y-174617346D01*
X133507567Y-174599981D01*
X133500000Y-174599319D01*
X133492433Y-174599981D01*
X133293942Y-174617346D01*
X133293936Y-174617347D01*
X133286381Y-174618008D01*
X133079253Y-174673508D01*
X132884910Y-174764132D01*
X132878686Y-174768490D01*
X132878681Y-174768493D01*
X132789535Y-174830915D01*
X132709255Y-174887127D01*
X132557627Y-175038755D01*
X132553268Y-175044981D01*
X132438993Y-175208181D01*
X132438990Y-175208186D01*
X132434632Y-175214410D01*
X132344008Y-175408753D01*
X132288508Y-175615881D01*
X132287847Y-175623436D01*
X132287846Y-175623442D01*
X132270481Y-175821933D01*
X132269819Y-175829500D01*
X132270481Y-175837067D01*
X132287846Y-176035558D01*
X132287847Y-176035564D01*
X132288508Y-176043119D01*
X132344008Y-176250247D01*
X132434632Y-176444590D01*
X132438990Y-176450814D01*
X132438993Y-176450819D01*
X132501415Y-176539965D01*
X132557627Y-176620245D01*
X132709255Y-176771873D01*
X132715479Y-176776231D01*
X132715480Y-176776232D01*
X132878685Y-176890510D01*
X132884909Y-176894868D01*
X132891788Y-176898076D01*
X132891792Y-176898078D01*
X132944003Y-176922424D01*
X133079253Y-176985492D01*
X133286381Y-177040992D01*
X133293936Y-177041653D01*
X133293942Y-177041654D01*
X133492433Y-177059019D01*
X133500000Y-177059681D01*
X133507567Y-177059019D01*
X133638410Y-177047572D01*
X133720701Y-177060380D01*
X133787615Y-177109963D01*
X133823821Y-177184962D01*
X133821026Y-177268197D01*
X133779870Y-177340599D01*
X133778010Y-177342375D01*
X133777640Y-177342637D01*
X133632425Y-177494331D01*
X133518515Y-177670746D01*
X133515419Y-177678428D01*
X133513319Y-177683640D01*
X133440019Y-177865519D01*
X133399770Y-178071622D01*
X133399500Y-178077143D01*
X133399500Y-178931969D01*
X133414439Y-179088546D01*
X133416771Y-179096494D01*
X133469730Y-179277019D01*
X133473368Y-179360221D01*
X133437923Y-179435584D01*
X133371515Y-179485842D01*
X133302766Y-179500000D01*
X128694174Y-179500000D01*
X128613312Y-179480069D01*
X128550975Y-179424843D01*
X128521443Y-179346973D01*
X128532787Y-179260960D01*
X128556885Y-179201164D01*
X128556886Y-179201161D01*
X128559981Y-179193481D01*
X128600230Y-178987378D01*
X128600500Y-178981857D01*
X128600500Y-178127031D01*
X128585561Y-177970454D01*
X128526447Y-177768951D01*
X128430295Y-177582261D01*
X128366694Y-177501293D01*
X128305692Y-177423633D01*
X128305688Y-177423628D01*
X128300576Y-177417121D01*
X128225184Y-177351699D01*
X128177173Y-177283649D01*
X128166286Y-177201082D01*
X128195017Y-177122912D01*
X128256784Y-177067049D01*
X128337437Y-177046289D01*
X128354389Y-177046942D01*
X128492433Y-177059019D01*
X128500000Y-177059681D01*
X128507567Y-177059019D01*
X128706058Y-177041654D01*
X128706064Y-177041653D01*
X128713619Y-177040992D01*
X128920747Y-176985492D01*
X129055997Y-176922424D01*
X129108208Y-176898078D01*
X129108212Y-176898076D01*
X129115091Y-176894868D01*
X129121315Y-176890510D01*
X129284520Y-176776232D01*
X129284521Y-176776231D01*
X129290745Y-176771873D01*
X129442373Y-176620245D01*
X129498585Y-176539965D01*
X129561007Y-176450819D01*
X129561010Y-176450814D01*
X129565368Y-176444590D01*
X129655992Y-176250247D01*
X129711492Y-176043119D01*
X129712153Y-176035564D01*
X129712154Y-176035558D01*
X129729519Y-175837067D01*
X129730181Y-175829500D01*
X129729519Y-175821933D01*
X129712154Y-175623442D01*
X129712153Y-175623436D01*
X129711492Y-175615881D01*
X129655992Y-175408753D01*
X129565368Y-175214410D01*
X129561010Y-175208186D01*
X129561007Y-175208181D01*
X129446732Y-175044981D01*
X129442373Y-175038755D01*
X129290745Y-174887127D01*
X129115091Y-174764132D01*
X129108212Y-174760924D01*
X129108208Y-174760922D01*
X129017222Y-174718495D01*
X128920747Y-174673508D01*
X128713619Y-174618008D01*
X128706064Y-174617347D01*
X128706058Y-174617346D01*
X128507567Y-174599981D01*
X128500000Y-174599319D01*
X128492433Y-174599981D01*
X128293942Y-174617346D01*
X128293936Y-174617347D01*
X128286381Y-174618008D01*
X128079253Y-174673508D01*
X127884910Y-174764132D01*
X127878686Y-174768490D01*
X127878681Y-174768493D01*
X127789535Y-174830915D01*
X127709255Y-174887127D01*
X127557627Y-175038755D01*
X127553268Y-175044981D01*
X127438993Y-175208181D01*
X127438990Y-175208186D01*
X127434632Y-175214410D01*
X127344008Y-175408753D01*
X127288508Y-175615881D01*
X127287847Y-175623436D01*
X127287846Y-175623442D01*
X127270481Y-175821933D01*
X127269819Y-175829500D01*
X127270481Y-175837067D01*
X127287846Y-176035558D01*
X127287847Y-176035564D01*
X127288508Y-176043119D01*
X127344008Y-176250247D01*
X127434632Y-176444590D01*
X127438990Y-176450814D01*
X127438993Y-176450819D01*
X127501415Y-176539965D01*
X127557627Y-176620245D01*
X127709255Y-176771873D01*
X127712245Y-176773966D01*
X127760529Y-176840049D01*
X127772785Y-176922424D01*
X127745356Y-177001059D01*
X127684525Y-177057940D01*
X127604228Y-177080036D01*
X127574586Y-177078298D01*
X127567325Y-177077245D01*
X127554004Y-177075314D01*
X127462792Y-177079536D01*
X127352504Y-177084640D01*
X127352502Y-177084640D01*
X127344233Y-177085023D01*
X127287647Y-177098660D01*
X127148138Y-177132282D01*
X127148133Y-177132284D01*
X127140082Y-177134224D01*
X127132535Y-177137655D01*
X127132536Y-177137655D01*
X126993035Y-177201082D01*
X126948919Y-177221140D01*
X126942161Y-177225934D01*
X126942159Y-177225935D01*
X126859013Y-177284915D01*
X126777640Y-177342637D01*
X126771913Y-177348620D01*
X126771909Y-177348623D01*
X126711533Y-177411693D01*
X126632425Y-177494331D01*
X126518515Y-177670746D01*
X126515419Y-177678428D01*
X126513319Y-177683640D01*
X126440019Y-177865519D01*
X126399770Y-178071622D01*
X126399500Y-178077143D01*
X126399500Y-178931969D01*
X126414439Y-179088546D01*
X126416771Y-179096494D01*
X126469730Y-179277019D01*
X126473368Y-179360221D01*
X126437923Y-179435584D01*
X126371515Y-179485842D01*
X126302766Y-179500000D01*
X102052419Y-179500000D01*
X102025653Y-179497929D01*
X102006171Y-179494896D01*
X101993880Y-179496503D01*
X101993616Y-179496500D01*
X101960949Y-179497638D01*
X101868811Y-179492065D01*
X101709162Y-179482407D01*
X101688303Y-179479874D01*
X101412059Y-179429250D01*
X101391659Y-179424221D01*
X101123543Y-179340673D01*
X101103897Y-179333223D01*
X100847789Y-179217959D01*
X100829183Y-179208194D01*
X100588844Y-179062903D01*
X100571552Y-179050967D01*
X100350483Y-178877771D01*
X100334755Y-178863838D01*
X100136162Y-178665245D01*
X100122229Y-178649517D01*
X99949033Y-178428448D01*
X99937097Y-178411156D01*
X99791806Y-178170817D01*
X99782041Y-178152211D01*
X99666777Y-177896103D01*
X99659327Y-177876457D01*
X99575779Y-177608341D01*
X99570750Y-177587941D01*
X99520126Y-177311697D01*
X99517593Y-177290838D01*
X99502878Y-177047572D01*
X99502830Y-177046785D01*
X99503581Y-177030823D01*
X99503046Y-177030816D01*
X99503197Y-177018417D01*
X99505104Y-177006171D01*
X99501469Y-176978372D01*
X99500000Y-176955812D01*
X99500000Y-173680000D01*
X141744341Y-173680000D01*
X141764937Y-173915408D01*
X141826097Y-174143663D01*
X141829308Y-174150548D01*
X141922753Y-174350940D01*
X141925965Y-174357829D01*
X142061505Y-174551401D01*
X142228599Y-174718495D01*
X142422171Y-174854035D01*
X142429052Y-174857244D01*
X142429056Y-174857246D01*
X142529254Y-174903969D01*
X142636337Y-174953903D01*
X142864592Y-175015063D01*
X142872154Y-175015725D01*
X142872156Y-175015725D01*
X142950061Y-175022541D01*
X143041034Y-175030500D01*
X143158966Y-175030500D01*
X143249939Y-175022541D01*
X143327844Y-175015725D01*
X143327846Y-175015725D01*
X143335408Y-175015063D01*
X143563663Y-174953903D01*
X143670746Y-174903969D01*
X143770944Y-174857246D01*
X143770948Y-174857244D01*
X143777829Y-174854035D01*
X143971401Y-174718495D01*
X144138495Y-174551401D01*
X144200426Y-174462954D01*
X144269674Y-174364059D01*
X144269680Y-174364049D01*
X144274035Y-174357830D01*
X144373903Y-174143663D01*
X144435063Y-173915408D01*
X144455659Y-173680000D01*
X144435063Y-173444592D01*
X144373903Y-173216337D01*
X144323969Y-173109254D01*
X144277246Y-173009056D01*
X144277244Y-173009052D01*
X144274035Y-173002171D01*
X144138495Y-172808599D01*
X143971401Y-172641505D01*
X143777829Y-172505965D01*
X143770948Y-172502756D01*
X143770944Y-172502754D01*
X143670746Y-172456031D01*
X143563663Y-172406097D01*
X143335408Y-172344937D01*
X143327846Y-172344275D01*
X143327844Y-172344275D01*
X143249939Y-172337459D01*
X143158966Y-172329500D01*
X143041034Y-172329500D01*
X142950061Y-172337459D01*
X142872156Y-172344275D01*
X142872154Y-172344275D01*
X142864592Y-172344937D01*
X142636337Y-172406097D01*
X142529254Y-172456031D01*
X142429056Y-172502754D01*
X142429052Y-172502756D01*
X142422171Y-172505965D01*
X142228599Y-172641505D01*
X142061505Y-172808599D01*
X142057146Y-172814825D01*
X141930326Y-172995941D01*
X141930323Y-172995946D01*
X141925965Y-173002170D01*
X141826097Y-173216337D01*
X141764937Y-173444592D01*
X141744341Y-173680000D01*
X99500000Y-173680000D01*
X99500000Y-169287002D01*
X105425380Y-169287002D01*
X105436502Y-169570084D01*
X105487400Y-169848775D01*
X105577058Y-170117514D01*
X105579807Y-170123015D01*
X105698026Y-170359609D01*
X105703687Y-170370939D01*
X105707184Y-170375999D01*
X105707186Y-170376002D01*
X105861263Y-170598932D01*
X105864761Y-170603993D01*
X106057065Y-170812027D01*
X106061830Y-170815906D01*
X106061835Y-170815911D01*
X106271994Y-170987006D01*
X106276764Y-170990889D01*
X106282032Y-170994061D01*
X106282034Y-170994062D01*
X106514201Y-171133839D01*
X106514206Y-171133841D01*
X106519472Y-171137012D01*
X106780348Y-171247478D01*
X107054186Y-171320085D01*
X107060293Y-171320808D01*
X107060294Y-171320808D01*
X107329412Y-171352661D01*
X107329416Y-171352661D01*
X107335523Y-171353384D01*
X107453682Y-171350599D01*
X107612596Y-171346854D01*
X107612597Y-171346854D01*
X107618745Y-171346709D01*
X107898200Y-171300195D01*
X108059903Y-171249055D01*
X108162456Y-171216622D01*
X108162460Y-171216620D01*
X108168314Y-171214769D01*
X108173851Y-171212110D01*
X108173854Y-171212109D01*
X108418150Y-171094800D01*
X108418154Y-171094798D01*
X108423697Y-171092136D01*
X108659253Y-170934743D01*
X108870281Y-170745730D01*
X108931512Y-170672888D01*
X109048607Y-170533586D01*
X109052573Y-170528868D01*
X109202489Y-170288485D01*
X109317040Y-170029376D01*
X109367975Y-169848775D01*
X109392269Y-169762634D01*
X109392269Y-169762632D01*
X109393939Y-169756712D01*
X109431652Y-169475933D01*
X109434054Y-169399500D01*
X109435471Y-169354437D01*
X109435471Y-169354428D01*
X109435610Y-169350000D01*
X109415601Y-169067407D01*
X109402204Y-169005177D01*
X109369696Y-168854186D01*
X109355975Y-168790453D01*
X109294290Y-168623249D01*
X109260050Y-168530436D01*
X109260049Y-168530433D01*
X109257920Y-168524663D01*
X109255004Y-168519258D01*
X109255000Y-168519250D01*
X109126317Y-168280759D01*
X109126317Y-168280758D01*
X109123393Y-168275340D01*
X109031319Y-168150682D01*
X108958734Y-168052409D01*
X108958730Y-168052404D01*
X108955078Y-168047460D01*
X108950770Y-168043083D01*
X108950765Y-168043078D01*
X108833216Y-167923669D01*
X108756334Y-167845570D01*
X108614890Y-167737623D01*
X108536018Y-167677429D01*
X108536014Y-167677426D01*
X108531126Y-167673696D01*
X108283947Y-167535270D01*
X108278216Y-167533053D01*
X108278210Y-167533050D01*
X108025474Y-167435274D01*
X108025472Y-167435273D01*
X108019730Y-167433052D01*
X107881739Y-167401067D01*
X107749745Y-167370472D01*
X107749741Y-167370471D01*
X107743747Y-167369082D01*
X107647325Y-167360731D01*
X107467640Y-167345168D01*
X107467633Y-167345168D01*
X107461503Y-167344637D01*
X107277305Y-167354774D01*
X107184767Y-167359867D01*
X107184764Y-167359867D01*
X107178630Y-167360205D01*
X106900774Y-167415474D01*
X106633476Y-167509342D01*
X106382072Y-167639936D01*
X106377066Y-167643514D01*
X106377065Y-167643514D01*
X106329606Y-167677429D01*
X106151576Y-167804651D01*
X105946588Y-168000199D01*
X105771199Y-168222680D01*
X105768108Y-168228002D01*
X105768105Y-168228006D01*
X105737464Y-168280759D01*
X105628907Y-168467654D01*
X105626595Y-168473361D01*
X105626594Y-168473364D01*
X105558929Y-168640422D01*
X105522552Y-168730232D01*
X105454255Y-169005177D01*
X105425380Y-169287002D01*
X99500000Y-169287002D01*
X99500000Y-165842623D01*
X109199500Y-165842623D01*
X109199501Y-167437376D01*
X109206149Y-167498580D01*
X109256474Y-167632824D01*
X109342454Y-167747546D01*
X109457176Y-167833526D01*
X109500265Y-167849679D01*
X109581205Y-167880022D01*
X109581208Y-167880023D01*
X109591420Y-167883851D01*
X109621695Y-167887140D01*
X109647944Y-167889992D01*
X109647950Y-167889992D01*
X109652623Y-167890500D01*
X110499369Y-167890500D01*
X111347376Y-167890499D01*
X111352050Y-167889991D01*
X111352056Y-167889991D01*
X111387724Y-167886116D01*
X111408580Y-167883851D01*
X111542824Y-167833526D01*
X111657546Y-167747546D01*
X111743526Y-167632824D01*
X111760482Y-167587593D01*
X111807528Y-167518873D01*
X111881121Y-167479887D01*
X111964402Y-167479568D01*
X112038293Y-167517987D01*
X112046447Y-167525633D01*
X112160861Y-167640047D01*
X112347266Y-167770568D01*
X112354147Y-167773777D01*
X112354151Y-167773779D01*
X112429475Y-167808903D01*
X112553504Y-167866739D01*
X112773308Y-167925635D01*
X112780869Y-167926297D01*
X112780872Y-167926297D01*
X112992433Y-167944806D01*
X113000000Y-167945468D01*
X113007567Y-167944806D01*
X113219128Y-167926297D01*
X113219131Y-167926297D01*
X113226692Y-167925635D01*
X113446496Y-167866739D01*
X113570525Y-167808903D01*
X113645849Y-167773779D01*
X113645853Y-167773777D01*
X113652734Y-167770568D01*
X113839139Y-167640047D01*
X113876963Y-167602223D01*
X113948234Y-167559139D01*
X114031364Y-167554110D01*
X114107309Y-167588290D01*
X114123037Y-167602223D01*
X114160861Y-167640047D01*
X114347266Y-167770568D01*
X114354147Y-167773777D01*
X114354151Y-167773779D01*
X114429475Y-167808903D01*
X114553504Y-167866739D01*
X114773308Y-167925635D01*
X114780869Y-167926297D01*
X114780872Y-167926297D01*
X114992433Y-167944806D01*
X115000000Y-167945468D01*
X115007567Y-167944806D01*
X115219128Y-167926297D01*
X115219131Y-167926297D01*
X115226692Y-167925635D01*
X115446496Y-167866739D01*
X115570525Y-167808903D01*
X115645849Y-167773779D01*
X115645853Y-167773777D01*
X115652734Y-167770568D01*
X115839139Y-167640047D01*
X116000047Y-167479139D01*
X116130568Y-167292734D01*
X116133885Y-167285622D01*
X116223528Y-167093381D01*
X116226739Y-167086496D01*
X116285635Y-166866692D01*
X116301969Y-166680000D01*
X116304806Y-166647567D01*
X116305468Y-166640000D01*
X116285635Y-166413308D01*
X116226739Y-166193504D01*
X116140729Y-166009056D01*
X116133779Y-165994151D01*
X116133777Y-165994147D01*
X116130568Y-165987266D01*
X116000047Y-165800861D01*
X115839139Y-165639953D01*
X115652734Y-165509432D01*
X115645853Y-165506223D01*
X115645849Y-165506221D01*
X115508392Y-165442124D01*
X115446496Y-165413261D01*
X115226692Y-165354365D01*
X115219131Y-165353703D01*
X115219128Y-165353703D01*
X115007567Y-165335194D01*
X115000000Y-165334532D01*
X114992433Y-165335194D01*
X114780872Y-165353703D01*
X114780869Y-165353703D01*
X114773308Y-165354365D01*
X114553504Y-165413261D01*
X114491608Y-165442124D01*
X114354151Y-165506221D01*
X114354147Y-165506223D01*
X114347266Y-165509432D01*
X114160861Y-165639953D01*
X114123037Y-165677777D01*
X114051766Y-165720861D01*
X113968636Y-165725890D01*
X113892691Y-165691710D01*
X113876963Y-165677777D01*
X113839139Y-165639953D01*
X113652734Y-165509432D01*
X113645853Y-165506223D01*
X113645849Y-165506221D01*
X113508392Y-165442124D01*
X113446496Y-165413261D01*
X113226692Y-165354365D01*
X113219131Y-165353703D01*
X113219128Y-165353703D01*
X113007567Y-165335194D01*
X113000000Y-165334532D01*
X112992433Y-165335194D01*
X112780872Y-165353703D01*
X112780869Y-165353703D01*
X112773308Y-165354365D01*
X112553504Y-165413261D01*
X112491608Y-165442124D01*
X112354151Y-165506221D01*
X112354147Y-165506223D01*
X112347266Y-165509432D01*
X112160861Y-165639953D01*
X112046447Y-165754367D01*
X111975176Y-165797451D01*
X111892046Y-165802480D01*
X111816101Y-165768300D01*
X111764739Y-165702742D01*
X111760482Y-165692407D01*
X111747877Y-165658782D01*
X111747876Y-165658781D01*
X111743526Y-165647176D01*
X111657546Y-165532454D01*
X111542824Y-165446474D01*
X111469568Y-165419012D01*
X111418795Y-165399978D01*
X111418792Y-165399977D01*
X111408580Y-165396149D01*
X111375887Y-165392597D01*
X111352056Y-165390008D01*
X111352050Y-165390008D01*
X111347377Y-165389500D01*
X110500631Y-165389500D01*
X109652624Y-165389501D01*
X109647950Y-165390009D01*
X109647944Y-165390009D01*
X109612276Y-165393884D01*
X109591420Y-165396149D01*
X109457176Y-165446474D01*
X109342454Y-165532454D01*
X109256474Y-165647176D01*
X109239779Y-165691710D01*
X109216291Y-165754367D01*
X109206149Y-165781420D01*
X109199500Y-165842623D01*
X99500000Y-165842623D01*
X99500000Y-149000011D01*
X107694540Y-149000011D01*
X107714326Y-149188267D01*
X107772821Y-149368295D01*
X107777382Y-149376195D01*
X107777383Y-149376197D01*
X107843338Y-149490435D01*
X107867467Y-149532227D01*
X107873567Y-149539002D01*
X107873568Y-149539003D01*
X107939909Y-149612682D01*
X107994129Y-149672899D01*
X108147270Y-149784162D01*
X108209625Y-149811924D01*
X108311870Y-149857448D01*
X108311874Y-149857449D01*
X108320197Y-149861155D01*
X108505354Y-149900511D01*
X108694646Y-149900511D01*
X108879803Y-149861155D01*
X108888126Y-149857449D01*
X108888130Y-149857448D01*
X108990375Y-149811924D01*
X109052730Y-149784162D01*
X109151860Y-149712140D01*
X109198490Y-149678262D01*
X109198492Y-149678260D01*
X109205871Y-149672899D01*
X109209104Y-149669308D01*
X109280879Y-149630897D01*
X109323880Y-149625500D01*
X112961169Y-149625500D01*
X112969902Y-149625912D01*
X112977781Y-149627673D01*
X112988727Y-149627329D01*
X113044191Y-149625586D01*
X113049656Y-149625500D01*
X113076464Y-149625500D01*
X113081887Y-149624815D01*
X113087348Y-149624471D01*
X113087354Y-149624565D01*
X113094447Y-149624006D01*
X113110397Y-149623505D01*
X113124797Y-149623053D01*
X113124798Y-149623053D01*
X113135741Y-149622709D01*
X113151196Y-149618219D01*
X113177932Y-149612682D01*
X113178853Y-149612566D01*
X113193906Y-149610664D01*
X113204083Y-149606634D01*
X113204085Y-149606634D01*
X113222102Y-149599500D01*
X113232322Y-149595454D01*
X113247834Y-149590143D01*
X113276992Y-149581672D01*
X113276993Y-149581672D01*
X113287504Y-149578618D01*
X113296922Y-149573048D01*
X113296929Y-149573045D01*
X113301355Y-149570427D01*
X113325876Y-149558414D01*
X113330662Y-149556519D01*
X113330668Y-149556516D01*
X113340846Y-149552486D01*
X113374268Y-149528204D01*
X113387966Y-149519205D01*
X113414118Y-149503739D01*
X113414120Y-149503738D01*
X113423534Y-149498170D01*
X113434920Y-149486784D01*
X113455675Y-149469058D01*
X113468701Y-149459594D01*
X113495033Y-149427764D01*
X113506065Y-149415639D01*
X121852463Y-141069242D01*
X121923734Y-141026158D01*
X122006864Y-141021129D01*
X122082809Y-141055309D01*
X122134171Y-141120867D01*
X122149500Y-141192279D01*
X122149500Y-151290616D01*
X122129569Y-151371478D01*
X122074343Y-151433815D01*
X121996473Y-151463347D01*
X121913799Y-151453309D01*
X121845259Y-151405999D01*
X121824812Y-151377616D01*
X121737093Y-151225682D01*
X121737093Y-151225681D01*
X121732533Y-151217784D01*
X121605871Y-151077112D01*
X121452730Y-150965849D01*
X121390375Y-150938087D01*
X121288130Y-150892563D01*
X121288126Y-150892562D01*
X121279803Y-150888856D01*
X121094646Y-150849500D01*
X120905354Y-150849500D01*
X120720197Y-150888856D01*
X120711874Y-150892562D01*
X120711870Y-150892563D01*
X120609625Y-150938087D01*
X120547270Y-150965849D01*
X120394129Y-151077112D01*
X120267467Y-151217784D01*
X120262907Y-151225681D01*
X120262907Y-151225682D01*
X120225418Y-151290616D01*
X120172821Y-151381716D01*
X120114326Y-151561744D01*
X120094540Y-151750000D01*
X120114326Y-151938256D01*
X120172821Y-152118284D01*
X120177382Y-152126184D01*
X120177383Y-152126186D01*
X120262907Y-152274318D01*
X120267467Y-152282216D01*
X120273567Y-152288991D01*
X120273568Y-152288992D01*
X120329807Y-152351451D01*
X120369103Y-152424879D01*
X120374500Y-152467880D01*
X120374500Y-155682120D01*
X120354569Y-155762982D01*
X120329808Y-155798547D01*
X120267467Y-155867784D01*
X120262907Y-155875681D01*
X120262907Y-155875682D01*
X120225418Y-155940616D01*
X120172821Y-156031716D01*
X120114326Y-156211744D01*
X120094540Y-156400000D01*
X120114326Y-156588256D01*
X120172821Y-156768284D01*
X120177382Y-156776184D01*
X120177383Y-156776186D01*
X120262907Y-156924318D01*
X120267467Y-156932216D01*
X120394129Y-157072888D01*
X120547270Y-157184151D01*
X120609625Y-157211913D01*
X120711870Y-157257437D01*
X120711874Y-157257438D01*
X120720197Y-157261144D01*
X120905354Y-157300500D01*
X121094646Y-157300500D01*
X121279803Y-157261144D01*
X121288126Y-157257438D01*
X121288130Y-157257437D01*
X121390375Y-157211913D01*
X121452730Y-157184151D01*
X121605871Y-157072888D01*
X121732533Y-156932216D01*
X121737093Y-156924318D01*
X121824812Y-156772384D01*
X121882503Y-156712321D01*
X121961499Y-156685948D01*
X122043702Y-156699308D01*
X122110281Y-156749338D01*
X122145984Y-156824579D01*
X122149500Y-156859384D01*
X122149500Y-161429191D01*
X122129569Y-161510053D01*
X122098537Y-161552228D01*
X121711279Y-161939486D01*
X121694167Y-161954492D01*
X121671718Y-161971718D01*
X121584760Y-162085044D01*
X121575464Y-162097159D01*
X121571099Y-162107697D01*
X121519729Y-162231716D01*
X121514956Y-162243238D01*
X121494318Y-162400000D01*
X121495807Y-162411310D01*
X121498011Y-162428051D01*
X121499500Y-162450763D01*
X121499500Y-162954354D01*
X121479569Y-163035216D01*
X121454807Y-163070783D01*
X121390077Y-163142673D01*
X121367467Y-163167784D01*
X121362907Y-163175681D01*
X121362907Y-163175682D01*
X121286862Y-163307397D01*
X121272821Y-163331716D01*
X121270003Y-163340388D01*
X121270002Y-163340391D01*
X121230767Y-163461144D01*
X121214326Y-163511744D01*
X121213986Y-163514976D01*
X121178797Y-163587620D01*
X121115679Y-163635450D01*
X120949757Y-163709324D01*
X120796616Y-163820587D01*
X120790513Y-163827365D01*
X120676059Y-163954478D01*
X120676056Y-163954482D01*
X120669954Y-163961259D01*
X120666043Y-163968032D01*
X120602828Y-164021369D01*
X120521508Y-164039342D01*
X120441151Y-164017466D01*
X120402671Y-163988430D01*
X117901463Y-161487222D01*
X117858379Y-161415951D01*
X117850500Y-161364185D01*
X117850500Y-151995646D01*
X117870431Y-151914784D01*
X117895193Y-151879217D01*
X117976431Y-151788993D01*
X117982533Y-151782216D01*
X118077179Y-151618284D01*
X118135674Y-151438256D01*
X118155460Y-151250000D01*
X118135674Y-151061744D01*
X118126080Y-151032216D01*
X118079998Y-150890391D01*
X118079997Y-150890388D01*
X118077179Y-150881716D01*
X117982533Y-150717784D01*
X117855871Y-150577112D01*
X117702730Y-150465849D01*
X117640375Y-150438087D01*
X117538130Y-150392563D01*
X117538126Y-150392562D01*
X117529803Y-150388856D01*
X117520886Y-150386961D01*
X117520881Y-150386959D01*
X117500158Y-150382554D01*
X117425208Y-150346247D01*
X117375715Y-150279267D01*
X117370852Y-150266127D01*
X117329997Y-150140389D01*
X117327179Y-150131716D01*
X117232533Y-149967784D01*
X117105871Y-149827112D01*
X116952730Y-149715849D01*
X116856264Y-149672899D01*
X116788130Y-149642563D01*
X116788126Y-149642562D01*
X116779803Y-149638856D01*
X116594646Y-149599500D01*
X116405354Y-149599500D01*
X116220197Y-149638856D01*
X116211874Y-149642562D01*
X116211870Y-149642563D01*
X116143736Y-149672899D01*
X116047270Y-149715849D01*
X115894129Y-149827112D01*
X115767467Y-149967784D01*
X115672821Y-150131716D01*
X115614326Y-150311744D01*
X115594540Y-150500000D01*
X115614326Y-150688256D01*
X115617144Y-150696929D01*
X115667334Y-150851396D01*
X115672821Y-150868284D01*
X115767467Y-151032216D01*
X115773569Y-151038993D01*
X115854807Y-151129217D01*
X115894103Y-151202646D01*
X115899500Y-151245646D01*
X115899500Y-161449237D01*
X115898011Y-161471949D01*
X115894318Y-161500000D01*
X115899500Y-161539361D01*
X115914956Y-161656762D01*
X115975464Y-161802841D01*
X116071718Y-161928282D01*
X116080769Y-161935227D01*
X116080770Y-161935228D01*
X116094167Y-161945508D01*
X116111279Y-161960514D01*
X121281986Y-167131221D01*
X121325070Y-167202492D01*
X121330099Y-167285622D01*
X121295919Y-167361567D01*
X121230361Y-167412929D01*
X121148443Y-167427941D01*
X121119659Y-167423764D01*
X120889745Y-167370472D01*
X120889741Y-167370471D01*
X120883747Y-167369082D01*
X120787325Y-167360731D01*
X120607640Y-167345168D01*
X120607633Y-167345168D01*
X120601503Y-167344637D01*
X120417305Y-167354774D01*
X120324767Y-167359867D01*
X120324764Y-167359867D01*
X120318630Y-167360205D01*
X120040774Y-167415474D01*
X119773476Y-167509342D01*
X119522072Y-167639936D01*
X119517066Y-167643514D01*
X119517065Y-167643514D01*
X119469606Y-167677429D01*
X119291576Y-167804651D01*
X119086588Y-168000199D01*
X118911199Y-168222680D01*
X118908108Y-168228002D01*
X118908105Y-168228006D01*
X118877464Y-168280759D01*
X118768907Y-168467654D01*
X118766595Y-168473361D01*
X118766594Y-168473364D01*
X118698929Y-168640422D01*
X118662552Y-168730232D01*
X118594255Y-169005177D01*
X118565380Y-169287002D01*
X118576502Y-169570084D01*
X118627400Y-169848775D01*
X118717058Y-170117514D01*
X118719807Y-170123015D01*
X118838026Y-170359609D01*
X118843687Y-170370939D01*
X118847184Y-170375999D01*
X118847186Y-170376002D01*
X119001263Y-170598932D01*
X119004761Y-170603993D01*
X119197065Y-170812027D01*
X119201830Y-170815906D01*
X119201835Y-170815911D01*
X119411994Y-170987006D01*
X119416764Y-170990889D01*
X119422032Y-170994061D01*
X119422034Y-170994062D01*
X119654201Y-171133839D01*
X119654206Y-171133841D01*
X119659472Y-171137012D01*
X119920348Y-171247478D01*
X120194186Y-171320085D01*
X120200293Y-171320808D01*
X120200294Y-171320808D01*
X120469412Y-171352661D01*
X120469416Y-171352661D01*
X120475523Y-171353384D01*
X120593682Y-171350599D01*
X120752596Y-171346854D01*
X120752597Y-171346854D01*
X120758745Y-171346709D01*
X121038200Y-171300195D01*
X121199903Y-171249055D01*
X121302456Y-171216622D01*
X121302460Y-171216620D01*
X121308314Y-171214769D01*
X121313851Y-171212110D01*
X121313854Y-171212109D01*
X121558150Y-171094800D01*
X121558154Y-171094798D01*
X121563697Y-171092136D01*
X121799253Y-170934743D01*
X122010281Y-170745730D01*
X122071512Y-170672888D01*
X122188607Y-170533586D01*
X122192573Y-170528868D01*
X122342489Y-170288485D01*
X122457040Y-170029376D01*
X122507975Y-169848775D01*
X122532269Y-169762634D01*
X122532269Y-169762632D01*
X122533939Y-169756712D01*
X122571652Y-169475933D01*
X122574054Y-169399500D01*
X122575471Y-169354437D01*
X122575471Y-169354428D01*
X122575610Y-169350000D01*
X122555601Y-169067407D01*
X122542204Y-169005177D01*
X122498048Y-168800081D01*
X122500513Y-168716835D01*
X122541382Y-168644271D01*
X122611292Y-168599011D01*
X122694227Y-168591424D01*
X122771189Y-168623249D01*
X122791187Y-168640422D01*
X124539486Y-170388721D01*
X124554492Y-170405833D01*
X124571718Y-170428282D01*
X124697159Y-170524536D01*
X124707695Y-170528900D01*
X124832697Y-170580678D01*
X124832699Y-170580678D01*
X124843238Y-170585044D01*
X125000000Y-170605682D01*
X125011310Y-170604193D01*
X125028051Y-170601989D01*
X125050763Y-170600500D01*
X134251481Y-170600500D01*
X134332343Y-170620431D01*
X134380789Y-170658073D01*
X134394129Y-170672888D01*
X134547270Y-170784151D01*
X134599728Y-170807507D01*
X134711870Y-170857437D01*
X134711874Y-170857438D01*
X134720197Y-170861144D01*
X134905354Y-170900500D01*
X135094646Y-170900500D01*
X135279803Y-170861144D01*
X135288126Y-170857438D01*
X135288130Y-170857437D01*
X135400272Y-170807507D01*
X135452730Y-170784151D01*
X135605871Y-170672888D01*
X135666384Y-170605682D01*
X135726432Y-170538992D01*
X135726433Y-170538991D01*
X135732533Y-170532216D01*
X135792539Y-170428282D01*
X135822617Y-170376186D01*
X135822618Y-170376184D01*
X135827179Y-170368284D01*
X135851413Y-170293702D01*
X135882856Y-170196929D01*
X135885674Y-170188256D01*
X135905460Y-170000000D01*
X135885674Y-169811744D01*
X135827179Y-169631716D01*
X135732533Y-169467784D01*
X135720057Y-169453928D01*
X135680762Y-169380500D01*
X135680091Y-169297221D01*
X135720057Y-169221072D01*
X135726432Y-169213992D01*
X135726433Y-169213991D01*
X135732533Y-169207216D01*
X135827179Y-169043284D01*
X135885674Y-168863256D01*
X135905460Y-168675000D01*
X135885674Y-168486744D01*
X135827179Y-168306716D01*
X135732533Y-168142784D01*
X135605871Y-168002112D01*
X135452730Y-167890849D01*
X135377257Y-167857246D01*
X135288130Y-167817563D01*
X135288126Y-167817562D01*
X135279803Y-167813856D01*
X135094646Y-167774500D01*
X134905354Y-167774500D01*
X134720197Y-167813856D01*
X134711874Y-167817562D01*
X134711870Y-167817563D01*
X134622743Y-167857246D01*
X134547270Y-167890849D01*
X134394129Y-168002112D01*
X134388026Y-168008890D01*
X134388022Y-168008894D01*
X134380789Y-168016927D01*
X134311871Y-168063684D01*
X134251481Y-168074500D01*
X124560815Y-168074500D01*
X124479953Y-168054569D01*
X124437778Y-168023537D01*
X123094241Y-166680000D01*
X141744341Y-166680000D01*
X141745003Y-166687567D01*
X141761317Y-166874028D01*
X141764937Y-166915408D01*
X141826097Y-167143663D01*
X141829308Y-167150548D01*
X141922753Y-167350940D01*
X141925965Y-167357829D01*
X142061505Y-167551401D01*
X142228599Y-167718495D01*
X142422171Y-167854035D01*
X142429052Y-167857244D01*
X142429056Y-167857246D01*
X142500370Y-167890500D01*
X142636337Y-167953903D01*
X142864592Y-168015063D01*
X142872154Y-168015725D01*
X142872156Y-168015725D01*
X142950061Y-168022541D01*
X143041034Y-168030500D01*
X143158966Y-168030500D01*
X143249939Y-168022541D01*
X143327844Y-168015725D01*
X143327846Y-168015725D01*
X143335408Y-168015063D01*
X143563663Y-167953903D01*
X143699630Y-167890500D01*
X143770944Y-167857246D01*
X143770948Y-167857244D01*
X143777829Y-167854035D01*
X143971401Y-167718495D01*
X144138495Y-167551401D01*
X144224943Y-167427941D01*
X144269674Y-167364059D01*
X144269680Y-167364049D01*
X144274035Y-167357830D01*
X144279940Y-167345168D01*
X144307706Y-167285622D01*
X144373903Y-167143663D01*
X144435063Y-166915408D01*
X144438684Y-166874028D01*
X144454997Y-166687567D01*
X144455659Y-166680000D01*
X144435063Y-166444592D01*
X144373903Y-166216337D01*
X144323969Y-166109254D01*
X144277246Y-166009056D01*
X144277244Y-166009052D01*
X144274035Y-166002171D01*
X144138495Y-165808599D01*
X143971401Y-165641505D01*
X143777829Y-165505965D01*
X143770948Y-165502756D01*
X143770944Y-165502754D01*
X143650251Y-165446474D01*
X143563663Y-165406097D01*
X143335408Y-165344937D01*
X143327846Y-165344275D01*
X143327844Y-165344275D01*
X143249939Y-165337459D01*
X143158966Y-165329500D01*
X143041034Y-165329500D01*
X142950061Y-165337459D01*
X142872156Y-165344275D01*
X142872154Y-165344275D01*
X142864592Y-165344937D01*
X142636337Y-165406097D01*
X142549749Y-165446474D01*
X142429056Y-165502754D01*
X142429052Y-165502756D01*
X142422171Y-165505965D01*
X142228599Y-165641505D01*
X142061505Y-165808599D01*
X141999574Y-165897046D01*
X141930326Y-165995941D01*
X141930323Y-165995946D01*
X141925965Y-166002170D01*
X141826097Y-166216337D01*
X141764937Y-166444592D01*
X141744341Y-166680000D01*
X123094241Y-166680000D01*
X121904663Y-165490422D01*
X121861579Y-165419151D01*
X121856550Y-165336021D01*
X121890730Y-165260076D01*
X121925424Y-165226618D01*
X122008358Y-165166363D01*
X122021698Y-165151548D01*
X122090616Y-165104791D01*
X122151006Y-165093975D01*
X122473798Y-165093975D01*
X122496510Y-165095464D01*
X122524561Y-165099157D01*
X122535871Y-165097668D01*
X122563922Y-165093975D01*
X122670016Y-165080008D01*
X122670019Y-165080007D01*
X122681323Y-165078519D01*
X122827402Y-165018011D01*
X122952843Y-164921757D01*
X122970069Y-164899308D01*
X122985075Y-164882196D01*
X124138726Y-163728546D01*
X124155838Y-163713540D01*
X124169230Y-163703264D01*
X124169231Y-163703263D01*
X124178282Y-163696318D01*
X124274536Y-163570877D01*
X124319989Y-163461144D01*
X124330678Y-163435339D01*
X124330678Y-163435337D01*
X124335044Y-163424798D01*
X124350500Y-163307397D01*
X124355682Y-163268036D01*
X124351989Y-163239985D01*
X124350500Y-163217273D01*
X124350500Y-131000000D01*
X126844540Y-131000000D01*
X126864326Y-131188256D01*
X126922821Y-131368284D01*
X126927382Y-131376184D01*
X126927383Y-131376186D01*
X126973378Y-131455851D01*
X127017467Y-131532216D01*
X127023567Y-131538991D01*
X127023568Y-131538992D01*
X127087152Y-131609609D01*
X127144129Y-131672888D01*
X127297270Y-131784151D01*
X127308143Y-131788992D01*
X127461870Y-131857437D01*
X127461874Y-131857438D01*
X127470197Y-131861144D01*
X127655354Y-131900500D01*
X127844646Y-131900500D01*
X127853565Y-131898604D01*
X127853567Y-131898604D01*
X127914325Y-131885690D01*
X127997563Y-131888374D01*
X128070020Y-131929433D01*
X128115097Y-131999461D01*
X128124500Y-132055888D01*
X128124500Y-158674055D01*
X128124088Y-158682788D01*
X128122327Y-158690667D01*
X128122671Y-158701613D01*
X128124414Y-158757077D01*
X128124500Y-158762542D01*
X128124500Y-158789350D01*
X128125185Y-158794773D01*
X128125529Y-158800234D01*
X128125435Y-158800240D01*
X128125994Y-158807333D01*
X128127291Y-158848627D01*
X128130346Y-158859142D01*
X128130346Y-158859143D01*
X128131781Y-158864082D01*
X128137318Y-158890818D01*
X128139336Y-158906792D01*
X128143366Y-158916969D01*
X128143366Y-158916971D01*
X128154545Y-158945204D01*
X128159857Y-158960720D01*
X128171382Y-159000390D01*
X128176952Y-159009808D01*
X128176955Y-159009815D01*
X128179573Y-159014241D01*
X128191586Y-159038762D01*
X128193481Y-159043548D01*
X128193484Y-159043554D01*
X128197514Y-159053732D01*
X128203950Y-159062590D01*
X128221795Y-159087152D01*
X128230794Y-159100851D01*
X128251830Y-159136420D01*
X128263216Y-159147806D01*
X128280942Y-159168561D01*
X128290406Y-159181587D01*
X128298839Y-159188563D01*
X128322235Y-159207918D01*
X128334361Y-159218951D01*
X132104012Y-162988603D01*
X132109889Y-162995062D01*
X132114214Y-163001877D01*
X132149716Y-163035216D01*
X132162633Y-163047346D01*
X132166558Y-163051149D01*
X132185529Y-163070120D01*
X132189849Y-163073471D01*
X132193950Y-163077086D01*
X132193888Y-163077157D01*
X132199300Y-163081779D01*
X132229418Y-163110062D01*
X132243527Y-163117818D01*
X132266345Y-163132807D01*
X132279064Y-163142673D01*
X132316972Y-163159077D01*
X132331692Y-163166288D01*
X132358310Y-163180921D01*
X132358313Y-163180922D01*
X132367908Y-163186197D01*
X132380326Y-163189385D01*
X132383505Y-163190202D01*
X132409325Y-163199042D01*
X132424104Y-163205437D01*
X132434913Y-163207149D01*
X132464910Y-163211900D01*
X132480963Y-163215225D01*
X132510375Y-163222777D01*
X132510377Y-163222777D01*
X132520981Y-163225500D01*
X132537078Y-163225500D01*
X132564298Y-163227642D01*
X132580196Y-163230160D01*
X132621326Y-163226272D01*
X132637701Y-163225500D01*
X134026132Y-163225500D01*
X134106994Y-163245431D01*
X134140262Y-163268593D01*
X134144129Y-163272888D01*
X134297270Y-163384151D01*
X134359625Y-163411913D01*
X134461870Y-163457437D01*
X134461874Y-163457438D01*
X134470197Y-163461144D01*
X134655354Y-163500500D01*
X134844646Y-163500500D01*
X135029803Y-163461144D01*
X135038126Y-163457438D01*
X135038130Y-163457437D01*
X135140375Y-163411913D01*
X135202730Y-163384151D01*
X135355871Y-163272888D01*
X135370423Y-163256726D01*
X135476432Y-163138992D01*
X135476433Y-163138991D01*
X135482533Y-163132216D01*
X135489483Y-163120178D01*
X135572617Y-162976186D01*
X135572618Y-162976184D01*
X135577179Y-162968284D01*
X135635674Y-162788256D01*
X135655460Y-162600000D01*
X135635674Y-162411744D01*
X135577179Y-162231716D01*
X135560284Y-162202452D01*
X135487093Y-162075682D01*
X135487093Y-162075681D01*
X135482533Y-162067784D01*
X135398540Y-161974500D01*
X135361974Y-161933890D01*
X135355871Y-161927112D01*
X135202730Y-161815849D01*
X135140375Y-161788087D01*
X135038130Y-161742563D01*
X135038126Y-161742562D01*
X135029803Y-161738856D01*
X134844646Y-161699500D01*
X134655354Y-161699500D01*
X134470197Y-161738856D01*
X134461874Y-161742562D01*
X134461870Y-161742563D01*
X134359625Y-161788087D01*
X134297270Y-161815849D01*
X134144129Y-161927112D01*
X134140905Y-161930693D01*
X134069132Y-161969103D01*
X134026132Y-161974500D01*
X132931165Y-161974500D01*
X132850303Y-161954569D01*
X132808128Y-161923537D01*
X130865961Y-159981370D01*
X130822877Y-159910099D01*
X130817848Y-159826969D01*
X130852028Y-159751024D01*
X130917586Y-159699662D01*
X130952821Y-159688135D01*
X131070888Y-159663039D01*
X131070889Y-159663039D01*
X131079803Y-159661144D01*
X131088126Y-159657438D01*
X131088130Y-159657437D01*
X131190375Y-159611913D01*
X131252730Y-159584151D01*
X131405871Y-159472888D01*
X131532533Y-159332216D01*
X131537093Y-159324318D01*
X131622617Y-159176186D01*
X131622618Y-159176184D01*
X131627179Y-159168284D01*
X131637533Y-159136420D01*
X131682856Y-158996929D01*
X131685674Y-158988256D01*
X131705460Y-158800000D01*
X131685674Y-158611744D01*
X131627179Y-158431716D01*
X131532533Y-158267784D01*
X131483182Y-158212974D01*
X131443886Y-158139545D01*
X131438489Y-158096545D01*
X131438489Y-131250000D01*
X142844540Y-131250000D01*
X142864326Y-131438256D01*
X142867144Y-131446929D01*
X142900111Y-131548389D01*
X142922821Y-131618284D01*
X142927382Y-131626184D01*
X142927383Y-131626186D01*
X142957442Y-131678250D01*
X143017467Y-131782216D01*
X143023567Y-131788991D01*
X143023568Y-131788992D01*
X143123971Y-131900500D01*
X143144129Y-131922888D01*
X143249523Y-131999461D01*
X143297270Y-132034151D01*
X143296139Y-132035707D01*
X143347566Y-132085106D01*
X143373936Y-132164103D01*
X143374500Y-132178098D01*
X143374500Y-135782120D01*
X143354569Y-135862982D01*
X143329808Y-135898547D01*
X143267467Y-135967784D01*
X143172821Y-136131716D01*
X143114326Y-136311744D01*
X143094540Y-136500000D01*
X143114326Y-136688256D01*
X143172821Y-136868284D01*
X143267467Y-137032216D01*
X143394129Y-137172888D01*
X143547270Y-137284151D01*
X143609625Y-137311913D01*
X143711870Y-137357437D01*
X143711874Y-137357438D01*
X143720197Y-137361144D01*
X143905354Y-137400500D01*
X144094646Y-137400500D01*
X144279803Y-137361144D01*
X144288126Y-137357438D01*
X144288130Y-137357437D01*
X144390375Y-137311913D01*
X144452730Y-137284151D01*
X144605871Y-137172888D01*
X144732533Y-137032216D01*
X144827179Y-136868284D01*
X144885674Y-136688256D01*
X144905460Y-136500000D01*
X144885674Y-136311744D01*
X144827179Y-136131716D01*
X144732533Y-135967784D01*
X144670192Y-135898548D01*
X144630897Y-135825121D01*
X144625500Y-135782120D01*
X144625500Y-131575938D01*
X144625912Y-131567207D01*
X144627672Y-131559332D01*
X144625863Y-131501741D01*
X144632350Y-131456146D01*
X144630960Y-131455851D01*
X144632857Y-131446926D01*
X144635674Y-131438256D01*
X144655460Y-131250000D01*
X144635674Y-131061744D01*
X144577179Y-130881716D01*
X144531774Y-130803071D01*
X144487093Y-130725682D01*
X144487093Y-130725681D01*
X144482533Y-130717784D01*
X144355871Y-130577112D01*
X144202730Y-130465849D01*
X144051574Y-130398549D01*
X144038130Y-130392563D01*
X144038126Y-130392562D01*
X144029803Y-130388856D01*
X143844646Y-130349500D01*
X143655354Y-130349500D01*
X143470197Y-130388856D01*
X143461874Y-130392562D01*
X143461870Y-130392563D01*
X143448426Y-130398549D01*
X143297270Y-130465849D01*
X143144129Y-130577112D01*
X143017467Y-130717784D01*
X143012907Y-130725681D01*
X143012907Y-130725682D01*
X142968227Y-130803071D01*
X142922821Y-130881716D01*
X142864326Y-131061744D01*
X142844540Y-131250000D01*
X131438489Y-131250000D01*
X131438489Y-124250000D01*
X132844540Y-124250000D01*
X132864326Y-124438256D01*
X132922821Y-124618284D01*
X133017467Y-124782216D01*
X133023567Y-124788991D01*
X133023568Y-124788992D01*
X133079807Y-124851451D01*
X133119103Y-124924879D01*
X133124500Y-124967880D01*
X133124500Y-128317720D01*
X133101188Y-128404719D01*
X133044321Y-128503216D01*
X132985826Y-128683244D01*
X132966040Y-128871500D01*
X132985826Y-129059756D01*
X132988644Y-129068429D01*
X133039880Y-129226115D01*
X133044321Y-129239784D01*
X133048882Y-129247684D01*
X133048883Y-129247686D01*
X133095635Y-129328663D01*
X133138967Y-129403716D01*
X133145067Y-129410491D01*
X133145068Y-129410492D01*
X133170607Y-129438856D01*
X133265629Y-129544388D01*
X133418770Y-129655651D01*
X133481125Y-129683413D01*
X133583370Y-129728937D01*
X133583374Y-129728938D01*
X133591697Y-129732644D01*
X133776854Y-129772000D01*
X133966146Y-129772000D01*
X134151303Y-129732644D01*
X134159626Y-129728938D01*
X134159630Y-129728937D01*
X134261875Y-129683413D01*
X134324230Y-129655651D01*
X134477371Y-129544388D01*
X134572393Y-129438856D01*
X134597932Y-129410492D01*
X134597933Y-129410491D01*
X134604033Y-129403716D01*
X134647365Y-129328663D01*
X134694117Y-129247686D01*
X134694118Y-129247684D01*
X134698679Y-129239784D01*
X134703121Y-129226115D01*
X134754356Y-129068429D01*
X134757174Y-129059756D01*
X134776960Y-128871500D01*
X134757174Y-128683244D01*
X134698679Y-128503216D01*
X134678869Y-128468903D01*
X134608593Y-128347182D01*
X134608593Y-128347181D01*
X134604033Y-128339284D01*
X134477371Y-128198612D01*
X134447225Y-128176710D01*
X134393523Y-128113059D01*
X134375500Y-128035942D01*
X134375500Y-124967880D01*
X134395431Y-124887018D01*
X134420193Y-124851451D01*
X134476432Y-124788992D01*
X134476433Y-124788991D01*
X134482533Y-124782216D01*
X134577179Y-124618284D01*
X134635674Y-124438256D01*
X134655460Y-124250000D01*
X134635674Y-124061744D01*
X134595745Y-123938856D01*
X134579998Y-123890391D01*
X134579997Y-123890388D01*
X134577179Y-123881716D01*
X134482533Y-123717784D01*
X134355871Y-123577112D01*
X134202730Y-123465849D01*
X134140375Y-123438087D01*
X134038130Y-123392563D01*
X134038126Y-123392562D01*
X134029803Y-123388856D01*
X133844646Y-123349500D01*
X133655354Y-123349500D01*
X133470197Y-123388856D01*
X133461874Y-123392562D01*
X133461870Y-123392563D01*
X133359625Y-123438087D01*
X133297270Y-123465849D01*
X133144129Y-123577112D01*
X133017467Y-123717784D01*
X132922821Y-123881716D01*
X132920003Y-123890388D01*
X132920002Y-123890391D01*
X132904255Y-123938856D01*
X132864326Y-124061744D01*
X132844540Y-124250000D01*
X131438489Y-124250000D01*
X131438489Y-117143153D01*
X131458420Y-117062291D01*
X131513646Y-116999954D01*
X131591516Y-116970422D01*
X131674190Y-116980460D01*
X131735526Y-117020116D01*
X139904008Y-125188598D01*
X139909889Y-125195061D01*
X139914214Y-125201877D01*
X139922194Y-125209371D01*
X139922195Y-125209372D01*
X139962650Y-125247362D01*
X139966575Y-125251165D01*
X139985530Y-125270120D01*
X139989854Y-125273474D01*
X139993945Y-125277081D01*
X139993883Y-125277152D01*
X139999292Y-125281772D01*
X140029418Y-125310062D01*
X140039010Y-125315335D01*
X140039014Y-125315338D01*
X140043525Y-125317818D01*
X140066343Y-125332807D01*
X140070409Y-125335961D01*
X140070413Y-125335963D01*
X140079064Y-125342674D01*
X140116990Y-125359086D01*
X140131704Y-125366294D01*
X140167908Y-125386197D01*
X140178510Y-125388919D01*
X140183494Y-125390199D01*
X140209331Y-125399045D01*
X140214056Y-125401090D01*
X140214061Y-125401091D01*
X140224105Y-125405438D01*
X140261597Y-125411376D01*
X140264910Y-125411901D01*
X140280962Y-125415225D01*
X140310382Y-125422779D01*
X140310385Y-125422779D01*
X140320981Y-125425500D01*
X140337078Y-125425500D01*
X140364296Y-125427642D01*
X140369384Y-125428448D01*
X140369387Y-125428448D01*
X140380196Y-125430160D01*
X140421326Y-125426272D01*
X140437701Y-125425500D01*
X147476132Y-125425500D01*
X147556994Y-125445431D01*
X147590262Y-125468593D01*
X147594129Y-125472888D01*
X147747270Y-125584151D01*
X147809625Y-125611913D01*
X147911870Y-125657437D01*
X147911874Y-125657438D01*
X147920197Y-125661144D01*
X148105354Y-125700500D01*
X148294646Y-125700500D01*
X148479803Y-125661144D01*
X148488126Y-125657438D01*
X148488130Y-125657437D01*
X148590375Y-125611913D01*
X148652730Y-125584151D01*
X148805871Y-125472888D01*
X148811974Y-125466110D01*
X148926432Y-125338992D01*
X148926433Y-125338991D01*
X148932533Y-125332216D01*
X148940846Y-125317818D01*
X149022617Y-125176186D01*
X149022618Y-125176184D01*
X149027179Y-125168284D01*
X149085674Y-124988256D01*
X149105460Y-124800000D01*
X149085674Y-124611744D01*
X149027179Y-124431716D01*
X148932533Y-124267784D01*
X148848540Y-124174500D01*
X148811974Y-124133890D01*
X148805871Y-124127112D01*
X148652730Y-124015849D01*
X148590375Y-123988087D01*
X148488130Y-123942563D01*
X148488126Y-123942562D01*
X148479803Y-123938856D01*
X148294646Y-123899500D01*
X148105354Y-123899500D01*
X147920197Y-123938856D01*
X147911874Y-123942562D01*
X147911870Y-123942563D01*
X147809625Y-123988087D01*
X147747270Y-124015849D01*
X147594129Y-124127112D01*
X147590905Y-124130693D01*
X147519132Y-124169103D01*
X147476132Y-124174500D01*
X140731164Y-124174500D01*
X140650302Y-124154569D01*
X140608127Y-124123537D01*
X132488980Y-116004389D01*
X132445896Y-115933118D01*
X132438970Y-115899539D01*
X132424864Y-115765326D01*
X132423174Y-115749244D01*
X132420356Y-115740571D01*
X132367498Y-115577891D01*
X132367497Y-115577888D01*
X132364679Y-115569216D01*
X132270033Y-115405284D01*
X132143371Y-115264612D01*
X131990230Y-115153349D01*
X131927875Y-115125587D01*
X131825630Y-115080063D01*
X131825626Y-115080062D01*
X131817303Y-115076356D01*
X131632146Y-115037000D01*
X131612489Y-115037000D01*
X131531627Y-115017069D01*
X131469290Y-114961843D01*
X131439758Y-114883973D01*
X131438489Y-114863000D01*
X131438489Y-105200000D01*
X133894540Y-105200000D01*
X133914326Y-105388256D01*
X133917144Y-105396929D01*
X133955994Y-105516495D01*
X133972821Y-105568284D01*
X133977382Y-105576184D01*
X133977383Y-105576186D01*
X134008215Y-105629589D01*
X134067467Y-105732216D01*
X134194129Y-105872888D01*
X134347270Y-105984151D01*
X134409625Y-106011913D01*
X134511870Y-106057437D01*
X134511874Y-106057438D01*
X134520197Y-106061144D01*
X134705354Y-106100500D01*
X134894646Y-106100500D01*
X135079803Y-106061144D01*
X135088126Y-106057438D01*
X135088130Y-106057437D01*
X135190375Y-106011913D01*
X135252730Y-105984151D01*
X135405871Y-105872888D01*
X135532533Y-105732216D01*
X135591785Y-105629589D01*
X135622617Y-105576186D01*
X135622618Y-105576184D01*
X135627179Y-105568284D01*
X135644007Y-105516495D01*
X135682856Y-105396929D01*
X135685674Y-105388256D01*
X135701470Y-105237959D01*
X135729744Y-105159624D01*
X135751480Y-105133110D01*
X136877463Y-104007128D01*
X136948735Y-103964044D01*
X137031864Y-103959015D01*
X137107809Y-103993195D01*
X137159171Y-104058753D01*
X137174500Y-104130165D01*
X137174500Y-104968835D01*
X137154569Y-105049697D01*
X137123537Y-105091872D01*
X135866872Y-106348537D01*
X135795601Y-106391621D01*
X135743835Y-106399500D01*
X135705354Y-106399500D01*
X135520197Y-106438856D01*
X135511874Y-106442562D01*
X135511870Y-106442563D01*
X135409625Y-106488087D01*
X135347270Y-106515849D01*
X135194129Y-106627112D01*
X135067467Y-106767784D01*
X134972821Y-106931716D01*
X134914326Y-107111744D01*
X134894540Y-107300000D01*
X134914326Y-107488256D01*
X134972821Y-107668284D01*
X135067467Y-107832216D01*
X135194129Y-107972888D01*
X135347270Y-108084151D01*
X135407948Y-108111167D01*
X135511870Y-108157437D01*
X135511874Y-108157438D01*
X135520197Y-108161144D01*
X135705354Y-108200500D01*
X135894646Y-108200500D01*
X136079803Y-108161144D01*
X136088126Y-108157438D01*
X136088130Y-108157437D01*
X136192052Y-108111167D01*
X136252730Y-108084151D01*
X136405871Y-107972888D01*
X136532533Y-107832216D01*
X136627179Y-107668284D01*
X136685674Y-107488256D01*
X136701470Y-107337959D01*
X136729744Y-107259624D01*
X136751480Y-107233110D01*
X137463380Y-106521211D01*
X138188603Y-105795988D01*
X138195062Y-105790111D01*
X138201877Y-105785786D01*
X138247346Y-105737367D01*
X138251149Y-105733442D01*
X138270120Y-105714471D01*
X138273471Y-105710151D01*
X138277086Y-105706050D01*
X138277157Y-105706112D01*
X138281783Y-105700695D01*
X138302568Y-105678562D01*
X138310062Y-105670582D01*
X138317818Y-105656473D01*
X138332807Y-105633655D01*
X138335961Y-105629589D01*
X138342673Y-105620936D01*
X138359078Y-105583025D01*
X138366288Y-105568308D01*
X138380921Y-105541690D01*
X138380922Y-105541687D01*
X138386197Y-105532092D01*
X138390202Y-105516495D01*
X138399043Y-105490671D01*
X138405437Y-105475896D01*
X138411900Y-105435090D01*
X138415225Y-105419037D01*
X138422777Y-105389625D01*
X138422777Y-105389623D01*
X138425500Y-105379019D01*
X138425500Y-105362922D01*
X138427642Y-105335702D01*
X138428448Y-105330613D01*
X138430160Y-105319804D01*
X138426272Y-105278674D01*
X138425500Y-105262299D01*
X138425500Y-101731164D01*
X138445431Y-101650302D01*
X138476463Y-101608127D01*
X140733127Y-99351463D01*
X140804398Y-99308379D01*
X140856164Y-99300500D01*
X140894646Y-99300500D01*
X141079803Y-99261144D01*
X141088126Y-99257438D01*
X141088130Y-99257437D01*
X141190375Y-99211913D01*
X141252730Y-99184151D01*
X141405871Y-99072888D01*
X141463412Y-99008982D01*
X141526432Y-98938992D01*
X141526433Y-98938991D01*
X141532533Y-98932216D01*
X141555882Y-98891774D01*
X141622617Y-98776186D01*
X141622618Y-98776184D01*
X141627179Y-98768284D01*
X141685674Y-98588256D01*
X141705460Y-98400000D01*
X141685674Y-98211744D01*
X141656147Y-98120870D01*
X141629998Y-98040391D01*
X141629997Y-98040388D01*
X141627179Y-98031716D01*
X141592247Y-97971211D01*
X141537093Y-97875682D01*
X141537093Y-97875681D01*
X141532533Y-97867784D01*
X141405871Y-97727112D01*
X141252730Y-97615849D01*
X141190375Y-97588087D01*
X141088130Y-97542563D01*
X141088126Y-97542562D01*
X141079803Y-97538856D01*
X140894646Y-97499500D01*
X140705354Y-97499500D01*
X140520197Y-97538856D01*
X140511874Y-97542562D01*
X140511870Y-97542563D01*
X140409625Y-97588087D01*
X140347270Y-97615849D01*
X140194129Y-97727112D01*
X140067467Y-97867784D01*
X140062907Y-97875681D01*
X140062907Y-97875682D01*
X140007754Y-97971211D01*
X139972821Y-98031716D01*
X139970003Y-98040388D01*
X139970002Y-98040391D01*
X139943853Y-98120870D01*
X139914326Y-98211744D01*
X139898598Y-98361397D01*
X139898530Y-98362040D01*
X139870256Y-98440376D01*
X139848520Y-98466890D01*
X137522537Y-100792872D01*
X137451265Y-100835956D01*
X137368136Y-100840985D01*
X137292191Y-100806805D01*
X137240829Y-100741247D01*
X137225500Y-100669835D01*
X137225500Y-90717880D01*
X137245431Y-90637018D01*
X137270193Y-90601451D01*
X137326432Y-90538992D01*
X137326433Y-90538991D01*
X137332533Y-90532216D01*
X137372472Y-90463039D01*
X137422617Y-90376186D01*
X137422618Y-90376184D01*
X137427179Y-90368284D01*
X137485674Y-90188256D01*
X137505460Y-90000000D01*
X137485674Y-89811744D01*
X137427179Y-89631716D01*
X137332533Y-89467784D01*
X137205871Y-89327112D01*
X137052730Y-89215849D01*
X136990375Y-89188087D01*
X136888130Y-89142563D01*
X136888126Y-89142562D01*
X136879803Y-89138856D01*
X136694646Y-89099500D01*
X136505354Y-89099500D01*
X136320197Y-89138856D01*
X136311874Y-89142562D01*
X136311870Y-89142563D01*
X136209625Y-89188087D01*
X136147270Y-89215849D01*
X135994129Y-89327112D01*
X135867467Y-89467784D01*
X135772821Y-89631716D01*
X135714326Y-89811744D01*
X135694540Y-90000000D01*
X135714326Y-90188256D01*
X135772821Y-90368284D01*
X135777382Y-90376184D01*
X135777383Y-90376186D01*
X135827528Y-90463039D01*
X135867467Y-90532216D01*
X135873567Y-90538991D01*
X135873568Y-90538992D01*
X135929807Y-90601451D01*
X135969103Y-90674879D01*
X135974500Y-90717880D01*
X135974500Y-103068835D01*
X135954569Y-103149697D01*
X135923537Y-103191872D01*
X134866872Y-104248537D01*
X134795601Y-104291621D01*
X134743835Y-104299500D01*
X134705354Y-104299500D01*
X134520197Y-104338856D01*
X134511874Y-104342562D01*
X134511870Y-104342563D01*
X134409625Y-104388087D01*
X134347270Y-104415849D01*
X134194129Y-104527112D01*
X134067467Y-104667784D01*
X134062907Y-104675681D01*
X134062907Y-104675682D01*
X134015308Y-104758127D01*
X133972821Y-104831716D01*
X133914326Y-105011744D01*
X133894540Y-105200000D01*
X131438489Y-105200000D01*
X131438489Y-92592384D01*
X131438892Y-92580549D01*
X131441803Y-92537845D01*
X131442517Y-92527376D01*
X131432284Y-92468745D01*
X131430958Y-92459762D01*
X131425068Y-92411086D01*
X131425068Y-92411084D01*
X131423808Y-92400676D01*
X131420102Y-92390868D01*
X131418346Y-92383719D01*
X131416210Y-92376646D01*
X131414407Y-92366313D01*
X131390484Y-92311814D01*
X131387051Y-92303401D01*
X131369725Y-92257550D01*
X131366016Y-92247734D01*
X131360073Y-92239087D01*
X131356657Y-92232553D01*
X131352906Y-92226210D01*
X131348690Y-92216606D01*
X131312447Y-92169373D01*
X131307129Y-92162054D01*
X131273410Y-92112992D01*
X131230230Y-92074520D01*
X131222943Y-92067642D01*
X128743175Y-89587874D01*
X128700091Y-89516603D01*
X128693165Y-89483023D01*
X128692394Y-89475682D01*
X128685674Y-89411744D01*
X128627179Y-89231716D01*
X128573567Y-89138856D01*
X128537093Y-89075682D01*
X128537093Y-89075681D01*
X128532533Y-89067784D01*
X128405871Y-88927112D01*
X128252730Y-88815849D01*
X128190375Y-88788087D01*
X128088130Y-88742563D01*
X128088126Y-88742562D01*
X128079803Y-88738856D01*
X127894646Y-88699500D01*
X127705354Y-88699500D01*
X127520197Y-88738856D01*
X127511874Y-88742562D01*
X127511870Y-88742563D01*
X127409625Y-88788087D01*
X127347270Y-88815849D01*
X127194129Y-88927112D01*
X127067467Y-89067784D01*
X127062907Y-89075681D01*
X127062907Y-89075682D01*
X127026434Y-89138856D01*
X126972821Y-89231716D01*
X126914326Y-89411744D01*
X126894540Y-89600000D01*
X126914326Y-89788256D01*
X126972821Y-89968284D01*
X127067467Y-90132216D01*
X127194129Y-90272888D01*
X127347270Y-90384151D01*
X127409625Y-90411913D01*
X127511870Y-90457437D01*
X127511874Y-90457438D01*
X127520197Y-90461144D01*
X127705354Y-90500500D01*
X127704642Y-90503849D01*
X127765840Y-90525926D01*
X127792377Y-90547678D01*
X130036526Y-92791827D01*
X130079610Y-92863098D01*
X130087489Y-92914864D01*
X130087489Y-158186482D01*
X130064179Y-158273480D01*
X129972821Y-158431716D01*
X129914326Y-158611744D01*
X129913373Y-158620814D01*
X129913373Y-158620815D01*
X129912704Y-158627177D01*
X129884432Y-158705513D01*
X129822993Y-158761737D01*
X129742463Y-158782969D01*
X129661291Y-158764345D01*
X129616620Y-158732029D01*
X129426463Y-158541872D01*
X129383379Y-158470601D01*
X129375500Y-158418835D01*
X129375500Y-109873411D01*
X129395431Y-109792549D01*
X129420193Y-109756982D01*
X129434579Y-109741004D01*
X129532533Y-109632216D01*
X129627179Y-109468284D01*
X129685674Y-109288256D01*
X129705460Y-109100000D01*
X129685674Y-108911744D01*
X129627179Y-108731716D01*
X129532533Y-108567784D01*
X129405871Y-108427112D01*
X129252730Y-108315849D01*
X129190375Y-108288087D01*
X129088130Y-108242563D01*
X129088126Y-108242562D01*
X129079803Y-108238856D01*
X128894646Y-108199500D01*
X128705354Y-108199500D01*
X128625826Y-108216404D01*
X128585676Y-108224938D01*
X128502438Y-108222255D01*
X128429980Y-108181196D01*
X128384904Y-108111167D01*
X128375500Y-108054740D01*
X128375500Y-102967880D01*
X128395431Y-102887018D01*
X128420193Y-102851451D01*
X128476432Y-102788992D01*
X128476433Y-102788991D01*
X128482533Y-102782216D01*
X128577179Y-102618284D01*
X128635674Y-102438256D01*
X128655460Y-102250000D01*
X128635674Y-102061744D01*
X128577179Y-101881716D01*
X128482533Y-101717784D01*
X128355871Y-101577112D01*
X128202730Y-101465849D01*
X128140375Y-101438087D01*
X128038130Y-101392563D01*
X128038126Y-101392562D01*
X128029803Y-101388856D01*
X127844646Y-101349500D01*
X127655354Y-101349500D01*
X127470197Y-101388856D01*
X127461874Y-101392562D01*
X127461870Y-101392563D01*
X127359625Y-101438087D01*
X127297270Y-101465849D01*
X127144129Y-101577112D01*
X127017467Y-101717784D01*
X126922821Y-101881716D01*
X126864326Y-102061744D01*
X126844540Y-102250000D01*
X126864326Y-102438256D01*
X126922821Y-102618284D01*
X127017467Y-102782216D01*
X127023567Y-102788991D01*
X127023568Y-102788992D01*
X127079807Y-102851451D01*
X127119103Y-102924879D01*
X127124500Y-102967880D01*
X127124500Y-130282120D01*
X127104569Y-130362982D01*
X127079808Y-130398547D01*
X127017467Y-130467784D01*
X127012907Y-130475681D01*
X127012907Y-130475682D01*
X126954347Y-130577112D01*
X126922821Y-130631716D01*
X126920003Y-130640388D01*
X126920002Y-130640391D01*
X126892289Y-130725682D01*
X126864326Y-130811744D01*
X126844540Y-131000000D01*
X124350500Y-131000000D01*
X124350500Y-123192532D01*
X124370431Y-123111670D01*
X124425657Y-123049333D01*
X124437498Y-123041845D01*
X124444401Y-123037859D01*
X124452730Y-123034151D01*
X124605871Y-122922888D01*
X124732533Y-122782216D01*
X124827179Y-122618284D01*
X124885674Y-122438256D01*
X124905460Y-122250000D01*
X124885674Y-122061744D01*
X124827179Y-121881716D01*
X124732533Y-121717784D01*
X124605871Y-121577112D01*
X124452730Y-121465849D01*
X124390375Y-121438087D01*
X124288130Y-121392563D01*
X124288126Y-121392562D01*
X124279803Y-121388856D01*
X124094646Y-121349500D01*
X123905354Y-121349500D01*
X123720197Y-121388856D01*
X123711874Y-121392562D01*
X123711870Y-121392563D01*
X123609625Y-121438087D01*
X123547270Y-121465849D01*
X123477272Y-121516705D01*
X123400141Y-121548109D01*
X123317248Y-121540071D01*
X123272729Y-121516706D01*
X123202730Y-121465849D01*
X123140375Y-121438087D01*
X123038130Y-121392563D01*
X123038126Y-121392562D01*
X123029803Y-121388856D01*
X122844646Y-121349500D01*
X122655354Y-121349500D01*
X122470197Y-121388856D01*
X122461874Y-121392562D01*
X122461870Y-121392563D01*
X122359625Y-121438087D01*
X122297270Y-121465849D01*
X122227272Y-121516705D01*
X122150141Y-121548109D01*
X122067248Y-121540071D01*
X122022729Y-121516706D01*
X121952730Y-121465849D01*
X121890375Y-121438087D01*
X121788130Y-121392563D01*
X121788126Y-121392562D01*
X121779803Y-121388856D01*
X121594646Y-121349500D01*
X121405354Y-121349500D01*
X121220197Y-121388856D01*
X121211874Y-121392562D01*
X121211870Y-121392563D01*
X121109625Y-121438087D01*
X121047270Y-121465849D01*
X120894129Y-121577112D01*
X120767467Y-121717784D01*
X120672821Y-121881716D01*
X120614326Y-122061744D01*
X120594540Y-122250000D01*
X120614326Y-122438256D01*
X120672821Y-122618284D01*
X120767467Y-122782216D01*
X120894129Y-122922888D01*
X120987350Y-122990617D01*
X121002774Y-123001823D01*
X121056478Y-123065476D01*
X121074500Y-123142592D01*
X121074500Y-129226115D01*
X121054569Y-129306977D01*
X120999343Y-129369314D01*
X120921473Y-129398846D01*
X120894646Y-129399063D01*
X120894646Y-129399500D01*
X120705354Y-129399500D01*
X120520197Y-129438856D01*
X120511874Y-129442562D01*
X120511870Y-129442563D01*
X120409625Y-129488087D01*
X120347270Y-129515849D01*
X120194129Y-129627112D01*
X120188026Y-129633890D01*
X120076277Y-129758000D01*
X120067467Y-129767784D01*
X119972821Y-129931716D01*
X119914326Y-130111744D01*
X119894540Y-130300000D01*
X119914326Y-130488256D01*
X119917144Y-130496929D01*
X119958372Y-130623814D01*
X119972821Y-130668284D01*
X119977382Y-130676184D01*
X119977383Y-130676186D01*
X120060884Y-130820814D01*
X120067467Y-130832216D01*
X120073566Y-130838989D01*
X120073572Y-130838998D01*
X120130287Y-130901986D01*
X120169583Y-130975414D01*
X120174980Y-131018414D01*
X120174980Y-137968355D01*
X120155049Y-138049217D01*
X120124017Y-138091392D01*
X116647048Y-141568361D01*
X116575777Y-141611445D01*
X116492647Y-141616474D01*
X116416702Y-141582294D01*
X116365340Y-141516736D01*
X116350011Y-141445324D01*
X116350011Y-128609674D01*
X116369942Y-128528812D01*
X116425168Y-128466475D01*
X116503038Y-128436943D01*
X116585712Y-128446981D01*
X116626282Y-128468903D01*
X116647270Y-128484151D01*
X116680024Y-128498734D01*
X116811870Y-128557437D01*
X116811874Y-128557438D01*
X116820197Y-128561144D01*
X117005354Y-128600500D01*
X117194646Y-128600500D01*
X117379803Y-128561144D01*
X117388126Y-128557438D01*
X117388130Y-128557437D01*
X117519976Y-128498734D01*
X117552730Y-128484151D01*
X117705871Y-128372888D01*
X117832533Y-128232216D01*
X117927179Y-128068284D01*
X117976695Y-127915892D01*
X117982856Y-127896929D01*
X117985674Y-127888256D01*
X118005460Y-127700000D01*
X117985674Y-127511744D01*
X117927179Y-127331716D01*
X117848810Y-127195977D01*
X117825500Y-127108980D01*
X117825500Y-104881164D01*
X117845431Y-104800302D01*
X117876463Y-104758127D01*
X123283128Y-99351463D01*
X123354399Y-99308379D01*
X123406165Y-99300500D01*
X123494646Y-99300500D01*
X123679803Y-99261144D01*
X123688126Y-99257438D01*
X123688130Y-99257437D01*
X123790375Y-99211913D01*
X123852730Y-99184151D01*
X124005871Y-99072888D01*
X124063412Y-99008982D01*
X124126432Y-98938992D01*
X124126433Y-98938991D01*
X124132533Y-98932216D01*
X124155882Y-98891774D01*
X124222617Y-98776186D01*
X124222618Y-98776184D01*
X124227179Y-98768284D01*
X124285674Y-98588256D01*
X124305460Y-98400000D01*
X124285674Y-98211744D01*
X124256147Y-98120870D01*
X124229998Y-98040391D01*
X124229997Y-98040388D01*
X124227179Y-98031716D01*
X124192247Y-97971211D01*
X124137093Y-97875682D01*
X124137093Y-97875681D01*
X124132533Y-97867784D01*
X124005871Y-97727112D01*
X123852730Y-97615849D01*
X123790375Y-97588087D01*
X123688130Y-97542563D01*
X123688126Y-97542562D01*
X123679803Y-97538856D01*
X123494646Y-97499500D01*
X123305354Y-97499500D01*
X123120197Y-97538856D01*
X123111874Y-97542562D01*
X123111870Y-97542563D01*
X123009625Y-97588087D01*
X122947270Y-97615849D01*
X122794129Y-97727112D01*
X122667467Y-97867784D01*
X122662907Y-97875681D01*
X122662907Y-97875682D01*
X122607754Y-97971211D01*
X122572821Y-98031716D01*
X122570003Y-98040388D01*
X122570002Y-98040391D01*
X122517174Y-98202980D01*
X122514326Y-98211744D01*
X122513373Y-98220811D01*
X122513372Y-98220816D01*
X122504402Y-98306167D01*
X122476128Y-98384503D01*
X122454392Y-98411017D01*
X116811397Y-104054012D01*
X116804938Y-104059889D01*
X116798123Y-104064214D01*
X116753852Y-104111357D01*
X116752654Y-104112633D01*
X116748851Y-104116558D01*
X116729880Y-104135529D01*
X116726529Y-104139849D01*
X116722914Y-104143950D01*
X116722843Y-104143888D01*
X116718221Y-104149300D01*
X116689938Y-104179418D01*
X116682185Y-104193522D01*
X116667192Y-104216346D01*
X116661496Y-104223689D01*
X116596186Y-104275366D01*
X116514342Y-104290772D01*
X116434713Y-104266379D01*
X116375540Y-104207774D01*
X116350381Y-104128383D01*
X116350011Y-104117041D01*
X116350011Y-100550456D01*
X116350423Y-100541723D01*
X116352184Y-100533844D01*
X116350097Y-100467433D01*
X116350011Y-100461969D01*
X116350011Y-100435161D01*
X116349326Y-100429738D01*
X116348982Y-100424277D01*
X116349076Y-100424271D01*
X116348517Y-100417174D01*
X116347564Y-100386828D01*
X116347564Y-100386827D01*
X116347220Y-100375884D01*
X116342730Y-100360429D01*
X116337193Y-100333693D01*
X116336547Y-100328581D01*
X116335175Y-100317719D01*
X116319965Y-100279303D01*
X116314654Y-100263791D01*
X116306183Y-100234633D01*
X116306183Y-100234632D01*
X116303129Y-100224121D01*
X116297559Y-100214703D01*
X116297556Y-100214696D01*
X116294938Y-100210270D01*
X116282925Y-100185749D01*
X116281030Y-100180963D01*
X116281027Y-100180957D01*
X116276997Y-100170779D01*
X116252715Y-100137357D01*
X116243716Y-100123659D01*
X116228250Y-100097507D01*
X116228249Y-100097505D01*
X116222681Y-100088091D01*
X116211295Y-100076705D01*
X116193569Y-100055950D01*
X116184105Y-100042924D01*
X116152275Y-100016592D01*
X116140150Y-100005560D01*
X114495988Y-98361397D01*
X114490111Y-98354938D01*
X114485786Y-98348123D01*
X114437367Y-98302654D01*
X114433442Y-98298851D01*
X114414471Y-98279880D01*
X114410151Y-98276529D01*
X114406050Y-98272914D01*
X114406112Y-98272843D01*
X114400695Y-98268217D01*
X114378562Y-98247432D01*
X114378563Y-98247432D01*
X114370582Y-98239938D01*
X114356473Y-98232182D01*
X114333655Y-98217193D01*
X114329589Y-98214039D01*
X114320936Y-98207327D01*
X114282999Y-98190910D01*
X114268307Y-98183713D01*
X114232092Y-98163803D01*
X114216497Y-98159799D01*
X114190676Y-98150958D01*
X114175896Y-98144562D01*
X114135084Y-98138098D01*
X114119041Y-98134776D01*
X114079019Y-98124500D01*
X114062922Y-98124500D01*
X114035704Y-98122358D01*
X114030616Y-98121552D01*
X114030613Y-98121552D01*
X114019804Y-98119840D01*
X113993167Y-98122358D01*
X113978674Y-98123728D01*
X113962299Y-98124500D01*
X113423868Y-98124500D01*
X113343006Y-98104569D01*
X113309738Y-98081407D01*
X113305871Y-98077112D01*
X113152730Y-97965849D01*
X113090375Y-97938087D01*
X112988130Y-97892563D01*
X112988126Y-97892562D01*
X112979803Y-97888856D01*
X112794646Y-97849500D01*
X112605354Y-97849500D01*
X112420197Y-97888856D01*
X112411874Y-97892562D01*
X112411870Y-97892563D01*
X112309625Y-97938087D01*
X112247270Y-97965849D01*
X112094129Y-98077112D01*
X112088026Y-98083890D01*
X111976883Y-98207327D01*
X111967467Y-98217784D01*
X111962907Y-98225681D01*
X111962907Y-98225682D01*
X111881059Y-98367448D01*
X111872821Y-98381716D01*
X111814326Y-98561744D01*
X111794540Y-98750000D01*
X111794720Y-98751712D01*
X111775562Y-98829437D01*
X111720336Y-98891774D01*
X111642466Y-98921306D01*
X111585320Y-98918773D01*
X111494646Y-98899500D01*
X111305354Y-98899500D01*
X111120197Y-98938856D01*
X111111874Y-98942562D01*
X111111870Y-98942563D01*
X111009625Y-98988087D01*
X110947270Y-99015849D01*
X110794129Y-99127112D01*
X110788026Y-99133890D01*
X110676784Y-99257437D01*
X110667467Y-99267784D01*
X110662907Y-99275681D01*
X110662907Y-99275682D01*
X110644030Y-99308379D01*
X110572821Y-99431716D01*
X110514326Y-99611744D01*
X110494540Y-99800000D01*
X110514326Y-99988256D01*
X110517144Y-99996929D01*
X110546765Y-100088091D01*
X110572821Y-100168284D01*
X110577382Y-100176184D01*
X110577383Y-100176186D01*
X110627962Y-100263791D01*
X110667467Y-100332216D01*
X110673567Y-100338991D01*
X110673568Y-100338992D01*
X110784297Y-100461969D01*
X110794129Y-100472888D01*
X110947270Y-100584151D01*
X111009625Y-100611913D01*
X111111870Y-100657437D01*
X111111874Y-100657438D01*
X111120197Y-100661144D01*
X111305354Y-100700500D01*
X111494646Y-100700500D01*
X111679803Y-100661144D01*
X111688126Y-100657438D01*
X111688130Y-100657437D01*
X111790375Y-100611913D01*
X111852730Y-100584151D01*
X112005871Y-100472888D01*
X112009095Y-100469307D01*
X112080868Y-100430897D01*
X112123868Y-100425500D01*
X113868837Y-100425500D01*
X113949699Y-100445431D01*
X113991874Y-100476464D01*
X114323537Y-100808128D01*
X114366622Y-100879399D01*
X114374500Y-100931164D01*
X114374500Y-141123058D01*
X114354569Y-141203920D01*
X114329808Y-141239485D01*
X114267467Y-141308722D01*
X114172821Y-141472654D01*
X114170003Y-141481326D01*
X114170002Y-141481329D01*
X114127725Y-141611445D01*
X114114326Y-141652682D01*
X114094540Y-141840938D01*
X114114326Y-142029194D01*
X114172821Y-142209222D01*
X114236032Y-142318706D01*
X114259201Y-142398698D01*
X114242542Y-142480297D01*
X114236032Y-142492699D01*
X114172821Y-142602185D01*
X114114326Y-142782213D01*
X114094540Y-142970469D01*
X114114326Y-143158725D01*
X114172821Y-143338753D01*
X114236032Y-143448237D01*
X114259201Y-143528229D01*
X114242542Y-143609828D01*
X114236032Y-143622230D01*
X114172821Y-143731716D01*
X114114326Y-143911744D01*
X114094540Y-144100000D01*
X114114326Y-144288256D01*
X114172821Y-144468284D01*
X114267467Y-144632216D01*
X114394129Y-144772888D01*
X114547270Y-144884151D01*
X114609625Y-144911913D01*
X114711870Y-144957437D01*
X114711874Y-144957438D01*
X114720197Y-144961144D01*
X114905354Y-145000500D01*
X115094646Y-145000500D01*
X115279803Y-144961144D01*
X115288126Y-144957438D01*
X115288130Y-144957437D01*
X115390375Y-144911913D01*
X115452730Y-144884151D01*
X115605871Y-144772888D01*
X115732533Y-144632216D01*
X115827179Y-144468284D01*
X115885674Y-144288256D01*
X115901470Y-144137959D01*
X115929744Y-144059624D01*
X115951480Y-144033110D01*
X120777463Y-139207128D01*
X120848734Y-139164044D01*
X120931864Y-139159015D01*
X121007809Y-139193195D01*
X121059171Y-139258753D01*
X121074500Y-139330165D01*
X121074500Y-140005950D01*
X121054569Y-140086812D01*
X121023537Y-140128987D01*
X112828986Y-148323537D01*
X112757715Y-148366621D01*
X112705949Y-148374500D01*
X109323856Y-148374500D01*
X109242994Y-148354569D01*
X109209734Y-148331414D01*
X109205871Y-148327123D01*
X109052730Y-148215860D01*
X108990375Y-148188098D01*
X108888130Y-148142574D01*
X108888126Y-148142573D01*
X108879803Y-148138867D01*
X108694646Y-148099511D01*
X108505354Y-148099511D01*
X108320197Y-148138867D01*
X108311874Y-148142573D01*
X108311870Y-148142574D01*
X108209625Y-148188098D01*
X108147270Y-148215860D01*
X107994129Y-148327123D01*
X107867467Y-148467795D01*
X107772821Y-148631727D01*
X107714326Y-148811755D01*
X107694540Y-149000011D01*
X99500000Y-149000011D01*
X99500000Y-125174000D01*
X99519931Y-125093138D01*
X99575157Y-125030801D01*
X99653027Y-125001269D01*
X99674000Y-125000000D01*
X105900000Y-125000000D01*
X105900000Y-97000000D01*
X99674000Y-97000000D01*
X99593138Y-96980069D01*
X99530801Y-96924843D01*
X99501269Y-96846973D01*
X99500000Y-96826000D01*
X99500000Y-88052419D01*
X99502071Y-88025650D01*
X99502697Y-88021628D01*
X99505104Y-88006171D01*
X99503497Y-87993880D01*
X99503500Y-87993616D01*
X99502362Y-87960947D01*
X99517593Y-87709162D01*
X99520126Y-87688303D01*
X99570750Y-87412059D01*
X99575779Y-87391659D01*
X99659327Y-87123543D01*
X99666777Y-87103897D01*
X99782041Y-86847789D01*
X99791806Y-86829183D01*
X99937097Y-86588844D01*
X99949033Y-86571552D01*
X100122229Y-86350483D01*
X100136162Y-86334755D01*
X100334755Y-86136162D01*
X100350483Y-86122229D01*
X100571552Y-85949033D01*
X100588844Y-85937097D01*
X100829183Y-85791806D01*
X100847789Y-85782041D01*
X101103897Y-85666777D01*
X101123543Y-85659327D01*
X101391659Y-85575779D01*
X101412059Y-85570750D01*
X101688303Y-85520126D01*
X101709162Y-85517593D01*
X101947148Y-85503197D01*
X101953215Y-85502830D01*
X101969177Y-85503581D01*
X101969184Y-85503046D01*
X101981583Y-85503197D01*
X101993829Y-85505104D01*
X102006119Y-85503497D01*
X102006120Y-85503497D01*
X102021628Y-85501469D01*
X102044188Y-85500000D01*
X150947581Y-85500000D01*
X150974347Y-85502071D01*
G37*
G04 #@! TD.AperFunction*
G04 #@! TD*
M02*
