G04 #@! TF.GenerationSoftware,KiCad,Pcbnew,(6.0.5)*
G04 #@! TF.CreationDate,2022-06-08T19:44:26-07:00*
G04 #@! TF.ProjectId,PCB,5043422e-6b69-4636-9164-5f7063625858,rev?*
G04 #@! TF.SameCoordinates,Original*
G04 #@! TF.FileFunction,Copper,L2,Bot*
G04 #@! TF.FilePolarity,Positive*
%FSLAX46Y46*%
G04 Gerber Fmt 4.6, Leading zero omitted, Abs format (unit mm)*
G04 Created by KiCad (PCBNEW (6.0.5)) date 2022-06-08 19:44:26*
%MOMM*%
%LPD*%
G01*
G04 APERTURE LIST*
%ADD10C,0.100000*%
%ADD11C,0.150000*%
%ADD12C,0.300000*%
%ADD13C,0.400000*%
G04 #@! TA.AperFunction,ComponentPad*
%ADD14R,1.700000X1.700000*%
G04 #@! TD*
G04 #@! TA.AperFunction,ComponentPad*
%ADD15O,1.700000X1.700000*%
G04 #@! TD*
G04 #@! TA.AperFunction,ComponentPad*
%ADD16R,1.600000X1.500000*%
G04 #@! TD*
G04 #@! TA.AperFunction,ComponentPad*
%ADD17C,1.600000*%
G04 #@! TD*
G04 #@! TA.AperFunction,ComponentPad*
%ADD18C,3.000000*%
G04 #@! TD*
G04 #@! TA.AperFunction,ComponentPad*
%ADD19O,1.200000X1.900000*%
G04 #@! TD*
G04 #@! TA.AperFunction,ComponentPad*
%ADD20C,1.450000*%
G04 #@! TD*
G04 #@! TA.AperFunction,ViaPad*
%ADD21C,0.800000*%
G04 #@! TD*
G04 #@! TA.AperFunction,ViaPad*
%ADD22C,4.500000*%
G04 #@! TD*
G04 #@! TA.AperFunction,Conductor*
%ADD23C,0.250000*%
G04 #@! TD*
G04 #@! TA.AperFunction,Conductor*
%ADD24C,0.350000*%
G04 #@! TD*
G04 APERTURE END LIST*
D10*
D11*
X177002200Y-166007200D02*
X177002200Y-198007200D01*
X285002200Y-198007200D01*
X285002200Y-166007200D01*
X177002200Y-166007200D01*
D10*
D11*
X10000000Y-10000000D02*
X10000000Y-200007200D01*
X287002200Y-200007200D01*
X287002200Y-10000000D01*
X10000000Y-10000000D01*
D10*
D11*
X12000000Y-12000000D02*
X12000000Y-198007200D01*
X285002200Y-198007200D01*
X285002200Y-12000000D01*
X12000000Y-12000000D01*
D10*
D11*
X60000000Y-12000000D02*
X60000000Y-10000000D01*
D10*
D11*
X110000000Y-12000000D02*
X110000000Y-10000000D01*
D10*
D11*
X160000000Y-12000000D02*
X160000000Y-10000000D01*
D10*
D11*
X210000000Y-12000000D02*
X210000000Y-10000000D01*
D10*
D11*
X260000000Y-12000000D02*
X260000000Y-10000000D01*
D10*
D11*
X36065476Y-11588095D02*
X35322619Y-11588095D01*
X35694047Y-11588095D02*
X35694047Y-10288095D01*
X35570238Y-10473809D01*
X35446428Y-10597619D01*
X35322619Y-10659523D01*
D10*
D11*
X85322619Y-10411904D02*
X85384523Y-10350000D01*
X85508333Y-10288095D01*
X85817857Y-10288095D01*
X85941666Y-10350000D01*
X86003571Y-10411904D01*
X86065476Y-10535714D01*
X86065476Y-10659523D01*
X86003571Y-10845238D01*
X85260714Y-11588095D01*
X86065476Y-11588095D01*
D10*
D11*
X135260714Y-10288095D02*
X136065476Y-10288095D01*
X135632142Y-10783333D01*
X135817857Y-10783333D01*
X135941666Y-10845238D01*
X136003571Y-10907142D01*
X136065476Y-11030952D01*
X136065476Y-11340476D01*
X136003571Y-11464285D01*
X135941666Y-11526190D01*
X135817857Y-11588095D01*
X135446428Y-11588095D01*
X135322619Y-11526190D01*
X135260714Y-11464285D01*
D10*
D11*
X185941666Y-10721428D02*
X185941666Y-11588095D01*
X185632142Y-10226190D02*
X185322619Y-11154761D01*
X186127380Y-11154761D01*
D10*
D11*
X236003571Y-10288095D02*
X235384523Y-10288095D01*
X235322619Y-10907142D01*
X235384523Y-10845238D01*
X235508333Y-10783333D01*
X235817857Y-10783333D01*
X235941666Y-10845238D01*
X236003571Y-10907142D01*
X236065476Y-11030952D01*
X236065476Y-11340476D01*
X236003571Y-11464285D01*
X235941666Y-11526190D01*
X235817857Y-11588095D01*
X235508333Y-11588095D01*
X235384523Y-11526190D01*
X235322619Y-11464285D01*
D10*
D11*
X285941666Y-10288095D02*
X285694047Y-10288095D01*
X285570238Y-10350000D01*
X285508333Y-10411904D01*
X285384523Y-10597619D01*
X285322619Y-10845238D01*
X285322619Y-11340476D01*
X285384523Y-11464285D01*
X285446428Y-11526190D01*
X285570238Y-11588095D01*
X285817857Y-11588095D01*
X285941666Y-11526190D01*
X286003571Y-11464285D01*
X286065476Y-11340476D01*
X286065476Y-11030952D01*
X286003571Y-10907142D01*
X285941666Y-10845238D01*
X285817857Y-10783333D01*
X285570238Y-10783333D01*
X285446428Y-10845238D01*
X285384523Y-10907142D01*
X285322619Y-11030952D01*
D10*
D11*
X60000000Y-198007200D02*
X60000000Y-200007200D01*
D10*
D11*
X110000000Y-198007200D02*
X110000000Y-200007200D01*
D10*
D11*
X160000000Y-198007200D02*
X160000000Y-200007200D01*
D10*
D11*
X210000000Y-198007200D02*
X210000000Y-200007200D01*
D10*
D11*
X260000000Y-198007200D02*
X260000000Y-200007200D01*
D10*
D11*
X36065476Y-199595295D02*
X35322619Y-199595295D01*
X35694047Y-199595295D02*
X35694047Y-198295295D01*
X35570238Y-198481009D01*
X35446428Y-198604819D01*
X35322619Y-198666723D01*
D10*
D11*
X85322619Y-198419104D02*
X85384523Y-198357200D01*
X85508333Y-198295295D01*
X85817857Y-198295295D01*
X85941666Y-198357200D01*
X86003571Y-198419104D01*
X86065476Y-198542914D01*
X86065476Y-198666723D01*
X86003571Y-198852438D01*
X85260714Y-199595295D01*
X86065476Y-199595295D01*
D10*
D11*
X135260714Y-198295295D02*
X136065476Y-198295295D01*
X135632142Y-198790533D01*
X135817857Y-198790533D01*
X135941666Y-198852438D01*
X136003571Y-198914342D01*
X136065476Y-199038152D01*
X136065476Y-199347676D01*
X136003571Y-199471485D01*
X135941666Y-199533390D01*
X135817857Y-199595295D01*
X135446428Y-199595295D01*
X135322619Y-199533390D01*
X135260714Y-199471485D01*
D10*
D11*
X185941666Y-198728628D02*
X185941666Y-199595295D01*
X185632142Y-198233390D02*
X185322619Y-199161961D01*
X186127380Y-199161961D01*
D10*
D11*
X236003571Y-198295295D02*
X235384523Y-198295295D01*
X235322619Y-198914342D01*
X235384523Y-198852438D01*
X235508333Y-198790533D01*
X235817857Y-198790533D01*
X235941666Y-198852438D01*
X236003571Y-198914342D01*
X236065476Y-199038152D01*
X236065476Y-199347676D01*
X236003571Y-199471485D01*
X235941666Y-199533390D01*
X235817857Y-199595295D01*
X235508333Y-199595295D01*
X235384523Y-199533390D01*
X235322619Y-199471485D01*
D10*
D11*
X285941666Y-198295295D02*
X285694047Y-198295295D01*
X285570238Y-198357200D01*
X285508333Y-198419104D01*
X285384523Y-198604819D01*
X285322619Y-198852438D01*
X285322619Y-199347676D01*
X285384523Y-199471485D01*
X285446428Y-199533390D01*
X285570238Y-199595295D01*
X285817857Y-199595295D01*
X285941666Y-199533390D01*
X286003571Y-199471485D01*
X286065476Y-199347676D01*
X286065476Y-199038152D01*
X286003571Y-198914342D01*
X285941666Y-198852438D01*
X285817857Y-198790533D01*
X285570238Y-198790533D01*
X285446428Y-198852438D01*
X285384523Y-198914342D01*
X285322619Y-199038152D01*
D10*
D11*
X10000000Y-60000000D02*
X12000000Y-60000000D01*
D10*
D11*
X10000000Y-110000000D02*
X12000000Y-110000000D01*
D10*
D11*
X10000000Y-160000000D02*
X12000000Y-160000000D01*
D10*
D11*
X10690476Y-35216666D02*
X11309523Y-35216666D01*
X10566666Y-35588095D02*
X11000000Y-34288095D01*
X11433333Y-35588095D01*
D10*
D11*
X11092857Y-84907142D02*
X11278571Y-84969047D01*
X11340476Y-85030952D01*
X11402380Y-85154761D01*
X11402380Y-85340476D01*
X11340476Y-85464285D01*
X11278571Y-85526190D01*
X11154761Y-85588095D01*
X10659523Y-85588095D01*
X10659523Y-84288095D01*
X11092857Y-84288095D01*
X11216666Y-84350000D01*
X11278571Y-84411904D01*
X11340476Y-84535714D01*
X11340476Y-84659523D01*
X11278571Y-84783333D01*
X11216666Y-84845238D01*
X11092857Y-84907142D01*
X10659523Y-84907142D01*
D10*
D11*
X11402380Y-135464285D02*
X11340476Y-135526190D01*
X11154761Y-135588095D01*
X11030952Y-135588095D01*
X10845238Y-135526190D01*
X10721428Y-135402380D01*
X10659523Y-135278571D01*
X10597619Y-135030952D01*
X10597619Y-134845238D01*
X10659523Y-134597619D01*
X10721428Y-134473809D01*
X10845238Y-134350000D01*
X11030952Y-134288095D01*
X11154761Y-134288095D01*
X11340476Y-134350000D01*
X11402380Y-134411904D01*
D10*
D11*
X10659523Y-185588095D02*
X10659523Y-184288095D01*
X10969047Y-184288095D01*
X11154761Y-184350000D01*
X11278571Y-184473809D01*
X11340476Y-184597619D01*
X11402380Y-184845238D01*
X11402380Y-185030952D01*
X11340476Y-185278571D01*
X11278571Y-185402380D01*
X11154761Y-185526190D01*
X10969047Y-185588095D01*
X10659523Y-185588095D01*
D10*
D11*
X287002200Y-60000000D02*
X285002200Y-60000000D01*
D10*
D11*
X287002200Y-110000000D02*
X285002200Y-110000000D01*
D10*
D11*
X287002200Y-160000000D02*
X285002200Y-160000000D01*
D10*
D11*
X285692676Y-35216666D02*
X286311723Y-35216666D01*
X285568866Y-35588095D02*
X286002200Y-34288095D01*
X286435533Y-35588095D01*
D10*
D11*
X286095057Y-84907142D02*
X286280771Y-84969047D01*
X286342676Y-85030952D01*
X286404580Y-85154761D01*
X286404580Y-85340476D01*
X286342676Y-85464285D01*
X286280771Y-85526190D01*
X286156961Y-85588095D01*
X285661723Y-85588095D01*
X285661723Y-84288095D01*
X286095057Y-84288095D01*
X286218866Y-84350000D01*
X286280771Y-84411904D01*
X286342676Y-84535714D01*
X286342676Y-84659523D01*
X286280771Y-84783333D01*
X286218866Y-84845238D01*
X286095057Y-84907142D01*
X285661723Y-84907142D01*
D10*
D11*
X286404580Y-135464285D02*
X286342676Y-135526190D01*
X286156961Y-135588095D01*
X286033152Y-135588095D01*
X285847438Y-135526190D01*
X285723628Y-135402380D01*
X285661723Y-135278571D01*
X285599819Y-135030952D01*
X285599819Y-134845238D01*
X285661723Y-134597619D01*
X285723628Y-134473809D01*
X285847438Y-134350000D01*
X286033152Y-134288095D01*
X286156961Y-134288095D01*
X286342676Y-134350000D01*
X286404580Y-134411904D01*
D10*
D11*
X285661723Y-185588095D02*
X285661723Y-184288095D01*
X285971247Y-184288095D01*
X286156961Y-184350000D01*
X286280771Y-184473809D01*
X286342676Y-184597619D01*
X286404580Y-184845238D01*
X286404580Y-185030952D01*
X286342676Y-185278571D01*
X286280771Y-185402380D01*
X286156961Y-185526190D01*
X285971247Y-185588095D01*
X285661723Y-185588095D01*
D10*
D11*
X200434342Y-193785771D02*
X200434342Y-192285771D01*
X200791485Y-192285771D01*
X201005771Y-192357200D01*
X201148628Y-192500057D01*
X201220057Y-192642914D01*
X201291485Y-192928628D01*
X201291485Y-193142914D01*
X201220057Y-193428628D01*
X201148628Y-193571485D01*
X201005771Y-193714342D01*
X200791485Y-193785771D01*
X200434342Y-193785771D01*
X202577200Y-193785771D02*
X202577200Y-193000057D01*
X202505771Y-192857200D01*
X202362914Y-192785771D01*
X202077200Y-192785771D01*
X201934342Y-192857200D01*
X202577200Y-193714342D02*
X202434342Y-193785771D01*
X202077200Y-193785771D01*
X201934342Y-193714342D01*
X201862914Y-193571485D01*
X201862914Y-193428628D01*
X201934342Y-193285771D01*
X202077200Y-193214342D01*
X202434342Y-193214342D01*
X202577200Y-193142914D01*
X203077200Y-192785771D02*
X203648628Y-192785771D01*
X203291485Y-192285771D02*
X203291485Y-193571485D01*
X203362914Y-193714342D01*
X203505771Y-193785771D01*
X203648628Y-193785771D01*
X204720057Y-193714342D02*
X204577200Y-193785771D01*
X204291485Y-193785771D01*
X204148628Y-193714342D01*
X204077200Y-193571485D01*
X204077200Y-193000057D01*
X204148628Y-192857200D01*
X204291485Y-192785771D01*
X204577200Y-192785771D01*
X204720057Y-192857200D01*
X204791485Y-193000057D01*
X204791485Y-193142914D01*
X204077200Y-193285771D01*
X205434342Y-193642914D02*
X205505771Y-193714342D01*
X205434342Y-193785771D01*
X205362914Y-193714342D01*
X205434342Y-193642914D01*
X205434342Y-193785771D01*
X205434342Y-192857200D02*
X205505771Y-192928628D01*
X205434342Y-193000057D01*
X205362914Y-192928628D01*
X205434342Y-192857200D01*
X205434342Y-193000057D01*
D10*
D11*
X177002200Y-194507200D02*
X285002200Y-194507200D01*
D10*
D11*
X178434342Y-196585771D02*
X178434342Y-195085771D01*
X179291485Y-196585771D02*
X178648628Y-195728628D01*
X179291485Y-195085771D02*
X178434342Y-195942914D01*
X179934342Y-196585771D02*
X179934342Y-195585771D01*
X179934342Y-195085771D02*
X179862914Y-195157200D01*
X179934342Y-195228628D01*
X180005771Y-195157200D01*
X179934342Y-195085771D01*
X179934342Y-195228628D01*
X181505771Y-196442914D02*
X181434342Y-196514342D01*
X181220057Y-196585771D01*
X181077200Y-196585771D01*
X180862914Y-196514342D01*
X180720057Y-196371485D01*
X180648628Y-196228628D01*
X180577200Y-195942914D01*
X180577200Y-195728628D01*
X180648628Y-195442914D01*
X180720057Y-195300057D01*
X180862914Y-195157200D01*
X181077200Y-195085771D01*
X181220057Y-195085771D01*
X181434342Y-195157200D01*
X181505771Y-195228628D01*
X182791485Y-196585771D02*
X182791485Y-195800057D01*
X182720057Y-195657200D01*
X182577200Y-195585771D01*
X182291485Y-195585771D01*
X182148628Y-195657200D01*
X182791485Y-196514342D02*
X182648628Y-196585771D01*
X182291485Y-196585771D01*
X182148628Y-196514342D01*
X182077200Y-196371485D01*
X182077200Y-196228628D01*
X182148628Y-196085771D01*
X182291485Y-196014342D01*
X182648628Y-196014342D01*
X182791485Y-195942914D01*
X184148628Y-196585771D02*
X184148628Y-195085771D01*
X184148628Y-196514342D02*
X184005771Y-196585771D01*
X183720057Y-196585771D01*
X183577200Y-196514342D01*
X183505771Y-196442914D01*
X183434342Y-196300057D01*
X183434342Y-195871485D01*
X183505771Y-195728628D01*
X183577200Y-195657200D01*
X183720057Y-195585771D01*
X184005771Y-195585771D01*
X184148628Y-195657200D01*
X186005771Y-195800057D02*
X186505771Y-195800057D01*
X186720057Y-196585771D02*
X186005771Y-196585771D01*
X186005771Y-195085771D01*
X186720057Y-195085771D01*
X187362914Y-196442914D02*
X187434342Y-196514342D01*
X187362914Y-196585771D01*
X187291485Y-196514342D01*
X187362914Y-196442914D01*
X187362914Y-196585771D01*
X188077200Y-196585771D02*
X188077200Y-195085771D01*
X188434342Y-195085771D01*
X188648628Y-195157200D01*
X188791485Y-195300057D01*
X188862914Y-195442914D01*
X188934342Y-195728628D01*
X188934342Y-195942914D01*
X188862914Y-196228628D01*
X188791485Y-196371485D01*
X188648628Y-196514342D01*
X188434342Y-196585771D01*
X188077200Y-196585771D01*
X189577200Y-196442914D02*
X189648628Y-196514342D01*
X189577200Y-196585771D01*
X189505771Y-196514342D01*
X189577200Y-196442914D01*
X189577200Y-196585771D01*
X190220057Y-196157200D02*
X190934342Y-196157200D01*
X190077200Y-196585771D02*
X190577200Y-195085771D01*
X191077200Y-196585771D01*
X191577200Y-196442914D02*
X191648628Y-196514342D01*
X191577200Y-196585771D01*
X191505771Y-196514342D01*
X191577200Y-196442914D01*
X191577200Y-196585771D01*
X194577200Y-196585771D02*
X194577200Y-195085771D01*
X194720057Y-196014342D02*
X195148628Y-196585771D01*
X195148628Y-195585771D02*
X194577200Y-196157200D01*
X195791485Y-196585771D02*
X195791485Y-195585771D01*
X195791485Y-195085771D02*
X195720057Y-195157200D01*
X195791485Y-195228628D01*
X195862914Y-195157200D01*
X195791485Y-195085771D01*
X195791485Y-195228628D01*
X197148628Y-196514342D02*
X197005771Y-196585771D01*
X196720057Y-196585771D01*
X196577200Y-196514342D01*
X196505771Y-196442914D01*
X196434342Y-196300057D01*
X196434342Y-195871485D01*
X196505771Y-195728628D01*
X196577200Y-195657200D01*
X196720057Y-195585771D01*
X197005771Y-195585771D01*
X197148628Y-195657200D01*
X198434342Y-196585771D02*
X198434342Y-195800057D01*
X198362914Y-195657200D01*
X198220057Y-195585771D01*
X197934342Y-195585771D01*
X197791485Y-195657200D01*
X198434342Y-196514342D02*
X198291485Y-196585771D01*
X197934342Y-196585771D01*
X197791485Y-196514342D01*
X197720057Y-196371485D01*
X197720057Y-196228628D01*
X197791485Y-196085771D01*
X197934342Y-196014342D01*
X198291485Y-196014342D01*
X198434342Y-195942914D01*
X199791485Y-196585771D02*
X199791485Y-195085771D01*
X199791485Y-196514342D02*
X199648628Y-196585771D01*
X199362914Y-196585771D01*
X199220057Y-196514342D01*
X199148628Y-196442914D01*
X199077200Y-196300057D01*
X199077200Y-195871485D01*
X199148628Y-195728628D01*
X199220057Y-195657200D01*
X199362914Y-195585771D01*
X199648628Y-195585771D01*
X199791485Y-195657200D01*
X202077200Y-197157200D02*
X202005771Y-197085771D01*
X201862914Y-196871485D01*
X201791485Y-196728628D01*
X201720057Y-196514342D01*
X201648628Y-196157200D01*
X201648628Y-195871485D01*
X201720057Y-195514342D01*
X201791485Y-195300057D01*
X201862914Y-195157200D01*
X202005771Y-194942914D01*
X202077200Y-194871485D01*
X203291485Y-195085771D02*
X203005771Y-195085771D01*
X202862914Y-195157200D01*
X202791485Y-195228628D01*
X202648628Y-195442914D01*
X202577200Y-195728628D01*
X202577200Y-196300057D01*
X202648628Y-196442914D01*
X202720057Y-196514342D01*
X202862914Y-196585771D01*
X203148628Y-196585771D01*
X203291485Y-196514342D01*
X203362914Y-196442914D01*
X203434342Y-196300057D01*
X203434342Y-195942914D01*
X203362914Y-195800057D01*
X203291485Y-195728628D01*
X203148628Y-195657200D01*
X202862914Y-195657200D01*
X202720057Y-195728628D01*
X202648628Y-195800057D01*
X202577200Y-195942914D01*
X204077200Y-196442914D02*
X204148628Y-196514342D01*
X204077200Y-196585771D01*
X204005771Y-196514342D01*
X204077200Y-196442914D01*
X204077200Y-196585771D01*
X205077200Y-195085771D02*
X205220057Y-195085771D01*
X205362914Y-195157200D01*
X205434342Y-195228628D01*
X205505771Y-195371485D01*
X205577200Y-195657200D01*
X205577200Y-196014342D01*
X205505771Y-196300057D01*
X205434342Y-196442914D01*
X205362914Y-196514342D01*
X205220057Y-196585771D01*
X205077200Y-196585771D01*
X204934342Y-196514342D01*
X204862914Y-196442914D01*
X204791485Y-196300057D01*
X204720057Y-196014342D01*
X204720057Y-195657200D01*
X204791485Y-195371485D01*
X204862914Y-195228628D01*
X204934342Y-195157200D01*
X205077200Y-195085771D01*
X206220057Y-196442914D02*
X206291485Y-196514342D01*
X206220057Y-196585771D01*
X206148628Y-196514342D01*
X206220057Y-196442914D01*
X206220057Y-196585771D01*
X207648628Y-195085771D02*
X206934342Y-195085771D01*
X206862914Y-195800057D01*
X206934342Y-195728628D01*
X207077200Y-195657200D01*
X207434342Y-195657200D01*
X207577200Y-195728628D01*
X207648628Y-195800057D01*
X207720057Y-195942914D01*
X207720057Y-196300057D01*
X207648628Y-196442914D01*
X207577200Y-196514342D01*
X207434342Y-196585771D01*
X207077200Y-196585771D01*
X206934342Y-196514342D01*
X206862914Y-196442914D01*
X208220057Y-197157200D02*
X208291485Y-197085771D01*
X208434342Y-196871485D01*
X208505771Y-196728628D01*
X208577200Y-196514342D01*
X208648628Y-196157200D01*
X208648628Y-195871485D01*
X208577200Y-195514342D01*
X208505771Y-195300057D01*
X208434342Y-195157200D01*
X208291485Y-194942914D01*
X208220057Y-194871485D01*
D10*
D11*
X177002200Y-191507200D02*
X285002200Y-191507200D01*
D10*
D12*
X264411485Y-193785771D02*
X263911485Y-193071485D01*
X263554342Y-193785771D02*
X263554342Y-192285771D01*
X264125771Y-192285771D01*
X264268628Y-192357200D01*
X264340057Y-192428628D01*
X264411485Y-192571485D01*
X264411485Y-192785771D01*
X264340057Y-192928628D01*
X264268628Y-193000057D01*
X264125771Y-193071485D01*
X263554342Y-193071485D01*
X265625771Y-193714342D02*
X265482914Y-193785771D01*
X265197200Y-193785771D01*
X265054342Y-193714342D01*
X264982914Y-193571485D01*
X264982914Y-193000057D01*
X265054342Y-192857200D01*
X265197200Y-192785771D01*
X265482914Y-192785771D01*
X265625771Y-192857200D01*
X265697200Y-193000057D01*
X265697200Y-193142914D01*
X264982914Y-193285771D01*
X266197200Y-192785771D02*
X266554342Y-193785771D01*
X266911485Y-192785771D01*
X267482914Y-193642914D02*
X267554342Y-193714342D01*
X267482914Y-193785771D01*
X267411485Y-193714342D01*
X267482914Y-193642914D01*
X267482914Y-193785771D01*
X267482914Y-192857200D02*
X267554342Y-192928628D01*
X267482914Y-193000057D01*
X267411485Y-192928628D01*
X267482914Y-192857200D01*
X267482914Y-193000057D01*
D10*
D11*
X178362914Y-193714342D02*
X178577200Y-193785771D01*
X178934342Y-193785771D01*
X179077200Y-193714342D01*
X179148628Y-193642914D01*
X179220057Y-193500057D01*
X179220057Y-193357200D01*
X179148628Y-193214342D01*
X179077200Y-193142914D01*
X178934342Y-193071485D01*
X178648628Y-193000057D01*
X178505771Y-192928628D01*
X178434342Y-192857200D01*
X178362914Y-192714342D01*
X178362914Y-192571485D01*
X178434342Y-192428628D01*
X178505771Y-192357200D01*
X178648628Y-192285771D01*
X179005771Y-192285771D01*
X179220057Y-192357200D01*
X179862914Y-193785771D02*
X179862914Y-192785771D01*
X179862914Y-192285771D02*
X179791485Y-192357200D01*
X179862914Y-192428628D01*
X179934342Y-192357200D01*
X179862914Y-192285771D01*
X179862914Y-192428628D01*
X180434342Y-192785771D02*
X181220057Y-192785771D01*
X180434342Y-193785771D01*
X181220057Y-193785771D01*
X182362914Y-193714342D02*
X182220057Y-193785771D01*
X181934342Y-193785771D01*
X181791485Y-193714342D01*
X181720057Y-193571485D01*
X181720057Y-193000057D01*
X181791485Y-192857200D01*
X181934342Y-192785771D01*
X182220057Y-192785771D01*
X182362914Y-192857200D01*
X182434342Y-193000057D01*
X182434342Y-193142914D01*
X181720057Y-193285771D01*
X183077200Y-193642914D02*
X183148628Y-193714342D01*
X183077200Y-193785771D01*
X183005771Y-193714342D01*
X183077200Y-193642914D01*
X183077200Y-193785771D01*
X183077200Y-192857200D02*
X183148628Y-192928628D01*
X183077200Y-193000057D01*
X183005771Y-192928628D01*
X183077200Y-192857200D01*
X183077200Y-193000057D01*
X184862914Y-193357200D02*
X185577200Y-193357200D01*
X184720057Y-193785771D02*
X185220057Y-192285771D01*
X185720057Y-193785771D01*
X186862914Y-192785771D02*
X186862914Y-193785771D01*
X186505771Y-192214342D02*
X186148628Y-193285771D01*
X187077200Y-193285771D01*
D10*
D11*
X263434342Y-196585771D02*
X263434342Y-195085771D01*
X264791485Y-196585771D02*
X264791485Y-195085771D01*
X264791485Y-196514342D02*
X264648628Y-196585771D01*
X264362914Y-196585771D01*
X264220057Y-196514342D01*
X264148628Y-196442914D01*
X264077200Y-196300057D01*
X264077200Y-195871485D01*
X264148628Y-195728628D01*
X264220057Y-195657200D01*
X264362914Y-195585771D01*
X264648628Y-195585771D01*
X264791485Y-195657200D01*
X265505771Y-196442914D02*
X265577200Y-196514342D01*
X265505771Y-196585771D01*
X265434342Y-196514342D01*
X265505771Y-196442914D01*
X265505771Y-196585771D01*
X265505771Y-195657200D02*
X265577200Y-195728628D01*
X265505771Y-195800057D01*
X265434342Y-195728628D01*
X265505771Y-195657200D01*
X265505771Y-195800057D01*
X268148628Y-196585771D02*
X267291485Y-196585771D01*
X267720057Y-196585771D02*
X267720057Y-195085771D01*
X267577200Y-195300057D01*
X267434342Y-195442914D01*
X267291485Y-195514342D01*
X269862914Y-195014342D02*
X268577200Y-196942914D01*
X271148628Y-196585771D02*
X270291485Y-196585771D01*
X270720057Y-196585771D02*
X270720057Y-195085771D01*
X270577200Y-195300057D01*
X270434342Y-195442914D01*
X270291485Y-195514342D01*
D10*
D11*
X177002200Y-187507200D02*
X285002200Y-187507200D01*
D10*
D13*
X178714580Y-188211961D02*
X179857438Y-188211961D01*
X179036009Y-190211961D02*
X179286009Y-188211961D01*
X180274104Y-190211961D02*
X180440771Y-188878628D01*
X180524104Y-188211961D02*
X180416961Y-188307200D01*
X180500295Y-188402438D01*
X180607438Y-188307200D01*
X180524104Y-188211961D01*
X180500295Y-188402438D01*
X181107438Y-188878628D02*
X181869342Y-188878628D01*
X181476485Y-188211961D02*
X181262200Y-189926247D01*
X181333628Y-190116723D01*
X181512200Y-190211961D01*
X181702676Y-190211961D01*
X182655057Y-190211961D02*
X182476485Y-190116723D01*
X182405057Y-189926247D01*
X182619342Y-188211961D01*
X184190771Y-190116723D02*
X183988390Y-190211961D01*
X183607438Y-190211961D01*
X183428866Y-190116723D01*
X183357438Y-189926247D01*
X183452676Y-189164342D01*
X183571723Y-188973866D01*
X183774104Y-188878628D01*
X184155057Y-188878628D01*
X184333628Y-188973866D01*
X184405057Y-189164342D01*
X184381247Y-189354819D01*
X183405057Y-189545295D01*
X185155057Y-190021485D02*
X185238390Y-190116723D01*
X185131247Y-190211961D01*
X185047914Y-190116723D01*
X185155057Y-190021485D01*
X185131247Y-190211961D01*
X185286009Y-188973866D02*
X185369342Y-189069104D01*
X185262200Y-189164342D01*
X185178866Y-189069104D01*
X185286009Y-188973866D01*
X185262200Y-189164342D01*
D10*
D11*
X178934342Y-185600057D02*
X178434342Y-185600057D01*
X178434342Y-186385771D02*
X178434342Y-184885771D01*
X179148628Y-184885771D01*
X179720057Y-186385771D02*
X179720057Y-185385771D01*
X179720057Y-184885771D02*
X179648628Y-184957200D01*
X179720057Y-185028628D01*
X179791485Y-184957200D01*
X179720057Y-184885771D01*
X179720057Y-185028628D01*
X180648628Y-186385771D02*
X180505771Y-186314342D01*
X180434342Y-186171485D01*
X180434342Y-184885771D01*
X181791485Y-186314342D02*
X181648628Y-186385771D01*
X181362914Y-186385771D01*
X181220057Y-186314342D01*
X181148628Y-186171485D01*
X181148628Y-185600057D01*
X181220057Y-185457200D01*
X181362914Y-185385771D01*
X181648628Y-185385771D01*
X181791485Y-185457200D01*
X181862914Y-185600057D01*
X181862914Y-185742914D01*
X181148628Y-185885771D01*
X182505771Y-186242914D02*
X182577200Y-186314342D01*
X182505771Y-186385771D01*
X182434342Y-186314342D01*
X182505771Y-186242914D01*
X182505771Y-186385771D01*
X182505771Y-185457200D02*
X182577200Y-185528628D01*
X182505771Y-185600057D01*
X182434342Y-185528628D01*
X182505771Y-185457200D01*
X182505771Y-185600057D01*
X184362914Y-186385771D02*
X184362914Y-184885771D01*
X184934342Y-184885771D01*
X185077200Y-184957200D01*
X185148628Y-185028628D01*
X185220057Y-185171485D01*
X185220057Y-185385771D01*
X185148628Y-185528628D01*
X185077200Y-185600057D01*
X184934342Y-185671485D01*
X184362914Y-185671485D01*
X186720057Y-186242914D02*
X186648628Y-186314342D01*
X186434342Y-186385771D01*
X186291485Y-186385771D01*
X186077200Y-186314342D01*
X185934342Y-186171485D01*
X185862914Y-186028628D01*
X185791485Y-185742914D01*
X185791485Y-185528628D01*
X185862914Y-185242914D01*
X185934342Y-185100057D01*
X186077200Y-184957200D01*
X186291485Y-184885771D01*
X186434342Y-184885771D01*
X186648628Y-184957200D01*
X186720057Y-185028628D01*
X187862914Y-185600057D02*
X188077200Y-185671485D01*
X188148628Y-185742914D01*
X188220057Y-185885771D01*
X188220057Y-186100057D01*
X188148628Y-186242914D01*
X188077200Y-186314342D01*
X187934342Y-186385771D01*
X187362914Y-186385771D01*
X187362914Y-184885771D01*
X187862914Y-184885771D01*
X188005771Y-184957200D01*
X188077200Y-185028628D01*
X188148628Y-185171485D01*
X188148628Y-185314342D01*
X188077200Y-185457200D01*
X188005771Y-185528628D01*
X187862914Y-185600057D01*
X187362914Y-185600057D01*
X188862914Y-186242914D02*
X188934342Y-186314342D01*
X188862914Y-186385771D01*
X188791485Y-186314342D01*
X188862914Y-186242914D01*
X188862914Y-186385771D01*
X189577200Y-186385771D02*
X189577200Y-184885771D01*
X189720057Y-185814342D02*
X190148628Y-186385771D01*
X190148628Y-185385771D02*
X189577200Y-185957200D01*
X190791485Y-186385771D02*
X190791485Y-185385771D01*
X190791485Y-184885771D02*
X190720057Y-184957200D01*
X190791485Y-185028628D01*
X190862914Y-184957200D01*
X190791485Y-184885771D01*
X190791485Y-185028628D01*
X192148628Y-186314342D02*
X192005771Y-186385771D01*
X191720057Y-186385771D01*
X191577200Y-186314342D01*
X191505771Y-186242914D01*
X191434342Y-186100057D01*
X191434342Y-185671485D01*
X191505771Y-185528628D01*
X191577200Y-185457200D01*
X191720057Y-185385771D01*
X192005771Y-185385771D01*
X192148628Y-185457200D01*
X193434342Y-186385771D02*
X193434342Y-185600057D01*
X193362914Y-185457200D01*
X193220057Y-185385771D01*
X192934342Y-185385771D01*
X192791485Y-185457200D01*
X193434342Y-186314342D02*
X193291485Y-186385771D01*
X192934342Y-186385771D01*
X192791485Y-186314342D01*
X192720057Y-186171485D01*
X192720057Y-186028628D01*
X192791485Y-185885771D01*
X192934342Y-185814342D01*
X193291485Y-185814342D01*
X193434342Y-185742914D01*
X194791485Y-186385771D02*
X194791485Y-184885771D01*
X194791485Y-186314342D02*
X194648628Y-186385771D01*
X194362914Y-186385771D01*
X194220057Y-186314342D01*
X194148628Y-186242914D01*
X194077200Y-186100057D01*
X194077200Y-185671485D01*
X194148628Y-185528628D01*
X194220057Y-185457200D01*
X194362914Y-185385771D01*
X194648628Y-185385771D01*
X194791485Y-185457200D01*
X195148628Y-186528628D02*
X196291485Y-186528628D01*
X196648628Y-185385771D02*
X196648628Y-186885771D01*
X196648628Y-185457200D02*
X196791485Y-185385771D01*
X197077200Y-185385771D01*
X197220057Y-185457200D01*
X197291485Y-185528628D01*
X197362914Y-185671485D01*
X197362914Y-186100057D01*
X197291485Y-186242914D01*
X197220057Y-186314342D01*
X197077200Y-186385771D01*
X196791485Y-186385771D01*
X196648628Y-186314342D01*
X198648628Y-186314342D02*
X198505771Y-186385771D01*
X198220057Y-186385771D01*
X198077200Y-186314342D01*
X198005771Y-186242914D01*
X197934342Y-186100057D01*
X197934342Y-185671485D01*
X198005771Y-185528628D01*
X198077200Y-185457200D01*
X198220057Y-185385771D01*
X198505771Y-185385771D01*
X198648628Y-185457200D01*
X199291485Y-186385771D02*
X199291485Y-184885771D01*
X199291485Y-185457200D02*
X199434342Y-185385771D01*
X199720057Y-185385771D01*
X199862914Y-185457200D01*
X199934342Y-185528628D01*
X200005771Y-185671485D01*
X200005771Y-186100057D01*
X199934342Y-186242914D01*
X199862914Y-186314342D01*
X199720057Y-186385771D01*
X199434342Y-186385771D01*
X199291485Y-186314342D01*
D10*
D11*
X177002200Y-181507200D02*
X285002200Y-181507200D01*
D10*
D11*
X178362914Y-183614342D02*
X178577200Y-183685771D01*
X178934342Y-183685771D01*
X179077200Y-183614342D01*
X179148628Y-183542914D01*
X179220057Y-183400057D01*
X179220057Y-183257200D01*
X179148628Y-183114342D01*
X179077200Y-183042914D01*
X178934342Y-182971485D01*
X178648628Y-182900057D01*
X178505771Y-182828628D01*
X178434342Y-182757200D01*
X178362914Y-182614342D01*
X178362914Y-182471485D01*
X178434342Y-182328628D01*
X178505771Y-182257200D01*
X178648628Y-182185771D01*
X179005771Y-182185771D01*
X179220057Y-182257200D01*
X179862914Y-183685771D02*
X179862914Y-182185771D01*
X180505771Y-183685771D02*
X180505771Y-182900057D01*
X180434342Y-182757200D01*
X180291485Y-182685771D01*
X180077200Y-182685771D01*
X179934342Y-182757200D01*
X179862914Y-182828628D01*
X181791485Y-183614342D02*
X181648628Y-183685771D01*
X181362914Y-183685771D01*
X181220057Y-183614342D01*
X181148628Y-183471485D01*
X181148628Y-182900057D01*
X181220057Y-182757200D01*
X181362914Y-182685771D01*
X181648628Y-182685771D01*
X181791485Y-182757200D01*
X181862914Y-182900057D01*
X181862914Y-183042914D01*
X181148628Y-183185771D01*
X183077200Y-183614342D02*
X182934342Y-183685771D01*
X182648628Y-183685771D01*
X182505771Y-183614342D01*
X182434342Y-183471485D01*
X182434342Y-182900057D01*
X182505771Y-182757200D01*
X182648628Y-182685771D01*
X182934342Y-182685771D01*
X183077200Y-182757200D01*
X183148628Y-182900057D01*
X183148628Y-183042914D01*
X182434342Y-183185771D01*
X183577200Y-182685771D02*
X184148628Y-182685771D01*
X183791485Y-182185771D02*
X183791485Y-183471485D01*
X183862914Y-183614342D01*
X184005771Y-183685771D01*
X184148628Y-183685771D01*
X184648628Y-183542914D02*
X184720057Y-183614342D01*
X184648628Y-183685771D01*
X184577200Y-183614342D01*
X184648628Y-183542914D01*
X184648628Y-183685771D01*
X184648628Y-182757200D02*
X184720057Y-182828628D01*
X184648628Y-182900057D01*
X184577200Y-182828628D01*
X184648628Y-182757200D01*
X184648628Y-182900057D01*
D10*
D12*
D10*
D11*
D10*
D11*
D10*
D11*
D10*
D11*
D10*
D11*
X197002200Y-191507200D02*
X197002200Y-194507200D01*
D10*
D11*
X261002200Y-191507200D02*
X261002200Y-198007200D01*
D14*
G04 #@! TO.P,SW4,1,1*
G04 #@! TO.N,Earth*
X150750000Y-119225000D03*
D15*
G04 #@! TO.P,SW4,2,2*
G04 #@! TO.N,CHIP_PU*
X150750000Y-121765000D03*
G04 #@! TD*
D16*
G04 #@! TO.P,J1,1,VBUS*
G04 #@! TO.N,S4_VBUS*
X111250000Y-166790000D03*
D17*
G04 #@! TO.P,J1,2,D-*
G04 #@! TO.N,ESD_S4_DN*
X113750000Y-166790000D03*
G04 #@! TO.P,J1,3,D+*
G04 #@! TO.N,ESD_S4_DP*
X115750000Y-166790000D03*
G04 #@! TO.P,J1,4,GND*
G04 #@! TO.N,Earth*
X118250000Y-166790000D03*
D18*
G04 #@! TO.P,J1,5,Shield*
G04 #@! TO.N,unconnected-(J1-Pad5)*
X121320000Y-169500000D03*
X108180000Y-169500000D03*
G04 #@! TD*
D19*
G04 #@! TO.P,J3,6,Shield*
G04 #@! TO.N,unconnected-(J3-Pad6)*
X126250000Y-178447500D03*
X133250000Y-178447500D03*
D20*
X127250000Y-175747500D03*
X132250000Y-175747500D03*
G04 #@! TD*
D14*
G04 #@! TO.P,SW2,1,1*
G04 #@! TO.N,Earth*
X150750000Y-126475000D03*
D15*
G04 #@! TO.P,SW2,2,2*
G04 #@! TO.N,Net-(C5-Pad1)*
X150750000Y-129015000D03*
G04 #@! TD*
D21*
G04 #@! TO.N,Net-(Q1-Pad2)*
X136600000Y-90000000D03*
X134800000Y-105200000D03*
G04 #@! TO.N,CHIP_PU*
X123400000Y-98400000D03*
X140800000Y-98400000D03*
X135800000Y-107300000D03*
X117100000Y-127700000D03*
G04 #@! TO.N,VBUS*
X130800000Y-159000000D03*
X127800000Y-89600000D03*
G04 #@! TO.N,Net-(R10-Pad2)*
X121000000Y-151400000D03*
X122600000Y-142600000D03*
G04 #@! TO.N,Earth*
X139000000Y-109200000D03*
X148750000Y-170750000D03*
D22*
X150750000Y-176750000D03*
D21*
X121925000Y-92925000D03*
X115000000Y-156750000D03*
X131200000Y-173000000D03*
X116000000Y-144750000D03*
X140400000Y-115600000D03*
X125000000Y-145800000D03*
D22*
X102250000Y-176750000D03*
D21*
X103000000Y-159000000D03*
X145300000Y-159000000D03*
X133200000Y-115600000D03*
X142500000Y-136500000D03*
X129500000Y-154500000D03*
X112200000Y-131100000D03*
X107100000Y-122300000D03*
X105900000Y-139100000D03*
X111500000Y-124000000D03*
D22*
X150750000Y-88250000D03*
X102250000Y-88250000D03*
D21*
G04 #@! TO.N,BOOT*
X127750000Y-131000000D03*
X127750000Y-102250000D03*
G04 #@! TO.N,ESD_DP*
X116500000Y-150500000D03*
X133800000Y-170000000D03*
G04 #@! TO.N,ESD_DN*
X133800000Y-168558500D03*
X117250000Y-151250000D03*
G04 #@! TO.N,ESD_S4_DP*
X123000000Y-164500000D03*
X124000000Y-122250000D03*
G04 #@! TO.N,ESD_S4_DN*
X122500000Y-162174992D03*
X122750000Y-122250000D03*
G04 #@! TO.N,U0_RXD*
X115000000Y-142970469D03*
X112700000Y-98750000D03*
G04 #@! TO.N,U0_TXD*
X111400000Y-99800000D03*
X115000000Y-141840938D03*
G04 #@! TO.N,ANT_RX*
X144250000Y-136500000D03*
X144250000Y-131250000D03*
G04 #@! TO.N,ANT_RTS*
X134371500Y-128871500D03*
X134500000Y-124250000D03*
G04 #@! TO.N,Net-(R3-Pad2)*
X121500000Y-122250000D03*
X105250000Y-149250000D03*
G04 #@! TO.N,Net-(R6-Pad2)*
X128800000Y-109100000D03*
X131750000Y-161750000D03*
G04 #@! TO.N,Net-(Q2-Pad2)*
X120800000Y-130300000D03*
X115000000Y-144100000D03*
G04 #@! TD*
D23*
G04 #@! TO.N,Net-(Q1-Pad2)*
X134800000Y-105200000D02*
X136600000Y-103400000D01*
X136600000Y-103400000D02*
X136600000Y-90000000D01*
G04 #@! TO.N,CHIP_PU*
X135800000Y-107300000D02*
X137800000Y-105300000D01*
X117100000Y-127700000D02*
X117200000Y-127600000D01*
X137800000Y-105300000D02*
X137800000Y-101400000D01*
X117200000Y-127600000D02*
X117200000Y-104550000D01*
X137800000Y-101400000D02*
X140800000Y-98400000D01*
X117200000Y-104550000D02*
X123350000Y-98400000D01*
X123350000Y-98400000D02*
X123400000Y-98400000D01*
D24*
G04 #@! TO.N,VBUS*
X130762989Y-92562989D02*
X127800000Y-89600000D01*
X130800000Y-159000000D02*
X130762989Y-158962989D01*
X130762989Y-158962989D02*
X130762989Y-92562989D01*
D23*
G04 #@! TO.N,Net-(R10-Pad2)*
X121000000Y-144200000D02*
X121000000Y-151400000D01*
X122600000Y-142600000D02*
X121000000Y-144200000D01*
G04 #@! TO.N,BOOT*
X127750000Y-131000000D02*
X127750000Y-102250000D01*
G04 #@! TO.N,ESD_DP*
X125000000Y-170000000D02*
X116500000Y-161500000D01*
X116500000Y-161500000D02*
X116500000Y-150500000D01*
X133800000Y-170000000D02*
X125000000Y-170000000D01*
G04 #@! TO.N,ESD_DN*
X133683500Y-168675000D02*
X124675000Y-168675000D01*
X133800000Y-168558500D02*
X133683500Y-168675000D01*
X117250000Y-161250000D02*
X117250000Y-151250000D01*
X124675000Y-168675000D02*
X117250000Y-161250000D01*
G04 #@! TO.N,ESD_S4_DP*
X123894239Y-159081353D02*
X123894239Y-158481147D01*
X123894239Y-158481147D02*
X124000000Y-158375386D01*
X124000000Y-159187114D02*
X123894239Y-159081353D01*
X123000000Y-164018036D02*
X124000000Y-163018036D01*
X123000000Y-164500000D02*
X123000000Y-164018036D01*
X124000000Y-158375386D02*
X124000000Y-122250000D01*
X124000000Y-163018036D02*
X124000000Y-159187114D01*
G04 #@! TO.N,ESD_S4_DN*
X123550480Y-158189189D02*
X123550480Y-123050480D01*
X123444719Y-159267550D02*
X123444719Y-158294950D01*
X123444719Y-158294950D02*
X123550480Y-158189189D01*
X123550480Y-123050480D02*
X122750000Y-122250000D01*
X123550480Y-159373312D02*
X123444719Y-159267550D01*
X122500000Y-162000000D02*
X123550480Y-160949520D01*
X123550480Y-160949520D02*
X123550480Y-159373312D01*
X122500000Y-162174992D02*
X122500000Y-162000000D01*
G04 #@! TO.N,U0_RXD*
X115724511Y-142275489D02*
X115000000Y-143000000D01*
X115724511Y-100474511D02*
X115724511Y-142275489D01*
X114000000Y-98750000D02*
X115724511Y-100474511D01*
X112700000Y-98750000D02*
X114000000Y-98750000D01*
G04 #@! TO.N,U0_TXD*
X115000000Y-141787033D02*
X114946095Y-141840938D01*
X115000000Y-100600000D02*
X115000000Y-141787033D01*
X114200000Y-99800000D02*
X115000000Y-100600000D01*
X111400000Y-99800000D02*
X114200000Y-99800000D01*
G04 #@! TO.N,ANT_RX*
X144250000Y-131500000D02*
X144250000Y-136500000D01*
G04 #@! TO.N,ANT_RTS*
X134500000Y-128743000D02*
X134371500Y-128871500D01*
X134500000Y-124250000D02*
X134500000Y-128743000D01*
G04 #@! TO.N,Net-(R3-Pad2)*
X121700000Y-140337114D02*
X121700000Y-122450000D01*
X105250000Y-149250000D02*
X105500000Y-149000000D01*
X105500000Y-149000000D02*
X113037114Y-149000000D01*
X113037114Y-149000000D02*
X121700000Y-140337114D01*
X121700000Y-122450000D02*
X121500000Y-122250000D01*
G04 #@! TO.N,Net-(R6-Pad2)*
X128750000Y-109150000D02*
X128800000Y-109100000D01*
X128750000Y-158750000D02*
X128750000Y-109150000D01*
X131750000Y-161750000D02*
X128750000Y-158750000D01*
G04 #@! TO.N,Net-(Q2-Pad2)*
X120800000Y-130300000D02*
X120800480Y-130300480D01*
X120800480Y-130300480D02*
X120800480Y-138299520D01*
X120800480Y-138299520D02*
X115000000Y-144100000D01*
G04 #@! TD*
G04 #@! TA.AperFunction,Conductor*
G04 #@! TO.N,Earth*
G36*
X150974310Y-85502571D02*
G01*
X150993823Y-85505609D01*
X151006116Y-85504001D01*
X151006335Y-85504004D01*
X151039074Y-85502863D01*
X151199702Y-85512579D01*
X151290779Y-85518089D01*
X151311636Y-85520622D01*
X151467166Y-85549124D01*
X151587825Y-85571235D01*
X151608217Y-85576262D01*
X151876281Y-85659794D01*
X151895927Y-85667244D01*
X152151980Y-85782484D01*
X152170585Y-85792249D01*
X152410872Y-85937508D01*
X152428164Y-85949444D01*
X152649186Y-86122603D01*
X152664914Y-86136536D01*
X152863464Y-86335086D01*
X152877397Y-86350814D01*
X153050556Y-86571836D01*
X153062492Y-86589128D01*
X153207751Y-86829415D01*
X153217516Y-86848020D01*
X153332756Y-87104073D01*
X153340206Y-87123719D01*
X153423737Y-87391778D01*
X153428766Y-87412180D01*
X153479378Y-87688363D01*
X153481911Y-87709221D01*
X153496668Y-87953190D01*
X153495916Y-87969174D01*
X153496449Y-87969180D01*
X153496298Y-87981576D01*
X153494391Y-87993823D01*
X153495998Y-88006112D01*
X153495998Y-88006114D01*
X153498031Y-88021659D01*
X153499500Y-88044220D01*
X153499500Y-132580590D01*
X153479569Y-132661452D01*
X153424343Y-132723789D01*
X153346473Y-132753321D01*
X153325351Y-132754590D01*
X149160106Y-132750823D01*
X148271126Y-132750019D01*
X148250000Y-132750000D01*
X148250000Y-163050000D01*
X149352310Y-163051011D01*
X153325660Y-163054654D01*
X153406503Y-163074659D01*
X153468790Y-163129942D01*
X153498251Y-163207839D01*
X153499500Y-163228654D01*
X153499500Y-176947542D01*
X153497429Y-176974310D01*
X153494391Y-176993823D01*
X153495999Y-177006116D01*
X153495996Y-177006335D01*
X153497137Y-177039074D01*
X153491084Y-177139140D01*
X153481911Y-177290779D01*
X153479378Y-177311636D01*
X153473881Y-177341633D01*
X153429872Y-177581786D01*
X153428766Y-177587820D01*
X153423738Y-177608217D01*
X153369112Y-177783519D01*
X153340206Y-177876281D01*
X153332756Y-177895927D01*
X153263787Y-178049171D01*
X153217516Y-178151980D01*
X153207751Y-178170585D01*
X153062492Y-178410872D01*
X153050556Y-178428164D01*
X152877397Y-178649186D01*
X152863464Y-178664914D01*
X152664914Y-178863464D01*
X152649186Y-178877397D01*
X152428164Y-179050556D01*
X152410872Y-179062492D01*
X152170585Y-179207751D01*
X152151980Y-179217516D01*
X151895927Y-179332756D01*
X151876282Y-179340206D01*
X151608217Y-179423738D01*
X151587825Y-179428765D01*
X151421072Y-179459323D01*
X151311637Y-179479378D01*
X151290779Y-179481911D01*
X151046810Y-179496668D01*
X151030826Y-179495916D01*
X151030820Y-179496449D01*
X151018424Y-179496298D01*
X151006177Y-179494391D01*
X150993888Y-179495998D01*
X150993886Y-179495998D01*
X150978341Y-179498031D01*
X150955780Y-179499500D01*
X134411328Y-179499500D01*
X134330466Y-179479569D01*
X134268129Y-179424343D01*
X134238597Y-179346473D01*
X134249941Y-179260459D01*
X134306887Y-179119159D01*
X134306888Y-179119156D01*
X134309981Y-179111481D01*
X134350230Y-178905378D01*
X134350500Y-178899857D01*
X134350500Y-178045031D01*
X134335561Y-177888454D01*
X134276447Y-177686951D01*
X134180295Y-177500261D01*
X134116694Y-177419293D01*
X134055692Y-177341633D01*
X134055688Y-177341628D01*
X134050576Y-177335121D01*
X133891971Y-177197490D01*
X133884811Y-177193348D01*
X133884807Y-177193345D01*
X133717370Y-177096481D01*
X133717367Y-177096480D01*
X133710201Y-177092334D01*
X133594696Y-177052224D01*
X133519651Y-177026164D01*
X133519648Y-177026163D01*
X133511826Y-177023447D01*
X133392739Y-177006180D01*
X133312201Y-176994502D01*
X133312196Y-176994502D01*
X133304004Y-176993314D01*
X133155796Y-177000174D01*
X133074101Y-176984003D01*
X133009277Y-176931719D01*
X132976176Y-176855298D01*
X132982381Y-176772247D01*
X133026471Y-176701593D01*
X133034968Y-176693918D01*
X133040745Y-176689873D01*
X133192373Y-176538245D01*
X133248585Y-176457965D01*
X133311007Y-176368819D01*
X133311010Y-176368814D01*
X133315368Y-176362590D01*
X133405992Y-176168247D01*
X133461492Y-175961119D01*
X133462153Y-175953564D01*
X133462154Y-175953558D01*
X133479519Y-175755067D01*
X133480181Y-175747500D01*
X133479519Y-175739933D01*
X133462154Y-175541442D01*
X133462153Y-175541436D01*
X133461492Y-175533881D01*
X133405992Y-175326753D01*
X133315368Y-175132410D01*
X133311010Y-175126186D01*
X133311007Y-175126181D01*
X133206721Y-174977246D01*
X133192373Y-174956755D01*
X133040745Y-174805127D01*
X132865091Y-174682132D01*
X132858212Y-174678924D01*
X132858208Y-174678922D01*
X132790006Y-174647119D01*
X132670747Y-174591508D01*
X132463619Y-174536008D01*
X132456064Y-174535347D01*
X132456058Y-174535346D01*
X132257567Y-174517981D01*
X132250000Y-174517319D01*
X132242433Y-174517981D01*
X132043942Y-174535346D01*
X132043936Y-174535347D01*
X132036381Y-174536008D01*
X131829253Y-174591508D01*
X131822361Y-174594722D01*
X131646407Y-174676771D01*
X131634910Y-174682132D01*
X131628686Y-174686490D01*
X131628681Y-174686493D01*
X131539535Y-174748915D01*
X131459255Y-174805127D01*
X131307627Y-174956755D01*
X131293279Y-174977246D01*
X131188993Y-175126181D01*
X131188990Y-175126186D01*
X131184632Y-175132410D01*
X131094008Y-175326753D01*
X131038508Y-175533881D01*
X131037847Y-175541436D01*
X131037846Y-175541442D01*
X131020481Y-175739933D01*
X131019819Y-175747500D01*
X131020481Y-175755067D01*
X131037846Y-175953558D01*
X131037847Y-175953564D01*
X131038508Y-175961119D01*
X131094008Y-176168247D01*
X131184632Y-176362590D01*
X131188990Y-176368814D01*
X131188993Y-176368819D01*
X131251415Y-176457965D01*
X131307627Y-176538245D01*
X131459255Y-176689873D01*
X131465479Y-176694231D01*
X131465480Y-176694232D01*
X131628685Y-176808510D01*
X131634909Y-176812868D01*
X131641788Y-176816076D01*
X131641792Y-176816078D01*
X131694003Y-176840424D01*
X131829253Y-176903492D01*
X132036381Y-176958992D01*
X132043936Y-176959653D01*
X132043942Y-176959654D01*
X132242433Y-176977019D01*
X132250000Y-176977681D01*
X132257567Y-176977019D01*
X132388410Y-176965572D01*
X132470701Y-176978380D01*
X132537615Y-177027963D01*
X132573821Y-177102962D01*
X132571026Y-177186197D01*
X132529870Y-177258599D01*
X132528010Y-177260375D01*
X132527640Y-177260637D01*
X132382425Y-177412331D01*
X132268515Y-177588746D01*
X132190019Y-177783519D01*
X132149770Y-177989622D01*
X132149500Y-177995143D01*
X132149500Y-178849969D01*
X132164439Y-179006546D01*
X132223553Y-179208049D01*
X132227344Y-179215409D01*
X132243011Y-179245828D01*
X132262318Y-179326841D01*
X132241764Y-179407547D01*
X132186059Y-179469457D01*
X132107964Y-179498388D01*
X132088323Y-179499500D01*
X127411328Y-179499500D01*
X127330466Y-179479569D01*
X127268129Y-179424343D01*
X127238597Y-179346473D01*
X127249941Y-179260459D01*
X127306887Y-179119159D01*
X127306888Y-179119156D01*
X127309981Y-179111481D01*
X127350230Y-178905378D01*
X127350500Y-178899857D01*
X127350500Y-178045031D01*
X127335561Y-177888454D01*
X127276447Y-177686951D01*
X127180295Y-177500261D01*
X127116694Y-177419293D01*
X127055692Y-177341633D01*
X127055688Y-177341628D01*
X127050576Y-177335121D01*
X126975184Y-177269699D01*
X126927173Y-177201649D01*
X126916286Y-177119082D01*
X126945017Y-177040912D01*
X127006784Y-176985049D01*
X127087437Y-176964289D01*
X127104389Y-176964942D01*
X127242433Y-176977019D01*
X127250000Y-176977681D01*
X127257567Y-176977019D01*
X127456058Y-176959654D01*
X127456064Y-176959653D01*
X127463619Y-176958992D01*
X127670747Y-176903492D01*
X127805997Y-176840424D01*
X127858208Y-176816078D01*
X127858212Y-176816076D01*
X127865091Y-176812868D01*
X127871315Y-176808510D01*
X128034520Y-176694232D01*
X128034521Y-176694231D01*
X128040745Y-176689873D01*
X128192373Y-176538245D01*
X128248585Y-176457965D01*
X128311007Y-176368819D01*
X128311010Y-176368814D01*
X128315368Y-176362590D01*
X128405992Y-176168247D01*
X128461492Y-175961119D01*
X128462153Y-175953564D01*
X128462154Y-175953558D01*
X128479519Y-175755067D01*
X128480181Y-175747500D01*
X128479519Y-175739933D01*
X128462154Y-175541442D01*
X128462153Y-175541436D01*
X128461492Y-175533881D01*
X128405992Y-175326753D01*
X128315368Y-175132410D01*
X128311010Y-175126186D01*
X128311007Y-175126181D01*
X128206721Y-174977246D01*
X128192373Y-174956755D01*
X128040745Y-174805127D01*
X127865091Y-174682132D01*
X127858212Y-174678924D01*
X127858208Y-174678922D01*
X127790006Y-174647119D01*
X127670747Y-174591508D01*
X127463619Y-174536008D01*
X127456064Y-174535347D01*
X127456058Y-174535346D01*
X127257567Y-174517981D01*
X127250000Y-174517319D01*
X127242433Y-174517981D01*
X127043942Y-174535346D01*
X127043936Y-174535347D01*
X127036381Y-174536008D01*
X126829253Y-174591508D01*
X126822361Y-174594722D01*
X126646407Y-174676771D01*
X126634910Y-174682132D01*
X126628686Y-174686490D01*
X126628681Y-174686493D01*
X126539535Y-174748915D01*
X126459255Y-174805127D01*
X126307627Y-174956755D01*
X126293279Y-174977246D01*
X126188993Y-175126181D01*
X126188990Y-175126186D01*
X126184632Y-175132410D01*
X126094008Y-175326753D01*
X126038508Y-175533881D01*
X126037847Y-175541436D01*
X126037846Y-175541442D01*
X126020481Y-175739933D01*
X126019819Y-175747500D01*
X126020481Y-175755067D01*
X126037846Y-175953558D01*
X126037847Y-175953564D01*
X126038508Y-175961119D01*
X126094008Y-176168247D01*
X126184632Y-176362590D01*
X126188990Y-176368814D01*
X126188993Y-176368819D01*
X126251415Y-176457965D01*
X126307627Y-176538245D01*
X126459255Y-176689873D01*
X126462245Y-176691966D01*
X126510529Y-176758049D01*
X126522785Y-176840424D01*
X126495356Y-176919059D01*
X126434525Y-176975940D01*
X126354228Y-176998036D01*
X126324586Y-176996298D01*
X126317325Y-176995245D01*
X126304004Y-176993314D01*
X126212792Y-176997536D01*
X126102504Y-177002640D01*
X126102502Y-177002640D01*
X126094233Y-177003023D01*
X126055516Y-177012354D01*
X125898138Y-177050282D01*
X125898133Y-177050284D01*
X125890082Y-177052224D01*
X125882535Y-177055655D01*
X125882536Y-177055655D01*
X125743035Y-177119082D01*
X125698919Y-177139140D01*
X125692161Y-177143934D01*
X125692159Y-177143935D01*
X125609013Y-177202915D01*
X125527640Y-177260637D01*
X125521913Y-177266620D01*
X125521909Y-177266623D01*
X125478819Y-177311636D01*
X125382425Y-177412331D01*
X125268515Y-177588746D01*
X125190019Y-177783519D01*
X125149770Y-177989622D01*
X125149500Y-177995143D01*
X125149500Y-178849969D01*
X125164439Y-179006546D01*
X125223553Y-179208049D01*
X125227344Y-179215409D01*
X125243011Y-179245828D01*
X125262318Y-179326841D01*
X125241764Y-179407547D01*
X125186059Y-179469457D01*
X125107964Y-179498388D01*
X125088323Y-179499500D01*
X102052458Y-179499500D01*
X102025689Y-179497429D01*
X102006177Y-179494391D01*
X101993884Y-179495999D01*
X101993665Y-179495996D01*
X101960926Y-179497137D01*
X101800298Y-179487421D01*
X101709221Y-179481911D01*
X101688364Y-179479378D01*
X101532834Y-179450876D01*
X101412175Y-179428765D01*
X101391783Y-179423738D01*
X101123718Y-179340206D01*
X101104073Y-179332756D01*
X100848020Y-179217516D01*
X100829415Y-179207751D01*
X100589128Y-179062492D01*
X100571836Y-179050556D01*
X100350814Y-178877397D01*
X100335086Y-178863464D01*
X100136536Y-178664914D01*
X100122603Y-178649186D01*
X99949444Y-178428164D01*
X99937508Y-178410872D01*
X99792249Y-178170585D01*
X99782484Y-178151980D01*
X99736214Y-178049171D01*
X99667244Y-177895927D01*
X99659794Y-177876281D01*
X99630888Y-177783519D01*
X99576262Y-177608217D01*
X99571234Y-177587820D01*
X99570129Y-177581786D01*
X99526119Y-177341633D01*
X99520622Y-177311637D01*
X99518089Y-177290779D01*
X99503538Y-177050216D01*
X99503916Y-177024172D01*
X99504382Y-177018977D01*
X99505496Y-177012354D01*
X99505647Y-177000000D01*
X99504690Y-176993314D01*
X99502257Y-176976329D01*
X99500500Y-176951662D01*
X99500500Y-173800000D01*
X138894341Y-173800000D01*
X138914937Y-174035408D01*
X138976097Y-174263663D01*
X138979308Y-174270548D01*
X139072753Y-174470940D01*
X139075965Y-174477829D01*
X139211505Y-174671401D01*
X139378599Y-174838495D01*
X139572171Y-174974035D01*
X139579052Y-174977244D01*
X139579056Y-174977246D01*
X139679254Y-175023969D01*
X139786337Y-175073903D01*
X140014592Y-175135063D01*
X140022154Y-175135725D01*
X140022156Y-175135725D01*
X140100061Y-175142541D01*
X140191034Y-175150500D01*
X140308966Y-175150500D01*
X140399939Y-175142541D01*
X140477844Y-175135725D01*
X140477846Y-175135725D01*
X140485408Y-175135063D01*
X140713663Y-175073903D01*
X140820746Y-175023969D01*
X140920944Y-174977246D01*
X140920948Y-174977244D01*
X140927829Y-174974035D01*
X141121401Y-174838495D01*
X141288495Y-174671401D01*
X141350426Y-174582954D01*
X141419674Y-174484059D01*
X141419680Y-174484049D01*
X141424035Y-174477830D01*
X141523903Y-174263663D01*
X141585063Y-174035408D01*
X141605659Y-173800000D01*
X141585063Y-173564592D01*
X141523903Y-173336337D01*
X141473969Y-173229254D01*
X141427246Y-173129056D01*
X141427244Y-173129052D01*
X141424035Y-173122171D01*
X141288495Y-172928599D01*
X141121401Y-172761505D01*
X140927829Y-172625965D01*
X140920948Y-172622756D01*
X140920944Y-172622754D01*
X140820746Y-172576031D01*
X140713663Y-172526097D01*
X140485408Y-172464937D01*
X140477846Y-172464275D01*
X140477844Y-172464275D01*
X140399939Y-172457459D01*
X140308966Y-172449500D01*
X140191034Y-172449500D01*
X140100061Y-172457459D01*
X140022156Y-172464275D01*
X140022154Y-172464275D01*
X140014592Y-172464937D01*
X139786337Y-172526097D01*
X139679254Y-172576031D01*
X139579056Y-172622754D01*
X139579052Y-172622756D01*
X139572171Y-172625965D01*
X139378599Y-172761505D01*
X139211505Y-172928599D01*
X139207146Y-172934825D01*
X139080326Y-173115941D01*
X139080323Y-173115946D01*
X139075965Y-173122170D01*
X138976097Y-173336337D01*
X138914937Y-173564592D01*
X138894341Y-173800000D01*
X99500500Y-173800000D01*
X99500500Y-169437002D01*
X106175380Y-169437002D01*
X106175621Y-169443140D01*
X106175621Y-169443145D01*
X106177076Y-169480164D01*
X106186502Y-169720084D01*
X106237400Y-169998775D01*
X106239345Y-170004604D01*
X106239346Y-170004609D01*
X106282177Y-170132990D01*
X106327058Y-170267514D01*
X106329807Y-170273015D01*
X106444508Y-170502568D01*
X106453687Y-170520939D01*
X106457184Y-170525999D01*
X106457186Y-170526002D01*
X106611263Y-170748932D01*
X106614761Y-170753993D01*
X106618936Y-170758510D01*
X106618938Y-170758512D01*
X106646067Y-170787860D01*
X106807065Y-170962027D01*
X106811830Y-170965906D01*
X106811835Y-170965911D01*
X107021994Y-171137006D01*
X107026764Y-171140889D01*
X107032032Y-171144061D01*
X107032034Y-171144062D01*
X107264201Y-171283839D01*
X107264206Y-171283841D01*
X107269472Y-171287012D01*
X107530348Y-171397478D01*
X107804186Y-171470085D01*
X107810293Y-171470808D01*
X107810294Y-171470808D01*
X108079412Y-171502661D01*
X108079416Y-171502661D01*
X108085523Y-171503384D01*
X108203682Y-171500599D01*
X108362596Y-171496854D01*
X108362597Y-171496854D01*
X108368745Y-171496709D01*
X108648200Y-171450195D01*
X108809903Y-171399055D01*
X108912456Y-171366622D01*
X108912460Y-171366620D01*
X108918314Y-171364769D01*
X108923851Y-171362110D01*
X108923854Y-171362109D01*
X109168150Y-171244800D01*
X109168154Y-171244798D01*
X109173697Y-171242136D01*
X109409253Y-171084743D01*
X109620281Y-170895730D01*
X109710956Y-170787860D01*
X109798607Y-170683586D01*
X109802573Y-170678868D01*
X109806303Y-170672888D01*
X109889807Y-170538992D01*
X109952489Y-170438485D01*
X110067040Y-170179376D01*
X110117975Y-169998775D01*
X110142269Y-169912634D01*
X110142269Y-169912632D01*
X110143939Y-169906712D01*
X110181652Y-169625933D01*
X110185610Y-169500000D01*
X110173369Y-169327112D01*
X110166036Y-169223547D01*
X110166035Y-169223543D01*
X110165601Y-169217407D01*
X110158135Y-169182725D01*
X110107270Y-168946470D01*
X110105975Y-168940453D01*
X110037716Y-168755429D01*
X110010050Y-168680436D01*
X110010049Y-168680433D01*
X110007920Y-168674663D01*
X110005004Y-168669258D01*
X110005000Y-168669250D01*
X109876317Y-168430759D01*
X109876317Y-168430758D01*
X109873393Y-168425340D01*
X109834498Y-168372680D01*
X109708734Y-168202409D01*
X109708730Y-168202404D01*
X109705078Y-168197460D01*
X109700770Y-168193083D01*
X109700765Y-168193078D01*
X109580285Y-168070692D01*
X109506334Y-167995570D01*
X109371138Y-167892391D01*
X109286018Y-167827429D01*
X109286014Y-167827426D01*
X109281126Y-167823696D01*
X109033947Y-167685270D01*
X109028216Y-167683053D01*
X109028210Y-167683050D01*
X108775474Y-167585274D01*
X108775472Y-167585273D01*
X108769730Y-167583052D01*
X108631738Y-167551067D01*
X108499745Y-167520472D01*
X108499741Y-167520471D01*
X108493747Y-167519082D01*
X108397325Y-167510731D01*
X108217640Y-167495168D01*
X108217633Y-167495168D01*
X108211503Y-167494637D01*
X108027305Y-167504774D01*
X107934767Y-167509867D01*
X107934764Y-167509867D01*
X107928630Y-167510205D01*
X107650774Y-167565474D01*
X107383476Y-167659342D01*
X107132072Y-167789936D01*
X107127066Y-167793514D01*
X107127065Y-167793514D01*
X107079606Y-167827429D01*
X106901576Y-167954651D01*
X106818553Y-168033851D01*
X106712455Y-168135063D01*
X106696588Y-168150199D01*
X106521199Y-168372680D01*
X106518108Y-168378002D01*
X106518105Y-168378006D01*
X106487464Y-168430759D01*
X106378907Y-168617654D01*
X106376595Y-168623361D01*
X106376594Y-168623364D01*
X106330289Y-168737686D01*
X106272552Y-168880232D01*
X106204255Y-169155177D01*
X106175380Y-169437002D01*
X99500500Y-169437002D01*
X99500500Y-165992623D01*
X109949500Y-165992623D01*
X109949501Y-167587376D01*
X109956149Y-167648580D01*
X110006474Y-167782824D01*
X110092454Y-167897546D01*
X110207176Y-167983526D01*
X110250988Y-167999950D01*
X110331205Y-168030022D01*
X110331208Y-168030023D01*
X110341420Y-168033851D01*
X110374113Y-168037403D01*
X110397944Y-168039992D01*
X110397950Y-168039992D01*
X110402623Y-168040500D01*
X111249369Y-168040500D01*
X112097376Y-168040499D01*
X112102050Y-168039991D01*
X112102056Y-168039991D01*
X112137724Y-168036116D01*
X112158580Y-168033851D01*
X112292824Y-167983526D01*
X112407546Y-167897546D01*
X112493526Y-167782824D01*
X112510482Y-167737593D01*
X112557528Y-167668873D01*
X112631121Y-167629887D01*
X112714402Y-167629568D01*
X112788293Y-167667987D01*
X112796447Y-167675633D01*
X112910861Y-167790047D01*
X113097266Y-167920568D01*
X113104147Y-167923777D01*
X113104151Y-167923779D01*
X113179475Y-167958903D01*
X113303504Y-168016739D01*
X113523308Y-168075635D01*
X113530869Y-168076297D01*
X113530872Y-168076297D01*
X113742433Y-168094806D01*
X113750000Y-168095468D01*
X113757567Y-168094806D01*
X113969128Y-168076297D01*
X113969131Y-168076297D01*
X113976692Y-168075635D01*
X114196496Y-168016739D01*
X114320525Y-167958903D01*
X114395849Y-167923779D01*
X114395853Y-167923777D01*
X114402734Y-167920568D01*
X114589139Y-167790047D01*
X114626963Y-167752223D01*
X114698234Y-167709139D01*
X114781364Y-167704110D01*
X114857309Y-167738290D01*
X114873037Y-167752223D01*
X114910861Y-167790047D01*
X115097266Y-167920568D01*
X115104147Y-167923777D01*
X115104151Y-167923779D01*
X115179475Y-167958903D01*
X115303504Y-168016739D01*
X115523308Y-168075635D01*
X115530869Y-168076297D01*
X115530872Y-168076297D01*
X115742433Y-168094806D01*
X115750000Y-168095468D01*
X115757567Y-168094806D01*
X115969128Y-168076297D01*
X115969131Y-168076297D01*
X115976692Y-168075635D01*
X116196496Y-168016739D01*
X116320525Y-167958903D01*
X116395849Y-167923779D01*
X116395853Y-167923777D01*
X116402734Y-167920568D01*
X116589139Y-167790047D01*
X116750047Y-167629139D01*
X116880568Y-167442734D01*
X116976739Y-167236496D01*
X117035635Y-167016692D01*
X117055468Y-166790000D01*
X117035635Y-166563308D01*
X116976739Y-166343504D01*
X116880568Y-166137266D01*
X116750047Y-165950861D01*
X116589139Y-165789953D01*
X116402734Y-165659432D01*
X116395853Y-165656223D01*
X116395849Y-165656221D01*
X116258392Y-165592124D01*
X116196496Y-165563261D01*
X115976692Y-165504365D01*
X115969131Y-165503703D01*
X115969128Y-165503703D01*
X115757567Y-165485194D01*
X115750000Y-165484532D01*
X115742433Y-165485194D01*
X115530872Y-165503703D01*
X115530869Y-165503703D01*
X115523308Y-165504365D01*
X115303504Y-165563261D01*
X115241608Y-165592124D01*
X115104151Y-165656221D01*
X115104147Y-165656223D01*
X115097266Y-165659432D01*
X114910861Y-165789953D01*
X114873037Y-165827777D01*
X114801766Y-165870861D01*
X114718636Y-165875890D01*
X114642691Y-165841710D01*
X114626963Y-165827777D01*
X114589139Y-165789953D01*
X114402734Y-165659432D01*
X114395853Y-165656223D01*
X114395849Y-165656221D01*
X114258392Y-165592124D01*
X114196496Y-165563261D01*
X113976692Y-165504365D01*
X113969131Y-165503703D01*
X113969128Y-165503703D01*
X113757567Y-165485194D01*
X113750000Y-165484532D01*
X113742433Y-165485194D01*
X113530872Y-165503703D01*
X113530869Y-165503703D01*
X113523308Y-165504365D01*
X113303504Y-165563261D01*
X113241608Y-165592124D01*
X113104151Y-165656221D01*
X113104147Y-165656223D01*
X113097266Y-165659432D01*
X112910861Y-165789953D01*
X112796447Y-165904367D01*
X112725176Y-165947451D01*
X112642046Y-165952480D01*
X112566101Y-165918300D01*
X112514739Y-165852742D01*
X112510482Y-165842407D01*
X112497877Y-165808782D01*
X112497876Y-165808781D01*
X112493526Y-165797176D01*
X112407546Y-165682454D01*
X112292824Y-165596474D01*
X112219568Y-165569012D01*
X112168795Y-165549978D01*
X112168792Y-165549977D01*
X112158580Y-165546149D01*
X112125887Y-165542597D01*
X112102056Y-165540008D01*
X112102050Y-165540008D01*
X112097377Y-165539500D01*
X111250631Y-165539500D01*
X110402624Y-165539501D01*
X110397950Y-165540009D01*
X110397944Y-165540009D01*
X110362276Y-165543884D01*
X110341420Y-165546149D01*
X110207176Y-165596474D01*
X110092454Y-165682454D01*
X110006474Y-165797176D01*
X109989779Y-165841710D01*
X109966291Y-165904367D01*
X109956149Y-165931420D01*
X109949500Y-165992623D01*
X99500500Y-165992623D01*
X99500500Y-149250000D01*
X104344540Y-149250000D01*
X104364326Y-149438256D01*
X104367144Y-149446929D01*
X104419036Y-149606634D01*
X104422821Y-149618284D01*
X104427382Y-149626184D01*
X104427383Y-149626186D01*
X104477009Y-149712140D01*
X104517467Y-149782216D01*
X104523567Y-149788991D01*
X104523568Y-149788992D01*
X104638026Y-149916110D01*
X104644129Y-149922888D01*
X104797270Y-150034151D01*
X104859625Y-150061913D01*
X104961870Y-150107437D01*
X104961874Y-150107438D01*
X104970197Y-150111144D01*
X105155354Y-150150500D01*
X105344646Y-150150500D01*
X105529803Y-150111144D01*
X105538126Y-150107438D01*
X105538130Y-150107437D01*
X105640375Y-150061913D01*
X105702730Y-150034151D01*
X105855871Y-149922888D01*
X105861974Y-149916110D01*
X105976432Y-149788992D01*
X105976433Y-149788991D01*
X105982533Y-149782216D01*
X106022784Y-149712499D01*
X106080476Y-149652436D01*
X106159472Y-149626064D01*
X106173472Y-149625500D01*
X112961169Y-149625500D01*
X112969902Y-149625912D01*
X112977781Y-149627673D01*
X112988727Y-149627329D01*
X113025099Y-149626186D01*
X113044192Y-149625586D01*
X113049656Y-149625500D01*
X113076464Y-149625500D01*
X113081887Y-149624815D01*
X113087348Y-149624471D01*
X113087354Y-149624565D01*
X113094447Y-149624006D01*
X113110397Y-149623505D01*
X113124797Y-149623053D01*
X113124798Y-149623053D01*
X113135741Y-149622709D01*
X113151196Y-149618219D01*
X113177932Y-149612682D01*
X113178853Y-149612566D01*
X113193906Y-149610664D01*
X113204083Y-149606634D01*
X113204085Y-149606634D01*
X113222102Y-149599500D01*
X113232322Y-149595454D01*
X113247834Y-149590143D01*
X113276992Y-149581672D01*
X113276993Y-149581672D01*
X113287504Y-149578618D01*
X113296922Y-149573048D01*
X113296929Y-149573045D01*
X113301355Y-149570427D01*
X113325876Y-149558414D01*
X113330662Y-149556519D01*
X113330668Y-149556516D01*
X113340846Y-149552486D01*
X113374268Y-149528204D01*
X113387966Y-149519205D01*
X113414118Y-149503739D01*
X113414120Y-149503738D01*
X113423534Y-149498170D01*
X113434920Y-149486784D01*
X113455675Y-149469058D01*
X113468701Y-149459594D01*
X113495033Y-149427764D01*
X113506065Y-149415639D01*
X122088603Y-140833102D01*
X122095062Y-140827225D01*
X122101877Y-140822900D01*
X122147346Y-140774481D01*
X122151149Y-140770556D01*
X122170120Y-140751585D01*
X122173471Y-140747265D01*
X122177086Y-140743164D01*
X122177157Y-140743226D01*
X122181783Y-140737809D01*
X122202568Y-140715676D01*
X122210062Y-140707696D01*
X122217818Y-140693587D01*
X122232807Y-140670769D01*
X122235961Y-140666703D01*
X122242673Y-140658050D01*
X122259090Y-140620113D01*
X122266287Y-140605421D01*
X122286197Y-140569206D01*
X122290201Y-140553611D01*
X122299042Y-140527790D01*
X122305438Y-140513010D01*
X122311902Y-140472197D01*
X122315224Y-140456155D01*
X122325500Y-140416133D01*
X122325500Y-140400036D01*
X122327642Y-140372818D01*
X122328448Y-140367730D01*
X122328448Y-140367727D01*
X122330160Y-140356918D01*
X122326272Y-140315788D01*
X122325500Y-140299413D01*
X122325500Y-123295260D01*
X122345431Y-123214398D01*
X122400657Y-123152061D01*
X122478527Y-123122529D01*
X122535676Y-123125062D01*
X122575825Y-123133596D01*
X122655354Y-123150500D01*
X122693836Y-123150500D01*
X122774698Y-123170431D01*
X122816873Y-123201463D01*
X122874017Y-123258607D01*
X122917101Y-123329878D01*
X122924980Y-123381644D01*
X122924980Y-141533587D01*
X122905049Y-141614449D01*
X122849823Y-141676786D01*
X122771953Y-141706318D01*
X122714801Y-141703784D01*
X122703567Y-141701396D01*
X122703565Y-141701396D01*
X122694646Y-141699500D01*
X122505354Y-141699500D01*
X122320197Y-141738856D01*
X122311874Y-141742562D01*
X122311870Y-141742563D01*
X122209625Y-141788087D01*
X122147270Y-141815849D01*
X121994129Y-141927112D01*
X121867467Y-142067784D01*
X121772821Y-142231716D01*
X121714326Y-142411744D01*
X121713373Y-142420814D01*
X121698530Y-142562040D01*
X121670256Y-142640376D01*
X121648520Y-142666890D01*
X120611387Y-143704022D01*
X120604940Y-143709888D01*
X120598123Y-143714214D01*
X120590629Y-143722194D01*
X120590628Y-143722195D01*
X120552654Y-143762633D01*
X120548851Y-143766558D01*
X120529880Y-143785529D01*
X120526529Y-143789849D01*
X120522914Y-143793950D01*
X120522843Y-143793888D01*
X120518221Y-143799300D01*
X120489938Y-143829418D01*
X120482185Y-143843522D01*
X120467193Y-143866345D01*
X120457327Y-143879064D01*
X120440910Y-143917001D01*
X120433713Y-143931693D01*
X120413803Y-143967908D01*
X120409799Y-143983503D01*
X120400958Y-144009324D01*
X120394562Y-144024104D01*
X120392850Y-144034912D01*
X120392850Y-144034913D01*
X120388098Y-144064917D01*
X120384776Y-144080959D01*
X120374500Y-144120981D01*
X120374500Y-144137078D01*
X120372358Y-144164296D01*
X120369840Y-144180196D01*
X120370870Y-144191091D01*
X120373728Y-144221326D01*
X120374500Y-144237701D01*
X120374500Y-150682120D01*
X120354569Y-150762982D01*
X120329808Y-150798547D01*
X120267467Y-150867784D01*
X120172821Y-151031716D01*
X120170003Y-151040388D01*
X120170002Y-151040391D01*
X120134034Y-151151088D01*
X120114326Y-151211744D01*
X120094540Y-151400000D01*
X120114326Y-151588256D01*
X120172821Y-151768284D01*
X120177382Y-151776184D01*
X120177383Y-151776186D01*
X120184777Y-151788992D01*
X120267467Y-151932216D01*
X120394129Y-152072888D01*
X120547270Y-152184151D01*
X120609625Y-152211913D01*
X120711870Y-152257437D01*
X120711874Y-152257438D01*
X120720197Y-152261144D01*
X120905354Y-152300500D01*
X121094646Y-152300500D01*
X121279803Y-152261144D01*
X121288126Y-152257438D01*
X121288130Y-152257437D01*
X121390375Y-152211913D01*
X121452730Y-152184151D01*
X121605871Y-152072888D01*
X121732533Y-151932216D01*
X121815223Y-151788992D01*
X121822617Y-151776186D01*
X121822618Y-151776184D01*
X121827179Y-151768284D01*
X121885674Y-151588256D01*
X121905460Y-151400000D01*
X121885674Y-151211744D01*
X121865966Y-151151088D01*
X121829998Y-151040391D01*
X121829997Y-151040388D01*
X121827179Y-151031716D01*
X121732533Y-150867784D01*
X121670192Y-150798548D01*
X121630897Y-150725121D01*
X121625500Y-150682120D01*
X121625500Y-144531164D01*
X121645431Y-144450302D01*
X121676463Y-144408127D01*
X122533127Y-143551463D01*
X122604398Y-143508379D01*
X122656164Y-143500500D01*
X122694646Y-143500500D01*
X122703565Y-143498604D01*
X122703567Y-143498604D01*
X122714801Y-143496216D01*
X122798040Y-143498898D01*
X122870498Y-143539955D01*
X122915575Y-143609983D01*
X122924980Y-143666413D01*
X122924980Y-157890329D01*
X122905428Y-157969654D01*
X122902046Y-157974014D01*
X122885629Y-158011951D01*
X122878432Y-158026643D01*
X122858522Y-158062858D01*
X122854518Y-158078453D01*
X122845677Y-158104274D01*
X122839281Y-158119054D01*
X122837569Y-158129862D01*
X122837569Y-158129863D01*
X122832817Y-158159867D01*
X122829495Y-158175909D01*
X122819219Y-158215931D01*
X122819219Y-158232028D01*
X122817077Y-158259246D01*
X122814559Y-158275146D01*
X122815589Y-158286041D01*
X122818447Y-158316276D01*
X122819219Y-158332651D01*
X122819219Y-159191607D01*
X122818807Y-159200339D01*
X122817047Y-159208214D01*
X122818553Y-159256168D01*
X122819133Y-159274619D01*
X122819219Y-159280082D01*
X122819219Y-159306900D01*
X122819903Y-159312317D01*
X122820247Y-159317785D01*
X122820153Y-159317791D01*
X122820712Y-159324885D01*
X122822009Y-159366174D01*
X122825061Y-159376679D01*
X122825062Y-159376686D01*
X122826500Y-159381634D01*
X122832038Y-159408377D01*
X122834055Y-159424342D01*
X122838084Y-159434517D01*
X122849263Y-159462752D01*
X122854573Y-159478260D01*
X122866100Y-159517937D01*
X122871673Y-159527360D01*
X122871674Y-159527363D01*
X122874294Y-159531793D01*
X122886306Y-159556313D01*
X122892233Y-159571282D01*
X122898666Y-159580136D01*
X122903458Y-159588853D01*
X122924980Y-159672677D01*
X122924980Y-160618357D01*
X122905049Y-160699219D01*
X122874016Y-160741394D01*
X122359969Y-161255440D01*
X122288698Y-161298524D01*
X122273112Y-161302601D01*
X122220197Y-161313848D01*
X122211871Y-161317555D01*
X122211868Y-161317556D01*
X122119480Y-161358691D01*
X122047270Y-161390841D01*
X121894129Y-161502104D01*
X121888026Y-161508882D01*
X121851786Y-161549131D01*
X121767467Y-161642776D01*
X121762907Y-161650673D01*
X121762907Y-161650674D01*
X121699895Y-161759815D01*
X121672821Y-161806708D01*
X121670003Y-161815380D01*
X121670002Y-161815383D01*
X121643221Y-161897806D01*
X121614326Y-161986736D01*
X121594540Y-162174992D01*
X121614326Y-162363248D01*
X121617144Y-162371921D01*
X121635447Y-162428250D01*
X121672821Y-162543276D01*
X121677382Y-162551176D01*
X121677383Y-162551178D01*
X121733632Y-162648604D01*
X121767467Y-162707208D01*
X121894129Y-162847880D01*
X122047270Y-162959143D01*
X122109625Y-162986905D01*
X122211870Y-163032429D01*
X122211874Y-163032430D01*
X122220197Y-163036136D01*
X122405354Y-163075492D01*
X122594646Y-163075492D01*
X122603561Y-163073597D01*
X122603571Y-163073596D01*
X122608444Y-163072560D01*
X122612255Y-163072683D01*
X122612635Y-163072643D01*
X122612641Y-163072695D01*
X122691683Y-163075246D01*
X122764138Y-163116308D01*
X122809212Y-163186338D01*
X122816579Y-163269293D01*
X122784550Y-163346170D01*
X122767655Y-163365790D01*
X122611402Y-163522043D01*
X122604936Y-163527926D01*
X122598123Y-163532250D01*
X122590633Y-163540226D01*
X122552653Y-163580670D01*
X122548850Y-163584595D01*
X122529880Y-163603565D01*
X122526529Y-163607885D01*
X122522914Y-163611986D01*
X122522843Y-163611924D01*
X122518221Y-163617336D01*
X122489938Y-163647454D01*
X122482185Y-163661558D01*
X122467193Y-163684381D01*
X122457327Y-163697100D01*
X122440910Y-163735037D01*
X122433713Y-163749729D01*
X122413803Y-163785944D01*
X122412372Y-163791516D01*
X122381837Y-163840763D01*
X122273569Y-163961007D01*
X122267467Y-163967784D01*
X122172821Y-164131716D01*
X122114326Y-164311744D01*
X122094540Y-164500000D01*
X122114326Y-164688256D01*
X122117144Y-164696929D01*
X122150979Y-164801062D01*
X122157011Y-164884125D01*
X122123752Y-164960477D01*
X122058819Y-165012627D01*
X121977089Y-165028628D01*
X121897284Y-165004814D01*
X121862458Y-164977868D01*
X121393658Y-164509067D01*
X117926463Y-161041872D01*
X117883379Y-160970601D01*
X117875500Y-160918835D01*
X117875500Y-151967880D01*
X117895431Y-151887018D01*
X117920193Y-151851451D01*
X117976432Y-151788992D01*
X117976433Y-151788991D01*
X117982533Y-151782216D01*
X118077179Y-151618284D01*
X118135674Y-151438256D01*
X118155460Y-151250000D01*
X118135674Y-151061744D01*
X118125917Y-151031716D01*
X118079998Y-150890391D01*
X118079997Y-150890388D01*
X118077179Y-150881716D01*
X118069136Y-150867784D01*
X117987093Y-150725682D01*
X117987093Y-150725681D01*
X117982533Y-150717784D01*
X117855871Y-150577112D01*
X117702730Y-150465849D01*
X117640375Y-150438087D01*
X117538130Y-150392563D01*
X117538126Y-150392562D01*
X117529803Y-150388856D01*
X117520886Y-150386961D01*
X117520881Y-150386959D01*
X117500158Y-150382554D01*
X117425208Y-150346247D01*
X117375715Y-150279267D01*
X117370852Y-150266127D01*
X117329997Y-150140389D01*
X117327179Y-150131716D01*
X117232533Y-149967784D01*
X117186006Y-149916110D01*
X117111974Y-149833890D01*
X117105871Y-149827112D01*
X116952730Y-149715849D01*
X116890375Y-149688087D01*
X116788130Y-149642563D01*
X116788126Y-149642562D01*
X116779803Y-149638856D01*
X116594646Y-149599500D01*
X116405354Y-149599500D01*
X116220197Y-149638856D01*
X116211874Y-149642562D01*
X116211870Y-149642563D01*
X116109625Y-149688087D01*
X116047270Y-149715849D01*
X115894129Y-149827112D01*
X115888026Y-149833890D01*
X115813995Y-149916110D01*
X115767467Y-149967784D01*
X115672821Y-150131716D01*
X115670003Y-150140388D01*
X115670002Y-150140391D01*
X115629148Y-150266127D01*
X115614326Y-150311744D01*
X115594540Y-150500000D01*
X115614326Y-150688256D01*
X115617144Y-150696929D01*
X115650163Y-150798549D01*
X115672821Y-150868284D01*
X115767467Y-151032216D01*
X115773567Y-151038991D01*
X115773568Y-151038992D01*
X115829807Y-151101451D01*
X115869103Y-151174879D01*
X115874500Y-151217880D01*
X115874500Y-161424055D01*
X115874088Y-161432788D01*
X115872327Y-161440667D01*
X115872671Y-161451613D01*
X115874414Y-161507077D01*
X115874500Y-161512542D01*
X115874500Y-161539350D01*
X115875185Y-161544773D01*
X115875529Y-161550234D01*
X115875435Y-161550240D01*
X115875994Y-161557333D01*
X115877291Y-161598627D01*
X115880346Y-161609142D01*
X115880346Y-161609143D01*
X115881781Y-161614082D01*
X115887318Y-161640818D01*
X115889336Y-161656792D01*
X115893366Y-161666969D01*
X115893366Y-161666971D01*
X115904545Y-161695204D01*
X115909857Y-161710720D01*
X115921382Y-161750390D01*
X115926952Y-161759808D01*
X115926955Y-161759815D01*
X115929573Y-161764241D01*
X115941586Y-161788762D01*
X115943481Y-161793548D01*
X115943484Y-161793554D01*
X115947514Y-161803732D01*
X115953950Y-161812590D01*
X115971795Y-161837152D01*
X115980794Y-161850851D01*
X116001830Y-161886420D01*
X116013216Y-161897806D01*
X116030942Y-161918561D01*
X116040406Y-161931587D01*
X116072235Y-161957918D01*
X116084361Y-161968951D01*
X121321186Y-167205777D01*
X121364270Y-167277048D01*
X121369299Y-167360178D01*
X121335119Y-167436123D01*
X121269561Y-167487485D01*
X121207712Y-167502551D01*
X121125902Y-167507053D01*
X121074768Y-167509867D01*
X121074765Y-167509867D01*
X121068630Y-167510205D01*
X120790774Y-167565474D01*
X120523476Y-167659342D01*
X120272072Y-167789936D01*
X120267066Y-167793514D01*
X120267065Y-167793514D01*
X120219606Y-167827429D01*
X120041576Y-167954651D01*
X119958553Y-168033851D01*
X119852455Y-168135063D01*
X119836588Y-168150199D01*
X119661199Y-168372680D01*
X119658108Y-168378002D01*
X119658105Y-168378006D01*
X119627464Y-168430759D01*
X119518907Y-168617654D01*
X119516595Y-168623361D01*
X119516594Y-168623364D01*
X119470289Y-168737686D01*
X119412552Y-168880232D01*
X119344255Y-169155177D01*
X119315380Y-169437002D01*
X119315621Y-169443140D01*
X119315621Y-169443145D01*
X119317076Y-169480164D01*
X119326502Y-169720084D01*
X119377400Y-169998775D01*
X119379345Y-170004604D01*
X119379346Y-170004609D01*
X119422177Y-170132990D01*
X119467058Y-170267514D01*
X119469807Y-170273015D01*
X119584508Y-170502568D01*
X119593687Y-170520939D01*
X119597184Y-170525999D01*
X119597186Y-170526002D01*
X119751263Y-170748932D01*
X119754761Y-170753993D01*
X119758936Y-170758510D01*
X119758938Y-170758512D01*
X119786067Y-170787860D01*
X119947065Y-170962027D01*
X119951830Y-170965906D01*
X119951835Y-170965911D01*
X120161994Y-171137006D01*
X120166764Y-171140889D01*
X120172032Y-171144061D01*
X120172034Y-171144062D01*
X120404201Y-171283839D01*
X120404206Y-171283841D01*
X120409472Y-171287012D01*
X120670348Y-171397478D01*
X120944186Y-171470085D01*
X120950293Y-171470808D01*
X120950294Y-171470808D01*
X121219412Y-171502661D01*
X121219416Y-171502661D01*
X121225523Y-171503384D01*
X121343682Y-171500599D01*
X121502596Y-171496854D01*
X121502597Y-171496854D01*
X121508745Y-171496709D01*
X121788200Y-171450195D01*
X121949903Y-171399055D01*
X122052456Y-171366622D01*
X122052460Y-171366620D01*
X122058314Y-171364769D01*
X122063851Y-171362110D01*
X122063854Y-171362109D01*
X122308150Y-171244800D01*
X122308154Y-171244798D01*
X122313697Y-171242136D01*
X122549253Y-171084743D01*
X122760281Y-170895730D01*
X122850956Y-170787860D01*
X122938607Y-170683586D01*
X122942573Y-170678868D01*
X122946303Y-170672888D01*
X123029807Y-170538992D01*
X123092489Y-170438485D01*
X123207040Y-170179376D01*
X123257975Y-169998775D01*
X123282269Y-169912634D01*
X123282269Y-169912632D01*
X123283939Y-169906712D01*
X123321652Y-169625933D01*
X123321809Y-169620935D01*
X123321850Y-169620789D01*
X123322158Y-169617063D01*
X123322877Y-169617122D01*
X123344261Y-169540741D01*
X123401413Y-169480164D01*
X123480169Y-169453085D01*
X123562489Y-169465707D01*
X123618760Y-169503351D01*
X124504012Y-170388603D01*
X124509889Y-170395062D01*
X124514214Y-170401877D01*
X124553197Y-170438485D01*
X124562633Y-170447346D01*
X124566558Y-170451149D01*
X124585529Y-170470120D01*
X124589849Y-170473471D01*
X124593950Y-170477086D01*
X124593888Y-170477157D01*
X124599300Y-170481779D01*
X124629418Y-170510062D01*
X124643527Y-170517818D01*
X124666345Y-170532807D01*
X124679064Y-170542673D01*
X124716972Y-170559077D01*
X124731692Y-170566288D01*
X124758310Y-170580921D01*
X124758313Y-170580922D01*
X124767908Y-170586197D01*
X124780326Y-170589385D01*
X124783505Y-170590202D01*
X124809325Y-170599042D01*
X124824104Y-170605437D01*
X124834913Y-170607149D01*
X124864910Y-170611900D01*
X124880963Y-170615225D01*
X124910375Y-170622777D01*
X124910377Y-170622777D01*
X124920981Y-170625500D01*
X124937078Y-170625500D01*
X124964298Y-170627642D01*
X124980196Y-170630160D01*
X125021326Y-170626272D01*
X125037701Y-170625500D01*
X133076132Y-170625500D01*
X133156994Y-170645431D01*
X133190262Y-170668593D01*
X133194129Y-170672888D01*
X133347270Y-170784151D01*
X133409625Y-170811913D01*
X133511870Y-170857437D01*
X133511874Y-170857438D01*
X133520197Y-170861144D01*
X133705354Y-170900500D01*
X133894646Y-170900500D01*
X134079803Y-170861144D01*
X134088126Y-170857438D01*
X134088130Y-170857437D01*
X134190375Y-170811913D01*
X134252730Y-170784151D01*
X134405871Y-170672888D01*
X134411974Y-170666110D01*
X134526432Y-170538992D01*
X134526433Y-170538991D01*
X134532533Y-170532216D01*
X134539044Y-170520939D01*
X134622617Y-170376186D01*
X134622618Y-170376184D01*
X134627179Y-170368284D01*
X134659922Y-170267514D01*
X134682856Y-170196929D01*
X134685674Y-170188256D01*
X134705460Y-170000000D01*
X134685674Y-169811744D01*
X134655892Y-169720084D01*
X134629998Y-169640391D01*
X134629997Y-169640388D01*
X134627179Y-169631716D01*
X134621290Y-169621515D01*
X134537093Y-169475682D01*
X134537093Y-169475681D01*
X134532533Y-169467784D01*
X134467609Y-169395679D01*
X134428313Y-169322251D01*
X134427642Y-169238972D01*
X134467609Y-169162821D01*
X134526432Y-169097492D01*
X134526433Y-169097491D01*
X134532533Y-169090716D01*
X134537093Y-169082818D01*
X134622617Y-168934686D01*
X134622618Y-168934684D01*
X134627179Y-168926784D01*
X134640364Y-168886207D01*
X134682856Y-168755429D01*
X134685674Y-168746756D01*
X134705460Y-168558500D01*
X134685674Y-168370244D01*
X134627179Y-168190216D01*
X134604059Y-168150170D01*
X134537093Y-168034182D01*
X134537093Y-168034181D01*
X134532533Y-168026284D01*
X134521048Y-168013528D01*
X134411974Y-167892390D01*
X134405871Y-167885612D01*
X134252730Y-167774349D01*
X134170176Y-167737593D01*
X134088130Y-167701063D01*
X134088126Y-167701062D01*
X134079803Y-167697356D01*
X133894646Y-167658000D01*
X133705354Y-167658000D01*
X133520197Y-167697356D01*
X133511874Y-167701062D01*
X133511870Y-167701063D01*
X133429824Y-167737593D01*
X133347270Y-167774349D01*
X133194129Y-167885612D01*
X133131966Y-167954651D01*
X133098400Y-167991929D01*
X133029481Y-168038685D01*
X132969093Y-168049500D01*
X125006164Y-168049500D01*
X124925302Y-168029569D01*
X124883127Y-167998537D01*
X123684590Y-166800000D01*
X138894341Y-166800000D01*
X138895003Y-166807567D01*
X138913300Y-167016692D01*
X138914937Y-167035408D01*
X138976097Y-167263663D01*
X139021103Y-167360178D01*
X139072753Y-167470940D01*
X139075965Y-167477829D01*
X139211505Y-167671401D01*
X139378599Y-167838495D01*
X139572171Y-167974035D01*
X139579052Y-167977244D01*
X139579056Y-167977246D01*
X139624715Y-167998537D01*
X139786337Y-168073903D01*
X140014592Y-168135063D01*
X140022154Y-168135725D01*
X140022156Y-168135725D01*
X140100061Y-168142541D01*
X140191034Y-168150500D01*
X140308966Y-168150500D01*
X140399939Y-168142541D01*
X140477844Y-168135725D01*
X140477846Y-168135725D01*
X140485408Y-168135063D01*
X140713663Y-168073903D01*
X140875285Y-167998537D01*
X140920944Y-167977246D01*
X140920948Y-167977244D01*
X140927829Y-167974035D01*
X141121401Y-167838495D01*
X141288495Y-167671401D01*
X141394177Y-167520472D01*
X141419674Y-167484059D01*
X141419680Y-167484049D01*
X141424035Y-167477830D01*
X141523903Y-167263663D01*
X141585063Y-167035408D01*
X141586701Y-167016692D01*
X141604997Y-166807567D01*
X141605659Y-166800000D01*
X141585063Y-166564592D01*
X141523903Y-166336337D01*
X141428173Y-166131045D01*
X141427246Y-166129056D01*
X141427244Y-166129052D01*
X141424035Y-166122171D01*
X141288495Y-165928599D01*
X141121401Y-165761505D01*
X140927829Y-165625965D01*
X140920948Y-165622756D01*
X140920944Y-165622754D01*
X140793361Y-165563261D01*
X140713663Y-165526097D01*
X140485408Y-165464937D01*
X140477846Y-165464275D01*
X140477844Y-165464275D01*
X140399939Y-165457459D01*
X140308966Y-165449500D01*
X140191034Y-165449500D01*
X140100061Y-165457459D01*
X140022156Y-165464275D01*
X140022154Y-165464275D01*
X140014592Y-165464937D01*
X139786337Y-165526097D01*
X139706639Y-165563261D01*
X139579056Y-165622754D01*
X139579052Y-165622756D01*
X139572171Y-165625965D01*
X139378599Y-165761505D01*
X139211505Y-165928599D01*
X139191564Y-165957078D01*
X139080326Y-166115941D01*
X139080323Y-166115946D01*
X139075965Y-166122170D01*
X139072754Y-166129056D01*
X139072752Y-166129060D01*
X139065715Y-166144151D01*
X138976097Y-166336337D01*
X138914937Y-166564592D01*
X138894341Y-166800000D01*
X123684590Y-166800000D01*
X122528374Y-165643784D01*
X122485290Y-165572513D01*
X122480261Y-165489383D01*
X122514441Y-165413438D01*
X122579999Y-165362076D01*
X122661917Y-165347064D01*
X122705177Y-165355262D01*
X122711871Y-165357437D01*
X122720197Y-165361144D01*
X122729114Y-165363039D01*
X122729116Y-165363040D01*
X122812776Y-165380822D01*
X122905354Y-165400500D01*
X123094646Y-165400500D01*
X123279803Y-165361144D01*
X123288126Y-165357438D01*
X123288130Y-165357437D01*
X123390375Y-165311913D01*
X123452730Y-165284151D01*
X123605871Y-165172888D01*
X123732533Y-165032216D01*
X123763911Y-164977868D01*
X123822617Y-164876186D01*
X123822618Y-164876184D01*
X123827179Y-164868284D01*
X123885674Y-164688256D01*
X123905460Y-164500000D01*
X123885674Y-164311744D01*
X123846330Y-164190655D01*
X123840298Y-164107592D01*
X123873558Y-164031240D01*
X123888777Y-164013849D01*
X124388598Y-163514028D01*
X124395061Y-163508147D01*
X124401877Y-163503822D01*
X124447362Y-163455386D01*
X124451165Y-163451461D01*
X124470120Y-163432506D01*
X124473474Y-163428182D01*
X124477081Y-163424091D01*
X124477152Y-163424153D01*
X124481772Y-163418744D01*
X124502569Y-163396597D01*
X124510062Y-163388618D01*
X124515335Y-163379026D01*
X124515338Y-163379022D01*
X124517818Y-163374511D01*
X124532807Y-163351693D01*
X124535961Y-163347627D01*
X124535963Y-163347623D01*
X124542674Y-163338972D01*
X124559086Y-163301046D01*
X124566294Y-163286332D01*
X124580925Y-163259718D01*
X124580925Y-163259717D01*
X124586197Y-163250128D01*
X124590199Y-163234542D01*
X124599045Y-163208705D01*
X124601090Y-163203980D01*
X124601091Y-163203975D01*
X124605438Y-163193931D01*
X124611901Y-163153126D01*
X124615225Y-163137074D01*
X124622779Y-163107654D01*
X124622779Y-163107651D01*
X124625500Y-163097055D01*
X124625500Y-163080958D01*
X124627642Y-163053740D01*
X124628448Y-163048652D01*
X124628448Y-163048649D01*
X124630160Y-163037840D01*
X124626272Y-162996710D01*
X124625500Y-162980335D01*
X124625500Y-159263059D01*
X124625912Y-159254326D01*
X124627673Y-159246447D01*
X124625586Y-159180023D01*
X124625500Y-159174559D01*
X124625500Y-159147764D01*
X124624815Y-159142342D01*
X124624471Y-159136879D01*
X124624565Y-159136873D01*
X124624007Y-159129782D01*
X124623054Y-159099434D01*
X124623054Y-159099433D01*
X124622710Y-159088487D01*
X124618217Y-159073024D01*
X124612681Y-159046290D01*
X124612036Y-159041181D01*
X124612035Y-159041178D01*
X124610664Y-159030322D01*
X124595450Y-158991897D01*
X124590150Y-158976419D01*
X124578618Y-158936724D01*
X124573045Y-158927301D01*
X124573043Y-158927296D01*
X124570427Y-158922873D01*
X124558414Y-158898352D01*
X124556518Y-158893562D01*
X124556513Y-158893552D01*
X124552486Y-158883382D01*
X124546054Y-158874528D01*
X124541263Y-158865815D01*
X124519739Y-158781988D01*
X124519739Y-158780007D01*
X124539291Y-158700683D01*
X124542674Y-158696322D01*
X124559086Y-158658396D01*
X124566294Y-158643682D01*
X124580925Y-158617068D01*
X124580925Y-158617067D01*
X124586197Y-158607478D01*
X124590199Y-158591892D01*
X124599045Y-158566055D01*
X124601090Y-158561330D01*
X124601091Y-158561325D01*
X124605438Y-158551281D01*
X124611901Y-158510476D01*
X124615225Y-158494424D01*
X124622779Y-158465004D01*
X124622779Y-158465001D01*
X124625500Y-158454405D01*
X124625500Y-158438308D01*
X124627642Y-158411090D01*
X124628448Y-158406002D01*
X124628448Y-158405999D01*
X124630160Y-158395190D01*
X124626272Y-158354060D01*
X124625500Y-158337685D01*
X124625500Y-131000000D01*
X126844540Y-131000000D01*
X126864326Y-131188256D01*
X126922821Y-131368284D01*
X126927382Y-131376184D01*
X126927383Y-131376186D01*
X127012907Y-131524318D01*
X127017467Y-131532216D01*
X127144129Y-131672888D01*
X127297270Y-131784151D01*
X127308143Y-131788992D01*
X127461870Y-131857437D01*
X127461874Y-131857438D01*
X127470197Y-131861144D01*
X127655354Y-131900500D01*
X127844646Y-131900500D01*
X127853565Y-131898604D01*
X127853567Y-131898604D01*
X127914325Y-131885690D01*
X127997563Y-131888374D01*
X128070020Y-131929433D01*
X128115097Y-131999461D01*
X128124500Y-132055888D01*
X128124500Y-158674055D01*
X128124088Y-158682788D01*
X128122327Y-158690667D01*
X128122671Y-158701613D01*
X128124414Y-158757077D01*
X128124500Y-158762542D01*
X128124500Y-158789350D01*
X128125185Y-158794773D01*
X128125529Y-158800234D01*
X128125435Y-158800240D01*
X128125994Y-158807333D01*
X128127291Y-158848627D01*
X128130346Y-158859142D01*
X128130346Y-158859143D01*
X128131781Y-158864082D01*
X128137318Y-158890818D01*
X128139336Y-158906792D01*
X128143366Y-158916969D01*
X128143366Y-158916971D01*
X128154545Y-158945204D01*
X128159857Y-158960720D01*
X128171382Y-159000390D01*
X128176952Y-159009808D01*
X128176955Y-159009815D01*
X128179573Y-159014241D01*
X128191586Y-159038762D01*
X128193481Y-159043548D01*
X128193484Y-159043554D01*
X128197514Y-159053732D01*
X128203950Y-159062590D01*
X128221795Y-159087152D01*
X128230794Y-159100851D01*
X128251830Y-159136420D01*
X128263216Y-159147806D01*
X128280942Y-159168561D01*
X128290406Y-159181587D01*
X128310847Y-159198497D01*
X128322235Y-159207918D01*
X128334361Y-159218951D01*
X130798520Y-161683110D01*
X130841604Y-161754381D01*
X130848529Y-161787957D01*
X130864326Y-161938256D01*
X130922821Y-162118284D01*
X131017467Y-162282216D01*
X131144129Y-162422888D01*
X131297270Y-162534151D01*
X131317765Y-162543276D01*
X131461870Y-162607437D01*
X131461874Y-162607438D01*
X131470197Y-162611144D01*
X131655354Y-162650500D01*
X131844646Y-162650500D01*
X132029803Y-162611144D01*
X132038126Y-162607438D01*
X132038130Y-162607437D01*
X132182235Y-162543276D01*
X132202730Y-162534151D01*
X132355871Y-162422888D01*
X132482533Y-162282216D01*
X132577179Y-162118284D01*
X132635674Y-161938256D01*
X132655460Y-161750000D01*
X132635674Y-161561744D01*
X132616296Y-161502104D01*
X132579998Y-161390391D01*
X132579997Y-161390388D01*
X132577179Y-161381716D01*
X132537996Y-161313848D01*
X132487093Y-161225682D01*
X132487093Y-161225681D01*
X132482533Y-161217784D01*
X132355871Y-161077112D01*
X132202730Y-160965849D01*
X132140375Y-160938087D01*
X132038130Y-160892563D01*
X132038126Y-160892562D01*
X132029803Y-160888856D01*
X131844646Y-160849500D01*
X131806164Y-160849500D01*
X131725302Y-160829569D01*
X131683127Y-160798537D01*
X131027670Y-160143080D01*
X130984586Y-160071809D01*
X130979557Y-159988679D01*
X131013737Y-159912734D01*
X131079934Y-159861087D01*
X131244392Y-159787865D01*
X131244404Y-159787858D01*
X131252730Y-159784151D01*
X131405871Y-159672888D01*
X131532533Y-159532216D01*
X131563684Y-159478261D01*
X131622617Y-159376186D01*
X131622618Y-159376184D01*
X131627179Y-159368284D01*
X131643586Y-159317791D01*
X131682856Y-159196929D01*
X131685674Y-159188256D01*
X131705460Y-159000000D01*
X131685674Y-158811744D01*
X131675362Y-158780007D01*
X131629998Y-158640391D01*
X131629997Y-158640388D01*
X131627179Y-158631716D01*
X131532533Y-158467784D01*
X131526431Y-158461007D01*
X131483182Y-158412974D01*
X131443886Y-158339545D01*
X131438489Y-158296545D01*
X131438489Y-136500000D01*
X143344540Y-136500000D01*
X143364326Y-136688256D01*
X143422821Y-136868284D01*
X143517467Y-137032216D01*
X143644129Y-137172888D01*
X143797270Y-137284151D01*
X143859625Y-137311913D01*
X143961870Y-137357437D01*
X143961874Y-137357438D01*
X143970197Y-137361144D01*
X144155354Y-137400500D01*
X144344646Y-137400500D01*
X144529803Y-137361144D01*
X144538126Y-137357438D01*
X144538130Y-137357437D01*
X144640375Y-137311913D01*
X144702730Y-137284151D01*
X144855871Y-137172888D01*
X144982533Y-137032216D01*
X145077179Y-136868284D01*
X145135674Y-136688256D01*
X145155460Y-136500000D01*
X145135674Y-136311744D01*
X145077179Y-136131716D01*
X144982533Y-135967784D01*
X144920192Y-135898548D01*
X144880897Y-135825121D01*
X144875500Y-135782120D01*
X144875500Y-131967880D01*
X144895431Y-131887018D01*
X144920193Y-131851451D01*
X144976432Y-131788992D01*
X144976433Y-131788991D01*
X144982533Y-131782216D01*
X145042558Y-131678250D01*
X145072617Y-131626186D01*
X145072618Y-131626184D01*
X145077179Y-131618284D01*
X145105145Y-131532216D01*
X145132856Y-131446929D01*
X145135674Y-131438256D01*
X145155460Y-131250000D01*
X145135674Y-131061744D01*
X145077179Y-130881716D01*
X145031774Y-130803071D01*
X144987093Y-130725682D01*
X144987093Y-130725681D01*
X144982533Y-130717784D01*
X144855871Y-130577112D01*
X144702730Y-130465849D01*
X144551574Y-130398549D01*
X144538130Y-130392563D01*
X144538126Y-130392562D01*
X144529803Y-130388856D01*
X144344646Y-130349500D01*
X144155354Y-130349500D01*
X143970197Y-130388856D01*
X143961874Y-130392562D01*
X143961870Y-130392563D01*
X143948426Y-130398549D01*
X143797270Y-130465849D01*
X143644129Y-130577112D01*
X143517467Y-130717784D01*
X143512907Y-130725681D01*
X143512907Y-130725682D01*
X143468227Y-130803071D01*
X143422821Y-130881716D01*
X143364326Y-131061744D01*
X143344540Y-131250000D01*
X143364326Y-131438256D01*
X143367144Y-131446929D01*
X143394856Y-131532216D01*
X143422821Y-131618284D01*
X143427382Y-131626184D01*
X143427383Y-131626186D01*
X143457442Y-131678250D01*
X143517467Y-131782216D01*
X143523567Y-131788991D01*
X143523568Y-131788992D01*
X143579807Y-131851451D01*
X143619103Y-131924879D01*
X143624500Y-131967880D01*
X143624500Y-135782120D01*
X143604569Y-135862982D01*
X143579808Y-135898547D01*
X143517467Y-135967784D01*
X143422821Y-136131716D01*
X143364326Y-136311744D01*
X143344540Y-136500000D01*
X131438489Y-136500000D01*
X131438489Y-128871500D01*
X133466040Y-128871500D01*
X133485826Y-129059756D01*
X133488644Y-129068429D01*
X133539880Y-129226115D01*
X133544321Y-129239784D01*
X133638967Y-129403716D01*
X133645067Y-129410491D01*
X133645068Y-129410492D01*
X133706450Y-129478663D01*
X133765629Y-129544388D01*
X133918770Y-129655651D01*
X133981125Y-129683413D01*
X134083370Y-129728937D01*
X134083374Y-129728938D01*
X134091697Y-129732644D01*
X134276854Y-129772000D01*
X134466146Y-129772000D01*
X134651303Y-129732644D01*
X134659626Y-129728938D01*
X134659630Y-129728937D01*
X134761875Y-129683413D01*
X134824230Y-129655651D01*
X134977371Y-129544388D01*
X135036550Y-129478663D01*
X135097932Y-129410492D01*
X135097933Y-129410491D01*
X135104033Y-129403716D01*
X135198679Y-129239784D01*
X135203121Y-129226115D01*
X135254356Y-129068429D01*
X135257174Y-129059756D01*
X135261878Y-129015000D01*
X149394341Y-129015000D01*
X149395003Y-129022567D01*
X149413249Y-129231109D01*
X149414937Y-129250408D01*
X149476097Y-129478663D01*
X149575965Y-129692829D01*
X149711505Y-129886401D01*
X149878599Y-130053495D01*
X149949401Y-130103071D01*
X150065941Y-130184674D01*
X150065946Y-130184677D01*
X150072170Y-130189035D01*
X150286337Y-130288903D01*
X150514592Y-130350063D01*
X150522154Y-130350725D01*
X150522156Y-130350725D01*
X150742433Y-130369997D01*
X150750000Y-130370659D01*
X150757567Y-130369997D01*
X150977844Y-130350725D01*
X150977846Y-130350725D01*
X150985408Y-130350063D01*
X151213663Y-130288903D01*
X151427830Y-130189035D01*
X151434054Y-130184677D01*
X151434059Y-130184674D01*
X151550599Y-130103071D01*
X151621401Y-130053495D01*
X151788495Y-129886401D01*
X151924035Y-129692829D01*
X152023903Y-129478663D01*
X152085063Y-129250408D01*
X152086752Y-129231109D01*
X152104997Y-129022567D01*
X152105659Y-129015000D01*
X152104997Y-129007433D01*
X152085725Y-128787156D01*
X152085725Y-128787154D01*
X152085063Y-128779592D01*
X152023903Y-128551337D01*
X151970560Y-128436943D01*
X151927246Y-128344056D01*
X151927244Y-128344052D01*
X151924035Y-128337171D01*
X151788495Y-128143599D01*
X151621401Y-127976505D01*
X151507755Y-127896929D01*
X151434059Y-127845326D01*
X151434054Y-127845323D01*
X151427830Y-127840965D01*
X151213663Y-127741097D01*
X150985408Y-127679937D01*
X150977846Y-127679275D01*
X150977844Y-127679275D01*
X150757567Y-127660003D01*
X150750000Y-127659341D01*
X150742433Y-127660003D01*
X150522156Y-127679275D01*
X150522154Y-127679275D01*
X150514592Y-127679937D01*
X150286337Y-127741097D01*
X150179254Y-127791031D01*
X150079056Y-127837754D01*
X150079052Y-127837756D01*
X150072171Y-127840965D01*
X149878599Y-127976505D01*
X149711505Y-128143599D01*
X149575965Y-128337171D01*
X149572756Y-128344052D01*
X149572754Y-128344056D01*
X149529440Y-128436943D01*
X149476097Y-128551337D01*
X149414937Y-128779592D01*
X149414275Y-128787154D01*
X149414275Y-128787156D01*
X149395003Y-129007433D01*
X149394341Y-129015000D01*
X135261878Y-129015000D01*
X135276960Y-128871500D01*
X135257174Y-128683244D01*
X135214315Y-128551337D01*
X135201498Y-128511891D01*
X135201497Y-128511888D01*
X135198679Y-128503216D01*
X135148812Y-128416843D01*
X135125500Y-128329844D01*
X135125500Y-124967880D01*
X135145431Y-124887018D01*
X135170193Y-124851451D01*
X135226432Y-124788992D01*
X135226433Y-124788991D01*
X135232533Y-124782216D01*
X135327179Y-124618284D01*
X135385674Y-124438256D01*
X135405460Y-124250000D01*
X135385674Y-124061744D01*
X135327179Y-123881716D01*
X135232533Y-123717784D01*
X135105871Y-123577112D01*
X134952730Y-123465849D01*
X134890375Y-123438087D01*
X134788130Y-123392563D01*
X134788126Y-123392562D01*
X134779803Y-123388856D01*
X134594646Y-123349500D01*
X134405354Y-123349500D01*
X134220197Y-123388856D01*
X134211874Y-123392562D01*
X134211870Y-123392563D01*
X134109625Y-123438087D01*
X134047270Y-123465849D01*
X133894129Y-123577112D01*
X133767467Y-123717784D01*
X133672821Y-123881716D01*
X133614326Y-124061744D01*
X133594540Y-124250000D01*
X133614326Y-124438256D01*
X133672821Y-124618284D01*
X133767467Y-124782216D01*
X133773567Y-124788991D01*
X133773568Y-124788992D01*
X133829807Y-124851451D01*
X133869103Y-124924879D01*
X133874500Y-124967880D01*
X133874500Y-128030856D01*
X133854569Y-128111718D01*
X133802777Y-128171623D01*
X133765629Y-128198612D01*
X133638967Y-128339284D01*
X133634407Y-128347181D01*
X133634407Y-128347182D01*
X133564132Y-128468903D01*
X133544321Y-128503216D01*
X133541503Y-128511888D01*
X133541502Y-128511891D01*
X133528685Y-128551337D01*
X133485826Y-128683244D01*
X133466040Y-128871500D01*
X131438489Y-128871500D01*
X131438489Y-121765000D01*
X149394341Y-121765000D01*
X149395003Y-121772567D01*
X149405312Y-121890391D01*
X149414937Y-122000408D01*
X149476097Y-122228663D01*
X149575965Y-122442829D01*
X149711505Y-122636401D01*
X149878599Y-122803495D01*
X149947087Y-122851451D01*
X150065941Y-122934674D01*
X150065946Y-122934677D01*
X150072170Y-122939035D01*
X150286337Y-123038903D01*
X150514592Y-123100063D01*
X150522154Y-123100725D01*
X150522156Y-123100725D01*
X150742433Y-123119997D01*
X150750000Y-123120659D01*
X150757567Y-123119997D01*
X150977844Y-123100725D01*
X150977846Y-123100725D01*
X150985408Y-123100063D01*
X151213663Y-123038903D01*
X151427830Y-122939035D01*
X151434054Y-122934677D01*
X151434059Y-122934674D01*
X151552913Y-122851451D01*
X151621401Y-122803495D01*
X151788495Y-122636401D01*
X151924035Y-122442829D01*
X152023903Y-122228663D01*
X152085063Y-122000408D01*
X152094689Y-121890391D01*
X152104997Y-121772567D01*
X152105659Y-121765000D01*
X152089221Y-121577112D01*
X152085725Y-121537156D01*
X152085725Y-121537154D01*
X152085063Y-121529592D01*
X152023903Y-121301337D01*
X151924035Y-121087171D01*
X151788495Y-120893599D01*
X151621401Y-120726505D01*
X151532954Y-120664574D01*
X151434059Y-120595326D01*
X151434054Y-120595323D01*
X151427830Y-120590965D01*
X151213663Y-120491097D01*
X150985408Y-120429937D01*
X150977846Y-120429275D01*
X150977844Y-120429275D01*
X150757567Y-120410003D01*
X150750000Y-120409341D01*
X150742433Y-120410003D01*
X150522156Y-120429275D01*
X150522154Y-120429275D01*
X150514592Y-120429937D01*
X150286337Y-120491097D01*
X150179254Y-120541031D01*
X150079056Y-120587754D01*
X150079052Y-120587756D01*
X150072171Y-120590965D01*
X149878599Y-120726505D01*
X149711505Y-120893599D01*
X149575965Y-121087171D01*
X149476097Y-121301337D01*
X149414937Y-121529592D01*
X149414275Y-121537154D01*
X149414275Y-121537156D01*
X149410779Y-121577112D01*
X149394341Y-121765000D01*
X131438489Y-121765000D01*
X131438489Y-105200000D01*
X133894540Y-105200000D01*
X133914326Y-105388256D01*
X133917144Y-105396929D01*
X133955994Y-105516495D01*
X133972821Y-105568284D01*
X133977382Y-105576184D01*
X133977383Y-105576186D01*
X134008215Y-105629589D01*
X134067467Y-105732216D01*
X134194129Y-105872888D01*
X134347270Y-105984151D01*
X134409625Y-106011913D01*
X134511870Y-106057437D01*
X134511874Y-106057438D01*
X134520197Y-106061144D01*
X134705354Y-106100500D01*
X134894646Y-106100500D01*
X135079803Y-106061144D01*
X135088126Y-106057438D01*
X135088130Y-106057437D01*
X135190375Y-106011913D01*
X135252730Y-105984151D01*
X135405871Y-105872888D01*
X135532533Y-105732216D01*
X135591785Y-105629589D01*
X135622617Y-105576186D01*
X135622618Y-105576184D01*
X135627179Y-105568284D01*
X135644007Y-105516495D01*
X135682856Y-105396929D01*
X135685674Y-105388256D01*
X135701470Y-105237959D01*
X135729744Y-105159624D01*
X135751480Y-105133110D01*
X136877463Y-104007128D01*
X136948735Y-103964044D01*
X137031864Y-103959015D01*
X137107809Y-103993195D01*
X137159171Y-104058753D01*
X137174500Y-104130165D01*
X137174500Y-104968835D01*
X137154569Y-105049697D01*
X137123537Y-105091872D01*
X135866872Y-106348537D01*
X135795601Y-106391621D01*
X135743835Y-106399500D01*
X135705354Y-106399500D01*
X135520197Y-106438856D01*
X135511874Y-106442562D01*
X135511870Y-106442563D01*
X135409625Y-106488087D01*
X135347270Y-106515849D01*
X135194129Y-106627112D01*
X135067467Y-106767784D01*
X134972821Y-106931716D01*
X134914326Y-107111744D01*
X134894540Y-107300000D01*
X134914326Y-107488256D01*
X134972821Y-107668284D01*
X135067467Y-107832216D01*
X135194129Y-107972888D01*
X135347270Y-108084151D01*
X135407948Y-108111167D01*
X135511870Y-108157437D01*
X135511874Y-108157438D01*
X135520197Y-108161144D01*
X135705354Y-108200500D01*
X135894646Y-108200500D01*
X136079803Y-108161144D01*
X136088126Y-108157438D01*
X136088130Y-108157437D01*
X136192052Y-108111167D01*
X136252730Y-108084151D01*
X136405871Y-107972888D01*
X136532533Y-107832216D01*
X136627179Y-107668284D01*
X136685674Y-107488256D01*
X136701470Y-107337959D01*
X136729744Y-107259624D01*
X136751480Y-107233110D01*
X137463380Y-106521211D01*
X138188603Y-105795988D01*
X138195062Y-105790111D01*
X138201877Y-105785786D01*
X138247346Y-105737367D01*
X138251149Y-105733442D01*
X138270120Y-105714471D01*
X138273471Y-105710151D01*
X138277086Y-105706050D01*
X138277157Y-105706112D01*
X138281783Y-105700695D01*
X138302568Y-105678562D01*
X138310062Y-105670582D01*
X138317818Y-105656473D01*
X138332807Y-105633655D01*
X138335961Y-105629589D01*
X138342673Y-105620936D01*
X138359078Y-105583025D01*
X138366288Y-105568308D01*
X138380921Y-105541690D01*
X138380922Y-105541687D01*
X138386197Y-105532092D01*
X138390202Y-105516495D01*
X138399043Y-105490671D01*
X138405437Y-105475896D01*
X138411900Y-105435090D01*
X138415225Y-105419037D01*
X138422777Y-105389625D01*
X138422777Y-105389623D01*
X138425500Y-105379019D01*
X138425500Y-105362922D01*
X138427642Y-105335702D01*
X138428448Y-105330613D01*
X138430160Y-105319804D01*
X138426272Y-105278674D01*
X138425500Y-105262299D01*
X138425500Y-101731164D01*
X138445431Y-101650302D01*
X138476463Y-101608127D01*
X140733127Y-99351463D01*
X140804398Y-99308379D01*
X140856164Y-99300500D01*
X140894646Y-99300500D01*
X141079803Y-99261144D01*
X141088126Y-99257438D01*
X141088130Y-99257437D01*
X141190375Y-99211913D01*
X141252730Y-99184151D01*
X141405871Y-99072888D01*
X141463412Y-99008982D01*
X141526432Y-98938992D01*
X141526433Y-98938991D01*
X141532533Y-98932216D01*
X141555882Y-98891774D01*
X141622617Y-98776186D01*
X141622618Y-98776184D01*
X141627179Y-98768284D01*
X141685674Y-98588256D01*
X141705460Y-98400000D01*
X141685674Y-98211744D01*
X141656147Y-98120870D01*
X141629998Y-98040391D01*
X141629997Y-98040388D01*
X141627179Y-98031716D01*
X141592247Y-97971211D01*
X141537093Y-97875682D01*
X141537093Y-97875681D01*
X141532533Y-97867784D01*
X141405871Y-97727112D01*
X141252730Y-97615849D01*
X141190375Y-97588087D01*
X141088130Y-97542563D01*
X141088126Y-97542562D01*
X141079803Y-97538856D01*
X140894646Y-97499500D01*
X140705354Y-97499500D01*
X140520197Y-97538856D01*
X140511874Y-97542562D01*
X140511870Y-97542563D01*
X140409625Y-97588087D01*
X140347270Y-97615849D01*
X140194129Y-97727112D01*
X140067467Y-97867784D01*
X140062907Y-97875681D01*
X140062907Y-97875682D01*
X140007754Y-97971211D01*
X139972821Y-98031716D01*
X139970003Y-98040388D01*
X139970002Y-98040391D01*
X139943853Y-98120870D01*
X139914326Y-98211744D01*
X139898598Y-98361397D01*
X139898530Y-98362040D01*
X139870256Y-98440376D01*
X139848520Y-98466890D01*
X137522537Y-100792872D01*
X137451265Y-100835956D01*
X137368136Y-100840985D01*
X137292191Y-100806805D01*
X137240829Y-100741247D01*
X137225500Y-100669835D01*
X137225500Y-90717880D01*
X137245431Y-90637018D01*
X137270193Y-90601451D01*
X137326432Y-90538992D01*
X137326433Y-90538991D01*
X137332533Y-90532216D01*
X137372472Y-90463039D01*
X137422617Y-90376186D01*
X137422618Y-90376184D01*
X137427179Y-90368284D01*
X137485674Y-90188256D01*
X137505460Y-90000000D01*
X137485674Y-89811744D01*
X137427179Y-89631716D01*
X137332533Y-89467784D01*
X137205871Y-89327112D01*
X137052730Y-89215849D01*
X136990375Y-89188087D01*
X136888130Y-89142563D01*
X136888126Y-89142562D01*
X136879803Y-89138856D01*
X136694646Y-89099500D01*
X136505354Y-89099500D01*
X136320197Y-89138856D01*
X136311874Y-89142562D01*
X136311870Y-89142563D01*
X136209625Y-89188087D01*
X136147270Y-89215849D01*
X135994129Y-89327112D01*
X135867467Y-89467784D01*
X135772821Y-89631716D01*
X135714326Y-89811744D01*
X135694540Y-90000000D01*
X135714326Y-90188256D01*
X135772821Y-90368284D01*
X135777382Y-90376184D01*
X135777383Y-90376186D01*
X135827528Y-90463039D01*
X135867467Y-90532216D01*
X135873567Y-90538991D01*
X135873568Y-90538992D01*
X135929807Y-90601451D01*
X135969103Y-90674879D01*
X135974500Y-90717880D01*
X135974500Y-103068835D01*
X135954569Y-103149697D01*
X135923537Y-103191872D01*
X134866872Y-104248537D01*
X134795601Y-104291621D01*
X134743835Y-104299500D01*
X134705354Y-104299500D01*
X134520197Y-104338856D01*
X134511874Y-104342562D01*
X134511870Y-104342563D01*
X134409625Y-104388087D01*
X134347270Y-104415849D01*
X134194129Y-104527112D01*
X134067467Y-104667784D01*
X134062907Y-104675681D01*
X134062907Y-104675682D01*
X134015308Y-104758127D01*
X133972821Y-104831716D01*
X133914326Y-105011744D01*
X133894540Y-105200000D01*
X131438489Y-105200000D01*
X131438489Y-92592384D01*
X131438892Y-92580549D01*
X131441803Y-92537845D01*
X131442517Y-92527376D01*
X131432284Y-92468745D01*
X131430958Y-92459762D01*
X131425068Y-92411086D01*
X131425068Y-92411084D01*
X131423808Y-92400676D01*
X131420102Y-92390868D01*
X131418346Y-92383719D01*
X131416210Y-92376646D01*
X131414407Y-92366313D01*
X131390484Y-92311814D01*
X131387051Y-92303401D01*
X131369725Y-92257550D01*
X131366016Y-92247734D01*
X131360073Y-92239087D01*
X131356657Y-92232553D01*
X131352906Y-92226210D01*
X131348690Y-92216606D01*
X131312447Y-92169373D01*
X131307129Y-92162054D01*
X131273410Y-92112992D01*
X131230230Y-92074520D01*
X131222943Y-92067642D01*
X128743175Y-89587874D01*
X128700091Y-89516603D01*
X128693165Y-89483023D01*
X128692394Y-89475682D01*
X128685674Y-89411744D01*
X128627179Y-89231716D01*
X128573567Y-89138856D01*
X128537093Y-89075682D01*
X128537093Y-89075681D01*
X128532533Y-89067784D01*
X128405871Y-88927112D01*
X128252730Y-88815849D01*
X128190375Y-88788087D01*
X128088130Y-88742563D01*
X128088126Y-88742562D01*
X128079803Y-88738856D01*
X127894646Y-88699500D01*
X127705354Y-88699500D01*
X127520197Y-88738856D01*
X127511874Y-88742562D01*
X127511870Y-88742563D01*
X127409625Y-88788087D01*
X127347270Y-88815849D01*
X127194129Y-88927112D01*
X127067467Y-89067784D01*
X127062907Y-89075681D01*
X127062907Y-89075682D01*
X127026434Y-89138856D01*
X126972821Y-89231716D01*
X126914326Y-89411744D01*
X126894540Y-89600000D01*
X126914326Y-89788256D01*
X126972821Y-89968284D01*
X127067467Y-90132216D01*
X127194129Y-90272888D01*
X127347270Y-90384151D01*
X127409625Y-90411913D01*
X127511870Y-90457437D01*
X127511874Y-90457438D01*
X127520197Y-90461144D01*
X127705354Y-90500500D01*
X127704642Y-90503849D01*
X127765840Y-90525926D01*
X127792377Y-90547678D01*
X130036526Y-92791827D01*
X130079610Y-92863098D01*
X130087489Y-92914864D01*
X130087489Y-158386482D01*
X130064179Y-158473480D01*
X129972821Y-158631716D01*
X129970004Y-158640386D01*
X129969999Y-158640397D01*
X129948608Y-158706232D01*
X129904665Y-158776977D01*
X129832878Y-158819197D01*
X129749694Y-158823220D01*
X129674168Y-158788125D01*
X129660088Y-158775498D01*
X129612956Y-158728365D01*
X129426463Y-158541872D01*
X129383378Y-158470601D01*
X129375500Y-158418836D01*
X129375500Y-109873411D01*
X129395431Y-109792549D01*
X129420193Y-109756982D01*
X129434579Y-109741004D01*
X129532533Y-109632216D01*
X129627179Y-109468284D01*
X129685674Y-109288256D01*
X129705460Y-109100000D01*
X129685674Y-108911744D01*
X129627179Y-108731716D01*
X129532533Y-108567784D01*
X129405871Y-108427112D01*
X129252730Y-108315849D01*
X129190375Y-108288087D01*
X129088130Y-108242563D01*
X129088126Y-108242562D01*
X129079803Y-108238856D01*
X128894646Y-108199500D01*
X128705354Y-108199500D01*
X128625826Y-108216404D01*
X128585676Y-108224938D01*
X128502438Y-108222255D01*
X128429980Y-108181196D01*
X128384904Y-108111167D01*
X128375500Y-108054740D01*
X128375500Y-102967880D01*
X128395431Y-102887018D01*
X128420193Y-102851451D01*
X128476432Y-102788992D01*
X128476433Y-102788991D01*
X128482533Y-102782216D01*
X128577179Y-102618284D01*
X128635674Y-102438256D01*
X128655460Y-102250000D01*
X128635674Y-102061744D01*
X128577179Y-101881716D01*
X128482533Y-101717784D01*
X128355871Y-101577112D01*
X128202730Y-101465849D01*
X128140375Y-101438087D01*
X128038130Y-101392563D01*
X128038126Y-101392562D01*
X128029803Y-101388856D01*
X127844646Y-101349500D01*
X127655354Y-101349500D01*
X127470197Y-101388856D01*
X127461874Y-101392562D01*
X127461870Y-101392563D01*
X127359625Y-101438087D01*
X127297270Y-101465849D01*
X127144129Y-101577112D01*
X127017467Y-101717784D01*
X126922821Y-101881716D01*
X126864326Y-102061744D01*
X126844540Y-102250000D01*
X126864326Y-102438256D01*
X126922821Y-102618284D01*
X127017467Y-102782216D01*
X127023567Y-102788991D01*
X127023568Y-102788992D01*
X127079807Y-102851451D01*
X127119103Y-102924879D01*
X127124500Y-102967880D01*
X127124500Y-130282120D01*
X127104569Y-130362982D01*
X127079808Y-130398547D01*
X127017467Y-130467784D01*
X127012907Y-130475681D01*
X127012907Y-130475682D01*
X126954347Y-130577112D01*
X126922821Y-130631716D01*
X126920003Y-130640388D01*
X126920002Y-130640391D01*
X126892289Y-130725682D01*
X126864326Y-130811744D01*
X126844540Y-131000000D01*
X124625500Y-131000000D01*
X124625500Y-122967880D01*
X124645431Y-122887018D01*
X124670193Y-122851451D01*
X124726432Y-122788992D01*
X124726433Y-122788991D01*
X124732533Y-122782216D01*
X124827179Y-122618284D01*
X124885674Y-122438256D01*
X124905460Y-122250000D01*
X124885674Y-122061744D01*
X124827179Y-121881716D01*
X124732533Y-121717784D01*
X124605871Y-121577112D01*
X124452730Y-121465849D01*
X124390375Y-121438087D01*
X124288130Y-121392563D01*
X124288126Y-121392562D01*
X124279803Y-121388856D01*
X124094646Y-121349500D01*
X123905354Y-121349500D01*
X123720197Y-121388856D01*
X123711874Y-121392562D01*
X123711870Y-121392563D01*
X123609625Y-121438087D01*
X123547270Y-121465849D01*
X123477272Y-121516705D01*
X123400141Y-121548109D01*
X123317248Y-121540071D01*
X123272729Y-121516706D01*
X123202730Y-121465849D01*
X123140375Y-121438087D01*
X123038130Y-121392563D01*
X123038126Y-121392562D01*
X123029803Y-121388856D01*
X122844646Y-121349500D01*
X122655354Y-121349500D01*
X122470197Y-121388856D01*
X122461874Y-121392562D01*
X122461870Y-121392563D01*
X122359625Y-121438087D01*
X122297270Y-121465849D01*
X122227272Y-121516705D01*
X122150141Y-121548109D01*
X122067248Y-121540071D01*
X122022729Y-121516706D01*
X121952730Y-121465849D01*
X121890375Y-121438087D01*
X121788130Y-121392563D01*
X121788126Y-121392562D01*
X121779803Y-121388856D01*
X121594646Y-121349500D01*
X121405354Y-121349500D01*
X121220197Y-121388856D01*
X121211874Y-121392562D01*
X121211870Y-121392563D01*
X121109625Y-121438087D01*
X121047270Y-121465849D01*
X120894129Y-121577112D01*
X120767467Y-121717784D01*
X120672821Y-121881716D01*
X120614326Y-122061744D01*
X120594540Y-122250000D01*
X120614326Y-122438256D01*
X120672821Y-122618284D01*
X120767467Y-122782216D01*
X120773567Y-122788991D01*
X120773568Y-122788992D01*
X120829807Y-122851451D01*
X120894129Y-122922888D01*
X120987350Y-122990617D01*
X121002774Y-123001823D01*
X121056478Y-123065476D01*
X121074500Y-123142592D01*
X121074500Y-129226115D01*
X121054569Y-129306977D01*
X120999343Y-129369314D01*
X120921473Y-129398846D01*
X120894646Y-129399063D01*
X120894646Y-129399500D01*
X120705354Y-129399500D01*
X120520197Y-129438856D01*
X120511874Y-129442562D01*
X120511870Y-129442563D01*
X120447271Y-129471325D01*
X120347270Y-129515849D01*
X120194129Y-129627112D01*
X120067467Y-129767784D01*
X120062907Y-129775681D01*
X120062907Y-129775682D01*
X119998984Y-129886401D01*
X119972821Y-129931716D01*
X119914326Y-130111744D01*
X119894540Y-130300000D01*
X119914326Y-130488256D01*
X119917144Y-130496929D01*
X119958372Y-130623814D01*
X119972821Y-130668284D01*
X119977382Y-130676184D01*
X119977383Y-130676186D01*
X120060884Y-130820814D01*
X120067467Y-130832216D01*
X120073566Y-130838989D01*
X120073572Y-130838998D01*
X120130287Y-130901986D01*
X120169583Y-130975414D01*
X120174980Y-131018414D01*
X120174980Y-137968355D01*
X120155049Y-138049217D01*
X120124017Y-138091392D01*
X116647048Y-141568361D01*
X116575777Y-141611445D01*
X116492647Y-141616474D01*
X116416702Y-141582294D01*
X116365340Y-141516736D01*
X116350011Y-141445324D01*
X116350011Y-128609674D01*
X116369942Y-128528812D01*
X116425168Y-128466475D01*
X116503038Y-128436943D01*
X116585712Y-128446981D01*
X116626282Y-128468903D01*
X116647270Y-128484151D01*
X116690090Y-128503216D01*
X116811870Y-128557437D01*
X116811874Y-128557438D01*
X116820197Y-128561144D01*
X117005354Y-128600500D01*
X117194646Y-128600500D01*
X117379803Y-128561144D01*
X117388126Y-128557438D01*
X117388130Y-128557437D01*
X117509910Y-128503216D01*
X117552730Y-128484151D01*
X117705871Y-128372888D01*
X117832533Y-128232216D01*
X117883696Y-128143599D01*
X117922617Y-128076186D01*
X117922618Y-128076184D01*
X117927179Y-128068284D01*
X117958415Y-127972152D01*
X117982856Y-127896929D01*
X117985674Y-127888256D01*
X118005460Y-127700000D01*
X117985674Y-127511744D01*
X117927179Y-127331716D01*
X117848810Y-127195977D01*
X117825500Y-127108980D01*
X117825500Y-104881164D01*
X117845431Y-104800302D01*
X117876463Y-104758127D01*
X123283128Y-99351463D01*
X123354399Y-99308379D01*
X123406165Y-99300500D01*
X123494646Y-99300500D01*
X123679803Y-99261144D01*
X123688126Y-99257438D01*
X123688130Y-99257437D01*
X123790375Y-99211913D01*
X123852730Y-99184151D01*
X124005871Y-99072888D01*
X124063412Y-99008982D01*
X124126432Y-98938992D01*
X124126433Y-98938991D01*
X124132533Y-98932216D01*
X124155882Y-98891774D01*
X124222617Y-98776186D01*
X124222618Y-98776184D01*
X124227179Y-98768284D01*
X124285674Y-98588256D01*
X124305460Y-98400000D01*
X124285674Y-98211744D01*
X124256147Y-98120870D01*
X124229998Y-98040391D01*
X124229997Y-98040388D01*
X124227179Y-98031716D01*
X124192247Y-97971211D01*
X124137093Y-97875682D01*
X124137093Y-97875681D01*
X124132533Y-97867784D01*
X124005871Y-97727112D01*
X123852730Y-97615849D01*
X123790375Y-97588087D01*
X123688130Y-97542563D01*
X123688126Y-97542562D01*
X123679803Y-97538856D01*
X123494646Y-97499500D01*
X123305354Y-97499500D01*
X123120197Y-97538856D01*
X123111874Y-97542562D01*
X123111870Y-97542563D01*
X123009625Y-97588087D01*
X122947270Y-97615849D01*
X122794129Y-97727112D01*
X122667467Y-97867784D01*
X122662907Y-97875681D01*
X122662907Y-97875682D01*
X122607754Y-97971211D01*
X122572821Y-98031716D01*
X122570003Y-98040388D01*
X122570002Y-98040391D01*
X122517174Y-98202980D01*
X122514326Y-98211744D01*
X122513373Y-98220811D01*
X122513372Y-98220816D01*
X122504402Y-98306167D01*
X122476128Y-98384503D01*
X122454392Y-98411017D01*
X116811397Y-104054012D01*
X116804938Y-104059889D01*
X116798123Y-104064214D01*
X116753852Y-104111357D01*
X116752654Y-104112633D01*
X116748851Y-104116558D01*
X116729880Y-104135529D01*
X116726529Y-104139849D01*
X116722914Y-104143950D01*
X116722843Y-104143888D01*
X116718221Y-104149300D01*
X116689938Y-104179418D01*
X116682185Y-104193522D01*
X116667192Y-104216346D01*
X116661496Y-104223689D01*
X116596186Y-104275366D01*
X116514342Y-104290772D01*
X116434713Y-104266379D01*
X116375540Y-104207774D01*
X116350381Y-104128383D01*
X116350011Y-104117041D01*
X116350011Y-100550456D01*
X116350423Y-100541723D01*
X116352184Y-100533844D01*
X116350097Y-100467433D01*
X116350011Y-100461969D01*
X116350011Y-100435161D01*
X116349326Y-100429738D01*
X116348982Y-100424277D01*
X116349076Y-100424271D01*
X116348517Y-100417174D01*
X116347564Y-100386828D01*
X116347564Y-100386827D01*
X116347220Y-100375884D01*
X116342730Y-100360429D01*
X116337193Y-100333693D01*
X116336547Y-100328581D01*
X116335175Y-100317719D01*
X116319965Y-100279303D01*
X116314654Y-100263791D01*
X116306183Y-100234633D01*
X116306183Y-100234632D01*
X116303129Y-100224121D01*
X116297559Y-100214703D01*
X116297556Y-100214696D01*
X116294938Y-100210270D01*
X116282925Y-100185749D01*
X116281030Y-100180963D01*
X116281027Y-100180957D01*
X116276997Y-100170779D01*
X116252715Y-100137357D01*
X116243716Y-100123659D01*
X116228250Y-100097507D01*
X116228249Y-100097505D01*
X116222681Y-100088091D01*
X116211295Y-100076705D01*
X116193569Y-100055950D01*
X116184105Y-100042924D01*
X116152275Y-100016592D01*
X116140150Y-100005560D01*
X114495988Y-98361397D01*
X114490111Y-98354938D01*
X114485786Y-98348123D01*
X114437367Y-98302654D01*
X114433442Y-98298851D01*
X114414471Y-98279880D01*
X114410151Y-98276529D01*
X114406050Y-98272914D01*
X114406112Y-98272843D01*
X114400695Y-98268217D01*
X114378562Y-98247432D01*
X114378563Y-98247432D01*
X114370582Y-98239938D01*
X114356473Y-98232182D01*
X114333655Y-98217193D01*
X114329589Y-98214039D01*
X114320936Y-98207327D01*
X114282999Y-98190910D01*
X114268307Y-98183713D01*
X114232092Y-98163803D01*
X114216497Y-98159799D01*
X114190676Y-98150958D01*
X114175896Y-98144562D01*
X114135084Y-98138098D01*
X114119041Y-98134776D01*
X114079019Y-98124500D01*
X114062922Y-98124500D01*
X114035704Y-98122358D01*
X114030616Y-98121552D01*
X114030613Y-98121552D01*
X114019804Y-98119840D01*
X113993167Y-98122358D01*
X113978674Y-98123728D01*
X113962299Y-98124500D01*
X113423868Y-98124500D01*
X113343006Y-98104569D01*
X113309738Y-98081407D01*
X113305871Y-98077112D01*
X113152730Y-97965849D01*
X113090375Y-97938087D01*
X112988130Y-97892563D01*
X112988126Y-97892562D01*
X112979803Y-97888856D01*
X112794646Y-97849500D01*
X112605354Y-97849500D01*
X112420197Y-97888856D01*
X112411874Y-97892562D01*
X112411870Y-97892563D01*
X112309625Y-97938087D01*
X112247270Y-97965849D01*
X112094129Y-98077112D01*
X112088026Y-98083890D01*
X111976883Y-98207327D01*
X111967467Y-98217784D01*
X111962907Y-98225681D01*
X111962907Y-98225682D01*
X111881059Y-98367448D01*
X111872821Y-98381716D01*
X111814326Y-98561744D01*
X111794540Y-98750000D01*
X111794720Y-98751712D01*
X111775562Y-98829437D01*
X111720336Y-98891774D01*
X111642466Y-98921306D01*
X111585320Y-98918773D01*
X111494646Y-98899500D01*
X111305354Y-98899500D01*
X111120197Y-98938856D01*
X111111874Y-98942562D01*
X111111870Y-98942563D01*
X111009625Y-98988087D01*
X110947270Y-99015849D01*
X110794129Y-99127112D01*
X110788026Y-99133890D01*
X110676784Y-99257437D01*
X110667467Y-99267784D01*
X110662907Y-99275681D01*
X110662907Y-99275682D01*
X110644030Y-99308379D01*
X110572821Y-99431716D01*
X110514326Y-99611744D01*
X110494540Y-99800000D01*
X110514326Y-99988256D01*
X110517144Y-99996929D01*
X110546765Y-100088091D01*
X110572821Y-100168284D01*
X110577382Y-100176184D01*
X110577383Y-100176186D01*
X110627962Y-100263791D01*
X110667467Y-100332216D01*
X110673567Y-100338991D01*
X110673568Y-100338992D01*
X110784297Y-100461969D01*
X110794129Y-100472888D01*
X110947270Y-100584151D01*
X111009625Y-100611913D01*
X111111870Y-100657437D01*
X111111874Y-100657438D01*
X111120197Y-100661144D01*
X111305354Y-100700500D01*
X111494646Y-100700500D01*
X111679803Y-100661144D01*
X111688126Y-100657438D01*
X111688130Y-100657437D01*
X111790375Y-100611913D01*
X111852730Y-100584151D01*
X112005871Y-100472888D01*
X112009095Y-100469307D01*
X112080868Y-100430897D01*
X112123868Y-100425500D01*
X113868837Y-100425500D01*
X113949699Y-100445431D01*
X113991874Y-100476464D01*
X114323537Y-100808128D01*
X114366622Y-100879399D01*
X114374500Y-100931164D01*
X114374500Y-141123058D01*
X114354569Y-141203920D01*
X114329808Y-141239485D01*
X114267467Y-141308722D01*
X114172821Y-141472654D01*
X114170003Y-141481326D01*
X114170002Y-141481329D01*
X114127725Y-141611445D01*
X114114326Y-141652682D01*
X114094540Y-141840938D01*
X114114326Y-142029194D01*
X114172821Y-142209222D01*
X114236032Y-142318706D01*
X114259201Y-142398698D01*
X114242542Y-142480297D01*
X114236032Y-142492699D01*
X114172821Y-142602185D01*
X114114326Y-142782213D01*
X114094540Y-142970469D01*
X114114326Y-143158725D01*
X114172821Y-143338753D01*
X114236032Y-143448237D01*
X114259201Y-143528229D01*
X114242542Y-143609828D01*
X114236032Y-143622230D01*
X114172821Y-143731716D01*
X114170003Y-143740388D01*
X114170002Y-143740391D01*
X114136493Y-143843522D01*
X114114326Y-143911744D01*
X114094540Y-144100000D01*
X114114326Y-144288256D01*
X114117144Y-144296929D01*
X114169834Y-144459090D01*
X114172821Y-144468284D01*
X114267467Y-144632216D01*
X114394129Y-144772888D01*
X114547270Y-144884151D01*
X114609625Y-144911913D01*
X114711870Y-144957437D01*
X114711874Y-144957438D01*
X114720197Y-144961144D01*
X114905354Y-145000500D01*
X115094646Y-145000500D01*
X115279803Y-144961144D01*
X115288126Y-144957438D01*
X115288130Y-144957437D01*
X115390375Y-144911913D01*
X115452730Y-144884151D01*
X115605871Y-144772888D01*
X115732533Y-144632216D01*
X115827179Y-144468284D01*
X115830167Y-144459090D01*
X115882856Y-144296929D01*
X115885674Y-144288256D01*
X115901470Y-144137959D01*
X115929744Y-144059624D01*
X115951480Y-144033110D01*
X120777463Y-139207128D01*
X120848734Y-139164044D01*
X120931864Y-139159015D01*
X121007809Y-139193195D01*
X121059171Y-139258753D01*
X121074500Y-139330165D01*
X121074500Y-140005950D01*
X121054569Y-140086812D01*
X121023537Y-140128987D01*
X112828986Y-148323537D01*
X112757715Y-148366621D01*
X112705949Y-148374500D01*
X105575938Y-148374500D01*
X105567207Y-148374088D01*
X105559332Y-148372328D01*
X105494186Y-148374375D01*
X105492940Y-148374414D01*
X105487476Y-148374500D01*
X105480552Y-148374500D01*
X105444376Y-148370698D01*
X105425195Y-148366621D01*
X105344646Y-148349500D01*
X105155354Y-148349500D01*
X104970197Y-148388856D01*
X104961874Y-148392562D01*
X104961870Y-148392563D01*
X104859625Y-148438087D01*
X104797270Y-148465849D01*
X104644129Y-148577112D01*
X104517467Y-148717784D01*
X104422821Y-148881716D01*
X104364326Y-149061744D01*
X104344540Y-149250000D01*
X99500500Y-149250000D01*
X99500500Y-125174000D01*
X99520431Y-125093138D01*
X99575657Y-125030801D01*
X99653527Y-125001269D01*
X99674500Y-125000000D01*
X105900000Y-125000000D01*
X105900000Y-97000000D01*
X99674500Y-97000000D01*
X99593638Y-96980069D01*
X99531301Y-96924843D01*
X99501769Y-96846973D01*
X99500500Y-96826000D01*
X99500500Y-88056582D01*
X99502910Y-88027723D01*
X99505496Y-88012354D01*
X99505647Y-88000000D01*
X99504537Y-87992250D01*
X99504392Y-87988710D01*
X99504257Y-87986638D01*
X99504307Y-87986635D01*
X99503096Y-87957075D01*
X99518089Y-87709222D01*
X99520622Y-87688364D01*
X99571234Y-87412180D01*
X99576263Y-87391778D01*
X99659794Y-87123719D01*
X99667244Y-87104073D01*
X99782484Y-86848020D01*
X99792249Y-86829415D01*
X99937508Y-86589128D01*
X99949444Y-86571836D01*
X100122603Y-86350814D01*
X100136536Y-86335086D01*
X100335086Y-86136536D01*
X100350814Y-86122603D01*
X100571836Y-85949444D01*
X100589128Y-85937508D01*
X100829415Y-85792249D01*
X100848020Y-85782484D01*
X101104073Y-85667244D01*
X101123719Y-85659794D01*
X101391783Y-85576262D01*
X101412175Y-85571235D01*
X101578928Y-85540677D01*
X101688363Y-85520622D01*
X101709221Y-85518089D01*
X101953190Y-85503332D01*
X101969174Y-85504084D01*
X101969180Y-85503551D01*
X101981576Y-85503702D01*
X101993823Y-85505609D01*
X102006112Y-85504002D01*
X102006114Y-85504002D01*
X102021659Y-85501969D01*
X102044220Y-85500500D01*
X150947542Y-85500500D01*
X150974310Y-85502571D01*
G37*
G04 #@! TD.AperFunction*
G04 #@! TD*
M02*
