G04 #@! TF.GenerationSoftware,KiCad,Pcbnew,(6.0.1)*
G04 #@! TF.CreationDate,2022-04-24T13:57:47-07:00*
G04 #@! TF.ProjectId,PCB,5043422e-6b69-4636-9164-5f7063625858,rev?*
G04 #@! TF.SameCoordinates,Original*
G04 #@! TF.FileFunction,Legend,Top*
G04 #@! TF.FilePolarity,Positive*
%FSLAX46Y46*%
G04 Gerber Fmt 4.6, Leading zero omitted, Abs format (unit mm)*
G04 Created by KiCad (PCBNEW (6.0.1)) date 2022-04-24 13:57:47*
%MOMM*%
%LPD*%
G01*
G04 APERTURE LIST*
%ADD10C,0.100000*%
%ADD11C,0.150000*%
%ADD12C,0.300000*%
%ADD13C,0.400000*%
%ADD14C,0.120000*%
G04 APERTURE END LIST*
D10*
D11*
X177002200Y-166007200D02*
X177002200Y-198007200D01*
X285002200Y-198007200D01*
X285002200Y-166007200D01*
X177002200Y-166007200D01*
D10*
D11*
X10000000Y-10000000D02*
X10000000Y-200007200D01*
X287002200Y-200007200D01*
X287002200Y-10000000D01*
X10000000Y-10000000D01*
D10*
D11*
X12000000Y-12000000D02*
X12000000Y-198007200D01*
X285002200Y-198007200D01*
X285002200Y-12000000D01*
X12000000Y-12000000D01*
D10*
D11*
X60000000Y-12000000D02*
X60000000Y-10000000D01*
D10*
D11*
X110000000Y-12000000D02*
X110000000Y-10000000D01*
D10*
D11*
X160000000Y-12000000D02*
X160000000Y-10000000D01*
D10*
D11*
X210000000Y-12000000D02*
X210000000Y-10000000D01*
D10*
D11*
X260000000Y-12000000D02*
X260000000Y-10000000D01*
D10*
D11*
X36065476Y-11588095D02*
X35322619Y-11588095D01*
X35694047Y-11588095D02*
X35694047Y-10288095D01*
X35570238Y-10473809D01*
X35446428Y-10597619D01*
X35322619Y-10659523D01*
D10*
D11*
X85322619Y-10411904D02*
X85384523Y-10350000D01*
X85508333Y-10288095D01*
X85817857Y-10288095D01*
X85941666Y-10350000D01*
X86003571Y-10411904D01*
X86065476Y-10535714D01*
X86065476Y-10659523D01*
X86003571Y-10845238D01*
X85260714Y-11588095D01*
X86065476Y-11588095D01*
D10*
D11*
X135260714Y-10288095D02*
X136065476Y-10288095D01*
X135632142Y-10783333D01*
X135817857Y-10783333D01*
X135941666Y-10845238D01*
X136003571Y-10907142D01*
X136065476Y-11030952D01*
X136065476Y-11340476D01*
X136003571Y-11464285D01*
X135941666Y-11526190D01*
X135817857Y-11588095D01*
X135446428Y-11588095D01*
X135322619Y-11526190D01*
X135260714Y-11464285D01*
D10*
D11*
X185941666Y-10721428D02*
X185941666Y-11588095D01*
X185632142Y-10226190D02*
X185322619Y-11154761D01*
X186127380Y-11154761D01*
D10*
D11*
X236003571Y-10288095D02*
X235384523Y-10288095D01*
X235322619Y-10907142D01*
X235384523Y-10845238D01*
X235508333Y-10783333D01*
X235817857Y-10783333D01*
X235941666Y-10845238D01*
X236003571Y-10907142D01*
X236065476Y-11030952D01*
X236065476Y-11340476D01*
X236003571Y-11464285D01*
X235941666Y-11526190D01*
X235817857Y-11588095D01*
X235508333Y-11588095D01*
X235384523Y-11526190D01*
X235322619Y-11464285D01*
D10*
D11*
X285941666Y-10288095D02*
X285694047Y-10288095D01*
X285570238Y-10350000D01*
X285508333Y-10411904D01*
X285384523Y-10597619D01*
X285322619Y-10845238D01*
X285322619Y-11340476D01*
X285384523Y-11464285D01*
X285446428Y-11526190D01*
X285570238Y-11588095D01*
X285817857Y-11588095D01*
X285941666Y-11526190D01*
X286003571Y-11464285D01*
X286065476Y-11340476D01*
X286065476Y-11030952D01*
X286003571Y-10907142D01*
X285941666Y-10845238D01*
X285817857Y-10783333D01*
X285570238Y-10783333D01*
X285446428Y-10845238D01*
X285384523Y-10907142D01*
X285322619Y-11030952D01*
D10*
D11*
X60000000Y-198007200D02*
X60000000Y-200007200D01*
D10*
D11*
X110000000Y-198007200D02*
X110000000Y-200007200D01*
D10*
D11*
X160000000Y-198007200D02*
X160000000Y-200007200D01*
D10*
D11*
X210000000Y-198007200D02*
X210000000Y-200007200D01*
D10*
D11*
X260000000Y-198007200D02*
X260000000Y-200007200D01*
D10*
D11*
X36065476Y-199595295D02*
X35322619Y-199595295D01*
X35694047Y-199595295D02*
X35694047Y-198295295D01*
X35570238Y-198481009D01*
X35446428Y-198604819D01*
X35322619Y-198666723D01*
D10*
D11*
X85322619Y-198419104D02*
X85384523Y-198357200D01*
X85508333Y-198295295D01*
X85817857Y-198295295D01*
X85941666Y-198357200D01*
X86003571Y-198419104D01*
X86065476Y-198542914D01*
X86065476Y-198666723D01*
X86003571Y-198852438D01*
X85260714Y-199595295D01*
X86065476Y-199595295D01*
D10*
D11*
X135260714Y-198295295D02*
X136065476Y-198295295D01*
X135632142Y-198790533D01*
X135817857Y-198790533D01*
X135941666Y-198852438D01*
X136003571Y-198914342D01*
X136065476Y-199038152D01*
X136065476Y-199347676D01*
X136003571Y-199471485D01*
X135941666Y-199533390D01*
X135817857Y-199595295D01*
X135446428Y-199595295D01*
X135322619Y-199533390D01*
X135260714Y-199471485D01*
D10*
D11*
X185941666Y-198728628D02*
X185941666Y-199595295D01*
X185632142Y-198233390D02*
X185322619Y-199161961D01*
X186127380Y-199161961D01*
D10*
D11*
X236003571Y-198295295D02*
X235384523Y-198295295D01*
X235322619Y-198914342D01*
X235384523Y-198852438D01*
X235508333Y-198790533D01*
X235817857Y-198790533D01*
X235941666Y-198852438D01*
X236003571Y-198914342D01*
X236065476Y-199038152D01*
X236065476Y-199347676D01*
X236003571Y-199471485D01*
X235941666Y-199533390D01*
X235817857Y-199595295D01*
X235508333Y-199595295D01*
X235384523Y-199533390D01*
X235322619Y-199471485D01*
D10*
D11*
X285941666Y-198295295D02*
X285694047Y-198295295D01*
X285570238Y-198357200D01*
X285508333Y-198419104D01*
X285384523Y-198604819D01*
X285322619Y-198852438D01*
X285322619Y-199347676D01*
X285384523Y-199471485D01*
X285446428Y-199533390D01*
X285570238Y-199595295D01*
X285817857Y-199595295D01*
X285941666Y-199533390D01*
X286003571Y-199471485D01*
X286065476Y-199347676D01*
X286065476Y-199038152D01*
X286003571Y-198914342D01*
X285941666Y-198852438D01*
X285817857Y-198790533D01*
X285570238Y-198790533D01*
X285446428Y-198852438D01*
X285384523Y-198914342D01*
X285322619Y-199038152D01*
D10*
D11*
X10000000Y-60000000D02*
X12000000Y-60000000D01*
D10*
D11*
X10000000Y-110000000D02*
X12000000Y-110000000D01*
D10*
D11*
X10000000Y-160000000D02*
X12000000Y-160000000D01*
D10*
D11*
X10690476Y-35216666D02*
X11309523Y-35216666D01*
X10566666Y-35588095D02*
X11000000Y-34288095D01*
X11433333Y-35588095D01*
D10*
D11*
X11092857Y-84907142D02*
X11278571Y-84969047D01*
X11340476Y-85030952D01*
X11402380Y-85154761D01*
X11402380Y-85340476D01*
X11340476Y-85464285D01*
X11278571Y-85526190D01*
X11154761Y-85588095D01*
X10659523Y-85588095D01*
X10659523Y-84288095D01*
X11092857Y-84288095D01*
X11216666Y-84350000D01*
X11278571Y-84411904D01*
X11340476Y-84535714D01*
X11340476Y-84659523D01*
X11278571Y-84783333D01*
X11216666Y-84845238D01*
X11092857Y-84907142D01*
X10659523Y-84907142D01*
D10*
D11*
X11402380Y-135464285D02*
X11340476Y-135526190D01*
X11154761Y-135588095D01*
X11030952Y-135588095D01*
X10845238Y-135526190D01*
X10721428Y-135402380D01*
X10659523Y-135278571D01*
X10597619Y-135030952D01*
X10597619Y-134845238D01*
X10659523Y-134597619D01*
X10721428Y-134473809D01*
X10845238Y-134350000D01*
X11030952Y-134288095D01*
X11154761Y-134288095D01*
X11340476Y-134350000D01*
X11402380Y-134411904D01*
D10*
D11*
X10659523Y-185588095D02*
X10659523Y-184288095D01*
X10969047Y-184288095D01*
X11154761Y-184350000D01*
X11278571Y-184473809D01*
X11340476Y-184597619D01*
X11402380Y-184845238D01*
X11402380Y-185030952D01*
X11340476Y-185278571D01*
X11278571Y-185402380D01*
X11154761Y-185526190D01*
X10969047Y-185588095D01*
X10659523Y-185588095D01*
D10*
D11*
X287002200Y-60000000D02*
X285002200Y-60000000D01*
D10*
D11*
X287002200Y-110000000D02*
X285002200Y-110000000D01*
D10*
D11*
X287002200Y-160000000D02*
X285002200Y-160000000D01*
D10*
D11*
X285692676Y-35216666D02*
X286311723Y-35216666D01*
X285568866Y-35588095D02*
X286002200Y-34288095D01*
X286435533Y-35588095D01*
D10*
D11*
X286095057Y-84907142D02*
X286280771Y-84969047D01*
X286342676Y-85030952D01*
X286404580Y-85154761D01*
X286404580Y-85340476D01*
X286342676Y-85464285D01*
X286280771Y-85526190D01*
X286156961Y-85588095D01*
X285661723Y-85588095D01*
X285661723Y-84288095D01*
X286095057Y-84288095D01*
X286218866Y-84350000D01*
X286280771Y-84411904D01*
X286342676Y-84535714D01*
X286342676Y-84659523D01*
X286280771Y-84783333D01*
X286218866Y-84845238D01*
X286095057Y-84907142D01*
X285661723Y-84907142D01*
D10*
D11*
X286404580Y-135464285D02*
X286342676Y-135526190D01*
X286156961Y-135588095D01*
X286033152Y-135588095D01*
X285847438Y-135526190D01*
X285723628Y-135402380D01*
X285661723Y-135278571D01*
X285599819Y-135030952D01*
X285599819Y-134845238D01*
X285661723Y-134597619D01*
X285723628Y-134473809D01*
X285847438Y-134350000D01*
X286033152Y-134288095D01*
X286156961Y-134288095D01*
X286342676Y-134350000D01*
X286404580Y-134411904D01*
D10*
D11*
X285661723Y-185588095D02*
X285661723Y-184288095D01*
X285971247Y-184288095D01*
X286156961Y-184350000D01*
X286280771Y-184473809D01*
X286342676Y-184597619D01*
X286404580Y-184845238D01*
X286404580Y-185030952D01*
X286342676Y-185278571D01*
X286280771Y-185402380D01*
X286156961Y-185526190D01*
X285971247Y-185588095D01*
X285661723Y-185588095D01*
D10*
D11*
X200434342Y-193785771D02*
X200434342Y-192285771D01*
X200791485Y-192285771D01*
X201005771Y-192357200D01*
X201148628Y-192500057D01*
X201220057Y-192642914D01*
X201291485Y-192928628D01*
X201291485Y-193142914D01*
X201220057Y-193428628D01*
X201148628Y-193571485D01*
X201005771Y-193714342D01*
X200791485Y-193785771D01*
X200434342Y-193785771D01*
X202577200Y-193785771D02*
X202577200Y-193000057D01*
X202505771Y-192857200D01*
X202362914Y-192785771D01*
X202077200Y-192785771D01*
X201934342Y-192857200D01*
X202577200Y-193714342D02*
X202434342Y-193785771D01*
X202077200Y-193785771D01*
X201934342Y-193714342D01*
X201862914Y-193571485D01*
X201862914Y-193428628D01*
X201934342Y-193285771D01*
X202077200Y-193214342D01*
X202434342Y-193214342D01*
X202577200Y-193142914D01*
X203077200Y-192785771D02*
X203648628Y-192785771D01*
X203291485Y-192285771D02*
X203291485Y-193571485D01*
X203362914Y-193714342D01*
X203505771Y-193785771D01*
X203648628Y-193785771D01*
X204720057Y-193714342D02*
X204577200Y-193785771D01*
X204291485Y-193785771D01*
X204148628Y-193714342D01*
X204077200Y-193571485D01*
X204077200Y-193000057D01*
X204148628Y-192857200D01*
X204291485Y-192785771D01*
X204577200Y-192785771D01*
X204720057Y-192857200D01*
X204791485Y-193000057D01*
X204791485Y-193142914D01*
X204077200Y-193285771D01*
X205434342Y-193642914D02*
X205505771Y-193714342D01*
X205434342Y-193785771D01*
X205362914Y-193714342D01*
X205434342Y-193642914D01*
X205434342Y-193785771D01*
X205434342Y-192857200D02*
X205505771Y-192928628D01*
X205434342Y-193000057D01*
X205362914Y-192928628D01*
X205434342Y-192857200D01*
X205434342Y-193000057D01*
D10*
D11*
X177002200Y-194507200D02*
X285002200Y-194507200D01*
D10*
D11*
X178434342Y-196585771D02*
X178434342Y-195085771D01*
X179291485Y-196585771D02*
X178648628Y-195728628D01*
X179291485Y-195085771D02*
X178434342Y-195942914D01*
X179934342Y-196585771D02*
X179934342Y-195585771D01*
X179934342Y-195085771D02*
X179862914Y-195157200D01*
X179934342Y-195228628D01*
X180005771Y-195157200D01*
X179934342Y-195085771D01*
X179934342Y-195228628D01*
X181505771Y-196442914D02*
X181434342Y-196514342D01*
X181220057Y-196585771D01*
X181077200Y-196585771D01*
X180862914Y-196514342D01*
X180720057Y-196371485D01*
X180648628Y-196228628D01*
X180577200Y-195942914D01*
X180577200Y-195728628D01*
X180648628Y-195442914D01*
X180720057Y-195300057D01*
X180862914Y-195157200D01*
X181077200Y-195085771D01*
X181220057Y-195085771D01*
X181434342Y-195157200D01*
X181505771Y-195228628D01*
X182791485Y-196585771D02*
X182791485Y-195800057D01*
X182720057Y-195657200D01*
X182577200Y-195585771D01*
X182291485Y-195585771D01*
X182148628Y-195657200D01*
X182791485Y-196514342D02*
X182648628Y-196585771D01*
X182291485Y-196585771D01*
X182148628Y-196514342D01*
X182077200Y-196371485D01*
X182077200Y-196228628D01*
X182148628Y-196085771D01*
X182291485Y-196014342D01*
X182648628Y-196014342D01*
X182791485Y-195942914D01*
X184148628Y-196585771D02*
X184148628Y-195085771D01*
X184148628Y-196514342D02*
X184005771Y-196585771D01*
X183720057Y-196585771D01*
X183577200Y-196514342D01*
X183505771Y-196442914D01*
X183434342Y-196300057D01*
X183434342Y-195871485D01*
X183505771Y-195728628D01*
X183577200Y-195657200D01*
X183720057Y-195585771D01*
X184005771Y-195585771D01*
X184148628Y-195657200D01*
X186005771Y-195800057D02*
X186505771Y-195800057D01*
X186720057Y-196585771D02*
X186005771Y-196585771D01*
X186005771Y-195085771D01*
X186720057Y-195085771D01*
X187362914Y-196442914D02*
X187434342Y-196514342D01*
X187362914Y-196585771D01*
X187291485Y-196514342D01*
X187362914Y-196442914D01*
X187362914Y-196585771D01*
X188077200Y-196585771D02*
X188077200Y-195085771D01*
X188434342Y-195085771D01*
X188648628Y-195157200D01*
X188791485Y-195300057D01*
X188862914Y-195442914D01*
X188934342Y-195728628D01*
X188934342Y-195942914D01*
X188862914Y-196228628D01*
X188791485Y-196371485D01*
X188648628Y-196514342D01*
X188434342Y-196585771D01*
X188077200Y-196585771D01*
X189577200Y-196442914D02*
X189648628Y-196514342D01*
X189577200Y-196585771D01*
X189505771Y-196514342D01*
X189577200Y-196442914D01*
X189577200Y-196585771D01*
X190220057Y-196157200D02*
X190934342Y-196157200D01*
X190077200Y-196585771D02*
X190577200Y-195085771D01*
X191077200Y-196585771D01*
X191577200Y-196442914D02*
X191648628Y-196514342D01*
X191577200Y-196585771D01*
X191505771Y-196514342D01*
X191577200Y-196442914D01*
X191577200Y-196585771D01*
X194577200Y-196585771D02*
X194577200Y-195085771D01*
X194720057Y-196014342D02*
X195148628Y-196585771D01*
X195148628Y-195585771D02*
X194577200Y-196157200D01*
X195791485Y-196585771D02*
X195791485Y-195585771D01*
X195791485Y-195085771D02*
X195720057Y-195157200D01*
X195791485Y-195228628D01*
X195862914Y-195157200D01*
X195791485Y-195085771D01*
X195791485Y-195228628D01*
X197148628Y-196514342D02*
X197005771Y-196585771D01*
X196720057Y-196585771D01*
X196577200Y-196514342D01*
X196505771Y-196442914D01*
X196434342Y-196300057D01*
X196434342Y-195871485D01*
X196505771Y-195728628D01*
X196577200Y-195657200D01*
X196720057Y-195585771D01*
X197005771Y-195585771D01*
X197148628Y-195657200D01*
X198434342Y-196585771D02*
X198434342Y-195800057D01*
X198362914Y-195657200D01*
X198220057Y-195585771D01*
X197934342Y-195585771D01*
X197791485Y-195657200D01*
X198434342Y-196514342D02*
X198291485Y-196585771D01*
X197934342Y-196585771D01*
X197791485Y-196514342D01*
X197720057Y-196371485D01*
X197720057Y-196228628D01*
X197791485Y-196085771D01*
X197934342Y-196014342D01*
X198291485Y-196014342D01*
X198434342Y-195942914D01*
X199791485Y-196585771D02*
X199791485Y-195085771D01*
X199791485Y-196514342D02*
X199648628Y-196585771D01*
X199362914Y-196585771D01*
X199220057Y-196514342D01*
X199148628Y-196442914D01*
X199077200Y-196300057D01*
X199077200Y-195871485D01*
X199148628Y-195728628D01*
X199220057Y-195657200D01*
X199362914Y-195585771D01*
X199648628Y-195585771D01*
X199791485Y-195657200D01*
X202077200Y-197157200D02*
X202005771Y-197085771D01*
X201862914Y-196871485D01*
X201791485Y-196728628D01*
X201720057Y-196514342D01*
X201648628Y-196157200D01*
X201648628Y-195871485D01*
X201720057Y-195514342D01*
X201791485Y-195300057D01*
X201862914Y-195157200D01*
X202005771Y-194942914D01*
X202077200Y-194871485D01*
X203291485Y-195085771D02*
X203005771Y-195085771D01*
X202862914Y-195157200D01*
X202791485Y-195228628D01*
X202648628Y-195442914D01*
X202577200Y-195728628D01*
X202577200Y-196300057D01*
X202648628Y-196442914D01*
X202720057Y-196514342D01*
X202862914Y-196585771D01*
X203148628Y-196585771D01*
X203291485Y-196514342D01*
X203362914Y-196442914D01*
X203434342Y-196300057D01*
X203434342Y-195942914D01*
X203362914Y-195800057D01*
X203291485Y-195728628D01*
X203148628Y-195657200D01*
X202862914Y-195657200D01*
X202720057Y-195728628D01*
X202648628Y-195800057D01*
X202577200Y-195942914D01*
X204077200Y-196442914D02*
X204148628Y-196514342D01*
X204077200Y-196585771D01*
X204005771Y-196514342D01*
X204077200Y-196442914D01*
X204077200Y-196585771D01*
X205077200Y-195085771D02*
X205220057Y-195085771D01*
X205362914Y-195157200D01*
X205434342Y-195228628D01*
X205505771Y-195371485D01*
X205577200Y-195657200D01*
X205577200Y-196014342D01*
X205505771Y-196300057D01*
X205434342Y-196442914D01*
X205362914Y-196514342D01*
X205220057Y-196585771D01*
X205077200Y-196585771D01*
X204934342Y-196514342D01*
X204862914Y-196442914D01*
X204791485Y-196300057D01*
X204720057Y-196014342D01*
X204720057Y-195657200D01*
X204791485Y-195371485D01*
X204862914Y-195228628D01*
X204934342Y-195157200D01*
X205077200Y-195085771D01*
X206220057Y-196442914D02*
X206291485Y-196514342D01*
X206220057Y-196585771D01*
X206148628Y-196514342D01*
X206220057Y-196442914D01*
X206220057Y-196585771D01*
X207720057Y-196585771D02*
X206862914Y-196585771D01*
X207291485Y-196585771D02*
X207291485Y-195085771D01*
X207148628Y-195300057D01*
X207005771Y-195442914D01*
X206862914Y-195514342D01*
X208220057Y-197157200D02*
X208291485Y-197085771D01*
X208434342Y-196871485D01*
X208505771Y-196728628D01*
X208577200Y-196514342D01*
X208648628Y-196157200D01*
X208648628Y-195871485D01*
X208577200Y-195514342D01*
X208505771Y-195300057D01*
X208434342Y-195157200D01*
X208291485Y-194942914D01*
X208220057Y-194871485D01*
D10*
D11*
X177002200Y-191507200D02*
X285002200Y-191507200D01*
D10*
D12*
X264411485Y-193785771D02*
X263911485Y-193071485D01*
X263554342Y-193785771D02*
X263554342Y-192285771D01*
X264125771Y-192285771D01*
X264268628Y-192357200D01*
X264340057Y-192428628D01*
X264411485Y-192571485D01*
X264411485Y-192785771D01*
X264340057Y-192928628D01*
X264268628Y-193000057D01*
X264125771Y-193071485D01*
X263554342Y-193071485D01*
X265625771Y-193714342D02*
X265482914Y-193785771D01*
X265197200Y-193785771D01*
X265054342Y-193714342D01*
X264982914Y-193571485D01*
X264982914Y-193000057D01*
X265054342Y-192857200D01*
X265197200Y-192785771D01*
X265482914Y-192785771D01*
X265625771Y-192857200D01*
X265697200Y-193000057D01*
X265697200Y-193142914D01*
X264982914Y-193285771D01*
X266197200Y-192785771D02*
X266554342Y-193785771D01*
X266911485Y-192785771D01*
X267482914Y-193642914D02*
X267554342Y-193714342D01*
X267482914Y-193785771D01*
X267411485Y-193714342D01*
X267482914Y-193642914D01*
X267482914Y-193785771D01*
X267482914Y-192857200D02*
X267554342Y-192928628D01*
X267482914Y-193000057D01*
X267411485Y-192928628D01*
X267482914Y-192857200D01*
X267482914Y-193000057D01*
D10*
D11*
X178362914Y-193714342D02*
X178577200Y-193785771D01*
X178934342Y-193785771D01*
X179077200Y-193714342D01*
X179148628Y-193642914D01*
X179220057Y-193500057D01*
X179220057Y-193357200D01*
X179148628Y-193214342D01*
X179077200Y-193142914D01*
X178934342Y-193071485D01*
X178648628Y-193000057D01*
X178505771Y-192928628D01*
X178434342Y-192857200D01*
X178362914Y-192714342D01*
X178362914Y-192571485D01*
X178434342Y-192428628D01*
X178505771Y-192357200D01*
X178648628Y-192285771D01*
X179005771Y-192285771D01*
X179220057Y-192357200D01*
X179862914Y-193785771D02*
X179862914Y-192785771D01*
X179862914Y-192285771D02*
X179791485Y-192357200D01*
X179862914Y-192428628D01*
X179934342Y-192357200D01*
X179862914Y-192285771D01*
X179862914Y-192428628D01*
X180434342Y-192785771D02*
X181220057Y-192785771D01*
X180434342Y-193785771D01*
X181220057Y-193785771D01*
X182362914Y-193714342D02*
X182220057Y-193785771D01*
X181934342Y-193785771D01*
X181791485Y-193714342D01*
X181720057Y-193571485D01*
X181720057Y-193000057D01*
X181791485Y-192857200D01*
X181934342Y-192785771D01*
X182220057Y-192785771D01*
X182362914Y-192857200D01*
X182434342Y-193000057D01*
X182434342Y-193142914D01*
X181720057Y-193285771D01*
X183077200Y-193642914D02*
X183148628Y-193714342D01*
X183077200Y-193785771D01*
X183005771Y-193714342D01*
X183077200Y-193642914D01*
X183077200Y-193785771D01*
X183077200Y-192857200D02*
X183148628Y-192928628D01*
X183077200Y-193000057D01*
X183005771Y-192928628D01*
X183077200Y-192857200D01*
X183077200Y-193000057D01*
X184862914Y-193357200D02*
X185577200Y-193357200D01*
X184720057Y-193785771D02*
X185220057Y-192285771D01*
X185720057Y-193785771D01*
X186862914Y-192785771D02*
X186862914Y-193785771D01*
X186505771Y-192214342D02*
X186148628Y-193285771D01*
X187077200Y-193285771D01*
D10*
D11*
X263434342Y-196585771D02*
X263434342Y-195085771D01*
X264791485Y-196585771D02*
X264791485Y-195085771D01*
X264791485Y-196514342D02*
X264648628Y-196585771D01*
X264362914Y-196585771D01*
X264220057Y-196514342D01*
X264148628Y-196442914D01*
X264077200Y-196300057D01*
X264077200Y-195871485D01*
X264148628Y-195728628D01*
X264220057Y-195657200D01*
X264362914Y-195585771D01*
X264648628Y-195585771D01*
X264791485Y-195657200D01*
X265505771Y-196442914D02*
X265577200Y-196514342D01*
X265505771Y-196585771D01*
X265434342Y-196514342D01*
X265505771Y-196442914D01*
X265505771Y-196585771D01*
X265505771Y-195657200D02*
X265577200Y-195728628D01*
X265505771Y-195800057D01*
X265434342Y-195728628D01*
X265505771Y-195657200D01*
X265505771Y-195800057D01*
X268148628Y-196585771D02*
X267291485Y-196585771D01*
X267720057Y-196585771D02*
X267720057Y-195085771D01*
X267577200Y-195300057D01*
X267434342Y-195442914D01*
X267291485Y-195514342D01*
X269862914Y-195014342D02*
X268577200Y-196942914D01*
X271148628Y-196585771D02*
X270291485Y-196585771D01*
X270720057Y-196585771D02*
X270720057Y-195085771D01*
X270577200Y-195300057D01*
X270434342Y-195442914D01*
X270291485Y-195514342D01*
D10*
D11*
X177002200Y-187507200D02*
X285002200Y-187507200D01*
D10*
D13*
X178714580Y-188211961D02*
X179857438Y-188211961D01*
X179036009Y-190211961D02*
X179286009Y-188211961D01*
X180274104Y-190211961D02*
X180440771Y-188878628D01*
X180524104Y-188211961D02*
X180416961Y-188307200D01*
X180500295Y-188402438D01*
X180607438Y-188307200D01*
X180524104Y-188211961D01*
X180500295Y-188402438D01*
X181107438Y-188878628D02*
X181869342Y-188878628D01*
X181476485Y-188211961D02*
X181262200Y-189926247D01*
X181333628Y-190116723D01*
X181512200Y-190211961D01*
X181702676Y-190211961D01*
X182655057Y-190211961D02*
X182476485Y-190116723D01*
X182405057Y-189926247D01*
X182619342Y-188211961D01*
X184190771Y-190116723D02*
X183988390Y-190211961D01*
X183607438Y-190211961D01*
X183428866Y-190116723D01*
X183357438Y-189926247D01*
X183452676Y-189164342D01*
X183571723Y-188973866D01*
X183774104Y-188878628D01*
X184155057Y-188878628D01*
X184333628Y-188973866D01*
X184405057Y-189164342D01*
X184381247Y-189354819D01*
X183405057Y-189545295D01*
X185155057Y-190021485D02*
X185238390Y-190116723D01*
X185131247Y-190211961D01*
X185047914Y-190116723D01*
X185155057Y-190021485D01*
X185131247Y-190211961D01*
X185286009Y-188973866D02*
X185369342Y-189069104D01*
X185262200Y-189164342D01*
X185178866Y-189069104D01*
X185286009Y-188973866D01*
X185262200Y-189164342D01*
D10*
D11*
X178934342Y-185600057D02*
X178434342Y-185600057D01*
X178434342Y-186385771D02*
X178434342Y-184885771D01*
X179148628Y-184885771D01*
X179720057Y-186385771D02*
X179720057Y-185385771D01*
X179720057Y-184885771D02*
X179648628Y-184957200D01*
X179720057Y-185028628D01*
X179791485Y-184957200D01*
X179720057Y-184885771D01*
X179720057Y-185028628D01*
X180648628Y-186385771D02*
X180505771Y-186314342D01*
X180434342Y-186171485D01*
X180434342Y-184885771D01*
X181791485Y-186314342D02*
X181648628Y-186385771D01*
X181362914Y-186385771D01*
X181220057Y-186314342D01*
X181148628Y-186171485D01*
X181148628Y-185600057D01*
X181220057Y-185457200D01*
X181362914Y-185385771D01*
X181648628Y-185385771D01*
X181791485Y-185457200D01*
X181862914Y-185600057D01*
X181862914Y-185742914D01*
X181148628Y-185885771D01*
X182505771Y-186242914D02*
X182577200Y-186314342D01*
X182505771Y-186385771D01*
X182434342Y-186314342D01*
X182505771Y-186242914D01*
X182505771Y-186385771D01*
X182505771Y-185457200D02*
X182577200Y-185528628D01*
X182505771Y-185600057D01*
X182434342Y-185528628D01*
X182505771Y-185457200D01*
X182505771Y-185600057D01*
X184362914Y-186385771D02*
X184362914Y-184885771D01*
X184934342Y-184885771D01*
X185077200Y-184957200D01*
X185148628Y-185028628D01*
X185220057Y-185171485D01*
X185220057Y-185385771D01*
X185148628Y-185528628D01*
X185077200Y-185600057D01*
X184934342Y-185671485D01*
X184362914Y-185671485D01*
X186720057Y-186242914D02*
X186648628Y-186314342D01*
X186434342Y-186385771D01*
X186291485Y-186385771D01*
X186077200Y-186314342D01*
X185934342Y-186171485D01*
X185862914Y-186028628D01*
X185791485Y-185742914D01*
X185791485Y-185528628D01*
X185862914Y-185242914D01*
X185934342Y-185100057D01*
X186077200Y-184957200D01*
X186291485Y-184885771D01*
X186434342Y-184885771D01*
X186648628Y-184957200D01*
X186720057Y-185028628D01*
X187862914Y-185600057D02*
X188077200Y-185671485D01*
X188148628Y-185742914D01*
X188220057Y-185885771D01*
X188220057Y-186100057D01*
X188148628Y-186242914D01*
X188077200Y-186314342D01*
X187934342Y-186385771D01*
X187362914Y-186385771D01*
X187362914Y-184885771D01*
X187862914Y-184885771D01*
X188005771Y-184957200D01*
X188077200Y-185028628D01*
X188148628Y-185171485D01*
X188148628Y-185314342D01*
X188077200Y-185457200D01*
X188005771Y-185528628D01*
X187862914Y-185600057D01*
X187362914Y-185600057D01*
X188862914Y-186242914D02*
X188934342Y-186314342D01*
X188862914Y-186385771D01*
X188791485Y-186314342D01*
X188862914Y-186242914D01*
X188862914Y-186385771D01*
X189577200Y-186385771D02*
X189577200Y-184885771D01*
X189720057Y-185814342D02*
X190148628Y-186385771D01*
X190148628Y-185385771D02*
X189577200Y-185957200D01*
X190791485Y-186385771D02*
X190791485Y-185385771D01*
X190791485Y-184885771D02*
X190720057Y-184957200D01*
X190791485Y-185028628D01*
X190862914Y-184957200D01*
X190791485Y-184885771D01*
X190791485Y-185028628D01*
X192148628Y-186314342D02*
X192005771Y-186385771D01*
X191720057Y-186385771D01*
X191577200Y-186314342D01*
X191505771Y-186242914D01*
X191434342Y-186100057D01*
X191434342Y-185671485D01*
X191505771Y-185528628D01*
X191577200Y-185457200D01*
X191720057Y-185385771D01*
X192005771Y-185385771D01*
X192148628Y-185457200D01*
X193434342Y-186385771D02*
X193434342Y-185600057D01*
X193362914Y-185457200D01*
X193220057Y-185385771D01*
X192934342Y-185385771D01*
X192791485Y-185457200D01*
X193434342Y-186314342D02*
X193291485Y-186385771D01*
X192934342Y-186385771D01*
X192791485Y-186314342D01*
X192720057Y-186171485D01*
X192720057Y-186028628D01*
X192791485Y-185885771D01*
X192934342Y-185814342D01*
X193291485Y-185814342D01*
X193434342Y-185742914D01*
X194791485Y-186385771D02*
X194791485Y-184885771D01*
X194791485Y-186314342D02*
X194648628Y-186385771D01*
X194362914Y-186385771D01*
X194220057Y-186314342D01*
X194148628Y-186242914D01*
X194077200Y-186100057D01*
X194077200Y-185671485D01*
X194148628Y-185528628D01*
X194220057Y-185457200D01*
X194362914Y-185385771D01*
X194648628Y-185385771D01*
X194791485Y-185457200D01*
X195148628Y-186528628D02*
X196291485Y-186528628D01*
X196648628Y-185385771D02*
X196648628Y-186885771D01*
X196648628Y-185457200D02*
X196791485Y-185385771D01*
X197077200Y-185385771D01*
X197220057Y-185457200D01*
X197291485Y-185528628D01*
X197362914Y-185671485D01*
X197362914Y-186100057D01*
X197291485Y-186242914D01*
X197220057Y-186314342D01*
X197077200Y-186385771D01*
X196791485Y-186385771D01*
X196648628Y-186314342D01*
X198648628Y-186314342D02*
X198505771Y-186385771D01*
X198220057Y-186385771D01*
X198077200Y-186314342D01*
X198005771Y-186242914D01*
X197934342Y-186100057D01*
X197934342Y-185671485D01*
X198005771Y-185528628D01*
X198077200Y-185457200D01*
X198220057Y-185385771D01*
X198505771Y-185385771D01*
X198648628Y-185457200D01*
X199291485Y-186385771D02*
X199291485Y-184885771D01*
X199291485Y-185457200D02*
X199434342Y-185385771D01*
X199720057Y-185385771D01*
X199862914Y-185457200D01*
X199934342Y-185528628D01*
X200005771Y-185671485D01*
X200005771Y-186100057D01*
X199934342Y-186242914D01*
X199862914Y-186314342D01*
X199720057Y-186385771D01*
X199434342Y-186385771D01*
X199291485Y-186314342D01*
D10*
D11*
X177002200Y-181507200D02*
X285002200Y-181507200D01*
D10*
D11*
X178362914Y-183614342D02*
X178577200Y-183685771D01*
X178934342Y-183685771D01*
X179077200Y-183614342D01*
X179148628Y-183542914D01*
X179220057Y-183400057D01*
X179220057Y-183257200D01*
X179148628Y-183114342D01*
X179077200Y-183042914D01*
X178934342Y-182971485D01*
X178648628Y-182900057D01*
X178505771Y-182828628D01*
X178434342Y-182757200D01*
X178362914Y-182614342D01*
X178362914Y-182471485D01*
X178434342Y-182328628D01*
X178505771Y-182257200D01*
X178648628Y-182185771D01*
X179005771Y-182185771D01*
X179220057Y-182257200D01*
X179862914Y-183685771D02*
X179862914Y-182185771D01*
X180505771Y-183685771D02*
X180505771Y-182900057D01*
X180434342Y-182757200D01*
X180291485Y-182685771D01*
X180077200Y-182685771D01*
X179934342Y-182757200D01*
X179862914Y-182828628D01*
X181791485Y-183614342D02*
X181648628Y-183685771D01*
X181362914Y-183685771D01*
X181220057Y-183614342D01*
X181148628Y-183471485D01*
X181148628Y-182900057D01*
X181220057Y-182757200D01*
X181362914Y-182685771D01*
X181648628Y-182685771D01*
X181791485Y-182757200D01*
X181862914Y-182900057D01*
X181862914Y-183042914D01*
X181148628Y-183185771D01*
X183077200Y-183614342D02*
X182934342Y-183685771D01*
X182648628Y-183685771D01*
X182505771Y-183614342D01*
X182434342Y-183471485D01*
X182434342Y-182900057D01*
X182505771Y-182757200D01*
X182648628Y-182685771D01*
X182934342Y-182685771D01*
X183077200Y-182757200D01*
X183148628Y-182900057D01*
X183148628Y-183042914D01*
X182434342Y-183185771D01*
X183577200Y-182685771D02*
X184148628Y-182685771D01*
X183791485Y-182185771D02*
X183791485Y-183471485D01*
X183862914Y-183614342D01*
X184005771Y-183685771D01*
X184148628Y-183685771D01*
X184648628Y-183542914D02*
X184720057Y-183614342D01*
X184648628Y-183685771D01*
X184577200Y-183614342D01*
X184648628Y-183542914D01*
X184648628Y-183685771D01*
X184648628Y-182757200D02*
X184720057Y-182828628D01*
X184648628Y-182900057D01*
X184577200Y-182828628D01*
X184648628Y-182757200D01*
X184648628Y-182900057D01*
D10*
D12*
D10*
D11*
D10*
D11*
D10*
D11*
D10*
D11*
D10*
D11*
X197002200Y-191507200D02*
X197002200Y-194507200D01*
D10*
D11*
X261002200Y-191507200D02*
X261002200Y-198007200D01*
X107059523Y-88452380D02*
X106726190Y-87976190D01*
X106488095Y-88452380D02*
X106488095Y-87452380D01*
X106869047Y-87452380D01*
X106964285Y-87500000D01*
X107011904Y-87547619D01*
X107059523Y-87642857D01*
X107059523Y-87785714D01*
X107011904Y-87880952D01*
X106964285Y-87928571D01*
X106869047Y-87976190D01*
X106488095Y-87976190D01*
X107488095Y-87928571D02*
X107821428Y-87928571D01*
X107964285Y-88452380D02*
X107488095Y-88452380D01*
X107488095Y-87452380D01*
X107964285Y-87452380D01*
X108250000Y-87452380D02*
X108583333Y-88452380D01*
X108916666Y-87452380D01*
X109250000Y-88452380D02*
X109250000Y-87452380D01*
X109678571Y-88404761D02*
X109821428Y-88452380D01*
X110059523Y-88452380D01*
X110154761Y-88404761D01*
X110202380Y-88357142D01*
X110250000Y-88261904D01*
X110250000Y-88166666D01*
X110202380Y-88071428D01*
X110154761Y-88023809D01*
X110059523Y-87976190D01*
X109869047Y-87928571D01*
X109773809Y-87880952D01*
X109726190Y-87833333D01*
X109678571Y-87738095D01*
X109678571Y-87642857D01*
X109726190Y-87547619D01*
X109773809Y-87500000D01*
X109869047Y-87452380D01*
X110107142Y-87452380D01*
X110250000Y-87500000D01*
X110869047Y-87452380D02*
X111059523Y-87452380D01*
X111154761Y-87500000D01*
X111250000Y-87595238D01*
X111297619Y-87785714D01*
X111297619Y-88119047D01*
X111250000Y-88309523D01*
X111154761Y-88404761D01*
X111059523Y-88452380D01*
X110869047Y-88452380D01*
X110773809Y-88404761D01*
X110678571Y-88309523D01*
X110630952Y-88119047D01*
X110630952Y-87785714D01*
X110678571Y-87595238D01*
X110773809Y-87500000D01*
X110869047Y-87452380D01*
X111726190Y-88452380D02*
X111726190Y-87452380D01*
X112297619Y-88452380D01*
X112297619Y-87452380D01*
X113488095Y-87547619D02*
X113535714Y-87500000D01*
X113630952Y-87452380D01*
X113869047Y-87452380D01*
X113964285Y-87500000D01*
X114011904Y-87547619D01*
X114059523Y-87642857D01*
X114059523Y-87738095D01*
X114011904Y-87880952D01*
X113440476Y-88452380D01*
X114059523Y-88452380D01*
X110892857Y-89928571D02*
X111035714Y-89976190D01*
X111083333Y-90023809D01*
X111130952Y-90119047D01*
X111130952Y-90261904D01*
X111083333Y-90357142D01*
X111035714Y-90404761D01*
X110940476Y-90452380D01*
X110559523Y-90452380D01*
X110559523Y-89452380D01*
X110892857Y-89452380D01*
X110988095Y-89500000D01*
X111035714Y-89547619D01*
X111083333Y-89642857D01*
X111083333Y-89738095D01*
X111035714Y-89833333D01*
X110988095Y-89880952D01*
X110892857Y-89928571D01*
X110559523Y-89928571D01*
X111750000Y-89452380D02*
X111940476Y-89452380D01*
X112035714Y-89500000D01*
X112130952Y-89595238D01*
X112178571Y-89785714D01*
X112178571Y-90119047D01*
X112130952Y-90309523D01*
X112035714Y-90404761D01*
X111940476Y-90452380D01*
X111750000Y-90452380D01*
X111654761Y-90404761D01*
X111559523Y-90309523D01*
X111511904Y-90119047D01*
X111511904Y-89785714D01*
X111559523Y-89595238D01*
X111654761Y-89500000D01*
X111750000Y-89452380D01*
X112797619Y-89452380D02*
X112988095Y-89452380D01*
X113083333Y-89500000D01*
X113178571Y-89595238D01*
X113226190Y-89785714D01*
X113226190Y-90119047D01*
X113178571Y-90309523D01*
X113083333Y-90404761D01*
X112988095Y-90452380D01*
X112797619Y-90452380D01*
X112702380Y-90404761D01*
X112607142Y-90309523D01*
X112559523Y-90119047D01*
X112559523Y-89785714D01*
X112607142Y-89595238D01*
X112702380Y-89500000D01*
X112797619Y-89452380D01*
X113511904Y-89452380D02*
X114083333Y-89452380D01*
X113797619Y-90452380D02*
X113797619Y-89452380D01*
X106392856Y-85952380D02*
X106630951Y-86952380D01*
X106821428Y-86238095D01*
X107011904Y-86952380D01*
X107249999Y-85952380D01*
X107583332Y-86666666D02*
X108059523Y-86666666D01*
X107488094Y-86952380D02*
X107821428Y-85952380D01*
X108154761Y-86952380D01*
X108345237Y-85952380D02*
X108916666Y-85952380D01*
X108630951Y-86952380D02*
X108630951Y-85952380D01*
X109249999Y-86428571D02*
X109583332Y-86428571D01*
X109726190Y-86952380D02*
X109249999Y-86952380D01*
X109249999Y-85952380D01*
X109726190Y-85952380D01*
X110726190Y-86952380D02*
X110392856Y-86476190D01*
X110154761Y-86952380D02*
X110154761Y-85952380D01*
X110535713Y-85952380D01*
X110630951Y-86000000D01*
X110678571Y-86047619D01*
X110726190Y-86142857D01*
X110726190Y-86285714D01*
X110678571Y-86380952D01*
X110630951Y-86428571D01*
X110535713Y-86476190D01*
X110154761Y-86476190D01*
X112488094Y-86952380D02*
X112154761Y-86476190D01*
X111916666Y-86952380D02*
X111916666Y-85952380D01*
X112297618Y-85952380D01*
X112392856Y-86000000D01*
X112440475Y-86047619D01*
X112488094Y-86142857D01*
X112488094Y-86285714D01*
X112440475Y-86380952D01*
X112392856Y-86428571D01*
X112297618Y-86476190D01*
X111916666Y-86476190D01*
X113107142Y-85952380D02*
X113297618Y-85952380D01*
X113392856Y-86000000D01*
X113488094Y-86095238D01*
X113535713Y-86285714D01*
X113535713Y-86619047D01*
X113488094Y-86809523D01*
X113392856Y-86904761D01*
X113297618Y-86952380D01*
X113107142Y-86952380D01*
X113011904Y-86904761D01*
X112916666Y-86809523D01*
X112869047Y-86619047D01*
X112869047Y-86285714D01*
X112916666Y-86095238D01*
X113011904Y-86000000D01*
X113107142Y-85952380D01*
X113869047Y-85952380D02*
X114107142Y-86952380D01*
X114297618Y-86238095D01*
X114488094Y-86952380D01*
X114726190Y-85952380D01*
X115107142Y-86428571D02*
X115440475Y-86428571D01*
X115583332Y-86952380D02*
X115107142Y-86952380D01*
X115107142Y-85952380D01*
X115583332Y-85952380D01*
X116583332Y-86952380D02*
X116249999Y-86476190D01*
X116011904Y-86952380D02*
X116011904Y-85952380D01*
X116392856Y-85952380D01*
X116488094Y-86000000D01*
X116535713Y-86047619D01*
X116583332Y-86142857D01*
X116583332Y-86285714D01*
X116535713Y-86380952D01*
X116488094Y-86428571D01*
X116392856Y-86476190D01*
X116011904Y-86476190D01*
X118249999Y-86952380D02*
X117773809Y-86952380D01*
X117773809Y-85952380D01*
X118583332Y-86952380D02*
X118583332Y-85952380D01*
X119059523Y-86952380D02*
X119059523Y-85952380D01*
X119630951Y-86952380D01*
X119630951Y-85952380D01*
X120107142Y-86952380D02*
X120107142Y-85952380D01*
X120678571Y-86952380D02*
X120249999Y-86380952D01*
X120678571Y-85952380D02*
X120107142Y-86523809D01*
X121107142Y-86571428D02*
X121869047Y-86571428D01*
X121488094Y-86952380D02*
X121488094Y-86190476D01*
X144047619Y-90202380D02*
X143714285Y-89726190D01*
X143476190Y-90202380D02*
X143476190Y-89202380D01*
X143857142Y-89202380D01*
X143952380Y-89250000D01*
X144000000Y-89297619D01*
X144047619Y-89392857D01*
X144047619Y-89535714D01*
X144000000Y-89630952D01*
X143952380Y-89678571D01*
X143857142Y-89726190D01*
X143476190Y-89726190D01*
X144476190Y-89678571D02*
X144809523Y-89678571D01*
X144952380Y-90202380D02*
X144476190Y-90202380D01*
X144476190Y-89202380D01*
X144952380Y-89202380D01*
X145333333Y-90154761D02*
X145476190Y-90202380D01*
X145714285Y-90202380D01*
X145809523Y-90154761D01*
X145857142Y-90107142D01*
X145904761Y-90011904D01*
X145904761Y-89916666D01*
X145857142Y-89821428D01*
X145809523Y-89773809D01*
X145714285Y-89726190D01*
X145523809Y-89678571D01*
X145428571Y-89630952D01*
X145380952Y-89583333D01*
X145333333Y-89488095D01*
X145333333Y-89392857D01*
X145380952Y-89297619D01*
X145428571Y-89250000D01*
X145523809Y-89202380D01*
X145761904Y-89202380D01*
X145904761Y-89250000D01*
X146333333Y-89678571D02*
X146666666Y-89678571D01*
X146809523Y-90202380D02*
X146333333Y-90202380D01*
X146333333Y-89202380D01*
X146809523Y-89202380D01*
X147095238Y-89202380D02*
X147666666Y-89202380D01*
X147380952Y-90202380D02*
X147380952Y-89202380D01*
G04 #@! TO.C,SW4*
X148666666Y-122574761D02*
X148809523Y-122622380D01*
X149047619Y-122622380D01*
X149142857Y-122574761D01*
X149190476Y-122527142D01*
X149238095Y-122431904D01*
X149238095Y-122336666D01*
X149190476Y-122241428D01*
X149142857Y-122193809D01*
X149047619Y-122146190D01*
X148857142Y-122098571D01*
X148761904Y-122050952D01*
X148714285Y-122003333D01*
X148666666Y-121908095D01*
X148666666Y-121812857D01*
X148714285Y-121717619D01*
X148761904Y-121670000D01*
X148857142Y-121622380D01*
X149095238Y-121622380D01*
X149238095Y-121670000D01*
X149571428Y-121622380D02*
X149809523Y-122622380D01*
X150000000Y-121908095D01*
X150190476Y-122622380D01*
X150428571Y-121622380D01*
X151238095Y-121955714D02*
X151238095Y-122622380D01*
X151000000Y-121574761D02*
X150761904Y-122289047D01*
X151380952Y-122289047D01*
G04 #@! TO.C,U1*
X100702380Y-122511904D02*
X101511904Y-122511904D01*
X101607142Y-122464285D01*
X101654761Y-122416666D01*
X101702380Y-122321428D01*
X101702380Y-122130952D01*
X101654761Y-122035714D01*
X101607142Y-121988095D01*
X101511904Y-121940476D01*
X100702380Y-121940476D01*
X101702380Y-120940476D02*
X101702380Y-121511904D01*
X101702380Y-121226190D02*
X100702380Y-121226190D01*
X100845238Y-121321428D01*
X100940476Y-121416666D01*
X100988095Y-121511904D01*
G04 #@! TO.C,SW3*
X110916666Y-98404761D02*
X111059523Y-98452380D01*
X111297619Y-98452380D01*
X111392857Y-98404761D01*
X111440476Y-98357142D01*
X111488095Y-98261904D01*
X111488095Y-98166666D01*
X111440476Y-98071428D01*
X111392857Y-98023809D01*
X111297619Y-97976190D01*
X111107142Y-97928571D01*
X111011904Y-97880952D01*
X110964285Y-97833333D01*
X110916666Y-97738095D01*
X110916666Y-97642857D01*
X110964285Y-97547619D01*
X111011904Y-97500000D01*
X111107142Y-97452380D01*
X111345238Y-97452380D01*
X111488095Y-97500000D01*
X111821428Y-97452380D02*
X112059523Y-98452380D01*
X112250000Y-97738095D01*
X112440476Y-98452380D01*
X112678571Y-97452380D01*
X112964285Y-97452380D02*
X113583333Y-97452380D01*
X113250000Y-97833333D01*
X113392857Y-97833333D01*
X113488095Y-97880952D01*
X113535714Y-97928571D01*
X113583333Y-98023809D01*
X113583333Y-98261904D01*
X113535714Y-98357142D01*
X113488095Y-98404761D01*
X113392857Y-98452380D01*
X113107142Y-98452380D01*
X113011904Y-98404761D01*
X112964285Y-98357142D01*
G04 #@! TO.C,C16*
X104677142Y-94642857D02*
X104724761Y-94690476D01*
X104772380Y-94833333D01*
X104772380Y-94928571D01*
X104724761Y-95071428D01*
X104629523Y-95166666D01*
X104534285Y-95214285D01*
X104343809Y-95261904D01*
X104200952Y-95261904D01*
X104010476Y-95214285D01*
X103915238Y-95166666D01*
X103820000Y-95071428D01*
X103772380Y-94928571D01*
X103772380Y-94833333D01*
X103820000Y-94690476D01*
X103867619Y-94642857D01*
X104772380Y-93690476D02*
X104772380Y-94261904D01*
X104772380Y-93976190D02*
X103772380Y-93976190D01*
X103915238Y-94071428D01*
X104010476Y-94166666D01*
X104058095Y-94261904D01*
X103772380Y-92833333D02*
X103772380Y-93023809D01*
X103820000Y-93119047D01*
X103867619Y-93166666D01*
X104010476Y-93261904D01*
X104200952Y-93309523D01*
X104581904Y-93309523D01*
X104677142Y-93261904D01*
X104724761Y-93214285D01*
X104772380Y-93119047D01*
X104772380Y-92928571D01*
X104724761Y-92833333D01*
X104677142Y-92785714D01*
X104581904Y-92738095D01*
X104343809Y-92738095D01*
X104248571Y-92785714D01*
X104200952Y-92833333D01*
X104153333Y-92928571D01*
X104153333Y-93119047D01*
X104200952Y-93214285D01*
X104248571Y-93261904D01*
X104343809Y-93309523D01*
G04 #@! TO.C,D3*
X149461904Y-107152380D02*
X149461904Y-106152380D01*
X149700000Y-106152380D01*
X149842857Y-106200000D01*
X149938095Y-106295238D01*
X149985714Y-106390476D01*
X150033333Y-106580952D01*
X150033333Y-106723809D01*
X149985714Y-106914285D01*
X149938095Y-107009523D01*
X149842857Y-107104761D01*
X149700000Y-107152380D01*
X149461904Y-107152380D01*
X150366666Y-106152380D02*
X150985714Y-106152380D01*
X150652380Y-106533333D01*
X150795238Y-106533333D01*
X150890476Y-106580952D01*
X150938095Y-106628571D01*
X150985714Y-106723809D01*
X150985714Y-106961904D01*
X150938095Y-107057142D01*
X150890476Y-107104761D01*
X150795238Y-107152380D01*
X150509523Y-107152380D01*
X150414285Y-107104761D01*
X150366666Y-107057142D01*
G04 #@! TO.C,C2*
X145333333Y-98357142D02*
X145285714Y-98404761D01*
X145142857Y-98452380D01*
X145047619Y-98452380D01*
X144904761Y-98404761D01*
X144809523Y-98309523D01*
X144761904Y-98214285D01*
X144714285Y-98023809D01*
X144714285Y-97880952D01*
X144761904Y-97690476D01*
X144809523Y-97595238D01*
X144904761Y-97500000D01*
X145047619Y-97452380D01*
X145142857Y-97452380D01*
X145285714Y-97500000D01*
X145333333Y-97547619D01*
X145714285Y-97547619D02*
X145761904Y-97500000D01*
X145857142Y-97452380D01*
X146095238Y-97452380D01*
X146190476Y-97500000D01*
X146238095Y-97547619D01*
X146285714Y-97642857D01*
X146285714Y-97738095D01*
X146238095Y-97880952D01*
X145666666Y-98452380D01*
X146285714Y-98452380D01*
G04 #@! TO.C,C3*
X145333333Y-101257142D02*
X145285714Y-101304761D01*
X145142857Y-101352380D01*
X145047619Y-101352380D01*
X144904761Y-101304761D01*
X144809523Y-101209523D01*
X144761904Y-101114285D01*
X144714285Y-100923809D01*
X144714285Y-100780952D01*
X144761904Y-100590476D01*
X144809523Y-100495238D01*
X144904761Y-100400000D01*
X145047619Y-100352380D01*
X145142857Y-100352380D01*
X145285714Y-100400000D01*
X145333333Y-100447619D01*
X145666666Y-100352380D02*
X146285714Y-100352380D01*
X145952380Y-100733333D01*
X146095238Y-100733333D01*
X146190476Y-100780952D01*
X146238095Y-100828571D01*
X146285714Y-100923809D01*
X146285714Y-101161904D01*
X146238095Y-101257142D01*
X146190476Y-101304761D01*
X146095238Y-101352380D01*
X145809523Y-101352380D01*
X145714285Y-101304761D01*
X145666666Y-101257142D01*
G04 #@! TO.C,Q2*
X124992261Y-129047619D02*
X124897023Y-129000000D01*
X124801785Y-128904761D01*
X124658928Y-128761904D01*
X124563690Y-128714285D01*
X124468452Y-128714285D01*
X124516071Y-128952380D02*
X124420833Y-128904761D01*
X124325595Y-128809523D01*
X124277976Y-128619047D01*
X124277976Y-128285714D01*
X124325595Y-128095238D01*
X124420833Y-128000000D01*
X124516071Y-127952380D01*
X124706547Y-127952380D01*
X124801785Y-128000000D01*
X124897023Y-128095238D01*
X124944642Y-128285714D01*
X124944642Y-128619047D01*
X124897023Y-128809523D01*
X124801785Y-128904761D01*
X124706547Y-128952380D01*
X124516071Y-128952380D01*
X125325595Y-128047619D02*
X125373214Y-128000000D01*
X125468452Y-127952380D01*
X125706547Y-127952380D01*
X125801785Y-128000000D01*
X125849404Y-128047619D01*
X125897023Y-128142857D01*
X125897023Y-128238095D01*
X125849404Y-128380952D01*
X125277976Y-128952380D01*
X125897023Y-128952380D01*
G04 #@! TO.C,C14*
X124557142Y-151742857D02*
X124604761Y-151790476D01*
X124652380Y-151933333D01*
X124652380Y-152028571D01*
X124604761Y-152171428D01*
X124509523Y-152266666D01*
X124414285Y-152314285D01*
X124223809Y-152361904D01*
X124080952Y-152361904D01*
X123890476Y-152314285D01*
X123795238Y-152266666D01*
X123700000Y-152171428D01*
X123652380Y-152028571D01*
X123652380Y-151933333D01*
X123700000Y-151790476D01*
X123747619Y-151742857D01*
X124652380Y-150790476D02*
X124652380Y-151361904D01*
X124652380Y-151076190D02*
X123652380Y-151076190D01*
X123795238Y-151171428D01*
X123890476Y-151266666D01*
X123938095Y-151361904D01*
X123985714Y-149933333D02*
X124652380Y-149933333D01*
X123604761Y-150171428D02*
X124319047Y-150409523D01*
X124319047Y-149790476D01*
G04 #@! TO.C,R10*
X119952380Y-159480357D02*
X119476190Y-159813690D01*
X119952380Y-160051785D02*
X118952380Y-160051785D01*
X118952380Y-159670833D01*
X119000000Y-159575595D01*
X119047619Y-159527976D01*
X119142857Y-159480357D01*
X119285714Y-159480357D01*
X119380952Y-159527976D01*
X119428571Y-159575595D01*
X119476190Y-159670833D01*
X119476190Y-160051785D01*
X119952380Y-158527976D02*
X119952380Y-159099404D01*
X119952380Y-158813690D02*
X118952380Y-158813690D01*
X119095238Y-158908928D01*
X119190476Y-159004166D01*
X119238095Y-159099404D01*
X118952380Y-157908928D02*
X118952380Y-157813690D01*
X119000000Y-157718452D01*
X119047619Y-157670833D01*
X119142857Y-157623214D01*
X119333333Y-157575595D01*
X119571428Y-157575595D01*
X119761904Y-157623214D01*
X119857142Y-157670833D01*
X119904761Y-157718452D01*
X119952380Y-157813690D01*
X119952380Y-157908928D01*
X119904761Y-158004166D01*
X119857142Y-158051785D01*
X119761904Y-158099404D01*
X119571428Y-158147023D01*
X119333333Y-158147023D01*
X119142857Y-158099404D01*
X119047619Y-158051785D01*
X119000000Y-158004166D01*
X118952380Y-157908928D01*
G04 #@! TO.C,C10*
X120457142Y-147457142D02*
X120409523Y-147504761D01*
X120266666Y-147552380D01*
X120171428Y-147552380D01*
X120028571Y-147504761D01*
X119933333Y-147409523D01*
X119885714Y-147314285D01*
X119838095Y-147123809D01*
X119838095Y-146980952D01*
X119885714Y-146790476D01*
X119933333Y-146695238D01*
X120028571Y-146600000D01*
X120171428Y-146552380D01*
X120266666Y-146552380D01*
X120409523Y-146600000D01*
X120457142Y-146647619D01*
X121409523Y-147552380D02*
X120838095Y-147552380D01*
X121123809Y-147552380D02*
X121123809Y-146552380D01*
X121028571Y-146695238D01*
X120933333Y-146790476D01*
X120838095Y-146838095D01*
X122028571Y-146552380D02*
X122123809Y-146552380D01*
X122219047Y-146600000D01*
X122266666Y-146647619D01*
X122314285Y-146742857D01*
X122361904Y-146933333D01*
X122361904Y-147171428D01*
X122314285Y-147361904D01*
X122266666Y-147457142D01*
X122219047Y-147504761D01*
X122123809Y-147552380D01*
X122028571Y-147552380D01*
X121933333Y-147504761D01*
X121885714Y-147457142D01*
X121838095Y-147361904D01*
X121790476Y-147171428D01*
X121790476Y-146933333D01*
X121838095Y-146742857D01*
X121885714Y-146647619D01*
X121933333Y-146600000D01*
X122028571Y-146552380D01*
G04 #@! TO.C,J1*
X113666666Y-162902380D02*
X113666666Y-163616666D01*
X113619047Y-163759523D01*
X113523809Y-163854761D01*
X113380952Y-163902380D01*
X113285714Y-163902380D01*
X114666666Y-163902380D02*
X114095238Y-163902380D01*
X114380952Y-163902380D02*
X114380952Y-162902380D01*
X114285714Y-163045238D01*
X114190476Y-163140476D01*
X114095238Y-163188095D01*
G04 #@! TO.C,R2*
X132233333Y-104222380D02*
X131900000Y-103746190D01*
X131661904Y-104222380D02*
X131661904Y-103222380D01*
X132042857Y-103222380D01*
X132138095Y-103270000D01*
X132185714Y-103317619D01*
X132233333Y-103412857D01*
X132233333Y-103555714D01*
X132185714Y-103650952D01*
X132138095Y-103698571D01*
X132042857Y-103746190D01*
X131661904Y-103746190D01*
X132614285Y-103317619D02*
X132661904Y-103270000D01*
X132757142Y-103222380D01*
X132995238Y-103222380D01*
X133090476Y-103270000D01*
X133138095Y-103317619D01*
X133185714Y-103412857D01*
X133185714Y-103508095D01*
X133138095Y-103650952D01*
X132566666Y-104222380D01*
X133185714Y-104222380D01*
G04 #@! TO.C,R5*
X132083333Y-110152380D02*
X131750000Y-109676190D01*
X131511904Y-110152380D02*
X131511904Y-109152380D01*
X131892857Y-109152380D01*
X131988095Y-109200000D01*
X132035714Y-109247619D01*
X132083333Y-109342857D01*
X132083333Y-109485714D01*
X132035714Y-109580952D01*
X131988095Y-109628571D01*
X131892857Y-109676190D01*
X131511904Y-109676190D01*
X132988095Y-109152380D02*
X132511904Y-109152380D01*
X132464285Y-109628571D01*
X132511904Y-109580952D01*
X132607142Y-109533333D01*
X132845238Y-109533333D01*
X132940476Y-109580952D01*
X132988095Y-109628571D01*
X133035714Y-109723809D01*
X133035714Y-109961904D01*
X132988095Y-110057142D01*
X132940476Y-110104761D01*
X132845238Y-110152380D01*
X132607142Y-110152380D01*
X132511904Y-110104761D01*
X132464285Y-110057142D01*
G04 #@! TO.C,SW1*
X149166666Y-94404761D02*
X149309523Y-94452380D01*
X149547619Y-94452380D01*
X149642857Y-94404761D01*
X149690476Y-94357142D01*
X149738095Y-94261904D01*
X149738095Y-94166666D01*
X149690476Y-94071428D01*
X149642857Y-94023809D01*
X149547619Y-93976190D01*
X149357142Y-93928571D01*
X149261904Y-93880952D01*
X149214285Y-93833333D01*
X149166666Y-93738095D01*
X149166666Y-93642857D01*
X149214285Y-93547619D01*
X149261904Y-93500000D01*
X149357142Y-93452380D01*
X149595238Y-93452380D01*
X149738095Y-93500000D01*
X150071428Y-93452380D02*
X150309523Y-94452380D01*
X150500000Y-93738095D01*
X150690476Y-94452380D01*
X150928571Y-93452380D01*
X151833333Y-94452380D02*
X151261904Y-94452380D01*
X151547619Y-94452380D02*
X151547619Y-93452380D01*
X151452380Y-93595238D01*
X151357142Y-93690476D01*
X151261904Y-93738095D01*
G04 #@! TO.C,C15*
X128557142Y-151842857D02*
X128604761Y-151890476D01*
X128652380Y-152033333D01*
X128652380Y-152128571D01*
X128604761Y-152271428D01*
X128509523Y-152366666D01*
X128414285Y-152414285D01*
X128223809Y-152461904D01*
X128080952Y-152461904D01*
X127890476Y-152414285D01*
X127795238Y-152366666D01*
X127700000Y-152271428D01*
X127652380Y-152128571D01*
X127652380Y-152033333D01*
X127700000Y-151890476D01*
X127747619Y-151842857D01*
X128652380Y-150890476D02*
X128652380Y-151461904D01*
X128652380Y-151176190D02*
X127652380Y-151176190D01*
X127795238Y-151271428D01*
X127890476Y-151366666D01*
X127938095Y-151461904D01*
X127652380Y-149985714D02*
X127652380Y-150461904D01*
X128128571Y-150509523D01*
X128080952Y-150461904D01*
X128033333Y-150366666D01*
X128033333Y-150128571D01*
X128080952Y-150033333D01*
X128128571Y-149985714D01*
X128223809Y-149938095D01*
X128461904Y-149938095D01*
X128557142Y-149985714D01*
X128604761Y-150033333D01*
X128652380Y-150128571D01*
X128652380Y-150366666D01*
X128604761Y-150461904D01*
X128557142Y-150509523D01*
G04 #@! TO.C,C1*
X109583333Y-159927142D02*
X109535714Y-159974761D01*
X109392857Y-160022380D01*
X109297619Y-160022380D01*
X109154761Y-159974761D01*
X109059523Y-159879523D01*
X109011904Y-159784285D01*
X108964285Y-159593809D01*
X108964285Y-159450952D01*
X109011904Y-159260476D01*
X109059523Y-159165238D01*
X109154761Y-159070000D01*
X109297619Y-159022380D01*
X109392857Y-159022380D01*
X109535714Y-159070000D01*
X109583333Y-159117619D01*
X110535714Y-160022380D02*
X109964285Y-160022380D01*
X110250000Y-160022380D02*
X110250000Y-159022380D01*
X110154761Y-159165238D01*
X110059523Y-159260476D01*
X109964285Y-159308095D01*
G04 #@! TO.C,U6*
X129238095Y-170902380D02*
X129238095Y-171711904D01*
X129285714Y-171807142D01*
X129333333Y-171854761D01*
X129428571Y-171902380D01*
X129619047Y-171902380D01*
X129714285Y-171854761D01*
X129761904Y-171807142D01*
X129809523Y-171711904D01*
X129809523Y-170902380D01*
X130714285Y-170902380D02*
X130523809Y-170902380D01*
X130428571Y-170950000D01*
X130380952Y-170997619D01*
X130285714Y-171140476D01*
X130238095Y-171330952D01*
X130238095Y-171711904D01*
X130285714Y-171807142D01*
X130333333Y-171854761D01*
X130428571Y-171902380D01*
X130619047Y-171902380D01*
X130714285Y-171854761D01*
X130761904Y-171807142D01*
X130809523Y-171711904D01*
X130809523Y-171473809D01*
X130761904Y-171378571D01*
X130714285Y-171330952D01*
X130619047Y-171283333D01*
X130428571Y-171283333D01*
X130333333Y-171330952D01*
X130285714Y-171378571D01*
X130238095Y-171473809D01*
G04 #@! TO.C,R6*
X136272380Y-165666666D02*
X135796190Y-166000000D01*
X136272380Y-166238095D02*
X135272380Y-166238095D01*
X135272380Y-165857142D01*
X135320000Y-165761904D01*
X135367619Y-165714285D01*
X135462857Y-165666666D01*
X135605714Y-165666666D01*
X135700952Y-165714285D01*
X135748571Y-165761904D01*
X135796190Y-165857142D01*
X135796190Y-166238095D01*
X135272380Y-164809523D02*
X135272380Y-165000000D01*
X135320000Y-165095238D01*
X135367619Y-165142857D01*
X135510476Y-165238095D01*
X135700952Y-165285714D01*
X136081904Y-165285714D01*
X136177142Y-165238095D01*
X136224761Y-165190476D01*
X136272380Y-165095238D01*
X136272380Y-164904761D01*
X136224761Y-164809523D01*
X136177142Y-164761904D01*
X136081904Y-164714285D01*
X135843809Y-164714285D01*
X135748571Y-164761904D01*
X135700952Y-164809523D01*
X135653333Y-164904761D01*
X135653333Y-165095238D01*
X135700952Y-165190476D01*
X135748571Y-165238095D01*
X135843809Y-165285714D01*
G04 #@! TO.C,D2*
X131902380Y-164638095D02*
X130902380Y-164638095D01*
X130902380Y-164400000D01*
X130950000Y-164257142D01*
X131045238Y-164161904D01*
X131140476Y-164114285D01*
X131330952Y-164066666D01*
X131473809Y-164066666D01*
X131664285Y-164114285D01*
X131759523Y-164161904D01*
X131854761Y-164257142D01*
X131902380Y-164400000D01*
X131902380Y-164638095D01*
X130997619Y-163685714D02*
X130950000Y-163638095D01*
X130902380Y-163542857D01*
X130902380Y-163304761D01*
X130950000Y-163209523D01*
X130997619Y-163161904D01*
X131092857Y-163114285D01*
X131188095Y-163114285D01*
X131330952Y-163161904D01*
X131902380Y-163733333D01*
X131902380Y-163114285D01*
G04 #@! TO.C,U5*
X100952380Y-134261904D02*
X101761904Y-134261904D01*
X101857142Y-134214285D01*
X101904761Y-134166666D01*
X101952380Y-134071428D01*
X101952380Y-133880952D01*
X101904761Y-133785714D01*
X101857142Y-133738095D01*
X101761904Y-133690476D01*
X100952380Y-133690476D01*
X100952380Y-132738095D02*
X100952380Y-133214285D01*
X101428571Y-133261904D01*
X101380952Y-133214285D01*
X101333333Y-133119047D01*
X101333333Y-132880952D01*
X101380952Y-132785714D01*
X101428571Y-132738095D01*
X101523809Y-132690476D01*
X101761904Y-132690476D01*
X101857142Y-132738095D01*
X101904761Y-132785714D01*
X101952380Y-132880952D01*
X101952380Y-133119047D01*
X101904761Y-133214285D01*
X101857142Y-133261904D01*
G04 #@! TO.C,U3*
X151452380Y-160011904D02*
X152261904Y-160011904D01*
X152357142Y-159964285D01*
X152404761Y-159916666D01*
X152452380Y-159821428D01*
X152452380Y-159630952D01*
X152404761Y-159535714D01*
X152357142Y-159488095D01*
X152261904Y-159440476D01*
X151452380Y-159440476D01*
X151452380Y-159059523D02*
X151452380Y-158440476D01*
X151833333Y-158773809D01*
X151833333Y-158630952D01*
X151880952Y-158535714D01*
X151928571Y-158488095D01*
X152023809Y-158440476D01*
X152261904Y-158440476D01*
X152357142Y-158488095D01*
X152404761Y-158535714D01*
X152452380Y-158630952D01*
X152452380Y-158916666D01*
X152404761Y-159011904D01*
X152357142Y-159059523D01*
G04 #@! TO.C,U4*
X115202380Y-142511904D02*
X116011904Y-142511904D01*
X116107142Y-142464285D01*
X116154761Y-142416666D01*
X116202380Y-142321428D01*
X116202380Y-142130952D01*
X116154761Y-142035714D01*
X116107142Y-141988095D01*
X116011904Y-141940476D01*
X115202380Y-141940476D01*
X115535714Y-141035714D02*
X116202380Y-141035714D01*
X115154761Y-141273809D02*
X115869047Y-141511904D01*
X115869047Y-140892857D01*
G04 #@! TO.C,C11*
X128357142Y-158742857D02*
X128404761Y-158790476D01*
X128452380Y-158933333D01*
X128452380Y-159028571D01*
X128404761Y-159171428D01*
X128309523Y-159266666D01*
X128214285Y-159314285D01*
X128023809Y-159361904D01*
X127880952Y-159361904D01*
X127690476Y-159314285D01*
X127595238Y-159266666D01*
X127500000Y-159171428D01*
X127452380Y-159028571D01*
X127452380Y-158933333D01*
X127500000Y-158790476D01*
X127547619Y-158742857D01*
X128452380Y-157790476D02*
X128452380Y-158361904D01*
X128452380Y-158076190D02*
X127452380Y-158076190D01*
X127595238Y-158171428D01*
X127690476Y-158266666D01*
X127738095Y-158361904D01*
X128452380Y-156838095D02*
X128452380Y-157409523D01*
X128452380Y-157123809D02*
X127452380Y-157123809D01*
X127595238Y-157219047D01*
X127690476Y-157314285D01*
X127738095Y-157409523D01*
G04 #@! TO.C,R1*
X145333333Y-104252380D02*
X145000000Y-103776190D01*
X144761904Y-104252380D02*
X144761904Y-103252380D01*
X145142857Y-103252380D01*
X145238095Y-103300000D01*
X145285714Y-103347619D01*
X145333333Y-103442857D01*
X145333333Y-103585714D01*
X145285714Y-103680952D01*
X145238095Y-103728571D01*
X145142857Y-103776190D01*
X144761904Y-103776190D01*
X146285714Y-104252380D02*
X145714285Y-104252380D01*
X146000000Y-104252380D02*
X146000000Y-103252380D01*
X145904761Y-103395238D01*
X145809523Y-103490476D01*
X145714285Y-103538095D01*
G04 #@! TO.C,R12*
X144857142Y-107152380D02*
X144523809Y-106676190D01*
X144285714Y-107152380D02*
X144285714Y-106152380D01*
X144666666Y-106152380D01*
X144761904Y-106200000D01*
X144809523Y-106247619D01*
X144857142Y-106342857D01*
X144857142Y-106485714D01*
X144809523Y-106580952D01*
X144761904Y-106628571D01*
X144666666Y-106676190D01*
X144285714Y-106676190D01*
X145809523Y-107152380D02*
X145238095Y-107152380D01*
X145523809Y-107152380D02*
X145523809Y-106152380D01*
X145428571Y-106295238D01*
X145333333Y-106390476D01*
X145238095Y-106438095D01*
X146190476Y-106247619D02*
X146238095Y-106200000D01*
X146333333Y-106152380D01*
X146571428Y-106152380D01*
X146666666Y-106200000D01*
X146714285Y-106247619D01*
X146761904Y-106342857D01*
X146761904Y-106438095D01*
X146714285Y-106580952D01*
X146142857Y-107152380D01*
X146761904Y-107152380D01*
G04 #@! TO.C,C5*
X144857142Y-115416666D02*
X144904761Y-115464285D01*
X144952380Y-115607142D01*
X144952380Y-115702380D01*
X144904761Y-115845238D01*
X144809523Y-115940476D01*
X144714285Y-115988095D01*
X144523809Y-116035714D01*
X144380952Y-116035714D01*
X144190476Y-115988095D01*
X144095238Y-115940476D01*
X144000000Y-115845238D01*
X143952380Y-115702380D01*
X143952380Y-115607142D01*
X144000000Y-115464285D01*
X144047619Y-115416666D01*
X143952380Y-114511904D02*
X143952380Y-114988095D01*
X144428571Y-115035714D01*
X144380952Y-114988095D01*
X144333333Y-114892857D01*
X144333333Y-114654761D01*
X144380952Y-114559523D01*
X144428571Y-114511904D01*
X144523809Y-114464285D01*
X144761904Y-114464285D01*
X144857142Y-114511904D01*
X144904761Y-114559523D01*
X144952380Y-114654761D01*
X144952380Y-114892857D01*
X144904761Y-114988095D01*
X144857142Y-115035714D01*
G04 #@! TO.C,J3*
X130666666Y-173631880D02*
X130666666Y-174346166D01*
X130619047Y-174489023D01*
X130523809Y-174584261D01*
X130380952Y-174631880D01*
X130285714Y-174631880D01*
X131047619Y-173631880D02*
X131666666Y-173631880D01*
X131333333Y-174012833D01*
X131476190Y-174012833D01*
X131571428Y-174060452D01*
X131619047Y-174108071D01*
X131666666Y-174203309D01*
X131666666Y-174441404D01*
X131619047Y-174536642D01*
X131571428Y-174584261D01*
X131476190Y-174631880D01*
X131190476Y-174631880D01*
X131095238Y-174584261D01*
X131047619Y-174536642D01*
G04 #@! TO.C,R4*
X128702380Y-92166666D02*
X128226190Y-92500000D01*
X128702380Y-92738095D02*
X127702380Y-92738095D01*
X127702380Y-92357142D01*
X127750000Y-92261904D01*
X127797619Y-92214285D01*
X127892857Y-92166666D01*
X128035714Y-92166666D01*
X128130952Y-92214285D01*
X128178571Y-92261904D01*
X128226190Y-92357142D01*
X128226190Y-92738095D01*
X128035714Y-91309523D02*
X128702380Y-91309523D01*
X127654761Y-91547619D02*
X128369047Y-91785714D01*
X128369047Y-91166666D01*
G04 #@! TO.C,C13*
X111157142Y-134142857D02*
X111204761Y-134190476D01*
X111252380Y-134333333D01*
X111252380Y-134428571D01*
X111204761Y-134571428D01*
X111109523Y-134666666D01*
X111014285Y-134714285D01*
X110823809Y-134761904D01*
X110680952Y-134761904D01*
X110490476Y-134714285D01*
X110395238Y-134666666D01*
X110300000Y-134571428D01*
X110252380Y-134428571D01*
X110252380Y-134333333D01*
X110300000Y-134190476D01*
X110347619Y-134142857D01*
X111252380Y-133190476D02*
X111252380Y-133761904D01*
X111252380Y-133476190D02*
X110252380Y-133476190D01*
X110395238Y-133571428D01*
X110490476Y-133666666D01*
X110538095Y-133761904D01*
X110252380Y-132857142D02*
X110252380Y-132238095D01*
X110633333Y-132571428D01*
X110633333Y-132428571D01*
X110680952Y-132333333D01*
X110728571Y-132285714D01*
X110823809Y-132238095D01*
X111061904Y-132238095D01*
X111157142Y-132285714D01*
X111204761Y-132333333D01*
X111252380Y-132428571D01*
X111252380Y-132714285D01*
X111204761Y-132809523D01*
X111157142Y-132857142D01*
G04 #@! TO.C,R8*
X116252380Y-133666666D02*
X115776190Y-134000000D01*
X116252380Y-134238095D02*
X115252380Y-134238095D01*
X115252380Y-133857142D01*
X115300000Y-133761904D01*
X115347619Y-133714285D01*
X115442857Y-133666666D01*
X115585714Y-133666666D01*
X115680952Y-133714285D01*
X115728571Y-133761904D01*
X115776190Y-133857142D01*
X115776190Y-134238095D01*
X115680952Y-133095238D02*
X115633333Y-133190476D01*
X115585714Y-133238095D01*
X115490476Y-133285714D01*
X115442857Y-133285714D01*
X115347619Y-133238095D01*
X115300000Y-133190476D01*
X115252380Y-133095238D01*
X115252380Y-132904761D01*
X115300000Y-132809523D01*
X115347619Y-132761904D01*
X115442857Y-132714285D01*
X115490476Y-132714285D01*
X115585714Y-132761904D01*
X115633333Y-132809523D01*
X115680952Y-132904761D01*
X115680952Y-133095238D01*
X115728571Y-133190476D01*
X115776190Y-133238095D01*
X115871428Y-133285714D01*
X116061904Y-133285714D01*
X116157142Y-133238095D01*
X116204761Y-133190476D01*
X116252380Y-133095238D01*
X116252380Y-132904761D01*
X116204761Y-132809523D01*
X116157142Y-132761904D01*
X116061904Y-132714285D01*
X115871428Y-132714285D01*
X115776190Y-132761904D01*
X115728571Y-132809523D01*
X115680952Y-132904761D01*
G04 #@! TO.C,R11*
X112857142Y-145652380D02*
X112523809Y-145176190D01*
X112285714Y-145652380D02*
X112285714Y-144652380D01*
X112666666Y-144652380D01*
X112761904Y-144700000D01*
X112809523Y-144747619D01*
X112857142Y-144842857D01*
X112857142Y-144985714D01*
X112809523Y-145080952D01*
X112761904Y-145128571D01*
X112666666Y-145176190D01*
X112285714Y-145176190D01*
X113809523Y-145652380D02*
X113238095Y-145652380D01*
X113523809Y-145652380D02*
X113523809Y-144652380D01*
X113428571Y-144795238D01*
X113333333Y-144890476D01*
X113238095Y-144938095D01*
X114761904Y-145652380D02*
X114190476Y-145652380D01*
X114476190Y-145652380D02*
X114476190Y-144652380D01*
X114380952Y-144795238D01*
X114285714Y-144890476D01*
X114190476Y-144938095D01*
G04 #@! TO.C,Q3*
X109547619Y-141345238D02*
X109500000Y-141440476D01*
X109404761Y-141535714D01*
X109261904Y-141678571D01*
X109214285Y-141773809D01*
X109214285Y-141869047D01*
X109452380Y-141821428D02*
X109404761Y-141916666D01*
X109309523Y-142011904D01*
X109119047Y-142059523D01*
X108785714Y-142059523D01*
X108595238Y-142011904D01*
X108500000Y-141916666D01*
X108452380Y-141821428D01*
X108452380Y-141630952D01*
X108500000Y-141535714D01*
X108595238Y-141440476D01*
X108785714Y-141392857D01*
X109119047Y-141392857D01*
X109309523Y-141440476D01*
X109404761Y-141535714D01*
X109452380Y-141630952D01*
X109452380Y-141821428D01*
X108452380Y-141059523D02*
X108452380Y-140440476D01*
X108833333Y-140773809D01*
X108833333Y-140630952D01*
X108880952Y-140535714D01*
X108928571Y-140488095D01*
X109023809Y-140440476D01*
X109261904Y-140440476D01*
X109357142Y-140488095D01*
X109404761Y-140535714D01*
X109452380Y-140630952D01*
X109452380Y-140916666D01*
X109404761Y-141011904D01*
X109357142Y-141059523D01*
G04 #@! TO.C,U2*
X108988095Y-151802380D02*
X108988095Y-152611904D01*
X109035714Y-152707142D01*
X109083333Y-152754761D01*
X109178571Y-152802380D01*
X109369047Y-152802380D01*
X109464285Y-152754761D01*
X109511904Y-152707142D01*
X109559523Y-152611904D01*
X109559523Y-151802380D01*
X109988095Y-151897619D02*
X110035714Y-151850000D01*
X110130952Y-151802380D01*
X110369047Y-151802380D01*
X110464285Y-151850000D01*
X110511904Y-151897619D01*
X110559523Y-151992857D01*
X110559523Y-152088095D01*
X110511904Y-152230952D01*
X109940476Y-152802380D01*
X110559523Y-152802380D01*
G04 #@! TO.C,Q1*
X135654761Y-90797619D02*
X135559523Y-90750000D01*
X135464285Y-90654761D01*
X135321428Y-90511904D01*
X135226190Y-90464285D01*
X135130952Y-90464285D01*
X135178571Y-90702380D02*
X135083333Y-90654761D01*
X134988095Y-90559523D01*
X134940476Y-90369047D01*
X134940476Y-90035714D01*
X134988095Y-89845238D01*
X135083333Y-89750000D01*
X135178571Y-89702380D01*
X135369047Y-89702380D01*
X135464285Y-89750000D01*
X135559523Y-89845238D01*
X135607142Y-90035714D01*
X135607142Y-90369047D01*
X135559523Y-90559523D01*
X135464285Y-90654761D01*
X135369047Y-90702380D01*
X135178571Y-90702380D01*
X136559523Y-90702380D02*
X135988095Y-90702380D01*
X136273809Y-90702380D02*
X136273809Y-89702380D01*
X136178571Y-89845238D01*
X136083333Y-89940476D01*
X135988095Y-89988095D01*
G04 #@! TO.C,C8*
X120933333Y-149957142D02*
X120885714Y-150004761D01*
X120742857Y-150052380D01*
X120647619Y-150052380D01*
X120504761Y-150004761D01*
X120409523Y-149909523D01*
X120361904Y-149814285D01*
X120314285Y-149623809D01*
X120314285Y-149480952D01*
X120361904Y-149290476D01*
X120409523Y-149195238D01*
X120504761Y-149100000D01*
X120647619Y-149052380D01*
X120742857Y-149052380D01*
X120885714Y-149100000D01*
X120933333Y-149147619D01*
X121504761Y-149480952D02*
X121409523Y-149433333D01*
X121361904Y-149385714D01*
X121314285Y-149290476D01*
X121314285Y-149242857D01*
X121361904Y-149147619D01*
X121409523Y-149100000D01*
X121504761Y-149052380D01*
X121695238Y-149052380D01*
X121790476Y-149100000D01*
X121838095Y-149147619D01*
X121885714Y-149242857D01*
X121885714Y-149290476D01*
X121838095Y-149385714D01*
X121790476Y-149433333D01*
X121695238Y-149480952D01*
X121504761Y-149480952D01*
X121409523Y-149528571D01*
X121361904Y-149576190D01*
X121314285Y-149671428D01*
X121314285Y-149861904D01*
X121361904Y-149957142D01*
X121409523Y-150004761D01*
X121504761Y-150052380D01*
X121695238Y-150052380D01*
X121790476Y-150004761D01*
X121838095Y-149957142D01*
X121885714Y-149861904D01*
X121885714Y-149671428D01*
X121838095Y-149576190D01*
X121790476Y-149528571D01*
X121695238Y-149480952D01*
G04 #@! TO.C,R7*
X125333333Y-138752380D02*
X125000000Y-138276190D01*
X124761904Y-138752380D02*
X124761904Y-137752380D01*
X125142857Y-137752380D01*
X125238095Y-137800000D01*
X125285714Y-137847619D01*
X125333333Y-137942857D01*
X125333333Y-138085714D01*
X125285714Y-138180952D01*
X125238095Y-138228571D01*
X125142857Y-138276190D01*
X124761904Y-138276190D01*
X125666666Y-137752380D02*
X126333333Y-137752380D01*
X125904761Y-138752380D01*
G04 #@! TO.C,R3*
X106083333Y-152882380D02*
X105750000Y-152406190D01*
X105511904Y-152882380D02*
X105511904Y-151882380D01*
X105892857Y-151882380D01*
X105988095Y-151930000D01*
X106035714Y-151977619D01*
X106083333Y-152072857D01*
X106083333Y-152215714D01*
X106035714Y-152310952D01*
X105988095Y-152358571D01*
X105892857Y-152406190D01*
X105511904Y-152406190D01*
X106416666Y-151882380D02*
X107035714Y-151882380D01*
X106702380Y-152263333D01*
X106845238Y-152263333D01*
X106940476Y-152310952D01*
X106988095Y-152358571D01*
X107035714Y-152453809D01*
X107035714Y-152691904D01*
X106988095Y-152787142D01*
X106940476Y-152834761D01*
X106845238Y-152882380D01*
X106559523Y-152882380D01*
X106464285Y-152834761D01*
X106416666Y-152787142D01*
G04 #@! TO.C,R9*
X125133333Y-142952380D02*
X124800000Y-142476190D01*
X124561904Y-142952380D02*
X124561904Y-141952380D01*
X124942857Y-141952380D01*
X125038095Y-142000000D01*
X125085714Y-142047619D01*
X125133333Y-142142857D01*
X125133333Y-142285714D01*
X125085714Y-142380952D01*
X125038095Y-142428571D01*
X124942857Y-142476190D01*
X124561904Y-142476190D01*
X125609523Y-142952380D02*
X125800000Y-142952380D01*
X125895238Y-142904761D01*
X125942857Y-142857142D01*
X126038095Y-142714285D01*
X126085714Y-142523809D01*
X126085714Y-142142857D01*
X126038095Y-142047619D01*
X125990476Y-142000000D01*
X125895238Y-141952380D01*
X125704761Y-141952380D01*
X125609523Y-142000000D01*
X125561904Y-142047619D01*
X125514285Y-142142857D01*
X125514285Y-142380952D01*
X125561904Y-142476190D01*
X125609523Y-142523809D01*
X125704761Y-142571428D01*
X125895238Y-142571428D01*
X125990476Y-142523809D01*
X126038095Y-142476190D01*
X126085714Y-142380952D01*
G04 #@! TO.C,J2*
X145166666Y-160952380D02*
X145166666Y-161666666D01*
X145119047Y-161809523D01*
X145023809Y-161904761D01*
X144880952Y-161952380D01*
X144785714Y-161952380D01*
X145595238Y-161047619D02*
X145642857Y-161000000D01*
X145738095Y-160952380D01*
X145976190Y-160952380D01*
X146071428Y-161000000D01*
X146119047Y-161047619D01*
X146166666Y-161142857D01*
X146166666Y-161238095D01*
X146119047Y-161380952D01*
X145547619Y-161952380D01*
X146166666Y-161952380D01*
G04 #@! TO.C,D1*
X118952380Y-92838095D02*
X117952380Y-92838095D01*
X117952380Y-92600000D01*
X118000000Y-92457142D01*
X118095238Y-92361904D01*
X118190476Y-92314285D01*
X118380952Y-92266666D01*
X118523809Y-92266666D01*
X118714285Y-92314285D01*
X118809523Y-92361904D01*
X118904761Y-92457142D01*
X118952380Y-92600000D01*
X118952380Y-92838095D01*
X118952380Y-91314285D02*
X118952380Y-91885714D01*
X118952380Y-91600000D02*
X117952380Y-91600000D01*
X118095238Y-91695238D01*
X118190476Y-91790476D01*
X118238095Y-91885714D01*
G04 #@! TO.C,C4*
X126057142Y-92066666D02*
X126104761Y-92114285D01*
X126152380Y-92257142D01*
X126152380Y-92352380D01*
X126104761Y-92495238D01*
X126009523Y-92590476D01*
X125914285Y-92638095D01*
X125723809Y-92685714D01*
X125580952Y-92685714D01*
X125390476Y-92638095D01*
X125295238Y-92590476D01*
X125200000Y-92495238D01*
X125152380Y-92352380D01*
X125152380Y-92257142D01*
X125200000Y-92114285D01*
X125247619Y-92066666D01*
X125485714Y-91209523D02*
X126152380Y-91209523D01*
X125104761Y-91447619D02*
X125819047Y-91685714D01*
X125819047Y-91066666D01*
G04 #@! TO.C,C12*
X104357142Y-142787142D02*
X104309523Y-142834761D01*
X104166666Y-142882380D01*
X104071428Y-142882380D01*
X103928571Y-142834761D01*
X103833333Y-142739523D01*
X103785714Y-142644285D01*
X103738095Y-142453809D01*
X103738095Y-142310952D01*
X103785714Y-142120476D01*
X103833333Y-142025238D01*
X103928571Y-141930000D01*
X104071428Y-141882380D01*
X104166666Y-141882380D01*
X104309523Y-141930000D01*
X104357142Y-141977619D01*
X105309523Y-142882380D02*
X104738095Y-142882380D01*
X105023809Y-142882380D02*
X105023809Y-141882380D01*
X104928571Y-142025238D01*
X104833333Y-142120476D01*
X104738095Y-142168095D01*
X105690476Y-141977619D02*
X105738095Y-141930000D01*
X105833333Y-141882380D01*
X106071428Y-141882380D01*
X106166666Y-141930000D01*
X106214285Y-141977619D01*
X106261904Y-142072857D01*
X106261904Y-142168095D01*
X106214285Y-142310952D01*
X105642857Y-142882380D01*
X106261904Y-142882380D01*
G04 #@! TO.C,C9*
X117957142Y-156266666D02*
X118004761Y-156314285D01*
X118052380Y-156457142D01*
X118052380Y-156552380D01*
X118004761Y-156695238D01*
X117909523Y-156790476D01*
X117814285Y-156838095D01*
X117623809Y-156885714D01*
X117480952Y-156885714D01*
X117290476Y-156838095D01*
X117195238Y-156790476D01*
X117100000Y-156695238D01*
X117052380Y-156552380D01*
X117052380Y-156457142D01*
X117100000Y-156314285D01*
X117147619Y-156266666D01*
X118052380Y-155790476D02*
X118052380Y-155600000D01*
X118004761Y-155504761D01*
X117957142Y-155457142D01*
X117814285Y-155361904D01*
X117623809Y-155314285D01*
X117242857Y-155314285D01*
X117147619Y-155361904D01*
X117100000Y-155409523D01*
X117052380Y-155504761D01*
X117052380Y-155695238D01*
X117100000Y-155790476D01*
X117147619Y-155838095D01*
X117242857Y-155885714D01*
X117480952Y-155885714D01*
X117576190Y-155838095D01*
X117623809Y-155790476D01*
X117671428Y-155695238D01*
X117671428Y-155504761D01*
X117623809Y-155409523D01*
X117576190Y-155361904D01*
X117480952Y-155314285D01*
G04 #@! TO.C,C6*
X109457142Y-125112933D02*
X109504761Y-125160552D01*
X109552380Y-125303409D01*
X109552380Y-125398647D01*
X109504761Y-125541505D01*
X109409523Y-125636743D01*
X109314285Y-125684362D01*
X109123809Y-125731981D01*
X108980952Y-125731981D01*
X108790476Y-125684362D01*
X108695238Y-125636743D01*
X108600000Y-125541505D01*
X108552380Y-125398647D01*
X108552380Y-125303409D01*
X108600000Y-125160552D01*
X108647619Y-125112933D01*
X108552380Y-124255790D02*
X108552380Y-124446267D01*
X108600000Y-124541505D01*
X108647619Y-124589124D01*
X108790476Y-124684362D01*
X108980952Y-124731981D01*
X109361904Y-124731981D01*
X109457142Y-124684362D01*
X109504761Y-124636743D01*
X109552380Y-124541505D01*
X109552380Y-124351028D01*
X109504761Y-124255790D01*
X109457142Y-124208171D01*
X109361904Y-124160552D01*
X109123809Y-124160552D01*
X109028571Y-124208171D01*
X108980952Y-124255790D01*
X108933333Y-124351028D01*
X108933333Y-124541505D01*
X108980952Y-124636743D01*
X109028571Y-124684362D01*
X109123809Y-124731981D01*
G04 #@! TO.C,C7*
X106557142Y-124966666D02*
X106604761Y-125014285D01*
X106652380Y-125157142D01*
X106652380Y-125252380D01*
X106604761Y-125395238D01*
X106509523Y-125490476D01*
X106414285Y-125538095D01*
X106223809Y-125585714D01*
X106080952Y-125585714D01*
X105890476Y-125538095D01*
X105795238Y-125490476D01*
X105700000Y-125395238D01*
X105652380Y-125252380D01*
X105652380Y-125157142D01*
X105700000Y-125014285D01*
X105747619Y-124966666D01*
X105652380Y-124633333D02*
X105652380Y-123966666D01*
X106652380Y-124395238D01*
G04 #@! TO.C,SW2*
X148666666Y-112204761D02*
X148809523Y-112252380D01*
X149047619Y-112252380D01*
X149142857Y-112204761D01*
X149190476Y-112157142D01*
X149238095Y-112061904D01*
X149238095Y-111966666D01*
X149190476Y-111871428D01*
X149142857Y-111823809D01*
X149047619Y-111776190D01*
X148857142Y-111728571D01*
X148761904Y-111680952D01*
X148714285Y-111633333D01*
X148666666Y-111538095D01*
X148666666Y-111442857D01*
X148714285Y-111347619D01*
X148761904Y-111300000D01*
X148857142Y-111252380D01*
X149095238Y-111252380D01*
X149238095Y-111300000D01*
X149571428Y-111252380D02*
X149809523Y-112252380D01*
X150000000Y-111538095D01*
X150190476Y-112252380D01*
X150428571Y-111252380D01*
X150761904Y-111347619D02*
X150809523Y-111300000D01*
X150904761Y-111252380D01*
X151142857Y-111252380D01*
X151238095Y-111300000D01*
X151285714Y-111347619D01*
X151333333Y-111442857D01*
X151333333Y-111538095D01*
X151285714Y-111680952D01*
X150714285Y-112252380D01*
X151333333Y-112252380D01*
D14*
G04 #@! TO.C,SW4*
X148670000Y-124500000D02*
X148670000Y-123170000D01*
X148670000Y-128370000D02*
X151330000Y-128370000D01*
X148670000Y-125770000D02*
X148670000Y-128370000D01*
X148670000Y-125770000D02*
X151330000Y-125770000D01*
X148670000Y-123170000D02*
X150000000Y-123170000D01*
X151330000Y-125770000D02*
X151330000Y-128370000D01*
G04 #@! TO.C,U1*
X106090000Y-102000000D02*
X106090000Y-120000000D01*
X100150000Y-102000000D02*
X106900000Y-102000000D01*
X124900000Y-120000000D02*
X125650000Y-120000000D01*
X125650000Y-102000000D02*
X125650000Y-103000000D01*
X124900000Y-102000000D02*
X125650000Y-102000000D01*
X100150000Y-120000000D02*
X100150000Y-102000000D01*
X125650000Y-120000000D02*
X125650000Y-119000000D01*
X100150000Y-120000000D02*
X106900000Y-120000000D01*
G04 #@! TO.C,SW3*
X109020000Y-90770000D02*
X115480000Y-90770000D01*
X109020000Y-97230000D02*
X109020000Y-97200000D01*
X109020000Y-92700000D02*
X109020000Y-95300000D01*
X115480000Y-90770000D02*
X115480000Y-90800000D01*
X109020000Y-97230000D02*
X115480000Y-97230000D01*
X109020000Y-90800000D02*
X109020000Y-90770000D01*
X115480000Y-97230000D02*
X115480000Y-97200000D01*
X115480000Y-92700000D02*
X115480000Y-95300000D01*
G04 #@! TO.C,C16*
X105240000Y-94146267D02*
X105240000Y-93853733D01*
X106260000Y-94146267D02*
X106260000Y-93853733D01*
G04 #@! TO.C,D3*
X150371267Y-107490000D02*
X150078733Y-107490000D01*
X150371267Y-108510000D02*
X150078733Y-108510000D01*
G04 #@! TO.C,C2*
X145646267Y-98740000D02*
X145353733Y-98740000D01*
X145646267Y-99760000D02*
X145353733Y-99760000D01*
G04 #@! TO.C,C3*
X145353733Y-102676666D02*
X145646267Y-102676666D01*
X145353733Y-101656666D02*
X145646267Y-101656666D01*
G04 #@! TO.C,Q2*
X125000000Y-129440000D02*
X124350000Y-129440000D01*
X125000000Y-129440000D02*
X125650000Y-129440000D01*
X125000000Y-132560000D02*
X126675000Y-132560000D01*
X125000000Y-132560000D02*
X124350000Y-132560000D01*
G04 #@! TO.C,C14*
X126010000Y-150853733D02*
X126010000Y-151146267D01*
X124990000Y-150853733D02*
X124990000Y-151146267D01*
G04 #@! TO.C,R10*
X120477500Y-159254724D02*
X120477500Y-158745276D01*
X121522500Y-159254724D02*
X121522500Y-158745276D01*
G04 #@! TO.C,C10*
X120853733Y-146260000D02*
X121146267Y-146260000D01*
X120853733Y-145240000D02*
X121146267Y-145240000D01*
G04 #@! TO.C,J1*
X120660000Y-171110000D02*
X120660000Y-179220000D01*
X107340000Y-179220000D02*
X106690000Y-179220000D01*
X106690000Y-179740000D02*
X121310000Y-179740000D01*
X121310000Y-179740000D02*
X121310000Y-179220000D01*
X107340000Y-164260000D02*
X107340000Y-167590000D01*
X109600000Y-164040000D02*
X111400000Y-164040000D01*
X121310000Y-179220000D02*
X120660000Y-179220000D01*
X106690000Y-179220000D02*
X106690000Y-179740000D01*
X120660000Y-164260000D02*
X120660000Y-167590000D01*
X107340000Y-179220000D02*
X107340000Y-171110000D01*
X107340000Y-164260000D02*
X120660000Y-164260000D01*
G04 #@! TO.C,R2*
X132145276Y-104677500D02*
X132654724Y-104677500D01*
X132145276Y-105722500D02*
X132654724Y-105722500D01*
G04 #@! TO.C,R5*
X132504724Y-110477500D02*
X131995276Y-110477500D01*
X132504724Y-111522500D02*
X131995276Y-111522500D01*
G04 #@! TO.C,SW1*
X148730000Y-92700000D02*
X148730000Y-95300000D01*
X142270000Y-97230000D02*
X142270000Y-97200000D01*
X142270000Y-97230000D02*
X148730000Y-97230000D01*
X148730000Y-90770000D02*
X148730000Y-90800000D01*
X142270000Y-92700000D02*
X142270000Y-95300000D01*
X148730000Y-97230000D02*
X148730000Y-97200000D01*
X142270000Y-90770000D02*
X148730000Y-90770000D01*
X142270000Y-90800000D02*
X142270000Y-90770000D01*
G04 #@! TO.C,C15*
X128990000Y-151053733D02*
X128990000Y-151346267D01*
X130010000Y-151053733D02*
X130010000Y-151346267D01*
G04 #@! TO.C,C1*
X109603733Y-160490000D02*
X109896267Y-160490000D01*
X109603733Y-161510000D02*
X109896267Y-161510000D01*
G04 #@! TO.C,U6*
X130000000Y-170610000D02*
X132925000Y-170610000D01*
X130000000Y-170610000D02*
X128500000Y-170610000D01*
X130000000Y-167390000D02*
X128500000Y-167390000D01*
X130000000Y-167390000D02*
X131500000Y-167390000D01*
G04 #@! TO.C,R6*
X136727500Y-165754724D02*
X136727500Y-165245276D01*
X137772500Y-165754724D02*
X137772500Y-165245276D01*
G04 #@! TO.C,D2*
X130450000Y-162000000D02*
X130450000Y-165150000D01*
X130450000Y-162000000D02*
X128750000Y-162000000D01*
X128750000Y-162000000D02*
X128750000Y-165150000D01*
G04 #@! TO.C,U5*
X102590000Y-131590000D02*
X103850000Y-131590000D01*
X109410000Y-131590000D02*
X108150000Y-131590000D01*
X109410000Y-135350000D02*
X109410000Y-131590000D01*
X102590000Y-137600000D02*
X102590000Y-131590000D01*
D10*
G04 #@! TO.C,U3*
X152871500Y-158000000D02*
X132871500Y-158000000D01*
X152871500Y-137985000D02*
X132871500Y-137985000D01*
X132871500Y-158000000D02*
X132871500Y-137985000D01*
X147791500Y-158001999D02*
X147791500Y-137989000D01*
X147791500Y-137989000D02*
X152871500Y-137989000D01*
X152871500Y-137989000D02*
X152871500Y-158001999D01*
X152871500Y-158001999D02*
X147791500Y-158001999D01*
D14*
G04 #@! TO.C,U4*
X121172500Y-139640000D02*
X120697500Y-139640000D01*
X116952500Y-139640000D02*
X117427500Y-139640000D01*
X116952500Y-143385000D02*
X116952500Y-143860000D01*
X121172500Y-143385000D02*
X121172500Y-143860000D01*
X121172500Y-140115000D02*
X121172500Y-139640000D01*
X116952500Y-140115000D02*
X116952500Y-139640000D01*
X121172500Y-143860000D02*
X120697500Y-143860000D01*
G04 #@! TO.C,C11*
X130010000Y-158146267D02*
X130010000Y-157853733D01*
X128990000Y-158146267D02*
X128990000Y-157853733D01*
G04 #@! TO.C,R1*
X145754724Y-104560832D02*
X145245276Y-104560832D01*
X145754724Y-105605832D02*
X145245276Y-105605832D01*
G04 #@! TO.C,R12*
X145754724Y-108522500D02*
X145245276Y-108522500D01*
X145754724Y-107477500D02*
X145245276Y-107477500D01*
G04 #@! TO.C,C5*
X145490000Y-114853733D02*
X145490000Y-115146267D01*
X146510000Y-114853733D02*
X146510000Y-115146267D01*
G04 #@! TO.C,J3*
X129300000Y-174979500D02*
X129300000Y-175429500D01*
X129300000Y-174979500D02*
X129750000Y-174979500D01*
X134900000Y-177379500D02*
X134900000Y-175529500D01*
X134900000Y-175529500D02*
X134450000Y-175529500D01*
X127100000Y-175529500D02*
X127550000Y-175529500D01*
X127100000Y-177379500D02*
X127100000Y-175529500D01*
X127100000Y-179929500D02*
X127100000Y-179679500D01*
X134900000Y-179929500D02*
X134900000Y-179679500D01*
G04 #@! TO.C,R4*
X130022500Y-92254724D02*
X130022500Y-91745276D01*
X128977500Y-92254724D02*
X128977500Y-91745276D01*
G04 #@! TO.C,C13*
X111590000Y-133353733D02*
X111590000Y-133646267D01*
X112610000Y-133353733D02*
X112610000Y-133646267D01*
G04 #@! TO.C,R8*
X116577500Y-133754724D02*
X116577500Y-133245276D01*
X117622500Y-133754724D02*
X117622500Y-133245276D01*
G04 #@! TO.C,R11*
X113754724Y-145977500D02*
X113245276Y-145977500D01*
X113754724Y-147022500D02*
X113245276Y-147022500D01*
G04 #@! TO.C,Q3*
X113060000Y-141250000D02*
X113060000Y-140600000D01*
X109940000Y-141250000D02*
X109940000Y-140600000D01*
X113060000Y-141250000D02*
X113060000Y-141900000D01*
X109940000Y-141250000D02*
X109940000Y-142925000D01*
G04 #@! TO.C,U2*
X109750000Y-158310000D02*
X111700000Y-158310000D01*
X109750000Y-153190000D02*
X106300000Y-153190000D01*
X109750000Y-158310000D02*
X107800000Y-158310000D01*
X109750000Y-153190000D02*
X111700000Y-153190000D01*
G04 #@! TO.C,Q1*
X135750000Y-94310000D02*
X137425000Y-94310000D01*
X135750000Y-91190000D02*
X136400000Y-91190000D01*
X135750000Y-94310000D02*
X135100000Y-94310000D01*
X135750000Y-91190000D02*
X135100000Y-91190000D01*
G04 #@! TO.C,C8*
X120853733Y-147740000D02*
X121146267Y-147740000D01*
X120853733Y-148760000D02*
X121146267Y-148760000D01*
G04 #@! TO.C,R7*
X125554724Y-139077500D02*
X125045276Y-139077500D01*
X125554724Y-140122500D02*
X125045276Y-140122500D01*
G04 #@! TO.C,R3*
X106504724Y-151522500D02*
X105995276Y-151522500D01*
X106504724Y-150477500D02*
X105995276Y-150477500D01*
G04 #@! TO.C,R9*
X125045276Y-143227500D02*
X125554724Y-143227500D01*
X125045276Y-144272500D02*
X125554724Y-144272500D01*
G04 #@! TO.C,J2*
X141400000Y-177300000D02*
X140900000Y-177300000D01*
X147100000Y-162600000D02*
X147100000Y-163800000D01*
X140900000Y-171500000D02*
X140900000Y-162600000D01*
X146600000Y-179800000D02*
X141400000Y-179800000D01*
X147100000Y-176100000D02*
X149100000Y-176100000D01*
X147100000Y-167000000D02*
X147100000Y-173500000D01*
X140900000Y-177300000D02*
X140900000Y-174100000D01*
X141400000Y-179800000D02*
X141400000Y-177300000D01*
X147100000Y-173500000D02*
X149100000Y-173500000D01*
X147100000Y-177300000D02*
X146600000Y-177300000D01*
X140900000Y-162600000D02*
X147100000Y-162600000D01*
X147100000Y-176100000D02*
X147100000Y-177300000D01*
X146600000Y-177300000D02*
X146600000Y-179800000D01*
G04 #@! TO.C,D1*
X119250000Y-88350000D02*
X119250000Y-95650000D01*
X124750000Y-88350000D02*
X124750000Y-95650000D01*
X119250000Y-95650000D02*
X120400000Y-95650000D01*
G04 #@! TO.C,C4*
X127510000Y-92146267D02*
X127510000Y-91853733D01*
X126490000Y-92146267D02*
X126490000Y-91853733D01*
G04 #@! TO.C,C12*
X105146267Y-141510000D02*
X104853733Y-141510000D01*
X105146267Y-140490000D02*
X104853733Y-140490000D01*
G04 #@! TO.C,C9*
X116760000Y-156146267D02*
X116760000Y-155853733D01*
X115740000Y-156146267D02*
X115740000Y-155853733D01*
G04 #@! TO.C,C6*
X110910000Y-124653733D02*
X110910000Y-124946267D01*
X109890000Y-124653733D02*
X109890000Y-124946267D01*
G04 #@! TO.C,C7*
X106990000Y-124653733D02*
X106990000Y-124946267D01*
X108010000Y-124653733D02*
X108010000Y-124946267D01*
G04 #@! TO.C,SW2*
X151330000Y-116775000D02*
X151330000Y-118105000D01*
X151330000Y-115505000D02*
X148670000Y-115505000D01*
X151330000Y-112905000D02*
X148670000Y-112905000D01*
X151330000Y-118105000D02*
X150000000Y-118105000D01*
X148670000Y-115505000D02*
X148670000Y-112905000D01*
X151330000Y-115505000D02*
X151330000Y-112905000D01*
G04 #@! TD*
M02*
