G04 #@! TF.GenerationSoftware,KiCad,Pcbnew,(6.0.1)*
G04 #@! TF.CreationDate,2022-05-18T20:48:10-07:00*
G04 #@! TF.ProjectId,PCB,5043422e-6b69-4636-9164-5f7063625858,rev?*
G04 #@! TF.SameCoordinates,Original*
G04 #@! TF.FileFunction,Legend,Top*
G04 #@! TF.FilePolarity,Positive*
%FSLAX46Y46*%
G04 Gerber Fmt 4.6, Leading zero omitted, Abs format (unit mm)*
G04 Created by KiCad (PCBNEW (6.0.1)) date 2022-05-18 20:48:10*
%MOMM*%
%LPD*%
G01*
G04 APERTURE LIST*
%ADD10C,0.100000*%
%ADD11C,0.150000*%
%ADD12C,0.300000*%
%ADD13C,0.400000*%
%ADD14C,0.120000*%
G04 APERTURE END LIST*
D10*
D11*
X177002200Y-166007200D02*
X177002200Y-198007200D01*
X285002200Y-198007200D01*
X285002200Y-166007200D01*
X177002200Y-166007200D01*
D10*
D11*
X10000000Y-10000000D02*
X10000000Y-200007200D01*
X287002200Y-200007200D01*
X287002200Y-10000000D01*
X10000000Y-10000000D01*
D10*
D11*
X12000000Y-12000000D02*
X12000000Y-198007200D01*
X285002200Y-198007200D01*
X285002200Y-12000000D01*
X12000000Y-12000000D01*
D10*
D11*
X60000000Y-12000000D02*
X60000000Y-10000000D01*
D10*
D11*
X110000000Y-12000000D02*
X110000000Y-10000000D01*
D10*
D11*
X160000000Y-12000000D02*
X160000000Y-10000000D01*
D10*
D11*
X210000000Y-12000000D02*
X210000000Y-10000000D01*
D10*
D11*
X260000000Y-12000000D02*
X260000000Y-10000000D01*
D10*
D11*
X36065476Y-11588095D02*
X35322619Y-11588095D01*
X35694047Y-11588095D02*
X35694047Y-10288095D01*
X35570238Y-10473809D01*
X35446428Y-10597619D01*
X35322619Y-10659523D01*
D10*
D11*
X85322619Y-10411904D02*
X85384523Y-10350000D01*
X85508333Y-10288095D01*
X85817857Y-10288095D01*
X85941666Y-10350000D01*
X86003571Y-10411904D01*
X86065476Y-10535714D01*
X86065476Y-10659523D01*
X86003571Y-10845238D01*
X85260714Y-11588095D01*
X86065476Y-11588095D01*
D10*
D11*
X135260714Y-10288095D02*
X136065476Y-10288095D01*
X135632142Y-10783333D01*
X135817857Y-10783333D01*
X135941666Y-10845238D01*
X136003571Y-10907142D01*
X136065476Y-11030952D01*
X136065476Y-11340476D01*
X136003571Y-11464285D01*
X135941666Y-11526190D01*
X135817857Y-11588095D01*
X135446428Y-11588095D01*
X135322619Y-11526190D01*
X135260714Y-11464285D01*
D10*
D11*
X185941666Y-10721428D02*
X185941666Y-11588095D01*
X185632142Y-10226190D02*
X185322619Y-11154761D01*
X186127380Y-11154761D01*
D10*
D11*
X236003571Y-10288095D02*
X235384523Y-10288095D01*
X235322619Y-10907142D01*
X235384523Y-10845238D01*
X235508333Y-10783333D01*
X235817857Y-10783333D01*
X235941666Y-10845238D01*
X236003571Y-10907142D01*
X236065476Y-11030952D01*
X236065476Y-11340476D01*
X236003571Y-11464285D01*
X235941666Y-11526190D01*
X235817857Y-11588095D01*
X235508333Y-11588095D01*
X235384523Y-11526190D01*
X235322619Y-11464285D01*
D10*
D11*
X285941666Y-10288095D02*
X285694047Y-10288095D01*
X285570238Y-10350000D01*
X285508333Y-10411904D01*
X285384523Y-10597619D01*
X285322619Y-10845238D01*
X285322619Y-11340476D01*
X285384523Y-11464285D01*
X285446428Y-11526190D01*
X285570238Y-11588095D01*
X285817857Y-11588095D01*
X285941666Y-11526190D01*
X286003571Y-11464285D01*
X286065476Y-11340476D01*
X286065476Y-11030952D01*
X286003571Y-10907142D01*
X285941666Y-10845238D01*
X285817857Y-10783333D01*
X285570238Y-10783333D01*
X285446428Y-10845238D01*
X285384523Y-10907142D01*
X285322619Y-11030952D01*
D10*
D11*
X60000000Y-198007200D02*
X60000000Y-200007200D01*
D10*
D11*
X110000000Y-198007200D02*
X110000000Y-200007200D01*
D10*
D11*
X160000000Y-198007200D02*
X160000000Y-200007200D01*
D10*
D11*
X210000000Y-198007200D02*
X210000000Y-200007200D01*
D10*
D11*
X260000000Y-198007200D02*
X260000000Y-200007200D01*
D10*
D11*
X36065476Y-199595295D02*
X35322619Y-199595295D01*
X35694047Y-199595295D02*
X35694047Y-198295295D01*
X35570238Y-198481009D01*
X35446428Y-198604819D01*
X35322619Y-198666723D01*
D10*
D11*
X85322619Y-198419104D02*
X85384523Y-198357200D01*
X85508333Y-198295295D01*
X85817857Y-198295295D01*
X85941666Y-198357200D01*
X86003571Y-198419104D01*
X86065476Y-198542914D01*
X86065476Y-198666723D01*
X86003571Y-198852438D01*
X85260714Y-199595295D01*
X86065476Y-199595295D01*
D10*
D11*
X135260714Y-198295295D02*
X136065476Y-198295295D01*
X135632142Y-198790533D01*
X135817857Y-198790533D01*
X135941666Y-198852438D01*
X136003571Y-198914342D01*
X136065476Y-199038152D01*
X136065476Y-199347676D01*
X136003571Y-199471485D01*
X135941666Y-199533390D01*
X135817857Y-199595295D01*
X135446428Y-199595295D01*
X135322619Y-199533390D01*
X135260714Y-199471485D01*
D10*
D11*
X185941666Y-198728628D02*
X185941666Y-199595295D01*
X185632142Y-198233390D02*
X185322619Y-199161961D01*
X186127380Y-199161961D01*
D10*
D11*
X236003571Y-198295295D02*
X235384523Y-198295295D01*
X235322619Y-198914342D01*
X235384523Y-198852438D01*
X235508333Y-198790533D01*
X235817857Y-198790533D01*
X235941666Y-198852438D01*
X236003571Y-198914342D01*
X236065476Y-199038152D01*
X236065476Y-199347676D01*
X236003571Y-199471485D01*
X235941666Y-199533390D01*
X235817857Y-199595295D01*
X235508333Y-199595295D01*
X235384523Y-199533390D01*
X235322619Y-199471485D01*
D10*
D11*
X285941666Y-198295295D02*
X285694047Y-198295295D01*
X285570238Y-198357200D01*
X285508333Y-198419104D01*
X285384523Y-198604819D01*
X285322619Y-198852438D01*
X285322619Y-199347676D01*
X285384523Y-199471485D01*
X285446428Y-199533390D01*
X285570238Y-199595295D01*
X285817857Y-199595295D01*
X285941666Y-199533390D01*
X286003571Y-199471485D01*
X286065476Y-199347676D01*
X286065476Y-199038152D01*
X286003571Y-198914342D01*
X285941666Y-198852438D01*
X285817857Y-198790533D01*
X285570238Y-198790533D01*
X285446428Y-198852438D01*
X285384523Y-198914342D01*
X285322619Y-199038152D01*
D10*
D11*
X10000000Y-60000000D02*
X12000000Y-60000000D01*
D10*
D11*
X10000000Y-110000000D02*
X12000000Y-110000000D01*
D10*
D11*
X10000000Y-160000000D02*
X12000000Y-160000000D01*
D10*
D11*
X10690476Y-35216666D02*
X11309523Y-35216666D01*
X10566666Y-35588095D02*
X11000000Y-34288095D01*
X11433333Y-35588095D01*
D10*
D11*
X11092857Y-84907142D02*
X11278571Y-84969047D01*
X11340476Y-85030952D01*
X11402380Y-85154761D01*
X11402380Y-85340476D01*
X11340476Y-85464285D01*
X11278571Y-85526190D01*
X11154761Y-85588095D01*
X10659523Y-85588095D01*
X10659523Y-84288095D01*
X11092857Y-84288095D01*
X11216666Y-84350000D01*
X11278571Y-84411904D01*
X11340476Y-84535714D01*
X11340476Y-84659523D01*
X11278571Y-84783333D01*
X11216666Y-84845238D01*
X11092857Y-84907142D01*
X10659523Y-84907142D01*
D10*
D11*
X11402380Y-135464285D02*
X11340476Y-135526190D01*
X11154761Y-135588095D01*
X11030952Y-135588095D01*
X10845238Y-135526190D01*
X10721428Y-135402380D01*
X10659523Y-135278571D01*
X10597619Y-135030952D01*
X10597619Y-134845238D01*
X10659523Y-134597619D01*
X10721428Y-134473809D01*
X10845238Y-134350000D01*
X11030952Y-134288095D01*
X11154761Y-134288095D01*
X11340476Y-134350000D01*
X11402380Y-134411904D01*
D10*
D11*
X10659523Y-185588095D02*
X10659523Y-184288095D01*
X10969047Y-184288095D01*
X11154761Y-184350000D01*
X11278571Y-184473809D01*
X11340476Y-184597619D01*
X11402380Y-184845238D01*
X11402380Y-185030952D01*
X11340476Y-185278571D01*
X11278571Y-185402380D01*
X11154761Y-185526190D01*
X10969047Y-185588095D01*
X10659523Y-185588095D01*
D10*
D11*
X287002200Y-60000000D02*
X285002200Y-60000000D01*
D10*
D11*
X287002200Y-110000000D02*
X285002200Y-110000000D01*
D10*
D11*
X287002200Y-160000000D02*
X285002200Y-160000000D01*
D10*
D11*
X285692676Y-35216666D02*
X286311723Y-35216666D01*
X285568866Y-35588095D02*
X286002200Y-34288095D01*
X286435533Y-35588095D01*
D10*
D11*
X286095057Y-84907142D02*
X286280771Y-84969047D01*
X286342676Y-85030952D01*
X286404580Y-85154761D01*
X286404580Y-85340476D01*
X286342676Y-85464285D01*
X286280771Y-85526190D01*
X286156961Y-85588095D01*
X285661723Y-85588095D01*
X285661723Y-84288095D01*
X286095057Y-84288095D01*
X286218866Y-84350000D01*
X286280771Y-84411904D01*
X286342676Y-84535714D01*
X286342676Y-84659523D01*
X286280771Y-84783333D01*
X286218866Y-84845238D01*
X286095057Y-84907142D01*
X285661723Y-84907142D01*
D10*
D11*
X286404580Y-135464285D02*
X286342676Y-135526190D01*
X286156961Y-135588095D01*
X286033152Y-135588095D01*
X285847438Y-135526190D01*
X285723628Y-135402380D01*
X285661723Y-135278571D01*
X285599819Y-135030952D01*
X285599819Y-134845238D01*
X285661723Y-134597619D01*
X285723628Y-134473809D01*
X285847438Y-134350000D01*
X286033152Y-134288095D01*
X286156961Y-134288095D01*
X286342676Y-134350000D01*
X286404580Y-134411904D01*
D10*
D11*
X285661723Y-185588095D02*
X285661723Y-184288095D01*
X285971247Y-184288095D01*
X286156961Y-184350000D01*
X286280771Y-184473809D01*
X286342676Y-184597619D01*
X286404580Y-184845238D01*
X286404580Y-185030952D01*
X286342676Y-185278571D01*
X286280771Y-185402380D01*
X286156961Y-185526190D01*
X285971247Y-185588095D01*
X285661723Y-185588095D01*
D10*
D11*
X200434342Y-193785771D02*
X200434342Y-192285771D01*
X200791485Y-192285771D01*
X201005771Y-192357200D01*
X201148628Y-192500057D01*
X201220057Y-192642914D01*
X201291485Y-192928628D01*
X201291485Y-193142914D01*
X201220057Y-193428628D01*
X201148628Y-193571485D01*
X201005771Y-193714342D01*
X200791485Y-193785771D01*
X200434342Y-193785771D01*
X202577200Y-193785771D02*
X202577200Y-193000057D01*
X202505771Y-192857200D01*
X202362914Y-192785771D01*
X202077200Y-192785771D01*
X201934342Y-192857200D01*
X202577200Y-193714342D02*
X202434342Y-193785771D01*
X202077200Y-193785771D01*
X201934342Y-193714342D01*
X201862914Y-193571485D01*
X201862914Y-193428628D01*
X201934342Y-193285771D01*
X202077200Y-193214342D01*
X202434342Y-193214342D01*
X202577200Y-193142914D01*
X203077200Y-192785771D02*
X203648628Y-192785771D01*
X203291485Y-192285771D02*
X203291485Y-193571485D01*
X203362914Y-193714342D01*
X203505771Y-193785771D01*
X203648628Y-193785771D01*
X204720057Y-193714342D02*
X204577200Y-193785771D01*
X204291485Y-193785771D01*
X204148628Y-193714342D01*
X204077200Y-193571485D01*
X204077200Y-193000057D01*
X204148628Y-192857200D01*
X204291485Y-192785771D01*
X204577200Y-192785771D01*
X204720057Y-192857200D01*
X204791485Y-193000057D01*
X204791485Y-193142914D01*
X204077200Y-193285771D01*
X205434342Y-193642914D02*
X205505771Y-193714342D01*
X205434342Y-193785771D01*
X205362914Y-193714342D01*
X205434342Y-193642914D01*
X205434342Y-193785771D01*
X205434342Y-192857200D02*
X205505771Y-192928628D01*
X205434342Y-193000057D01*
X205362914Y-192928628D01*
X205434342Y-192857200D01*
X205434342Y-193000057D01*
D10*
D11*
X177002200Y-194507200D02*
X285002200Y-194507200D01*
D10*
D11*
X178434342Y-196585771D02*
X178434342Y-195085771D01*
X179291485Y-196585771D02*
X178648628Y-195728628D01*
X179291485Y-195085771D02*
X178434342Y-195942914D01*
X179934342Y-196585771D02*
X179934342Y-195585771D01*
X179934342Y-195085771D02*
X179862914Y-195157200D01*
X179934342Y-195228628D01*
X180005771Y-195157200D01*
X179934342Y-195085771D01*
X179934342Y-195228628D01*
X181505771Y-196442914D02*
X181434342Y-196514342D01*
X181220057Y-196585771D01*
X181077200Y-196585771D01*
X180862914Y-196514342D01*
X180720057Y-196371485D01*
X180648628Y-196228628D01*
X180577200Y-195942914D01*
X180577200Y-195728628D01*
X180648628Y-195442914D01*
X180720057Y-195300057D01*
X180862914Y-195157200D01*
X181077200Y-195085771D01*
X181220057Y-195085771D01*
X181434342Y-195157200D01*
X181505771Y-195228628D01*
X182791485Y-196585771D02*
X182791485Y-195800057D01*
X182720057Y-195657200D01*
X182577200Y-195585771D01*
X182291485Y-195585771D01*
X182148628Y-195657200D01*
X182791485Y-196514342D02*
X182648628Y-196585771D01*
X182291485Y-196585771D01*
X182148628Y-196514342D01*
X182077200Y-196371485D01*
X182077200Y-196228628D01*
X182148628Y-196085771D01*
X182291485Y-196014342D01*
X182648628Y-196014342D01*
X182791485Y-195942914D01*
X184148628Y-196585771D02*
X184148628Y-195085771D01*
X184148628Y-196514342D02*
X184005771Y-196585771D01*
X183720057Y-196585771D01*
X183577200Y-196514342D01*
X183505771Y-196442914D01*
X183434342Y-196300057D01*
X183434342Y-195871485D01*
X183505771Y-195728628D01*
X183577200Y-195657200D01*
X183720057Y-195585771D01*
X184005771Y-195585771D01*
X184148628Y-195657200D01*
X186005771Y-195800057D02*
X186505771Y-195800057D01*
X186720057Y-196585771D02*
X186005771Y-196585771D01*
X186005771Y-195085771D01*
X186720057Y-195085771D01*
X187362914Y-196442914D02*
X187434342Y-196514342D01*
X187362914Y-196585771D01*
X187291485Y-196514342D01*
X187362914Y-196442914D01*
X187362914Y-196585771D01*
X188077200Y-196585771D02*
X188077200Y-195085771D01*
X188434342Y-195085771D01*
X188648628Y-195157200D01*
X188791485Y-195300057D01*
X188862914Y-195442914D01*
X188934342Y-195728628D01*
X188934342Y-195942914D01*
X188862914Y-196228628D01*
X188791485Y-196371485D01*
X188648628Y-196514342D01*
X188434342Y-196585771D01*
X188077200Y-196585771D01*
X189577200Y-196442914D02*
X189648628Y-196514342D01*
X189577200Y-196585771D01*
X189505771Y-196514342D01*
X189577200Y-196442914D01*
X189577200Y-196585771D01*
X190220057Y-196157200D02*
X190934342Y-196157200D01*
X190077200Y-196585771D02*
X190577200Y-195085771D01*
X191077200Y-196585771D01*
X191577200Y-196442914D02*
X191648628Y-196514342D01*
X191577200Y-196585771D01*
X191505771Y-196514342D01*
X191577200Y-196442914D01*
X191577200Y-196585771D01*
X194577200Y-196585771D02*
X194577200Y-195085771D01*
X194720057Y-196014342D02*
X195148628Y-196585771D01*
X195148628Y-195585771D02*
X194577200Y-196157200D01*
X195791485Y-196585771D02*
X195791485Y-195585771D01*
X195791485Y-195085771D02*
X195720057Y-195157200D01*
X195791485Y-195228628D01*
X195862914Y-195157200D01*
X195791485Y-195085771D01*
X195791485Y-195228628D01*
X197148628Y-196514342D02*
X197005771Y-196585771D01*
X196720057Y-196585771D01*
X196577200Y-196514342D01*
X196505771Y-196442914D01*
X196434342Y-196300057D01*
X196434342Y-195871485D01*
X196505771Y-195728628D01*
X196577200Y-195657200D01*
X196720057Y-195585771D01*
X197005771Y-195585771D01*
X197148628Y-195657200D01*
X198434342Y-196585771D02*
X198434342Y-195800057D01*
X198362914Y-195657200D01*
X198220057Y-195585771D01*
X197934342Y-195585771D01*
X197791485Y-195657200D01*
X198434342Y-196514342D02*
X198291485Y-196585771D01*
X197934342Y-196585771D01*
X197791485Y-196514342D01*
X197720057Y-196371485D01*
X197720057Y-196228628D01*
X197791485Y-196085771D01*
X197934342Y-196014342D01*
X198291485Y-196014342D01*
X198434342Y-195942914D01*
X199791485Y-196585771D02*
X199791485Y-195085771D01*
X199791485Y-196514342D02*
X199648628Y-196585771D01*
X199362914Y-196585771D01*
X199220057Y-196514342D01*
X199148628Y-196442914D01*
X199077200Y-196300057D01*
X199077200Y-195871485D01*
X199148628Y-195728628D01*
X199220057Y-195657200D01*
X199362914Y-195585771D01*
X199648628Y-195585771D01*
X199791485Y-195657200D01*
X202077200Y-197157200D02*
X202005771Y-197085771D01*
X201862914Y-196871485D01*
X201791485Y-196728628D01*
X201720057Y-196514342D01*
X201648628Y-196157200D01*
X201648628Y-195871485D01*
X201720057Y-195514342D01*
X201791485Y-195300057D01*
X201862914Y-195157200D01*
X202005771Y-194942914D01*
X202077200Y-194871485D01*
X203291485Y-195085771D02*
X203005771Y-195085771D01*
X202862914Y-195157200D01*
X202791485Y-195228628D01*
X202648628Y-195442914D01*
X202577200Y-195728628D01*
X202577200Y-196300057D01*
X202648628Y-196442914D01*
X202720057Y-196514342D01*
X202862914Y-196585771D01*
X203148628Y-196585771D01*
X203291485Y-196514342D01*
X203362914Y-196442914D01*
X203434342Y-196300057D01*
X203434342Y-195942914D01*
X203362914Y-195800057D01*
X203291485Y-195728628D01*
X203148628Y-195657200D01*
X202862914Y-195657200D01*
X202720057Y-195728628D01*
X202648628Y-195800057D01*
X202577200Y-195942914D01*
X204077200Y-196442914D02*
X204148628Y-196514342D01*
X204077200Y-196585771D01*
X204005771Y-196514342D01*
X204077200Y-196442914D01*
X204077200Y-196585771D01*
X205077200Y-195085771D02*
X205220057Y-195085771D01*
X205362914Y-195157200D01*
X205434342Y-195228628D01*
X205505771Y-195371485D01*
X205577200Y-195657200D01*
X205577200Y-196014342D01*
X205505771Y-196300057D01*
X205434342Y-196442914D01*
X205362914Y-196514342D01*
X205220057Y-196585771D01*
X205077200Y-196585771D01*
X204934342Y-196514342D01*
X204862914Y-196442914D01*
X204791485Y-196300057D01*
X204720057Y-196014342D01*
X204720057Y-195657200D01*
X204791485Y-195371485D01*
X204862914Y-195228628D01*
X204934342Y-195157200D01*
X205077200Y-195085771D01*
X206220057Y-196442914D02*
X206291485Y-196514342D01*
X206220057Y-196585771D01*
X206148628Y-196514342D01*
X206220057Y-196442914D01*
X206220057Y-196585771D01*
X207720057Y-196585771D02*
X206862914Y-196585771D01*
X207291485Y-196585771D02*
X207291485Y-195085771D01*
X207148628Y-195300057D01*
X207005771Y-195442914D01*
X206862914Y-195514342D01*
X208220057Y-197157200D02*
X208291485Y-197085771D01*
X208434342Y-196871485D01*
X208505771Y-196728628D01*
X208577200Y-196514342D01*
X208648628Y-196157200D01*
X208648628Y-195871485D01*
X208577200Y-195514342D01*
X208505771Y-195300057D01*
X208434342Y-195157200D01*
X208291485Y-194942914D01*
X208220057Y-194871485D01*
D10*
D11*
X177002200Y-191507200D02*
X285002200Y-191507200D01*
D10*
D12*
X264411485Y-193785771D02*
X263911485Y-193071485D01*
X263554342Y-193785771D02*
X263554342Y-192285771D01*
X264125771Y-192285771D01*
X264268628Y-192357200D01*
X264340057Y-192428628D01*
X264411485Y-192571485D01*
X264411485Y-192785771D01*
X264340057Y-192928628D01*
X264268628Y-193000057D01*
X264125771Y-193071485D01*
X263554342Y-193071485D01*
X265625771Y-193714342D02*
X265482914Y-193785771D01*
X265197200Y-193785771D01*
X265054342Y-193714342D01*
X264982914Y-193571485D01*
X264982914Y-193000057D01*
X265054342Y-192857200D01*
X265197200Y-192785771D01*
X265482914Y-192785771D01*
X265625771Y-192857200D01*
X265697200Y-193000057D01*
X265697200Y-193142914D01*
X264982914Y-193285771D01*
X266197200Y-192785771D02*
X266554342Y-193785771D01*
X266911485Y-192785771D01*
X267482914Y-193642914D02*
X267554342Y-193714342D01*
X267482914Y-193785771D01*
X267411485Y-193714342D01*
X267482914Y-193642914D01*
X267482914Y-193785771D01*
X267482914Y-192857200D02*
X267554342Y-192928628D01*
X267482914Y-193000057D01*
X267411485Y-192928628D01*
X267482914Y-192857200D01*
X267482914Y-193000057D01*
D10*
D11*
X178362914Y-193714342D02*
X178577200Y-193785771D01*
X178934342Y-193785771D01*
X179077200Y-193714342D01*
X179148628Y-193642914D01*
X179220057Y-193500057D01*
X179220057Y-193357200D01*
X179148628Y-193214342D01*
X179077200Y-193142914D01*
X178934342Y-193071485D01*
X178648628Y-193000057D01*
X178505771Y-192928628D01*
X178434342Y-192857200D01*
X178362914Y-192714342D01*
X178362914Y-192571485D01*
X178434342Y-192428628D01*
X178505771Y-192357200D01*
X178648628Y-192285771D01*
X179005771Y-192285771D01*
X179220057Y-192357200D01*
X179862914Y-193785771D02*
X179862914Y-192785771D01*
X179862914Y-192285771D02*
X179791485Y-192357200D01*
X179862914Y-192428628D01*
X179934342Y-192357200D01*
X179862914Y-192285771D01*
X179862914Y-192428628D01*
X180434342Y-192785771D02*
X181220057Y-192785771D01*
X180434342Y-193785771D01*
X181220057Y-193785771D01*
X182362914Y-193714342D02*
X182220057Y-193785771D01*
X181934342Y-193785771D01*
X181791485Y-193714342D01*
X181720057Y-193571485D01*
X181720057Y-193000057D01*
X181791485Y-192857200D01*
X181934342Y-192785771D01*
X182220057Y-192785771D01*
X182362914Y-192857200D01*
X182434342Y-193000057D01*
X182434342Y-193142914D01*
X181720057Y-193285771D01*
X183077200Y-193642914D02*
X183148628Y-193714342D01*
X183077200Y-193785771D01*
X183005771Y-193714342D01*
X183077200Y-193642914D01*
X183077200Y-193785771D01*
X183077200Y-192857200D02*
X183148628Y-192928628D01*
X183077200Y-193000057D01*
X183005771Y-192928628D01*
X183077200Y-192857200D01*
X183077200Y-193000057D01*
X184862914Y-193357200D02*
X185577200Y-193357200D01*
X184720057Y-193785771D02*
X185220057Y-192285771D01*
X185720057Y-193785771D01*
X186862914Y-192785771D02*
X186862914Y-193785771D01*
X186505771Y-192214342D02*
X186148628Y-193285771D01*
X187077200Y-193285771D01*
D10*
D11*
X263434342Y-196585771D02*
X263434342Y-195085771D01*
X264791485Y-196585771D02*
X264791485Y-195085771D01*
X264791485Y-196514342D02*
X264648628Y-196585771D01*
X264362914Y-196585771D01*
X264220057Y-196514342D01*
X264148628Y-196442914D01*
X264077200Y-196300057D01*
X264077200Y-195871485D01*
X264148628Y-195728628D01*
X264220057Y-195657200D01*
X264362914Y-195585771D01*
X264648628Y-195585771D01*
X264791485Y-195657200D01*
X265505771Y-196442914D02*
X265577200Y-196514342D01*
X265505771Y-196585771D01*
X265434342Y-196514342D01*
X265505771Y-196442914D01*
X265505771Y-196585771D01*
X265505771Y-195657200D02*
X265577200Y-195728628D01*
X265505771Y-195800057D01*
X265434342Y-195728628D01*
X265505771Y-195657200D01*
X265505771Y-195800057D01*
X268148628Y-196585771D02*
X267291485Y-196585771D01*
X267720057Y-196585771D02*
X267720057Y-195085771D01*
X267577200Y-195300057D01*
X267434342Y-195442914D01*
X267291485Y-195514342D01*
X269862914Y-195014342D02*
X268577200Y-196942914D01*
X271148628Y-196585771D02*
X270291485Y-196585771D01*
X270720057Y-196585771D02*
X270720057Y-195085771D01*
X270577200Y-195300057D01*
X270434342Y-195442914D01*
X270291485Y-195514342D01*
D10*
D11*
X177002200Y-187507200D02*
X285002200Y-187507200D01*
D10*
D13*
X178714580Y-188211961D02*
X179857438Y-188211961D01*
X179036009Y-190211961D02*
X179286009Y-188211961D01*
X180274104Y-190211961D02*
X180440771Y-188878628D01*
X180524104Y-188211961D02*
X180416961Y-188307200D01*
X180500295Y-188402438D01*
X180607438Y-188307200D01*
X180524104Y-188211961D01*
X180500295Y-188402438D01*
X181107438Y-188878628D02*
X181869342Y-188878628D01*
X181476485Y-188211961D02*
X181262200Y-189926247D01*
X181333628Y-190116723D01*
X181512200Y-190211961D01*
X181702676Y-190211961D01*
X182655057Y-190211961D02*
X182476485Y-190116723D01*
X182405057Y-189926247D01*
X182619342Y-188211961D01*
X184190771Y-190116723D02*
X183988390Y-190211961D01*
X183607438Y-190211961D01*
X183428866Y-190116723D01*
X183357438Y-189926247D01*
X183452676Y-189164342D01*
X183571723Y-188973866D01*
X183774104Y-188878628D01*
X184155057Y-188878628D01*
X184333628Y-188973866D01*
X184405057Y-189164342D01*
X184381247Y-189354819D01*
X183405057Y-189545295D01*
X185155057Y-190021485D02*
X185238390Y-190116723D01*
X185131247Y-190211961D01*
X185047914Y-190116723D01*
X185155057Y-190021485D01*
X185131247Y-190211961D01*
X185286009Y-188973866D02*
X185369342Y-189069104D01*
X185262200Y-189164342D01*
X185178866Y-189069104D01*
X185286009Y-188973866D01*
X185262200Y-189164342D01*
D10*
D11*
X178934342Y-185600057D02*
X178434342Y-185600057D01*
X178434342Y-186385771D02*
X178434342Y-184885771D01*
X179148628Y-184885771D01*
X179720057Y-186385771D02*
X179720057Y-185385771D01*
X179720057Y-184885771D02*
X179648628Y-184957200D01*
X179720057Y-185028628D01*
X179791485Y-184957200D01*
X179720057Y-184885771D01*
X179720057Y-185028628D01*
X180648628Y-186385771D02*
X180505771Y-186314342D01*
X180434342Y-186171485D01*
X180434342Y-184885771D01*
X181791485Y-186314342D02*
X181648628Y-186385771D01*
X181362914Y-186385771D01*
X181220057Y-186314342D01*
X181148628Y-186171485D01*
X181148628Y-185600057D01*
X181220057Y-185457200D01*
X181362914Y-185385771D01*
X181648628Y-185385771D01*
X181791485Y-185457200D01*
X181862914Y-185600057D01*
X181862914Y-185742914D01*
X181148628Y-185885771D01*
X182505771Y-186242914D02*
X182577200Y-186314342D01*
X182505771Y-186385771D01*
X182434342Y-186314342D01*
X182505771Y-186242914D01*
X182505771Y-186385771D01*
X182505771Y-185457200D02*
X182577200Y-185528628D01*
X182505771Y-185600057D01*
X182434342Y-185528628D01*
X182505771Y-185457200D01*
X182505771Y-185600057D01*
X184362914Y-186385771D02*
X184362914Y-184885771D01*
X184934342Y-184885771D01*
X185077200Y-184957200D01*
X185148628Y-185028628D01*
X185220057Y-185171485D01*
X185220057Y-185385771D01*
X185148628Y-185528628D01*
X185077200Y-185600057D01*
X184934342Y-185671485D01*
X184362914Y-185671485D01*
X186720057Y-186242914D02*
X186648628Y-186314342D01*
X186434342Y-186385771D01*
X186291485Y-186385771D01*
X186077200Y-186314342D01*
X185934342Y-186171485D01*
X185862914Y-186028628D01*
X185791485Y-185742914D01*
X185791485Y-185528628D01*
X185862914Y-185242914D01*
X185934342Y-185100057D01*
X186077200Y-184957200D01*
X186291485Y-184885771D01*
X186434342Y-184885771D01*
X186648628Y-184957200D01*
X186720057Y-185028628D01*
X187862914Y-185600057D02*
X188077200Y-185671485D01*
X188148628Y-185742914D01*
X188220057Y-185885771D01*
X188220057Y-186100057D01*
X188148628Y-186242914D01*
X188077200Y-186314342D01*
X187934342Y-186385771D01*
X187362914Y-186385771D01*
X187362914Y-184885771D01*
X187862914Y-184885771D01*
X188005771Y-184957200D01*
X188077200Y-185028628D01*
X188148628Y-185171485D01*
X188148628Y-185314342D01*
X188077200Y-185457200D01*
X188005771Y-185528628D01*
X187862914Y-185600057D01*
X187362914Y-185600057D01*
X188862914Y-186242914D02*
X188934342Y-186314342D01*
X188862914Y-186385771D01*
X188791485Y-186314342D01*
X188862914Y-186242914D01*
X188862914Y-186385771D01*
X189577200Y-186385771D02*
X189577200Y-184885771D01*
X189720057Y-185814342D02*
X190148628Y-186385771D01*
X190148628Y-185385771D02*
X189577200Y-185957200D01*
X190791485Y-186385771D02*
X190791485Y-185385771D01*
X190791485Y-184885771D02*
X190720057Y-184957200D01*
X190791485Y-185028628D01*
X190862914Y-184957200D01*
X190791485Y-184885771D01*
X190791485Y-185028628D01*
X192148628Y-186314342D02*
X192005771Y-186385771D01*
X191720057Y-186385771D01*
X191577200Y-186314342D01*
X191505771Y-186242914D01*
X191434342Y-186100057D01*
X191434342Y-185671485D01*
X191505771Y-185528628D01*
X191577200Y-185457200D01*
X191720057Y-185385771D01*
X192005771Y-185385771D01*
X192148628Y-185457200D01*
X193434342Y-186385771D02*
X193434342Y-185600057D01*
X193362914Y-185457200D01*
X193220057Y-185385771D01*
X192934342Y-185385771D01*
X192791485Y-185457200D01*
X193434342Y-186314342D02*
X193291485Y-186385771D01*
X192934342Y-186385771D01*
X192791485Y-186314342D01*
X192720057Y-186171485D01*
X192720057Y-186028628D01*
X192791485Y-185885771D01*
X192934342Y-185814342D01*
X193291485Y-185814342D01*
X193434342Y-185742914D01*
X194791485Y-186385771D02*
X194791485Y-184885771D01*
X194791485Y-186314342D02*
X194648628Y-186385771D01*
X194362914Y-186385771D01*
X194220057Y-186314342D01*
X194148628Y-186242914D01*
X194077200Y-186100057D01*
X194077200Y-185671485D01*
X194148628Y-185528628D01*
X194220057Y-185457200D01*
X194362914Y-185385771D01*
X194648628Y-185385771D01*
X194791485Y-185457200D01*
X195148628Y-186528628D02*
X196291485Y-186528628D01*
X196648628Y-185385771D02*
X196648628Y-186885771D01*
X196648628Y-185457200D02*
X196791485Y-185385771D01*
X197077200Y-185385771D01*
X197220057Y-185457200D01*
X197291485Y-185528628D01*
X197362914Y-185671485D01*
X197362914Y-186100057D01*
X197291485Y-186242914D01*
X197220057Y-186314342D01*
X197077200Y-186385771D01*
X196791485Y-186385771D01*
X196648628Y-186314342D01*
X198648628Y-186314342D02*
X198505771Y-186385771D01*
X198220057Y-186385771D01*
X198077200Y-186314342D01*
X198005771Y-186242914D01*
X197934342Y-186100057D01*
X197934342Y-185671485D01*
X198005771Y-185528628D01*
X198077200Y-185457200D01*
X198220057Y-185385771D01*
X198505771Y-185385771D01*
X198648628Y-185457200D01*
X199291485Y-186385771D02*
X199291485Y-184885771D01*
X199291485Y-185457200D02*
X199434342Y-185385771D01*
X199720057Y-185385771D01*
X199862914Y-185457200D01*
X199934342Y-185528628D01*
X200005771Y-185671485D01*
X200005771Y-186100057D01*
X199934342Y-186242914D01*
X199862914Y-186314342D01*
X199720057Y-186385771D01*
X199434342Y-186385771D01*
X199291485Y-186314342D01*
D10*
D11*
X177002200Y-181507200D02*
X285002200Y-181507200D01*
D10*
D11*
X178362914Y-183614342D02*
X178577200Y-183685771D01*
X178934342Y-183685771D01*
X179077200Y-183614342D01*
X179148628Y-183542914D01*
X179220057Y-183400057D01*
X179220057Y-183257200D01*
X179148628Y-183114342D01*
X179077200Y-183042914D01*
X178934342Y-182971485D01*
X178648628Y-182900057D01*
X178505771Y-182828628D01*
X178434342Y-182757200D01*
X178362914Y-182614342D01*
X178362914Y-182471485D01*
X178434342Y-182328628D01*
X178505771Y-182257200D01*
X178648628Y-182185771D01*
X179005771Y-182185771D01*
X179220057Y-182257200D01*
X179862914Y-183685771D02*
X179862914Y-182185771D01*
X180505771Y-183685771D02*
X180505771Y-182900057D01*
X180434342Y-182757200D01*
X180291485Y-182685771D01*
X180077200Y-182685771D01*
X179934342Y-182757200D01*
X179862914Y-182828628D01*
X181791485Y-183614342D02*
X181648628Y-183685771D01*
X181362914Y-183685771D01*
X181220057Y-183614342D01*
X181148628Y-183471485D01*
X181148628Y-182900057D01*
X181220057Y-182757200D01*
X181362914Y-182685771D01*
X181648628Y-182685771D01*
X181791485Y-182757200D01*
X181862914Y-182900057D01*
X181862914Y-183042914D01*
X181148628Y-183185771D01*
X183077200Y-183614342D02*
X182934342Y-183685771D01*
X182648628Y-183685771D01*
X182505771Y-183614342D01*
X182434342Y-183471485D01*
X182434342Y-182900057D01*
X182505771Y-182757200D01*
X182648628Y-182685771D01*
X182934342Y-182685771D01*
X183077200Y-182757200D01*
X183148628Y-182900057D01*
X183148628Y-183042914D01*
X182434342Y-183185771D01*
X183577200Y-182685771D02*
X184148628Y-182685771D01*
X183791485Y-182185771D02*
X183791485Y-183471485D01*
X183862914Y-183614342D01*
X184005771Y-183685771D01*
X184148628Y-183685771D01*
X184648628Y-183542914D02*
X184720057Y-183614342D01*
X184648628Y-183685771D01*
X184577200Y-183614342D01*
X184648628Y-183542914D01*
X184648628Y-183685771D01*
X184648628Y-182757200D02*
X184720057Y-182828628D01*
X184648628Y-182900057D01*
X184577200Y-182828628D01*
X184648628Y-182757200D01*
X184648628Y-182900057D01*
D10*
D12*
D10*
D11*
D10*
D11*
D10*
D11*
D10*
D11*
D10*
D11*
X197002200Y-191507200D02*
X197002200Y-194507200D01*
D10*
D11*
X261002200Y-191507200D02*
X261002200Y-198007200D01*
X107059523Y-88452380D02*
X106726190Y-87976190D01*
X106488095Y-88452380D02*
X106488095Y-87452380D01*
X106869047Y-87452380D01*
X106964285Y-87500000D01*
X107011904Y-87547619D01*
X107059523Y-87642857D01*
X107059523Y-87785714D01*
X107011904Y-87880952D01*
X106964285Y-87928571D01*
X106869047Y-87976190D01*
X106488095Y-87976190D01*
X107488095Y-87928571D02*
X107821428Y-87928571D01*
X107964285Y-88452380D02*
X107488095Y-88452380D01*
X107488095Y-87452380D01*
X107964285Y-87452380D01*
X108250000Y-87452380D02*
X108583333Y-88452380D01*
X108916666Y-87452380D01*
X109250000Y-88452380D02*
X109250000Y-87452380D01*
X109678571Y-88404761D02*
X109821428Y-88452380D01*
X110059523Y-88452380D01*
X110154761Y-88404761D01*
X110202380Y-88357142D01*
X110250000Y-88261904D01*
X110250000Y-88166666D01*
X110202380Y-88071428D01*
X110154761Y-88023809D01*
X110059523Y-87976190D01*
X109869047Y-87928571D01*
X109773809Y-87880952D01*
X109726190Y-87833333D01*
X109678571Y-87738095D01*
X109678571Y-87642857D01*
X109726190Y-87547619D01*
X109773809Y-87500000D01*
X109869047Y-87452380D01*
X110107142Y-87452380D01*
X110250000Y-87500000D01*
X110869047Y-87452380D02*
X111059523Y-87452380D01*
X111154761Y-87500000D01*
X111250000Y-87595238D01*
X111297619Y-87785714D01*
X111297619Y-88119047D01*
X111250000Y-88309523D01*
X111154761Y-88404761D01*
X111059523Y-88452380D01*
X110869047Y-88452380D01*
X110773809Y-88404761D01*
X110678571Y-88309523D01*
X110630952Y-88119047D01*
X110630952Y-87785714D01*
X110678571Y-87595238D01*
X110773809Y-87500000D01*
X110869047Y-87452380D01*
X111726190Y-88452380D02*
X111726190Y-87452380D01*
X112297619Y-88452380D01*
X112297619Y-87452380D01*
X113440476Y-87452380D02*
X114059523Y-87452380D01*
X113726190Y-87833333D01*
X113869047Y-87833333D01*
X113964285Y-87880952D01*
X114011904Y-87928571D01*
X114059523Y-88023809D01*
X114059523Y-88261904D01*
X114011904Y-88357142D01*
X113964285Y-88404761D01*
X113869047Y-88452380D01*
X113583333Y-88452380D01*
X113488095Y-88404761D01*
X113440476Y-88357142D01*
X150304761Y-130414285D02*
X150352380Y-130271428D01*
X150352380Y-130033333D01*
X150304761Y-129938095D01*
X150257142Y-129890476D01*
X150161904Y-129842857D01*
X150066666Y-129842857D01*
X149971428Y-129890476D01*
X149923809Y-129938095D01*
X149876190Y-130033333D01*
X149828571Y-130223809D01*
X149780952Y-130319047D01*
X149733333Y-130366666D01*
X149638095Y-130414285D01*
X149542857Y-130414285D01*
X149447619Y-130366666D01*
X149400000Y-130319047D01*
X149352380Y-130223809D01*
X149352380Y-129985714D01*
X149400000Y-129842857D01*
X149685714Y-128985714D02*
X150352380Y-128985714D01*
X149304761Y-129223809D02*
X150019047Y-129461904D01*
X150019047Y-128842857D01*
X150447619Y-128700000D02*
X150447619Y-127938095D01*
X150352380Y-127700000D02*
X149352380Y-127700000D01*
X149352380Y-127319047D01*
X149400000Y-127223809D01*
X149447619Y-127176190D01*
X149542857Y-127128571D01*
X149685714Y-127128571D01*
X149780952Y-127176190D01*
X149828571Y-127223809D01*
X149876190Y-127319047D01*
X149876190Y-127700000D01*
X149352380Y-126795238D02*
X150352380Y-126557142D01*
X149638095Y-126366666D01*
X150352380Y-126176190D01*
X149352380Y-125938095D01*
X150352380Y-124985714D02*
X149876190Y-125319047D01*
X150352380Y-125557142D02*
X149352380Y-125557142D01*
X149352380Y-125176190D01*
X149400000Y-125080952D01*
X149447619Y-125033333D01*
X149542857Y-124985714D01*
X149685714Y-124985714D01*
X149780952Y-125033333D01*
X149828571Y-125080952D01*
X149876190Y-125176190D01*
X149876190Y-125557142D01*
X106392856Y-85952380D02*
X106630951Y-86952380D01*
X106821428Y-86238095D01*
X107011904Y-86952380D01*
X107249999Y-85952380D01*
X107583332Y-86666666D02*
X108059523Y-86666666D01*
X107488094Y-86952380D02*
X107821428Y-85952380D01*
X108154761Y-86952380D01*
X108345237Y-85952380D02*
X108916666Y-85952380D01*
X108630951Y-86952380D02*
X108630951Y-85952380D01*
X109249999Y-86428571D02*
X109583332Y-86428571D01*
X109726190Y-86952380D02*
X109249999Y-86952380D01*
X109249999Y-85952380D01*
X109726190Y-85952380D01*
X110726190Y-86952380D02*
X110392856Y-86476190D01*
X110154761Y-86952380D02*
X110154761Y-85952380D01*
X110535713Y-85952380D01*
X110630951Y-86000000D01*
X110678571Y-86047619D01*
X110726190Y-86142857D01*
X110726190Y-86285714D01*
X110678571Y-86380952D01*
X110630951Y-86428571D01*
X110535713Y-86476190D01*
X110154761Y-86476190D01*
X112488094Y-86952380D02*
X112154761Y-86476190D01*
X111916666Y-86952380D02*
X111916666Y-85952380D01*
X112297618Y-85952380D01*
X112392856Y-86000000D01*
X112440475Y-86047619D01*
X112488094Y-86142857D01*
X112488094Y-86285714D01*
X112440475Y-86380952D01*
X112392856Y-86428571D01*
X112297618Y-86476190D01*
X111916666Y-86476190D01*
X113107142Y-85952380D02*
X113297618Y-85952380D01*
X113392856Y-86000000D01*
X113488094Y-86095238D01*
X113535713Y-86285714D01*
X113535713Y-86619047D01*
X113488094Y-86809523D01*
X113392856Y-86904761D01*
X113297618Y-86952380D01*
X113107142Y-86952380D01*
X113011904Y-86904761D01*
X112916666Y-86809523D01*
X112869047Y-86619047D01*
X112869047Y-86285714D01*
X112916666Y-86095238D01*
X113011904Y-86000000D01*
X113107142Y-85952380D01*
X113869047Y-85952380D02*
X114107142Y-86952380D01*
X114297618Y-86238095D01*
X114488094Y-86952380D01*
X114726190Y-85952380D01*
X115107142Y-86428571D02*
X115440475Y-86428571D01*
X115583332Y-86952380D02*
X115107142Y-86952380D01*
X115107142Y-85952380D01*
X115583332Y-85952380D01*
X116583332Y-86952380D02*
X116249999Y-86476190D01*
X116011904Y-86952380D02*
X116011904Y-85952380D01*
X116392856Y-85952380D01*
X116488094Y-86000000D01*
X116535713Y-86047619D01*
X116583332Y-86142857D01*
X116583332Y-86285714D01*
X116535713Y-86380952D01*
X116488094Y-86428571D01*
X116392856Y-86476190D01*
X116011904Y-86476190D01*
X118249999Y-86952380D02*
X117773809Y-86952380D01*
X117773809Y-85952380D01*
X118583332Y-86952380D02*
X118583332Y-85952380D01*
X119059523Y-86952380D02*
X119059523Y-85952380D01*
X119630951Y-86952380D01*
X119630951Y-85952380D01*
X120107142Y-86952380D02*
X120107142Y-85952380D01*
X120678571Y-86952380D02*
X120249999Y-86380952D01*
X120678571Y-85952380D02*
X120107142Y-86523809D01*
X121107142Y-86571428D02*
X121869047Y-86571428D01*
X121488094Y-86952380D02*
X121488094Y-86190476D01*
X150352380Y-119952380D02*
X149876190Y-120285714D01*
X150352380Y-120523809D02*
X149352380Y-120523809D01*
X149352380Y-120142857D01*
X149400000Y-120047619D01*
X149447619Y-120000000D01*
X149542857Y-119952380D01*
X149685714Y-119952380D01*
X149780952Y-120000000D01*
X149828571Y-120047619D01*
X149876190Y-120142857D01*
X149876190Y-120523809D01*
X149828571Y-119523809D02*
X149828571Y-119190476D01*
X150352380Y-119047619D02*
X150352380Y-119523809D01*
X149352380Y-119523809D01*
X149352380Y-119047619D01*
X150304761Y-118666666D02*
X150352380Y-118523809D01*
X150352380Y-118285714D01*
X150304761Y-118190476D01*
X150257142Y-118142857D01*
X150161904Y-118095238D01*
X150066666Y-118095238D01*
X149971428Y-118142857D01*
X149923809Y-118190476D01*
X149876190Y-118285714D01*
X149828571Y-118476190D01*
X149780952Y-118571428D01*
X149733333Y-118619047D01*
X149638095Y-118666666D01*
X149542857Y-118666666D01*
X149447619Y-118619047D01*
X149400000Y-118571428D01*
X149352380Y-118476190D01*
X149352380Y-118238095D01*
X149400000Y-118095238D01*
X149828571Y-117666666D02*
X149828571Y-117333333D01*
X150352380Y-117190476D02*
X150352380Y-117666666D01*
X149352380Y-117666666D01*
X149352380Y-117190476D01*
X149352380Y-116904761D02*
X149352380Y-116333333D01*
X150352380Y-116619047D02*
X149352380Y-116619047D01*
X146152380Y-97252380D02*
X145676190Y-97585714D01*
X146152380Y-97823809D02*
X145152380Y-97823809D01*
X145152380Y-97442857D01*
X145200000Y-97347619D01*
X145247619Y-97300000D01*
X145342857Y-97252380D01*
X145485714Y-97252380D01*
X145580952Y-97300000D01*
X145628571Y-97347619D01*
X145676190Y-97442857D01*
X145676190Y-97823809D01*
X145628571Y-96823809D02*
X145628571Y-96490476D01*
X146152380Y-96347619D02*
X146152380Y-96823809D01*
X145152380Y-96823809D01*
X145152380Y-96347619D01*
X146104761Y-95966666D02*
X146152380Y-95823809D01*
X146152380Y-95585714D01*
X146104761Y-95490476D01*
X146057142Y-95442857D01*
X145961904Y-95395238D01*
X145866666Y-95395238D01*
X145771428Y-95442857D01*
X145723809Y-95490476D01*
X145676190Y-95585714D01*
X145628571Y-95776190D01*
X145580952Y-95871428D01*
X145533333Y-95919047D01*
X145438095Y-95966666D01*
X145342857Y-95966666D01*
X145247619Y-95919047D01*
X145200000Y-95871428D01*
X145152380Y-95776190D01*
X145152380Y-95538095D01*
X145200000Y-95395238D01*
X145628571Y-94966666D02*
X145628571Y-94633333D01*
X146152380Y-94490476D02*
X146152380Y-94966666D01*
X145152380Y-94966666D01*
X145152380Y-94490476D01*
X145152380Y-94204761D02*
X145152380Y-93633333D01*
X146152380Y-93919047D02*
X145152380Y-93919047D01*
G04 #@! TO.C,D3*
X150452380Y-172191828D02*
X149452380Y-172191828D01*
X149452380Y-171953733D01*
X149500000Y-171810875D01*
X149595238Y-171715637D01*
X149690476Y-171668018D01*
X149880952Y-171620399D01*
X150023809Y-171620399D01*
X150214285Y-171668018D01*
X150309523Y-171715637D01*
X150404761Y-171810875D01*
X150452380Y-171953733D01*
X150452380Y-172191828D01*
X149452380Y-171287066D02*
X149452380Y-170668018D01*
X149833333Y-171001352D01*
X149833333Y-170858494D01*
X149880952Y-170763256D01*
X149928571Y-170715637D01*
X150023809Y-170668018D01*
X150261904Y-170668018D01*
X150357142Y-170715637D01*
X150404761Y-170763256D01*
X150452380Y-170858494D01*
X150452380Y-171144209D01*
X150404761Y-171239447D01*
X150357142Y-171287066D01*
G04 #@! TO.C,C2*
X141033333Y-112957142D02*
X140985714Y-113004761D01*
X140842857Y-113052380D01*
X140747619Y-113052380D01*
X140604761Y-113004761D01*
X140509523Y-112909523D01*
X140461904Y-112814285D01*
X140414285Y-112623809D01*
X140414285Y-112480952D01*
X140461904Y-112290476D01*
X140509523Y-112195238D01*
X140604761Y-112100000D01*
X140747619Y-112052380D01*
X140842857Y-112052380D01*
X140985714Y-112100000D01*
X141033333Y-112147619D01*
X141414285Y-112147619D02*
X141461904Y-112100000D01*
X141557142Y-112052380D01*
X141795238Y-112052380D01*
X141890476Y-112100000D01*
X141938095Y-112147619D01*
X141985714Y-112242857D01*
X141985714Y-112338095D01*
X141938095Y-112480952D01*
X141366666Y-113052380D01*
X141985714Y-113052380D01*
G04 #@! TO.C,C3*
X136633333Y-108290476D02*
X136585714Y-108338095D01*
X136442857Y-108385714D01*
X136347619Y-108385714D01*
X136204761Y-108338095D01*
X136109523Y-108242857D01*
X136061904Y-108147619D01*
X136014285Y-107957143D01*
X136014285Y-107814286D01*
X136061904Y-107623810D01*
X136109523Y-107528572D01*
X136204761Y-107433334D01*
X136347619Y-107385714D01*
X136442857Y-107385714D01*
X136585714Y-107433334D01*
X136633333Y-107480953D01*
X136966666Y-107385714D02*
X137585714Y-107385714D01*
X137252380Y-107766667D01*
X137395238Y-107766667D01*
X137490476Y-107814286D01*
X137538095Y-107861905D01*
X137585714Y-107957143D01*
X137585714Y-108195238D01*
X137538095Y-108290476D01*
X137490476Y-108338095D01*
X137395238Y-108385714D01*
X137109523Y-108385714D01*
X137014285Y-108338095D01*
X136966666Y-108290476D01*
G04 #@! TO.C,Q2*
X124992261Y-129047619D02*
X124897023Y-129000000D01*
X124801785Y-128904761D01*
X124658928Y-128761904D01*
X124563690Y-128714285D01*
X124468452Y-128714285D01*
X124516071Y-128952380D02*
X124420833Y-128904761D01*
X124325595Y-128809523D01*
X124277976Y-128619047D01*
X124277976Y-128285714D01*
X124325595Y-128095238D01*
X124420833Y-128000000D01*
X124516071Y-127952380D01*
X124706547Y-127952380D01*
X124801785Y-128000000D01*
X124897023Y-128095238D01*
X124944642Y-128285714D01*
X124944642Y-128619047D01*
X124897023Y-128809523D01*
X124801785Y-128904761D01*
X124706547Y-128952380D01*
X124516071Y-128952380D01*
X125325595Y-128047619D02*
X125373214Y-128000000D01*
X125468452Y-127952380D01*
X125706547Y-127952380D01*
X125801785Y-128000000D01*
X125849404Y-128047619D01*
X125897023Y-128142857D01*
X125897023Y-128238095D01*
X125849404Y-128380952D01*
X125277976Y-128952380D01*
X125897023Y-128952380D01*
G04 #@! TO.C,C14*
X124557142Y-151742857D02*
X124604761Y-151790476D01*
X124652380Y-151933333D01*
X124652380Y-152028571D01*
X124604761Y-152171428D01*
X124509523Y-152266666D01*
X124414285Y-152314285D01*
X124223809Y-152361904D01*
X124080952Y-152361904D01*
X123890476Y-152314285D01*
X123795238Y-152266666D01*
X123700000Y-152171428D01*
X123652380Y-152028571D01*
X123652380Y-151933333D01*
X123700000Y-151790476D01*
X123747619Y-151742857D01*
X124652380Y-150790476D02*
X124652380Y-151361904D01*
X124652380Y-151076190D02*
X123652380Y-151076190D01*
X123795238Y-151171428D01*
X123890476Y-151266666D01*
X123938095Y-151361904D01*
X123985714Y-149933333D02*
X124652380Y-149933333D01*
X123604761Y-150171428D02*
X124319047Y-150409523D01*
X124319047Y-149790476D01*
G04 #@! TO.C,SW4*
X150866666Y-122209761D02*
X151009523Y-122257380D01*
X151247619Y-122257380D01*
X151342857Y-122209761D01*
X151390476Y-122162142D01*
X151438095Y-122066904D01*
X151438095Y-121971666D01*
X151390476Y-121876428D01*
X151342857Y-121828809D01*
X151247619Y-121781190D01*
X151057142Y-121733571D01*
X150961904Y-121685952D01*
X150914285Y-121638333D01*
X150866666Y-121543095D01*
X150866666Y-121447857D01*
X150914285Y-121352619D01*
X150961904Y-121305000D01*
X151057142Y-121257380D01*
X151295238Y-121257380D01*
X151438095Y-121305000D01*
X151771428Y-121257380D02*
X152009523Y-122257380D01*
X152200000Y-121543095D01*
X152390476Y-122257380D01*
X152628571Y-121257380D01*
X153438095Y-121590714D02*
X153438095Y-122257380D01*
X153200000Y-121209761D02*
X152961904Y-121924047D01*
X153580952Y-121924047D01*
G04 #@! TO.C,R10*
X119952380Y-159480357D02*
X119476190Y-159813690D01*
X119952380Y-160051785D02*
X118952380Y-160051785D01*
X118952380Y-159670833D01*
X119000000Y-159575595D01*
X119047619Y-159527976D01*
X119142857Y-159480357D01*
X119285714Y-159480357D01*
X119380952Y-159527976D01*
X119428571Y-159575595D01*
X119476190Y-159670833D01*
X119476190Y-160051785D01*
X119952380Y-158527976D02*
X119952380Y-159099404D01*
X119952380Y-158813690D02*
X118952380Y-158813690D01*
X119095238Y-158908928D01*
X119190476Y-159004166D01*
X119238095Y-159099404D01*
X118952380Y-157908928D02*
X118952380Y-157813690D01*
X119000000Y-157718452D01*
X119047619Y-157670833D01*
X119142857Y-157623214D01*
X119333333Y-157575595D01*
X119571428Y-157575595D01*
X119761904Y-157623214D01*
X119857142Y-157670833D01*
X119904761Y-157718452D01*
X119952380Y-157813690D01*
X119952380Y-157908928D01*
X119904761Y-158004166D01*
X119857142Y-158051785D01*
X119761904Y-158099404D01*
X119571428Y-158147023D01*
X119333333Y-158147023D01*
X119142857Y-158099404D01*
X119047619Y-158051785D01*
X119000000Y-158004166D01*
X118952380Y-157908928D01*
G04 #@! TO.C,C10*
X120457142Y-147457142D02*
X120409523Y-147504761D01*
X120266666Y-147552380D01*
X120171428Y-147552380D01*
X120028571Y-147504761D01*
X119933333Y-147409523D01*
X119885714Y-147314285D01*
X119838095Y-147123809D01*
X119838095Y-146980952D01*
X119885714Y-146790476D01*
X119933333Y-146695238D01*
X120028571Y-146600000D01*
X120171428Y-146552380D01*
X120266666Y-146552380D01*
X120409523Y-146600000D01*
X120457142Y-146647619D01*
X121409523Y-147552380D02*
X120838095Y-147552380D01*
X121123809Y-147552380D02*
X121123809Y-146552380D01*
X121028571Y-146695238D01*
X120933333Y-146790476D01*
X120838095Y-146838095D01*
X122028571Y-146552380D02*
X122123809Y-146552380D01*
X122219047Y-146600000D01*
X122266666Y-146647619D01*
X122314285Y-146742857D01*
X122361904Y-146933333D01*
X122361904Y-147171428D01*
X122314285Y-147361904D01*
X122266666Y-147457142D01*
X122219047Y-147504761D01*
X122123809Y-147552380D01*
X122028571Y-147552380D01*
X121933333Y-147504761D01*
X121885714Y-147457142D01*
X121838095Y-147361904D01*
X121790476Y-147171428D01*
X121790476Y-146933333D01*
X121838095Y-146742857D01*
X121885714Y-146647619D01*
X121933333Y-146600000D01*
X122028571Y-146552380D01*
G04 #@! TO.C,J1*
X113666666Y-162902380D02*
X113666666Y-163616666D01*
X113619047Y-163759523D01*
X113523809Y-163854761D01*
X113380952Y-163902380D01*
X113285714Y-163902380D01*
X114666666Y-163902380D02*
X114095238Y-163902380D01*
X114380952Y-163902380D02*
X114380952Y-162902380D01*
X114285714Y-163045238D01*
X114190476Y-163140476D01*
X114095238Y-163188095D01*
G04 #@! TO.C,R2*
X132233333Y-104222380D02*
X131900000Y-103746190D01*
X131661904Y-104222380D02*
X131661904Y-103222380D01*
X132042857Y-103222380D01*
X132138095Y-103270000D01*
X132185714Y-103317619D01*
X132233333Y-103412857D01*
X132233333Y-103555714D01*
X132185714Y-103650952D01*
X132138095Y-103698571D01*
X132042857Y-103746190D01*
X131661904Y-103746190D01*
X132614285Y-103317619D02*
X132661904Y-103270000D01*
X132757142Y-103222380D01*
X132995238Y-103222380D01*
X133090476Y-103270000D01*
X133138095Y-103317619D01*
X133185714Y-103412857D01*
X133185714Y-103508095D01*
X133138095Y-103650952D01*
X132566666Y-104222380D01*
X133185714Y-104222380D01*
G04 #@! TO.C,R5*
X132233333Y-108352380D02*
X131900000Y-107876190D01*
X131661904Y-108352380D02*
X131661904Y-107352380D01*
X132042857Y-107352380D01*
X132138095Y-107400000D01*
X132185714Y-107447619D01*
X132233333Y-107542857D01*
X132233333Y-107685714D01*
X132185714Y-107780952D01*
X132138095Y-107828571D01*
X132042857Y-107876190D01*
X131661904Y-107876190D01*
X133138095Y-107352380D02*
X132661904Y-107352380D01*
X132614285Y-107828571D01*
X132661904Y-107780952D01*
X132757142Y-107733333D01*
X132995238Y-107733333D01*
X133090476Y-107780952D01*
X133138095Y-107828571D01*
X133185714Y-107923809D01*
X133185714Y-108161904D01*
X133138095Y-108257142D01*
X133090476Y-108304761D01*
X132995238Y-108352380D01*
X132757142Y-108352380D01*
X132661904Y-108304761D01*
X132614285Y-108257142D01*
G04 #@! TO.C,SW1*
X148066666Y-101704761D02*
X148209523Y-101752380D01*
X148447619Y-101752380D01*
X148542857Y-101704761D01*
X148590476Y-101657142D01*
X148638095Y-101561904D01*
X148638095Y-101466666D01*
X148590476Y-101371428D01*
X148542857Y-101323809D01*
X148447619Y-101276190D01*
X148257142Y-101228571D01*
X148161904Y-101180952D01*
X148114285Y-101133333D01*
X148066666Y-101038095D01*
X148066666Y-100942857D01*
X148114285Y-100847619D01*
X148161904Y-100800000D01*
X148257142Y-100752380D01*
X148495238Y-100752380D01*
X148638095Y-100800000D01*
X148971428Y-100752380D02*
X149209523Y-101752380D01*
X149400000Y-101038095D01*
X149590476Y-101752380D01*
X149828571Y-100752380D01*
X150733333Y-101752380D02*
X150161904Y-101752380D01*
X150447619Y-101752380D02*
X150447619Y-100752380D01*
X150352380Y-100895238D01*
X150257142Y-100990476D01*
X150161904Y-101038095D01*
G04 #@! TO.C,C15*
X128557142Y-151842857D02*
X128604761Y-151890476D01*
X128652380Y-152033333D01*
X128652380Y-152128571D01*
X128604761Y-152271428D01*
X128509523Y-152366666D01*
X128414285Y-152414285D01*
X128223809Y-152461904D01*
X128080952Y-152461904D01*
X127890476Y-152414285D01*
X127795238Y-152366666D01*
X127700000Y-152271428D01*
X127652380Y-152128571D01*
X127652380Y-152033333D01*
X127700000Y-151890476D01*
X127747619Y-151842857D01*
X128652380Y-150890476D02*
X128652380Y-151461904D01*
X128652380Y-151176190D02*
X127652380Y-151176190D01*
X127795238Y-151271428D01*
X127890476Y-151366666D01*
X127938095Y-151461904D01*
X127652380Y-149985714D02*
X127652380Y-150461904D01*
X128128571Y-150509523D01*
X128080952Y-150461904D01*
X128033333Y-150366666D01*
X128033333Y-150128571D01*
X128080952Y-150033333D01*
X128128571Y-149985714D01*
X128223809Y-149938095D01*
X128461904Y-149938095D01*
X128557142Y-149985714D01*
X128604761Y-150033333D01*
X128652380Y-150128571D01*
X128652380Y-150366666D01*
X128604761Y-150461904D01*
X128557142Y-150509523D01*
G04 #@! TO.C,C1*
X109583333Y-159927142D02*
X109535714Y-159974761D01*
X109392857Y-160022380D01*
X109297619Y-160022380D01*
X109154761Y-159974761D01*
X109059523Y-159879523D01*
X109011904Y-159784285D01*
X108964285Y-159593809D01*
X108964285Y-159450952D01*
X109011904Y-159260476D01*
X109059523Y-159165238D01*
X109154761Y-159070000D01*
X109297619Y-159022380D01*
X109392857Y-159022380D01*
X109535714Y-159070000D01*
X109583333Y-159117619D01*
X110535714Y-160022380D02*
X109964285Y-160022380D01*
X110250000Y-160022380D02*
X110250000Y-159022380D01*
X110154761Y-159165238D01*
X110059523Y-159260476D01*
X109964285Y-159308095D01*
G04 #@! TO.C,U6*
X129238095Y-170902380D02*
X129238095Y-171711904D01*
X129285714Y-171807142D01*
X129333333Y-171854761D01*
X129428571Y-171902380D01*
X129619047Y-171902380D01*
X129714285Y-171854761D01*
X129761904Y-171807142D01*
X129809523Y-171711904D01*
X129809523Y-170902380D01*
X130714285Y-170902380D02*
X130523809Y-170902380D01*
X130428571Y-170950000D01*
X130380952Y-170997619D01*
X130285714Y-171140476D01*
X130238095Y-171330952D01*
X130238095Y-171711904D01*
X130285714Y-171807142D01*
X130333333Y-171854761D01*
X130428571Y-171902380D01*
X130619047Y-171902380D01*
X130714285Y-171854761D01*
X130761904Y-171807142D01*
X130809523Y-171711904D01*
X130809523Y-171473809D01*
X130761904Y-171378571D01*
X130714285Y-171330952D01*
X130619047Y-171283333D01*
X130428571Y-171283333D01*
X130333333Y-171330952D01*
X130285714Y-171378571D01*
X130238095Y-171473809D01*
G04 #@! TO.C,R6*
X135502380Y-163686666D02*
X135026190Y-164020000D01*
X135502380Y-164258095D02*
X134502380Y-164258095D01*
X134502380Y-163877142D01*
X134550000Y-163781904D01*
X134597619Y-163734285D01*
X134692857Y-163686666D01*
X134835714Y-163686666D01*
X134930952Y-163734285D01*
X134978571Y-163781904D01*
X135026190Y-163877142D01*
X135026190Y-164258095D01*
X134502380Y-162829523D02*
X134502380Y-163020000D01*
X134550000Y-163115238D01*
X134597619Y-163162857D01*
X134740476Y-163258095D01*
X134930952Y-163305714D01*
X135311904Y-163305714D01*
X135407142Y-163258095D01*
X135454761Y-163210476D01*
X135502380Y-163115238D01*
X135502380Y-162924761D01*
X135454761Y-162829523D01*
X135407142Y-162781904D01*
X135311904Y-162734285D01*
X135073809Y-162734285D01*
X134978571Y-162781904D01*
X134930952Y-162829523D01*
X134883333Y-162924761D01*
X134883333Y-163115238D01*
X134930952Y-163210476D01*
X134978571Y-163258095D01*
X135073809Y-163305714D01*
G04 #@! TO.C,D2*
X131902380Y-164638095D02*
X130902380Y-164638095D01*
X130902380Y-164400000D01*
X130950000Y-164257142D01*
X131045238Y-164161904D01*
X131140476Y-164114285D01*
X131330952Y-164066666D01*
X131473809Y-164066666D01*
X131664285Y-164114285D01*
X131759523Y-164161904D01*
X131854761Y-164257142D01*
X131902380Y-164400000D01*
X131902380Y-164638095D01*
X130997619Y-163685714D02*
X130950000Y-163638095D01*
X130902380Y-163542857D01*
X130902380Y-163304761D01*
X130950000Y-163209523D01*
X130997619Y-163161904D01*
X131092857Y-163114285D01*
X131188095Y-163114285D01*
X131330952Y-163161904D01*
X131902380Y-163733333D01*
X131902380Y-163114285D01*
G04 #@! TO.C,U5*
X100952380Y-134261904D02*
X101761904Y-134261904D01*
X101857142Y-134214285D01*
X101904761Y-134166666D01*
X101952380Y-134071428D01*
X101952380Y-133880952D01*
X101904761Y-133785714D01*
X101857142Y-133738095D01*
X101761904Y-133690476D01*
X100952380Y-133690476D01*
X100952380Y-132738095D02*
X100952380Y-133214285D01*
X101428571Y-133261904D01*
X101380952Y-133214285D01*
X101333333Y-133119047D01*
X101333333Y-132880952D01*
X101380952Y-132785714D01*
X101428571Y-132738095D01*
X101523809Y-132690476D01*
X101761904Y-132690476D01*
X101857142Y-132738095D01*
X101904761Y-132785714D01*
X101952380Y-132880952D01*
X101952380Y-133119047D01*
X101904761Y-133214285D01*
X101857142Y-133261904D01*
G04 #@! TO.C,U3*
X151452380Y-160011904D02*
X152261904Y-160011904D01*
X152357142Y-159964285D01*
X152404761Y-159916666D01*
X152452380Y-159821428D01*
X152452380Y-159630952D01*
X152404761Y-159535714D01*
X152357142Y-159488095D01*
X152261904Y-159440476D01*
X151452380Y-159440476D01*
X151452380Y-159059523D02*
X151452380Y-158440476D01*
X151833333Y-158773809D01*
X151833333Y-158630952D01*
X151880952Y-158535714D01*
X151928571Y-158488095D01*
X152023809Y-158440476D01*
X152261904Y-158440476D01*
X152357142Y-158488095D01*
X152404761Y-158535714D01*
X152452380Y-158630952D01*
X152452380Y-158916666D01*
X152404761Y-159011904D01*
X152357142Y-159059523D01*
G04 #@! TO.C,U4*
X115202380Y-142511904D02*
X116011904Y-142511904D01*
X116107142Y-142464285D01*
X116154761Y-142416666D01*
X116202380Y-142321428D01*
X116202380Y-142130952D01*
X116154761Y-142035714D01*
X116107142Y-141988095D01*
X116011904Y-141940476D01*
X115202380Y-141940476D01*
X115535714Y-141035714D02*
X116202380Y-141035714D01*
X115154761Y-141273809D02*
X115869047Y-141511904D01*
X115869047Y-140892857D01*
G04 #@! TO.C,C11*
X128357142Y-158742857D02*
X128404761Y-158790476D01*
X128452380Y-158933333D01*
X128452380Y-159028571D01*
X128404761Y-159171428D01*
X128309523Y-159266666D01*
X128214285Y-159314285D01*
X128023809Y-159361904D01*
X127880952Y-159361904D01*
X127690476Y-159314285D01*
X127595238Y-159266666D01*
X127500000Y-159171428D01*
X127452380Y-159028571D01*
X127452380Y-158933333D01*
X127500000Y-158790476D01*
X127547619Y-158742857D01*
X128452380Y-157790476D02*
X128452380Y-158361904D01*
X128452380Y-158076190D02*
X127452380Y-158076190D01*
X127595238Y-158171428D01*
X127690476Y-158266666D01*
X127738095Y-158361904D01*
X128452380Y-156838095D02*
X128452380Y-157409523D01*
X128452380Y-157123809D02*
X127452380Y-157123809D01*
X127595238Y-157219047D01*
X127690476Y-157314285D01*
X127738095Y-157409523D01*
G04 #@! TO.C,R1*
X136633333Y-113052380D02*
X136300000Y-112576190D01*
X136061904Y-113052380D02*
X136061904Y-112052380D01*
X136442857Y-112052380D01*
X136538095Y-112100000D01*
X136585714Y-112147619D01*
X136633333Y-112242857D01*
X136633333Y-112385714D01*
X136585714Y-112480952D01*
X136538095Y-112528571D01*
X136442857Y-112576190D01*
X136061904Y-112576190D01*
X137585714Y-113052380D02*
X137014285Y-113052380D01*
X137300000Y-113052380D02*
X137300000Y-112052380D01*
X137204761Y-112195238D01*
X137109523Y-112290476D01*
X137014285Y-112338095D01*
G04 #@! TO.C,R12*
X153352380Y-168042857D02*
X152876190Y-168376190D01*
X153352380Y-168614285D02*
X152352380Y-168614285D01*
X152352380Y-168233333D01*
X152400000Y-168138095D01*
X152447619Y-168090476D01*
X152542857Y-168042857D01*
X152685714Y-168042857D01*
X152780952Y-168090476D01*
X152828571Y-168138095D01*
X152876190Y-168233333D01*
X152876190Y-168614285D01*
X153352380Y-167090476D02*
X153352380Y-167661904D01*
X153352380Y-167376190D02*
X152352380Y-167376190D01*
X152495238Y-167471428D01*
X152590476Y-167566666D01*
X152638095Y-167661904D01*
X152447619Y-166709523D02*
X152400000Y-166661904D01*
X152352380Y-166566666D01*
X152352380Y-166328571D01*
X152400000Y-166233333D01*
X152447619Y-166185714D01*
X152542857Y-166138095D01*
X152638095Y-166138095D01*
X152780952Y-166185714D01*
X153352380Y-166757142D01*
X153352380Y-166138095D01*
G04 #@! TO.C,C5*
X132233333Y-112957142D02*
X132185714Y-113004761D01*
X132042857Y-113052380D01*
X131947619Y-113052380D01*
X131804761Y-113004761D01*
X131709523Y-112909523D01*
X131661904Y-112814285D01*
X131614285Y-112623809D01*
X131614285Y-112480952D01*
X131661904Y-112290476D01*
X131709523Y-112195238D01*
X131804761Y-112100000D01*
X131947619Y-112052380D01*
X132042857Y-112052380D01*
X132185714Y-112100000D01*
X132233333Y-112147619D01*
X133138095Y-112052380D02*
X132661904Y-112052380D01*
X132614285Y-112528571D01*
X132661904Y-112480952D01*
X132757142Y-112433333D01*
X132995238Y-112433333D01*
X133090476Y-112480952D01*
X133138095Y-112528571D01*
X133185714Y-112623809D01*
X133185714Y-112861904D01*
X133138095Y-112957142D01*
X133090476Y-113004761D01*
X132995238Y-113052380D01*
X132757142Y-113052380D01*
X132661904Y-113004761D01*
X132614285Y-112957142D01*
G04 #@! TO.C,C16*
X140557142Y-108157142D02*
X140509523Y-108204761D01*
X140366666Y-108252380D01*
X140271428Y-108252380D01*
X140128571Y-108204761D01*
X140033333Y-108109523D01*
X139985714Y-108014285D01*
X139938095Y-107823809D01*
X139938095Y-107680952D01*
X139985714Y-107490476D01*
X140033333Y-107395238D01*
X140128571Y-107300000D01*
X140271428Y-107252380D01*
X140366666Y-107252380D01*
X140509523Y-107300000D01*
X140557142Y-107347619D01*
X141509523Y-108252380D02*
X140938095Y-108252380D01*
X141223809Y-108252380D02*
X141223809Y-107252380D01*
X141128571Y-107395238D01*
X141033333Y-107490476D01*
X140938095Y-107538095D01*
X142366666Y-107252380D02*
X142176190Y-107252380D01*
X142080952Y-107300000D01*
X142033333Y-107347619D01*
X141938095Y-107490476D01*
X141890476Y-107680952D01*
X141890476Y-108061904D01*
X141938095Y-108157142D01*
X141985714Y-108204761D01*
X142080952Y-108252380D01*
X142271428Y-108252380D01*
X142366666Y-108204761D01*
X142414285Y-108157142D01*
X142461904Y-108061904D01*
X142461904Y-107823809D01*
X142414285Y-107728571D01*
X142366666Y-107680952D01*
X142271428Y-107633333D01*
X142080952Y-107633333D01*
X141985714Y-107680952D01*
X141938095Y-107728571D01*
X141890476Y-107823809D01*
G04 #@! TO.C,U1*
X100702380Y-122511904D02*
X101511904Y-122511904D01*
X101607142Y-122464285D01*
X101654761Y-122416666D01*
X101702380Y-122321428D01*
X101702380Y-122130952D01*
X101654761Y-122035714D01*
X101607142Y-121988095D01*
X101511904Y-121940476D01*
X100702380Y-121940476D01*
X101702380Y-120940476D02*
X101702380Y-121511904D01*
X101702380Y-121226190D02*
X100702380Y-121226190D01*
X100845238Y-121321428D01*
X100940476Y-121416666D01*
X100988095Y-121511904D01*
G04 #@! TO.C,J3*
X130666666Y-173631880D02*
X130666666Y-174346166D01*
X130619047Y-174489023D01*
X130523809Y-174584261D01*
X130380952Y-174631880D01*
X130285714Y-174631880D01*
X131047619Y-173631880D02*
X131666666Y-173631880D01*
X131333333Y-174012833D01*
X131476190Y-174012833D01*
X131571428Y-174060452D01*
X131619047Y-174108071D01*
X131666666Y-174203309D01*
X131666666Y-174441404D01*
X131619047Y-174536642D01*
X131571428Y-174584261D01*
X131476190Y-174631880D01*
X131190476Y-174631880D01*
X131095238Y-174584261D01*
X131047619Y-174536642D01*
G04 #@! TO.C,R4*
X128702380Y-92166666D02*
X128226190Y-92500000D01*
X128702380Y-92738095D02*
X127702380Y-92738095D01*
X127702380Y-92357142D01*
X127750000Y-92261904D01*
X127797619Y-92214285D01*
X127892857Y-92166666D01*
X128035714Y-92166666D01*
X128130952Y-92214285D01*
X128178571Y-92261904D01*
X128226190Y-92357142D01*
X128226190Y-92738095D01*
X128035714Y-91309523D02*
X128702380Y-91309523D01*
X127654761Y-91547619D02*
X128369047Y-91785714D01*
X128369047Y-91166666D01*
G04 #@! TO.C,C13*
X111157142Y-134142857D02*
X111204761Y-134190476D01*
X111252380Y-134333333D01*
X111252380Y-134428571D01*
X111204761Y-134571428D01*
X111109523Y-134666666D01*
X111014285Y-134714285D01*
X110823809Y-134761904D01*
X110680952Y-134761904D01*
X110490476Y-134714285D01*
X110395238Y-134666666D01*
X110300000Y-134571428D01*
X110252380Y-134428571D01*
X110252380Y-134333333D01*
X110300000Y-134190476D01*
X110347619Y-134142857D01*
X111252380Y-133190476D02*
X111252380Y-133761904D01*
X111252380Y-133476190D02*
X110252380Y-133476190D01*
X110395238Y-133571428D01*
X110490476Y-133666666D01*
X110538095Y-133761904D01*
X110252380Y-132857142D02*
X110252380Y-132238095D01*
X110633333Y-132571428D01*
X110633333Y-132428571D01*
X110680952Y-132333333D01*
X110728571Y-132285714D01*
X110823809Y-132238095D01*
X111061904Y-132238095D01*
X111157142Y-132285714D01*
X111204761Y-132333333D01*
X111252380Y-132428571D01*
X111252380Y-132714285D01*
X111204761Y-132809523D01*
X111157142Y-132857142D01*
G04 #@! TO.C,R8*
X116252380Y-133666666D02*
X115776190Y-134000000D01*
X116252380Y-134238095D02*
X115252380Y-134238095D01*
X115252380Y-133857142D01*
X115300000Y-133761904D01*
X115347619Y-133714285D01*
X115442857Y-133666666D01*
X115585714Y-133666666D01*
X115680952Y-133714285D01*
X115728571Y-133761904D01*
X115776190Y-133857142D01*
X115776190Y-134238095D01*
X115680952Y-133095238D02*
X115633333Y-133190476D01*
X115585714Y-133238095D01*
X115490476Y-133285714D01*
X115442857Y-133285714D01*
X115347619Y-133238095D01*
X115300000Y-133190476D01*
X115252380Y-133095238D01*
X115252380Y-132904761D01*
X115300000Y-132809523D01*
X115347619Y-132761904D01*
X115442857Y-132714285D01*
X115490476Y-132714285D01*
X115585714Y-132761904D01*
X115633333Y-132809523D01*
X115680952Y-132904761D01*
X115680952Y-133095238D01*
X115728571Y-133190476D01*
X115776190Y-133238095D01*
X115871428Y-133285714D01*
X116061904Y-133285714D01*
X116157142Y-133238095D01*
X116204761Y-133190476D01*
X116252380Y-133095238D01*
X116252380Y-132904761D01*
X116204761Y-132809523D01*
X116157142Y-132761904D01*
X116061904Y-132714285D01*
X115871428Y-132714285D01*
X115776190Y-132761904D01*
X115728571Y-132809523D01*
X115680952Y-132904761D01*
G04 #@! TO.C,R11*
X112857142Y-145652380D02*
X112523809Y-145176190D01*
X112285714Y-145652380D02*
X112285714Y-144652380D01*
X112666666Y-144652380D01*
X112761904Y-144700000D01*
X112809523Y-144747619D01*
X112857142Y-144842857D01*
X112857142Y-144985714D01*
X112809523Y-145080952D01*
X112761904Y-145128571D01*
X112666666Y-145176190D01*
X112285714Y-145176190D01*
X113809523Y-145652380D02*
X113238095Y-145652380D01*
X113523809Y-145652380D02*
X113523809Y-144652380D01*
X113428571Y-144795238D01*
X113333333Y-144890476D01*
X113238095Y-144938095D01*
X114761904Y-145652380D02*
X114190476Y-145652380D01*
X114476190Y-145652380D02*
X114476190Y-144652380D01*
X114380952Y-144795238D01*
X114285714Y-144890476D01*
X114190476Y-144938095D01*
G04 #@! TO.C,Q3*
X109547619Y-141345238D02*
X109500000Y-141440476D01*
X109404761Y-141535714D01*
X109261904Y-141678571D01*
X109214285Y-141773809D01*
X109214285Y-141869047D01*
X109452380Y-141821428D02*
X109404761Y-141916666D01*
X109309523Y-142011904D01*
X109119047Y-142059523D01*
X108785714Y-142059523D01*
X108595238Y-142011904D01*
X108500000Y-141916666D01*
X108452380Y-141821428D01*
X108452380Y-141630952D01*
X108500000Y-141535714D01*
X108595238Y-141440476D01*
X108785714Y-141392857D01*
X109119047Y-141392857D01*
X109309523Y-141440476D01*
X109404761Y-141535714D01*
X109452380Y-141630952D01*
X109452380Y-141821428D01*
X108452380Y-141059523D02*
X108452380Y-140440476D01*
X108833333Y-140773809D01*
X108833333Y-140630952D01*
X108880952Y-140535714D01*
X108928571Y-140488095D01*
X109023809Y-140440476D01*
X109261904Y-140440476D01*
X109357142Y-140488095D01*
X109404761Y-140535714D01*
X109452380Y-140630952D01*
X109452380Y-140916666D01*
X109404761Y-141011904D01*
X109357142Y-141059523D01*
G04 #@! TO.C,U2*
X108988095Y-151802380D02*
X108988095Y-152611904D01*
X109035714Y-152707142D01*
X109083333Y-152754761D01*
X109178571Y-152802380D01*
X109369047Y-152802380D01*
X109464285Y-152754761D01*
X109511904Y-152707142D01*
X109559523Y-152611904D01*
X109559523Y-151802380D01*
X109988095Y-151897619D02*
X110035714Y-151850000D01*
X110130952Y-151802380D01*
X110369047Y-151802380D01*
X110464285Y-151850000D01*
X110511904Y-151897619D01*
X110559523Y-151992857D01*
X110559523Y-152088095D01*
X110511904Y-152230952D01*
X109940476Y-152802380D01*
X110559523Y-152802380D01*
G04 #@! TO.C,Q1*
X135654761Y-90797619D02*
X135559523Y-90750000D01*
X135464285Y-90654761D01*
X135321428Y-90511904D01*
X135226190Y-90464285D01*
X135130952Y-90464285D01*
X135178571Y-90702380D02*
X135083333Y-90654761D01*
X134988095Y-90559523D01*
X134940476Y-90369047D01*
X134940476Y-90035714D01*
X134988095Y-89845238D01*
X135083333Y-89750000D01*
X135178571Y-89702380D01*
X135369047Y-89702380D01*
X135464285Y-89750000D01*
X135559523Y-89845238D01*
X135607142Y-90035714D01*
X135607142Y-90369047D01*
X135559523Y-90559523D01*
X135464285Y-90654761D01*
X135369047Y-90702380D01*
X135178571Y-90702380D01*
X136559523Y-90702380D02*
X135988095Y-90702380D01*
X136273809Y-90702380D02*
X136273809Y-89702380D01*
X136178571Y-89845238D01*
X136083333Y-89940476D01*
X135988095Y-89988095D01*
G04 #@! TO.C,C8*
X120933333Y-149957142D02*
X120885714Y-150004761D01*
X120742857Y-150052380D01*
X120647619Y-150052380D01*
X120504761Y-150004761D01*
X120409523Y-149909523D01*
X120361904Y-149814285D01*
X120314285Y-149623809D01*
X120314285Y-149480952D01*
X120361904Y-149290476D01*
X120409523Y-149195238D01*
X120504761Y-149100000D01*
X120647619Y-149052380D01*
X120742857Y-149052380D01*
X120885714Y-149100000D01*
X120933333Y-149147619D01*
X121504761Y-149480952D02*
X121409523Y-149433333D01*
X121361904Y-149385714D01*
X121314285Y-149290476D01*
X121314285Y-149242857D01*
X121361904Y-149147619D01*
X121409523Y-149100000D01*
X121504761Y-149052380D01*
X121695238Y-149052380D01*
X121790476Y-149100000D01*
X121838095Y-149147619D01*
X121885714Y-149242857D01*
X121885714Y-149290476D01*
X121838095Y-149385714D01*
X121790476Y-149433333D01*
X121695238Y-149480952D01*
X121504761Y-149480952D01*
X121409523Y-149528571D01*
X121361904Y-149576190D01*
X121314285Y-149671428D01*
X121314285Y-149861904D01*
X121361904Y-149957142D01*
X121409523Y-150004761D01*
X121504761Y-150052380D01*
X121695238Y-150052380D01*
X121790476Y-150004761D01*
X121838095Y-149957142D01*
X121885714Y-149861904D01*
X121885714Y-149671428D01*
X121838095Y-149576190D01*
X121790476Y-149528571D01*
X121695238Y-149480952D01*
G04 #@! TO.C,R7*
X125333333Y-138752380D02*
X125000000Y-138276190D01*
X124761904Y-138752380D02*
X124761904Y-137752380D01*
X125142857Y-137752380D01*
X125238095Y-137800000D01*
X125285714Y-137847619D01*
X125333333Y-137942857D01*
X125333333Y-138085714D01*
X125285714Y-138180952D01*
X125238095Y-138228571D01*
X125142857Y-138276190D01*
X124761904Y-138276190D01*
X125666666Y-137752380D02*
X126333333Y-137752380D01*
X125904761Y-138752380D01*
G04 #@! TO.C,R3*
X106083333Y-152882380D02*
X105750000Y-152406190D01*
X105511904Y-152882380D02*
X105511904Y-151882380D01*
X105892857Y-151882380D01*
X105988095Y-151930000D01*
X106035714Y-151977619D01*
X106083333Y-152072857D01*
X106083333Y-152215714D01*
X106035714Y-152310952D01*
X105988095Y-152358571D01*
X105892857Y-152406190D01*
X105511904Y-152406190D01*
X106416666Y-151882380D02*
X107035714Y-151882380D01*
X106702380Y-152263333D01*
X106845238Y-152263333D01*
X106940476Y-152310952D01*
X106988095Y-152358571D01*
X107035714Y-152453809D01*
X107035714Y-152691904D01*
X106988095Y-152787142D01*
X106940476Y-152834761D01*
X106845238Y-152882380D01*
X106559523Y-152882380D01*
X106464285Y-152834761D01*
X106416666Y-152787142D01*
G04 #@! TO.C,R9*
X125133333Y-142952380D02*
X124800000Y-142476190D01*
X124561904Y-142952380D02*
X124561904Y-141952380D01*
X124942857Y-141952380D01*
X125038095Y-142000000D01*
X125085714Y-142047619D01*
X125133333Y-142142857D01*
X125133333Y-142285714D01*
X125085714Y-142380952D01*
X125038095Y-142428571D01*
X124942857Y-142476190D01*
X124561904Y-142476190D01*
X125609523Y-142952380D02*
X125800000Y-142952380D01*
X125895238Y-142904761D01*
X125942857Y-142857142D01*
X126038095Y-142714285D01*
X126085714Y-142523809D01*
X126085714Y-142142857D01*
X126038095Y-142047619D01*
X125990476Y-142000000D01*
X125895238Y-141952380D01*
X125704761Y-141952380D01*
X125609523Y-142000000D01*
X125561904Y-142047619D01*
X125514285Y-142142857D01*
X125514285Y-142380952D01*
X125561904Y-142476190D01*
X125609523Y-142523809D01*
X125704761Y-142571428D01*
X125895238Y-142571428D01*
X125990476Y-142523809D01*
X126038095Y-142476190D01*
X126085714Y-142380952D01*
G04 #@! TO.C,J2*
X144266666Y-160932380D02*
X144266666Y-161646666D01*
X144219047Y-161789523D01*
X144123809Y-161884761D01*
X143980952Y-161932380D01*
X143885714Y-161932380D01*
X144695238Y-161027619D02*
X144742857Y-160980000D01*
X144838095Y-160932380D01*
X145076190Y-160932380D01*
X145171428Y-160980000D01*
X145219047Y-161027619D01*
X145266666Y-161122857D01*
X145266666Y-161218095D01*
X145219047Y-161360952D01*
X144647619Y-161932380D01*
X145266666Y-161932380D01*
G04 #@! TO.C,D1*
X118952380Y-92838095D02*
X117952380Y-92838095D01*
X117952380Y-92600000D01*
X118000000Y-92457142D01*
X118095238Y-92361904D01*
X118190476Y-92314285D01*
X118380952Y-92266666D01*
X118523809Y-92266666D01*
X118714285Y-92314285D01*
X118809523Y-92361904D01*
X118904761Y-92457142D01*
X118952380Y-92600000D01*
X118952380Y-92838095D01*
X118952380Y-91314285D02*
X118952380Y-91885714D01*
X118952380Y-91600000D02*
X117952380Y-91600000D01*
X118095238Y-91695238D01*
X118190476Y-91790476D01*
X118238095Y-91885714D01*
G04 #@! TO.C,C4*
X126057142Y-92066666D02*
X126104761Y-92114285D01*
X126152380Y-92257142D01*
X126152380Y-92352380D01*
X126104761Y-92495238D01*
X126009523Y-92590476D01*
X125914285Y-92638095D01*
X125723809Y-92685714D01*
X125580952Y-92685714D01*
X125390476Y-92638095D01*
X125295238Y-92590476D01*
X125200000Y-92495238D01*
X125152380Y-92352380D01*
X125152380Y-92257142D01*
X125200000Y-92114285D01*
X125247619Y-92066666D01*
X125485714Y-91209523D02*
X126152380Y-91209523D01*
X125104761Y-91447619D02*
X125819047Y-91685714D01*
X125819047Y-91066666D01*
G04 #@! TO.C,C12*
X104357142Y-142787142D02*
X104309523Y-142834761D01*
X104166666Y-142882380D01*
X104071428Y-142882380D01*
X103928571Y-142834761D01*
X103833333Y-142739523D01*
X103785714Y-142644285D01*
X103738095Y-142453809D01*
X103738095Y-142310952D01*
X103785714Y-142120476D01*
X103833333Y-142025238D01*
X103928571Y-141930000D01*
X104071428Y-141882380D01*
X104166666Y-141882380D01*
X104309523Y-141930000D01*
X104357142Y-141977619D01*
X105309523Y-142882380D02*
X104738095Y-142882380D01*
X105023809Y-142882380D02*
X105023809Y-141882380D01*
X104928571Y-142025238D01*
X104833333Y-142120476D01*
X104738095Y-142168095D01*
X105690476Y-141977619D02*
X105738095Y-141930000D01*
X105833333Y-141882380D01*
X106071428Y-141882380D01*
X106166666Y-141930000D01*
X106214285Y-141977619D01*
X106261904Y-142072857D01*
X106261904Y-142168095D01*
X106214285Y-142310952D01*
X105642857Y-142882380D01*
X106261904Y-142882380D01*
G04 #@! TO.C,C9*
X117957142Y-156266666D02*
X118004761Y-156314285D01*
X118052380Y-156457142D01*
X118052380Y-156552380D01*
X118004761Y-156695238D01*
X117909523Y-156790476D01*
X117814285Y-156838095D01*
X117623809Y-156885714D01*
X117480952Y-156885714D01*
X117290476Y-156838095D01*
X117195238Y-156790476D01*
X117100000Y-156695238D01*
X117052380Y-156552380D01*
X117052380Y-156457142D01*
X117100000Y-156314285D01*
X117147619Y-156266666D01*
X118052380Y-155790476D02*
X118052380Y-155600000D01*
X118004761Y-155504761D01*
X117957142Y-155457142D01*
X117814285Y-155361904D01*
X117623809Y-155314285D01*
X117242857Y-155314285D01*
X117147619Y-155361904D01*
X117100000Y-155409523D01*
X117052380Y-155504761D01*
X117052380Y-155695238D01*
X117100000Y-155790476D01*
X117147619Y-155838095D01*
X117242857Y-155885714D01*
X117480952Y-155885714D01*
X117576190Y-155838095D01*
X117623809Y-155790476D01*
X117671428Y-155695238D01*
X117671428Y-155504761D01*
X117623809Y-155409523D01*
X117576190Y-155361904D01*
X117480952Y-155314285D01*
G04 #@! TO.C,C6*
X112057142Y-124820399D02*
X112104761Y-124868018D01*
X112152380Y-125010875D01*
X112152380Y-125106113D01*
X112104761Y-125248971D01*
X112009523Y-125344209D01*
X111914285Y-125391828D01*
X111723809Y-125439447D01*
X111580952Y-125439447D01*
X111390476Y-125391828D01*
X111295238Y-125344209D01*
X111200000Y-125248971D01*
X111152380Y-125106113D01*
X111152380Y-125010875D01*
X111200000Y-124868018D01*
X111247619Y-124820399D01*
X111152380Y-123963256D02*
X111152380Y-124153733D01*
X111200000Y-124248971D01*
X111247619Y-124296590D01*
X111390476Y-124391828D01*
X111580952Y-124439447D01*
X111961904Y-124439447D01*
X112057142Y-124391828D01*
X112104761Y-124344209D01*
X112152380Y-124248971D01*
X112152380Y-124058494D01*
X112104761Y-123963256D01*
X112057142Y-123915637D01*
X111961904Y-123868018D01*
X111723809Y-123868018D01*
X111628571Y-123915637D01*
X111580952Y-123963256D01*
X111533333Y-124058494D01*
X111533333Y-124248971D01*
X111580952Y-124344209D01*
X111628571Y-124391828D01*
X111723809Y-124439447D01*
G04 #@! TO.C,SW3*
X148166666Y-113604761D02*
X148309523Y-113652380D01*
X148547619Y-113652380D01*
X148642857Y-113604761D01*
X148690476Y-113557142D01*
X148738095Y-113461904D01*
X148738095Y-113366666D01*
X148690476Y-113271428D01*
X148642857Y-113223809D01*
X148547619Y-113176190D01*
X148357142Y-113128571D01*
X148261904Y-113080952D01*
X148214285Y-113033333D01*
X148166666Y-112938095D01*
X148166666Y-112842857D01*
X148214285Y-112747619D01*
X148261904Y-112700000D01*
X148357142Y-112652380D01*
X148595238Y-112652380D01*
X148738095Y-112700000D01*
X149071428Y-112652380D02*
X149309523Y-113652380D01*
X149500000Y-112938095D01*
X149690476Y-113652380D01*
X149928571Y-112652380D01*
X150214285Y-112652380D02*
X150833333Y-112652380D01*
X150500000Y-113033333D01*
X150642857Y-113033333D01*
X150738095Y-113080952D01*
X150785714Y-113128571D01*
X150833333Y-113223809D01*
X150833333Y-113461904D01*
X150785714Y-113557142D01*
X150738095Y-113604761D01*
X150642857Y-113652380D01*
X150357142Y-113652380D01*
X150261904Y-113604761D01*
X150214285Y-113557142D01*
X145628571Y-108957142D02*
X145676190Y-108814285D01*
X145723809Y-108766666D01*
X145819047Y-108719047D01*
X145961904Y-108719047D01*
X146057142Y-108766666D01*
X146104761Y-108814285D01*
X146152380Y-108909523D01*
X146152380Y-109290476D01*
X145152380Y-109290476D01*
X145152380Y-108957142D01*
X145200000Y-108861904D01*
X145247619Y-108814285D01*
X145342857Y-108766666D01*
X145438095Y-108766666D01*
X145533333Y-108814285D01*
X145580952Y-108861904D01*
X145628571Y-108957142D01*
X145628571Y-109290476D01*
X145152380Y-108100000D02*
X145152380Y-107909523D01*
X145200000Y-107814285D01*
X145295238Y-107719047D01*
X145485714Y-107671428D01*
X145819047Y-107671428D01*
X146009523Y-107719047D01*
X146104761Y-107814285D01*
X146152380Y-107909523D01*
X146152380Y-108100000D01*
X146104761Y-108195238D01*
X146009523Y-108290476D01*
X145819047Y-108338095D01*
X145485714Y-108338095D01*
X145295238Y-108290476D01*
X145200000Y-108195238D01*
X145152380Y-108100000D01*
X145152380Y-107052380D02*
X145152380Y-106861904D01*
X145200000Y-106766666D01*
X145295238Y-106671428D01*
X145485714Y-106623809D01*
X145819047Y-106623809D01*
X146009523Y-106671428D01*
X146104761Y-106766666D01*
X146152380Y-106861904D01*
X146152380Y-107052380D01*
X146104761Y-107147619D01*
X146009523Y-107242857D01*
X145819047Y-107290476D01*
X145485714Y-107290476D01*
X145295238Y-107242857D01*
X145200000Y-107147619D01*
X145152380Y-107052380D01*
X145152380Y-106338095D02*
X145152380Y-105766666D01*
X146152380Y-106052380D02*
X145152380Y-106052380D01*
G04 #@! TO.C,C7*
X109257142Y-124966666D02*
X109304761Y-125014285D01*
X109352380Y-125157142D01*
X109352380Y-125252380D01*
X109304761Y-125395238D01*
X109209523Y-125490476D01*
X109114285Y-125538095D01*
X108923809Y-125585714D01*
X108780952Y-125585714D01*
X108590476Y-125538095D01*
X108495238Y-125490476D01*
X108400000Y-125395238D01*
X108352380Y-125252380D01*
X108352380Y-125157142D01*
X108400000Y-125014285D01*
X108447619Y-124966666D01*
X108352380Y-124633333D02*
X108352380Y-123966666D01*
X109352380Y-124395238D01*
G04 #@! TO.C,SW2*
X150966666Y-131404761D02*
X151109523Y-131452380D01*
X151347619Y-131452380D01*
X151442857Y-131404761D01*
X151490476Y-131357142D01*
X151538095Y-131261904D01*
X151538095Y-131166666D01*
X151490476Y-131071428D01*
X151442857Y-131023809D01*
X151347619Y-130976190D01*
X151157142Y-130928571D01*
X151061904Y-130880952D01*
X151014285Y-130833333D01*
X150966666Y-130738095D01*
X150966666Y-130642857D01*
X151014285Y-130547619D01*
X151061904Y-130500000D01*
X151157142Y-130452380D01*
X151395238Y-130452380D01*
X151538095Y-130500000D01*
X151871428Y-130452380D02*
X152109523Y-131452380D01*
X152300000Y-130738095D01*
X152490476Y-131452380D01*
X152728571Y-130452380D01*
X153061904Y-130547619D02*
X153109523Y-130500000D01*
X153204761Y-130452380D01*
X153442857Y-130452380D01*
X153538095Y-130500000D01*
X153585714Y-130547619D01*
X153633333Y-130642857D01*
X153633333Y-130738095D01*
X153585714Y-130880952D01*
X153014285Y-131452380D01*
X153633333Y-131452380D01*
D14*
G04 #@! TO.C,D3*
X152110000Y-171746267D02*
X152110000Y-171453733D01*
X151090000Y-171746267D02*
X151090000Y-171453733D01*
G04 #@! TO.C,C2*
X141053733Y-114510000D02*
X141346267Y-114510000D01*
X141053733Y-113490000D02*
X141346267Y-113490000D01*
G04 #@! TO.C,C3*
X136653733Y-109710000D02*
X136946267Y-109710000D01*
X136653733Y-108690000D02*
X136946267Y-108690000D01*
G04 #@! TO.C,Q2*
X125000000Y-129440000D02*
X124350000Y-129440000D01*
X125000000Y-129440000D02*
X125650000Y-129440000D01*
X125000000Y-132560000D02*
X126675000Y-132560000D01*
X125000000Y-132560000D02*
X124350000Y-132560000D01*
G04 #@! TO.C,C14*
X126010000Y-150853733D02*
X126010000Y-151146267D01*
X124990000Y-150853733D02*
X124990000Y-151146267D01*
G04 #@! TO.C,SW4*
X153530000Y-118205000D02*
X153530000Y-115605000D01*
X153530000Y-118205000D02*
X150870000Y-118205000D01*
X153530000Y-115605000D02*
X150870000Y-115605000D01*
X153530000Y-120805000D02*
X152200000Y-120805000D01*
X153530000Y-119475000D02*
X153530000Y-120805000D01*
X150870000Y-118205000D02*
X150870000Y-115605000D01*
G04 #@! TO.C,R10*
X120477500Y-159254724D02*
X120477500Y-158745276D01*
X121522500Y-159254724D02*
X121522500Y-158745276D01*
G04 #@! TO.C,C10*
X120853733Y-146260000D02*
X121146267Y-146260000D01*
X120853733Y-145240000D02*
X121146267Y-145240000D01*
G04 #@! TO.C,J1*
X120660000Y-171110000D02*
X120660000Y-179220000D01*
X107340000Y-179220000D02*
X106690000Y-179220000D01*
X106690000Y-179740000D02*
X121310000Y-179740000D01*
X121310000Y-179740000D02*
X121310000Y-179220000D01*
X107340000Y-164260000D02*
X107340000Y-167590000D01*
X109600000Y-164040000D02*
X111400000Y-164040000D01*
X121310000Y-179220000D02*
X120660000Y-179220000D01*
X106690000Y-179220000D02*
X106690000Y-179740000D01*
X120660000Y-164260000D02*
X120660000Y-167590000D01*
X107340000Y-179220000D02*
X107340000Y-171110000D01*
X107340000Y-164260000D02*
X120660000Y-164260000D01*
G04 #@! TO.C,R2*
X132145276Y-104677500D02*
X132654724Y-104677500D01*
X132145276Y-105722500D02*
X132654724Y-105722500D01*
G04 #@! TO.C,R5*
X132654724Y-108677500D02*
X132145276Y-108677500D01*
X132654724Y-109722500D02*
X132145276Y-109722500D01*
G04 #@! TO.C,SW1*
X152800000Y-92570000D02*
X152830000Y-92570000D01*
X152830000Y-92570000D02*
X152830000Y-99030000D01*
X146370000Y-99030000D02*
X146400000Y-99030000D01*
X150900000Y-92570000D02*
X148300000Y-92570000D01*
X152830000Y-99030000D02*
X152800000Y-99030000D01*
X146370000Y-92570000D02*
X146370000Y-99030000D01*
X146370000Y-92570000D02*
X146400000Y-92570000D01*
X150900000Y-99030000D02*
X148300000Y-99030000D01*
G04 #@! TO.C,C15*
X128990000Y-151053733D02*
X128990000Y-151346267D01*
X130010000Y-151053733D02*
X130010000Y-151346267D01*
G04 #@! TO.C,C1*
X109603733Y-160490000D02*
X109896267Y-160490000D01*
X109603733Y-161510000D02*
X109896267Y-161510000D01*
G04 #@! TO.C,U6*
X130000000Y-170610000D02*
X132925000Y-170610000D01*
X130000000Y-170610000D02*
X128500000Y-170610000D01*
X130000000Y-167390000D02*
X128500000Y-167390000D01*
X130000000Y-167390000D02*
X131500000Y-167390000D01*
G04 #@! TO.C,R6*
X135957500Y-163774724D02*
X135957500Y-163265276D01*
X137002500Y-163774724D02*
X137002500Y-163265276D01*
G04 #@! TO.C,D2*
X130450000Y-162000000D02*
X130450000Y-165150000D01*
X130450000Y-162000000D02*
X128750000Y-162000000D01*
X128750000Y-162000000D02*
X128750000Y-165150000D01*
G04 #@! TO.C,U5*
X102590000Y-137600000D02*
X102590000Y-131590000D01*
X109410000Y-135350000D02*
X109410000Y-131590000D01*
X109410000Y-131590000D02*
X108150000Y-131590000D01*
X102590000Y-131590000D02*
X103850000Y-131590000D01*
D10*
G04 #@! TO.C,U3*
X152871500Y-158000000D02*
X132871500Y-158000000D01*
X152871500Y-137985000D02*
X132871500Y-137985000D01*
X132871500Y-158000000D02*
X132871500Y-137985000D01*
X147791500Y-158001999D02*
X147791500Y-137989000D01*
X147791500Y-137989000D02*
X152871500Y-137989000D01*
X152871500Y-137989000D02*
X152871500Y-158001999D01*
X152871500Y-158001999D02*
X147791500Y-158001999D01*
D14*
G04 #@! TO.C,U4*
X121172500Y-143860000D02*
X120697500Y-143860000D01*
X116952500Y-140115000D02*
X116952500Y-139640000D01*
X121172500Y-140115000D02*
X121172500Y-139640000D01*
X121172500Y-143385000D02*
X121172500Y-143860000D01*
X116952500Y-143385000D02*
X116952500Y-143860000D01*
X116952500Y-139640000D02*
X117427500Y-139640000D01*
X121172500Y-139640000D02*
X120697500Y-139640000D01*
G04 #@! TO.C,C11*
X130010000Y-158146267D02*
X130010000Y-157853733D01*
X128990000Y-158146267D02*
X128990000Y-157853733D01*
G04 #@! TO.C,R1*
X137054724Y-113477500D02*
X136545276Y-113477500D01*
X137054724Y-114522500D02*
X136545276Y-114522500D01*
G04 #@! TO.C,R12*
X151077500Y-167654724D02*
X151077500Y-167145276D01*
X152122500Y-167654724D02*
X152122500Y-167145276D01*
G04 #@! TO.C,C5*
X132253733Y-114510000D02*
X132546267Y-114510000D01*
X132253733Y-113490000D02*
X132546267Y-113490000D01*
G04 #@! TO.C,C16*
X141346267Y-108690000D02*
X141053733Y-108690000D01*
X141346267Y-109710000D02*
X141053733Y-109710000D01*
G04 #@! TO.C,U1*
X106090000Y-102000000D02*
X106090000Y-120000000D01*
X100150000Y-102000000D02*
X106900000Y-102000000D01*
X124900000Y-120000000D02*
X125650000Y-120000000D01*
X125650000Y-102000000D02*
X125650000Y-103000000D01*
X124900000Y-102000000D02*
X125650000Y-102000000D01*
X100150000Y-120000000D02*
X100150000Y-102000000D01*
X125650000Y-120000000D02*
X125650000Y-119000000D01*
X100150000Y-120000000D02*
X106900000Y-120000000D01*
G04 #@! TO.C,J3*
X129300000Y-174979500D02*
X129300000Y-175429500D01*
X129300000Y-174979500D02*
X129750000Y-174979500D01*
X134900000Y-177379500D02*
X134900000Y-175529500D01*
X134900000Y-175529500D02*
X134450000Y-175529500D01*
X127100000Y-175529500D02*
X127550000Y-175529500D01*
X127100000Y-177379500D02*
X127100000Y-175529500D01*
X127100000Y-179929500D02*
X127100000Y-179679500D01*
X134900000Y-179929500D02*
X134900000Y-179679500D01*
G04 #@! TO.C,R4*
X130022500Y-92254724D02*
X130022500Y-91745276D01*
X128977500Y-92254724D02*
X128977500Y-91745276D01*
G04 #@! TO.C,C13*
X111590000Y-133353733D02*
X111590000Y-133646267D01*
X112610000Y-133353733D02*
X112610000Y-133646267D01*
G04 #@! TO.C,R8*
X116577500Y-133754724D02*
X116577500Y-133245276D01*
X117622500Y-133754724D02*
X117622500Y-133245276D01*
G04 #@! TO.C,R11*
X113754724Y-145977500D02*
X113245276Y-145977500D01*
X113754724Y-147022500D02*
X113245276Y-147022500D01*
G04 #@! TO.C,Q3*
X113060000Y-141250000D02*
X113060000Y-140600000D01*
X109940000Y-141250000D02*
X109940000Y-140600000D01*
X113060000Y-141250000D02*
X113060000Y-141900000D01*
X109940000Y-141250000D02*
X109940000Y-142925000D01*
G04 #@! TO.C,U2*
X109750000Y-158310000D02*
X111700000Y-158310000D01*
X109750000Y-153190000D02*
X106300000Y-153190000D01*
X109750000Y-158310000D02*
X107800000Y-158310000D01*
X109750000Y-153190000D02*
X111700000Y-153190000D01*
G04 #@! TO.C,Q1*
X135750000Y-94310000D02*
X137425000Y-94310000D01*
X135750000Y-91190000D02*
X136400000Y-91190000D01*
X135750000Y-94310000D02*
X135100000Y-94310000D01*
X135750000Y-91190000D02*
X135100000Y-91190000D01*
G04 #@! TO.C,C8*
X120853733Y-147740000D02*
X121146267Y-147740000D01*
X120853733Y-148760000D02*
X121146267Y-148760000D01*
G04 #@! TO.C,R7*
X125554724Y-139077500D02*
X125045276Y-139077500D01*
X125554724Y-140122500D02*
X125045276Y-140122500D01*
G04 #@! TO.C,R3*
X106504724Y-151522500D02*
X105995276Y-151522500D01*
X106504724Y-150477500D02*
X105995276Y-150477500D01*
G04 #@! TO.C,R9*
X125045276Y-143227500D02*
X125554724Y-143227500D01*
X125045276Y-144272500D02*
X125554724Y-144272500D01*
G04 #@! TO.C,J2*
X145700000Y-177280000D02*
X145700000Y-179780000D01*
X146200000Y-176080000D02*
X146200000Y-177280000D01*
X140000000Y-162580000D02*
X146200000Y-162580000D01*
X146200000Y-177280000D02*
X145700000Y-177280000D01*
X146200000Y-173480000D02*
X148200000Y-173480000D01*
X140500000Y-179780000D02*
X140500000Y-177280000D01*
X140000000Y-177280000D02*
X140000000Y-174080000D01*
X146200000Y-166980000D02*
X146200000Y-173480000D01*
X146200000Y-176080000D02*
X148200000Y-176080000D01*
X145700000Y-179780000D02*
X140500000Y-179780000D01*
X140000000Y-171480000D02*
X140000000Y-162580000D01*
X146200000Y-162580000D02*
X146200000Y-163780000D01*
X140500000Y-177280000D02*
X140000000Y-177280000D01*
G04 #@! TO.C,D1*
X119250000Y-95650000D02*
X120400000Y-95650000D01*
X124750000Y-88350000D02*
X124750000Y-95650000D01*
X119250000Y-88350000D02*
X119250000Y-95650000D01*
G04 #@! TO.C,C4*
X127510000Y-92146267D02*
X127510000Y-91853733D01*
X126490000Y-92146267D02*
X126490000Y-91853733D01*
G04 #@! TO.C,C12*
X105146267Y-141510000D02*
X104853733Y-141510000D01*
X105146267Y-140490000D02*
X104853733Y-140490000D01*
G04 #@! TO.C,C9*
X116760000Y-156146267D02*
X116760000Y-155853733D01*
X115740000Y-156146267D02*
X115740000Y-155853733D01*
G04 #@! TO.C,C6*
X109890000Y-124946267D02*
X109890000Y-124653733D01*
X110910000Y-124946267D02*
X110910000Y-124653733D01*
G04 #@! TO.C,SW3*
X152800000Y-104270000D02*
X152830000Y-104270000D01*
X152830000Y-110730000D02*
X152800000Y-110730000D01*
X146370000Y-110730000D02*
X146400000Y-110730000D01*
X150900000Y-104270000D02*
X148300000Y-104270000D01*
X146370000Y-104270000D02*
X146370000Y-110730000D01*
X146370000Y-104270000D02*
X146400000Y-104270000D01*
X152830000Y-104270000D02*
X152830000Y-110730000D01*
X150900000Y-110730000D02*
X148300000Y-110730000D01*
G04 #@! TO.C,C7*
X108110000Y-124946267D02*
X108110000Y-124653733D01*
X107090000Y-124946267D02*
X107090000Y-124653733D01*
G04 #@! TO.C,SW2*
X150870000Y-127595000D02*
X150870000Y-130195000D01*
X153530000Y-127595000D02*
X153530000Y-130195000D01*
X150870000Y-124995000D02*
X152200000Y-124995000D01*
X150870000Y-130195000D02*
X153530000Y-130195000D01*
X150870000Y-127595000D02*
X153530000Y-127595000D01*
X150870000Y-126325000D02*
X150870000Y-124995000D01*
G04 #@! TD*
M02*
