G04 #@! TF.GenerationSoftware,KiCad,Pcbnew,(6.0.5)*
G04 #@! TF.CreationDate,2022-06-08T19:44:26-07:00*
G04 #@! TF.ProjectId,PCB,5043422e-6b69-4636-9164-5f7063625858,rev?*
G04 #@! TF.SameCoordinates,Original*
G04 #@! TF.FileFunction,Legend,Top*
G04 #@! TF.FilePolarity,Positive*
%FSLAX46Y46*%
G04 Gerber Fmt 4.6, Leading zero omitted, Abs format (unit mm)*
G04 Created by KiCad (PCBNEW (6.0.5)) date 2022-06-08 19:44:26*
%MOMM*%
%LPD*%
G01*
G04 APERTURE LIST*
%ADD10C,0.100000*%
%ADD11C,0.150000*%
%ADD12C,0.300000*%
%ADD13C,0.400000*%
%ADD14C,0.120000*%
G04 APERTURE END LIST*
D10*
D11*
X177002200Y-166007200D02*
X177002200Y-198007200D01*
X285002200Y-198007200D01*
X285002200Y-166007200D01*
X177002200Y-166007200D01*
D10*
D11*
X10000000Y-10000000D02*
X10000000Y-200007200D01*
X287002200Y-200007200D01*
X287002200Y-10000000D01*
X10000000Y-10000000D01*
D10*
D11*
X12000000Y-12000000D02*
X12000000Y-198007200D01*
X285002200Y-198007200D01*
X285002200Y-12000000D01*
X12000000Y-12000000D01*
D10*
D11*
X60000000Y-12000000D02*
X60000000Y-10000000D01*
D10*
D11*
X110000000Y-12000000D02*
X110000000Y-10000000D01*
D10*
D11*
X160000000Y-12000000D02*
X160000000Y-10000000D01*
D10*
D11*
X210000000Y-12000000D02*
X210000000Y-10000000D01*
D10*
D11*
X260000000Y-12000000D02*
X260000000Y-10000000D01*
D10*
D11*
X36065476Y-11588095D02*
X35322619Y-11588095D01*
X35694047Y-11588095D02*
X35694047Y-10288095D01*
X35570238Y-10473809D01*
X35446428Y-10597619D01*
X35322619Y-10659523D01*
D10*
D11*
X85322619Y-10411904D02*
X85384523Y-10350000D01*
X85508333Y-10288095D01*
X85817857Y-10288095D01*
X85941666Y-10350000D01*
X86003571Y-10411904D01*
X86065476Y-10535714D01*
X86065476Y-10659523D01*
X86003571Y-10845238D01*
X85260714Y-11588095D01*
X86065476Y-11588095D01*
D10*
D11*
X135260714Y-10288095D02*
X136065476Y-10288095D01*
X135632142Y-10783333D01*
X135817857Y-10783333D01*
X135941666Y-10845238D01*
X136003571Y-10907142D01*
X136065476Y-11030952D01*
X136065476Y-11340476D01*
X136003571Y-11464285D01*
X135941666Y-11526190D01*
X135817857Y-11588095D01*
X135446428Y-11588095D01*
X135322619Y-11526190D01*
X135260714Y-11464285D01*
D10*
D11*
X185941666Y-10721428D02*
X185941666Y-11588095D01*
X185632142Y-10226190D02*
X185322619Y-11154761D01*
X186127380Y-11154761D01*
D10*
D11*
X236003571Y-10288095D02*
X235384523Y-10288095D01*
X235322619Y-10907142D01*
X235384523Y-10845238D01*
X235508333Y-10783333D01*
X235817857Y-10783333D01*
X235941666Y-10845238D01*
X236003571Y-10907142D01*
X236065476Y-11030952D01*
X236065476Y-11340476D01*
X236003571Y-11464285D01*
X235941666Y-11526190D01*
X235817857Y-11588095D01*
X235508333Y-11588095D01*
X235384523Y-11526190D01*
X235322619Y-11464285D01*
D10*
D11*
X285941666Y-10288095D02*
X285694047Y-10288095D01*
X285570238Y-10350000D01*
X285508333Y-10411904D01*
X285384523Y-10597619D01*
X285322619Y-10845238D01*
X285322619Y-11340476D01*
X285384523Y-11464285D01*
X285446428Y-11526190D01*
X285570238Y-11588095D01*
X285817857Y-11588095D01*
X285941666Y-11526190D01*
X286003571Y-11464285D01*
X286065476Y-11340476D01*
X286065476Y-11030952D01*
X286003571Y-10907142D01*
X285941666Y-10845238D01*
X285817857Y-10783333D01*
X285570238Y-10783333D01*
X285446428Y-10845238D01*
X285384523Y-10907142D01*
X285322619Y-11030952D01*
D10*
D11*
X60000000Y-198007200D02*
X60000000Y-200007200D01*
D10*
D11*
X110000000Y-198007200D02*
X110000000Y-200007200D01*
D10*
D11*
X160000000Y-198007200D02*
X160000000Y-200007200D01*
D10*
D11*
X210000000Y-198007200D02*
X210000000Y-200007200D01*
D10*
D11*
X260000000Y-198007200D02*
X260000000Y-200007200D01*
D10*
D11*
X36065476Y-199595295D02*
X35322619Y-199595295D01*
X35694047Y-199595295D02*
X35694047Y-198295295D01*
X35570238Y-198481009D01*
X35446428Y-198604819D01*
X35322619Y-198666723D01*
D10*
D11*
X85322619Y-198419104D02*
X85384523Y-198357200D01*
X85508333Y-198295295D01*
X85817857Y-198295295D01*
X85941666Y-198357200D01*
X86003571Y-198419104D01*
X86065476Y-198542914D01*
X86065476Y-198666723D01*
X86003571Y-198852438D01*
X85260714Y-199595295D01*
X86065476Y-199595295D01*
D10*
D11*
X135260714Y-198295295D02*
X136065476Y-198295295D01*
X135632142Y-198790533D01*
X135817857Y-198790533D01*
X135941666Y-198852438D01*
X136003571Y-198914342D01*
X136065476Y-199038152D01*
X136065476Y-199347676D01*
X136003571Y-199471485D01*
X135941666Y-199533390D01*
X135817857Y-199595295D01*
X135446428Y-199595295D01*
X135322619Y-199533390D01*
X135260714Y-199471485D01*
D10*
D11*
X185941666Y-198728628D02*
X185941666Y-199595295D01*
X185632142Y-198233390D02*
X185322619Y-199161961D01*
X186127380Y-199161961D01*
D10*
D11*
X236003571Y-198295295D02*
X235384523Y-198295295D01*
X235322619Y-198914342D01*
X235384523Y-198852438D01*
X235508333Y-198790533D01*
X235817857Y-198790533D01*
X235941666Y-198852438D01*
X236003571Y-198914342D01*
X236065476Y-199038152D01*
X236065476Y-199347676D01*
X236003571Y-199471485D01*
X235941666Y-199533390D01*
X235817857Y-199595295D01*
X235508333Y-199595295D01*
X235384523Y-199533390D01*
X235322619Y-199471485D01*
D10*
D11*
X285941666Y-198295295D02*
X285694047Y-198295295D01*
X285570238Y-198357200D01*
X285508333Y-198419104D01*
X285384523Y-198604819D01*
X285322619Y-198852438D01*
X285322619Y-199347676D01*
X285384523Y-199471485D01*
X285446428Y-199533390D01*
X285570238Y-199595295D01*
X285817857Y-199595295D01*
X285941666Y-199533390D01*
X286003571Y-199471485D01*
X286065476Y-199347676D01*
X286065476Y-199038152D01*
X286003571Y-198914342D01*
X285941666Y-198852438D01*
X285817857Y-198790533D01*
X285570238Y-198790533D01*
X285446428Y-198852438D01*
X285384523Y-198914342D01*
X285322619Y-199038152D01*
D10*
D11*
X10000000Y-60000000D02*
X12000000Y-60000000D01*
D10*
D11*
X10000000Y-110000000D02*
X12000000Y-110000000D01*
D10*
D11*
X10000000Y-160000000D02*
X12000000Y-160000000D01*
D10*
D11*
X10690476Y-35216666D02*
X11309523Y-35216666D01*
X10566666Y-35588095D02*
X11000000Y-34288095D01*
X11433333Y-35588095D01*
D10*
D11*
X11092857Y-84907142D02*
X11278571Y-84969047D01*
X11340476Y-85030952D01*
X11402380Y-85154761D01*
X11402380Y-85340476D01*
X11340476Y-85464285D01*
X11278571Y-85526190D01*
X11154761Y-85588095D01*
X10659523Y-85588095D01*
X10659523Y-84288095D01*
X11092857Y-84288095D01*
X11216666Y-84350000D01*
X11278571Y-84411904D01*
X11340476Y-84535714D01*
X11340476Y-84659523D01*
X11278571Y-84783333D01*
X11216666Y-84845238D01*
X11092857Y-84907142D01*
X10659523Y-84907142D01*
D10*
D11*
X11402380Y-135464285D02*
X11340476Y-135526190D01*
X11154761Y-135588095D01*
X11030952Y-135588095D01*
X10845238Y-135526190D01*
X10721428Y-135402380D01*
X10659523Y-135278571D01*
X10597619Y-135030952D01*
X10597619Y-134845238D01*
X10659523Y-134597619D01*
X10721428Y-134473809D01*
X10845238Y-134350000D01*
X11030952Y-134288095D01*
X11154761Y-134288095D01*
X11340476Y-134350000D01*
X11402380Y-134411904D01*
D10*
D11*
X10659523Y-185588095D02*
X10659523Y-184288095D01*
X10969047Y-184288095D01*
X11154761Y-184350000D01*
X11278571Y-184473809D01*
X11340476Y-184597619D01*
X11402380Y-184845238D01*
X11402380Y-185030952D01*
X11340476Y-185278571D01*
X11278571Y-185402380D01*
X11154761Y-185526190D01*
X10969047Y-185588095D01*
X10659523Y-185588095D01*
D10*
D11*
X287002200Y-60000000D02*
X285002200Y-60000000D01*
D10*
D11*
X287002200Y-110000000D02*
X285002200Y-110000000D01*
D10*
D11*
X287002200Y-160000000D02*
X285002200Y-160000000D01*
D10*
D11*
X285692676Y-35216666D02*
X286311723Y-35216666D01*
X285568866Y-35588095D02*
X286002200Y-34288095D01*
X286435533Y-35588095D01*
D10*
D11*
X286095057Y-84907142D02*
X286280771Y-84969047D01*
X286342676Y-85030952D01*
X286404580Y-85154761D01*
X286404580Y-85340476D01*
X286342676Y-85464285D01*
X286280771Y-85526190D01*
X286156961Y-85588095D01*
X285661723Y-85588095D01*
X285661723Y-84288095D01*
X286095057Y-84288095D01*
X286218866Y-84350000D01*
X286280771Y-84411904D01*
X286342676Y-84535714D01*
X286342676Y-84659523D01*
X286280771Y-84783333D01*
X286218866Y-84845238D01*
X286095057Y-84907142D01*
X285661723Y-84907142D01*
D10*
D11*
X286404580Y-135464285D02*
X286342676Y-135526190D01*
X286156961Y-135588095D01*
X286033152Y-135588095D01*
X285847438Y-135526190D01*
X285723628Y-135402380D01*
X285661723Y-135278571D01*
X285599819Y-135030952D01*
X285599819Y-134845238D01*
X285661723Y-134597619D01*
X285723628Y-134473809D01*
X285847438Y-134350000D01*
X286033152Y-134288095D01*
X286156961Y-134288095D01*
X286342676Y-134350000D01*
X286404580Y-134411904D01*
D10*
D11*
X285661723Y-185588095D02*
X285661723Y-184288095D01*
X285971247Y-184288095D01*
X286156961Y-184350000D01*
X286280771Y-184473809D01*
X286342676Y-184597619D01*
X286404580Y-184845238D01*
X286404580Y-185030952D01*
X286342676Y-185278571D01*
X286280771Y-185402380D01*
X286156961Y-185526190D01*
X285971247Y-185588095D01*
X285661723Y-185588095D01*
D10*
D11*
X200434342Y-193785771D02*
X200434342Y-192285771D01*
X200791485Y-192285771D01*
X201005771Y-192357200D01*
X201148628Y-192500057D01*
X201220057Y-192642914D01*
X201291485Y-192928628D01*
X201291485Y-193142914D01*
X201220057Y-193428628D01*
X201148628Y-193571485D01*
X201005771Y-193714342D01*
X200791485Y-193785771D01*
X200434342Y-193785771D01*
X202577200Y-193785771D02*
X202577200Y-193000057D01*
X202505771Y-192857200D01*
X202362914Y-192785771D01*
X202077200Y-192785771D01*
X201934342Y-192857200D01*
X202577200Y-193714342D02*
X202434342Y-193785771D01*
X202077200Y-193785771D01*
X201934342Y-193714342D01*
X201862914Y-193571485D01*
X201862914Y-193428628D01*
X201934342Y-193285771D01*
X202077200Y-193214342D01*
X202434342Y-193214342D01*
X202577200Y-193142914D01*
X203077200Y-192785771D02*
X203648628Y-192785771D01*
X203291485Y-192285771D02*
X203291485Y-193571485D01*
X203362914Y-193714342D01*
X203505771Y-193785771D01*
X203648628Y-193785771D01*
X204720057Y-193714342D02*
X204577200Y-193785771D01*
X204291485Y-193785771D01*
X204148628Y-193714342D01*
X204077200Y-193571485D01*
X204077200Y-193000057D01*
X204148628Y-192857200D01*
X204291485Y-192785771D01*
X204577200Y-192785771D01*
X204720057Y-192857200D01*
X204791485Y-193000057D01*
X204791485Y-193142914D01*
X204077200Y-193285771D01*
X205434342Y-193642914D02*
X205505771Y-193714342D01*
X205434342Y-193785771D01*
X205362914Y-193714342D01*
X205434342Y-193642914D01*
X205434342Y-193785771D01*
X205434342Y-192857200D02*
X205505771Y-192928628D01*
X205434342Y-193000057D01*
X205362914Y-192928628D01*
X205434342Y-192857200D01*
X205434342Y-193000057D01*
D10*
D11*
X177002200Y-194507200D02*
X285002200Y-194507200D01*
D10*
D11*
X178434342Y-196585771D02*
X178434342Y-195085771D01*
X179291485Y-196585771D02*
X178648628Y-195728628D01*
X179291485Y-195085771D02*
X178434342Y-195942914D01*
X179934342Y-196585771D02*
X179934342Y-195585771D01*
X179934342Y-195085771D02*
X179862914Y-195157200D01*
X179934342Y-195228628D01*
X180005771Y-195157200D01*
X179934342Y-195085771D01*
X179934342Y-195228628D01*
X181505771Y-196442914D02*
X181434342Y-196514342D01*
X181220057Y-196585771D01*
X181077200Y-196585771D01*
X180862914Y-196514342D01*
X180720057Y-196371485D01*
X180648628Y-196228628D01*
X180577200Y-195942914D01*
X180577200Y-195728628D01*
X180648628Y-195442914D01*
X180720057Y-195300057D01*
X180862914Y-195157200D01*
X181077200Y-195085771D01*
X181220057Y-195085771D01*
X181434342Y-195157200D01*
X181505771Y-195228628D01*
X182791485Y-196585771D02*
X182791485Y-195800057D01*
X182720057Y-195657200D01*
X182577200Y-195585771D01*
X182291485Y-195585771D01*
X182148628Y-195657200D01*
X182791485Y-196514342D02*
X182648628Y-196585771D01*
X182291485Y-196585771D01*
X182148628Y-196514342D01*
X182077200Y-196371485D01*
X182077200Y-196228628D01*
X182148628Y-196085771D01*
X182291485Y-196014342D01*
X182648628Y-196014342D01*
X182791485Y-195942914D01*
X184148628Y-196585771D02*
X184148628Y-195085771D01*
X184148628Y-196514342D02*
X184005771Y-196585771D01*
X183720057Y-196585771D01*
X183577200Y-196514342D01*
X183505771Y-196442914D01*
X183434342Y-196300057D01*
X183434342Y-195871485D01*
X183505771Y-195728628D01*
X183577200Y-195657200D01*
X183720057Y-195585771D01*
X184005771Y-195585771D01*
X184148628Y-195657200D01*
X186005771Y-195800057D02*
X186505771Y-195800057D01*
X186720057Y-196585771D02*
X186005771Y-196585771D01*
X186005771Y-195085771D01*
X186720057Y-195085771D01*
X187362914Y-196442914D02*
X187434342Y-196514342D01*
X187362914Y-196585771D01*
X187291485Y-196514342D01*
X187362914Y-196442914D01*
X187362914Y-196585771D01*
X188077200Y-196585771D02*
X188077200Y-195085771D01*
X188434342Y-195085771D01*
X188648628Y-195157200D01*
X188791485Y-195300057D01*
X188862914Y-195442914D01*
X188934342Y-195728628D01*
X188934342Y-195942914D01*
X188862914Y-196228628D01*
X188791485Y-196371485D01*
X188648628Y-196514342D01*
X188434342Y-196585771D01*
X188077200Y-196585771D01*
X189577200Y-196442914D02*
X189648628Y-196514342D01*
X189577200Y-196585771D01*
X189505771Y-196514342D01*
X189577200Y-196442914D01*
X189577200Y-196585771D01*
X190220057Y-196157200D02*
X190934342Y-196157200D01*
X190077200Y-196585771D02*
X190577200Y-195085771D01*
X191077200Y-196585771D01*
X191577200Y-196442914D02*
X191648628Y-196514342D01*
X191577200Y-196585771D01*
X191505771Y-196514342D01*
X191577200Y-196442914D01*
X191577200Y-196585771D01*
X194577200Y-196585771D02*
X194577200Y-195085771D01*
X194720057Y-196014342D02*
X195148628Y-196585771D01*
X195148628Y-195585771D02*
X194577200Y-196157200D01*
X195791485Y-196585771D02*
X195791485Y-195585771D01*
X195791485Y-195085771D02*
X195720057Y-195157200D01*
X195791485Y-195228628D01*
X195862914Y-195157200D01*
X195791485Y-195085771D01*
X195791485Y-195228628D01*
X197148628Y-196514342D02*
X197005771Y-196585771D01*
X196720057Y-196585771D01*
X196577200Y-196514342D01*
X196505771Y-196442914D01*
X196434342Y-196300057D01*
X196434342Y-195871485D01*
X196505771Y-195728628D01*
X196577200Y-195657200D01*
X196720057Y-195585771D01*
X197005771Y-195585771D01*
X197148628Y-195657200D01*
X198434342Y-196585771D02*
X198434342Y-195800057D01*
X198362914Y-195657200D01*
X198220057Y-195585771D01*
X197934342Y-195585771D01*
X197791485Y-195657200D01*
X198434342Y-196514342D02*
X198291485Y-196585771D01*
X197934342Y-196585771D01*
X197791485Y-196514342D01*
X197720057Y-196371485D01*
X197720057Y-196228628D01*
X197791485Y-196085771D01*
X197934342Y-196014342D01*
X198291485Y-196014342D01*
X198434342Y-195942914D01*
X199791485Y-196585771D02*
X199791485Y-195085771D01*
X199791485Y-196514342D02*
X199648628Y-196585771D01*
X199362914Y-196585771D01*
X199220057Y-196514342D01*
X199148628Y-196442914D01*
X199077200Y-196300057D01*
X199077200Y-195871485D01*
X199148628Y-195728628D01*
X199220057Y-195657200D01*
X199362914Y-195585771D01*
X199648628Y-195585771D01*
X199791485Y-195657200D01*
X202077200Y-197157200D02*
X202005771Y-197085771D01*
X201862914Y-196871485D01*
X201791485Y-196728628D01*
X201720057Y-196514342D01*
X201648628Y-196157200D01*
X201648628Y-195871485D01*
X201720057Y-195514342D01*
X201791485Y-195300057D01*
X201862914Y-195157200D01*
X202005771Y-194942914D01*
X202077200Y-194871485D01*
X203291485Y-195085771D02*
X203005771Y-195085771D01*
X202862914Y-195157200D01*
X202791485Y-195228628D01*
X202648628Y-195442914D01*
X202577200Y-195728628D01*
X202577200Y-196300057D01*
X202648628Y-196442914D01*
X202720057Y-196514342D01*
X202862914Y-196585771D01*
X203148628Y-196585771D01*
X203291485Y-196514342D01*
X203362914Y-196442914D01*
X203434342Y-196300057D01*
X203434342Y-195942914D01*
X203362914Y-195800057D01*
X203291485Y-195728628D01*
X203148628Y-195657200D01*
X202862914Y-195657200D01*
X202720057Y-195728628D01*
X202648628Y-195800057D01*
X202577200Y-195942914D01*
X204077200Y-196442914D02*
X204148628Y-196514342D01*
X204077200Y-196585771D01*
X204005771Y-196514342D01*
X204077200Y-196442914D01*
X204077200Y-196585771D01*
X205077200Y-195085771D02*
X205220057Y-195085771D01*
X205362914Y-195157200D01*
X205434342Y-195228628D01*
X205505771Y-195371485D01*
X205577200Y-195657200D01*
X205577200Y-196014342D01*
X205505771Y-196300057D01*
X205434342Y-196442914D01*
X205362914Y-196514342D01*
X205220057Y-196585771D01*
X205077200Y-196585771D01*
X204934342Y-196514342D01*
X204862914Y-196442914D01*
X204791485Y-196300057D01*
X204720057Y-196014342D01*
X204720057Y-195657200D01*
X204791485Y-195371485D01*
X204862914Y-195228628D01*
X204934342Y-195157200D01*
X205077200Y-195085771D01*
X206220057Y-196442914D02*
X206291485Y-196514342D01*
X206220057Y-196585771D01*
X206148628Y-196514342D01*
X206220057Y-196442914D01*
X206220057Y-196585771D01*
X207648628Y-195085771D02*
X206934342Y-195085771D01*
X206862914Y-195800057D01*
X206934342Y-195728628D01*
X207077200Y-195657200D01*
X207434342Y-195657200D01*
X207577200Y-195728628D01*
X207648628Y-195800057D01*
X207720057Y-195942914D01*
X207720057Y-196300057D01*
X207648628Y-196442914D01*
X207577200Y-196514342D01*
X207434342Y-196585771D01*
X207077200Y-196585771D01*
X206934342Y-196514342D01*
X206862914Y-196442914D01*
X208220057Y-197157200D02*
X208291485Y-197085771D01*
X208434342Y-196871485D01*
X208505771Y-196728628D01*
X208577200Y-196514342D01*
X208648628Y-196157200D01*
X208648628Y-195871485D01*
X208577200Y-195514342D01*
X208505771Y-195300057D01*
X208434342Y-195157200D01*
X208291485Y-194942914D01*
X208220057Y-194871485D01*
D10*
D11*
X177002200Y-191507200D02*
X285002200Y-191507200D01*
D10*
D12*
X264411485Y-193785771D02*
X263911485Y-193071485D01*
X263554342Y-193785771D02*
X263554342Y-192285771D01*
X264125771Y-192285771D01*
X264268628Y-192357200D01*
X264340057Y-192428628D01*
X264411485Y-192571485D01*
X264411485Y-192785771D01*
X264340057Y-192928628D01*
X264268628Y-193000057D01*
X264125771Y-193071485D01*
X263554342Y-193071485D01*
X265625771Y-193714342D02*
X265482914Y-193785771D01*
X265197200Y-193785771D01*
X265054342Y-193714342D01*
X264982914Y-193571485D01*
X264982914Y-193000057D01*
X265054342Y-192857200D01*
X265197200Y-192785771D01*
X265482914Y-192785771D01*
X265625771Y-192857200D01*
X265697200Y-193000057D01*
X265697200Y-193142914D01*
X264982914Y-193285771D01*
X266197200Y-192785771D02*
X266554342Y-193785771D01*
X266911485Y-192785771D01*
X267482914Y-193642914D02*
X267554342Y-193714342D01*
X267482914Y-193785771D01*
X267411485Y-193714342D01*
X267482914Y-193642914D01*
X267482914Y-193785771D01*
X267482914Y-192857200D02*
X267554342Y-192928628D01*
X267482914Y-193000057D01*
X267411485Y-192928628D01*
X267482914Y-192857200D01*
X267482914Y-193000057D01*
D10*
D11*
X178362914Y-193714342D02*
X178577200Y-193785771D01*
X178934342Y-193785771D01*
X179077200Y-193714342D01*
X179148628Y-193642914D01*
X179220057Y-193500057D01*
X179220057Y-193357200D01*
X179148628Y-193214342D01*
X179077200Y-193142914D01*
X178934342Y-193071485D01*
X178648628Y-193000057D01*
X178505771Y-192928628D01*
X178434342Y-192857200D01*
X178362914Y-192714342D01*
X178362914Y-192571485D01*
X178434342Y-192428628D01*
X178505771Y-192357200D01*
X178648628Y-192285771D01*
X179005771Y-192285771D01*
X179220057Y-192357200D01*
X179862914Y-193785771D02*
X179862914Y-192785771D01*
X179862914Y-192285771D02*
X179791485Y-192357200D01*
X179862914Y-192428628D01*
X179934342Y-192357200D01*
X179862914Y-192285771D01*
X179862914Y-192428628D01*
X180434342Y-192785771D02*
X181220057Y-192785771D01*
X180434342Y-193785771D01*
X181220057Y-193785771D01*
X182362914Y-193714342D02*
X182220057Y-193785771D01*
X181934342Y-193785771D01*
X181791485Y-193714342D01*
X181720057Y-193571485D01*
X181720057Y-193000057D01*
X181791485Y-192857200D01*
X181934342Y-192785771D01*
X182220057Y-192785771D01*
X182362914Y-192857200D01*
X182434342Y-193000057D01*
X182434342Y-193142914D01*
X181720057Y-193285771D01*
X183077200Y-193642914D02*
X183148628Y-193714342D01*
X183077200Y-193785771D01*
X183005771Y-193714342D01*
X183077200Y-193642914D01*
X183077200Y-193785771D01*
X183077200Y-192857200D02*
X183148628Y-192928628D01*
X183077200Y-193000057D01*
X183005771Y-192928628D01*
X183077200Y-192857200D01*
X183077200Y-193000057D01*
X184862914Y-193357200D02*
X185577200Y-193357200D01*
X184720057Y-193785771D02*
X185220057Y-192285771D01*
X185720057Y-193785771D01*
X186862914Y-192785771D02*
X186862914Y-193785771D01*
X186505771Y-192214342D02*
X186148628Y-193285771D01*
X187077200Y-193285771D01*
D10*
D11*
X263434342Y-196585771D02*
X263434342Y-195085771D01*
X264791485Y-196585771D02*
X264791485Y-195085771D01*
X264791485Y-196514342D02*
X264648628Y-196585771D01*
X264362914Y-196585771D01*
X264220057Y-196514342D01*
X264148628Y-196442914D01*
X264077200Y-196300057D01*
X264077200Y-195871485D01*
X264148628Y-195728628D01*
X264220057Y-195657200D01*
X264362914Y-195585771D01*
X264648628Y-195585771D01*
X264791485Y-195657200D01*
X265505771Y-196442914D02*
X265577200Y-196514342D01*
X265505771Y-196585771D01*
X265434342Y-196514342D01*
X265505771Y-196442914D01*
X265505771Y-196585771D01*
X265505771Y-195657200D02*
X265577200Y-195728628D01*
X265505771Y-195800057D01*
X265434342Y-195728628D01*
X265505771Y-195657200D01*
X265505771Y-195800057D01*
X268148628Y-196585771D02*
X267291485Y-196585771D01*
X267720057Y-196585771D02*
X267720057Y-195085771D01*
X267577200Y-195300057D01*
X267434342Y-195442914D01*
X267291485Y-195514342D01*
X269862914Y-195014342D02*
X268577200Y-196942914D01*
X271148628Y-196585771D02*
X270291485Y-196585771D01*
X270720057Y-196585771D02*
X270720057Y-195085771D01*
X270577200Y-195300057D01*
X270434342Y-195442914D01*
X270291485Y-195514342D01*
D10*
D11*
X177002200Y-187507200D02*
X285002200Y-187507200D01*
D10*
D13*
X178714580Y-188211961D02*
X179857438Y-188211961D01*
X179036009Y-190211961D02*
X179286009Y-188211961D01*
X180274104Y-190211961D02*
X180440771Y-188878628D01*
X180524104Y-188211961D02*
X180416961Y-188307200D01*
X180500295Y-188402438D01*
X180607438Y-188307200D01*
X180524104Y-188211961D01*
X180500295Y-188402438D01*
X181107438Y-188878628D02*
X181869342Y-188878628D01*
X181476485Y-188211961D02*
X181262200Y-189926247D01*
X181333628Y-190116723D01*
X181512200Y-190211961D01*
X181702676Y-190211961D01*
X182655057Y-190211961D02*
X182476485Y-190116723D01*
X182405057Y-189926247D01*
X182619342Y-188211961D01*
X184190771Y-190116723D02*
X183988390Y-190211961D01*
X183607438Y-190211961D01*
X183428866Y-190116723D01*
X183357438Y-189926247D01*
X183452676Y-189164342D01*
X183571723Y-188973866D01*
X183774104Y-188878628D01*
X184155057Y-188878628D01*
X184333628Y-188973866D01*
X184405057Y-189164342D01*
X184381247Y-189354819D01*
X183405057Y-189545295D01*
X185155057Y-190021485D02*
X185238390Y-190116723D01*
X185131247Y-190211961D01*
X185047914Y-190116723D01*
X185155057Y-190021485D01*
X185131247Y-190211961D01*
X185286009Y-188973866D02*
X185369342Y-189069104D01*
X185262200Y-189164342D01*
X185178866Y-189069104D01*
X185286009Y-188973866D01*
X185262200Y-189164342D01*
D10*
D11*
X178934342Y-185600057D02*
X178434342Y-185600057D01*
X178434342Y-186385771D02*
X178434342Y-184885771D01*
X179148628Y-184885771D01*
X179720057Y-186385771D02*
X179720057Y-185385771D01*
X179720057Y-184885771D02*
X179648628Y-184957200D01*
X179720057Y-185028628D01*
X179791485Y-184957200D01*
X179720057Y-184885771D01*
X179720057Y-185028628D01*
X180648628Y-186385771D02*
X180505771Y-186314342D01*
X180434342Y-186171485D01*
X180434342Y-184885771D01*
X181791485Y-186314342D02*
X181648628Y-186385771D01*
X181362914Y-186385771D01*
X181220057Y-186314342D01*
X181148628Y-186171485D01*
X181148628Y-185600057D01*
X181220057Y-185457200D01*
X181362914Y-185385771D01*
X181648628Y-185385771D01*
X181791485Y-185457200D01*
X181862914Y-185600057D01*
X181862914Y-185742914D01*
X181148628Y-185885771D01*
X182505771Y-186242914D02*
X182577200Y-186314342D01*
X182505771Y-186385771D01*
X182434342Y-186314342D01*
X182505771Y-186242914D01*
X182505771Y-186385771D01*
X182505771Y-185457200D02*
X182577200Y-185528628D01*
X182505771Y-185600057D01*
X182434342Y-185528628D01*
X182505771Y-185457200D01*
X182505771Y-185600057D01*
X184362914Y-186385771D02*
X184362914Y-184885771D01*
X184934342Y-184885771D01*
X185077200Y-184957200D01*
X185148628Y-185028628D01*
X185220057Y-185171485D01*
X185220057Y-185385771D01*
X185148628Y-185528628D01*
X185077200Y-185600057D01*
X184934342Y-185671485D01*
X184362914Y-185671485D01*
X186720057Y-186242914D02*
X186648628Y-186314342D01*
X186434342Y-186385771D01*
X186291485Y-186385771D01*
X186077200Y-186314342D01*
X185934342Y-186171485D01*
X185862914Y-186028628D01*
X185791485Y-185742914D01*
X185791485Y-185528628D01*
X185862914Y-185242914D01*
X185934342Y-185100057D01*
X186077200Y-184957200D01*
X186291485Y-184885771D01*
X186434342Y-184885771D01*
X186648628Y-184957200D01*
X186720057Y-185028628D01*
X187862914Y-185600057D02*
X188077200Y-185671485D01*
X188148628Y-185742914D01*
X188220057Y-185885771D01*
X188220057Y-186100057D01*
X188148628Y-186242914D01*
X188077200Y-186314342D01*
X187934342Y-186385771D01*
X187362914Y-186385771D01*
X187362914Y-184885771D01*
X187862914Y-184885771D01*
X188005771Y-184957200D01*
X188077200Y-185028628D01*
X188148628Y-185171485D01*
X188148628Y-185314342D01*
X188077200Y-185457200D01*
X188005771Y-185528628D01*
X187862914Y-185600057D01*
X187362914Y-185600057D01*
X188862914Y-186242914D02*
X188934342Y-186314342D01*
X188862914Y-186385771D01*
X188791485Y-186314342D01*
X188862914Y-186242914D01*
X188862914Y-186385771D01*
X189577200Y-186385771D02*
X189577200Y-184885771D01*
X189720057Y-185814342D02*
X190148628Y-186385771D01*
X190148628Y-185385771D02*
X189577200Y-185957200D01*
X190791485Y-186385771D02*
X190791485Y-185385771D01*
X190791485Y-184885771D02*
X190720057Y-184957200D01*
X190791485Y-185028628D01*
X190862914Y-184957200D01*
X190791485Y-184885771D01*
X190791485Y-185028628D01*
X192148628Y-186314342D02*
X192005771Y-186385771D01*
X191720057Y-186385771D01*
X191577200Y-186314342D01*
X191505771Y-186242914D01*
X191434342Y-186100057D01*
X191434342Y-185671485D01*
X191505771Y-185528628D01*
X191577200Y-185457200D01*
X191720057Y-185385771D01*
X192005771Y-185385771D01*
X192148628Y-185457200D01*
X193434342Y-186385771D02*
X193434342Y-185600057D01*
X193362914Y-185457200D01*
X193220057Y-185385771D01*
X192934342Y-185385771D01*
X192791485Y-185457200D01*
X193434342Y-186314342D02*
X193291485Y-186385771D01*
X192934342Y-186385771D01*
X192791485Y-186314342D01*
X192720057Y-186171485D01*
X192720057Y-186028628D01*
X192791485Y-185885771D01*
X192934342Y-185814342D01*
X193291485Y-185814342D01*
X193434342Y-185742914D01*
X194791485Y-186385771D02*
X194791485Y-184885771D01*
X194791485Y-186314342D02*
X194648628Y-186385771D01*
X194362914Y-186385771D01*
X194220057Y-186314342D01*
X194148628Y-186242914D01*
X194077200Y-186100057D01*
X194077200Y-185671485D01*
X194148628Y-185528628D01*
X194220057Y-185457200D01*
X194362914Y-185385771D01*
X194648628Y-185385771D01*
X194791485Y-185457200D01*
X195148628Y-186528628D02*
X196291485Y-186528628D01*
X196648628Y-185385771D02*
X196648628Y-186885771D01*
X196648628Y-185457200D02*
X196791485Y-185385771D01*
X197077200Y-185385771D01*
X197220057Y-185457200D01*
X197291485Y-185528628D01*
X197362914Y-185671485D01*
X197362914Y-186100057D01*
X197291485Y-186242914D01*
X197220057Y-186314342D01*
X197077200Y-186385771D01*
X196791485Y-186385771D01*
X196648628Y-186314342D01*
X198648628Y-186314342D02*
X198505771Y-186385771D01*
X198220057Y-186385771D01*
X198077200Y-186314342D01*
X198005771Y-186242914D01*
X197934342Y-186100057D01*
X197934342Y-185671485D01*
X198005771Y-185528628D01*
X198077200Y-185457200D01*
X198220057Y-185385771D01*
X198505771Y-185385771D01*
X198648628Y-185457200D01*
X199291485Y-186385771D02*
X199291485Y-184885771D01*
X199291485Y-185457200D02*
X199434342Y-185385771D01*
X199720057Y-185385771D01*
X199862914Y-185457200D01*
X199934342Y-185528628D01*
X200005771Y-185671485D01*
X200005771Y-186100057D01*
X199934342Y-186242914D01*
X199862914Y-186314342D01*
X199720057Y-186385771D01*
X199434342Y-186385771D01*
X199291485Y-186314342D01*
D10*
D11*
X177002200Y-181507200D02*
X285002200Y-181507200D01*
D10*
D11*
X178362914Y-183614342D02*
X178577200Y-183685771D01*
X178934342Y-183685771D01*
X179077200Y-183614342D01*
X179148628Y-183542914D01*
X179220057Y-183400057D01*
X179220057Y-183257200D01*
X179148628Y-183114342D01*
X179077200Y-183042914D01*
X178934342Y-182971485D01*
X178648628Y-182900057D01*
X178505771Y-182828628D01*
X178434342Y-182757200D01*
X178362914Y-182614342D01*
X178362914Y-182471485D01*
X178434342Y-182328628D01*
X178505771Y-182257200D01*
X178648628Y-182185771D01*
X179005771Y-182185771D01*
X179220057Y-182257200D01*
X179862914Y-183685771D02*
X179862914Y-182185771D01*
X180505771Y-183685771D02*
X180505771Y-182900057D01*
X180434342Y-182757200D01*
X180291485Y-182685771D01*
X180077200Y-182685771D01*
X179934342Y-182757200D01*
X179862914Y-182828628D01*
X181791485Y-183614342D02*
X181648628Y-183685771D01*
X181362914Y-183685771D01*
X181220057Y-183614342D01*
X181148628Y-183471485D01*
X181148628Y-182900057D01*
X181220057Y-182757200D01*
X181362914Y-182685771D01*
X181648628Y-182685771D01*
X181791485Y-182757200D01*
X181862914Y-182900057D01*
X181862914Y-183042914D01*
X181148628Y-183185771D01*
X183077200Y-183614342D02*
X182934342Y-183685771D01*
X182648628Y-183685771D01*
X182505771Y-183614342D01*
X182434342Y-183471485D01*
X182434342Y-182900057D01*
X182505771Y-182757200D01*
X182648628Y-182685771D01*
X182934342Y-182685771D01*
X183077200Y-182757200D01*
X183148628Y-182900057D01*
X183148628Y-183042914D01*
X182434342Y-183185771D01*
X183577200Y-182685771D02*
X184148628Y-182685771D01*
X183791485Y-182185771D02*
X183791485Y-183471485D01*
X183862914Y-183614342D01*
X184005771Y-183685771D01*
X184148628Y-183685771D01*
X184648628Y-183542914D02*
X184720057Y-183614342D01*
X184648628Y-183685771D01*
X184577200Y-183614342D01*
X184648628Y-183542914D01*
X184648628Y-183685771D01*
X184648628Y-182757200D02*
X184720057Y-182828628D01*
X184648628Y-182900057D01*
X184577200Y-182828628D01*
X184648628Y-182757200D01*
X184648628Y-182900057D01*
D10*
D12*
D10*
D11*
D10*
D11*
D10*
D11*
D10*
D11*
D10*
D11*
X197002200Y-191507200D02*
X197002200Y-194507200D01*
D10*
D11*
X261002200Y-191507200D02*
X261002200Y-198007200D01*
X107809523Y-88452380D02*
X107476190Y-87976190D01*
X107238095Y-88452380D02*
X107238095Y-87452380D01*
X107619047Y-87452380D01*
X107714285Y-87500000D01*
X107761904Y-87547619D01*
X107809523Y-87642857D01*
X107809523Y-87785714D01*
X107761904Y-87880952D01*
X107714285Y-87928571D01*
X107619047Y-87976190D01*
X107238095Y-87976190D01*
X108238095Y-87928571D02*
X108571428Y-87928571D01*
X108714285Y-88452380D02*
X108238095Y-88452380D01*
X108238095Y-87452380D01*
X108714285Y-87452380D01*
X109000000Y-87452380D02*
X109333333Y-88452380D01*
X109666666Y-87452380D01*
X110000000Y-88452380D02*
X110000000Y-87452380D01*
X110428571Y-88404761D02*
X110571428Y-88452380D01*
X110809523Y-88452380D01*
X110904761Y-88404761D01*
X110952380Y-88357142D01*
X111000000Y-88261904D01*
X111000000Y-88166666D01*
X110952380Y-88071428D01*
X110904761Y-88023809D01*
X110809523Y-87976190D01*
X110619047Y-87928571D01*
X110523809Y-87880952D01*
X110476190Y-87833333D01*
X110428571Y-87738095D01*
X110428571Y-87642857D01*
X110476190Y-87547619D01*
X110523809Y-87500000D01*
X110619047Y-87452380D01*
X110857142Y-87452380D01*
X111000000Y-87500000D01*
X111619047Y-87452380D02*
X111809523Y-87452380D01*
X111904761Y-87500000D01*
X112000000Y-87595238D01*
X112047619Y-87785714D01*
X112047619Y-88119047D01*
X112000000Y-88309523D01*
X111904761Y-88404761D01*
X111809523Y-88452380D01*
X111619047Y-88452380D01*
X111523809Y-88404761D01*
X111428571Y-88309523D01*
X111380952Y-88119047D01*
X111380952Y-87785714D01*
X111428571Y-87595238D01*
X111523809Y-87500000D01*
X111619047Y-87452380D01*
X112476190Y-88452380D02*
X112476190Y-87452380D01*
X113047619Y-88452380D01*
X113047619Y-87452380D01*
X114714285Y-87785714D02*
X114714285Y-88452380D01*
X114476190Y-87404761D02*
X114238095Y-88119047D01*
X114857142Y-88119047D01*
X148904761Y-130464285D02*
X148952380Y-130321428D01*
X148952380Y-130083333D01*
X148904761Y-129988095D01*
X148857142Y-129940476D01*
X148761904Y-129892857D01*
X148666666Y-129892857D01*
X148571428Y-129940476D01*
X148523809Y-129988095D01*
X148476190Y-130083333D01*
X148428571Y-130273809D01*
X148380952Y-130369047D01*
X148333333Y-130416666D01*
X148238095Y-130464285D01*
X148142857Y-130464285D01*
X148047619Y-130416666D01*
X148000000Y-130369047D01*
X147952380Y-130273809D01*
X147952380Y-130035714D01*
X148000000Y-129892857D01*
X148285714Y-129035714D02*
X148952380Y-129035714D01*
X147904761Y-129273809D02*
X148619047Y-129511904D01*
X148619047Y-128892857D01*
X149047619Y-128750000D02*
X149047619Y-127988095D01*
X148952380Y-127750000D02*
X147952380Y-127750000D01*
X147952380Y-127369047D01*
X148000000Y-127273809D01*
X148047619Y-127226190D01*
X148142857Y-127178571D01*
X148285714Y-127178571D01*
X148380952Y-127226190D01*
X148428571Y-127273809D01*
X148476190Y-127369047D01*
X148476190Y-127750000D01*
X147952380Y-126845238D02*
X148952380Y-126607142D01*
X148238095Y-126416666D01*
X148952380Y-126226190D01*
X147952380Y-125988095D01*
X148952380Y-125035714D02*
X148476190Y-125369047D01*
X148952380Y-125607142D02*
X147952380Y-125607142D01*
X147952380Y-125226190D01*
X148000000Y-125130952D01*
X148047619Y-125083333D01*
X148142857Y-125035714D01*
X148285714Y-125035714D01*
X148380952Y-125083333D01*
X148428571Y-125130952D01*
X148476190Y-125226190D01*
X148476190Y-125607142D01*
X107214285Y-85952380D02*
X107452380Y-86952380D01*
X107642857Y-86238095D01*
X107833333Y-86952380D01*
X108071428Y-85952380D01*
X108404761Y-86666666D02*
X108880952Y-86666666D01*
X108309523Y-86952380D02*
X108642857Y-85952380D01*
X108976190Y-86952380D01*
X109166666Y-85952380D02*
X109738095Y-85952380D01*
X109452380Y-86952380D02*
X109452380Y-85952380D01*
X110071428Y-86428571D02*
X110404761Y-86428571D01*
X110547619Y-86952380D02*
X110071428Y-86952380D01*
X110071428Y-85952380D01*
X110547619Y-85952380D01*
X111547619Y-86952380D02*
X111214285Y-86476190D01*
X110976190Y-86952380D02*
X110976190Y-85952380D01*
X111357142Y-85952380D01*
X111452380Y-86000000D01*
X111500000Y-86047619D01*
X111547619Y-86142857D01*
X111547619Y-86285714D01*
X111500000Y-86380952D01*
X111452380Y-86428571D01*
X111357142Y-86476190D01*
X110976190Y-86476190D01*
X113309523Y-86952380D02*
X112976190Y-86476190D01*
X112738095Y-86952380D02*
X112738095Y-85952380D01*
X113119047Y-85952380D01*
X113214285Y-86000000D01*
X113261904Y-86047619D01*
X113309523Y-86142857D01*
X113309523Y-86285714D01*
X113261904Y-86380952D01*
X113214285Y-86428571D01*
X113119047Y-86476190D01*
X112738095Y-86476190D01*
X113928571Y-85952380D02*
X114119047Y-85952380D01*
X114214285Y-86000000D01*
X114309523Y-86095238D01*
X114357142Y-86285714D01*
X114357142Y-86619047D01*
X114309523Y-86809523D01*
X114214285Y-86904761D01*
X114119047Y-86952380D01*
X113928571Y-86952380D01*
X113833333Y-86904761D01*
X113738095Y-86809523D01*
X113690476Y-86619047D01*
X113690476Y-86285714D01*
X113738095Y-86095238D01*
X113833333Y-86000000D01*
X113928571Y-85952380D01*
X114690476Y-85952380D02*
X114928571Y-86952380D01*
X115119047Y-86238095D01*
X115309523Y-86952380D01*
X115547619Y-85952380D01*
X115928571Y-86428571D02*
X116261904Y-86428571D01*
X116404761Y-86952380D02*
X115928571Y-86952380D01*
X115928571Y-85952380D01*
X116404761Y-85952380D01*
X117404761Y-86952380D02*
X117071428Y-86476190D01*
X116833333Y-86952380D02*
X116833333Y-85952380D01*
X117214285Y-85952380D01*
X117309523Y-86000000D01*
X117357142Y-86047619D01*
X117404761Y-86142857D01*
X117404761Y-86285714D01*
X117357142Y-86380952D01*
X117309523Y-86428571D01*
X117214285Y-86476190D01*
X116833333Y-86476190D01*
X119071428Y-86952380D02*
X118595238Y-86952380D01*
X118595238Y-85952380D01*
X119404761Y-86952380D02*
X119404761Y-85952380D01*
X119880952Y-86952380D02*
X119880952Y-85952380D01*
X120452380Y-86952380D01*
X120452380Y-85952380D01*
X120928571Y-86952380D02*
X120928571Y-85952380D01*
X121500000Y-86952380D02*
X121071428Y-86380952D01*
X121500000Y-85952380D02*
X120928571Y-86523809D01*
X121928571Y-86571428D02*
X122690476Y-86571428D01*
X122309523Y-86952380D02*
X122309523Y-86190476D01*
X148952380Y-121677380D02*
X148476190Y-122010714D01*
X148952380Y-122248809D02*
X147952380Y-122248809D01*
X147952380Y-121867857D01*
X148000000Y-121772619D01*
X148047619Y-121725000D01*
X148142857Y-121677380D01*
X148285714Y-121677380D01*
X148380952Y-121725000D01*
X148428571Y-121772619D01*
X148476190Y-121867857D01*
X148476190Y-122248809D01*
X148428571Y-121248809D02*
X148428571Y-120915476D01*
X148952380Y-120772619D02*
X148952380Y-121248809D01*
X147952380Y-121248809D01*
X147952380Y-120772619D01*
X148904761Y-120391666D02*
X148952380Y-120248809D01*
X148952380Y-120010714D01*
X148904761Y-119915476D01*
X148857142Y-119867857D01*
X148761904Y-119820238D01*
X148666666Y-119820238D01*
X148571428Y-119867857D01*
X148523809Y-119915476D01*
X148476190Y-120010714D01*
X148428571Y-120201190D01*
X148380952Y-120296428D01*
X148333333Y-120344047D01*
X148238095Y-120391666D01*
X148142857Y-120391666D01*
X148047619Y-120344047D01*
X148000000Y-120296428D01*
X147952380Y-120201190D01*
X147952380Y-119963095D01*
X148000000Y-119820238D01*
X148428571Y-119391666D02*
X148428571Y-119058333D01*
X148952380Y-118915476D02*
X148952380Y-119391666D01*
X147952380Y-119391666D01*
X147952380Y-118915476D01*
X147952380Y-118629761D02*
X147952380Y-118058333D01*
X148952380Y-118344047D02*
X147952380Y-118344047D01*
X145452380Y-101702380D02*
X144976190Y-102035714D01*
X145452380Y-102273809D02*
X144452380Y-102273809D01*
X144452380Y-101892857D01*
X144500000Y-101797619D01*
X144547619Y-101750000D01*
X144642857Y-101702380D01*
X144785714Y-101702380D01*
X144880952Y-101750000D01*
X144928571Y-101797619D01*
X144976190Y-101892857D01*
X144976190Y-102273809D01*
X144928571Y-101273809D02*
X144928571Y-100940476D01*
X145452380Y-100797619D02*
X145452380Y-101273809D01*
X144452380Y-101273809D01*
X144452380Y-100797619D01*
X145404761Y-100416666D02*
X145452380Y-100273809D01*
X145452380Y-100035714D01*
X145404761Y-99940476D01*
X145357142Y-99892857D01*
X145261904Y-99845238D01*
X145166666Y-99845238D01*
X145071428Y-99892857D01*
X145023809Y-99940476D01*
X144976190Y-100035714D01*
X144928571Y-100226190D01*
X144880952Y-100321428D01*
X144833333Y-100369047D01*
X144738095Y-100416666D01*
X144642857Y-100416666D01*
X144547619Y-100369047D01*
X144500000Y-100321428D01*
X144452380Y-100226190D01*
X144452380Y-99988095D01*
X144500000Y-99845238D01*
X144928571Y-99416666D02*
X144928571Y-99083333D01*
X145452380Y-98940476D02*
X145452380Y-99416666D01*
X144452380Y-99416666D01*
X144452380Y-98940476D01*
X144452380Y-98654761D02*
X144452380Y-98083333D01*
X145452380Y-98369047D02*
X144452380Y-98369047D01*
G04 #@! TO.C,D3*
X149602380Y-170341828D02*
X148602380Y-170341828D01*
X148602380Y-170103733D01*
X148650000Y-169960875D01*
X148745238Y-169865637D01*
X148840476Y-169818018D01*
X149030952Y-169770399D01*
X149173809Y-169770399D01*
X149364285Y-169818018D01*
X149459523Y-169865637D01*
X149554761Y-169960875D01*
X149602380Y-170103733D01*
X149602380Y-170341828D01*
X148602380Y-169437066D02*
X148602380Y-168818018D01*
X148983333Y-169151352D01*
X148983333Y-169008494D01*
X149030952Y-168913256D01*
X149078571Y-168865637D01*
X149173809Y-168818018D01*
X149411904Y-168818018D01*
X149507142Y-168865637D01*
X149554761Y-168913256D01*
X149602380Y-169008494D01*
X149602380Y-169294209D01*
X149554761Y-169389447D01*
X149507142Y-169437066D01*
G04 #@! TO.C,C2*
X141033333Y-112957142D02*
X140985714Y-113004761D01*
X140842857Y-113052380D01*
X140747619Y-113052380D01*
X140604761Y-113004761D01*
X140509523Y-112909523D01*
X140461904Y-112814285D01*
X140414285Y-112623809D01*
X140414285Y-112480952D01*
X140461904Y-112290476D01*
X140509523Y-112195238D01*
X140604761Y-112100000D01*
X140747619Y-112052380D01*
X140842857Y-112052380D01*
X140985714Y-112100000D01*
X141033333Y-112147619D01*
X141414285Y-112147619D02*
X141461904Y-112100000D01*
X141557142Y-112052380D01*
X141795238Y-112052380D01*
X141890476Y-112100000D01*
X141938095Y-112147619D01*
X141985714Y-112242857D01*
X141985714Y-112338095D01*
X141938095Y-112480952D01*
X141366666Y-113052380D01*
X141985714Y-113052380D01*
G04 #@! TO.C,C3*
X136633333Y-108290476D02*
X136585714Y-108338095D01*
X136442857Y-108385714D01*
X136347619Y-108385714D01*
X136204761Y-108338095D01*
X136109523Y-108242857D01*
X136061904Y-108147619D01*
X136014285Y-107957143D01*
X136014285Y-107814286D01*
X136061904Y-107623810D01*
X136109523Y-107528572D01*
X136204761Y-107433334D01*
X136347619Y-107385714D01*
X136442857Y-107385714D01*
X136585714Y-107433334D01*
X136633333Y-107480953D01*
X136966666Y-107385714D02*
X137585714Y-107385714D01*
X137252380Y-107766667D01*
X137395238Y-107766667D01*
X137490476Y-107814286D01*
X137538095Y-107861905D01*
X137585714Y-107957143D01*
X137585714Y-108195238D01*
X137538095Y-108290476D01*
X137490476Y-108338095D01*
X137395238Y-108385714D01*
X137109523Y-108385714D01*
X137014285Y-108338095D01*
X136966666Y-108290476D01*
G04 #@! TO.C,Q2*
X124992261Y-129047619D02*
X124897023Y-129000000D01*
X124801785Y-128904761D01*
X124658928Y-128761904D01*
X124563690Y-128714285D01*
X124468452Y-128714285D01*
X124516071Y-128952380D02*
X124420833Y-128904761D01*
X124325595Y-128809523D01*
X124277976Y-128619047D01*
X124277976Y-128285714D01*
X124325595Y-128095238D01*
X124420833Y-128000000D01*
X124516071Y-127952380D01*
X124706547Y-127952380D01*
X124801785Y-128000000D01*
X124897023Y-128095238D01*
X124944642Y-128285714D01*
X124944642Y-128619047D01*
X124897023Y-128809523D01*
X124801785Y-128904761D01*
X124706547Y-128952380D01*
X124516071Y-128952380D01*
X125325595Y-128047619D02*
X125373214Y-128000000D01*
X125468452Y-127952380D01*
X125706547Y-127952380D01*
X125801785Y-128000000D01*
X125849404Y-128047619D01*
X125897023Y-128142857D01*
X125897023Y-128238095D01*
X125849404Y-128380952D01*
X125277976Y-128952380D01*
X125897023Y-128952380D01*
G04 #@! TO.C,C14*
X125457142Y-151742857D02*
X125504761Y-151790476D01*
X125552380Y-151933333D01*
X125552380Y-152028571D01*
X125504761Y-152171428D01*
X125409523Y-152266666D01*
X125314285Y-152314285D01*
X125123809Y-152361904D01*
X124980952Y-152361904D01*
X124790476Y-152314285D01*
X124695238Y-152266666D01*
X124600000Y-152171428D01*
X124552380Y-152028571D01*
X124552380Y-151933333D01*
X124600000Y-151790476D01*
X124647619Y-151742857D01*
X125552380Y-150790476D02*
X125552380Y-151361904D01*
X125552380Y-151076190D02*
X124552380Y-151076190D01*
X124695238Y-151171428D01*
X124790476Y-151266666D01*
X124838095Y-151361904D01*
X124885714Y-149933333D02*
X125552380Y-149933333D01*
X124504761Y-150171428D02*
X125219047Y-150409523D01*
X125219047Y-149790476D01*
G04 #@! TO.C,SW4*
X153654761Y-121333333D02*
X153702380Y-121190476D01*
X153702380Y-120952380D01*
X153654761Y-120857142D01*
X153607142Y-120809523D01*
X153511904Y-120761904D01*
X153416666Y-120761904D01*
X153321428Y-120809523D01*
X153273809Y-120857142D01*
X153226190Y-120952380D01*
X153178571Y-121142857D01*
X153130952Y-121238095D01*
X153083333Y-121285714D01*
X152988095Y-121333333D01*
X152892857Y-121333333D01*
X152797619Y-121285714D01*
X152750000Y-121238095D01*
X152702380Y-121142857D01*
X152702380Y-120904761D01*
X152750000Y-120761904D01*
X152702380Y-120428571D02*
X153702380Y-120190476D01*
X152988095Y-120000000D01*
X153702380Y-119809523D01*
X152702380Y-119571428D01*
X153035714Y-118761904D02*
X153702380Y-118761904D01*
X152654761Y-119000000D02*
X153369047Y-119238095D01*
X153369047Y-118619047D01*
G04 #@! TO.C,R10*
X119952380Y-154730357D02*
X119476190Y-155063690D01*
X119952380Y-155301785D02*
X118952380Y-155301785D01*
X118952380Y-154920833D01*
X119000000Y-154825595D01*
X119047619Y-154777976D01*
X119142857Y-154730357D01*
X119285714Y-154730357D01*
X119380952Y-154777976D01*
X119428571Y-154825595D01*
X119476190Y-154920833D01*
X119476190Y-155301785D01*
X119952380Y-153777976D02*
X119952380Y-154349404D01*
X119952380Y-154063690D02*
X118952380Y-154063690D01*
X119095238Y-154158928D01*
X119190476Y-154254166D01*
X119238095Y-154349404D01*
X118952380Y-153158928D02*
X118952380Y-153063690D01*
X119000000Y-152968452D01*
X119047619Y-152920833D01*
X119142857Y-152873214D01*
X119333333Y-152825595D01*
X119571428Y-152825595D01*
X119761904Y-152873214D01*
X119857142Y-152920833D01*
X119904761Y-152968452D01*
X119952380Y-153063690D01*
X119952380Y-153158928D01*
X119904761Y-153254166D01*
X119857142Y-153301785D01*
X119761904Y-153349404D01*
X119571428Y-153397023D01*
X119333333Y-153397023D01*
X119142857Y-153349404D01*
X119047619Y-153301785D01*
X119000000Y-153254166D01*
X118952380Y-153158928D01*
G04 #@! TO.C,C10*
X120457142Y-147457142D02*
X120409523Y-147504761D01*
X120266666Y-147552380D01*
X120171428Y-147552380D01*
X120028571Y-147504761D01*
X119933333Y-147409523D01*
X119885714Y-147314285D01*
X119838095Y-147123809D01*
X119838095Y-146980952D01*
X119885714Y-146790476D01*
X119933333Y-146695238D01*
X120028571Y-146600000D01*
X120171428Y-146552380D01*
X120266666Y-146552380D01*
X120409523Y-146600000D01*
X120457142Y-146647619D01*
X121409523Y-147552380D02*
X120838095Y-147552380D01*
X121123809Y-147552380D02*
X121123809Y-146552380D01*
X121028571Y-146695238D01*
X120933333Y-146790476D01*
X120838095Y-146838095D01*
X122028571Y-146552380D02*
X122123809Y-146552380D01*
X122219047Y-146600000D01*
X122266666Y-146647619D01*
X122314285Y-146742857D01*
X122361904Y-146933333D01*
X122361904Y-147171428D01*
X122314285Y-147361904D01*
X122266666Y-147457142D01*
X122219047Y-147504761D01*
X122123809Y-147552380D01*
X122028571Y-147552380D01*
X121933333Y-147504761D01*
X121885714Y-147457142D01*
X121838095Y-147361904D01*
X121790476Y-147171428D01*
X121790476Y-146933333D01*
X121838095Y-146742857D01*
X121885714Y-146647619D01*
X121933333Y-146600000D01*
X122028571Y-146552380D01*
G04 #@! TO.C,J1*
X114416666Y-163052380D02*
X114416666Y-163766666D01*
X114369047Y-163909523D01*
X114273809Y-164004761D01*
X114130952Y-164052380D01*
X114035714Y-164052380D01*
X115416666Y-164052380D02*
X114845238Y-164052380D01*
X115130952Y-164052380D02*
X115130952Y-163052380D01*
X115035714Y-163195238D01*
X114940476Y-163290476D01*
X114845238Y-163338095D01*
G04 #@! TO.C,R2*
X132233333Y-104222380D02*
X131900000Y-103746190D01*
X131661904Y-104222380D02*
X131661904Y-103222380D01*
X132042857Y-103222380D01*
X132138095Y-103270000D01*
X132185714Y-103317619D01*
X132233333Y-103412857D01*
X132233333Y-103555714D01*
X132185714Y-103650952D01*
X132138095Y-103698571D01*
X132042857Y-103746190D01*
X131661904Y-103746190D01*
X132614285Y-103317619D02*
X132661904Y-103270000D01*
X132757142Y-103222380D01*
X132995238Y-103222380D01*
X133090476Y-103270000D01*
X133138095Y-103317619D01*
X133185714Y-103412857D01*
X133185714Y-103508095D01*
X133138095Y-103650952D01*
X132566666Y-104222380D01*
X133185714Y-104222380D01*
G04 #@! TO.C,R5*
X132233333Y-108352380D02*
X131900000Y-107876190D01*
X131661904Y-108352380D02*
X131661904Y-107352380D01*
X132042857Y-107352380D01*
X132138095Y-107400000D01*
X132185714Y-107447619D01*
X132233333Y-107542857D01*
X132233333Y-107685714D01*
X132185714Y-107780952D01*
X132138095Y-107828571D01*
X132042857Y-107876190D01*
X131661904Y-107876190D01*
X133138095Y-107352380D02*
X132661904Y-107352380D01*
X132614285Y-107828571D01*
X132661904Y-107780952D01*
X132757142Y-107733333D01*
X132995238Y-107733333D01*
X133090476Y-107780952D01*
X133138095Y-107828571D01*
X133185714Y-107923809D01*
X133185714Y-108161904D01*
X133138095Y-108257142D01*
X133090476Y-108304761D01*
X132995238Y-108352380D01*
X132757142Y-108352380D01*
X132661904Y-108304761D01*
X132614285Y-108257142D01*
G04 #@! TO.C,SW1*
X153404761Y-101083333D02*
X153452380Y-100940476D01*
X153452380Y-100702380D01*
X153404761Y-100607142D01*
X153357142Y-100559523D01*
X153261904Y-100511904D01*
X153166666Y-100511904D01*
X153071428Y-100559523D01*
X153023809Y-100607142D01*
X152976190Y-100702380D01*
X152928571Y-100892857D01*
X152880952Y-100988095D01*
X152833333Y-101035714D01*
X152738095Y-101083333D01*
X152642857Y-101083333D01*
X152547619Y-101035714D01*
X152500000Y-100988095D01*
X152452380Y-100892857D01*
X152452380Y-100654761D01*
X152500000Y-100511904D01*
X152452380Y-100178571D02*
X153452380Y-99940476D01*
X152738095Y-99750000D01*
X153452380Y-99559523D01*
X152452380Y-99321428D01*
X153452380Y-98416666D02*
X153452380Y-98988095D01*
X153452380Y-98702380D02*
X152452380Y-98702380D01*
X152595238Y-98797619D01*
X152690476Y-98892857D01*
X152738095Y-98988095D01*
G04 #@! TO.C,C15*
X128557142Y-151842857D02*
X128604761Y-151890476D01*
X128652380Y-152033333D01*
X128652380Y-152128571D01*
X128604761Y-152271428D01*
X128509523Y-152366666D01*
X128414285Y-152414285D01*
X128223809Y-152461904D01*
X128080952Y-152461904D01*
X127890476Y-152414285D01*
X127795238Y-152366666D01*
X127700000Y-152271428D01*
X127652380Y-152128571D01*
X127652380Y-152033333D01*
X127700000Y-151890476D01*
X127747619Y-151842857D01*
X128652380Y-150890476D02*
X128652380Y-151461904D01*
X128652380Y-151176190D02*
X127652380Y-151176190D01*
X127795238Y-151271428D01*
X127890476Y-151366666D01*
X127938095Y-151461904D01*
X127652380Y-149985714D02*
X127652380Y-150461904D01*
X128128571Y-150509523D01*
X128080952Y-150461904D01*
X128033333Y-150366666D01*
X128033333Y-150128571D01*
X128080952Y-150033333D01*
X128128571Y-149985714D01*
X128223809Y-149938095D01*
X128461904Y-149938095D01*
X128557142Y-149985714D01*
X128604761Y-150033333D01*
X128652380Y-150128571D01*
X128652380Y-150366666D01*
X128604761Y-150461904D01*
X128557142Y-150509523D01*
G04 #@! TO.C,C1*
X110333333Y-159927142D02*
X110285714Y-159974761D01*
X110142857Y-160022380D01*
X110047619Y-160022380D01*
X109904761Y-159974761D01*
X109809523Y-159879523D01*
X109761904Y-159784285D01*
X109714285Y-159593809D01*
X109714285Y-159450952D01*
X109761904Y-159260476D01*
X109809523Y-159165238D01*
X109904761Y-159070000D01*
X110047619Y-159022380D01*
X110142857Y-159022380D01*
X110285714Y-159070000D01*
X110333333Y-159117619D01*
X111285714Y-160022380D02*
X110714285Y-160022380D01*
X111000000Y-160022380D02*
X111000000Y-159022380D01*
X110904761Y-159165238D01*
X110809523Y-159260476D01*
X110714285Y-159308095D01*
G04 #@! TO.C,U6*
X128638095Y-170860380D02*
X128638095Y-171669904D01*
X128685714Y-171765142D01*
X128733333Y-171812761D01*
X128828571Y-171860380D01*
X129019047Y-171860380D01*
X129114285Y-171812761D01*
X129161904Y-171765142D01*
X129209523Y-171669904D01*
X129209523Y-170860380D01*
X130114285Y-170860380D02*
X129923809Y-170860380D01*
X129828571Y-170908000D01*
X129780952Y-170955619D01*
X129685714Y-171098476D01*
X129638095Y-171288952D01*
X129638095Y-171669904D01*
X129685714Y-171765142D01*
X129733333Y-171812761D01*
X129828571Y-171860380D01*
X130019047Y-171860380D01*
X130114285Y-171812761D01*
X130161904Y-171765142D01*
X130209523Y-171669904D01*
X130209523Y-171431809D01*
X130161904Y-171336571D01*
X130114285Y-171288952D01*
X130019047Y-171241333D01*
X129828571Y-171241333D01*
X129733333Y-171288952D01*
X129685714Y-171336571D01*
X129638095Y-171431809D01*
G04 #@! TO.C,R6*
X132772380Y-163686666D02*
X132296190Y-164020000D01*
X132772380Y-164258095D02*
X131772380Y-164258095D01*
X131772380Y-163877142D01*
X131820000Y-163781904D01*
X131867619Y-163734285D01*
X131962857Y-163686666D01*
X132105714Y-163686666D01*
X132200952Y-163734285D01*
X132248571Y-163781904D01*
X132296190Y-163877142D01*
X132296190Y-164258095D01*
X131772380Y-162829523D02*
X131772380Y-163020000D01*
X131820000Y-163115238D01*
X131867619Y-163162857D01*
X132010476Y-163258095D01*
X132200952Y-163305714D01*
X132581904Y-163305714D01*
X132677142Y-163258095D01*
X132724761Y-163210476D01*
X132772380Y-163115238D01*
X132772380Y-162924761D01*
X132724761Y-162829523D01*
X132677142Y-162781904D01*
X132581904Y-162734285D01*
X132343809Y-162734285D01*
X132248571Y-162781904D01*
X132200952Y-162829523D01*
X132153333Y-162924761D01*
X132153333Y-163115238D01*
X132200952Y-163210476D01*
X132248571Y-163258095D01*
X132343809Y-163305714D01*
G04 #@! TO.C,D2*
X130702380Y-164596095D02*
X129702380Y-164596095D01*
X129702380Y-164358000D01*
X129750000Y-164215142D01*
X129845238Y-164119904D01*
X129940476Y-164072285D01*
X130130952Y-164024666D01*
X130273809Y-164024666D01*
X130464285Y-164072285D01*
X130559523Y-164119904D01*
X130654761Y-164215142D01*
X130702380Y-164358000D01*
X130702380Y-164596095D01*
X129797619Y-163643714D02*
X129750000Y-163596095D01*
X129702380Y-163500857D01*
X129702380Y-163262761D01*
X129750000Y-163167523D01*
X129797619Y-163119904D01*
X129892857Y-163072285D01*
X129988095Y-163072285D01*
X130130952Y-163119904D01*
X130702380Y-163691333D01*
X130702380Y-163072285D01*
G04 #@! TO.C,U5*
X100952380Y-134261904D02*
X101761904Y-134261904D01*
X101857142Y-134214285D01*
X101904761Y-134166666D01*
X101952380Y-134071428D01*
X101952380Y-133880952D01*
X101904761Y-133785714D01*
X101857142Y-133738095D01*
X101761904Y-133690476D01*
X100952380Y-133690476D01*
X100952380Y-132738095D02*
X100952380Y-133214285D01*
X101428571Y-133261904D01*
X101380952Y-133214285D01*
X101333333Y-133119047D01*
X101333333Y-132880952D01*
X101380952Y-132785714D01*
X101428571Y-132738095D01*
X101523809Y-132690476D01*
X101761904Y-132690476D01*
X101857142Y-132738095D01*
X101904761Y-132785714D01*
X101952380Y-132880952D01*
X101952380Y-133119047D01*
X101904761Y-133214285D01*
X101857142Y-133261904D01*
G04 #@! TO.C,U3*
X151952380Y-160011904D02*
X152761904Y-160011904D01*
X152857142Y-159964285D01*
X152904761Y-159916666D01*
X152952380Y-159821428D01*
X152952380Y-159630952D01*
X152904761Y-159535714D01*
X152857142Y-159488095D01*
X152761904Y-159440476D01*
X151952380Y-159440476D01*
X151952380Y-159059523D02*
X151952380Y-158440476D01*
X152333333Y-158773809D01*
X152333333Y-158630952D01*
X152380952Y-158535714D01*
X152428571Y-158488095D01*
X152523809Y-158440476D01*
X152761904Y-158440476D01*
X152857142Y-158488095D01*
X152904761Y-158535714D01*
X152952380Y-158630952D01*
X152952380Y-158916666D01*
X152904761Y-159011904D01*
X152857142Y-159059523D01*
G04 #@! TO.C,U4*
X115202380Y-142511904D02*
X116011904Y-142511904D01*
X116107142Y-142464285D01*
X116154761Y-142416666D01*
X116202380Y-142321428D01*
X116202380Y-142130952D01*
X116154761Y-142035714D01*
X116107142Y-141988095D01*
X116011904Y-141940476D01*
X115202380Y-141940476D01*
X115535714Y-141035714D02*
X116202380Y-141035714D01*
X115154761Y-141273809D02*
X115869047Y-141511904D01*
X115869047Y-140892857D01*
G04 #@! TO.C,C11*
X127257142Y-158742857D02*
X127304761Y-158790476D01*
X127352380Y-158933333D01*
X127352380Y-159028571D01*
X127304761Y-159171428D01*
X127209523Y-159266666D01*
X127114285Y-159314285D01*
X126923809Y-159361904D01*
X126780952Y-159361904D01*
X126590476Y-159314285D01*
X126495238Y-159266666D01*
X126400000Y-159171428D01*
X126352380Y-159028571D01*
X126352380Y-158933333D01*
X126400000Y-158790476D01*
X126447619Y-158742857D01*
X127352380Y-157790476D02*
X127352380Y-158361904D01*
X127352380Y-158076190D02*
X126352380Y-158076190D01*
X126495238Y-158171428D01*
X126590476Y-158266666D01*
X126638095Y-158361904D01*
X127352380Y-156838095D02*
X127352380Y-157409523D01*
X127352380Y-157123809D02*
X126352380Y-157123809D01*
X126495238Y-157219047D01*
X126590476Y-157314285D01*
X126638095Y-157409523D01*
G04 #@! TO.C,R1*
X136633333Y-113052380D02*
X136300000Y-112576190D01*
X136061904Y-113052380D02*
X136061904Y-112052380D01*
X136442857Y-112052380D01*
X136538095Y-112100000D01*
X136585714Y-112147619D01*
X136633333Y-112242857D01*
X136633333Y-112385714D01*
X136585714Y-112480952D01*
X136538095Y-112528571D01*
X136442857Y-112576190D01*
X136061904Y-112576190D01*
X137585714Y-113052380D02*
X137014285Y-113052380D01*
X137300000Y-113052380D02*
X137300000Y-112052380D01*
X137204761Y-112195238D01*
X137109523Y-112290476D01*
X137014285Y-112338095D01*
G04 #@! TO.C,R12*
X152502380Y-166142857D02*
X152026190Y-166476190D01*
X152502380Y-166714285D02*
X151502380Y-166714285D01*
X151502380Y-166333333D01*
X151550000Y-166238095D01*
X151597619Y-166190476D01*
X151692857Y-166142857D01*
X151835714Y-166142857D01*
X151930952Y-166190476D01*
X151978571Y-166238095D01*
X152026190Y-166333333D01*
X152026190Y-166714285D01*
X152502380Y-165190476D02*
X152502380Y-165761904D01*
X152502380Y-165476190D02*
X151502380Y-165476190D01*
X151645238Y-165571428D01*
X151740476Y-165666666D01*
X151788095Y-165761904D01*
X151597619Y-164809523D02*
X151550000Y-164761904D01*
X151502380Y-164666666D01*
X151502380Y-164428571D01*
X151550000Y-164333333D01*
X151597619Y-164285714D01*
X151692857Y-164238095D01*
X151788095Y-164238095D01*
X151930952Y-164285714D01*
X152502380Y-164857142D01*
X152502380Y-164238095D01*
G04 #@! TO.C,C5*
X132233333Y-112957142D02*
X132185714Y-113004761D01*
X132042857Y-113052380D01*
X131947619Y-113052380D01*
X131804761Y-113004761D01*
X131709523Y-112909523D01*
X131661904Y-112814285D01*
X131614285Y-112623809D01*
X131614285Y-112480952D01*
X131661904Y-112290476D01*
X131709523Y-112195238D01*
X131804761Y-112100000D01*
X131947619Y-112052380D01*
X132042857Y-112052380D01*
X132185714Y-112100000D01*
X132233333Y-112147619D01*
X133138095Y-112052380D02*
X132661904Y-112052380D01*
X132614285Y-112528571D01*
X132661904Y-112480952D01*
X132757142Y-112433333D01*
X132995238Y-112433333D01*
X133090476Y-112480952D01*
X133138095Y-112528571D01*
X133185714Y-112623809D01*
X133185714Y-112861904D01*
X133138095Y-112957142D01*
X133090476Y-113004761D01*
X132995238Y-113052380D01*
X132757142Y-113052380D01*
X132661904Y-113004761D01*
X132614285Y-112957142D01*
G04 #@! TO.C,C16*
X140557142Y-108157142D02*
X140509523Y-108204761D01*
X140366666Y-108252380D01*
X140271428Y-108252380D01*
X140128571Y-108204761D01*
X140033333Y-108109523D01*
X139985714Y-108014285D01*
X139938095Y-107823809D01*
X139938095Y-107680952D01*
X139985714Y-107490476D01*
X140033333Y-107395238D01*
X140128571Y-107300000D01*
X140271428Y-107252380D01*
X140366666Y-107252380D01*
X140509523Y-107300000D01*
X140557142Y-107347619D01*
X141509523Y-108252380D02*
X140938095Y-108252380D01*
X141223809Y-108252380D02*
X141223809Y-107252380D01*
X141128571Y-107395238D01*
X141033333Y-107490476D01*
X140938095Y-107538095D01*
X142366666Y-107252380D02*
X142176190Y-107252380D01*
X142080952Y-107300000D01*
X142033333Y-107347619D01*
X141938095Y-107490476D01*
X141890476Y-107680952D01*
X141890476Y-108061904D01*
X141938095Y-108157142D01*
X141985714Y-108204761D01*
X142080952Y-108252380D01*
X142271428Y-108252380D01*
X142366666Y-108204761D01*
X142414285Y-108157142D01*
X142461904Y-108061904D01*
X142461904Y-107823809D01*
X142414285Y-107728571D01*
X142366666Y-107680952D01*
X142271428Y-107633333D01*
X142080952Y-107633333D01*
X141985714Y-107680952D01*
X141938095Y-107728571D01*
X141890476Y-107823809D01*
G04 #@! TO.C,U1*
X100202380Y-122511904D02*
X101011904Y-122511904D01*
X101107142Y-122464285D01*
X101154761Y-122416666D01*
X101202380Y-122321428D01*
X101202380Y-122130952D01*
X101154761Y-122035714D01*
X101107142Y-121988095D01*
X101011904Y-121940476D01*
X100202380Y-121940476D01*
X101202380Y-120940476D02*
X101202380Y-121511904D01*
X101202380Y-121226190D02*
X100202380Y-121226190D01*
X100345238Y-121321428D01*
X100440476Y-121416666D01*
X100488095Y-121511904D01*
G04 #@! TO.C,J3*
X129416666Y-173549880D02*
X129416666Y-174264166D01*
X129369047Y-174407023D01*
X129273809Y-174502261D01*
X129130952Y-174549880D01*
X129035714Y-174549880D01*
X129797619Y-173549880D02*
X130416666Y-173549880D01*
X130083333Y-173930833D01*
X130226190Y-173930833D01*
X130321428Y-173978452D01*
X130369047Y-174026071D01*
X130416666Y-174121309D01*
X130416666Y-174359404D01*
X130369047Y-174454642D01*
X130321428Y-174502261D01*
X130226190Y-174549880D01*
X129940476Y-174549880D01*
X129845238Y-174502261D01*
X129797619Y-174454642D01*
G04 #@! TO.C,R4*
X128702380Y-92166666D02*
X128226190Y-92500000D01*
X128702380Y-92738095D02*
X127702380Y-92738095D01*
X127702380Y-92357142D01*
X127750000Y-92261904D01*
X127797619Y-92214285D01*
X127892857Y-92166666D01*
X128035714Y-92166666D01*
X128130952Y-92214285D01*
X128178571Y-92261904D01*
X128226190Y-92357142D01*
X128226190Y-92738095D01*
X128035714Y-91309523D02*
X128702380Y-91309523D01*
X127654761Y-91547619D02*
X128369047Y-91785714D01*
X128369047Y-91166666D01*
G04 #@! TO.C,C13*
X111157142Y-134142857D02*
X111204761Y-134190476D01*
X111252380Y-134333333D01*
X111252380Y-134428571D01*
X111204761Y-134571428D01*
X111109523Y-134666666D01*
X111014285Y-134714285D01*
X110823809Y-134761904D01*
X110680952Y-134761904D01*
X110490476Y-134714285D01*
X110395238Y-134666666D01*
X110300000Y-134571428D01*
X110252380Y-134428571D01*
X110252380Y-134333333D01*
X110300000Y-134190476D01*
X110347619Y-134142857D01*
X111252380Y-133190476D02*
X111252380Y-133761904D01*
X111252380Y-133476190D02*
X110252380Y-133476190D01*
X110395238Y-133571428D01*
X110490476Y-133666666D01*
X110538095Y-133761904D01*
X110252380Y-132857142D02*
X110252380Y-132238095D01*
X110633333Y-132571428D01*
X110633333Y-132428571D01*
X110680952Y-132333333D01*
X110728571Y-132285714D01*
X110823809Y-132238095D01*
X111061904Y-132238095D01*
X111157142Y-132285714D01*
X111204761Y-132333333D01*
X111252380Y-132428571D01*
X111252380Y-132714285D01*
X111204761Y-132809523D01*
X111157142Y-132857142D01*
G04 #@! TO.C,R8*
X116252380Y-133666666D02*
X115776190Y-134000000D01*
X116252380Y-134238095D02*
X115252380Y-134238095D01*
X115252380Y-133857142D01*
X115300000Y-133761904D01*
X115347619Y-133714285D01*
X115442857Y-133666666D01*
X115585714Y-133666666D01*
X115680952Y-133714285D01*
X115728571Y-133761904D01*
X115776190Y-133857142D01*
X115776190Y-134238095D01*
X115680952Y-133095238D02*
X115633333Y-133190476D01*
X115585714Y-133238095D01*
X115490476Y-133285714D01*
X115442857Y-133285714D01*
X115347619Y-133238095D01*
X115300000Y-133190476D01*
X115252380Y-133095238D01*
X115252380Y-132904761D01*
X115300000Y-132809523D01*
X115347619Y-132761904D01*
X115442857Y-132714285D01*
X115490476Y-132714285D01*
X115585714Y-132761904D01*
X115633333Y-132809523D01*
X115680952Y-132904761D01*
X115680952Y-133095238D01*
X115728571Y-133190476D01*
X115776190Y-133238095D01*
X115871428Y-133285714D01*
X116061904Y-133285714D01*
X116157142Y-133238095D01*
X116204761Y-133190476D01*
X116252380Y-133095238D01*
X116252380Y-132904761D01*
X116204761Y-132809523D01*
X116157142Y-132761904D01*
X116061904Y-132714285D01*
X115871428Y-132714285D01*
X115776190Y-132761904D01*
X115728571Y-132809523D01*
X115680952Y-132904761D01*
G04 #@! TO.C,R11*
X112857142Y-145652380D02*
X112523809Y-145176190D01*
X112285714Y-145652380D02*
X112285714Y-144652380D01*
X112666666Y-144652380D01*
X112761904Y-144700000D01*
X112809523Y-144747619D01*
X112857142Y-144842857D01*
X112857142Y-144985714D01*
X112809523Y-145080952D01*
X112761904Y-145128571D01*
X112666666Y-145176190D01*
X112285714Y-145176190D01*
X113809523Y-145652380D02*
X113238095Y-145652380D01*
X113523809Y-145652380D02*
X113523809Y-144652380D01*
X113428571Y-144795238D01*
X113333333Y-144890476D01*
X113238095Y-144938095D01*
X114761904Y-145652380D02*
X114190476Y-145652380D01*
X114476190Y-145652380D02*
X114476190Y-144652380D01*
X114380952Y-144795238D01*
X114285714Y-144890476D01*
X114190476Y-144938095D01*
G04 #@! TO.C,Q3*
X109547619Y-141345238D02*
X109500000Y-141440476D01*
X109404761Y-141535714D01*
X109261904Y-141678571D01*
X109214285Y-141773809D01*
X109214285Y-141869047D01*
X109452380Y-141821428D02*
X109404761Y-141916666D01*
X109309523Y-142011904D01*
X109119047Y-142059523D01*
X108785714Y-142059523D01*
X108595238Y-142011904D01*
X108500000Y-141916666D01*
X108452380Y-141821428D01*
X108452380Y-141630952D01*
X108500000Y-141535714D01*
X108595238Y-141440476D01*
X108785714Y-141392857D01*
X109119047Y-141392857D01*
X109309523Y-141440476D01*
X109404761Y-141535714D01*
X109452380Y-141630952D01*
X109452380Y-141821428D01*
X108452380Y-141059523D02*
X108452380Y-140440476D01*
X108833333Y-140773809D01*
X108833333Y-140630952D01*
X108880952Y-140535714D01*
X108928571Y-140488095D01*
X109023809Y-140440476D01*
X109261904Y-140440476D01*
X109357142Y-140488095D01*
X109404761Y-140535714D01*
X109452380Y-140630952D01*
X109452380Y-140916666D01*
X109404761Y-141011904D01*
X109357142Y-141059523D01*
G04 #@! TO.C,U2*
X108988095Y-151802380D02*
X108988095Y-152611904D01*
X109035714Y-152707142D01*
X109083333Y-152754761D01*
X109178571Y-152802380D01*
X109369047Y-152802380D01*
X109464285Y-152754761D01*
X109511904Y-152707142D01*
X109559523Y-152611904D01*
X109559523Y-151802380D01*
X109988095Y-151897619D02*
X110035714Y-151850000D01*
X110130952Y-151802380D01*
X110369047Y-151802380D01*
X110464285Y-151850000D01*
X110511904Y-151897619D01*
X110559523Y-151992857D01*
X110559523Y-152088095D01*
X110511904Y-152230952D01*
X109940476Y-152802380D01*
X110559523Y-152802380D01*
G04 #@! TO.C,Q1*
X135654761Y-90797619D02*
X135559523Y-90750000D01*
X135464285Y-90654761D01*
X135321428Y-90511904D01*
X135226190Y-90464285D01*
X135130952Y-90464285D01*
X135178571Y-90702380D02*
X135083333Y-90654761D01*
X134988095Y-90559523D01*
X134940476Y-90369047D01*
X134940476Y-90035714D01*
X134988095Y-89845238D01*
X135083333Y-89750000D01*
X135178571Y-89702380D01*
X135369047Y-89702380D01*
X135464285Y-89750000D01*
X135559523Y-89845238D01*
X135607142Y-90035714D01*
X135607142Y-90369047D01*
X135559523Y-90559523D01*
X135464285Y-90654761D01*
X135369047Y-90702380D01*
X135178571Y-90702380D01*
X136559523Y-90702380D02*
X135988095Y-90702380D01*
X136273809Y-90702380D02*
X136273809Y-89702380D01*
X136178571Y-89845238D01*
X136083333Y-89940476D01*
X135988095Y-89988095D01*
G04 #@! TO.C,C8*
X120933333Y-149957142D02*
X120885714Y-150004761D01*
X120742857Y-150052380D01*
X120647619Y-150052380D01*
X120504761Y-150004761D01*
X120409523Y-149909523D01*
X120361904Y-149814285D01*
X120314285Y-149623809D01*
X120314285Y-149480952D01*
X120361904Y-149290476D01*
X120409523Y-149195238D01*
X120504761Y-149100000D01*
X120647619Y-149052380D01*
X120742857Y-149052380D01*
X120885714Y-149100000D01*
X120933333Y-149147619D01*
X121504761Y-149480952D02*
X121409523Y-149433333D01*
X121361904Y-149385714D01*
X121314285Y-149290476D01*
X121314285Y-149242857D01*
X121361904Y-149147619D01*
X121409523Y-149100000D01*
X121504761Y-149052380D01*
X121695238Y-149052380D01*
X121790476Y-149100000D01*
X121838095Y-149147619D01*
X121885714Y-149242857D01*
X121885714Y-149290476D01*
X121838095Y-149385714D01*
X121790476Y-149433333D01*
X121695238Y-149480952D01*
X121504761Y-149480952D01*
X121409523Y-149528571D01*
X121361904Y-149576190D01*
X121314285Y-149671428D01*
X121314285Y-149861904D01*
X121361904Y-149957142D01*
X121409523Y-150004761D01*
X121504761Y-150052380D01*
X121695238Y-150052380D01*
X121790476Y-150004761D01*
X121838095Y-149957142D01*
X121885714Y-149861904D01*
X121885714Y-149671428D01*
X121838095Y-149576190D01*
X121790476Y-149528571D01*
X121695238Y-149480952D01*
G04 #@! TO.C,R7*
X125333333Y-138752380D02*
X125000000Y-138276190D01*
X124761904Y-138752380D02*
X124761904Y-137752380D01*
X125142857Y-137752380D01*
X125238095Y-137800000D01*
X125285714Y-137847619D01*
X125333333Y-137942857D01*
X125333333Y-138085714D01*
X125285714Y-138180952D01*
X125238095Y-138228571D01*
X125142857Y-138276190D01*
X124761904Y-138276190D01*
X125666666Y-137752380D02*
X126333333Y-137752380D01*
X125904761Y-138752380D01*
G04 #@! TO.C,R3*
X106083333Y-152882380D02*
X105750000Y-152406190D01*
X105511904Y-152882380D02*
X105511904Y-151882380D01*
X105892857Y-151882380D01*
X105988095Y-151930000D01*
X106035714Y-151977619D01*
X106083333Y-152072857D01*
X106083333Y-152215714D01*
X106035714Y-152310952D01*
X105988095Y-152358571D01*
X105892857Y-152406190D01*
X105511904Y-152406190D01*
X106416666Y-151882380D02*
X107035714Y-151882380D01*
X106702380Y-152263333D01*
X106845238Y-152263333D01*
X106940476Y-152310952D01*
X106988095Y-152358571D01*
X107035714Y-152453809D01*
X107035714Y-152691904D01*
X106988095Y-152787142D01*
X106940476Y-152834761D01*
X106845238Y-152882380D01*
X106559523Y-152882380D01*
X106464285Y-152834761D01*
X106416666Y-152787142D01*
G04 #@! TO.C,R9*
X125133333Y-142952380D02*
X124800000Y-142476190D01*
X124561904Y-142952380D02*
X124561904Y-141952380D01*
X124942857Y-141952380D01*
X125038095Y-142000000D01*
X125085714Y-142047619D01*
X125133333Y-142142857D01*
X125133333Y-142285714D01*
X125085714Y-142380952D01*
X125038095Y-142428571D01*
X124942857Y-142476190D01*
X124561904Y-142476190D01*
X125609523Y-142952380D02*
X125800000Y-142952380D01*
X125895238Y-142904761D01*
X125942857Y-142857142D01*
X126038095Y-142714285D01*
X126085714Y-142523809D01*
X126085714Y-142142857D01*
X126038095Y-142047619D01*
X125990476Y-142000000D01*
X125895238Y-141952380D01*
X125704761Y-141952380D01*
X125609523Y-142000000D01*
X125561904Y-142047619D01*
X125514285Y-142142857D01*
X125514285Y-142380952D01*
X125561904Y-142476190D01*
X125609523Y-142523809D01*
X125704761Y-142571428D01*
X125895238Y-142571428D01*
X125990476Y-142523809D01*
X126038095Y-142476190D01*
X126085714Y-142380952D01*
G04 #@! TO.C,J2*
X141416666Y-161052380D02*
X141416666Y-161766666D01*
X141369047Y-161909523D01*
X141273809Y-162004761D01*
X141130952Y-162052380D01*
X141035714Y-162052380D01*
X141845238Y-161147619D02*
X141892857Y-161100000D01*
X141988095Y-161052380D01*
X142226190Y-161052380D01*
X142321428Y-161100000D01*
X142369047Y-161147619D01*
X142416666Y-161242857D01*
X142416666Y-161338095D01*
X142369047Y-161480952D01*
X141797619Y-162052380D01*
X142416666Y-162052380D01*
G04 #@! TO.C,D1*
X118952380Y-92838095D02*
X117952380Y-92838095D01*
X117952380Y-92600000D01*
X118000000Y-92457142D01*
X118095238Y-92361904D01*
X118190476Y-92314285D01*
X118380952Y-92266666D01*
X118523809Y-92266666D01*
X118714285Y-92314285D01*
X118809523Y-92361904D01*
X118904761Y-92457142D01*
X118952380Y-92600000D01*
X118952380Y-92838095D01*
X118952380Y-91314285D02*
X118952380Y-91885714D01*
X118952380Y-91600000D02*
X117952380Y-91600000D01*
X118095238Y-91695238D01*
X118190476Y-91790476D01*
X118238095Y-91885714D01*
G04 #@! TO.C,C4*
X126057142Y-92066666D02*
X126104761Y-92114285D01*
X126152380Y-92257142D01*
X126152380Y-92352380D01*
X126104761Y-92495238D01*
X126009523Y-92590476D01*
X125914285Y-92638095D01*
X125723809Y-92685714D01*
X125580952Y-92685714D01*
X125390476Y-92638095D01*
X125295238Y-92590476D01*
X125200000Y-92495238D01*
X125152380Y-92352380D01*
X125152380Y-92257142D01*
X125200000Y-92114285D01*
X125247619Y-92066666D01*
X125485714Y-91209523D02*
X126152380Y-91209523D01*
X125104761Y-91447619D02*
X125819047Y-91685714D01*
X125819047Y-91066666D01*
G04 #@! TO.C,C12*
X104357142Y-142787142D02*
X104309523Y-142834761D01*
X104166666Y-142882380D01*
X104071428Y-142882380D01*
X103928571Y-142834761D01*
X103833333Y-142739523D01*
X103785714Y-142644285D01*
X103738095Y-142453809D01*
X103738095Y-142310952D01*
X103785714Y-142120476D01*
X103833333Y-142025238D01*
X103928571Y-141930000D01*
X104071428Y-141882380D01*
X104166666Y-141882380D01*
X104309523Y-141930000D01*
X104357142Y-141977619D01*
X105309523Y-142882380D02*
X104738095Y-142882380D01*
X105023809Y-142882380D02*
X105023809Y-141882380D01*
X104928571Y-142025238D01*
X104833333Y-142120476D01*
X104738095Y-142168095D01*
X105690476Y-141977619D02*
X105738095Y-141930000D01*
X105833333Y-141882380D01*
X106071428Y-141882380D01*
X106166666Y-141930000D01*
X106214285Y-141977619D01*
X106261904Y-142072857D01*
X106261904Y-142168095D01*
X106214285Y-142310952D01*
X105642857Y-142882380D01*
X106261904Y-142882380D01*
G04 #@! TO.C,C9*
X117957142Y-156266666D02*
X118004761Y-156314285D01*
X118052380Y-156457142D01*
X118052380Y-156552380D01*
X118004761Y-156695238D01*
X117909523Y-156790476D01*
X117814285Y-156838095D01*
X117623809Y-156885714D01*
X117480952Y-156885714D01*
X117290476Y-156838095D01*
X117195238Y-156790476D01*
X117100000Y-156695238D01*
X117052380Y-156552380D01*
X117052380Y-156457142D01*
X117100000Y-156314285D01*
X117147619Y-156266666D01*
X118052380Y-155790476D02*
X118052380Y-155600000D01*
X118004761Y-155504761D01*
X117957142Y-155457142D01*
X117814285Y-155361904D01*
X117623809Y-155314285D01*
X117242857Y-155314285D01*
X117147619Y-155361904D01*
X117100000Y-155409523D01*
X117052380Y-155504761D01*
X117052380Y-155695238D01*
X117100000Y-155790476D01*
X117147619Y-155838095D01*
X117242857Y-155885714D01*
X117480952Y-155885714D01*
X117576190Y-155838095D01*
X117623809Y-155790476D01*
X117671428Y-155695238D01*
X117671428Y-155504761D01*
X117623809Y-155409523D01*
X117576190Y-155361904D01*
X117480952Y-155314285D01*
G04 #@! TO.C,C6*
X111557142Y-124820399D02*
X111604761Y-124868018D01*
X111652380Y-125010875D01*
X111652380Y-125106113D01*
X111604761Y-125248971D01*
X111509523Y-125344209D01*
X111414285Y-125391828D01*
X111223809Y-125439447D01*
X111080952Y-125439447D01*
X110890476Y-125391828D01*
X110795238Y-125344209D01*
X110700000Y-125248971D01*
X110652380Y-125106113D01*
X110652380Y-125010875D01*
X110700000Y-124868018D01*
X110747619Y-124820399D01*
X110652380Y-123963256D02*
X110652380Y-124153733D01*
X110700000Y-124248971D01*
X110747619Y-124296590D01*
X110890476Y-124391828D01*
X111080952Y-124439447D01*
X111461904Y-124439447D01*
X111557142Y-124391828D01*
X111604761Y-124344209D01*
X111652380Y-124248971D01*
X111652380Y-124058494D01*
X111604761Y-123963256D01*
X111557142Y-123915637D01*
X111461904Y-123868018D01*
X111223809Y-123868018D01*
X111128571Y-123915637D01*
X111080952Y-123963256D01*
X111033333Y-124058494D01*
X111033333Y-124248971D01*
X111080952Y-124344209D01*
X111128571Y-124391828D01*
X111223809Y-124439447D01*
G04 #@! TO.C,SW3*
X153404761Y-112333333D02*
X153452380Y-112190476D01*
X153452380Y-111952380D01*
X153404761Y-111857142D01*
X153357142Y-111809523D01*
X153261904Y-111761904D01*
X153166666Y-111761904D01*
X153071428Y-111809523D01*
X153023809Y-111857142D01*
X152976190Y-111952380D01*
X152928571Y-112142857D01*
X152880952Y-112238095D01*
X152833333Y-112285714D01*
X152738095Y-112333333D01*
X152642857Y-112333333D01*
X152547619Y-112285714D01*
X152500000Y-112238095D01*
X152452380Y-112142857D01*
X152452380Y-111904761D01*
X152500000Y-111761904D01*
X152452380Y-111428571D02*
X153452380Y-111190476D01*
X152738095Y-111000000D01*
X153452380Y-110809523D01*
X152452380Y-110571428D01*
X152452380Y-110285714D02*
X152452380Y-109666666D01*
X152833333Y-110000000D01*
X152833333Y-109857142D01*
X152880952Y-109761904D01*
X152928571Y-109714285D01*
X153023809Y-109666666D01*
X153261904Y-109666666D01*
X153357142Y-109714285D01*
X153404761Y-109761904D01*
X153452380Y-109857142D01*
X153452380Y-110142857D01*
X153404761Y-110238095D01*
X153357142Y-110285714D01*
X144928571Y-112357142D02*
X144976190Y-112214285D01*
X145023809Y-112166666D01*
X145119047Y-112119047D01*
X145261904Y-112119047D01*
X145357142Y-112166666D01*
X145404761Y-112214285D01*
X145452380Y-112309523D01*
X145452380Y-112690476D01*
X144452380Y-112690476D01*
X144452380Y-112357142D01*
X144500000Y-112261904D01*
X144547619Y-112214285D01*
X144642857Y-112166666D01*
X144738095Y-112166666D01*
X144833333Y-112214285D01*
X144880952Y-112261904D01*
X144928571Y-112357142D01*
X144928571Y-112690476D01*
X144452380Y-111500000D02*
X144452380Y-111309523D01*
X144500000Y-111214285D01*
X144595238Y-111119047D01*
X144785714Y-111071428D01*
X145119047Y-111071428D01*
X145309523Y-111119047D01*
X145404761Y-111214285D01*
X145452380Y-111309523D01*
X145452380Y-111500000D01*
X145404761Y-111595238D01*
X145309523Y-111690476D01*
X145119047Y-111738095D01*
X144785714Y-111738095D01*
X144595238Y-111690476D01*
X144500000Y-111595238D01*
X144452380Y-111500000D01*
X144452380Y-110452380D02*
X144452380Y-110261904D01*
X144500000Y-110166666D01*
X144595238Y-110071428D01*
X144785714Y-110023809D01*
X145119047Y-110023809D01*
X145309523Y-110071428D01*
X145404761Y-110166666D01*
X145452380Y-110261904D01*
X145452380Y-110452380D01*
X145404761Y-110547619D01*
X145309523Y-110642857D01*
X145119047Y-110690476D01*
X144785714Y-110690476D01*
X144595238Y-110642857D01*
X144500000Y-110547619D01*
X144452380Y-110452380D01*
X144452380Y-109738095D02*
X144452380Y-109166666D01*
X145452380Y-109452380D02*
X144452380Y-109452380D01*
G04 #@! TO.C,C7*
X108757142Y-124966666D02*
X108804761Y-125014285D01*
X108852380Y-125157142D01*
X108852380Y-125252380D01*
X108804761Y-125395238D01*
X108709523Y-125490476D01*
X108614285Y-125538095D01*
X108423809Y-125585714D01*
X108280952Y-125585714D01*
X108090476Y-125538095D01*
X107995238Y-125490476D01*
X107900000Y-125395238D01*
X107852380Y-125252380D01*
X107852380Y-125157142D01*
X107900000Y-125014285D01*
X107947619Y-124966666D01*
X107852380Y-124633333D02*
X107852380Y-123966666D01*
X108852380Y-124395238D01*
G04 #@! TO.C,SW2*
X153654761Y-129083333D02*
X153702380Y-128940476D01*
X153702380Y-128702380D01*
X153654761Y-128607142D01*
X153607142Y-128559523D01*
X153511904Y-128511904D01*
X153416666Y-128511904D01*
X153321428Y-128559523D01*
X153273809Y-128607142D01*
X153226190Y-128702380D01*
X153178571Y-128892857D01*
X153130952Y-128988095D01*
X153083333Y-129035714D01*
X152988095Y-129083333D01*
X152892857Y-129083333D01*
X152797619Y-129035714D01*
X152750000Y-128988095D01*
X152702380Y-128892857D01*
X152702380Y-128654761D01*
X152750000Y-128511904D01*
X152702380Y-128178571D02*
X153702380Y-127940476D01*
X152988095Y-127750000D01*
X153702380Y-127559523D01*
X152702380Y-127321428D01*
X152797619Y-126988095D02*
X152750000Y-126940476D01*
X152702380Y-126845238D01*
X152702380Y-126607142D01*
X152750000Y-126511904D01*
X152797619Y-126464285D01*
X152892857Y-126416666D01*
X152988095Y-126416666D01*
X153130952Y-126464285D01*
X153702380Y-127035714D01*
X153702380Y-126416666D01*
D14*
G04 #@! TO.C,D3*
X151260000Y-169896267D02*
X151260000Y-169603733D01*
X150240000Y-169896267D02*
X150240000Y-169603733D01*
G04 #@! TO.C,C2*
X141053733Y-114510000D02*
X141346267Y-114510000D01*
X141053733Y-113490000D02*
X141346267Y-113490000D01*
G04 #@! TO.C,C3*
X136653733Y-109710000D02*
X136946267Y-109710000D01*
X136653733Y-108690000D02*
X136946267Y-108690000D01*
G04 #@! TO.C,Q2*
X125000000Y-129440000D02*
X124350000Y-129440000D01*
X125000000Y-129440000D02*
X125650000Y-129440000D01*
X125000000Y-132560000D02*
X126675000Y-132560000D01*
X125000000Y-132560000D02*
X124350000Y-132560000D01*
G04 #@! TO.C,C14*
X126910000Y-150853733D02*
X126910000Y-151146267D01*
X125890000Y-150853733D02*
X125890000Y-151146267D01*
G04 #@! TO.C,SW4*
X149420000Y-120495000D02*
X149420000Y-123095000D01*
X149420000Y-120495000D02*
X152080000Y-120495000D01*
X149420000Y-123095000D02*
X152080000Y-123095000D01*
X149420000Y-117895000D02*
X150750000Y-117895000D01*
X149420000Y-119225000D02*
X149420000Y-117895000D01*
X152080000Y-120495000D02*
X152080000Y-123095000D01*
G04 #@! TO.C,R10*
X120477500Y-154504724D02*
X120477500Y-153995276D01*
X121522500Y-154504724D02*
X121522500Y-153995276D01*
G04 #@! TO.C,C10*
X120853733Y-146260000D02*
X121146267Y-146260000D01*
X120853733Y-145240000D02*
X121146267Y-145240000D01*
G04 #@! TO.C,J1*
X121410000Y-171260000D02*
X121410000Y-179370000D01*
X108090000Y-179370000D02*
X107440000Y-179370000D01*
X107440000Y-179890000D02*
X122060000Y-179890000D01*
X122060000Y-179890000D02*
X122060000Y-179370000D01*
X108090000Y-164410000D02*
X108090000Y-167740000D01*
X110350000Y-164190000D02*
X112150000Y-164190000D01*
X122060000Y-179370000D02*
X121410000Y-179370000D01*
X107440000Y-179370000D02*
X107440000Y-179890000D01*
X121410000Y-164410000D02*
X121410000Y-167740000D01*
X108090000Y-179370000D02*
X108090000Y-171260000D01*
X108090000Y-164410000D02*
X121410000Y-164410000D01*
G04 #@! TO.C,R2*
X132145276Y-104677500D02*
X132654724Y-104677500D01*
X132145276Y-105722500D02*
X132654724Y-105722500D01*
G04 #@! TO.C,R5*
X132654724Y-108677500D02*
X132145276Y-108677500D01*
X132654724Y-109722500D02*
X132145276Y-109722500D01*
G04 #@! TO.C,SW1*
X152200000Y-96770000D02*
X152230000Y-96770000D01*
X152230000Y-96770000D02*
X152230000Y-103230000D01*
X145770000Y-103230000D02*
X145800000Y-103230000D01*
X150300000Y-96770000D02*
X147700000Y-96770000D01*
X152230000Y-103230000D02*
X152200000Y-103230000D01*
X145770000Y-96770000D02*
X145770000Y-103230000D01*
X145770000Y-96770000D02*
X145800000Y-96770000D01*
X150300000Y-103230000D02*
X147700000Y-103230000D01*
G04 #@! TO.C,C15*
X128990000Y-151053733D02*
X128990000Y-151346267D01*
X130010000Y-151053733D02*
X130010000Y-151346267D01*
G04 #@! TO.C,C1*
X110353733Y-160490000D02*
X110646267Y-160490000D01*
X110353733Y-161510000D02*
X110646267Y-161510000D01*
G04 #@! TO.C,U6*
X129400000Y-170568000D02*
X132325000Y-170568000D01*
X129400000Y-170568000D02*
X127900000Y-170568000D01*
X129400000Y-167348000D02*
X127900000Y-167348000D01*
X129400000Y-167348000D02*
X130900000Y-167348000D01*
G04 #@! TO.C,R6*
X133227500Y-163774724D02*
X133227500Y-163265276D01*
X134272500Y-163774724D02*
X134272500Y-163265276D01*
G04 #@! TO.C,D2*
X129250000Y-161958000D02*
X129250000Y-165108000D01*
X129250000Y-161958000D02*
X127550000Y-161958000D01*
X127550000Y-161958000D02*
X127550000Y-165108000D01*
G04 #@! TO.C,U5*
X102590000Y-137600000D02*
X102590000Y-131590000D01*
X109410000Y-135350000D02*
X109410000Y-131590000D01*
X109410000Y-131590000D02*
X108150000Y-131590000D01*
X102590000Y-131590000D02*
X103850000Y-131590000D01*
D10*
G04 #@! TO.C,U3*
X153371500Y-158000000D02*
X133371500Y-158000000D01*
X153371500Y-137985000D02*
X133371500Y-137985000D01*
X133371500Y-158000000D02*
X133371500Y-137985000D01*
X153371500Y-158001999D02*
X148291500Y-158001999D01*
X148291500Y-137989000D01*
X153371500Y-137989000D01*
X153371500Y-158001999D01*
D14*
G04 #@! TO.C,U4*
X121172500Y-143860000D02*
X120697500Y-143860000D01*
X116952500Y-140115000D02*
X116952500Y-139640000D01*
X121172500Y-140115000D02*
X121172500Y-139640000D01*
X121172500Y-143385000D02*
X121172500Y-143860000D01*
X116952500Y-143385000D02*
X116952500Y-143860000D01*
X116952500Y-139640000D02*
X117427500Y-139640000D01*
X121172500Y-139640000D02*
X120697500Y-139640000D01*
G04 #@! TO.C,C11*
X128910000Y-158146267D02*
X128910000Y-157853733D01*
X127890000Y-158146267D02*
X127890000Y-157853733D01*
G04 #@! TO.C,R1*
X137054724Y-113477500D02*
X136545276Y-113477500D01*
X137054724Y-114522500D02*
X136545276Y-114522500D01*
G04 #@! TO.C,R12*
X150227500Y-165754724D02*
X150227500Y-165245276D01*
X151272500Y-165754724D02*
X151272500Y-165245276D01*
G04 #@! TO.C,C5*
X132253733Y-114510000D02*
X132546267Y-114510000D01*
X132253733Y-113490000D02*
X132546267Y-113490000D01*
G04 #@! TO.C,C16*
X141346267Y-108690000D02*
X141053733Y-108690000D01*
X141346267Y-109710000D02*
X141053733Y-109710000D01*
G04 #@! TO.C,U1*
X105590000Y-102000000D02*
X105590000Y-120000000D01*
X99650000Y-102000000D02*
X106400000Y-102000000D01*
X124400000Y-120000000D02*
X125150000Y-120000000D01*
X125150000Y-102000000D02*
X125150000Y-103000000D01*
X124400000Y-102000000D02*
X125150000Y-102000000D01*
X99650000Y-120000000D02*
X99650000Y-102000000D01*
X125150000Y-120000000D02*
X125150000Y-119000000D01*
X99650000Y-120000000D02*
X106400000Y-120000000D01*
G04 #@! TO.C,J3*
X128050000Y-174897500D02*
X128050000Y-175347500D01*
X128050000Y-174897500D02*
X128500000Y-174897500D01*
X133650000Y-177297500D02*
X133650000Y-175447500D01*
X133650000Y-175447500D02*
X133200000Y-175447500D01*
X125850000Y-175447500D02*
X126300000Y-175447500D01*
X125850000Y-177297500D02*
X125850000Y-175447500D01*
X125850000Y-179847500D02*
X125850000Y-179597500D01*
X133650000Y-179847500D02*
X133650000Y-179597500D01*
G04 #@! TO.C,R4*
X130022500Y-92254724D02*
X130022500Y-91745276D01*
X128977500Y-92254724D02*
X128977500Y-91745276D01*
G04 #@! TO.C,C13*
X111590000Y-133353733D02*
X111590000Y-133646267D01*
X112610000Y-133353733D02*
X112610000Y-133646267D01*
G04 #@! TO.C,R8*
X116577500Y-133754724D02*
X116577500Y-133245276D01*
X117622500Y-133754724D02*
X117622500Y-133245276D01*
G04 #@! TO.C,R11*
X113754724Y-145977500D02*
X113245276Y-145977500D01*
X113754724Y-147022500D02*
X113245276Y-147022500D01*
G04 #@! TO.C,Q3*
X113060000Y-141250000D02*
X113060000Y-140600000D01*
X109940000Y-141250000D02*
X109940000Y-140600000D01*
X113060000Y-141250000D02*
X113060000Y-141900000D01*
X109940000Y-141250000D02*
X109940000Y-142925000D01*
G04 #@! TO.C,U2*
X109750000Y-158310000D02*
X111700000Y-158310000D01*
X109750000Y-153190000D02*
X106300000Y-153190000D01*
X109750000Y-158310000D02*
X107800000Y-158310000D01*
X109750000Y-153190000D02*
X111700000Y-153190000D01*
G04 #@! TO.C,Q1*
X135750000Y-94310000D02*
X137425000Y-94310000D01*
X135750000Y-91190000D02*
X136400000Y-91190000D01*
X135750000Y-94310000D02*
X135100000Y-94310000D01*
X135750000Y-91190000D02*
X135100000Y-91190000D01*
G04 #@! TO.C,C8*
X120853733Y-147740000D02*
X121146267Y-147740000D01*
X120853733Y-148760000D02*
X121146267Y-148760000D01*
G04 #@! TO.C,R7*
X125554724Y-139077500D02*
X125045276Y-139077500D01*
X125554724Y-140122500D02*
X125045276Y-140122500D01*
G04 #@! TO.C,R3*
X106504724Y-151522500D02*
X105995276Y-151522500D01*
X106504724Y-150477500D02*
X105995276Y-150477500D01*
G04 #@! TO.C,R9*
X125045276Y-143227500D02*
X125554724Y-143227500D01*
X125045276Y-144272500D02*
X125554724Y-144272500D01*
G04 #@! TO.C,J2*
X142850000Y-177400000D02*
X142850000Y-179900000D01*
X143350000Y-176200000D02*
X143350000Y-177400000D01*
X137150000Y-162700000D02*
X143350000Y-162700000D01*
X143350000Y-177400000D02*
X142850000Y-177400000D01*
X143350000Y-173600000D02*
X145350000Y-173600000D01*
X137650000Y-179900000D02*
X137650000Y-177400000D01*
X137150000Y-177400000D02*
X137150000Y-174200000D01*
X143350000Y-167100000D02*
X143350000Y-173600000D01*
X143350000Y-176200000D02*
X145350000Y-176200000D01*
X142850000Y-179900000D02*
X137650000Y-179900000D01*
X137150000Y-171600000D02*
X137150000Y-162700000D01*
X143350000Y-162700000D02*
X143350000Y-163900000D01*
X137650000Y-177400000D02*
X137150000Y-177400000D01*
G04 #@! TO.C,D1*
X119250000Y-95650000D02*
X120400000Y-95650000D01*
X124750000Y-88350000D02*
X124750000Y-95650000D01*
X119250000Y-88350000D02*
X119250000Y-95650000D01*
G04 #@! TO.C,C4*
X127510000Y-92146267D02*
X127510000Y-91853733D01*
X126490000Y-92146267D02*
X126490000Y-91853733D01*
G04 #@! TO.C,C12*
X105146267Y-141510000D02*
X104853733Y-141510000D01*
X105146267Y-140490000D02*
X104853733Y-140490000D01*
G04 #@! TO.C,C9*
X116760000Y-156146267D02*
X116760000Y-155853733D01*
X115740000Y-156146267D02*
X115740000Y-155853733D01*
G04 #@! TO.C,C6*
X109390000Y-124946267D02*
X109390000Y-124653733D01*
X110410000Y-124946267D02*
X110410000Y-124653733D01*
G04 #@! TO.C,SW3*
X152200000Y-107770000D02*
X152230000Y-107770000D01*
X152230000Y-114230000D02*
X152200000Y-114230000D01*
X145770000Y-114230000D02*
X145800000Y-114230000D01*
X150300000Y-107770000D02*
X147700000Y-107770000D01*
X145770000Y-107770000D02*
X145770000Y-114230000D01*
X145770000Y-107770000D02*
X145800000Y-107770000D01*
X152230000Y-107770000D02*
X152230000Y-114230000D01*
X150300000Y-114230000D02*
X147700000Y-114230000D01*
G04 #@! TO.C,C7*
X107610000Y-124946267D02*
X107610000Y-124653733D01*
X106590000Y-124946267D02*
X106590000Y-124653733D01*
G04 #@! TO.C,SW2*
X149420000Y-127745000D02*
X149420000Y-130345000D01*
X152080000Y-127745000D02*
X152080000Y-130345000D01*
X149420000Y-125145000D02*
X150750000Y-125145000D01*
X149420000Y-130345000D02*
X152080000Y-130345000D01*
X149420000Y-127745000D02*
X152080000Y-127745000D01*
X149420000Y-126475000D02*
X149420000Y-125145000D01*
G04 #@! TD*
M02*
